<?xml version="1.0" encoding="UTF-8" standalone="no"?>
<!-- Created with Inkscape (http://www.inkscape.org/) -->

<svg
   xmlns:dc="http://purl.org/dc/elements/1.1/"
   xmlns:cc="http://creativecommons.org/ns#"
   xmlns:rdf="http://www.w3.org/1999/02/22-rdf-syntax-ns#"
   xmlns:svg="http://www.w3.org/2000/svg"
   xmlns="http://www.w3.org/2000/svg"
   xmlns:sodipodi="http://sodipodi.sourceforge.net/DTD/sodipodi-0.dtd"
   xmlns:inkscape="http://www.inkscape.org/namespaces/inkscape"
   id="svg2"
   version="1.1"
   inkscape:version="0.47pre4 r22446"
   width="250"
   height="160"
   sodipodi:docname="jaluino_cuckoo_logo.svg"
   inkscape:export-filename="/opt/local/perso/jaluino/doc/materials/jaluino_cuckoo_logo.png"
   inkscape:export-xdpi="100.08"
   inkscape:export-ydpi="100.08">
  <title
     id="title4208">Jaluino Cuckoo Logo</title>
  <metadata
     id="metadata8">
    <rdf:RDF>
      <cc:Work
         rdf:about="">
        <dc:format>image/svg+xml</dc:format>
        <dc:type
           rdf:resource="http://purl.org/dc/dcmitype/StillImage" />
        <dc:title>Jaluino Cuckoo Logo</dc:title>
        <dc:date>2010-07-23</dc:date>
        <dc:creator>
          <cc:Agent>
            <dc:title>Sebastien Lelong</dc:title>
          </cc:Agent>
        </dc:creator>
        <dc:rights>
          <cc:Agent>
            <dc:title />
          </cc:Agent>
        </dc:rights>
        <cc:license
           rdf:resource="http://creativecommons.org/licenses/by-nc-nd/3.0/" />
      </cc:Work>
      <cc:License
         rdf:about="http://creativecommons.org/licenses/by-nc-nd/3.0/">
        <cc:permits
           rdf:resource="http://creativecommons.org/ns#Reproduction" />
        <cc:permits
           rdf:resource="http://creativecommons.org/ns#Distribution" />
        <cc:requires
           rdf:resource="http://creativecommons.org/ns#Notice" />
        <cc:requires
           rdf:resource="http://creativecommons.org/ns#Attribution" />
        <cc:prohibits
           rdf:resource="http://creativecommons.org/ns#CommercialUse" />
      </cc:License>
    </rdf:RDF>
  </metadata>
  <defs
     id="defs6">
    <inkscape:perspective
       sodipodi:type="inkscape:persp3d"
       inkscape:vp_x="0 : 0.5 : 1"
       inkscape:vp_y="0 : 1000 : 0"
       inkscape:vp_z="1 : 0.5 : 1"
       inkscape:persp3d-origin="0.5 : 0.33333333 : 1"
       id="perspective10" />
    <inkscape:perspective
       id="perspective3716"
       inkscape:persp3d-origin="0.5 : 0.33333333 : 1"
       inkscape:vp_z="1 : 0.5 : 1"
       inkscape:vp_y="0 : 1000 : 0"
       inkscape:vp_x="0 : 0.5 : 1"
       sodipodi:type="inkscape:persp3d" />
    <inkscape:perspective
       id="perspective3848"
       inkscape:persp3d-origin="0.5 : 0.33333333 : 1"
       inkscape:vp_z="1 : 0.5 : 1"
       inkscape:vp_y="0 : 1000 : 0"
       inkscape:vp_x="0 : 0.5 : 1"
       sodipodi:type="inkscape:persp3d" />
  </defs>
  <sodipodi:namedview
     pagecolor="#ffffff"
     bordercolor="#666666"
     borderopacity="1"
     objecttolerance="10"
     gridtolerance="10"
     guidetolerance="10"
     inkscape:pageopacity="0"
     inkscape:pageshadow="2"
     inkscape:window-width="1272"
     inkscape:window-height="955"
     id="namedview4"
     showgrid="false"
     inkscape:zoom="2.975"
     inkscape:cx="150.12999"
     inkscape:cy="47.152679"
     inkscape:window-x="1280"
     inkscape:window-y="0"
     inkscape:window-maximized="1"
     inkscape:current-layer="svg2" />
  <path
     style="fill:#383838;stroke:#001014;stroke-opacity:0.77734375000000000;fill-opacity:1"
     d="m 211.04659,156.93962 c -1.17653,-0.82407 -2.90933,-3.51499 -3.85065,-5.97981 -1.68691,-4.41711 -3.4552,-5.19596 -3.4552,-1.52186 0,1.74421 -1.67504,3.65829 -2.48906,2.84427 -0.46234,-0.46234 2.254,-12.5836 3.56398,-15.9037 1.01609,-2.57525 6.57221,-6.62677 7.633,-5.56598 0.3132,0.3132 -0.59529,1.01229 -2.01887,1.55353 -1.90886,0.72575 -2.87701,2.11127 -3.68806,5.27798 -0.60485,2.36165 -1.28839,4.8564 -1.51898,5.5439 -0.68094,2.03026 0.99616,1.43436 3.51799,-1.25 2.60489,-2.77278 6.30838,-3.4672 5.36383,-1.00574 -0.31537,0.82184 -0.99604,1.23305 -1.51259,0.9138 -0.51656,-0.31925 -2.04615,0.14485 -3.39909,1.03134 l -2.4599,1.61179 2.42586,4.78722 c 3.12025,6.15751 4.84675,7.56291 8.24354,6.71038 2.35565,-0.59124 2.5274,-0.48151 1.39054,0.88833 -1.63911,1.975 -4.97905,2.00283 -7.74634,0.0645 z m -54.65086,-2.33041 c -5.11279,-5.64957 2.43751,-18.33835 11.81779,-19.86056 2.70436,-0.43885 3.63847,-0.18436 4.14228,1.12855 0.35778,0.93235 0.15551,2.19018 -0.44949,2.79518 -0.8,0.8 -1.27449,0.64531 -1.73978,-0.56721 -1.5121,-3.94048 -8.65953,-0.74538 -11.03142,4.93135 -3.33285,7.97662 -0.93976,12.49402 5.68235,10.72648 4.85297,-1.29534 5.07288,-0.70333 0.4554,1.22598 -4.60529,1.92421 -6.88013,1.82689 -8.87713,-0.37977 z m 17.34501,-2.52204 c 0,-0.74292 0.51087,-2.81625 1.13526,-4.60738 0.88501,-2.53875 0.85523,-3.42968 -0.1351,-4.04174 -0.93265,-0.57641 -0.68,-1.10108 0.95039,-1.97363 1.22141,-0.65368 2.38422,-1.02503 2.58403,-0.82522 0.19981,0.19981 -0.12257,2.27743 -0.7164,4.61693 -0.59383,2.33951 -0.86026,4.47308 -0.59206,4.74127 1.29952,1.29953 3.86161,-1.17156 4.7902,-4.62005 1.19453,-4.43614 3.67533,-6.87829 2.62952,-2.58855 -0.35521,1.45703 -0.93715,3.84397 -1.29319,5.30431 -0.5726,2.34857 -0.3994,2.59033 1.5,2.09362 3.00556,-0.78597 2.67338,-0.0722 -0.80299,1.72554 -3.6791,1.90254 -4.04966,1.8997 -4.04966,-0.031 0,-1.40894 -0.21096,-1.40894 -2.22251,0 -2.73023,1.9123 -3.77749,1.9694 -3.77749,0.2059 z m 15.4599,0.28589 c -0.36198,-0.58568 -0.3718,-2.59118 -0.0218,-4.45666 1.02618,-5.47004 8.01015,-9.63926 9.35944,-5.58732 0.34944,1.04937 -0.17313,1.23141 -2.12713,0.74099 -2.94386,-0.73886 -4.67041,1.40608 -4.67041,5.80214 0,2.78247 1.74269,3.309 5.06574,1.53056 1.06384,-0.56935 1.93426,-0.80591 1.93426,-0.52568 0,0.79874 -5.73336,3.56086 -7.39132,3.56086 -0.81986,0 -1.78681,-0.4792 -2.14878,-1.06489 z m 27,0 c -1.50577,-2.43638 0.64358,-8.0274 3.84436,-10.00014 5.94396,-3.66346 9.24329,-1.08531 6.64344,5.19129 -1.79503,4.33359 -8.79724,7.54424 -10.4878,4.80885 z m 7.50492,-2.86937 c 1.78567,-3.33657 1.29503,-7.06574 -0.92964,-7.06574 -2.29005,0 -4.03518,2.78269 -4.03518,6.43426 0,3.15238 3.38524,3.58295 4.96482,0.63148 z m 6.49508,2.86937 c -1.50577,-2.43638 0.64358,-8.0274 3.84436,-10.00014 5.94396,-3.66346 9.24329,-1.08531 6.64344,5.19129 -1.79503,4.33359 -8.79724,7.54424 -10.4878,4.80885 z m 7.50492,-2.86937 c 1.78567,-3.33657 1.29503,-7.06574 -0.92964,-7.06574 -2.29005,0 -4.03518,2.78269 -4.03518,6.43426 0,3.15238 3.38524,3.58295 4.96482,0.63148 z M 38.191841,129.09912 c -0.35912,-1.43085 0.230644,-3.90753 1.519153,-6.37959 2.216811,-4.25304 6.029752,-8.36056 6.029752,-6.49558 0,0.60278 -0.45643,1.37806 -1.01429,1.72283 -1.313692,0.81191 -4.995855,8.02586 -4.951779,9.70133 0.01866,0.70941 0.827521,-0.38617 1.797463,-2.43463 0.969942,-2.04845 2.76896,-4.88081 3.997818,-6.29412 1.228857,-1.41331 1.999954,-2.94881 1.713547,-3.41222 -0.286406,-0.46342 0.149307,-1.39866 0.968251,-2.07833 0.818945,-0.67966 1.48899,-2.53065 1.48899,-4.1133 0,-2.23839 -0.457357,-2.87756 -2.059017,-2.87756 -1.132459,0 -1.780902,-0.45 -1.440983,-1 0.339919,-0.55 1.491476,-1 2.559017,-1 1.12019,0 1.940983,-0.68304 1.940983,-1.61522 0,-1.38004 -0.824257,-1.51224 -5.660999,-0.90793 -3.11355,0.38901 -6.37605,1.07803 -7.25,1.53115 -0.873951,0.45313 -3.257386,1.54874 -5.296523,2.43469 -2.039136,0.88596 -3.978194,2.04879 -4.309017,2.58407 -0.330822,0.53528 -1.249937,0.97324 -2.042478,0.97324 -1.021872,0 -1.402695,-1.09069 -1.309342,-3.75 l 0.131641,-3.75 0.618359,3.41252 c 0.55448,3.05999 0.760139,3.24077 1.990804,1.75 0.754844,-0.91439 1.992344,-1.66252 2.75,-1.66252 0.757655,0 1.377555,-0.45 1.377555,-1 0,-0.55 0.707143,-1 1.571429,-1 0.864285,0 2.246428,-0.675 3.071428,-1.5 1.051282,-1.05128 1.12963,-1.5 0.261905,-1.5 -0.680952,0 -0.966825,-0.27127 -0.635273,-0.602817 0.331553,-0.33155 0.192691,-1.68155 -0.308582,-3 -0.787664,-2.07171 -0.609283,-2.41326 1.313844,-2.51566 1.223887,-0.0652 2.787749,-0.0454 3.475249,0.0438 0.6875,0.0893 1.250318,-0.19491 1.250706,-0.63152 3.89e-4,-0.43661 1.093136,-0.85672 2.428329,-0.93358 2.184604,-0.12577 2.322489,0.091 1.377395,2.16524 -1.037044,2.27607 -4.030462,3.85719 -6.656782,3.51611 -0.742694,-0.0965 -1.053636,0.30473 -0.690983,0.89151 0.833948,1.349357 4.955037,1.357417 9.773907,0.0191 2.916206,-0.80989 4.32974,-2.06627 6.462926,-5.74442 1.501695,-2.58929 3.084538,-4.85781 3.517428,-5.04114 0.432891,-0.18333 0.787074,-0.95671 0.787074,-1.71861 0,-0.82052 0.611532,-1.15062 1.5,-0.80968 0.825,0.31658 1.5,0.0775 1.5,-0.53139 0,-0.60884 0.491522,-1.10699 1.092271,-1.10699 0.600749,0 2.204469,-0.87485 3.563823,-1.94412 2.616526,-2.05816 5.343906,-1.77689 5.343906,0.55111 0,1.5116 0.137098,1.56939 4.316201,1.81936 1.54891,0.0926 3.01287,-0.14978 3.253244,-0.53871 0.899135,-1.45483 -0.800933,-3.7459 -2.674866,-3.60474 -1.138767,0.0858 -1.739536,0.67876 -1.45058,1.43176 0.271277,0.70694 -0.167645,1.28534 -0.975384,1.28534 -0.899856,0 -1.468615,-0.96819 -1.468615,-2.5 0,-1.45679 0.57483,-2.5 1.377555,-2.5 0.757656,0 1.947477,-0.68671 2.644048,-1.52603 0.902699,-1.08768 2.917278,-1.47649 7.013451,-1.35358 4.520746,0.13565 6.724668,-0.37401 10.329251,-2.38865 2.520262,-1.40861 5.902089,-2.85097 7.515179,-3.20526 3.62581,-0.79637 15.08555,-0.94097 17.12052,-0.21604 0.825,0.2939 3.85721,1.27869 6.73824,2.18842 5.40431,1.70651 7.01965,2.91471 5.30976,3.97148 -0.54154,0.33469 -3.13638,-0.3763 -5.76631,-1.57998 -3.36082,-1.5382 -7.11193,-2.26484 -12.62373,-2.44539 -7.60894,-0.24926 -7.8236,-0.19281 -7.22153,1.89907 2.71078,9.41855 2.79846,12.23918 0.54339,17.48124 -1.22436,2.8461 -2.62069,5.17472 -3.10296,5.17472 -1.51643,0 -0.95642,-2.62914 1.12314,-5.27287 2.50979,-3.19068 2.5081,-7.01071 -0.006,-12.54972 -1.6977,-3.74098 -2.26659,-4.22776 -4.228044,-3.61781 -1.24651,0.38762 -2.41639,1.09529 -2.59972,1.57259 -0.182907,0.4773 -0.917923,0.86781 -1.632942,0.86781 -2.276491,0 -2.557772,3.91654 -0.365542,5.08978 1.123403,0.60123 1.749926,1.68236 1.441188,2.48692 -0.381511,0.9942 0.198077,1.4233 1.922436,1.4233 2.632854,0 3.182504,1.73361 1.51031,4.76357 -0.52706,0.95504 -2.23498,4.7449 -3.795375,8.42191 -3.120795,7.354057 -5.046082,7.862267 -5.570768,1.470507 -0.30922,-3.766947 -3.010698,-7.654167 -4.372777,-6.292087 -0.409667,0.40967 -0.298722,1.05788 0.246545,1.44048 1.727739,1.21229 3.549751,6.365177 2.672277,7.557537 -0.460636,0.62595 -0.758437,2.19105 -0.661779,3.47801 0.117912,1.56993 -1.163297,3.62659 -3.893481,6.25 -2.238072,2.15054 -3.528572,3.91007 -2.867777,3.91007 0.660795,0 1.20429,-0.3375 1.207768,-0.75 0.0099,-1.17937 6.065598,-4.32358 7.098087,-3.68547 1.023733,0.6327 -1.439369,5.61574 -4.567797,9.24099 -1.974256,2.28779 -1.974357,2.30016 -0.01309,1.60803 1.813539,-0.63999 1.846845,-0.5591 0.404015,0.98122 -0.961099,1.02605 -2.253617,1.41733 -3.324446,1.00642 -1.533072,-0.5883 -1.367827,-1.02318 1.322459,-3.48038 2.861439,-2.61351 4.124707,-5.92081 2.26154,-5.92081 -0.4471,0 -2.106291,1.35 -3.687091,3 -3.141642,3.27917 -8.5,4.22476 -8.5,1.5 0,-1.81782 1.610549,-1.98507 2.407436,-0.25 0.315756,0.6875 0.375255,0.35 0.132219,-0.75 -0.322622,-1.46021 0.777682,-2.94463 4.076799,-5.5 5.249281,-4.06589 5.919603,-5.09973 6.814855,-10.51052 0.54011,-3.26436 0.275838,-4.426687 -1.420431,-6.247427 -1.668226,-1.79063 -1.870178,-2.63643 -1.012254,-4.23948 1.293321,-2.41659 1.422962,-2.42766 4.536559,-0.38756 1.816243,1.19005 2.464817,2.50572 2.464817,5 0,4.462137 1.588528,4.298877 3.55145,-0.36501 2.9746,-7.06761 2.90484,-8.56566 -0.491957,-10.56359 -3.538153,-2.08108 -5.763468,-1.64782 -10.04633,1.95597 -3.298103,2.77517 -5.452619,2.57126 -10.241481,-0.9693 -2.649329,-1.95873 -2.915946,-1.97471 -6.269342,-0.37558 -1.969829,0.93934 -3.534321,2.44297 -3.575428,3.43632 -0.0402,0.9714 -0.933518,3.11618 -1.985153,4.76618 -1.051635,1.65 -2.357608,4.0125 -2.902161,5.249997 -0.544553,1.2375 -1.442661,2.25 -1.995795,2.25 -0.553134,0 -1.300179,1.1733 -1.660098,2.60733 -0.90976,3.62478 1.306158,4.78178 4.438792,2.31765 3.620385,-2.84779 4.823207,-2.33918 1.359872,0.57502 -3.592374,3.02278 -5.298774,3.13384 -7.682369,0.5 -1.123178,-1.2411 -1.34932,-2 -0.595971,-2 0.667703,0 0.93589,-0.45 0.595971,-1 -0.339919,-0.55 -0.221241,-1 0.263728,-1 0.484969,0 1.876932,-1.99264 3.093251,-4.42807 1.216319,-2.435447 2.758584,-4.623837 3.427255,-4.863097 0.668671,-0.23926 0.889141,-0.78575 0.489932,-1.21442 -0.399209,-0.42868 -1.411709,-0.21018 -2.25,0.48554 -1.042319,0.86505 -1.524166,0.9101 -1.524166,0.1425 0,-0.61735 -0.480324,-1.12245 -1.067388,-1.12245 -0.624373,0 -0.794683,0.85922 -0.41034,2.07018 0.497473,1.5674 0.149541,2.20289 -1.432612,2.61663 -1.510047,0.39488 -2.08966,1.346217 -2.08966,3.429817 0,1.58585 0.05304,2.99587 0.117877,3.13337 0.06483,0.1375 -0.620458,2.01708 -1.522867,4.17685 -1.093891,2.61805 -1.292104,4.14232 -0.594707,4.57334 1.279094,0.79052 -0.845057,10.99981 -2.288628,10.99981 -0.519656,0 -0.729772,-1.125 -0.466924,-2.5 0.797106,-4.16979 -1.834765,-2.90364 -4.134624,1.9891 -1.16057,2.46901 -2.110127,4.94401 -2.110127,5.5 0,2.04924 -2.98127,0.93371 -3.548905,-1.32793 z M 83.740746,80.687813 c 0,-0.75234 0.468305,-1.07846 1.040677,-0.72472 0.572373,0.35375 0.767048,1.50531 0.432613,2.55902 -0.969069,3.05327 1.998565,2.33222 4.978915,-1.20972 2.903008,-3.45003 2.785281,-4.40197 -0.418634,-3.38509 -1.488969,0.47258 -1.944326,1.21648 -1.534684,2.50715 0.320357,1.00935 0.05578,2.1607 -0.587942,2.55854 -0.720894,0.44554 -0.998715,0.20827 -0.723366,-0.61777 0.658346,-1.97504 -2.287413,-4.93727 -4.90982,-4.93727 -2.335375,0 -3.15622,2.33905 -1.237082,3.52514 0.572373,0.35375 0.774072,1.61781 0.448221,2.80902 -0.578414,2.11451 -0.555678,2.11984 0.959323,0.22471 0.853478,-1.06762 1.551779,-2.55667 1.551779,-3.30901 z m 17.165614,49.153577 c -2.832794,-1.98416 -2.610784,-5.90344 0.33439,-5.90344 1.49634,0 1.93705,0.58334 1.75002,2.31642 -0.2141,1.98393 0.14475,2.271 2.5,2 2.57577,-0.29637 2.76944,-0.65805 3.05719,-5.70921 0.16897,-2.96603 -0.16853,-5.86853 -0.75,-6.45 -1.92139,-1.92139 -1.10649,-2.65721 2.94279,-2.65721 3.79661,0 5.1799,1.15275 3,2.5 -0.55,0.33992 -1,3.26596 -1,6.50231 0,4.94703 -0.354,6.13223 -2.22251,7.44099 -2.85569,2.0002 -6.72218,1.98417 -9.61188,-0.0399 z m 16.98313,0.3453 c -0.63181,-0.63181 -1.14874,-1.664 -1.14874,-2.29375 0,-1.81662 3.45195,-4.45499 5.82874,-4.45499 1.26334,0 2.17126,-0.62723 2.17126,-1.5 0,-2.05545 -2.98992,-1.89197 -4.57244,0.25 -0.99712,1.34963 -1.56748,1.4794 -2.49302,0.56722 -3.05413,-3.01005 2.8333,-6.48266 7.95589,-4.69266 2.142,0.74849 2.66063,1.6253 2.89456,4.89365 0.25565,3.57181 0.50443,4.82021 1.43765,7.21432 0.47712,1.224 -10.8509,1.23921 -12.0739,0.0162 z m 6.85126,-3.32206 c 0,-0.93124 -0.68037,-1.44138 -1.66713,-1.25 -2.50877,0.48655 -2.85325,2.82332 -0.4162,2.82332 1.22833,0 2.08333,-0.64569 2.08333,-1.57332 z m 7,3.63234 c 0,-0.51754 0.45,-1.2191 1,-1.55902 1.49764,-0.92559 1.27455,-13.23267 -0.25,-13.79167 -1.61266,-0.59131 -0.0463,-2.24296 3,-3.16332 2.2103,-0.66779 2.25,-0.52966 2.25,7.82859 0,4.6796 0.45,8.78648 1,9.1264 2.1799,1.34725 0.79661,2.5 -3,2.5 -2.2,0 -4,-0.42344 -4,-0.94098 z M 144.8,130.0972 c -0.58259,-0.58259 -1.05925,-2.95675 -1.05925,-5.27592 0,-2.43616 -0.52782,-4.43083 -1.25,-4.72387 -1.62169,-0.65802 0.9781,-2.62208 3.5,-2.64415 1.45916,-0.0128 1.74999,0.91092 1.74999,5.55801 0,4.76756 0.25301,5.5254 1.75,5.24181 2.19186,-0.41521 3.03885,-6.69192 1.07418,-7.96027 -1.07764,-0.6957 -1.0449,-1.03819 0.17582,-1.83955 0.825,-0.54158 2.2875,-0.99158 3.25,-1 1.4564,-0.0127 1.75,0.90743 1.75,5.48469 0,3.025 0.45,5.5 1,5.5 0.55,0 1,0.64957 1,1.44348 0,1.10544 -1.39123,1.42376 -5.94075,1.35925 -3.26741,-0.0463 -6.4174,-0.56089 -6.99999,-1.14348 z m 14.94074,0.39977 c 0,-0.51754 0.45,-1.2191 1,-1.55902 0.55,-0.33992 1,-2.13992 1,-4 0,-1.86008 -0.45,-3.66008 -1,-4 -1.97115,-1.21824 -0.94575,-2.5 2,-2.5 2.92856,0 3,0.11767 3,4.94098 0,2.71754 0.45,5.2191 1,5.55902 2.1799,1.34725 0.79661,2.5 -3,2.5 -2.2,0 -4,-0.42344 -4,-0.94098 z m 10,0 c 0,-0.51754 0.45,-1.2191 1,-1.55902 1.41625,-0.87529 1.24297,-6.85703 -0.24164,-8.34164 -1.83339,-1.83339 0.57511,-2.98157 6.15057,-2.93213 5.93671,0.0526 7.09107,1.08429 7.09107,6.3372 0,2.37519 0.45,4.59665 1,4.93657 2.66487,1.64698 0.27641,2.5 -7,2.5 -4.4,0 -8,-0.42344 -8,-0.94098 z m 9.81166,-5.97194 c 0.26766,-3.6564 0.0559,-4.20895 -1.5,-3.91373 -1.88251,0.3572 -2.96841,4.67281 -1.88571,7.49428 1.07588,2.8037 3.07297,0.69169 3.38571,-3.58055 z m 10.18834,4.91292 c -1.11111,-1.11111 -2,-3.33333 -2,-5 0,-1.66667 0.88889,-3.88889 2,-5 4.32818,-4.32818 12,-1.13159 12,5 0,3.84928 -3.15072,7 -7,7 -1.66667,0 -3.88889,-0.88889 -5,-2 z m 7.5,-5 c 0,-3.06667 -0.30952,-3.5 -2.5,-3.5 -1.85467,0 -2.58495,0.59957 -2.82908,2.32273 -0.50992,3.59911 0.56925,5.35317 3.07461,4.99741 1.84889,-0.26255 2.25447,-0.94979 2.25447,-3.82014 z m -148.299994,4.8 c -1.598411,-1.59841 -1.518395,-2.8 0.186456,-2.8 0.872767,0 1.631937,-1.63698 2.049011,-4.41823 0.667064,-4.4483 1.810245,-6.13746 4.567963,-6.74958 0.823114,-0.1827 2.84657,-1.72276 4.49657,-3.42235 3.133741,-3.22793 6.5,-5.00383 6.5,-3.42914 0,1.42899 -6.152129,6.92672 -9.650863,8.6243 -3.379078,1.63953 -4.313905,3.7192 -4.335482,9.645 -0.01411,3.87511 -1.497008,4.86665 -3.813655,2.55 z m 40.064633,-9.087 c 0.679452,-1.21715 1.624908,-2.49672 2.101014,-2.84349 0.476107,-0.34677 0.952239,-2.41599 1.058073,-4.59828 0.112912,-2.32824 1.098158,-5.11923 2.384352,-6.75436 1.20556,-1.53262 2.191928,-3.33204 2.191928,-3.99872 0,-1.974667 3.799064,-5.760367 5.022134,-5.004467 0.77762,0.48059 0.53361,1.36382 -0.78509,2.84182 -1.052354,1.179477 -2.477394,3.574667 -3.166764,5.322637 -0.68937,1.74798 -1.921746,3.43462 -2.73862,3.74808 -1.000556,0.38395 -1.389621,1.67963 -1.192251,3.9705 0.293399,3.40549 -2.179328,8.02088 -4.84534,9.04393 -1.012783,0.38864 -1.018648,0.0444 -0.02944,-1.72765 z m 71.925731,-5.463 c 0.18536,-0.9625 1.22469,-1.75 2.30963,-1.75 1.08494,0 2.12427,0.7875 2.30963,1.75 0.25243,1.31075 -0.32729,1.75 -2.30963,1.75 -1.98234,0 -2.56206,-0.43925 -2.30963,-1.75 z m -136.158561,-14.5 c -0.01749,-0.962497 0.418197,-1.749997 0.968197,-1.749997 0.55,0 1,-0.85185 1,-1.89301 0,-1.97644 2.508571,-3.52874 4.106554,-2.54113 1.397632,0.86378 -0.102112,2.64983 -1.707705,2.0337 -0.769367,-0.29523 -1.398849,0.0381 -1.398849,0.7407 0,0.70262 -0.660688,2.15099 -1.468197,3.21861 -1.328471,1.756397 -1.471223,1.774587 -1.5,0.191127 z m 0.772996,-8.407757 c -1.403988,-1.55589 -1.559354,-2.87968 -0.904411,-7.70598 0.796266,-5.86771 2.032983,-7.59276 5.46359,-7.62094 1.025189,-0.008 5.075189,-1.99307 9,-4.41033 3.924812,-2.41726 8.132889,-4.69263 9.351282,-5.05637 1.523749,-0.4549 2.416484,-1.73395 2.859879,-4.097448 1.100987,-5.868767 0.381091,-6.438388 -8.293754,-6.562471 -4.279762,-0.06122 -9.581385,-0.217641 -11.781385,-0.347611 -4.576006,-0.270337 -14.535555,1.363878 -15.95,2.617159 -1.293363,1.145995 -5.2938854,1.065174 -6.0274584,-0.12177 -0.32752,-0.52994 0.348878,-1.907895 1.5031064,-3.062123 l 2.098597,-2.098597 -2.163705,-3.667207 C 9.5112476,47.629541 8.3635496,45.069996 8.1508436,43.958627 7.9381386,42.847259 7.0908456,41.443462 6.2679696,40.83908 c -0.822875,-0.604382 -1.203131,-1.391882 -0.845014,-1.75 0.358118,-0.358118 0.168252,-0.651123 -0.421924,-0.651123 -0.606655,0 -0.82795,-0.93725 -0.509143,-2.156372 0.376101,-1.438212 0.19175,-1.926368 -0.553538,-1.465755 -0.81687,0.504854 -0.832928,-0.12554 -0.0597,-2.343628 1.230589,-3.53007 2.733621,-3.833088 5.130065,-1.034245 0.941849,1.1 2.3918574,2 3.2222414,2 1.709653,0 1.884334,0.86002 0.589947,2.904539 -0.714066,1.127886 -1.400446,0.852911 -3.4846874,-1.396023 -2.385222,-2.573697 -2.595473,-2.633284 -2.595473,-0.735578 0,1.13574 0.637022,3.338951 1.415603,4.896022 0.778582,1.557072 1.9003164,3.95604 2.4927424,5.33104 0.592426,1.375 1.459441,3.175 1.926701,4 2.828436,4.993929 2.872076,5.414657 0.75469,7.275944 -1.97945,1.740034 -1.984185,1.786513 -0.08974,0.88069 4.215131,-2.015446 10.495123,-2.649777 24.33554,-2.458087 14.611847,0.202374 17.623222,0.942363 16.43508,4.038611 -0.404864,1.055059 -0.216428,1.347383 0.559441,0.86787 1.770746,-1.094378 1.405245,0.280375 -0.830057,3.122101 -1.1,1.398424 -2,3.381907 -2,4.407727 0,1.29347 -0.723563,1.86514 -2.360691,1.86514 -2.693255,0 -13.621324,6.83869 -13.330876,8.34235 0.105362,0.54546 -1.563209,1.07147 -3.707936,1.16891 -4.805083,0.21832 -6.624577,2.42691 -6.532817,7.92987 0.06091,3.65309 0.176167,3.83393 1.152815,1.80887 0.596823,-1.2375 1.743122,-2.25 2.547329,-2.25 1.271474,0 1.266339,0.29892 -0.03937,2.29169 -0.825862,1.26042 -1.665117,3.11011 -1.86501,4.11042 -0.348287,1.7429 -0.434134,1.7404 -2.058644,-0.0599 z m 11.382701,-0.40474 c 0.240625,-0.72187 1.028125,-1.50937 1.75,-1.75 0.75,-0.25 1.125,0.125 0.875,0.875 -0.240625,0.72188 -1.028125,1.50938 -1.75,1.75 -0.75,0.25 -1.125,-0.125 -0.875,-0.875 z m 5.845769,-0.6875 c 0.0638,-1.43822 3.939451,-5.42575 4.946378,-5.08916 0.55806,0.18654 -0.04892,1.57666 -1.348846,3.08916 -2.336691,2.71881 -3.662103,3.45566 -3.597532,2 z m 0.466731,-5.25 c -0.339919,-0.55 -0.141476,-1 0.440983,-1 0.582459,0 1.059017,0.45 1.059017,1 0,0.55 -0.198442,1 -0.440983,1 -0.242541,0 -0.719098,-0.45 -1.059017,-1 z m 18.134031,-5.63849 2.718338,-4.63849 -2.592217,1.69848 c -1.425719,0.93417 -2.840879,2.34649 -3.1448,3.1385 -0.634305,1.65297 -2.615352,1.9567 -2.615352,0.40097 0,-1.03796 7.386914,-8.96097 8.354649,-8.96097 0.281319,0 0.337668,1.89896 0.125222,4.21991 -0.236958,2.58874 0.07882,4.51553 0.816931,4.98469 0.839405,0.53354 0.711098,0.76941 -0.424357,0.78009 -0.895156,0.008 -2.187756,0.69031 -2.872445,1.51531 -2.700578,3.254 -2.934845,1.24497 -0.365969,-3.13849 z m -28.634031,0.66988 c 0,-0.53274 0.675,-0.70959 1.5,-0.39301 0.825,0.31658 1.5,0.75246 1.5,0.96861 0,0.21616 -0.675,0.39301 -1.5,0.39301 -0.825,0 -1.5,-0.43587 -1.5,-0.96861 z m 99.666634,-5.20028 c 1.0179,-1.74289 3.42183,-4.02048 5.34205,-5.06131 1.92023,-1.04083 4.23845,-2.76483 5.15161,-3.83111 0.91316,-1.06628 2.37566,-1.93869 3.24999,-1.93869 0.87434,0 1.58971,-0.37687 1.58971,-0.837493 0,-0.460623 2.50023,-1.894414 5.55606,-3.186202 3.05584,-1.291788 5.78323,-2.716272 6.06088,-3.16552 0.60004,-0.970874 -2.58203,-0.586744 -4.36694,0.527166 -1.16827,0.729084 -1.64662,0.173996 -1.36842,-1.587947 0.26585,-1.683728 -1.79351,-0.602849 -2.38158,1.25 -0.34913,1.1 -1.08478,2 -1.63478,2 -0.57569,0 -0.70327,-0.934907 -0.30068,-2.20336 0.60992,-1.921666 0.51549,-2.017552 -0.73856,-0.75 -0.79084,0.799348 -1.73609,2.24086 -2.10055,3.20336 -0.36445,0.9625 -1.15333,1.75 -1.75305,1.75 -0.59972,0 -0.81229,-0.45 -0.47237,-1 0.33992,-0.55 -0.075,-1 -0.92193,-1 -0.84698,0 -1.84015,1.196017 -2.20704,2.657817 -0.62887,2.505629 -0.74448,2.551939 -2.01905,0.80887 -1.31111,-1.793056 -1.39922,-1.79027 -2.9148,0.09218 -1.1474,1.425139 -1.70488,1.597759 -2.09725,0.649392 -0.43675,-1.05565 -0.82052,-1.05565 -2.0998,0 -1.24074,1.023857 -1.65262,1.032507 -1.98608,0.04174 -0.2314,-0.687499 -1.05822,-1.249999 -1.83738,-1.249999 -0.77917,0 -1.41667,-0.678813 -1.41667,-1.508474 0,-1.246447 -0.33951,-1.296449 -1.95452,-0.287855 -2.62263,1.637858 -3.91275,0.163982 -1.47248,-1.6822 1.78856,-1.35313 1.79827,-1.460149 0.13519,-1.489668 -0.9855,-0.01749 -2.75785,0.868197 -3.93856,1.968197 -2.25043,2.096595 -3.76963,2.569854 -3.76963,1.174314 0,-1.240076 4.2859,-4.969598 6,-5.221106 3.16084,-0.463787 7.83523,1.308722 8.3178,3.154077 0.73847,2.823879 4.62527,2.375859 12.65155,-1.458307 3.85818,-1.843063 8.25593,-3.263499 9.77276,-3.156524 1.51683,0.106974 4.44538,0.264934 6.50788,0.351022 2.92566,0.122116 3.75,0.563223 3.75,2.006628 0,1.331768 -2.76829,3.276646 -9.88092,6.941887 -5.4345,2.800485 -11.62199,6.690785 -13.74999,8.645115 -2.12799,1.95434 -4.20658,3.55549 -4.61908,3.55812 -0.4125,0.003 -0.75,0.67977 -0.75,1.50477 0,0.825 -0.71642,1.5 -1.59205,1.5 -1.40165,0 -1.37071,-0.37898 0.25868,-3.16889 z m -86.05068,0.45151 c -0.655636,-0.65563 3.216631,-4.28262 4.572239,-4.28262 1.293641,0 -0.88699,3.67044 -2.562647,4.31345 -0.786508,0.30181 -1.690825,0.28794 -2.009592,-0.0308 z m -4.058583,-1.18979 c -0.294443,-0.47642 0.0222,-1.29714 0.703639,-1.82382 2.643366,-2.04304 3.73899,-2.35616 3.73899,-1.06857 0,1.64838 -3.71618,4.06781 -4.442629,2.89239 z m 24.687624,-0.34283 c 0.489328,-1.48583 4.755005,-2.31702 4.755005,-0.92654 0,0.96982 -2.309234,2.17654 -4.165121,2.17654 -0.55085,0 -0.816298,-0.5625 -0.589884,-1.25 z m 9.012995,-3.46115 c -2.065109,-0.74853 0.502543,-4.28885 3.110527,-4.28885 1.263982,0 2.635491,-0.3375 3.047797,-0.75 1.00967,-1.01014 5.579416,-1.0521 4.957311,-0.0455 -0.270412,0.43754 0.884899,0.79552 2.567358,0.79552 1.682459,0 3.059017,0.45 3.059017,1 0,0.55 -1.0875,1 -2.416667,1 -1.329166,0 -2.605414,0.3375 -2.836105,0.75 -0.230691,0.4125 -0.282314,0.1875 -0.114718,-0.5 0.447527,-1.83581 -0.95954,-1.52562 -3.402135,0.75 -2.550742,2.37638 -3.663185,2.57027 -2.868749,0.5 0.71749,-1.86974 -0.216374,-1.92312 -2.282885,-0.13048 -0.868308,0.75323 -2.137646,1.16693 -2.820751,0.91933 z m -21.905169,-3.62063 c 0.355949,-1.00749 0.647179,-2.69499 0.647179,-3.750003 0,-1.055017 0.458573,-1.918213 1.019052,-1.918213 1.208517,0 0.207317,5.024016 -1.295339,6.499996 -0.687091,0.6749 -0.80767,0.40448 -0.370892,-0.83178 z m 40.647179,-1.16822 c 0,-0.825 0.45,-1.5 1,-1.5 0.55,0 1,0.675 1,1.5 0,0.825 -0.45,1.5 -1,1.5 -0.55,0 -1,-0.675 -1,-1.5 z m 5,-0.0714 c 0,-0.31428 0.696434,-1.26785 1.547624,-2.119043 1.9261,-1.926101 3.20089,-0.916347 1.47244,1.166313 -1.24856,1.50441 -3.020064,2.06327 -3.020064,0.95273 z m -41.77122,-4.689576 c -1.149352,-1.427126 -2.655907,-7.73899 -1.84719,-7.73899 1.224629,0 4.61841,4.504219 4.61841,6.129544 0,2.296629 -1.511033,3.174193 -2.77122,1.609446 z m 16.642212,0.427659 c -3.331286,-0.844729 -7.870992,-4.249943 -7.870992,-5.903998 0,-1.947384 1.421073,-1.507793 4,1.237349 2.001244,2.130227 3.239883,2.5 8.374314,2.5 3.940364,0 5.686103,0.339583 5.044436,0.98125 -1.360296,1.360296 -6.393623,1.985207 -9.547758,1.185399 z m 39.129012,-3.975519 c 0,-1.205122 0.45,-2.19113 1,-2.19113 0.55,0 1,-0.480324 1,-1.067388 0,-1.278488 -4.18059,-0.161143 -5.17003,1.381795 -0.70846,1.10477 -3.82997,1.890781 -3.82997,0.964405 0,-0.299322 0.96885,-1.384504 2.15301,-2.411517 2.85599,-2.476983 1.18648,-2.371619 -3.01579,0.19033 -3.86448,2.356015 -4.79464,2.03929 -3.13241,-1.066607 1.07532,-2.009269 0.98364,-2.123064 -1.16898,-1.450865 -1.28471,0.401175 -2.560834,1.041509 -2.835834,1.422963 -2.169659,3.009552 -11,4.452757 -11,1.797808 0,-0.630718 -0.49072,-0.598552 -1.31586,0.08625 -0.723724,0.600637 -3.892949,1.394953 -7.042724,1.765147 -5.188761,0.609837 -5.934262,0.451112 -7.93414,-1.689259 -2.876479,-3.078554 -5.711316,-9.444662 -5.691963,-12.78227 0.0108,-1.861966 0.268854,-2.240656 0.875,-1.284033 0.528611,0.834257 1.09817,0.970889 1.478943,0.354785 0.340591,-0.551088 -0.08996,-1.274132 -0.956787,-1.606763 -2.164323,-0.830529 -2.106357,-0.849731 -4.191579,1.388492 -1.639871,1.760195 -2.082745,1.828222 -3.787382,0.581761 -1.0617,-0.776334 -1.569103,-1.772776 -1.127563,-2.214317 0.441541,-0.44154 1.150711,-0.23987 1.575934,0.448155 0.552077,0.89328 1.437063,0.384635 3.095194,-1.77896 1.277133,-1.66645 2.956313,-3.029912 3.731511,-3.029912 0.775197,0 1.18705,-0.359851 0.915227,-0.799669 -0.652151,-1.055204 5.116126,-8.287367 9.445798,-11.842973 1.886715,-1.549404 4.158174,-3.613657 5.047686,-4.587228 0.889513,-0.973572 2.038912,-1.77013 2.55422,-1.77013 0.515308,0 2.937525,-1.258297 5.382704,-2.796216 2.995922,-1.884314 7.067611,-3.216453 12.485255,-4.0848089 10.03022,-1.607676 15.25281,-0.795525 16.53274,2.5709629 1.48318,3.901041 1.16034,6.177612 -0.82221,5.798089 -0.9625,-0.184252 -1.975,-0.376325 -2.25,-0.426829 -0.275,-0.0505 0.10896,-0.477705 0.85325,-0.949337 1.97409,-1.250927 -0.23802,-4.919344 -3.45302,-5.726258 -3.74124,-0.9389899 -11.72475,0.390918 -13.04923,2.173764 -0.902694,1.215092 -1.277834,1.267319 -1.750004,0.243636 -0.47331,-1.026155 -0.72494,-1.037416 -1.18433,-0.053 -0.32084,0.6875 -1.665693,1.25 -2.988572,1.25 -1.32288,0 -3.324969,0.7875 -4.449087,1.75 -1.124119,0.9625 -2.1851,1.525 -2.357737,1.25 -0.730526,-1.163685 -3.450024,2.282695 -2.910561,3.688513 0.45252,1.17925 0.118679,1.392113 -1.418258,0.904308 -2.775768,-0.880994 -5.038131,1.803768 -3.292455,3.907179 1.463989,1.763999 0.71209,1.908012 -2.315741,0.443537 -2.171659,-1.050368 -2.17128,-1.045117 0.06574,0.910293 2.784172,2.433682 2.881784,3.544648 0.250996,2.856681 -2.499548,-0.653646 -3.487606,0.756074 -1.700193,2.425768 1.119393,1.045669 1.009067,1.642228 -0.658368,3.559947 -2.102547,2.418141 -5.387126,3.290692 -3.966765,1.053774 0.436538,-0.6875 0.82105,-1.7 0.854472,-2.25 0.03342,-0.55 0.586618,-0.892898 1.229324,-0.761996 0.67323,0.137119 0.919309,-0.411529 0.580539,-1.294349 -0.51166,-1.333365 -0.807661,-1.301005 -2.279419,0.249192 -2.577482,2.714852 -1.516066,7.802903 1.394747,6.68592 0.770018,-0.295484 1.871596,0.363588 2.466913,1.475949 0.591597,1.105409 2.010021,2.306399 3.152053,2.668866 3.231538,1.02565 1.666746,1.549336 -1.723864,0.576921 -2.318416,-0.664912 -3.017102,-0.545164 -3.017102,0.517102 0,1.338855 0.487211,1.576174 3.666667,1.786029 0.825,0.05445 1.5,0.735911 1.5,1.514352 0,0.778441 0.532033,1.592692 1.182296,1.809446 1.411949,0.47065 3.668997,-3.35001 2.804931,-4.748099 -0.332892,-0.538633 -0.176847,-0.979333 0.346768,-0.979333 1.448448,0 2.382429,3.248209 1.152541,4.008322 -0.725322,0.448273 -0.585455,1.079656 0.424929,1.9182 1.263355,1.048491 1.610846,0.832771 2.155743,-1.338271 0.833695,-3.321708 1.755125,-3.275332 3.213759,0.161749 1.121245,2.642065 1.146667,2.602816 0.647729,-1 -0.638622,-4.61147 0.106795,-4.799056 1.986863,-0.5 0.781712,1.7875 1.458002,2.657916 1.502868,1.934259 0.04487,-0.723658 -0.384259,-2.186158 -0.95361,-3.25 -0.814503,-1.521914 -0.707913,-1.934259 0.5,-1.934259 0.844351,0 1.535184,0.675 1.535184,1.5 0,0.847665 0.895446,1.5 2.05902,1.5 1.14006,0 1.77868,-0.453586 1.4309,-1.016312 -0.34546,-0.558971 -1.04702,-0.757414 -1.55902,-0.440983 -0.51199,0.316431 -0.9309,-0.261229 -0.9309,-1.283688 0,-1.022459 -0.5325,-2.391517 -1.183333,-3.04235 -0.650834,-0.650834 -0.909015,-1.457652 -0.573737,-1.792931 0.335279,-0.335278 1.329335,0.782222 2.20901,2.483334 2.09918,4.059352 5.501034,4.305046 4.748194,0.34293 -0.45383,-2.388497 -0.3195,-2.582325 1.02189,-1.474477 1.27449,1.052591 1.65278,0.993125 2.16444,-0.340242 0.77929,-2.030789 -0.0696,-3.49411 -1.67054,-2.879763 -1.54497,0.59286 -4.070254,-3.218496 -2.69544,-4.068175 0.53874,-0.332957 0.97952,0.06548 0.97952,0.88542 0,2.420482 4.69543,1.284149 7.04705,-1.705443 1.55943,-1.982496 2.68826,-2.520874 4.39003,-2.093756 1.74771,0.438647 2.41942,0.08319 2.83325,-1.499303 0.29834,-1.140843 0.13456,-2.074261 -0.36395,-2.074261 -0.49851,0 -0.90638,-0.476558 -0.90638,-1.059017 0,-0.582459 0.40285,-0.810044 0.89522,-0.505744 1.32237,0.817272 2.34362,-2.596395 1.13756,-3.802456 -1.67876,-1.678767 -1.18984,-2.623378 1.2532,-2.421186 2.67946,0.221758 2.98256,3.421366 0.78519,8.288403 -3.15004,6.977107 -5.07117,11.509613 -5.07117,11.964351 0,0.267381 1.0125,0.132465 2.25,-0.299814 6.20102,-2.166114 8.09796,0.872411 4.12538,6.608057 -1.58146,2.283327 -3.47002,4.168581 -4.19681,4.189455 -2.09644,0.06021 1.30724,3.037951 3.47251,3.037951 1.45046,0 1.32054,0.315208 -0.67857,1.646304 -1.35988,0.905467 -3.03501,2.341475 -3.72251,3.19113 -1.0897,1.34672 -1.25,1.26384 -1.25,-0.646304 z M 79.990746,52.775706 c -0.6875,-0.277412 -1.8125,-0.277412 -2.5,0 -0.6875,0.277413 -0.125,0.504386 1.25,0.504386 1.375,0 1.9375,-0.226973 1.25,-0.504386 z m 9.75,-2.337719 c 0,-0.55 -0.45,-1 -1,-1 -0.55,0 -1,0.45 -1,1 0,0.55 0.45,1 1,1 0.55,0 1,-0.45 1,-1 z m 26.000004,-3.88145 c 0,0.679252 1.10569,0.191332 2.46918,-1.089596 2.70653,-2.542654 2.4987,-4.028954 -0.56338,-4.028954 -3.27871,0 -6.76017,2.840884 -6.18357,5.045817 0.37149,1.420562 0.001,1.958364 -1.3556,1.969496 -1.57482,0.01292 -1.63213,0.169132 -0.36663,0.999242 1.11995,0.734635 2.07007,0.336579 3.75,-1.571077 1.2375,-1.405253 2.25,-2.00147 2.25,-1.324928 z M 72.206418,41.587821 c -0.563459,-0.593148 -2.465672,0.910139 -2.465672,1.94858 0,0.539225 0.629613,0.400167 1.399141,-0.309017 0.769527,-0.709185 1.249466,-1.446988 1.066531,-1.639563 z m 36.534332,0.766803 c 0,-2.437045 -2.33677,-2.09257 -2.82332,0.416199 -0.19138,0.986764 0.31876,1.667134 1.25,1.667134 0.92763,0 1.57332,-0.854996 1.57332,-2.083333 z m 5,-7.885282 c 0,-0.532739 -0.675,-0.709594 -1.5,-0.393011 -0.825,0.316582 -1.5,0.752459 -1.5,0.968615 0,0.216156 0.675,0.393011 1.5,0.393011 0.825,0 1.5,-0.435877 1.5,-0.968615 z M 60.240746,54.437957 c 0.339919,-0.55 1.041476,-1 1.559017,-1 0.517541,0 0.940983,0.45 0.940983,1 0,0.55 -0.701558,1 -1.559017,1 -0.857459,0 -1.280902,-0.45 -0.940983,-1 z m -31.169592,-7.75 c 0.536041,-2.500435 -1.063283,-3.109692 -1.968782,-0.75 -0.648724,1.690549 -3.918022,2.026784 -4.861626,0.5 -0.339919,-0.55 -1.743034,-1 -3.118034,-1 -1.375,0 -2.255468,-0.395662 -1.956595,-0.879248 0.298873,-0.483587 -0.544893,-1.967546 -1.875035,-3.297689 -1.52767,-1.527669 -2.123769,-2.895229 -1.618407,-3.712922 1.123239,-1.817438 5.068071,0.70425 5.068071,3.239706 0,1.703209 0.642241,1.820541 7.25,1.324514 3.9875,-0.299331 9.3875,-0.802811 12,-1.118846 3.002252,-0.363183 4.75,-0.190203 4.75,0.470122 0,0.723955 0.595449,0.726056 1.939312,0.0068 1.345606,-0.720146 2.138217,-0.716052 2.589027,0.01337 0.4492,0.726821 1.065012,0.706598 1.995365,-0.06553 1.805227,-1.498206 7.705082,-0.836696 8.285734,0.929022 0.322775,0.981533 -0.04906,1.212677 -1.224926,0.761454 -0.997519,-0.382733 -1.438392,-0.243343 -1.077433,0.340701 0.827623,1.339121 -0.118379,1.243111 -2.576125,-0.261454 -1.72306,-1.05481 -2.197157,-0.976734 -3.036121,0.5 -0.546817,0.9625 -1.89841,1.75 -3.00354,1.75 -1.10513,0 -1.731212,-0.45 -1.391293,-1 0.339919,-0.55 0.141476,-1 -0.440983,-1 -0.582459,0 -1.059017,0.434167 -1.059017,0.964816 0,1.192633 -3.962872,3.405646 -4.728147,2.64037 -0.30627,-0.30627 0.0214,-1.253603 0.728147,-2.105186 0.706751,-0.851583 1.049448,-1.783886 0.761548,-2.071785 -0.601602,-0.601603 -3.328053,1.922152 -4.109441,3.803928 -0.381103,0.917791 -0.949448,0.743553 -2.058414,-0.631052 -1.491907,-1.849277 -1.587016,-1.836208 -3.638793,0.5 l -2.106844,2.398909 0.482352,-2.25 z m 58.402925,-2.374088 c 0.678334,-0.683418 1.485241,-0.990671 1.793128,-0.682784 0.307888,0.307887 -0.247112,0.867048 -1.233333,1.242579 -1.425198,0.542685 -1.540062,0.427821 -0.559795,-0.559795 z m -5.233333,-2.875912 c 0.339919,-0.55 0.816476,-1 1.059017,-1 0.242541,0 0.440983,0.45 0.440983,1 0,0.55 -0.476558,1 -1.059017,1 -0.582459,0 -0.780902,-0.45 -0.440983,-1 z M 105.8197,32.854624 c 0.048,-1.164943 0.28494,-1.4019 0.60416,-0.604167 0.28887,0.721875 0.25335,1.584375 -0.0789,1.916667 -0.3323,0.332291 -0.56864,-0.258334 -0.52522,-1.3125 z m 6.92105,-4.975684 c 0,-0.857459 0.45,-1.280902 1,-0.940983 0.55,0.339919 1,1.041476 1,1.559017 0,0.517541 -0.45,0.940983 -1,0.940983 -0.55,0 -1,-0.701558 -1,-1.559017 z m -1.5,-7.440983 c -0.33992,-0.55 0.11008,-1 1,-1 0.88992,0 1.33992,0.45 1,1 -0.33992,0.55 -0.78992,1 -1,1 -0.21008,0 -0.66008,-0.45 -1,-1 z"
     id="path3856" />
  <path
     style="fill:#383838;fill-opacity:1;stroke:#001014;stroke-width:0.16806723;stroke-opacity:0.77734375"
     d="m 114.274,57.774455 c 0.002,-0.900452 0.35185,-1.607333 0.90969,-1.840413 0.70517,-0.294639 1.10618,-0.861141 1.10618,-1.562698 0,-0.816494 -0.56041,-1.118823 -1.89111,-1.020223 -1.56461,0.115929 -2.80021,0.666843 -4.06371,1.81188 -1.00728,0.912836 -2.13925,1.473816 -2.63828,1.307473 -0.0906,-0.0302 0.52618,-0.726494 1.37065,-1.547311 1.97186,-1.916646 2.31657,-2.683375 1.29276,-2.875442 -0.77846,-0.146041 -1.59598,0.178823 -4.36713,1.735415 -2.6069,1.464321 -3.31663,1.748581 -3.31663,1.32836 0,-0.1398 0.30934,-0.898868 0.68743,-1.686817 1.22863,-2.560541 0.48982,-2.957195 -2.95352,-1.585689 -0.954868,0.380334 -1.6178,0.788233 -2.299291,1.414748 -1.406822,1.293331 -3.029997,2.040853 -5.427646,2.4996 -2.612537,0.499862 -4.205423,0.222297 -4.403341,-0.767291 -0.06686,-0.334311 -0.256368,-0.595005 -0.519768,-0.715017 -0.357314,-0.162803 -0.569144,-0.104328 -1.534475,0.423593 -1.723032,0.942293 -4.492696,1.555373 -8.937207,1.978303 -2.989094,0.284433 -4.021755,-0.06833 -5.594885,-1.911257 -2.564581,-3.004415 -5.042805,-8.405489 -5.27688,-11.500503 l -0.09569,-1.265252 0.399907,0.280106 c 0.559613,0.391968 1.210418,0.348771 1.640357,-0.108877 0.844979,-0.899439 0.190075,-2.195207 -1.412555,-2.794829 -1.128001,-0.422039 -2.027952,-0.43941 -2.609908,-0.05038 -0.241072,0.161157 -1.017177,0.879145 -1.724676,1.595531 -0.867299,0.878194 -1.412958,1.302521 -1.67496,1.302521 -0.683769,0 -2.710991,-1.658341 -2.403325,-1.966008 0.05254,-0.05254 0.365409,0.141423 0.69526,0.431037 0.399466,0.350736 0.775815,0.526568 1.127058,0.526568 0.542416,0 1.244563,-0.628645 3.594389,-3.218128 1.121615,-1.236005 2.180499,-1.991956 2.790197,-1.991956 0.676983,0 1.378911,-0.71766 1.240666,-1.268473 -0.130728,-0.52086 0.390071,-1.566186 1.670707,-3.353376 1.027041,-1.433286 3.311074,-4.112465 4.425823,-5.191507 l 0.675324,-0.653693 1.85775,1.73069 c 1.021761,0.951879 1.974659,1.909116 2.117546,2.127191 l 0.259798,0.396502 -0.720067,-0.128961 c -0.396037,-0.07093 -1.199385,-0.128961 -1.785217,-0.128961 -0.958734,0 -1.105655,0.04711 -1.470588,0.471557 -0.6875,0.799616 -0.542517,1.572884 0.545061,2.907097 0.309158,0.379268 0.562105,0.851131 0.562105,1.048585 0,0.813963 -2.77684,3.45702 -4.002566,3.80973 l -0.389121,0.111974 0.373733,-0.729095 c 0.205554,-0.401 0.460595,-1.066938 0.56676,-1.47986 0.176711,-0.687317 0.248321,-0.762257 0.8473,-0.886706 1.275492,-0.265009 1.566562,-1.030803 0.927189,-2.439404 -0.400261,-0.881816 -0.980165,-1.161369 -1.669587,-0.804855 -0.804836,0.416197 -2.149326,2.039749 -2.546931,3.075572 -0.812249,2.116034 -0.349021,4.643647 1.019274,5.56169 0.508902,0.341442 0.720912,0.381244 1.571995,0.295121 1.214568,-0.122904 1.648348,0.101676 2.447649,1.267217 0.315845,0.460568 0.920887,1.146266 1.344537,1.523775 l 0.770273,0.686378 -0.588236,-0.118976 c -1.703269,-0.344504 -2.268611,-0.3226 -2.768345,0.107252 -0.394061,0.338956 -0.480954,0.547686 -0.480954,1.155311 0,1.46338 0.595305,1.91659 2.875651,2.18925 0.806346,0.09642 1.617346,0.272311 1.80222,0.390877 0.20699,0.13275 0.415444,0.563279 0.542559,1.120575 0.157718,0.691459 0.352695,1.033886 0.826322,1.45122 0.340942,0.300421 0.800126,0.546219 1.020408,0.546219 1.482059,0 3.30846,-2.514669 3.315928,-4.565514 0.0037,-1.030387 0.161358,-1.092572 0.530418,-0.209283 0.363708,0.870474 0.289768,1.466325 -0.269249,2.169755 -0.573023,0.721055 -0.604186,0.915781 -0.254709,1.591597 0.626822,1.212136 2.350664,2.079635 3.023274,1.521418 0.217035,-0.180123 0.331076,-0.143244 0.70101,0.226689 0.915782,0.915782 2.575635,0.294323 2.584536,-0.967664 l 0.0037,-0.523301 0.306948,0.675691 c 0.273122,0.601235 0.888664,1.089015 1.37425,1.089015 0.222503,0 0.198452,-0.785459 -0.09006,-2.941176 -0.435454,-3.253686 -0.37936,-3.321798 0.787062,-0.955698 0.57838,1.173251 1.18899,2.180101 1.409924,2.324863 0.499867,0.327526 1.016173,0.162304 1.14921,-0.367755 0.145441,-0.579479 -0.286674,-2.313651 -0.899232,-3.608822 -0.529045,-1.118595 -0.491608,-1.288763 0.242958,-1.1044 0.300148,0.07533 0.465379,0.291671 0.623039,0.815751 0.452471,1.504052 1.267417,2.045474 2.920407,1.94022 1.3468,-0.08576 1.802289,-0.441109 1.716638,-1.339242 l -0.05923,-0.621073 0.765879,0.0907 c 0.65938,0.0781 0.8405,0.02791 1.30259,-0.360912 0.73123,-0.615288 0.94948,-1.48912 0.7277,-2.913617 -0.0951,-0.610842 -0.15488,-1.128645 -0.13286,-1.150672 0.022,-0.02203 0.37111,0.18229 0.77574,0.45404 0.83709,0.5622 1.12737,0.602803 1.65707,0.231788 0.81113,-0.568144 1.3595,-2.434679 1.05141,-3.578833 -0.27781,-1.031705 -0.84381,-1.386805 -2.13448,-1.339152 -1.00383,0.03706 -1.09461,0.0078 -1.65202,-0.53246 -0.75792,-0.734604 -0.74738,-0.885967 0.0339,-0.487622 1.83721,0.936666 4.92696,-0.413562 7.4919,-3.273981 1.41606,-1.579194 1.87764,-1.760175 3.72792,-1.461692 1.14503,0.184713 1.33284,0.174647 1.89845,-0.101751 0.80348,-0.392643 1.40213,-1.574985 1.43145,-2.827146 0.0216,-0.922672 -0.35408,-1.765312 -0.78705,-1.765312 -0.1252,0 -0.32176,-0.113399 -0.43678,-0.251998 -0.18052,-0.217508 -0.1376,-0.237689 0.31359,-0.147452 1.1207,0.224141 2.03926,-1.036265 2.03926,-2.798181 0,-1.103922 -0.11793,-1.419959 -0.88887,-2.382059 -0.74349,-0.927832 -0.55151,-1.213616 0.73678,-1.096797 0.61324,0.05561 1.14332,0.206321 1.33465,0.379477 0.8096,0.732681 0.85119,2.75516 0.10224,4.972168 -0.23054,0.682445 -1.43551,3.547531 -2.6777,6.366859 -1.2422,2.819327 -2.51188,5.795968 -2.82153,6.614756 -0.54675,1.445756 -0.55376,1.495455 -0.243,1.722689 0.468,0.342203 1.2093,0.288899 2.88401,-0.207382 1.92282,-0.569806 3.83518,-0.709734 4.56213,-0.333813 1.45405,0.751916 0.92776,3.115353 -1.44507,6.489464 -1.14813,1.632627 -2.82999,3.316912 -3.54043,3.545541 -0.82383,0.265121 -1.02842,0.454306 -1.02842,0.950998 0,1.126817 1.64997,2.510723 3.7302,3.128691 l 0.63923,0.189896 -1.47043,1.091943 c -0.80873,0.600569 -1.9053,1.511842 -2.43681,2.025054 -0.78153,0.754615 -0.96621,0.867233 -0.96545,0.588727 l 0,0 z m -33.874395,-4.15287 c 0.580303,-0.264404 0.56732,-0.882441 -0.02672,-1.271669 -0.640523,-0.419686 -2.657861,-0.415565 -3.302392,0.0067 -0.570892,0.374064 -0.543763,0.93898 0.05971,1.243199 0.528884,0.266618 2.700252,0.281045 3.269403,0.02172 l 0,9e-6 z M 111.80512,50.09777 c 0.2019,-0.104197 1.01912,-0.822685 1.81604,-1.596639 1.42987,-1.388654 1.70844,-1.569151 1.9124,-1.239123 0.66979,1.083738 5.11733,-2.811316 5.12448,-4.487891 0.005,-1.074358 -0.84872,-1.72963 -2.41616,-1.855448 -2.10369,-0.168864 -4.39003,0.697391 -5.95047,2.254532 -1.15622,1.153774 -1.42221,1.804826 -1.35264,3.310832 0.0526,1.138612 0.0388,1.187957 -0.36434,1.300135 -0.23046,0.06413 -0.72873,0.124143 -1.10726,0.133356 -1.44315,0.03513 -1.5397,1.029136 -0.18525,1.907109 0.76566,0.496303 1.861,0.614874 2.5232,0.273137 l 0,0 z m -3.47022,-5.5096 c 0.56155,-0.412017 0.89614,-1.276738 0.89614,-2.316 0,-1.284175 -0.56174,-2.069511 -1.47914,-2.067878 -1.248,0.0022 -2.19684,1.090985 -2.34155,2.686859 -0.0756,0.833891 -0.0361,0.994072 0.36133,1.46645 0.62684,0.744955 1.72724,0.843938 2.56322,0.230569 l 0,0 z M 71.089146,43.978252 c 0.869861,-0.641066 1.671308,-1.734498 1.671308,-2.280202 0,-0.945961 -1.204956,-1.057272 -2.311198,-0.213499 -0.995573,0.75936 -1.438874,1.813588 -1.116199,2.654467 0.158645,0.413422 1.093049,0.327879 1.756089,-0.160766 l 0,0 z m 42.341774,-8.271127 c 1.52903,-0.766184 0.81408,-2.664419 -0.86945,-2.308435 -0.76758,0.162306 -2.03853,0.866791 -2.28989,1.269278 -0.62962,1.008174 1.69518,1.772836 3.15934,1.039157 z"
     id="path4066" />
  <path
     style="fill:#bd2327;fill-opacity:1;stroke:#001014;stroke-width:0.33613446;stroke-opacity:0.77734375"
     d="m 104.3181,130.53614 c -3.70421,-0.70559 -6.107166,-4.11651 -3.91291,-5.55424 1.20255,-0.78794 1.8961,-0.33642 1.8961,1.23441 0,2.14152 0.43589,2.63101 2.34289,2.63101 3.40487,0 4.14309,-0.91033 4.4976,-5.54622 0.25857,-3.38135 -0.20849,-6.72978 -1.10853,-7.94714 l -0.68784,-0.93035 1.20849,-0.22672 c 2.44218,-0.45815 6.70219,0.43334 5.06775,1.06053 -0.76543,0.29372 -1.17899,2.06333 -1.40849,6.02688 -0.31794,5.49112 -0.45457,6.14323 -1.54803,7.38861 -1.36059,1.54964 -3.97075,2.31587 -6.34703,1.86323 z"
     id="path4170" />
  <path
     style="fill:#bd2327;fill-opacity:1;stroke:#001014;stroke-width:0.33613446;stroke-opacity:0.77734375"
     d="m 120.81188,130.20971 c -1.63428,-0.19872 -2.31087,-0.44707 -2.77311,-1.01792 -0.9033,-1.11552 -0.7553,-1.81693 0.65154,-3.08793 1.31991,-1.19246 2.37197,-1.68827 4.61607,-2.17545 1.74665,-0.37919 2.53095,-1.7348 1.71987,-2.97266 -0.2872,-0.43832 -0.8311,-0.89499 -1.20867,-1.01482 -1.00698,-0.31961 -2.78106,0.37563 -3.87667,1.5192 -1.12231,1.17144 -1.68113,1.25571 -2.17743,0.32837 -0.47383,-0.88536 0.0415,-1.84697 1.45002,-2.70581 2.02393,-1.23408 6.61107,-0.7704 7.91439,0.80001 0.22434,0.27031 0.61698,2.13323 0.87254,4.13981 0.25556,2.00659 0.64571,4.14766 0.867,4.75794 0.22129,0.61027 0.34704,1.16376 0.27945,1.22996 -0.29837,0.29224 -6.37559,0.43755 -8.335,0.1993 l 0,0 z m 2.97586,-1.40364 c 1.91628,-0.66802 2.03922,-3.3312 0.17538,-3.79899 -2.51532,-0.6313 -4.69912,2.63532 -2.50216,3.74284 1.03083,0.51966 0.99934,0.5189 2.32678,0.0562 l 0,0 z"
     id="path4172" />
  <path
     style="fill:#bd2327;fill-opacity:1;stroke:#001014;stroke-width:0.33613446;stroke-opacity:0.77734375"
     d="m 133.8139,130.63474 c -0.69328,-0.081 -1.26051,-0.21995 -1.26051,-0.30872 0,-0.0888 0.34034,-0.62141 0.75631,-1.18367 0.68225,-0.9222 0.76764,-1.47855 0.87215,-5.6822 0.12088,-4.86227 -0.26401,-7.77992 -1.15639,-8.76598 -0.47094,-0.52039 -0.36056,-0.64188 1.33836,-1.47308 1.0184,-0.49826 1.9899,-0.82047 2.15889,-0.71603 0.16898,0.10444 0.41662,3.10569 0.55029,6.66944 0.2656,7.08107 0.58765,9.48861 1.38745,10.37238 0.28781,0.31803 0.3913,0.65981 0.22998,0.75951 -0.46339,0.2864 -3.4912,0.49026 -4.87653,0.32835 z"
     id="path4174" />
  <path
     style="fill:#bd2327;fill-opacity:1;stroke:#001014;stroke-width:0.33613446;stroke-opacity:0.77734375"
     d="m 147.46135,130.19078 c -0.95188,-0.13934 -1.8914,-0.35266 -2.08782,-0.47406 -0.42681,-0.26378 -0.63222,-1.34849 -1.04613,-5.52433 -0.18938,-1.91062 -0.53319,-3.48071 -0.87711,-4.00561 -0.53017,-0.80913 -0.53013,-0.88926 6.1e-4,-1.27735 0.67791,-0.4957 2.86677,-0.94769 3.1616,-0.65286 0.1149,0.1149 0.30178,2.20637 0.4153,4.64772 0.23485,5.05052 0.53882,5.94303 2.02406,5.94303 2.83309,0 4.3732,-5.8913 2.2468,-8.59458 -0.79628,-1.01231 -0.62653,-1.22294 1.51762,-1.88315 0.97041,-0.2988 1.3647,-0.29804 1.66594,0.003 0.22994,0.22993 0.49102,2.11235 0.62555,4.51022 0.25106,4.47473 0.38845,5.07097 1.43648,6.23412 0.59513,0.66049 0.62475,0.81995 0.20202,1.08729 -0.57698,0.36487 -6.76117,0.35579 -9.28492,-0.0136 l 0,0 z"
     id="path4176" />
  <path
     style="fill:#bd2327;fill-opacity:1;stroke:#001014;stroke-width:0.33613446;stroke-opacity:0.77734375"
     d="m 161.71306,130.63286 c -1.46198,-0.1687 -1.51365,-0.29628 -0.53974,-1.33297 0.81769,-0.87039 1.38573,-3.69534 1.10484,-5.49459 -0.3592,-2.30085 -0.49799,-2.67864 -1.23694,-3.36708 -0.6355,-0.59206 -0.67272,-0.74404 -0.24803,-1.01256 0.73771,-0.46643 3.6088,-0.39824 3.91236,0.0929 0.14248,0.23054 0.35849,2.16615 0.48003,4.30135 0.22025,3.86929 0.841,6.03579 1.72939,6.03579 0.24726,0 0.27543,0.11487 0.0754,0.30747 -0.39613,0.38142 -3.5836,0.6651 -5.27731,0.46967 z"
     id="path4178" />
  <path
     style="fill:#bd2327;fill-opacity:1;stroke:#001014;stroke-width:0.33613446;stroke-opacity:0.77734375"
     d="m 174.066,130.65188 c -1.10924,-0.0709 -2.37629,-0.21106 -2.81566,-0.31152 l -0.79884,-0.18267 0.79884,-0.84989 c 0.69146,-0.73564 0.81323,-1.2417 0.90583,-3.76443 0.0936,-2.54952 0.005,-3.11422 -0.70944,-4.50891 -1.13893,-2.22421 -0.82564,-2.40989 4.31388,-2.55681 4.35171,-0.12439 6.18723,0.30445 6.72898,1.5721 0.13216,0.30925 0.43304,2.35346 0.66864,4.54269 0.34767,3.23073 0.56358,4.12436 1.14634,4.74468 l 0.71799,0.76427 -1.00821,0.20164 c -1.43291,0.28658 -7.56021,0.50145 -9.94835,0.34885 z m 4.63039,-1.38501 c 0.87559,-0.96751 1.28493,-2.43975 1.49126,-5.36348 0.22497,-3.18786 -0.0573,-3.79556 -1.76318,-3.79556 -1.34531,0 -2.70721,1.44009 -3.04013,3.21468 -0.36922,1.96815 -0.003,5.08589 0.68707,5.84835 0.76081,0.84069 1.91292,0.88283 2.62498,0.096 l 0,0 z"
     id="path4180" />
  <path
     style="fill:#bd2327;fill-opacity:1;stroke:#001014;stroke-width:0.33613446;stroke-opacity:0.77734375"
     d="m 192.67223,130.33649 c -5.68487,-1.75009 -5.51702,-10.30383 0.23378,-11.91395 3.94289,-1.10394 8.20405,2.04102 8.20405,6.05503 0,2.60637 -2.08556,5.33244 -4.61752,6.03563 -1.56043,0.43337 -1.88774,0.41823 -3.82031,-0.17671 l 0,0 z m 4.12565,-2.12851 c 0.6876,-0.55678 0.80554,-0.9914 0.91337,-3.36572 0.1682,-3.70392 -0.26997,-4.3983 -2.77543,-4.3983 -2.43169,0 -3.21542,0.66296 -3.59078,3.03745 -0.34971,2.21226 0.0946,4.12786 1.12472,4.8494 1.03903,0.72776 3.35899,0.66192 4.32812,-0.12283 z"
     id="path4182" />
  <path
     style="fill:#cb5b5e;fill-opacity:1;stroke:#001014;stroke-width:0.33613446000000002;stroke-opacity:0.77734375000000000"
     d="m 161.64777,115.43228 c -0.34419,-0.55692 0.21065,-1.37746 1.07876,-1.59534 1.05375,-0.26448 1.89265,0.22159 2.03512,1.17916 0.0964,0.64771 -0.0486,0.72198 -1.40874,0.72198 -0.83388,0 -1.60119,-0.13761 -1.70514,-0.3058 z"
     id="path4184" />
  <path
     style="fill:#cb5b5e;fill-opacity:1;stroke:#001014;stroke-width:0.47536591;stroke-opacity:0.77734375"
     d="m 158.64813,155.26098 c -2.07347,-0.84865 -2.85361,-2.34614 -2.82628,-5.42503 0.02,-2.2574 0.32203,-3.4591 1.33109,-5.29668 0.71785,-1.30725 1.16701,-1.84204 0.99814,-1.18841 -0.16887,0.65363 -0.53551,2.3075 -0.81477,3.67527 -0.9431,4.61923 0.89762,7.64428 4.73461,7.78089 l 1.33086,0.0474 -1.18841,0.3806 c -1.54851,0.49592 -2.40186,0.50213 -3.56524,0.026 l 0,0 z"
     id="path4186" />
  <path
     style="fill:#cb5b5e;fill-opacity:1;stroke:#001014;stroke-width:0.47536591;stroke-opacity:0.77734375"
     d="m 180.16561,151.21887 c -0.12238,-0.64017 -0.0447,-1.34174 0.17261,-1.55906 0.21731,-0.21731 0.83081,-1.24442 1.36333,-2.28246 l 0.96821,-1.88735 -0.30028,2.73336 c -0.26964,2.4544 -0.2098,2.73507 0.58637,2.7502 0.73167,0.0139 0.67891,0.13561 -0.30175,0.6962 -1.69675,0.96995 -2.23554,0.87233 -2.48849,-0.45089 z"
     id="path4188" />
  <path
     style="fill:#cb5b5e;fill-opacity:1;stroke:#001014;stroke-width:0.47536591;stroke-opacity:0.77734375"
     d="m 174.57288,151.51676 c 0,-0.47633 0.34676,-1.88374 0.77059,-3.12759 0.46197,-1.35583 0.67009,-3.01073 0.51966,-4.13227 -0.20729,-1.54542 -0.0827,-1.9608 0.71673,-2.38861 0.90463,-0.48414 0.94817,-0.41403 0.66858,1.07656 -0.73505,3.91865 -0.8838,7.41259 -0.33014,7.75476 0.40432,0.24989 0.32046,0.53278 -0.29667,1.00067 -1.20383,0.91273 -2.04875,0.83704 -2.04875,-0.18352 z"
     id="path4190" />
  <path
     style="fill:#cb5b5e;fill-opacity:1;stroke:#001014;stroke-width:0.47536591;stroke-opacity:0.77734375"
     d=""
     id="path4192" />
  <path
     style="fill:#cb5b5e;fill-opacity:1;stroke:#001014;stroke-width:0.47536591;stroke-opacity:0.77734375"
     d="m 190.54296,152.28461 c -0.96958,-0.54261 -1.00609,-3.61774 -0.0696,-5.85914 0.37884,-0.90668 0.75319,-1.64854 0.83189,-1.64858 0.0787,-4e-5 0.1431,1.43514 0.1431,3.18928 0,2.85545 0.11495,3.24722 1.09798,3.74215 l 1.09797,0.5528 -1.1715,0.22394 c -0.64432,0.12317 -1.51276,0.033 -1.92986,-0.20045 z"
     id="path4194" />
  <path
     style="fill:#cb5b5e;fill-opacity:1;stroke:#001014;stroke-width:0.47536591;stroke-opacity:0.77734375"
     d="m 212.07825,156.53641 c -1.06797,-0.71105 -2.28406,-2.35579 -3.58922,-4.85437 -1.08569,-2.07843 -2.46686,-4.17807 -3.06927,-4.66587 -1.04463,-0.84589 -1.12374,-0.84803 -1.71011,-0.0461 -0.33815,0.46244 -0.61809,1.28123 -0.62209,1.81952 -0.004,0.5383 -0.23055,1.29959 -0.50344,1.69177 -0.35918,0.5162 -0.40792,0.12252 -0.17653,-1.4261 0.38635,-2.58569 2.28982,-10.16384 3.03147,-12.06892 1.01342,-2.60322 0.99933,-0.89662 -0.0242,2.92747 -1.0288,3.84385 -0.95402,5.6457 0.21568,5.19685 0.41093,-0.15769 1.30537,1.12899 2.60132,3.74206 1.08628,2.19031 2.75279,4.84324 3.70334,5.89539 1.46182,1.61805 2.01726,1.913 3.60249,1.913 1.12842,0 1.7573,0.18916 1.58041,0.47537 -0.52231,0.84511 -3.3804,0.50482 -5.03988,-0.60006 z"
     id="path4196" />
  <path
     style="fill:#cb5b5e;fill-opacity:1;stroke:#001014;stroke-width:0.47536591;stroke-opacity:0.77734375"
     d="m 225.329,146.20942 c 0.20026,-2.08418 0.0735,-2.59686 -0.89898,-3.63474 l -1.13213,-1.20832 1.37815,0.16036 c 2.03323,0.23658 2.51542,1.33222 1.78782,4.06229 -0.85061,3.19169 -1.41138,3.49825 -1.13486,0.62041 z"
     id="path4198" />
  <path
     style="fill:#cb5b5e;fill-opacity:1;stroke:#001014;stroke-width:0.47536591;stroke-opacity:0.77734375"
     d="m 217.71266,152.49147 c -1.13859,-0.24406 -1.48212,-1.97338 -0.85481,-4.30305 0.77814,-2.88978 1.44147,-2.89972 1.37661,-0.0206 -0.045,1.99755 0.14111,2.64591 0.94682,3.29833 0.89819,0.72731 0.91728,0.83247 0.18289,1.00782 -0.45097,0.10767 -1.19415,0.11556 -1.65151,0.0175 l 0,0 z"
     id="path4200" />
  <path
     style="fill:#cb5b5e;fill-opacity:1;stroke:#001014;stroke-width:0.47536591;stroke-opacity:0.77734375"
     d="m 231.42443,152.28461 c -0.96047,-0.53751 -0.99449,-3.17014 -0.0696,-5.38378 0.90136,-2.15726 1.18079,-2.08532 0.87102,0.22424 -0.34143,2.54552 0.11301,4.0597 1.38931,4.6292 1.06743,0.4763 1.06728,0.4769 -0.18203,0.71572 -0.6877,0.13146 -1.59162,0.048 -2.00872,-0.18538 z"
     id="path4202" />
  <path
     style="fill:#cb5b5e;fill-opacity:1;stroke:#001014;stroke-width:0.47536591;stroke-opacity:0.77734375"
     d="m 239.22265,145.82276 c 0,-1.83808 -0.24378,-2.71568 -0.95074,-3.42263 l -0.95073,-0.95074 1.13021,0 c 1.71438,0 2.35591,1.11635 2.07479,3.61043 -0.37027,3.28509 -1.30353,3.83131 -1.30353,0.76294 z"
     id="path4204" />
  <path
     style="fill:#cb5b5e;fill-opacity:1;stroke:#001014;stroke-width:0.47536591;stroke-opacity:0.77734375"
     d="m 170.76996,137.73455 c 0,-0.31758 -0.69523,-1.0106 -1.54494,-1.54004 l -1.54494,-0.96261 1.89751,0.13771 c 1.98166,0.14382 2.81375,1.32099 1.71231,2.42242 -0.37635,0.37635 -0.51994,0.36048 -0.51994,-0.0575 z"
     id="path4206" />
</svg>
