G75*
G70*
%OFA0B0*%
%FSLAX24Y24*%
%IPPOS*%
%LPD*%
%AMOC8*
5,1,8,0,0,1.08239X$1,22.5*
%
%ADD10C,0.0000*%
%ADD11C,0.0780*%
%ADD12R,0.0197X0.1540*%
%ADD13C,0.0800*%
%ADD14R,0.0740X0.0740*%
%ADD15C,0.0740*%
D10*
X000645Y000806D02*
X000645Y020301D01*
X020130Y020291D01*
X020130Y000806D01*
X000645Y000806D01*
D11*
X001395Y001556D03*
X002395Y001556D03*
X003395Y001556D03*
X003395Y002556D03*
X002395Y002556D03*
X001395Y002556D03*
X006395Y002556D03*
X006395Y001556D03*
X007395Y001556D03*
X008395Y001556D03*
X009395Y001556D03*
X010395Y001556D03*
X011395Y001556D03*
X012395Y001556D03*
X013395Y001556D03*
X014395Y001556D03*
X015395Y001556D03*
X016395Y001556D03*
X017395Y001556D03*
X018395Y001556D03*
X019395Y001556D03*
X019395Y002556D03*
X018395Y002556D03*
X017395Y002556D03*
X016395Y002556D03*
X015395Y002556D03*
X014395Y002556D03*
X013395Y002556D03*
X012395Y002556D03*
X011395Y002556D03*
X010395Y002556D03*
X009395Y002556D03*
X008395Y002556D03*
X007395Y002556D03*
X007395Y018556D03*
X006395Y018556D03*
X006395Y019556D03*
X007395Y019556D03*
X008395Y019556D03*
X008395Y018556D03*
X009395Y018556D03*
X010395Y018556D03*
X011395Y018556D03*
X012395Y018556D03*
X013395Y018556D03*
X014395Y018556D03*
X015395Y018556D03*
X016395Y018556D03*
X017395Y018556D03*
X018395Y018556D03*
X019395Y018556D03*
X019395Y019556D03*
X018395Y019556D03*
X017395Y019556D03*
X016395Y019556D03*
X015395Y019556D03*
X014395Y019556D03*
X013395Y019556D03*
X012395Y019556D03*
X011395Y019556D03*
X010395Y019556D03*
X009395Y019556D03*
D12*
X004547Y013583D03*
X004291Y013583D03*
X004035Y013583D03*
X003779Y013583D03*
X003523Y013583D03*
X003267Y013583D03*
X003011Y013583D03*
X002755Y013583D03*
X002499Y013583D03*
X002243Y013583D03*
X002243Y010229D03*
X002499Y010229D03*
X002755Y010229D03*
X003011Y010229D03*
X003267Y010229D03*
X003523Y010229D03*
X003779Y010229D03*
X004035Y010229D03*
X004291Y010229D03*
X004547Y010229D03*
D13*
X004395Y008556D03*
X004395Y007556D03*
X003395Y007556D03*
X002395Y007556D03*
X001395Y007556D03*
X001395Y008556D03*
X002395Y008556D03*
X003395Y008556D03*
X005395Y008556D03*
X005395Y007556D03*
X006395Y003556D03*
X007395Y003556D03*
X008395Y003556D03*
X009395Y003556D03*
X010395Y003556D03*
X011395Y003556D03*
X012395Y003556D03*
X013395Y003556D03*
X014395Y003556D03*
X015395Y003556D03*
X016395Y003556D03*
X017395Y003556D03*
X018395Y003556D03*
X019395Y003556D03*
X019395Y017556D03*
X018395Y017556D03*
X017395Y017556D03*
X016395Y017556D03*
X015395Y017556D03*
X014395Y017556D03*
X013395Y017556D03*
X012395Y017556D03*
X011395Y017556D03*
X010395Y017556D03*
X009395Y017556D03*
X008395Y017556D03*
X007395Y017556D03*
X006395Y017556D03*
X005395Y016506D03*
X005395Y015506D03*
X004395Y015506D03*
X003395Y015506D03*
X002395Y015506D03*
X001395Y015506D03*
X001395Y016506D03*
X002395Y016506D03*
X003395Y016506D03*
X004395Y016506D03*
X003395Y003556D03*
X002395Y003556D03*
X001395Y003556D03*
D14*
X006395Y004556D03*
X007395Y004556D03*
X008395Y004556D03*
X009395Y004556D03*
X010395Y004556D03*
X011395Y004556D03*
X012395Y004556D03*
X013395Y004556D03*
X014395Y004556D03*
X015395Y004556D03*
X016395Y004556D03*
X017395Y004556D03*
X018395Y004556D03*
X019395Y004556D03*
X019395Y005556D03*
X018395Y005556D03*
X017395Y005556D03*
X016395Y005556D03*
X015395Y005556D03*
X014395Y005556D03*
X013395Y005556D03*
X012395Y005556D03*
X011395Y005556D03*
X010395Y005556D03*
X009395Y005556D03*
X008395Y005556D03*
X007395Y005556D03*
X006395Y005556D03*
X006395Y006556D03*
X006395Y007556D03*
X007395Y007556D03*
X007395Y006556D03*
X008395Y006556D03*
X008395Y007556D03*
X009395Y007556D03*
X009395Y006556D03*
X010395Y006556D03*
X010395Y007556D03*
X011395Y007556D03*
X011395Y006556D03*
X012395Y006556D03*
X012395Y007556D03*
X013395Y007556D03*
X013395Y006556D03*
X014395Y006556D03*
X014395Y007556D03*
X015395Y007556D03*
X015395Y006556D03*
X016395Y006556D03*
X016395Y007556D03*
X017395Y007556D03*
X017395Y006556D03*
X018395Y006556D03*
X018395Y007556D03*
X019395Y007556D03*
X019395Y006556D03*
X019395Y008556D03*
X018395Y008556D03*
X017395Y008556D03*
X016395Y008556D03*
X015395Y008556D03*
X014395Y008556D03*
X013395Y008556D03*
X012395Y008556D03*
X011395Y008556D03*
X010395Y008556D03*
X009395Y008556D03*
X008395Y008556D03*
X007395Y008556D03*
X006395Y008556D03*
X006395Y009556D03*
X006395Y010556D03*
X007395Y010556D03*
X007395Y009556D03*
X008395Y009556D03*
X008395Y010556D03*
X009395Y010556D03*
X009395Y009556D03*
X010395Y009556D03*
X010395Y010556D03*
X011395Y010556D03*
X011395Y009556D03*
X012395Y009556D03*
X012395Y010556D03*
X013395Y010556D03*
X013395Y009556D03*
X014395Y009556D03*
X014395Y010556D03*
X015395Y010556D03*
X015395Y009556D03*
X016395Y009556D03*
X016395Y010556D03*
X017395Y010556D03*
X017395Y009556D03*
X018395Y009556D03*
X018395Y010556D03*
X019395Y010556D03*
X019395Y009556D03*
X019395Y011556D03*
X018395Y011556D03*
X017395Y011556D03*
X016395Y011556D03*
X015395Y011556D03*
X014395Y011556D03*
X013395Y011556D03*
X012395Y011556D03*
X011395Y011556D03*
X010395Y011556D03*
X009395Y011556D03*
X008395Y011556D03*
X007395Y011556D03*
X006395Y011556D03*
X006395Y012556D03*
X007395Y012556D03*
X008395Y012556D03*
X009395Y012556D03*
X010395Y012556D03*
X011395Y012556D03*
X012395Y012556D03*
X013395Y012556D03*
X014395Y012556D03*
X015395Y012556D03*
X016395Y012556D03*
X017395Y012556D03*
X018395Y012556D03*
X019395Y012556D03*
X019395Y013556D03*
X019395Y014556D03*
X018395Y014556D03*
X018395Y013556D03*
X017395Y013556D03*
X017395Y014556D03*
X016395Y014556D03*
X016395Y013556D03*
X015395Y013556D03*
X015395Y014556D03*
X014395Y014556D03*
X014395Y013556D03*
X013395Y013556D03*
X013395Y014556D03*
X012395Y014556D03*
X012395Y013556D03*
X011395Y013556D03*
X011395Y014556D03*
X010395Y014556D03*
X010395Y013556D03*
X009395Y013556D03*
X009395Y014556D03*
X008395Y014556D03*
X008395Y013556D03*
X007395Y013556D03*
X007395Y014556D03*
X006395Y014556D03*
X006395Y013556D03*
X006395Y015556D03*
X007395Y015556D03*
X008395Y015556D03*
X009395Y015556D03*
X010395Y015556D03*
X011395Y015556D03*
X012395Y015556D03*
X013395Y015556D03*
X014395Y015556D03*
X015395Y015556D03*
X016395Y015556D03*
X017395Y015556D03*
X018395Y015556D03*
X019395Y015556D03*
X019395Y016556D03*
X018395Y016556D03*
X017395Y016556D03*
X016395Y016556D03*
X015395Y016556D03*
X014395Y016556D03*
X013395Y016556D03*
X012395Y016556D03*
X011395Y016556D03*
X010395Y016556D03*
X009395Y016556D03*
X008395Y016556D03*
X007395Y016556D03*
X006395Y016556D03*
D15*
X005295Y017656D03*
X005295Y018556D03*
X005295Y019456D03*
X001195Y018556D03*
X001545Y006356D03*
X001545Y004856D03*
X004445Y001606D03*
X005345Y001606D03*
X004895Y003806D03*
X005045Y004856D03*
X005045Y006356D03*
M02*
