G75*
G70*
%OFA0B0*%
%FSLAX24Y24*%
%IPPOS*%
%LPD*%
%AMOC8*
5,1,8,0,0,1.08239X$1,22.5*
%
%ADD10C,0.0000*%
%ADD11C,0.0320*%
%ADD12C,0.0030*%
%ADD13C,0.0080*%
D10*
X000645Y000806D02*
X000645Y020301D01*
X020130Y020291D01*
X020130Y000806D01*
X000645Y000806D01*
D11*
X001395Y001556D02*
X001395Y003556D01*
X002395Y003556D02*
X002395Y001556D01*
X003395Y001556D02*
X003395Y003556D01*
X006395Y003556D02*
X006395Y001556D01*
X007395Y001556D02*
X007395Y003556D01*
X008395Y003556D02*
X008395Y001556D01*
X009395Y001556D02*
X009395Y003556D01*
X010395Y003556D02*
X010395Y001556D01*
X011395Y001556D02*
X011395Y003556D01*
X012395Y003556D02*
X012395Y001556D01*
X013395Y001556D02*
X013395Y003556D01*
X014395Y003556D02*
X014395Y001556D01*
X015395Y001556D02*
X015395Y003556D01*
X016395Y003556D02*
X016395Y001556D01*
X017395Y001556D02*
X017395Y003556D01*
X018395Y003556D02*
X018395Y001556D01*
X019395Y001556D02*
X019395Y003556D01*
X019395Y017556D02*
X019395Y019556D01*
X018395Y019556D02*
X018395Y017556D01*
X017395Y017556D02*
X017395Y019556D01*
X016395Y019556D02*
X016395Y017556D01*
X015395Y017556D02*
X015395Y019556D01*
X014395Y019556D02*
X014395Y017556D01*
X013395Y017556D02*
X013395Y019556D01*
X012395Y019556D02*
X012395Y017556D01*
X011395Y017556D02*
X011395Y019556D01*
X010395Y019556D02*
X010395Y017556D01*
X009395Y017556D02*
X009395Y019556D01*
X008395Y019556D02*
X008395Y017556D01*
X007395Y017556D02*
X007395Y019556D01*
X006395Y019556D02*
X006395Y017556D01*
D12*
X005702Y014719D02*
X005508Y014719D01*
X005460Y014671D01*
X005460Y014574D01*
X005508Y014526D01*
X005702Y014719D01*
X005750Y014671D01*
X005750Y014574D01*
X005702Y014526D01*
X005508Y014526D01*
X005508Y014427D02*
X005460Y014427D01*
X005460Y014378D01*
X005508Y014378D01*
X005508Y014427D01*
X005460Y014277D02*
X005460Y014084D01*
X005460Y014180D02*
X005750Y014180D01*
X005654Y014084D01*
X005654Y013983D02*
X005460Y013886D01*
X005654Y013789D01*
X005654Y013393D02*
X005654Y013248D01*
X005605Y013200D01*
X005508Y013200D01*
X005460Y013248D01*
X005460Y013393D01*
X005750Y013393D01*
X005654Y013099D02*
X005654Y013051D01*
X005557Y012954D01*
X005460Y012954D02*
X005654Y012954D01*
X005605Y012853D02*
X005460Y012853D01*
X005460Y012708D01*
X005508Y012660D01*
X005557Y012708D01*
X005557Y012853D01*
X005605Y012853D02*
X005654Y012805D01*
X005654Y012708D01*
X005605Y012558D02*
X005654Y012510D01*
X005654Y012413D01*
X005605Y012365D01*
X005508Y012365D01*
X005460Y012413D01*
X005460Y012510D01*
X005508Y012558D01*
X005605Y012558D01*
X005605Y012264D02*
X005654Y012215D01*
X005654Y012070D01*
X005750Y012070D02*
X005460Y012070D01*
X005460Y012215D01*
X005508Y012264D01*
X005605Y012264D01*
X005605Y011969D02*
X005460Y011969D01*
X005460Y011872D02*
X005605Y011872D01*
X005654Y011921D01*
X005605Y011969D01*
X005605Y011872D02*
X005654Y011824D01*
X005654Y011776D01*
X005460Y011776D01*
X005460Y011675D02*
X005654Y011675D01*
X005654Y011481D02*
X005508Y011481D01*
X005460Y011529D01*
X005460Y011675D01*
X005299Y011439D02*
X005250Y011439D01*
X005154Y011439D02*
X004960Y011439D01*
X004960Y011391D02*
X004960Y011488D01*
X005008Y011587D02*
X005105Y011587D01*
X005154Y011636D01*
X005154Y011732D01*
X005105Y011781D01*
X005057Y011781D01*
X005057Y011587D01*
X005008Y011587D02*
X004960Y011636D01*
X004960Y011732D01*
X004960Y011882D02*
X005154Y011882D01*
X005154Y012027D01*
X005105Y012075D01*
X004960Y012075D01*
X004960Y012471D02*
X004960Y012665D01*
X005008Y012766D02*
X005105Y012766D01*
X005154Y012814D01*
X005154Y012911D01*
X005105Y012959D01*
X005057Y012959D01*
X005057Y012766D01*
X005008Y012766D02*
X004960Y012814D01*
X004960Y012911D01*
X004960Y013061D02*
X004960Y013157D01*
X004960Y013109D02*
X005250Y013109D01*
X005250Y013061D01*
X005105Y013257D02*
X005008Y013257D01*
X004960Y013305D01*
X004960Y013402D01*
X005008Y013450D01*
X005105Y013450D01*
X005154Y013402D01*
X005154Y013305D01*
X005105Y013257D01*
X005154Y013552D02*
X004960Y013552D01*
X004960Y013745D02*
X005105Y013745D01*
X005154Y013697D01*
X005154Y013552D01*
X005105Y013846D02*
X005008Y013846D01*
X004960Y013895D01*
X004960Y014040D01*
X004912Y014040D02*
X005154Y014040D01*
X005154Y013895D01*
X005105Y013846D01*
X004912Y014040D02*
X004863Y013991D01*
X004863Y013943D01*
X004960Y012471D02*
X005250Y012471D01*
X005154Y011439D02*
X005154Y011391D01*
X005154Y011291D02*
X005154Y011195D01*
X005202Y011243D02*
X005008Y011243D01*
X004960Y011291D01*
X005008Y011093D02*
X005057Y011045D01*
X005057Y010948D01*
X005105Y010900D01*
X005154Y010948D01*
X005154Y011093D01*
X005008Y011093D02*
X004960Y011045D01*
X004960Y010900D01*
X004960Y010799D02*
X004960Y010654D01*
X005008Y010605D01*
X005057Y010654D01*
X005057Y010799D01*
X005105Y010799D02*
X004960Y010799D01*
X005105Y010799D02*
X005154Y010750D01*
X005154Y010654D01*
X005105Y010504D02*
X005008Y010504D01*
X004960Y010456D01*
X004960Y010311D01*
X005250Y010311D01*
X005154Y010311D02*
X005154Y010456D01*
X005105Y010504D01*
X005105Y010209D02*
X005057Y010209D01*
X005057Y010016D01*
X005105Y010016D02*
X005008Y010016D01*
X004960Y010064D01*
X004960Y010161D01*
X005105Y010209D02*
X005154Y010161D01*
X005154Y010064D01*
X005105Y010016D01*
X005057Y009915D02*
X005008Y009915D01*
X004960Y009866D01*
X004960Y009770D01*
X005008Y009721D01*
X005105Y009770D02*
X005105Y009866D01*
X005057Y009915D01*
X005202Y009915D02*
X005250Y009866D01*
X005250Y009770D01*
X005202Y009721D01*
X005154Y009721D01*
X005105Y009770D01*
X005460Y009762D02*
X005460Y009859D01*
X005460Y009811D02*
X005654Y009811D01*
X005654Y009762D01*
X005750Y009811D02*
X005799Y009811D01*
X005654Y009959D02*
X005654Y010104D01*
X005605Y010152D01*
X005460Y010152D01*
X005460Y010253D02*
X005460Y010350D01*
X005460Y010302D02*
X005654Y010302D01*
X005654Y010253D01*
X005750Y010302D02*
X005799Y010302D01*
X005750Y010450D02*
X005654Y010547D01*
X005557Y010547D01*
X005460Y010450D01*
X005460Y009959D02*
X005654Y009959D01*
X005605Y009661D02*
X005460Y009661D01*
X005460Y009564D02*
X005605Y009564D01*
X005654Y009613D01*
X005605Y009661D01*
X005605Y009564D02*
X005654Y009516D01*
X005654Y009468D01*
X005460Y009468D01*
X005460Y009368D02*
X005557Y009271D01*
X005654Y009271D01*
X005750Y009368D01*
X005702Y010941D02*
X005508Y010941D01*
X005460Y010989D01*
X005460Y011086D01*
X005508Y011134D01*
X005460Y011236D02*
X005654Y011236D01*
X005654Y011332D02*
X005654Y011381D01*
X005654Y011332D02*
X005557Y011236D01*
X005702Y011134D02*
X005750Y011086D01*
X005750Y010989D01*
X005702Y010941D01*
X004053Y011783D02*
X003992Y011721D01*
X003868Y011721D01*
X003806Y011783D01*
X003806Y011845D01*
X003868Y011906D01*
X003992Y011906D01*
X004053Y011968D01*
X004053Y012030D01*
X003992Y012092D01*
X003868Y012092D01*
X003806Y012030D01*
X003685Y012030D02*
X003685Y011968D01*
X003623Y011906D01*
X003500Y011906D01*
X003438Y011845D01*
X003438Y011783D01*
X003500Y011721D01*
X003623Y011721D01*
X003685Y011783D01*
X003685Y012030D02*
X003623Y012092D01*
X003500Y012092D01*
X003438Y012030D01*
X003317Y012030D02*
X003317Y011783D01*
X003255Y011721D01*
X003131Y011721D01*
X003070Y011783D01*
X003070Y012030D01*
X003131Y012092D01*
X003255Y012092D01*
X003317Y012030D01*
X002948Y012092D02*
X002948Y011721D01*
X002948Y011845D02*
X002763Y011845D01*
X002701Y011906D01*
X002701Y012030D01*
X002763Y012092D01*
X002948Y012092D01*
X001900Y012140D02*
X001852Y012188D01*
X001658Y011995D01*
X001610Y012043D01*
X001610Y012140D01*
X001658Y012188D01*
X001852Y012188D01*
X001900Y012140D02*
X001900Y012043D01*
X001852Y011995D01*
X001658Y011995D01*
X001755Y011893D02*
X001755Y011700D01*
X001610Y011599D02*
X001610Y011405D01*
X001610Y011502D02*
X001900Y011502D01*
X001804Y011405D01*
X001610Y011304D02*
X001610Y011111D01*
X001610Y011207D02*
X001900Y011207D01*
X001804Y011111D01*
X001852Y011009D02*
X001658Y011009D01*
X001610Y010961D01*
X001610Y010864D01*
X001658Y010816D01*
X001852Y011009D01*
X001900Y010961D01*
X001900Y010864D01*
X001852Y010816D01*
X001658Y010816D01*
X001610Y010715D02*
X001610Y010521D01*
X001804Y010715D01*
X001852Y010715D01*
X001900Y010666D01*
X001900Y010570D01*
X001852Y010521D01*
X001304Y010504D02*
X001255Y010552D01*
X001158Y010552D01*
X001110Y010504D01*
X001110Y010359D01*
X001013Y010359D02*
X001304Y010359D01*
X001304Y010504D01*
X001304Y010653D02*
X001255Y010653D01*
X001255Y010702D01*
X001304Y010702D01*
X001304Y010653D01*
X001158Y010653D02*
X001110Y010653D01*
X001110Y010702D01*
X001158Y010702D01*
X001158Y010653D01*
X001110Y010801D02*
X001400Y010994D01*
X001400Y011289D02*
X001110Y011095D01*
X001013Y011390D02*
X001013Y011438D01*
X001062Y011487D01*
X001304Y011487D01*
X001400Y011487D02*
X001449Y011487D01*
X001304Y011635D02*
X001304Y011732D01*
X001255Y011780D01*
X001110Y011780D01*
X001110Y011635D01*
X001158Y011586D01*
X001207Y011635D01*
X001207Y011780D01*
X001110Y011881D02*
X001110Y011978D01*
X001110Y011929D02*
X001400Y011929D01*
X001400Y011881D01*
X001304Y012078D02*
X001158Y012078D01*
X001110Y012126D01*
X001110Y012271D01*
X001304Y012271D01*
X001304Y012372D02*
X001304Y012421D01*
X001110Y012421D01*
X001110Y012469D02*
X001110Y012372D01*
X001110Y012569D02*
X001304Y012569D01*
X001304Y012714D01*
X001255Y012762D01*
X001110Y012762D01*
X001158Y012863D02*
X001110Y012912D01*
X001110Y013008D01*
X001158Y013057D01*
X001255Y013057D01*
X001304Y013008D01*
X001304Y012912D01*
X001255Y012863D01*
X001158Y012863D01*
X001158Y013158D02*
X001158Y013206D01*
X001110Y013206D01*
X001110Y013158D01*
X001158Y013158D01*
X001158Y013305D02*
X001110Y013354D01*
X001110Y013450D01*
X001158Y013499D01*
X001255Y013499D01*
X001304Y013450D01*
X001304Y013354D01*
X001255Y013305D01*
X001158Y013305D01*
X001110Y013600D02*
X001304Y013600D01*
X001304Y013697D02*
X001304Y013745D01*
X001304Y013697D02*
X001207Y013600D01*
X001255Y013845D02*
X001158Y013845D01*
X001110Y013894D01*
X001110Y014039D01*
X001062Y014039D02*
X001304Y014039D01*
X001304Y013894D01*
X001255Y013845D01*
X001062Y014039D02*
X001013Y013990D01*
X001013Y013942D01*
X001610Y013318D02*
X001610Y013221D01*
X001658Y013173D01*
X001610Y013072D02*
X001610Y012878D01*
X001610Y012975D02*
X001900Y012975D01*
X001804Y012878D01*
X001755Y012777D02*
X001755Y012584D01*
X001707Y012483D02*
X001755Y012434D01*
X001755Y012289D01*
X001658Y012289D01*
X001610Y012338D01*
X001610Y012434D01*
X001658Y012483D01*
X001707Y012483D01*
X001852Y012386D02*
X001755Y012289D01*
X001852Y012386D02*
X001900Y012483D01*
X001449Y012421D02*
X001400Y012421D01*
X001852Y013173D02*
X001900Y013221D01*
X001900Y013318D01*
X001852Y013367D01*
X001804Y013367D01*
X001755Y013318D01*
X001707Y013367D01*
X001658Y013367D01*
X001610Y013318D01*
X001755Y013318D02*
X001755Y013270D01*
X001304Y010259D02*
X001304Y010162D01*
X001352Y010211D02*
X001158Y010211D01*
X001110Y010259D01*
X001110Y010063D02*
X001158Y010014D01*
X001352Y010014D01*
X001304Y009966D02*
X001304Y010063D01*
X001255Y009865D02*
X001110Y009865D01*
X001255Y009865D02*
X001304Y009816D01*
X001304Y009720D01*
X001255Y009671D01*
X001400Y009671D02*
X001110Y009671D01*
D13*
X002045Y011141D02*
X002045Y011656D01*
X002075Y011658D01*
X002105Y011663D01*
X002134Y011672D01*
X002161Y011685D01*
X002187Y011700D01*
X002211Y011719D01*
X002232Y011740D01*
X002251Y011764D01*
X002266Y011790D01*
X002279Y011817D01*
X002288Y011846D01*
X002293Y011876D01*
X002295Y011906D01*
X002293Y011936D01*
X002288Y011966D01*
X002279Y011995D01*
X002266Y012022D01*
X002251Y012048D01*
X002232Y012072D01*
X002211Y012093D01*
X002187Y012112D01*
X002161Y012127D01*
X002134Y012140D01*
X002105Y012149D01*
X002075Y012154D01*
X002045Y012156D01*
X002045Y012671D01*
X004745Y012671D01*
X004745Y011141D01*
X002045Y011141D01*
M02*
