G75*
G70*
%OFA0B0*%
%FSLAX24Y24*%
%IPPOS*%
%LPD*%
%AMOC8*
5,1,8,0,0,1.08239X$1,22.5*
%
%ADD10C,0.0000*%
%ADD11C,0.0320*%
%ADD12C,0.0030*%
%ADD13R,0.0030X0.0010*%
%ADD14R,0.0020X0.0010*%
%ADD15R,0.0050X0.0010*%
%ADD16R,0.0170X0.0010*%
%ADD17R,0.0160X0.0010*%
%ADD18R,0.0100X0.0010*%
%ADD19R,0.0090X0.0010*%
%ADD20R,0.0120X0.0010*%
%ADD21R,0.0040X0.0010*%
%ADD22R,0.0140X0.0010*%
%ADD23R,0.0080X0.0010*%
%ADD24R,0.0110X0.0010*%
%ADD25R,0.0150X0.0010*%
%ADD26R,0.0070X0.0010*%
%ADD27R,0.0010X0.0010*%
%ADD28R,0.0180X0.0010*%
%ADD29R,0.0130X0.0010*%
%ADD30R,0.0190X0.0010*%
%ADD31R,0.0210X0.0010*%
%ADD32R,0.0240X0.0010*%
%ADD33R,0.0360X0.0010*%
%ADD34R,0.0220X0.0010*%
%ADD35R,0.0260X0.0010*%
%ADD36R,0.0200X0.0010*%
%ADD37R,0.0280X0.0010*%
%ADD38R,0.0060X0.0010*%
%ADD39R,0.0250X0.0010*%
%ADD40R,0.0270X0.0010*%
%ADD41R,0.0300X0.0010*%
%ADD42R,0.0560X0.0010*%
%ADD43R,0.0290X0.0010*%
%ADD44R,0.0520X0.0010*%
%ADD45R,0.0340X0.0010*%
%ADD46R,0.0230X0.0010*%
%ADD47R,0.0310X0.0010*%
%ADD48R,0.0320X0.0010*%
%ADD49R,0.0350X0.0010*%
%ADD50R,0.0670X0.0010*%
%ADD51R,0.0420X0.0010*%
%ADD52R,0.0640X0.0010*%
%ADD53R,0.0630X0.0010*%
%ADD54R,0.0950X0.0010*%
%ADD55R,0.0810X0.0010*%
%ADD56R,0.0650X0.0010*%
%ADD57R,0.0460X0.0010*%
%ADD58R,0.0780X0.0010*%
%ADD59R,0.1250X0.0010*%
%ADD60R,0.1080X0.0010*%
%ADD61R,0.0820X0.0010*%
%ADD62R,0.0540X0.0010*%
%ADD63R,0.0490X0.0010*%
%ADD64R,0.0390X0.0010*%
%ADD65R,0.1180X0.0010*%
%ADD66R,0.0440X0.0010*%
%ADD67R,0.0570X0.0010*%
%ADD68R,0.0610X0.0010*%
%ADD69R,0.0740X0.0010*%
%ADD70R,0.0940X0.0010*%
%ADD71R,0.0430X0.0010*%
%ADD72R,0.0600X0.0010*%
%ADD73R,0.0330X0.0010*%
%ADD74R,0.0710X0.0010*%
%ADD75R,0.0380X0.0010*%
%ADD76R,0.0450X0.0010*%
%ADD77R,0.0830X0.0010*%
%ADD78R,0.1060X0.0010*%
%ADD79R,0.1090X0.0010*%
%ADD80R,0.1000X0.0010*%
%ADD81R,0.0470X0.0010*%
%ADD82R,0.0700X0.0010*%
%ADD83R,0.0750X0.0010*%
%ADD84C,0.0080*%
D10*
X000645Y000806D02*
X000645Y020301D01*
X020130Y020291D01*
X020130Y000806D01*
X000645Y000806D01*
D11*
X001395Y001556D02*
X001395Y003556D01*
X002395Y003556D02*
X002395Y001556D01*
X003395Y001556D02*
X003395Y003556D01*
X006395Y003556D02*
X006395Y001556D01*
X007395Y001556D02*
X007395Y003556D01*
X008395Y003556D02*
X008395Y001556D01*
X009395Y001556D02*
X009395Y003556D01*
X010395Y003556D02*
X010395Y001556D01*
X011395Y001556D02*
X011395Y003556D01*
X012395Y003556D02*
X012395Y001556D01*
X013395Y001556D02*
X013395Y003556D01*
X014395Y003556D02*
X014395Y001556D01*
X015395Y001556D02*
X015395Y003556D01*
X016395Y003556D02*
X016395Y001556D01*
X017395Y001556D02*
X017395Y003556D01*
X018395Y003556D02*
X018395Y001556D01*
X019395Y001556D02*
X019395Y003556D01*
X019395Y017556D02*
X019395Y019556D01*
X018395Y019556D02*
X018395Y017556D01*
X017395Y017556D02*
X017395Y019556D01*
X016395Y019556D02*
X016395Y017556D01*
X015395Y017556D02*
X015395Y019556D01*
X014395Y019556D02*
X014395Y017556D01*
X013395Y017556D02*
X013395Y019556D01*
X012395Y019556D02*
X012395Y017556D01*
X011395Y017556D02*
X011395Y019556D01*
X010395Y019556D02*
X010395Y017556D01*
X009395Y017556D02*
X009395Y019556D01*
X008395Y019556D02*
X008395Y017556D01*
X007395Y017556D02*
X007395Y019556D01*
X006395Y019556D02*
X006395Y017556D01*
D12*
X005702Y014719D02*
X005508Y014719D01*
X005460Y014671D01*
X005460Y014574D01*
X005508Y014526D01*
X005702Y014719D01*
X005750Y014671D01*
X005750Y014574D01*
X005702Y014526D01*
X005508Y014526D01*
X005508Y014427D02*
X005460Y014427D01*
X005460Y014378D01*
X005508Y014378D01*
X005508Y014427D01*
X005460Y014277D02*
X005460Y014084D01*
X005460Y014180D02*
X005750Y014180D01*
X005654Y014084D01*
X005654Y013983D02*
X005460Y013886D01*
X005654Y013789D01*
X005654Y013393D02*
X005654Y013248D01*
X005605Y013200D01*
X005508Y013200D01*
X005460Y013248D01*
X005460Y013393D01*
X005750Y013393D01*
X005654Y013099D02*
X005654Y013051D01*
X005557Y012954D01*
X005460Y012954D02*
X005654Y012954D01*
X005605Y012853D02*
X005460Y012853D01*
X005460Y012708D01*
X005508Y012660D01*
X005557Y012708D01*
X005557Y012853D01*
X005605Y012853D02*
X005654Y012805D01*
X005654Y012708D01*
X005605Y012558D02*
X005654Y012510D01*
X005654Y012413D01*
X005605Y012365D01*
X005508Y012365D01*
X005460Y012413D01*
X005460Y012510D01*
X005508Y012558D01*
X005605Y012558D01*
X005605Y012264D02*
X005654Y012215D01*
X005654Y012070D01*
X005750Y012070D02*
X005460Y012070D01*
X005460Y012215D01*
X005508Y012264D01*
X005605Y012264D01*
X005605Y011969D02*
X005460Y011969D01*
X005460Y011872D02*
X005605Y011872D01*
X005654Y011921D01*
X005605Y011969D01*
X005605Y011872D02*
X005654Y011824D01*
X005654Y011776D01*
X005460Y011776D01*
X005460Y011675D02*
X005654Y011675D01*
X005654Y011481D02*
X005508Y011481D01*
X005460Y011529D01*
X005460Y011675D01*
X005299Y011439D02*
X005250Y011439D01*
X005154Y011439D02*
X004960Y011439D01*
X004960Y011391D02*
X004960Y011488D01*
X005008Y011587D02*
X005105Y011587D01*
X005154Y011636D01*
X005154Y011732D01*
X005105Y011781D01*
X005057Y011781D01*
X005057Y011587D01*
X005008Y011587D02*
X004960Y011636D01*
X004960Y011732D01*
X004960Y011882D02*
X005154Y011882D01*
X005154Y012027D01*
X005105Y012075D01*
X004960Y012075D01*
X004960Y012471D02*
X004960Y012665D01*
X005008Y012766D02*
X005105Y012766D01*
X005154Y012814D01*
X005154Y012911D01*
X005105Y012959D01*
X005057Y012959D01*
X005057Y012766D01*
X005008Y012766D02*
X004960Y012814D01*
X004960Y012911D01*
X004960Y013061D02*
X004960Y013157D01*
X004960Y013109D02*
X005250Y013109D01*
X005250Y013061D01*
X005105Y013257D02*
X005008Y013257D01*
X004960Y013305D01*
X004960Y013402D01*
X005008Y013450D01*
X005105Y013450D01*
X005154Y013402D01*
X005154Y013305D01*
X005105Y013257D01*
X005154Y013552D02*
X004960Y013552D01*
X004960Y013745D02*
X005105Y013745D01*
X005154Y013697D01*
X005154Y013552D01*
X005105Y013846D02*
X005008Y013846D01*
X004960Y013895D01*
X004960Y014040D01*
X004912Y014040D02*
X005154Y014040D01*
X005154Y013895D01*
X005105Y013846D01*
X004912Y014040D02*
X004863Y013991D01*
X004863Y013943D01*
X004960Y012471D02*
X005250Y012471D01*
X005154Y011439D02*
X005154Y011391D01*
X005154Y011291D02*
X005154Y011195D01*
X005202Y011243D02*
X005008Y011243D01*
X004960Y011291D01*
X005008Y011093D02*
X005057Y011045D01*
X005057Y010948D01*
X005105Y010900D01*
X005154Y010948D01*
X005154Y011093D01*
X005008Y011093D02*
X004960Y011045D01*
X004960Y010900D01*
X004960Y010799D02*
X004960Y010654D01*
X005008Y010605D01*
X005057Y010654D01*
X005057Y010799D01*
X005105Y010799D02*
X004960Y010799D01*
X005105Y010799D02*
X005154Y010750D01*
X005154Y010654D01*
X005105Y010504D02*
X005008Y010504D01*
X004960Y010456D01*
X004960Y010311D01*
X005250Y010311D01*
X005154Y010311D02*
X005154Y010456D01*
X005105Y010504D01*
X005105Y010209D02*
X005057Y010209D01*
X005057Y010016D01*
X005105Y010016D02*
X005008Y010016D01*
X004960Y010064D01*
X004960Y010161D01*
X005105Y010209D02*
X005154Y010161D01*
X005154Y010064D01*
X005105Y010016D01*
X005057Y009915D02*
X005008Y009915D01*
X004960Y009866D01*
X004960Y009770D01*
X005008Y009721D01*
X005105Y009770D02*
X005105Y009866D01*
X005057Y009915D01*
X005202Y009915D02*
X005250Y009866D01*
X005250Y009770D01*
X005202Y009721D01*
X005154Y009721D01*
X005105Y009770D01*
X005460Y009762D02*
X005460Y009859D01*
X005460Y009811D02*
X005654Y009811D01*
X005654Y009762D01*
X005750Y009811D02*
X005799Y009811D01*
X005654Y009959D02*
X005654Y010104D01*
X005605Y010152D01*
X005460Y010152D01*
X005460Y010253D02*
X005460Y010350D01*
X005460Y010302D02*
X005654Y010302D01*
X005654Y010253D01*
X005750Y010302D02*
X005799Y010302D01*
X005750Y010450D02*
X005654Y010547D01*
X005557Y010547D01*
X005460Y010450D01*
X005460Y009959D02*
X005654Y009959D01*
X005605Y009661D02*
X005460Y009661D01*
X005460Y009564D02*
X005605Y009564D01*
X005654Y009613D01*
X005605Y009661D01*
X005605Y009564D02*
X005654Y009516D01*
X005654Y009468D01*
X005460Y009468D01*
X005460Y009368D02*
X005557Y009271D01*
X005654Y009271D01*
X005750Y009368D01*
X005702Y010941D02*
X005508Y010941D01*
X005460Y010989D01*
X005460Y011086D01*
X005508Y011134D01*
X005460Y011236D02*
X005654Y011236D01*
X005654Y011332D02*
X005654Y011381D01*
X005654Y011332D02*
X005557Y011236D01*
X005702Y011134D02*
X005750Y011086D01*
X005750Y010989D01*
X005702Y010941D01*
X004053Y011783D02*
X003992Y011721D01*
X003868Y011721D01*
X003806Y011783D01*
X003806Y011845D01*
X003868Y011906D01*
X003992Y011906D01*
X004053Y011968D01*
X004053Y012030D01*
X003992Y012092D01*
X003868Y012092D01*
X003806Y012030D01*
X003685Y012030D02*
X003685Y011968D01*
X003623Y011906D01*
X003500Y011906D01*
X003438Y011845D01*
X003438Y011783D01*
X003500Y011721D01*
X003623Y011721D01*
X003685Y011783D01*
X003685Y012030D02*
X003623Y012092D01*
X003500Y012092D01*
X003438Y012030D01*
X003317Y012030D02*
X003317Y011783D01*
X003255Y011721D01*
X003131Y011721D01*
X003070Y011783D01*
X003070Y012030D01*
X003131Y012092D01*
X003255Y012092D01*
X003317Y012030D01*
X002948Y012092D02*
X002948Y011721D01*
X002948Y011845D02*
X002763Y011845D01*
X002701Y011906D01*
X002701Y012030D01*
X002763Y012092D01*
X002948Y012092D01*
X001900Y012140D02*
X001852Y012188D01*
X001658Y011995D01*
X001610Y012043D01*
X001610Y012140D01*
X001658Y012188D01*
X001852Y012188D01*
X001900Y012140D02*
X001900Y012043D01*
X001852Y011995D01*
X001658Y011995D01*
X001755Y011893D02*
X001755Y011700D01*
X001610Y011599D02*
X001610Y011405D01*
X001610Y011502D02*
X001900Y011502D01*
X001804Y011405D01*
X001610Y011304D02*
X001610Y011111D01*
X001610Y011207D02*
X001900Y011207D01*
X001804Y011111D01*
X001852Y011009D02*
X001658Y011009D01*
X001610Y010961D01*
X001610Y010864D01*
X001658Y010816D01*
X001852Y011009D01*
X001900Y010961D01*
X001900Y010864D01*
X001852Y010816D01*
X001658Y010816D01*
X001610Y010715D02*
X001610Y010521D01*
X001804Y010715D01*
X001852Y010715D01*
X001900Y010666D01*
X001900Y010570D01*
X001852Y010521D01*
X001304Y010504D02*
X001255Y010552D01*
X001158Y010552D01*
X001110Y010504D01*
X001110Y010359D01*
X001013Y010359D02*
X001304Y010359D01*
X001304Y010504D01*
X001304Y010653D02*
X001255Y010653D01*
X001255Y010702D01*
X001304Y010702D01*
X001304Y010653D01*
X001158Y010653D02*
X001110Y010653D01*
X001110Y010702D01*
X001158Y010702D01*
X001158Y010653D01*
X001110Y010801D02*
X001400Y010994D01*
X001400Y011289D02*
X001110Y011095D01*
X001013Y011390D02*
X001013Y011438D01*
X001062Y011487D01*
X001304Y011487D01*
X001400Y011487D02*
X001449Y011487D01*
X001304Y011635D02*
X001304Y011732D01*
X001255Y011780D01*
X001110Y011780D01*
X001110Y011635D01*
X001158Y011586D01*
X001207Y011635D01*
X001207Y011780D01*
X001110Y011881D02*
X001110Y011978D01*
X001110Y011929D02*
X001400Y011929D01*
X001400Y011881D01*
X001304Y012078D02*
X001158Y012078D01*
X001110Y012126D01*
X001110Y012271D01*
X001304Y012271D01*
X001304Y012372D02*
X001304Y012421D01*
X001110Y012421D01*
X001110Y012469D02*
X001110Y012372D01*
X001110Y012569D02*
X001304Y012569D01*
X001304Y012714D01*
X001255Y012762D01*
X001110Y012762D01*
X001158Y012863D02*
X001110Y012912D01*
X001110Y013008D01*
X001158Y013057D01*
X001255Y013057D01*
X001304Y013008D01*
X001304Y012912D01*
X001255Y012863D01*
X001158Y012863D01*
X001158Y013158D02*
X001158Y013206D01*
X001110Y013206D01*
X001110Y013158D01*
X001158Y013158D01*
X001158Y013305D02*
X001110Y013354D01*
X001110Y013450D01*
X001158Y013499D01*
X001255Y013499D01*
X001304Y013450D01*
X001304Y013354D01*
X001255Y013305D01*
X001158Y013305D01*
X001110Y013600D02*
X001304Y013600D01*
X001304Y013697D02*
X001304Y013745D01*
X001304Y013697D02*
X001207Y013600D01*
X001255Y013845D02*
X001158Y013845D01*
X001110Y013894D01*
X001110Y014039D01*
X001062Y014039D02*
X001304Y014039D01*
X001304Y013894D01*
X001255Y013845D01*
X001062Y014039D02*
X001013Y013990D01*
X001013Y013942D01*
X001610Y013318D02*
X001610Y013221D01*
X001658Y013173D01*
X001610Y013072D02*
X001610Y012878D01*
X001610Y012975D02*
X001900Y012975D01*
X001804Y012878D01*
X001755Y012777D02*
X001755Y012584D01*
X001707Y012483D02*
X001755Y012434D01*
X001755Y012289D01*
X001658Y012289D01*
X001610Y012338D01*
X001610Y012434D01*
X001658Y012483D01*
X001707Y012483D01*
X001852Y012386D02*
X001755Y012289D01*
X001852Y012386D02*
X001900Y012483D01*
X001449Y012421D02*
X001400Y012421D01*
X001852Y013173D02*
X001900Y013221D01*
X001900Y013318D01*
X001852Y013367D01*
X001804Y013367D01*
X001755Y013318D01*
X001707Y013367D01*
X001658Y013367D01*
X001610Y013318D01*
X001755Y013318D02*
X001755Y013270D01*
X001304Y010259D02*
X001304Y010162D01*
X001352Y010211D02*
X001158Y010211D01*
X001110Y010259D01*
X001110Y010063D02*
X001158Y010014D01*
X001352Y010014D01*
X001304Y009966D02*
X001304Y010063D01*
X001255Y009865D02*
X001110Y009865D01*
X001255Y009865D02*
X001304Y009816D01*
X001304Y009720D01*
X001255Y009671D01*
X001400Y009671D02*
X001110Y009671D01*
D13*
X001585Y006046D03*
X001575Y006036D03*
X001565Y006026D03*
X001545Y005986D03*
X001545Y005976D03*
X001575Y005916D03*
X001545Y005906D03*
X001495Y005826D03*
X001615Y005786D03*
X001615Y005776D03*
X001625Y005766D03*
X001625Y005756D03*
X001635Y005746D03*
X001635Y005736D03*
X001645Y005726D03*
X001645Y005716D03*
X001655Y005706D03*
X001655Y005696D03*
X001665Y005666D03*
X001695Y005706D03*
X001695Y005716D03*
X001685Y005726D03*
X001675Y005746D03*
X001665Y005766D03*
X001655Y005786D03*
X001755Y005786D03*
X001755Y005776D03*
X001755Y005766D03*
X001765Y005746D03*
X001755Y005796D03*
X001755Y005806D03*
X001755Y005826D03*
X001765Y005846D03*
X001765Y005856D03*
X001795Y005926D03*
X001825Y005966D03*
X001835Y005976D03*
X001845Y005986D03*
X001865Y005836D03*
X001865Y005826D03*
X001855Y005806D03*
X001855Y005796D03*
X001855Y005786D03*
X001855Y005776D03*
X001855Y005766D03*
X001855Y005756D03*
X001845Y005716D03*
X001845Y005706D03*
X001765Y005686D03*
X001725Y005496D03*
X001725Y005486D03*
X001725Y005476D03*
X001715Y005356D03*
X001715Y005336D03*
X001715Y005326D03*
X001715Y005316D03*
X001715Y005306D03*
X001715Y005296D03*
X001665Y005186D03*
X001665Y005176D03*
X001665Y005126D03*
X001665Y005116D03*
X001715Y005106D03*
X001715Y005096D03*
X001715Y005076D03*
X001715Y005066D03*
X001715Y005056D03*
X001715Y005046D03*
X001715Y005036D03*
X001715Y005016D03*
X001715Y005006D03*
X001715Y004996D03*
X001715Y004986D03*
X001715Y004976D03*
X001715Y004966D03*
X001715Y004956D03*
X001715Y004946D03*
X001715Y004936D03*
X001715Y004926D03*
X001715Y004916D03*
X001715Y004906D03*
X001715Y004896D03*
X001655Y004896D03*
X001655Y004906D03*
X001655Y004916D03*
X001655Y004926D03*
X001645Y004866D03*
X001645Y004856D03*
X001635Y004836D03*
X001635Y004826D03*
X001625Y004816D03*
X001625Y004806D03*
X001625Y004796D03*
X002485Y004806D03*
X002495Y004796D03*
X002495Y004786D03*
X002505Y004776D03*
X002515Y004766D03*
X002525Y004756D03*
X002535Y004746D03*
X002535Y004736D03*
X002545Y004726D03*
X002555Y004716D03*
X002555Y004706D03*
X002565Y004696D03*
X002575Y004676D03*
X002585Y004656D03*
X002685Y004486D03*
X002865Y004576D03*
X002875Y004556D03*
X002885Y004536D03*
X002855Y004596D03*
X002845Y004616D03*
X002835Y004636D03*
X002825Y004656D03*
X002815Y004666D03*
X002815Y004676D03*
X002805Y004686D03*
X002805Y004696D03*
X002795Y004706D03*
X002795Y004716D03*
X002785Y004726D03*
X002785Y004736D03*
X002775Y004746D03*
X002765Y004766D03*
X002755Y004776D03*
X002755Y004786D03*
X002745Y004796D03*
X002735Y004816D03*
X002725Y004836D03*
X002715Y004846D03*
X002705Y004866D03*
X002695Y004886D03*
X002685Y004896D03*
X002665Y004926D03*
X002655Y004936D03*
X002725Y004996D03*
X002735Y004986D03*
X002745Y004976D03*
X002755Y004966D03*
X002815Y004886D03*
X002885Y004916D03*
X002935Y004956D03*
X002945Y004946D03*
X002955Y004936D03*
X002995Y004946D03*
X003005Y004936D03*
X003015Y004926D03*
X003025Y004916D03*
X002995Y004876D03*
X003005Y004866D03*
X003035Y004826D03*
X003065Y004856D03*
X003075Y004846D03*
X003055Y004876D03*
X003095Y004896D03*
X003105Y004876D03*
X003115Y004856D03*
X003155Y004876D03*
X003135Y004916D03*
X003115Y004946D03*
X003105Y004956D03*
X003085Y004926D03*
X003085Y004916D03*
X003075Y004936D03*
X003065Y004946D03*
X003055Y004956D03*
X003075Y004996D03*
X003065Y005006D03*
X003055Y005016D03*
X003045Y005026D03*
X003035Y005036D03*
X003025Y005046D03*
X003015Y005056D03*
X003005Y005066D03*
X002975Y005086D03*
X002945Y005056D03*
X002955Y005046D03*
X002945Y005016D03*
X002975Y004976D03*
X002985Y004966D03*
X003005Y005006D03*
X002995Y005016D03*
X002925Y004966D03*
X002865Y005016D03*
X002855Y005026D03*
X002845Y005036D03*
X002835Y005046D03*
X002895Y005056D03*
X002905Y005046D03*
X002865Y005116D03*
X002905Y005276D03*
X002835Y005336D03*
X002845Y005366D03*
X002835Y005376D03*
X002825Y005426D03*
X002775Y005376D03*
X002745Y005396D03*
X002785Y005316D03*
X002745Y005276D03*
X002745Y005266D03*
X002755Y005256D03*
X002755Y005246D03*
X002895Y005456D03*
X002895Y005466D03*
X002895Y005476D03*
X002885Y005496D03*
X002885Y005506D03*
X002885Y005516D03*
X002885Y005526D03*
X002885Y005536D03*
X002885Y005546D03*
X002885Y005556D03*
X002885Y005566D03*
X002885Y005576D03*
X002885Y005586D03*
X002885Y005596D03*
X002885Y005606D03*
X002885Y005616D03*
X002945Y005536D03*
X002945Y005486D03*
X002955Y005456D03*
X003015Y005486D03*
X003015Y005496D03*
X003025Y005516D03*
X003065Y005456D03*
X003075Y005426D03*
X003095Y005376D03*
X003095Y005256D03*
X003105Y005236D03*
X003115Y005226D03*
X003125Y005216D03*
X003135Y005206D03*
X003105Y005156D03*
X003045Y005116D03*
X003075Y005086D03*
X003085Y005076D03*
X003095Y005066D03*
X003105Y005056D03*
X003115Y005046D03*
X003125Y005036D03*
X003125Y005026D03*
X003135Y005016D03*
X003145Y004996D03*
X003155Y004946D03*
X003245Y004866D03*
X003245Y004846D03*
X003235Y004816D03*
X003195Y004816D03*
X003195Y004826D03*
X003125Y004776D03*
X003125Y004756D03*
X003125Y004746D03*
X003135Y004726D03*
X003095Y004726D03*
X003095Y004716D03*
X003085Y004746D03*
X003065Y004776D03*
X003015Y004746D03*
X003005Y004756D03*
X002995Y004776D03*
X002955Y004826D03*
X002945Y004836D03*
X002935Y004856D03*
X002865Y004816D03*
X002875Y004796D03*
X002885Y004786D03*
X002895Y004766D03*
X002905Y004756D03*
X002915Y004736D03*
X002925Y004726D03*
X002925Y004716D03*
X002935Y004706D03*
X002945Y004696D03*
X002945Y004686D03*
X002965Y004656D03*
X002975Y004636D03*
X002995Y004606D03*
X003005Y004586D03*
X003015Y004566D03*
X003025Y004546D03*
X003035Y004526D03*
X003045Y004506D03*
X003055Y004486D03*
X003065Y004476D03*
X003125Y004536D03*
X003115Y004556D03*
X003115Y004566D03*
X003105Y004586D03*
X003095Y004606D03*
X003085Y004616D03*
X003085Y004626D03*
X003075Y004636D03*
X003065Y004656D03*
X003065Y004666D03*
X003055Y004676D03*
X003045Y004696D03*
X003035Y004706D03*
X003115Y004686D03*
X003115Y004676D03*
X003125Y004656D03*
X003245Y004606D03*
X003245Y004596D03*
X003235Y004586D03*
X003235Y004576D03*
X003235Y004566D03*
X003245Y004506D03*
X003255Y004476D03*
X003255Y004466D03*
X003265Y004446D03*
X003265Y004436D03*
X003265Y004426D03*
X003265Y004416D03*
X003265Y004406D03*
X003265Y004396D03*
X003265Y004386D03*
X003265Y004376D03*
X003265Y004366D03*
X003255Y004326D03*
X003225Y004186D03*
X003215Y004176D03*
X003215Y004166D03*
X003205Y004146D03*
X003065Y004326D03*
X002905Y004346D03*
X003255Y004646D03*
X003265Y004676D03*
X003265Y004686D03*
X003555Y004626D03*
X003555Y004616D03*
X003665Y004566D03*
X003665Y004556D03*
X003665Y004536D03*
X003805Y004606D03*
X003825Y004646D03*
X003655Y004896D03*
X003935Y004986D03*
X004355Y004926D03*
X004415Y005276D03*
X004415Y005286D03*
X004605Y005366D03*
X004605Y005376D03*
X004645Y005386D03*
X004655Y005416D03*
X004655Y005426D03*
X004665Y005446D03*
X004665Y005456D03*
X004665Y005466D03*
X004675Y005486D03*
X004675Y005496D03*
X004715Y005496D03*
X004715Y005486D03*
X004715Y005506D03*
X004715Y005436D03*
X004715Y005426D03*
X004715Y005416D03*
X004605Y005486D03*
X004585Y005466D03*
X004585Y005456D03*
X004575Y005446D03*
X004625Y005306D03*
X004625Y005296D03*
X004625Y005286D03*
X004625Y005276D03*
X004625Y005266D03*
X004625Y005256D03*
X004625Y005246D03*
X004625Y005236D03*
X004635Y005176D03*
X004635Y005156D03*
X004685Y005206D03*
X004685Y005216D03*
X004685Y005226D03*
X004775Y005586D03*
X004715Y005636D03*
X004715Y005646D03*
X004725Y005656D03*
X004735Y005666D03*
X004755Y005726D03*
X004565Y005886D03*
X004555Y005896D03*
X004465Y005876D03*
X004345Y005856D03*
X004225Y005946D03*
X004235Y005966D03*
X004085Y005826D03*
X003945Y005766D03*
X003865Y005756D03*
X003845Y005846D03*
X003845Y005856D03*
X003695Y005816D03*
X003455Y005876D03*
X003285Y005676D03*
X003255Y005636D03*
X003245Y005626D03*
X003245Y005616D03*
X003235Y005606D03*
X003225Y005596D03*
X003225Y005586D03*
X003215Y005576D03*
X003405Y005346D03*
X003195Y005276D03*
X003185Y005236D03*
X002795Y005496D03*
X002795Y005506D03*
X002795Y005516D03*
X002795Y005526D03*
X002795Y005536D03*
X002715Y005546D03*
X002715Y005556D03*
X002715Y005566D03*
X002715Y005586D03*
X002715Y005596D03*
X002705Y005616D03*
X002705Y005626D03*
X002705Y005636D03*
X002785Y005686D03*
X002705Y005526D03*
X002705Y005516D03*
X002705Y005506D03*
X002645Y005496D03*
X002625Y005506D03*
X002605Y005546D03*
X002605Y005556D03*
X002605Y005566D03*
X002605Y005576D03*
X002555Y005546D03*
X002525Y005576D03*
X002525Y005586D03*
X002525Y005606D03*
X002525Y005616D03*
X002605Y005636D03*
X002605Y005646D03*
X002605Y005656D03*
X002605Y005666D03*
X002595Y005696D03*
X002415Y005696D03*
X002415Y005706D03*
X002415Y005666D03*
X002415Y005656D03*
X002415Y005646D03*
X002415Y005636D03*
X002415Y005606D03*
X002315Y005646D03*
X002315Y005656D03*
X002315Y005666D03*
X002315Y005676D03*
X002315Y005686D03*
X002315Y005696D03*
X002315Y005706D03*
X002315Y005716D03*
X002315Y005726D03*
X002265Y005876D03*
X002205Y005916D03*
X002085Y005916D03*
X002075Y005906D03*
X002085Y006006D03*
X002075Y006056D03*
X002105Y006066D03*
X002135Y006036D03*
X002245Y006096D03*
X002455Y005896D03*
X002465Y005906D03*
X002235Y005546D03*
X002175Y005546D03*
X002095Y005556D03*
X001965Y005696D03*
X001965Y005766D03*
X001965Y005776D03*
X001955Y005786D03*
X001955Y005796D03*
X001955Y005806D03*
X001955Y005816D03*
X001955Y005826D03*
X001955Y005836D03*
X001955Y005846D03*
X001955Y005856D03*
X001955Y005866D03*
X001955Y005876D03*
X001695Y005956D03*
X001675Y005946D03*
X002905Y005966D03*
X002975Y005856D03*
X002985Y005806D03*
X003765Y005576D03*
X003765Y005566D03*
X003825Y005536D03*
X004245Y005546D03*
X004625Y004656D03*
X004625Y004636D03*
X004625Y004626D03*
X004495Y004616D03*
X004475Y004506D03*
D14*
X004360Y004566D03*
X004630Y004646D03*
X004640Y005356D03*
X004640Y005366D03*
X004640Y005376D03*
X004650Y005396D03*
X004650Y005406D03*
X004660Y005436D03*
X004670Y005476D03*
X004680Y005506D03*
X004600Y005396D03*
X004600Y005386D03*
X004610Y005356D03*
X004750Y005696D03*
X004750Y005706D03*
X004580Y005866D03*
X004580Y005876D03*
X004470Y005866D03*
X004470Y005856D03*
X004470Y005886D03*
X004470Y005896D03*
X004200Y005716D03*
X004080Y005816D03*
X004100Y005866D03*
X003920Y005806D03*
X003910Y005706D03*
X003840Y005866D03*
X003990Y006106D03*
X004010Y006246D03*
X003860Y006246D03*
X003670Y006206D03*
X003640Y006226D03*
X003550Y006286D03*
X003520Y006356D03*
X003220Y006266D03*
X003160Y006326D03*
X003180Y006426D03*
X002970Y006406D03*
X003100Y005996D03*
X002950Y005896D03*
X003000Y005636D03*
X002950Y005566D03*
X002950Y005556D03*
X002950Y005546D03*
X002950Y005526D03*
X002940Y005516D03*
X002940Y005506D03*
X002940Y005496D03*
X002950Y005476D03*
X002950Y005466D03*
X002960Y005446D03*
X003010Y005456D03*
X003010Y005466D03*
X003010Y005476D03*
X003020Y005506D03*
X003060Y005446D03*
X003070Y005436D03*
X003100Y005306D03*
X003190Y005256D03*
X003190Y005246D03*
X003050Y005106D03*
X003060Y005096D03*
X003030Y005126D03*
X003020Y005136D03*
X002880Y005076D03*
X002880Y005066D03*
X002880Y005006D03*
X002890Y004996D03*
X002900Y004986D03*
X002910Y004976D03*
X002880Y004926D03*
X002890Y004906D03*
X002910Y004886D03*
X002920Y004876D03*
X002930Y004866D03*
X002940Y004846D03*
X002990Y004886D03*
X002980Y004896D03*
X002980Y004906D03*
X002970Y004916D03*
X002960Y004926D03*
X002990Y004956D03*
X003030Y004906D03*
X003040Y004896D03*
X003050Y004886D03*
X003060Y004866D03*
X003080Y004836D03*
X003090Y004826D03*
X003090Y004816D03*
X003120Y004816D03*
X003120Y004826D03*
X003120Y004836D03*
X003120Y004846D03*
X003110Y004866D03*
X003100Y004886D03*
X003090Y004906D03*
X003140Y004906D03*
X003150Y004896D03*
X003150Y004886D03*
X003160Y004866D03*
X003240Y004876D03*
X003240Y004886D03*
X003240Y004896D03*
X003240Y004826D03*
X003120Y004766D03*
X003130Y004736D03*
X003140Y004716D03*
X003140Y004706D03*
X003100Y004706D03*
X003090Y004736D03*
X003080Y004756D03*
X003070Y004766D03*
X003060Y004786D03*
X003050Y004806D03*
X003040Y004816D03*
X003030Y004836D03*
X003020Y004846D03*
X003010Y004856D03*
X003000Y004766D03*
X003020Y004736D03*
X003030Y004726D03*
X003030Y004716D03*
X003050Y004686D03*
X003070Y004646D03*
X003120Y004666D03*
X003130Y004646D03*
X003130Y004636D03*
X003130Y004626D03*
X003100Y004596D03*
X003120Y004546D03*
X003040Y004516D03*
X003050Y004496D03*
X003070Y004466D03*
X003070Y004456D03*
X003080Y004436D03*
X003080Y004356D03*
X003080Y004316D03*
X003250Y004316D03*
X003260Y004456D03*
X003250Y004486D03*
X003250Y004496D03*
X003310Y004476D03*
X003570Y004466D03*
X003660Y004526D03*
X003560Y004606D03*
X003550Y004646D03*
X003160Y004956D03*
X003150Y004966D03*
X003150Y004976D03*
X003150Y004986D03*
X003140Y005006D03*
X002850Y004956D03*
X002840Y004966D03*
X002790Y004926D03*
X002790Y004916D03*
X002800Y004906D03*
X002810Y004896D03*
X002820Y004876D03*
X002830Y004866D03*
X002840Y004856D03*
X002840Y004846D03*
X002850Y004836D03*
X002860Y004826D03*
X002870Y004806D03*
X002890Y004776D03*
X002910Y004746D03*
X002950Y004676D03*
X002960Y004666D03*
X002970Y004646D03*
X002980Y004626D03*
X002990Y004616D03*
X003000Y004596D03*
X003010Y004576D03*
X003020Y004556D03*
X003030Y004536D03*
X002900Y004516D03*
X002890Y004526D03*
X002880Y004546D03*
X002870Y004566D03*
X002860Y004586D03*
X002850Y004606D03*
X002840Y004626D03*
X002830Y004646D03*
X002770Y004756D03*
X002740Y004806D03*
X002730Y004826D03*
X002710Y004856D03*
X002700Y004876D03*
X002680Y004906D03*
X002670Y004916D03*
X002760Y004956D03*
X002770Y004946D03*
X002780Y004936D03*
X002760Y005236D03*
X002740Y005286D03*
X002790Y005306D03*
X002910Y005266D03*
X002860Y005446D03*
X002850Y005456D03*
X002790Y005486D03*
X002700Y005496D03*
X002710Y005536D03*
X002700Y005686D03*
X002890Y005626D03*
X003200Y005696D03*
X003450Y005866D03*
X003470Y005576D03*
X003470Y005536D03*
X003770Y005586D03*
X003960Y005316D03*
X004220Y005476D03*
X003930Y004976D03*
X003420Y005276D03*
X002540Y005396D03*
X002420Y005596D03*
X002310Y005636D03*
X002310Y005736D03*
X002310Y005746D03*
X002310Y005756D03*
X002310Y005766D03*
X002200Y005766D03*
X002190Y005686D03*
X002260Y005866D03*
X002460Y005886D03*
X002420Y005726D03*
X002550Y006056D03*
X002360Y006176D03*
X002030Y005966D03*
X001880Y005866D03*
X001870Y005856D03*
X001870Y005846D03*
X001860Y005816D03*
X001760Y005836D03*
X001750Y005816D03*
X001770Y005866D03*
X001760Y005756D03*
X001770Y005736D03*
X001770Y005726D03*
X001850Y005696D03*
X001960Y005686D03*
X001960Y005726D03*
X001960Y005736D03*
X001960Y005746D03*
X001960Y005756D03*
X001650Y005836D03*
X001650Y005846D03*
X001650Y005856D03*
X001650Y005866D03*
X001640Y005936D03*
X001640Y005946D03*
X001670Y005936D03*
X001640Y006016D03*
X001640Y006026D03*
X001560Y005936D03*
X001570Y005926D03*
X001580Y005906D03*
X001720Y005516D03*
X001720Y005506D03*
X002020Y006216D03*
X001640Y004846D03*
X001790Y004766D03*
X002570Y004686D03*
X002580Y004666D03*
X002590Y004646D03*
X003210Y004156D03*
D15*
X003165Y004266D03*
X003165Y004286D03*
X003165Y004386D03*
X003165Y004396D03*
X003165Y004406D03*
X003175Y004416D03*
X003265Y004336D03*
X003385Y004416D03*
X003545Y004366D03*
X003575Y004376D03*
X003595Y004386D03*
X003605Y004396D03*
X003635Y004406D03*
X003685Y004426D03*
X003735Y004446D03*
X003565Y004456D03*
X003815Y004616D03*
X003825Y004636D03*
X003655Y004866D03*
X003795Y005256D03*
X003765Y005336D03*
X003955Y005326D03*
X004235Y005496D03*
X004235Y005506D03*
X004245Y005516D03*
X004245Y005526D03*
X004245Y005536D03*
X004195Y005686D03*
X004195Y005696D03*
X004195Y005706D03*
X004095Y005846D03*
X003945Y005756D03*
X003705Y006096D03*
X003375Y006316D03*
X003225Y006276D03*
X003185Y005996D03*
X003125Y005976D03*
X003105Y005966D03*
X003085Y005956D03*
X003005Y005896D03*
X003055Y005846D03*
X003075Y005856D03*
X002995Y005816D03*
X002985Y005626D03*
X003065Y005506D03*
X003065Y005496D03*
X003075Y005466D03*
X003105Y005366D03*
X003045Y005296D03*
X003065Y005276D03*
X002985Y005346D03*
X002975Y005356D03*
X002815Y005396D03*
X002735Y005356D03*
X002715Y005366D03*
X002675Y005386D03*
X002695Y005426D03*
X002715Y005446D03*
X002735Y005436D03*
X002685Y005466D03*
X002675Y005476D03*
X002665Y005486D03*
X002655Y005446D03*
X002605Y005466D03*
X002575Y005476D03*
X002555Y005486D03*
X002545Y005446D03*
X002475Y005426D03*
X002595Y005526D03*
X002515Y005686D03*
X002415Y005626D03*
X002295Y005906D03*
X002285Y005966D03*
X002305Y005976D03*
X002325Y005986D03*
X002345Y005996D03*
X002385Y006016D03*
X002405Y006026D03*
X002425Y006036D03*
X002445Y006046D03*
X002475Y006006D03*
X002495Y005936D03*
X002595Y005986D03*
X002525Y006076D03*
X002435Y006096D03*
X002405Y006136D03*
X002315Y006176D03*
X002255Y006196D03*
X002155Y006166D03*
X002135Y006156D03*
X002115Y006146D03*
X002095Y006136D03*
X002075Y006186D03*
X002055Y006176D03*
X001975Y006136D03*
X001935Y006116D03*
X001905Y006096D03*
X001885Y006086D03*
X001925Y006046D03*
X001945Y006056D03*
X001955Y006066D03*
X001995Y006046D03*
X002005Y006056D03*
X002025Y006066D03*
X002055Y006046D03*
X001995Y006086D03*
X001895Y006026D03*
X001925Y005986D03*
X001815Y006046D03*
X001775Y006016D03*
X001745Y005996D03*
X001655Y005996D03*
X001655Y006006D03*
X001625Y005966D03*
X001575Y005946D03*
X001515Y006026D03*
X001525Y006036D03*
X001525Y006046D03*
X001535Y006056D03*
X001625Y006086D03*
X001635Y006096D03*
X001775Y006096D03*
X001785Y006106D03*
X001795Y006116D03*
X001825Y006136D03*
X001845Y006146D03*
X002095Y005926D03*
X002105Y005936D03*
X002125Y005946D03*
X002145Y005956D03*
X002155Y005966D03*
X002215Y005996D03*
X002235Y005936D03*
X002185Y006066D03*
X002205Y006076D03*
X001845Y005746D03*
X001605Y005666D03*
X001525Y005766D03*
X001515Y005786D03*
X001485Y005886D03*
X001475Y005896D03*
X001475Y005956D03*
X001655Y005416D03*
X001655Y005406D03*
X001655Y005396D03*
X001655Y005386D03*
X001655Y005376D03*
X001715Y005386D03*
X001715Y005396D03*
X001715Y005406D03*
X001715Y005416D03*
X001665Y005016D03*
X001695Y004806D03*
X001695Y004796D03*
X001845Y004716D03*
X001855Y004706D03*
X001885Y004686D03*
X001895Y004676D03*
X001915Y004666D03*
X001955Y004646D03*
X002355Y004556D03*
X002625Y004446D03*
X002755Y004436D03*
X002775Y004426D03*
X002845Y004426D03*
X002945Y004356D03*
X002965Y004346D03*
X003185Y004596D03*
X003185Y004606D03*
X003185Y004616D03*
X003195Y004636D03*
X003195Y004646D03*
X003195Y004656D03*
X003195Y004666D03*
X003195Y004676D03*
X003195Y004686D03*
X003195Y004706D03*
X003205Y004726D03*
X003205Y004736D03*
X003205Y004746D03*
X003115Y004796D03*
X003195Y005206D03*
X003415Y005306D03*
X003415Y005316D03*
X003415Y005326D03*
X003295Y005686D03*
X003305Y005696D03*
X003315Y005706D03*
X003325Y005716D03*
X003335Y005726D03*
X003345Y005736D03*
X003355Y005746D03*
X003375Y005756D03*
X003385Y005766D03*
X003315Y005766D03*
X003275Y005746D03*
X003245Y005726D03*
X003215Y005776D03*
X003195Y005766D03*
X003355Y005856D03*
X002785Y005676D03*
X002785Y005656D03*
X002785Y005646D03*
X002785Y005636D03*
X002715Y006406D03*
X004215Y006126D03*
X004505Y006166D03*
X004515Y005926D03*
X004515Y005806D03*
X004685Y005946D03*
X004695Y005936D03*
X004715Y005916D03*
X004735Y005886D03*
X004745Y005866D03*
X004765Y005816D03*
X004765Y005806D03*
X004785Y005666D03*
X004765Y005636D03*
X004795Y005606D03*
X004805Y005616D03*
X004815Y005626D03*
X004845Y005656D03*
X004845Y005666D03*
X004855Y005676D03*
X004855Y005686D03*
X004695Y005346D03*
X004695Y005336D03*
X004695Y005326D03*
X004695Y005316D03*
X004695Y005306D03*
X004625Y005336D03*
X004625Y005346D03*
X004625Y005226D03*
X004625Y005216D03*
X004625Y005206D03*
X004525Y005236D03*
X004515Y005256D03*
X004415Y005316D03*
X004355Y004916D03*
X004355Y004906D03*
X004355Y004896D03*
X004345Y004876D03*
X004315Y004846D03*
X004515Y004636D03*
X004505Y004626D03*
X004535Y004646D03*
X004545Y004656D03*
X004555Y004666D03*
X004565Y004676D03*
X004575Y004686D03*
X004635Y004676D03*
X004615Y004606D03*
X004045Y005036D03*
X003335Y004186D03*
D16*
X003275Y004196D03*
X003235Y004216D03*
X003455Y004276D03*
X003625Y004326D03*
X003755Y004356D03*
X003805Y004366D03*
X002795Y004346D03*
X002575Y004486D03*
X001985Y005636D03*
X002155Y006326D03*
X002255Y006356D03*
X002705Y006086D03*
D17*
X002950Y006126D03*
X003070Y005936D03*
X002850Y006366D03*
X002500Y006366D03*
X002500Y006266D03*
X002180Y006336D03*
X002120Y006316D03*
X002080Y006306D03*
X002030Y005626D03*
X002310Y005566D03*
X001860Y004606D03*
X003250Y004206D03*
X003420Y004266D03*
X003480Y004286D03*
X003720Y004346D03*
X003590Y005936D03*
X003280Y006426D03*
D18*
X002980Y006286D03*
X002950Y006276D03*
X002840Y006236D03*
X002760Y006206D03*
X002740Y006196D03*
X002690Y006256D03*
X002760Y006116D03*
X002790Y006126D03*
X002830Y006136D03*
X002830Y006026D03*
X002960Y006066D03*
X003220Y005966D03*
X003250Y005926D03*
X003270Y005936D03*
X003300Y005946D03*
X003410Y005806D03*
X003440Y005826D03*
X003460Y005836D03*
X003600Y005896D03*
X003640Y005906D03*
X003680Y005916D03*
X003470Y006046D03*
X003190Y005746D03*
X003170Y005736D03*
X003160Y005726D03*
X003150Y005716D03*
X003130Y005326D03*
X003180Y005196D03*
X003190Y005076D03*
X002890Y005406D03*
X002570Y006046D03*
X002180Y006256D03*
X002000Y006036D03*
X001840Y005946D03*
X001830Y005936D03*
X001810Y006216D03*
X001850Y006226D03*
X002110Y005606D03*
X002210Y005586D03*
X001680Y004876D03*
X001680Y004776D03*
X001700Y004746D03*
X001750Y004696D03*
X001780Y004676D03*
X001830Y004636D03*
X002810Y004406D03*
X002940Y004366D03*
X003170Y004496D03*
X003170Y004506D03*
X003200Y004536D03*
X003310Y004226D03*
X003340Y004236D03*
X003650Y004366D03*
X003700Y004376D03*
X003850Y004416D03*
X004430Y004486D03*
X004620Y004716D03*
X004680Y005526D03*
X004720Y005566D03*
X004830Y005706D03*
X004850Y005826D03*
X004850Y005836D03*
X004840Y005846D03*
X004840Y005856D03*
X004830Y005876D03*
X004800Y005916D03*
X004790Y005936D03*
X004760Y005996D03*
X004670Y005976D03*
X004580Y006036D03*
X003910Y005736D03*
D19*
X003915Y005726D03*
X003905Y005786D03*
X003705Y005786D03*
X003575Y005886D03*
X003545Y005876D03*
X003515Y005866D03*
X003495Y005856D03*
X003475Y005846D03*
X003425Y005816D03*
X003185Y005956D03*
X003175Y006116D03*
X003125Y006106D03*
X003075Y006096D03*
X002895Y006046D03*
X002745Y005956D03*
X002685Y006176D03*
X002705Y006186D03*
X002635Y006156D03*
X002615Y006146D03*
X002435Y006156D03*
X002315Y006216D03*
X002265Y006286D03*
X002375Y006336D03*
X001985Y006026D03*
X001875Y006166D03*
X001685Y006136D03*
X001535Y006016D03*
X001525Y006006D03*
X001495Y005916D03*
X001635Y005636D03*
X001635Y005626D03*
X001635Y005616D03*
X001645Y005576D03*
X001645Y005566D03*
X001655Y005526D03*
X001655Y005516D03*
X001685Y005256D03*
X001685Y005246D03*
X001685Y005156D03*
X001685Y004886D03*
X001685Y004766D03*
X001695Y004756D03*
X001705Y004736D03*
X001715Y004726D03*
X001725Y004716D03*
X001735Y004706D03*
X001785Y004666D03*
X001805Y004646D03*
X001845Y004626D03*
X002205Y004606D03*
X002925Y004376D03*
X003135Y004336D03*
X003115Y004246D03*
X003175Y004226D03*
X003295Y004356D03*
X003415Y004406D03*
X003175Y004486D03*
X003195Y004546D03*
X003195Y004556D03*
X003195Y005046D03*
X003195Y005056D03*
X003195Y005066D03*
X003195Y005176D03*
X003185Y005186D03*
X003125Y005336D03*
X003055Y005536D03*
X002905Y005306D03*
X002915Y005296D03*
X002865Y006246D03*
X002885Y006256D03*
X002915Y006266D03*
X004085Y006126D03*
X004435Y006156D03*
X004655Y006076D03*
X004765Y005986D03*
X004775Y005976D03*
X004805Y005906D03*
X004815Y005896D03*
X004815Y005886D03*
X004855Y005816D03*
X004855Y005806D03*
X004855Y005796D03*
X004855Y005786D03*
X004855Y005776D03*
X004855Y005766D03*
X004855Y005756D03*
X004775Y005686D03*
X004765Y005676D03*
X004715Y005556D03*
X004695Y005546D03*
X004685Y005536D03*
X004655Y005146D03*
X004635Y004786D03*
X004635Y004776D03*
X004635Y004766D03*
X004625Y004756D03*
X004625Y004746D03*
X004625Y004736D03*
X004585Y004586D03*
X004565Y004576D03*
X003885Y004426D03*
X003815Y004406D03*
X003775Y004396D03*
X003735Y004386D03*
D20*
X003370Y004246D03*
X003150Y004236D03*
X003020Y004286D03*
X002730Y004456D03*
X002070Y004526D03*
X001680Y005446D03*
X001680Y005456D03*
X001680Y005466D03*
X002160Y005596D03*
X002340Y005556D03*
X002370Y005546D03*
X002530Y005506D03*
X002070Y006106D03*
X001930Y006256D03*
X001900Y006246D03*
X001870Y006236D03*
X002450Y006256D03*
X002450Y006356D03*
X002950Y006166D03*
X003230Y006126D03*
X003330Y005956D03*
X003480Y005906D03*
X003120Y005696D03*
X003180Y005106D03*
X003910Y005746D03*
X003640Y006396D03*
X004590Y005996D03*
X004640Y005986D03*
X004740Y006006D03*
X004770Y005956D03*
X004390Y004476D03*
D21*
X004620Y004616D03*
X004630Y004666D03*
X004350Y004886D03*
X004630Y005166D03*
X004630Y005186D03*
X004630Y005196D03*
X004680Y005196D03*
X004680Y005186D03*
X004680Y005176D03*
X004680Y005166D03*
X004680Y005156D03*
X004690Y005236D03*
X004690Y005246D03*
X004690Y005256D03*
X004690Y005266D03*
X004690Y005276D03*
X004690Y005286D03*
X004690Y005296D03*
X004620Y005316D03*
X004620Y005326D03*
X004600Y005476D03*
X004620Y005496D03*
X004620Y005506D03*
X004720Y005476D03*
X004720Y005466D03*
X004720Y005456D03*
X004720Y005446D03*
X004790Y005596D03*
X004770Y005646D03*
X004780Y005656D03*
X004860Y005696D03*
X004540Y005906D03*
X004680Y005956D03*
X004710Y005926D03*
X004630Y006026D03*
X004360Y005836D03*
X004350Y005846D03*
X004360Y005786D03*
X004230Y005956D03*
X004250Y006006D03*
X004100Y005856D03*
X004090Y005836D03*
X003920Y005796D03*
X003940Y005976D03*
X003820Y005566D03*
X003920Y005406D03*
X003920Y005386D03*
X003940Y005346D03*
X003800Y005266D03*
X003790Y005246D03*
X003760Y005326D03*
X003770Y005346D03*
X003770Y005356D03*
X003470Y005546D03*
X003470Y005556D03*
X003470Y005566D03*
X003280Y005666D03*
X003270Y005656D03*
X003260Y005646D03*
X003230Y005716D03*
X003260Y005736D03*
X003290Y005756D03*
X003050Y005676D03*
X003040Y005666D03*
X003020Y005656D03*
X003010Y005646D03*
X002980Y005616D03*
X002970Y005606D03*
X002970Y005596D03*
X002970Y005586D03*
X002960Y005576D03*
X002890Y005486D03*
X002870Y005426D03*
X002830Y005386D03*
X002810Y005356D03*
X002820Y005346D03*
X002850Y005326D03*
X002870Y005316D03*
X002900Y005286D03*
X002960Y005286D03*
X002970Y005276D03*
X002990Y005266D03*
X003000Y005256D03*
X003020Y005246D03*
X003030Y005236D03*
X003040Y005226D03*
X003050Y005216D03*
X003060Y005206D03*
X003070Y005196D03*
X003080Y005186D03*
X003090Y005176D03*
X003100Y005166D03*
X003110Y005146D03*
X003120Y005136D03*
X003130Y005126D03*
X003130Y005116D03*
X003190Y005216D03*
X003190Y005226D03*
X003190Y005286D03*
X003180Y005296D03*
X003100Y005246D03*
X003080Y005266D03*
X003050Y005286D03*
X003030Y005306D03*
X003020Y005316D03*
X003010Y005326D03*
X003000Y005336D03*
X003090Y005386D03*
X003090Y005396D03*
X003080Y005406D03*
X003080Y005416D03*
X003070Y005476D03*
X003070Y005486D03*
X003070Y005516D03*
X002980Y005866D03*
X002990Y005876D03*
X003000Y005886D03*
X002960Y005906D03*
X003150Y005986D03*
X003280Y006026D03*
X003250Y006136D03*
X002970Y006366D03*
X002680Y006376D03*
X002240Y006236D03*
X002180Y006176D03*
X002140Y006236D03*
X002170Y006056D03*
X002150Y006046D03*
X002120Y006026D03*
X002100Y006016D03*
X002070Y005996D03*
X002050Y005986D03*
X002040Y005976D03*
X001980Y006076D03*
X002010Y006096D03*
X001910Y006036D03*
X001880Y006016D03*
X001870Y006006D03*
X001860Y005996D03*
X001840Y005926D03*
X001790Y006026D03*
X001760Y006006D03*
X001730Y005986D03*
X001720Y005976D03*
X001700Y005966D03*
X001680Y006016D03*
X001690Y006026D03*
X001700Y006036D03*
X001710Y006046D03*
X001720Y006056D03*
X001730Y006066D03*
X001750Y006076D03*
X001760Y006086D03*
X001810Y006126D03*
X001610Y006076D03*
X001600Y006066D03*
X001590Y006056D03*
X001550Y005996D03*
X001540Y005966D03*
X001540Y005956D03*
X001500Y005996D03*
X001490Y005876D03*
X001490Y005866D03*
X001490Y005856D03*
X001490Y005846D03*
X001490Y005836D03*
X001500Y005816D03*
X001500Y005806D03*
X001510Y005796D03*
X001520Y005776D03*
X001530Y005756D03*
X001540Y005746D03*
X001660Y005776D03*
X001670Y005756D03*
X001680Y005736D03*
X001660Y005686D03*
X001660Y005676D03*
X001670Y005656D03*
X001720Y005686D03*
X001840Y005736D03*
X001850Y005726D03*
X001960Y005716D03*
X001960Y005706D03*
X002200Y005706D03*
X002200Y005696D03*
X002200Y005716D03*
X002200Y005726D03*
X002200Y005736D03*
X002200Y005746D03*
X002200Y005756D03*
X002270Y005886D03*
X002280Y005896D03*
X002210Y005926D03*
X002230Y006006D03*
X002370Y006006D03*
X002470Y005916D03*
X002480Y005926D03*
X002520Y005716D03*
X002520Y005706D03*
X002520Y005696D03*
X002520Y005676D03*
X002520Y005666D03*
X002520Y005656D03*
X002520Y005646D03*
X002520Y005636D03*
X002520Y005626D03*
X002520Y005596D03*
X002520Y005566D03*
X002530Y005556D03*
X002600Y005586D03*
X002600Y005596D03*
X002610Y005606D03*
X002610Y005616D03*
X002610Y005626D03*
X002600Y005676D03*
X002600Y005686D03*
X002700Y005676D03*
X002700Y005666D03*
X002700Y005656D03*
X002700Y005646D03*
X002710Y005606D03*
X002710Y005576D03*
X002790Y005576D03*
X002790Y005586D03*
X002790Y005596D03*
X002790Y005606D03*
X002790Y005616D03*
X002790Y005626D03*
X002780Y005666D03*
X002800Y005566D03*
X002800Y005556D03*
X002800Y005546D03*
X002760Y005426D03*
X002780Y005416D03*
X002790Y005406D03*
X002760Y005386D03*
X002790Y005366D03*
X002780Y005326D03*
X002760Y005336D03*
X002750Y005346D03*
X002730Y005406D03*
X002710Y005416D03*
X002700Y005456D03*
X002670Y005436D03*
X002630Y005456D03*
X002530Y005406D03*
X002500Y005416D03*
X002420Y005446D03*
X002410Y005616D03*
X002410Y005676D03*
X002410Y005686D03*
X002420Y005716D03*
X001720Y005376D03*
X001720Y005366D03*
X001710Y005346D03*
X001660Y005346D03*
X001660Y005336D03*
X001660Y005326D03*
X001660Y005316D03*
X001660Y005306D03*
X001660Y005296D03*
X001660Y005286D03*
X001660Y005276D03*
X001660Y005266D03*
X001710Y005266D03*
X001710Y005276D03*
X001710Y005286D03*
X001660Y005356D03*
X001660Y005366D03*
X001710Y005186D03*
X001710Y005176D03*
X001710Y005126D03*
X001710Y005116D03*
X001670Y005106D03*
X001670Y005096D03*
X001670Y005076D03*
X001670Y005066D03*
X001670Y005056D03*
X001660Y005046D03*
X001660Y005036D03*
X001660Y005026D03*
X001660Y005006D03*
X001660Y004996D03*
X001660Y004986D03*
X001660Y004976D03*
X001660Y004966D03*
X001660Y004956D03*
X001660Y004946D03*
X001660Y004936D03*
X001710Y005026D03*
X001690Y004836D03*
X001690Y004826D03*
X001690Y004816D03*
X001800Y004756D03*
X001810Y004746D03*
X001820Y004736D03*
X001830Y004726D03*
X001870Y004696D03*
X002630Y004966D03*
X002630Y004976D03*
X002640Y004956D03*
X002650Y004946D03*
X002910Y005086D03*
X002920Y005076D03*
X002940Y005066D03*
X002960Y005096D03*
X002950Y005106D03*
X002990Y005076D03*
X002950Y005006D03*
X002960Y004996D03*
X002970Y004986D03*
X003020Y004996D03*
X003030Y004986D03*
X003040Y004976D03*
X003050Y004966D03*
X003080Y004986D03*
X003090Y004976D03*
X003100Y004966D03*
X003130Y004926D03*
X003200Y004896D03*
X003200Y004886D03*
X003200Y004876D03*
X003200Y004866D03*
X003200Y004846D03*
X003110Y004806D03*
X003120Y004786D03*
X003060Y004796D03*
X002980Y004786D03*
X002970Y004796D03*
X002970Y004806D03*
X002960Y004816D03*
X003200Y004716D03*
X003200Y004696D03*
X003260Y004666D03*
X003260Y004656D03*
X003250Y004636D03*
X003250Y004626D03*
X003250Y004616D03*
X003190Y004626D03*
X003110Y004576D03*
X003160Y004376D03*
X003160Y004366D03*
X003160Y004356D03*
X003160Y004276D03*
X003190Y004246D03*
X003050Y004336D03*
X003030Y004346D03*
X003020Y004316D03*
X003000Y004326D03*
X002980Y004336D03*
X003000Y004356D03*
X002910Y004396D03*
X002890Y004406D03*
X002870Y004416D03*
X002820Y004416D03*
X002820Y004436D03*
X003440Y005066D03*
X003440Y005076D03*
X003440Y005086D03*
X003440Y005096D03*
X003420Y005286D03*
X003420Y005296D03*
X003410Y005336D03*
X003660Y004886D03*
X003660Y004876D03*
X003650Y004856D03*
X003650Y004846D03*
X003550Y004636D03*
X003670Y004546D03*
X003660Y004416D03*
X003530Y004356D03*
X004040Y005006D03*
X004040Y005046D03*
X004420Y005296D03*
X004420Y005306D03*
X004410Y005326D03*
X004410Y005336D03*
X004410Y005346D03*
X004230Y005486D03*
X001650Y005916D03*
X001650Y005926D03*
X001630Y005976D03*
X001640Y005986D03*
D22*
X001950Y006266D03*
X002670Y006076D03*
X002890Y006116D03*
X002920Y005976D03*
X003040Y005926D03*
X003040Y006296D03*
X003350Y006416D03*
X003600Y006406D03*
X003880Y005956D03*
X004530Y005846D03*
X004820Y005736D03*
X003680Y004336D03*
X003560Y004306D03*
X003400Y004256D03*
X003130Y004256D03*
X002990Y004296D03*
X003180Y004526D03*
X002210Y004526D03*
D23*
X002230Y004596D03*
X001790Y004656D03*
X001690Y005086D03*
X001690Y005136D03*
X001690Y005146D03*
X001690Y005166D03*
X001690Y005196D03*
X001690Y005206D03*
X001690Y005216D03*
X001690Y005226D03*
X001690Y005236D03*
X001660Y005476D03*
X001660Y005486D03*
X001660Y005496D03*
X001660Y005506D03*
X001650Y005536D03*
X001650Y005546D03*
X001650Y005556D03*
X001640Y005586D03*
X001640Y005596D03*
X001640Y005606D03*
X001630Y005796D03*
X001630Y005806D03*
X001620Y005826D03*
X001860Y006156D03*
X001950Y006196D03*
X002110Y006226D03*
X002160Y006246D03*
X002220Y006266D03*
X002240Y006276D03*
X002290Y006296D03*
X002320Y006316D03*
X002340Y006326D03*
X002370Y006236D03*
X002350Y006226D03*
X002410Y006246D03*
X002420Y006146D03*
X002500Y006186D03*
X002520Y006196D03*
X002540Y006206D03*
X002560Y006216D03*
X002590Y006226D03*
X002620Y006236D03*
X002590Y006306D03*
X002660Y006166D03*
X002590Y006136D03*
X002620Y006056D03*
X002810Y006016D03*
X002860Y006036D03*
X002930Y006056D03*
X003000Y006076D03*
X003040Y006086D03*
X003140Y005886D03*
X003170Y005896D03*
X003200Y005906D03*
X003220Y005916D03*
X003200Y005756D03*
X003080Y005596D03*
X003070Y005576D03*
X003070Y005566D03*
X003060Y005556D03*
X003060Y005546D03*
X003050Y005526D03*
X002910Y005396D03*
X002860Y005416D03*
X003120Y005346D03*
X003200Y005166D03*
X003200Y005156D03*
X003200Y005146D03*
X003200Y005136D03*
X003200Y005126D03*
X003200Y005116D03*
X003200Y005036D03*
X002940Y005036D03*
X002870Y005096D03*
X002390Y005496D03*
X002110Y005566D03*
X002180Y006136D03*
X002200Y006146D03*
X002280Y006206D03*
X002810Y006356D03*
X003100Y006326D03*
X003440Y006036D03*
X003540Y006066D03*
X003610Y006076D03*
X003700Y005796D03*
X003880Y005766D03*
X004660Y005136D03*
X004660Y005126D03*
X004660Y005116D03*
X004660Y005106D03*
X004660Y005096D03*
X004660Y005086D03*
X004660Y005076D03*
X004650Y005006D03*
X004650Y004996D03*
X004640Y004796D03*
X004320Y004866D03*
X004450Y004496D03*
X003620Y004356D03*
X003550Y004446D03*
X003410Y004396D03*
X003380Y004386D03*
X003390Y004446D03*
X003350Y004456D03*
X003280Y004346D03*
X003150Y004326D03*
X003080Y004266D03*
X003170Y004476D03*
X004730Y005616D03*
X004740Y005626D03*
X004680Y006066D03*
D24*
X004625Y006086D03*
X004495Y006136D03*
X004785Y005946D03*
X004795Y005926D03*
X004835Y005866D03*
X004835Y005726D03*
X004725Y005576D03*
X004675Y005516D03*
X004625Y004726D03*
X004615Y004706D03*
X004615Y004696D03*
X004535Y004566D03*
X004355Y004466D03*
X003935Y004436D03*
X003125Y004346D03*
X003045Y004276D03*
X002895Y004386D03*
X003205Y004856D03*
X003185Y005086D03*
X003185Y005096D03*
X003135Y005316D03*
X003365Y005776D03*
X003375Y005786D03*
X003395Y005796D03*
X003435Y005886D03*
X003455Y005896D03*
X003715Y005926D03*
X003765Y005936D03*
X003905Y005776D03*
X003345Y006256D03*
X003035Y006186D03*
X002995Y006176D03*
X002875Y006146D03*
X002815Y006226D03*
X002785Y006216D03*
X002755Y006276D03*
X002715Y006266D03*
X002655Y006246D03*
X002555Y006126D03*
X002535Y006116D03*
X002645Y006066D03*
X002745Y005966D03*
X003015Y005916D03*
X002415Y006346D03*
X002255Y006156D03*
X001855Y005956D03*
X001755Y005676D03*
X001635Y005646D03*
X001685Y005436D03*
X001685Y005426D03*
X002245Y005576D03*
X001665Y004786D03*
X001765Y004686D03*
X002155Y004616D03*
X002285Y004506D03*
X002325Y004496D03*
D25*
X002145Y004506D03*
X001965Y004576D03*
X001935Y004586D03*
X002665Y004476D03*
X003515Y004296D03*
X003595Y004316D03*
X004295Y004456D03*
X004465Y004546D03*
X004815Y005716D03*
X004815Y005746D03*
X003395Y006406D03*
X003295Y006456D03*
X003105Y005946D03*
X003155Y005706D03*
X002475Y005526D03*
X001855Y005656D03*
X001805Y005666D03*
X001775Y006206D03*
X002015Y006286D03*
X002055Y006296D03*
X002305Y006166D03*
D26*
X002215Y006186D03*
X002215Y006226D03*
X002165Y006216D03*
X002105Y006196D03*
X002075Y006096D03*
X001965Y006016D03*
X001955Y006006D03*
X001855Y006066D03*
X001845Y006056D03*
X001805Y005916D03*
X001795Y005906D03*
X001615Y005956D03*
X001495Y005946D03*
X001495Y005936D03*
X001495Y005926D03*
X001625Y005816D03*
X001565Y005736D03*
X001575Y005726D03*
X001565Y006106D03*
X001585Y006126D03*
X001595Y006136D03*
X001665Y006126D03*
X001995Y006206D03*
X002185Y005986D03*
X002255Y005946D03*
X002305Y005916D03*
X002315Y005926D03*
X002445Y005996D03*
X002515Y006096D03*
X002475Y006176D03*
X002455Y006166D03*
X002545Y006296D03*
X002305Y006306D03*
X002575Y005976D03*
X002915Y006196D03*
X003095Y005866D03*
X003115Y005876D03*
X003275Y005816D03*
X003295Y005826D03*
X003115Y005666D03*
X003105Y005646D03*
X003095Y005636D03*
X003085Y005616D03*
X003075Y005586D03*
X003115Y005356D03*
X002925Y005386D03*
X002605Y005416D03*
X002525Y005496D03*
X002585Y005536D03*
X002445Y005436D03*
X002415Y005486D03*
X002345Y005506D03*
X002315Y005516D03*
X002255Y005536D03*
X002155Y005556D03*
X002955Y005026D03*
X003205Y005026D03*
X003205Y005016D03*
X003205Y005006D03*
X003205Y004996D03*
X003205Y004986D03*
X003215Y004956D03*
X003215Y004946D03*
X003215Y004936D03*
X003215Y004926D03*
X003215Y004916D03*
X003215Y004906D03*
X003215Y004836D03*
X003215Y004806D03*
X003215Y004796D03*
X003215Y004786D03*
X003175Y004586D03*
X003175Y004576D03*
X003175Y004566D03*
X003175Y004466D03*
X003175Y004456D03*
X003155Y004316D03*
X003165Y004306D03*
X003165Y004296D03*
X003335Y004366D03*
X003365Y004376D03*
X003455Y004416D03*
X003715Y004436D03*
X004315Y004856D03*
X004635Y004856D03*
X004635Y004846D03*
X004635Y004836D03*
X004635Y004826D03*
X004635Y004816D03*
X004635Y004806D03*
X004635Y004866D03*
X004645Y004926D03*
X004645Y004936D03*
X004645Y004946D03*
X004645Y004956D03*
X004645Y004966D03*
X004645Y004976D03*
X004645Y004986D03*
X004655Y005016D03*
X004655Y005026D03*
X004655Y005036D03*
X004655Y005046D03*
X004655Y005056D03*
X004655Y005066D03*
X004595Y004596D03*
X004705Y005586D03*
X004715Y005596D03*
X004725Y005606D03*
X004565Y005856D03*
X004355Y005816D03*
X004355Y005806D03*
X004335Y006156D03*
X004465Y006146D03*
X004695Y006056D03*
X004735Y006026D03*
X003705Y005776D03*
X003695Y005806D03*
X003515Y006056D03*
X002605Y004456D03*
X002395Y004536D03*
X002325Y004566D03*
X002295Y004576D03*
X002265Y004586D03*
X002125Y004626D03*
X002105Y004576D03*
X002085Y004586D03*
D27*
X002475Y004816D03*
X002595Y004636D03*
X002775Y004416D03*
X003035Y004476D03*
X003075Y004446D03*
X003085Y004426D03*
X003145Y004596D03*
X003145Y004606D03*
X003135Y004616D03*
X003145Y004686D03*
X003165Y004846D03*
X002865Y004936D03*
X002855Y004946D03*
X002825Y004976D03*
X002715Y005006D03*
X002625Y004986D03*
X002855Y005086D03*
X002905Y005316D03*
X003015Y005436D03*
X003015Y005446D03*
X003095Y005456D03*
X002975Y005566D03*
X002885Y005636D03*
X002735Y005296D03*
X002595Y005706D03*
X002525Y005726D03*
X002305Y005776D03*
X002205Y005776D03*
X002075Y005896D03*
X001955Y005886D03*
X001875Y005876D03*
X001765Y005876D03*
X001645Y005876D03*
X001645Y005886D03*
X001645Y005906D03*
X001635Y006036D03*
X001585Y005746D03*
X001695Y005696D03*
X002105Y006076D03*
X002495Y006246D03*
X002565Y006236D03*
X002595Y006286D03*
X002705Y006416D03*
X002775Y006316D03*
X002955Y006146D03*
X003215Y006146D03*
X003235Y006146D03*
X003225Y006176D03*
X003315Y006296D03*
X003475Y006416D03*
X003565Y006396D03*
X003835Y006216D03*
X003895Y006226D03*
X003985Y006166D03*
X004125Y006116D03*
X004155Y006116D03*
X004195Y006046D03*
X004395Y006236D03*
X004595Y006016D03*
X004715Y006076D03*
X004715Y006086D03*
X004495Y005906D03*
X004515Y005796D03*
X004195Y005676D03*
X003885Y005796D03*
X003845Y005836D03*
X003715Y005766D03*
X003845Y006056D03*
X003645Y006086D03*
X003015Y006416D03*
X003015Y006426D03*
X003185Y005266D03*
X003645Y004836D03*
X003805Y005276D03*
X004405Y005356D03*
X004505Y005266D03*
X004575Y005436D03*
X004315Y004836D03*
X003245Y004306D03*
D28*
X003440Y004426D03*
X003850Y004376D03*
X003900Y004386D03*
X004290Y004506D03*
X004420Y004536D03*
X004540Y006006D03*
X003810Y005976D03*
X003110Y006146D03*
X003020Y006136D03*
X002750Y006096D03*
X002550Y006276D03*
X001880Y004596D03*
X002770Y004356D03*
X002840Y004336D03*
X002960Y004306D03*
D29*
X002905Y004316D03*
X002865Y004326D03*
X002755Y004446D03*
X003185Y004516D03*
X003975Y004446D03*
X004505Y004556D03*
X004535Y005836D03*
X004725Y006016D03*
X003945Y005966D03*
X003805Y005946D03*
X003545Y005926D03*
X003505Y005916D03*
X003355Y005966D03*
X003075Y006196D03*
X002925Y006156D03*
X002755Y005976D03*
X002505Y006106D03*
X002115Y006126D03*
X002085Y006116D03*
X001985Y006276D03*
X001915Y005646D03*
X002065Y005616D03*
X002415Y005536D03*
X003105Y005686D03*
X003195Y006486D03*
X003555Y006416D03*
X003675Y006386D03*
X002175Y004496D03*
X001855Y004616D03*
D30*
X002735Y004366D03*
X003635Y005946D03*
X003755Y005966D03*
X003345Y006446D03*
X002845Y006406D03*
X002555Y006376D03*
X002295Y006366D03*
X002215Y006346D03*
X001685Y006156D03*
X001665Y006146D03*
X004595Y006096D03*
X004735Y005966D03*
D31*
X003815Y006076D03*
X003645Y006046D03*
X003685Y005956D03*
X003225Y006156D03*
X003095Y006216D03*
X001775Y006196D03*
X001705Y006166D03*
X002695Y004376D03*
X003965Y004396D03*
X004385Y004526D03*
D32*
X004120Y004426D03*
X002680Y004386D03*
X002660Y004466D03*
X002360Y004466D03*
X002080Y004546D03*
X002060Y004556D03*
X003160Y006046D03*
X003910Y005986D03*
X002370Y006386D03*
D33*
X002700Y004396D03*
D34*
X002400Y004456D03*
X003450Y004436D03*
X004020Y004406D03*
X004240Y004496D03*
X003740Y006066D03*
X002790Y006106D03*
D35*
X002740Y006286D03*
X003040Y006206D03*
X003070Y006026D03*
X003020Y006016D03*
X003210Y006056D03*
X003980Y005996D03*
X004200Y004486D03*
X002620Y004406D03*
X002290Y004486D03*
X002120Y004536D03*
D36*
X002440Y004446D03*
X002470Y004436D03*
X002530Y005516D03*
X002330Y006376D03*
X002820Y006486D03*
X003310Y006246D03*
X003480Y006426D03*
X003600Y006036D03*
X004340Y004516D03*
X004070Y004416D03*
D37*
X002580Y004416D03*
X002550Y004426D03*
X002170Y004516D03*
X002970Y006006D03*
D38*
X003020Y005906D03*
X003030Y005836D03*
X003010Y005826D03*
X003120Y005676D03*
X003110Y005656D03*
X003090Y005626D03*
X003080Y005606D03*
X003230Y005786D03*
X003240Y005796D03*
X003260Y005806D03*
X003310Y005836D03*
X003330Y005846D03*
X003370Y005866D03*
X003390Y005876D03*
X003240Y006016D03*
X003210Y006006D03*
X003310Y006136D03*
X003380Y006136D03*
X002790Y006006D03*
X002550Y006036D03*
X002530Y006026D03*
X002500Y006016D03*
X002470Y006056D03*
X002500Y006066D03*
X002520Y006086D03*
X002410Y006086D03*
X002380Y006076D03*
X002350Y006066D03*
X002330Y006056D03*
X002310Y006046D03*
X002290Y006036D03*
X002270Y006026D03*
X002260Y006016D03*
X002270Y005956D03*
X002330Y005936D03*
X002350Y005946D03*
X002370Y005956D03*
X002390Y005966D03*
X002410Y005976D03*
X002430Y005986D03*
X002510Y005946D03*
X002530Y005956D03*
X002550Y005966D03*
X002520Y006286D03*
X002600Y006316D03*
X002230Y006086D03*
X002170Y005976D03*
X002060Y006086D03*
X002040Y006076D03*
X002010Y006156D03*
X001990Y006146D03*
X001950Y006126D03*
X001920Y006106D03*
X001870Y006076D03*
X001800Y006036D03*
X001890Y005966D03*
X001910Y005976D03*
X001940Y005996D03*
X001780Y005896D03*
X001770Y005886D03*
X001600Y005846D03*
X001600Y005836D03*
X001590Y005856D03*
X001590Y005866D03*
X001580Y005876D03*
X001570Y005886D03*
X001570Y005896D03*
X001480Y005906D03*
X001480Y005966D03*
X001480Y005976D03*
X001490Y005986D03*
X001540Y006066D03*
X001550Y006076D03*
X001550Y006086D03*
X001560Y006096D03*
X001580Y006116D03*
X001650Y006106D03*
X001660Y006116D03*
X001580Y005716D03*
X001590Y005706D03*
X001590Y005696D03*
X001600Y005686D03*
X001600Y005676D03*
X001610Y005656D03*
X002030Y006166D03*
X002090Y006216D03*
X002130Y006206D03*
X002280Y005526D03*
X002450Y005476D03*
X002480Y005466D03*
X002510Y005456D03*
X002560Y005436D03*
X002580Y005426D03*
X002630Y005406D03*
X002650Y005396D03*
X002700Y005376D03*
X002940Y005376D03*
X002960Y005366D03*
X003160Y005306D03*
X002860Y005106D03*
X003140Y004936D03*
X003210Y004966D03*
X003210Y004976D03*
X003210Y004776D03*
X003210Y004766D03*
X003210Y004756D03*
X003120Y004696D03*
X003170Y004446D03*
X003170Y004436D03*
X003170Y004426D03*
X003320Y004466D03*
X003820Y004626D03*
X004040Y005016D03*
X004040Y005026D03*
X003950Y005336D03*
X003920Y005396D03*
X003820Y005546D03*
X003820Y005556D03*
X003910Y005716D03*
X004010Y005976D03*
X004210Y006116D03*
X004360Y005826D03*
X004360Y005796D03*
X004510Y005816D03*
X004510Y005826D03*
X004520Y005916D03*
X004720Y005906D03*
X004730Y005896D03*
X004740Y005876D03*
X004750Y005856D03*
X004750Y005846D03*
X004760Y005836D03*
X004760Y005826D03*
X004770Y005796D03*
X004770Y005786D03*
X004770Y005776D03*
X004770Y005766D03*
X004770Y005756D03*
X004800Y005696D03*
X004840Y005646D03*
X004830Y005636D03*
X004700Y005406D03*
X004700Y005396D03*
X004700Y005386D03*
X004700Y005376D03*
X004700Y005366D03*
X004700Y005356D03*
X004520Y005246D03*
X004640Y004916D03*
X004640Y004906D03*
X004640Y004896D03*
X004640Y004886D03*
X004640Y004876D03*
X004640Y004686D03*
X004730Y006036D03*
X004710Y006046D03*
X004580Y006176D03*
X002640Y004436D03*
X002590Y004496D03*
X002550Y004476D03*
X002490Y004496D03*
X002470Y004506D03*
X002450Y004516D03*
X002420Y004526D03*
X002380Y004546D03*
X002060Y004596D03*
X002040Y004606D03*
X002020Y004616D03*
X002000Y004626D03*
X001970Y004636D03*
X001940Y004656D03*
X001700Y004846D03*
X001700Y004856D03*
X001700Y004866D03*
D39*
X002045Y004566D03*
X002325Y004476D03*
X003115Y006036D03*
X003335Y005976D03*
X003375Y005986D03*
X003415Y005996D03*
X003155Y006406D03*
X004115Y004466D03*
X004155Y004476D03*
X004175Y004436D03*
X004205Y004446D03*
D40*
X004075Y004456D03*
X004085Y006006D03*
X003825Y006166D03*
X003445Y006006D03*
X003315Y006166D03*
X002395Y006396D03*
D41*
X002440Y006406D03*
X002880Y005986D03*
X002920Y005996D03*
D42*
X003570Y006106D03*
X004260Y006016D03*
D43*
X004175Y006246D03*
X003855Y006336D03*
X003515Y006026D03*
X003475Y006016D03*
D44*
X004290Y006026D03*
D45*
X004240Y006036D03*
X001800Y006186D03*
D46*
X002765Y006296D03*
X003705Y006056D03*
X003905Y006086D03*
D47*
X003265Y006066D03*
D48*
X003320Y006076D03*
X004060Y006096D03*
X002530Y006416D03*
X001780Y006176D03*
D49*
X003385Y006086D03*
X003425Y006096D03*
X003435Y006176D03*
X004115Y006256D03*
X004425Y006126D03*
D50*
X004355Y006106D03*
D51*
X004460Y006116D03*
X003630Y006246D03*
D52*
X003660Y006116D03*
D53*
X003715Y006126D03*
X002965Y006476D03*
X002855Y006456D03*
D54*
X003945Y006136D03*
D55*
X003945Y006146D03*
D56*
X003935Y006156D03*
D57*
X004230Y006166D03*
D58*
X004150Y006176D03*
D59*
X003985Y006186D03*
D60*
X004040Y006196D03*
D61*
X004120Y006206D03*
D62*
X004210Y006216D03*
D63*
X004225Y006226D03*
X003095Y006316D03*
D64*
X003275Y006226D03*
X003325Y006436D03*
D65*
X003760Y006236D03*
D66*
X004030Y006266D03*
D67*
X003925Y006276D03*
X003785Y006316D03*
D68*
X003875Y006286D03*
D69*
X003780Y006296D03*
D70*
X003650Y006306D03*
D71*
X002955Y006306D03*
D72*
X003740Y006326D03*
D73*
X003525Y006336D03*
D74*
X003605Y006346D03*
D75*
X003730Y006356D03*
X002640Y006426D03*
D76*
X003275Y006356D03*
D77*
X003455Y006366D03*
D78*
X003290Y006376D03*
D79*
X003045Y006386D03*
D80*
X003050Y006396D03*
D81*
X002715Y006436D03*
D82*
X002860Y006446D03*
D83*
X002965Y006466D03*
D84*
X002045Y011141D02*
X002045Y011656D01*
X002075Y011658D01*
X002105Y011663D01*
X002134Y011672D01*
X002161Y011685D01*
X002187Y011700D01*
X002211Y011719D01*
X002232Y011740D01*
X002251Y011764D01*
X002266Y011790D01*
X002279Y011817D01*
X002288Y011846D01*
X002293Y011876D01*
X002295Y011906D01*
X002293Y011936D01*
X002288Y011966D01*
X002279Y011995D01*
X002266Y012022D01*
X002251Y012048D01*
X002232Y012072D01*
X002211Y012093D01*
X002187Y012112D01*
X002161Y012127D01*
X002134Y012140D01*
X002105Y012149D01*
X002075Y012154D01*
X002045Y012156D01*
X002045Y012671D01*
X004745Y012671D01*
X004745Y011141D01*
X002045Y011141D01*
M02*
