%
M48
M72
T01C0.0236
T02C0.0315
T03C0.0394
T04C0.0400
T05C0.0433
%
T01
X1595Y19856
X3545Y17356
T02
X15895Y13895
X15895Y14683
X15895Y15470
X15895Y16257
X15895Y9325
X15895Y10113
X15895Y10900
X15895Y11687
X15895Y4825
X15895Y5613
X15895Y6400
X15895Y7187
X19445Y16257
X19445Y15470
X19445Y14683
X19445Y13895
X19445Y11687
X19445Y10900
X19445Y10113
X19445Y9325
X19445Y7187
X19445Y6400
X19445Y5613
X19445Y4825
T03
X13395Y3556
X2395Y3556
X15395Y17556
X18195Y13556
X14395Y16556
X18195Y8956
X18195Y4556
X14395Y11956
X14395Y7556
X6395Y17556
X7395Y17556
X10395Y17556
X13395Y17556
X18395Y3556
X16395Y17556
X17395Y17556
X8395Y17556
X12395Y3556
X19395Y3556
X10395Y3556
X9395Y3556
X8395Y3556
X7395Y3556
X9395Y17556
X11395Y17556
X12395Y17556
X6395Y3556
X11395Y3556
X3395Y3556
X1395Y3556
X14395Y17556
X18195Y14556
X14395Y15556
X18195Y9956
X18195Y5556
X14395Y10956
X14395Y6556
X14395Y3556
X15395Y3556
X16395Y3556
X17395Y3556
X18395Y17556
X19395Y17556
X1395Y15506
X1395Y16506
X2395Y15506
X2395Y16506
X3395Y15506
X3395Y16506
X4395Y15506
X4395Y16506
X5395Y15506
X5395Y16506
X1395Y8556
X1395Y7556
X2395Y8556
X2395Y7556
X3395Y8556
X3395Y7556
X4395Y8556
X4395Y7556
X5395Y8556
X5395Y7556
X18195Y16556
X14395Y13556
X13395Y4556
X13395Y5556
X13395Y6556
X13395Y7556
X13395Y8556
X13395Y9556
X13395Y10556
X13395Y11556
X13395Y12556
X13395Y13556
X13395Y14556
X13395Y15556
X13395Y16556
X12395Y4556
X12395Y5556
X12395Y6556
X12395Y7556
X12395Y8556
X12395Y9556
X12395Y10556
X12395Y11556
X12395Y12556
X12395Y13556
X12395Y14556
X12395Y15556
X12395Y16556
X11395Y4556
X11395Y5556
X11395Y6556
X11395Y7556
X11395Y8556
X11395Y9556
X11395Y10556
X11395Y11556
X11395Y12556
X11395Y13556
X11395Y14556
X11395Y15556
X11395Y16556
X10395Y4556
X10395Y5556
X10395Y6556
X10395Y7556
X10395Y8556
X10395Y9556
X10395Y10556
X10395Y11556
X10395Y12556
X10395Y13556
X10395Y14556
X10395Y15556
X10395Y16556
X9395Y4556
X9395Y5556
X9395Y6556
X9395Y7556
X9395Y8556
X9395Y9556
X9395Y10556
X9395Y11556
X9395Y12556
X9395Y13556
X9395Y14556
X9395Y15556
X9395Y16556
X8395Y4556
X8395Y5556
X8395Y6556
X8395Y7556
X8395Y8556
X8395Y9556
X8395Y10556
X8395Y11556
X8395Y12556
X8395Y13556
X8395Y14556
X8395Y15556
X8395Y16556
X7395Y4556
X7395Y5556
X7395Y6556
X7395Y7556
X7395Y8556
X7395Y9556
X7395Y10556
X7395Y11556
X7395Y12556
X7395Y13556
X7395Y14556
X7395Y15556
X7395Y16556
X6395Y4556
X6395Y5556
X6395Y6556
X6395Y7556
X6395Y8556
X6395Y9556
X6395Y10556
X6395Y11556
X6395Y12556
X6395Y13556
X6395Y14556
X6395Y15556
X6395Y16556
X18195Y11956
X18195Y7556
X14395Y8956
X14395Y4556
X14395Y5556
X14395Y9956
X14395Y14556
X18195Y6556
X18195Y10956
X18195Y15556
T04
X6395Y2556
X7395Y2556
X8395Y2556
X9395Y2556
X10395Y2556
X11395Y2556
X12395Y2556
X13395Y2556
X14395Y2556
X15395Y2556
X16395Y2556
X17395Y2556
X18395Y2556
X19395Y2556
X19395Y19556
X18395Y19556
X17395Y19556
X16395Y19556
X15395Y19556
X14395Y19556
X13395Y19556
X12395Y19556
X11395Y19556
X10395Y19556
X9395Y19556
X8395Y19556
X7395Y19556
X6395Y19556
X19395Y18556
X18395Y18556
X17395Y18556
X16395Y18556
X15395Y18556
X14395Y18556
X13395Y18556
X12395Y18556
X11395Y18556
X10395Y18556
X9395Y18556
X8395Y18556
X7395Y18556
X6395Y18556
X6395Y1556
X7395Y1556
X8395Y1556
X9395Y1556
X10395Y1556
X11395Y1556
X12395Y1556
X13395Y1556
X14395Y1556
X15395Y1556
X16395Y1556
X17395Y1556
X18395Y1556
X19395Y1556
X1395Y1556
X2395Y1556
X3395Y1556
X1395Y2556
X2395Y2556
X3395Y2556
T05
X5295Y19456
X5295Y17656
X5295Y18556
X1195Y18556
X4445Y1606
X4895Y3806
X5345Y1606
X1545Y6356
X5045Y6356
X1545Y4856
X5045Y4856
M30
