G75*
G70*
%OFA0B0*%
%FSLAX24Y24*%
%IPPOS*%
%LPD*%
%AMOC8*
5,1,8,0,0,1.08239X$1,22.5*
%
%ADD10C,0.0000*%
%ADD11C,0.0740*%
%ADD12R,0.0157X0.1500*%
%ADD13R,0.0515X0.0515*%
%ADD14C,0.0515*%
%ADD15C,0.0100*%
%ADD16C,0.0760*%
%ADD17C,0.0356*%
%ADD18C,0.0700*%
%ADD19C,0.0160*%
%ADD20R,0.0700X0.0700*%
D10*
X000645Y000806D02*
X000645Y020301D01*
X020130Y020291D01*
X020130Y000806D01*
X000645Y000806D01*
D11*
X001395Y001556D03*
X002395Y001556D03*
X003395Y001556D03*
X003395Y002556D03*
X002395Y002556D03*
X001395Y002556D03*
X006395Y002556D03*
X006395Y001556D03*
X007395Y001556D03*
X008395Y001556D03*
X009395Y001556D03*
X010395Y001556D03*
X011395Y001556D03*
X012395Y001556D03*
X013395Y001556D03*
X014395Y001556D03*
X015395Y001556D03*
X016395Y001556D03*
X017395Y001556D03*
X018395Y001556D03*
X019395Y001556D03*
X019395Y002556D03*
X018395Y002556D03*
X017395Y002556D03*
X016395Y002556D03*
X015395Y002556D03*
X014395Y002556D03*
X013395Y002556D03*
X012395Y002556D03*
X011395Y002556D03*
X010395Y002556D03*
X009395Y002556D03*
X008395Y002556D03*
X007395Y002556D03*
X007395Y018556D03*
X008395Y018556D03*
X009395Y018556D03*
X010395Y018556D03*
X011395Y018556D03*
X012395Y018556D03*
X013395Y018556D03*
X014395Y018556D03*
X015395Y018556D03*
X016395Y018556D03*
X017395Y018556D03*
X018395Y018556D03*
X019395Y018556D03*
X019395Y019556D03*
X018395Y019556D03*
X017395Y019556D03*
X016395Y019556D03*
X015395Y019556D03*
X014395Y019556D03*
X013395Y019556D03*
X012395Y019556D03*
X011395Y019556D03*
X010395Y019556D03*
X009395Y019556D03*
X008395Y019556D03*
X007395Y019556D03*
X006395Y019556D03*
X006395Y018556D03*
D12*
X004547Y013583D03*
X004291Y013583D03*
X004035Y013583D03*
X003779Y013583D03*
X003523Y013583D03*
X003267Y013583D03*
X003011Y013583D03*
X002755Y013583D03*
X002499Y013583D03*
X002243Y013583D03*
X002243Y010229D03*
X002499Y010229D03*
X002755Y010229D03*
X003011Y010229D03*
X003267Y010229D03*
X003523Y010229D03*
X003779Y010229D03*
X004035Y010229D03*
X004291Y010229D03*
X004547Y010229D03*
D13*
X015895Y009325D03*
X019445Y007187D03*
X015895Y004825D03*
X019445Y011687D03*
X015895Y013895D03*
X019445Y016257D03*
D14*
X019445Y015470D03*
X019445Y014683D03*
X019445Y013895D03*
X019445Y010900D03*
X019445Y010113D03*
X019445Y009325D03*
X019445Y006400D03*
X019445Y005613D03*
X019445Y004825D03*
X015895Y005613D03*
X015895Y006400D03*
X015895Y007187D03*
X015895Y010113D03*
X015895Y010900D03*
X015895Y011687D03*
X015895Y014683D03*
X015895Y015470D03*
X015895Y016257D03*
D15*
X015866Y016278D02*
X015395Y016278D01*
X015395Y016257D02*
X015357Y016165D01*
X015287Y016094D01*
X014998Y015806D01*
X015627Y015806D01*
X015653Y015832D01*
X015755Y015875D01*
X015739Y015880D01*
X015681Y015909D01*
X015630Y015947D01*
X015584Y015992D01*
X015547Y016044D01*
X015517Y016101D01*
X015498Y016162D01*
X015488Y016225D01*
X015488Y016229D01*
X015866Y016229D01*
X015866Y016286D01*
X015488Y016286D01*
X015488Y016289D01*
X015498Y016353D01*
X015517Y016414D01*
X015547Y016471D01*
X015584Y016523D01*
X015630Y016568D01*
X015681Y016606D01*
X015739Y016635D01*
X015800Y016655D01*
X015863Y016665D01*
X015866Y016665D01*
X015866Y016286D01*
X015924Y016286D01*
X016302Y016286D01*
X016302Y016289D01*
X016292Y016353D01*
X016273Y016414D01*
X016244Y016471D01*
X016206Y016523D01*
X016160Y016568D01*
X016109Y016606D01*
X016051Y016635D01*
X015990Y016655D01*
X015927Y016665D01*
X015924Y016665D01*
X015924Y016286D01*
X015924Y016229D01*
X016302Y016229D01*
X016302Y016225D01*
X016292Y016162D01*
X016273Y016101D01*
X016244Y016044D01*
X016206Y015992D01*
X016160Y015947D01*
X016109Y015909D01*
X016051Y015880D01*
X016035Y015875D01*
X016137Y015832D01*
X016250Y015720D01*
X017331Y015720D01*
X017423Y015682D01*
X017493Y015612D01*
X017691Y015413D01*
X017675Y015453D01*
X017675Y015660D01*
X017754Y015851D01*
X017900Y015997D01*
X018043Y016056D01*
X017900Y016115D01*
X017754Y016262D01*
X017675Y016453D01*
X017675Y016660D01*
X017754Y016851D01*
X017900Y016997D01*
X018092Y017076D01*
X018117Y017076D01*
X018083Y017090D01*
X017929Y017245D01*
X017895Y017326D01*
X017861Y017245D01*
X017707Y017090D01*
X017504Y017006D01*
X017286Y017006D01*
X017083Y017090D01*
X016929Y017245D01*
X016895Y017326D01*
X016861Y017245D01*
X016707Y017090D01*
X016504Y017006D01*
X016286Y017006D01*
X016083Y017090D01*
X015929Y017245D01*
X015845Y017447D01*
X015845Y017666D01*
X015929Y017868D01*
X016083Y018023D01*
X016178Y018062D01*
X016089Y018099D01*
X015937Y018250D01*
X015884Y018379D01*
X015877Y018357D01*
X015840Y018284D01*
X015792Y018218D01*
X015734Y018160D01*
X015668Y018112D01*
X015595Y018074D01*
X015517Y018049D01*
X015445Y018038D01*
X015445Y018506D01*
X015345Y018506D01*
X015345Y018038D01*
X015273Y018049D01*
X015195Y018074D01*
X015122Y018112D01*
X015056Y018160D01*
X014998Y018218D01*
X014950Y018284D01*
X014913Y018357D01*
X014906Y018379D01*
X014853Y018250D01*
X014701Y018099D01*
X014612Y018062D01*
X014707Y018023D01*
X014861Y017868D01*
X014945Y017666D01*
X014945Y017447D01*
X014919Y017385D01*
X015357Y016948D01*
X015395Y016856D01*
X015395Y016757D01*
X015395Y016257D01*
X015363Y016179D02*
X015495Y016179D01*
X015528Y016081D02*
X015273Y016081D01*
X015174Y015982D02*
X015594Y015982D01*
X015731Y015883D02*
X015076Y015883D01*
X014763Y016278D02*
X013915Y016278D01*
X013915Y016376D02*
X014861Y016376D01*
X014895Y016410D02*
X014543Y016058D01*
X014498Y016076D01*
X014292Y016076D01*
X014100Y015997D01*
X013954Y015851D01*
X013915Y015756D01*
X013915Y015977D01*
X013835Y016056D01*
X013915Y016136D01*
X013915Y016977D01*
X013815Y017076D01*
X013673Y017076D01*
X013707Y017090D01*
X013861Y017245D01*
X013895Y017326D01*
X013929Y017245D01*
X014083Y017090D01*
X014286Y017006D01*
X014504Y017006D01*
X014566Y017032D01*
X014895Y016703D01*
X014895Y016410D01*
X014895Y016475D02*
X013915Y016475D01*
X013915Y016573D02*
X014895Y016573D01*
X014895Y016672D02*
X013915Y016672D01*
X013915Y016770D02*
X014827Y016770D01*
X014729Y016869D02*
X013915Y016869D01*
X013915Y016967D02*
X014630Y016967D01*
X014142Y017066D02*
X013826Y017066D01*
X013781Y017164D02*
X014009Y017164D01*
X013921Y017263D02*
X013869Y017263D01*
X014637Y018051D02*
X015266Y018051D01*
X015345Y018051D02*
X015445Y018051D01*
X015524Y018051D02*
X016153Y018051D01*
X016038Y018150D02*
X015720Y018150D01*
X015814Y018248D02*
X015939Y018248D01*
X015897Y018347D02*
X015872Y018347D01*
X016014Y017953D02*
X014776Y017953D01*
X014867Y017854D02*
X015923Y017854D01*
X015882Y017756D02*
X014908Y017756D01*
X014945Y017657D02*
X015845Y017657D01*
X015845Y017559D02*
X014945Y017559D01*
X014945Y017460D02*
X015845Y017460D01*
X015880Y017362D02*
X014943Y017362D01*
X015042Y017263D02*
X015921Y017263D01*
X016009Y017164D02*
X015140Y017164D01*
X015239Y017066D02*
X016142Y017066D01*
X016154Y016573D02*
X017675Y016573D01*
X017675Y016475D02*
X016241Y016475D01*
X016285Y016376D02*
X017707Y016376D01*
X017748Y016278D02*
X015924Y016278D01*
X015924Y016376D02*
X015866Y016376D01*
X015866Y016475D02*
X015924Y016475D01*
X015924Y016573D02*
X015866Y016573D01*
X015637Y016573D02*
X015395Y016573D01*
X015395Y016475D02*
X015549Y016475D01*
X015505Y016376D02*
X015395Y016376D01*
X015395Y016672D02*
X017680Y016672D01*
X017721Y016770D02*
X015395Y016770D01*
X015390Y016869D02*
X017772Y016869D01*
X017871Y016967D02*
X015337Y016967D01*
X014664Y016179D02*
X013915Y016179D01*
X013860Y016081D02*
X014566Y016081D01*
X014085Y015982D02*
X013910Y015982D01*
X013915Y015883D02*
X013987Y015883D01*
X013927Y015785D02*
X013915Y015785D01*
X016059Y015883D02*
X017787Y015883D01*
X017727Y015785D02*
X016185Y015785D01*
X016196Y015982D02*
X017885Y015982D01*
X017985Y016081D02*
X016262Y016081D01*
X016295Y016179D02*
X017837Y016179D01*
X017686Y015686D02*
X017412Y015686D01*
X017517Y015588D02*
X017675Y015588D01*
X017675Y015489D02*
X017616Y015489D01*
X017303Y015095D02*
X016107Y015095D01*
X016137Y015108D02*
X016250Y015220D01*
X017178Y015220D01*
X017694Y014704D01*
X017675Y014660D01*
X017675Y014453D01*
X017694Y014408D01*
X017103Y013818D01*
X017033Y013748D01*
X016995Y013656D01*
X016995Y011710D01*
X016453Y011168D01*
X016435Y011150D01*
X016250Y011150D01*
X016137Y011262D01*
X016035Y011305D01*
X016051Y011310D01*
X016109Y011339D01*
X016160Y011377D01*
X016206Y011422D01*
X016244Y011474D01*
X016273Y011531D01*
X016292Y011592D01*
X016302Y011655D01*
X016302Y011659D01*
X015924Y011659D01*
X015924Y011716D01*
X016302Y011716D01*
X016302Y011719D01*
X016292Y011783D01*
X016273Y011844D01*
X016244Y011901D01*
X016206Y011953D01*
X016160Y011998D01*
X016109Y012036D01*
X016051Y012065D01*
X015990Y012085D01*
X015927Y012095D01*
X015924Y012095D01*
X015924Y011716D01*
X015866Y011716D01*
X015866Y011659D01*
X015488Y011659D01*
X015488Y011655D01*
X015498Y011592D01*
X015517Y011531D01*
X015547Y011474D01*
X015584Y011422D01*
X015630Y011377D01*
X015681Y011339D01*
X015739Y011310D01*
X015755Y011305D01*
X015653Y011262D01*
X015597Y011206D01*
X014854Y011206D01*
X014836Y011251D01*
X014690Y011397D01*
X014498Y011476D01*
X014292Y011476D01*
X014100Y011397D01*
X013954Y011251D01*
X013915Y011156D01*
X013915Y011977D01*
X013835Y012056D01*
X013915Y012136D01*
X013915Y012977D01*
X013835Y013056D01*
X013915Y013136D01*
X013915Y013356D01*
X013954Y013262D01*
X014100Y013115D01*
X014292Y013036D01*
X014498Y013036D01*
X014690Y013115D01*
X014836Y013262D01*
X014854Y013306D01*
X015606Y013306D01*
X015698Y013344D01*
X015768Y013415D01*
X015821Y013468D01*
X016223Y013468D01*
X016322Y013567D01*
X016322Y014223D01*
X016223Y014323D01*
X016140Y014323D01*
X016257Y014440D01*
X016322Y014598D01*
X016322Y014768D01*
X016257Y014925D01*
X016137Y015045D01*
X016061Y015076D01*
X016137Y015108D01*
X016223Y015194D02*
X017204Y015194D01*
X017401Y014997D02*
X016186Y014997D01*
X016269Y014898D02*
X017500Y014898D01*
X017598Y014799D02*
X016309Y014799D01*
X016322Y014701D02*
X017692Y014701D01*
X017675Y014602D02*
X016322Y014602D01*
X016284Y014504D02*
X017675Y014504D01*
X017691Y014405D02*
X016222Y014405D01*
X016239Y014307D02*
X017592Y014307D01*
X017493Y014208D02*
X016322Y014208D01*
X016322Y014110D02*
X017395Y014110D01*
X017296Y014011D02*
X016322Y014011D01*
X016322Y013913D02*
X017198Y013913D01*
X017099Y013814D02*
X016322Y013814D01*
X016322Y013715D02*
X017020Y013715D01*
X016995Y013617D02*
X016322Y013617D01*
X016274Y013518D02*
X016995Y013518D01*
X016995Y013420D02*
X015773Y013420D01*
X015642Y013321D02*
X016995Y013321D01*
X016995Y013223D02*
X014797Y013223D01*
X014698Y013124D02*
X016995Y013124D01*
X016995Y013026D02*
X013866Y013026D01*
X013903Y013124D02*
X014092Y013124D01*
X013993Y013223D02*
X013915Y013223D01*
X013915Y013321D02*
X013930Y013321D01*
X013915Y012927D02*
X016995Y012927D01*
X016995Y012829D02*
X013915Y012829D01*
X013915Y012730D02*
X016995Y012730D01*
X016995Y012631D02*
X013915Y012631D01*
X013915Y012533D02*
X016995Y012533D01*
X016995Y012434D02*
X013915Y012434D01*
X013915Y012336D02*
X016995Y012336D01*
X016995Y012237D02*
X013915Y012237D01*
X013915Y012139D02*
X016995Y012139D01*
X016995Y012040D02*
X016100Y012040D01*
X016214Y011942D02*
X016995Y011942D01*
X016995Y011843D02*
X016273Y011843D01*
X016299Y011745D02*
X016995Y011745D01*
X016931Y011646D02*
X016301Y011646D01*
X016278Y011548D02*
X016833Y011548D01*
X016734Y011449D02*
X016225Y011449D01*
X016124Y011350D02*
X016636Y011350D01*
X016537Y011252D02*
X016148Y011252D01*
X016246Y011153D02*
X016439Y011153D01*
X016453Y011168D02*
X016453Y011168D01*
X016548Y010650D02*
X016250Y010650D01*
X016137Y010538D01*
X016061Y010506D01*
X016137Y010475D01*
X016257Y010355D01*
X016322Y010198D01*
X016322Y010028D01*
X016257Y009870D01*
X016140Y009753D01*
X016223Y009753D01*
X016322Y009653D01*
X016322Y008997D01*
X016223Y008898D01*
X015821Y008898D01*
X015738Y008815D01*
X015668Y008744D01*
X015576Y008706D01*
X014854Y008706D01*
X014836Y008662D01*
X014690Y008515D01*
X014498Y008436D01*
X014292Y008436D01*
X014100Y008515D01*
X013954Y008662D01*
X013915Y008756D01*
X013915Y008136D01*
X013835Y008056D01*
X013915Y007977D01*
X013915Y007136D01*
X013835Y007056D01*
X013915Y006977D01*
X013915Y006756D01*
X013954Y006851D01*
X014100Y006997D01*
X014292Y007076D01*
X014498Y007076D01*
X014690Y006997D01*
X014836Y006851D01*
X014915Y006660D01*
X014915Y006556D01*
X015497Y006556D01*
X015533Y006642D01*
X015653Y006762D01*
X015755Y006805D01*
X015739Y006810D01*
X015681Y006839D01*
X015630Y006877D01*
X015584Y006922D01*
X015547Y006974D01*
X015517Y007031D01*
X015498Y007092D01*
X015488Y007155D01*
X015488Y007159D01*
X015866Y007159D01*
X015866Y007216D01*
X015488Y007216D01*
X015488Y007219D01*
X015498Y007283D01*
X015517Y007344D01*
X015547Y007401D01*
X015584Y007453D01*
X015630Y007498D01*
X015681Y007536D01*
X015739Y007565D01*
X015800Y007585D01*
X015863Y007595D01*
X015866Y007595D01*
X015866Y007216D01*
X015924Y007216D01*
X016302Y007216D01*
X016302Y007219D01*
X016292Y007283D01*
X016273Y007344D01*
X016244Y007401D01*
X016206Y007453D01*
X016160Y007498D01*
X016109Y007536D01*
X016051Y007565D01*
X015990Y007585D01*
X015927Y007595D01*
X015924Y007595D01*
X015924Y007216D01*
X015924Y007159D01*
X016302Y007159D01*
X016302Y007155D01*
X016292Y007092D01*
X016273Y007031D01*
X016244Y006974D01*
X016206Y006922D01*
X016160Y006877D01*
X016109Y006839D01*
X016051Y006810D01*
X016035Y006805D01*
X016137Y006762D01*
X016250Y006650D01*
X016535Y006650D01*
X016995Y007110D01*
X016995Y009656D01*
X017033Y009748D01*
X017103Y009818D01*
X017242Y009956D01*
X016548Y010650D01*
X016636Y010562D02*
X016162Y010562D01*
X016149Y010464D02*
X016734Y010464D01*
X016833Y010365D02*
X016247Y010365D01*
X016294Y010266D02*
X016931Y010266D01*
X017030Y010168D02*
X016322Y010168D01*
X016322Y010069D02*
X017128Y010069D01*
X017227Y009971D02*
X016299Y009971D01*
X016258Y009872D02*
X017158Y009872D01*
X017059Y009774D02*
X016161Y009774D01*
X016300Y009675D02*
X017003Y009675D01*
X016995Y009577D02*
X016322Y009577D01*
X016322Y009478D02*
X016995Y009478D01*
X016995Y009380D02*
X016322Y009380D01*
X016322Y009281D02*
X016995Y009281D01*
X016995Y009182D02*
X016322Y009182D01*
X016322Y009084D02*
X016995Y009084D01*
X016995Y008985D02*
X016311Y008985D01*
X015810Y008887D02*
X016995Y008887D01*
X016995Y008788D02*
X015712Y008788D01*
X014847Y008690D02*
X016995Y008690D01*
X016995Y008591D02*
X014765Y008591D01*
X014635Y008493D02*
X016995Y008493D01*
X016995Y008394D02*
X013915Y008394D01*
X013915Y008296D02*
X016995Y008296D01*
X016995Y008197D02*
X013915Y008197D01*
X013878Y008099D02*
X016995Y008099D01*
X016995Y008000D02*
X013892Y008000D01*
X013915Y007901D02*
X016995Y007901D01*
X016995Y007803D02*
X013915Y007803D01*
X013915Y007704D02*
X016995Y007704D01*
X016995Y007606D02*
X013915Y007606D01*
X013915Y007507D02*
X015642Y007507D01*
X015552Y007409D02*
X013915Y007409D01*
X013915Y007310D02*
X015506Y007310D01*
X015494Y007113D02*
X013892Y007113D01*
X013877Y007015D02*
X014143Y007015D01*
X014019Y006916D02*
X013915Y006916D01*
X013915Y006817D02*
X013940Y006817D01*
X013915Y007212D02*
X015866Y007212D01*
X015924Y007212D02*
X016995Y007212D01*
X016995Y007310D02*
X016284Y007310D01*
X016238Y007409D02*
X016995Y007409D01*
X016995Y007507D02*
X016148Y007507D01*
X015924Y007507D02*
X015866Y007507D01*
X015866Y007409D02*
X015924Y007409D01*
X015924Y007310D02*
X015866Y007310D01*
X016264Y007015D02*
X016900Y007015D01*
X016995Y007113D02*
X016296Y007113D01*
X016200Y006916D02*
X016801Y006916D01*
X016703Y006817D02*
X016066Y006817D01*
X016181Y006719D02*
X016604Y006719D01*
X016992Y006400D02*
X017387Y006794D01*
X017457Y006865D01*
X017495Y006957D01*
X017495Y009503D01*
X017699Y009706D01*
X017736Y009706D01*
X017754Y009662D01*
X017900Y009515D01*
X018092Y009436D01*
X018298Y009436D01*
X018490Y009515D01*
X018636Y009662D01*
X018715Y009853D01*
X018715Y009863D01*
X019090Y009863D01*
X019203Y009750D01*
X019305Y009708D01*
X019289Y009703D01*
X019231Y009674D01*
X019180Y009636D01*
X019134Y009591D01*
X019097Y009539D01*
X019067Y009482D01*
X019048Y009421D01*
X019038Y009357D01*
X019038Y009354D01*
X019416Y009354D01*
X019416Y009296D01*
X019474Y009296D01*
X019474Y008918D01*
X019477Y008918D01*
X019540Y008928D01*
X019601Y008948D01*
X019659Y008977D01*
X019710Y009014D01*
X019756Y009060D01*
X019794Y009112D01*
X019823Y009169D01*
X019842Y009230D01*
X019852Y009293D01*
X019852Y009296D01*
X019474Y009296D01*
X019474Y009354D01*
X019852Y009354D01*
X019852Y009357D01*
X019842Y009421D01*
X019823Y009482D01*
X019794Y009539D01*
X019756Y009591D01*
X019710Y009636D01*
X019659Y009674D01*
X019601Y009703D01*
X019585Y009708D01*
X019687Y009750D01*
X019807Y009870D01*
X019872Y010028D01*
X019872Y010198D01*
X019807Y010355D01*
X019687Y010475D01*
X019612Y010506D01*
X019687Y010538D01*
X019807Y010658D01*
X019872Y010815D01*
X019872Y010985D01*
X019807Y011142D01*
X019690Y011260D01*
X019773Y011260D01*
X019872Y011359D01*
X019872Y012015D01*
X019773Y012115D01*
X019371Y012115D01*
X019318Y012168D01*
X019226Y012206D01*
X018654Y012206D01*
X018636Y012251D01*
X018490Y012397D01*
X018298Y012476D01*
X018092Y012476D01*
X017900Y012397D01*
X017754Y012251D01*
X017675Y012060D01*
X017675Y011853D01*
X017754Y011662D01*
X017900Y011515D01*
X018043Y011456D01*
X017900Y011397D01*
X017754Y011251D01*
X017675Y011060D01*
X017675Y010853D01*
X017754Y010662D01*
X017900Y010515D01*
X018043Y010456D01*
X017900Y010397D01*
X017754Y010251D01*
X017736Y010206D01*
X017699Y010206D01*
X016949Y010956D01*
X017675Y010956D01*
X017675Y010858D02*
X017047Y010858D01*
X016949Y010956D02*
X017457Y011465D01*
X017495Y011557D01*
X017495Y011656D01*
X017495Y013503D01*
X018047Y014055D01*
X018092Y014036D01*
X018298Y014036D01*
X018490Y014115D01*
X018636Y014262D01*
X018707Y014433D01*
X019090Y014433D01*
X019203Y014320D01*
X019305Y014278D01*
X019289Y014273D01*
X019231Y014244D01*
X019180Y014206D01*
X019134Y014161D01*
X019097Y014109D01*
X019067Y014052D01*
X019048Y013991D01*
X019038Y013927D01*
X019038Y013924D01*
X019416Y013924D01*
X019416Y013866D01*
X019474Y013866D01*
X019474Y013488D01*
X019477Y013488D01*
X019540Y013498D01*
X019601Y013518D01*
X019659Y013547D01*
X019710Y013584D01*
X019756Y013630D01*
X019794Y013682D01*
X019823Y013739D01*
X019842Y013800D01*
X019852Y013863D01*
X019852Y013866D01*
X019474Y013866D01*
X019474Y013924D01*
X019852Y013924D01*
X019852Y013927D01*
X019842Y013991D01*
X019823Y014052D01*
X019794Y014109D01*
X019756Y014161D01*
X019710Y014206D01*
X019659Y014244D01*
X019601Y014273D01*
X019585Y014278D01*
X019687Y014320D01*
X019807Y014440D01*
X019872Y014598D01*
X019872Y014768D01*
X019807Y014925D01*
X019687Y015045D01*
X019612Y015076D01*
X019687Y015108D01*
X019807Y015228D01*
X019872Y015385D01*
X019872Y015555D01*
X019807Y015712D01*
X019690Y015830D01*
X019773Y015830D01*
X019872Y015929D01*
X019872Y016585D01*
X019773Y016685D01*
X019117Y016685D01*
X019018Y016585D01*
X019018Y016507D01*
X018715Y016507D01*
X018715Y016660D01*
X018636Y016851D01*
X018490Y016997D01*
X018467Y017006D01*
X018504Y017006D01*
X018707Y017090D01*
X018861Y017245D01*
X018895Y017326D01*
X018929Y017245D01*
X019083Y017090D01*
X019286Y017006D01*
X019504Y017006D01*
X019707Y017090D01*
X019861Y017245D01*
X019945Y017447D01*
X019945Y017666D01*
X019861Y017868D01*
X019707Y018023D01*
X019612Y018062D01*
X019701Y018099D01*
X019853Y018250D01*
X019935Y018449D01*
X019935Y018664D01*
X019853Y018862D01*
X019701Y019014D01*
X019599Y019056D01*
X019701Y019099D01*
X019853Y019250D01*
X019935Y019449D01*
X019935Y019664D01*
X019853Y019862D01*
X019701Y020014D01*
X019502Y020096D01*
X019288Y020096D01*
X019089Y020014D01*
X018937Y019862D01*
X018895Y019760D01*
X018853Y019862D01*
X018701Y020014D01*
X018502Y020096D01*
X018288Y020096D01*
X018089Y020014D01*
X017937Y019862D01*
X017895Y019760D01*
X017853Y019862D01*
X017701Y020014D01*
X017502Y020096D01*
X017288Y020096D01*
X017089Y020014D01*
X016937Y019862D01*
X016895Y019760D01*
X016853Y019862D01*
X016701Y020014D01*
X016502Y020096D01*
X016288Y020096D01*
X016089Y020014D01*
X015937Y019862D01*
X015884Y019734D01*
X015877Y019756D01*
X015840Y019829D01*
X015792Y019895D01*
X015734Y019953D01*
X015668Y020001D01*
X015595Y020038D01*
X015517Y020063D01*
X015445Y020075D01*
X015445Y019606D01*
X015345Y019606D01*
X015345Y020075D01*
X015273Y020063D01*
X015195Y020038D01*
X015122Y020001D01*
X015056Y019953D01*
X014998Y019895D01*
X014950Y019829D01*
X014913Y019756D01*
X014906Y019734D01*
X014853Y019862D01*
X014701Y020014D01*
X014502Y020096D01*
X014288Y020096D01*
X014232Y020073D01*
X014180Y020124D01*
X019960Y020121D01*
X014184Y020121D01*
X014681Y020022D02*
X015164Y020022D01*
X015027Y019924D02*
X014791Y019924D01*
X014868Y019825D02*
X014948Y019825D01*
X015345Y019825D02*
X015445Y019825D01*
X015445Y019727D02*
X015345Y019727D01*
X015345Y019628D02*
X015445Y019628D01*
X015445Y019506D02*
X015445Y019038D01*
X015445Y018606D01*
X015345Y018606D01*
X015345Y019038D01*
X015345Y019506D01*
X015445Y019506D01*
X015445Y019431D02*
X015345Y019431D01*
X015345Y019332D02*
X015445Y019332D01*
X015445Y019234D02*
X015345Y019234D01*
X015345Y019135D02*
X015445Y019135D01*
X015445Y019037D02*
X015345Y019037D01*
X015345Y018938D02*
X015445Y018938D01*
X015445Y018840D02*
X015345Y018840D01*
X015345Y018741D02*
X015445Y018741D01*
X015445Y018643D02*
X015345Y018643D01*
X015345Y018446D02*
X015445Y018446D01*
X015445Y018347D02*
X015345Y018347D01*
X015345Y018248D02*
X015445Y018248D01*
X015445Y018150D02*
X015345Y018150D01*
X015070Y018150D02*
X014752Y018150D01*
X014851Y018248D02*
X014976Y018248D01*
X014918Y018347D02*
X014893Y018347D01*
X015842Y019825D02*
X015922Y019825D01*
X015999Y019924D02*
X015763Y019924D01*
X015626Y020022D02*
X016109Y020022D01*
X016681Y020022D02*
X017109Y020022D01*
X016999Y019924D02*
X016791Y019924D01*
X016868Y019825D02*
X016922Y019825D01*
X017681Y020022D02*
X018109Y020022D01*
X017999Y019924D02*
X017791Y019924D01*
X017868Y019825D02*
X017922Y019825D01*
X018681Y020022D02*
X019109Y020022D01*
X018999Y019924D02*
X018791Y019924D01*
X018868Y019825D02*
X018922Y019825D01*
X019681Y020022D02*
X019960Y020022D01*
X019960Y019924D02*
X019791Y019924D01*
X019868Y019825D02*
X019960Y019825D01*
X019960Y019727D02*
X019909Y019727D01*
X019935Y019628D02*
X019960Y019628D01*
X019960Y019530D02*
X019935Y019530D01*
X019928Y019431D02*
X019960Y019431D01*
X019960Y019332D02*
X019887Y019332D01*
X019836Y019234D02*
X019960Y019234D01*
X019960Y019135D02*
X019738Y019135D01*
X019646Y019037D02*
X019960Y019037D01*
X019960Y018938D02*
X019777Y018938D01*
X019862Y018840D02*
X019960Y018840D01*
X019960Y018741D02*
X019903Y018741D01*
X019935Y018643D02*
X019960Y018643D01*
X019960Y018544D02*
X019935Y018544D01*
X019934Y018446D02*
X019960Y018446D01*
X019960Y018347D02*
X019893Y018347D01*
X019851Y018248D02*
X019960Y018248D01*
X019960Y018150D02*
X019752Y018150D01*
X019637Y018051D02*
X019960Y018051D01*
X019960Y017953D02*
X019776Y017953D01*
X019867Y017854D02*
X019960Y017854D01*
X019960Y017756D02*
X019908Y017756D01*
X019945Y017657D02*
X019960Y017657D01*
X019960Y017559D02*
X019945Y017559D01*
X019945Y017460D02*
X019960Y017460D01*
X019960Y017362D02*
X019910Y017362D01*
X019869Y017263D02*
X019960Y017263D01*
X019960Y017164D02*
X019781Y017164D01*
X019648Y017066D02*
X019960Y017066D01*
X019960Y016967D02*
X018519Y016967D01*
X018618Y016869D02*
X019960Y016869D01*
X019960Y016770D02*
X018669Y016770D01*
X018710Y016672D02*
X019104Y016672D01*
X019018Y016573D02*
X018715Y016573D01*
X018648Y017066D02*
X019142Y017066D01*
X019009Y017164D02*
X018781Y017164D01*
X018869Y017263D02*
X018921Y017263D01*
X018067Y017066D02*
X017648Y017066D01*
X017781Y017164D02*
X018009Y017164D01*
X017921Y017263D02*
X017869Y017263D01*
X017142Y017066D02*
X016648Y017066D01*
X016781Y017164D02*
X017009Y017164D01*
X016921Y017263D02*
X016869Y017263D01*
X019735Y015785D02*
X019960Y015785D01*
X019960Y015883D02*
X019826Y015883D01*
X019872Y015982D02*
X019960Y015982D01*
X019960Y016081D02*
X019872Y016081D01*
X019872Y016179D02*
X019960Y016179D01*
X019960Y016278D02*
X019872Y016278D01*
X019872Y016376D02*
X019960Y016376D01*
X019960Y016475D02*
X019872Y016475D01*
X019872Y016573D02*
X019960Y016573D01*
X019960Y016672D02*
X019786Y016672D01*
X019818Y015686D02*
X019960Y015686D01*
X019960Y015588D02*
X019859Y015588D01*
X019872Y015489D02*
X019960Y015489D01*
X019960Y015391D02*
X019872Y015391D01*
X019834Y015292D02*
X019960Y015292D01*
X019960Y015194D02*
X019773Y015194D01*
X019657Y015095D02*
X019960Y015095D01*
X019960Y014997D02*
X019736Y014997D01*
X019819Y014898D02*
X019960Y014898D01*
X019960Y014799D02*
X019859Y014799D01*
X019872Y014701D02*
X019960Y014701D01*
X019960Y014602D02*
X019872Y014602D01*
X019834Y014504D02*
X019960Y014504D01*
X019960Y014405D02*
X019772Y014405D01*
X019655Y014307D02*
X019960Y014307D01*
X019960Y014208D02*
X019707Y014208D01*
X019793Y014110D02*
X019960Y014110D01*
X019960Y014011D02*
X019836Y014011D01*
X019960Y013913D02*
X019474Y013913D01*
X019416Y013913D02*
X017905Y013913D01*
X018003Y014011D02*
X019054Y014011D01*
X019097Y014110D02*
X018475Y014110D01*
X018582Y014208D02*
X019183Y014208D01*
X019235Y014307D02*
X018654Y014307D01*
X018695Y014405D02*
X019118Y014405D01*
X019038Y013866D02*
X019038Y013863D01*
X019048Y013800D01*
X019067Y013739D01*
X019097Y013682D01*
X019134Y013630D01*
X019180Y013584D01*
X019231Y013547D01*
X019289Y013518D01*
X019350Y013498D01*
X019413Y013488D01*
X019416Y013488D01*
X019416Y013866D01*
X019038Y013866D01*
X019045Y013814D02*
X017806Y013814D01*
X017708Y013715D02*
X019079Y013715D01*
X019147Y013617D02*
X017609Y013617D01*
X017511Y013518D02*
X019287Y013518D01*
X019416Y013518D02*
X019474Y013518D01*
X019474Y013617D02*
X019416Y013617D01*
X019416Y013715D02*
X019474Y013715D01*
X019474Y013814D02*
X019416Y013814D01*
X019603Y013518D02*
X019960Y013518D01*
X019960Y013420D02*
X017495Y013420D01*
X017495Y013321D02*
X019960Y013321D01*
X019960Y013223D02*
X017495Y013223D01*
X017495Y013124D02*
X019960Y013124D01*
X019960Y013026D02*
X017495Y013026D01*
X017495Y012927D02*
X019960Y012927D01*
X019960Y012829D02*
X017495Y012829D01*
X017495Y012730D02*
X019960Y012730D01*
X019960Y012631D02*
X017495Y012631D01*
X017495Y012533D02*
X019960Y012533D01*
X019960Y012434D02*
X018399Y012434D01*
X018551Y012336D02*
X019960Y012336D01*
X019960Y012237D02*
X018641Y012237D01*
X017991Y012434D02*
X017495Y012434D01*
X017495Y012336D02*
X017839Y012336D01*
X017749Y012237D02*
X017495Y012237D01*
X017495Y012139D02*
X017708Y012139D01*
X017675Y012040D02*
X017495Y012040D01*
X017495Y011942D02*
X017675Y011942D01*
X017679Y011843D02*
X017495Y011843D01*
X017495Y011745D02*
X017720Y011745D01*
X017770Y011646D02*
X017495Y011646D01*
X017491Y011548D02*
X017868Y011548D01*
X018026Y011449D02*
X017441Y011449D01*
X017343Y011350D02*
X017854Y011350D01*
X017755Y011252D02*
X017244Y011252D01*
X017146Y011153D02*
X017714Y011153D01*
X017675Y011055D02*
X017047Y011055D01*
X017146Y010759D02*
X017714Y010759D01*
X017755Y010661D02*
X017244Y010661D01*
X017343Y010562D02*
X017854Y010562D01*
X017868Y010365D02*
X017540Y010365D01*
X017638Y010266D02*
X017770Y010266D01*
X018026Y010464D02*
X017441Y010464D01*
X017667Y009675D02*
X017749Y009675D01*
X017839Y009577D02*
X017569Y009577D01*
X017495Y009478D02*
X017991Y009478D01*
X018399Y009478D02*
X019066Y009478D01*
X019041Y009380D02*
X017495Y009380D01*
X017495Y009281D02*
X019039Y009281D01*
X019038Y009293D02*
X019048Y009230D01*
X019067Y009169D01*
X019097Y009112D01*
X019134Y009060D01*
X019180Y009014D01*
X019231Y008977D01*
X019289Y008948D01*
X019350Y008928D01*
X019413Y008918D01*
X019416Y008918D01*
X019416Y009296D01*
X019038Y009296D01*
X019038Y009293D01*
X019063Y009182D02*
X017495Y009182D01*
X017495Y009084D02*
X019117Y009084D01*
X019219Y008985D02*
X017495Y008985D01*
X017495Y008887D02*
X019960Y008887D01*
X019960Y008985D02*
X019671Y008985D01*
X019773Y009084D02*
X019960Y009084D01*
X019960Y009182D02*
X019827Y009182D01*
X019851Y009281D02*
X019960Y009281D01*
X019960Y009380D02*
X019849Y009380D01*
X019824Y009478D02*
X019960Y009478D01*
X019960Y009577D02*
X019766Y009577D01*
X019656Y009675D02*
X019960Y009675D01*
X019960Y009774D02*
X019711Y009774D01*
X019808Y009872D02*
X019960Y009872D01*
X019960Y009971D02*
X019849Y009971D01*
X019872Y010069D02*
X019960Y010069D01*
X019960Y010168D02*
X019872Y010168D01*
X019844Y010266D02*
X019960Y010266D01*
X019960Y010365D02*
X019797Y010365D01*
X019699Y010464D02*
X019960Y010464D01*
X019960Y010562D02*
X019712Y010562D01*
X019809Y010661D02*
X019960Y010661D01*
X019960Y010759D02*
X019849Y010759D01*
X019872Y010858D02*
X019960Y010858D01*
X019960Y010956D02*
X019872Y010956D01*
X019844Y011055D02*
X019960Y011055D01*
X019960Y011153D02*
X019796Y011153D01*
X019698Y011252D02*
X019960Y011252D01*
X019960Y011350D02*
X019863Y011350D01*
X019872Y011449D02*
X019960Y011449D01*
X019960Y011548D02*
X019872Y011548D01*
X019872Y011646D02*
X019960Y011646D01*
X019960Y011745D02*
X019872Y011745D01*
X019872Y011843D02*
X019960Y011843D01*
X019960Y011942D02*
X019872Y011942D01*
X019848Y012040D02*
X019960Y012040D01*
X019960Y012139D02*
X019347Y012139D01*
X019743Y013617D02*
X019960Y013617D01*
X019960Y013715D02*
X019811Y013715D01*
X019845Y013814D02*
X019960Y013814D01*
X015924Y012040D02*
X015866Y012040D01*
X015866Y012095D02*
X015863Y012095D01*
X015800Y012085D01*
X015739Y012065D01*
X015681Y012036D01*
X015630Y011998D01*
X015584Y011953D01*
X015547Y011901D01*
X015517Y011844D01*
X015498Y011783D01*
X015488Y011719D01*
X015488Y011716D01*
X015866Y011716D01*
X015866Y012095D01*
X015866Y011942D02*
X015924Y011942D01*
X015924Y011843D02*
X015866Y011843D01*
X015866Y011745D02*
X015924Y011745D01*
X015690Y012040D02*
X013851Y012040D01*
X013915Y011942D02*
X015576Y011942D01*
X015517Y011843D02*
X013915Y011843D01*
X013915Y011745D02*
X015492Y011745D01*
X015489Y011646D02*
X013915Y011646D01*
X013915Y011548D02*
X015512Y011548D01*
X015565Y011449D02*
X014564Y011449D01*
X014736Y011350D02*
X015666Y011350D01*
X015642Y011252D02*
X014835Y011252D01*
X014226Y011449D02*
X013915Y011449D01*
X013915Y011350D02*
X014054Y011350D01*
X013955Y011252D02*
X013915Y011252D01*
X013915Y008690D02*
X013943Y008690D01*
X013915Y008591D02*
X014025Y008591D01*
X013915Y008493D02*
X014155Y008493D01*
X014647Y007015D02*
X015526Y007015D01*
X015590Y006916D02*
X014771Y006916D01*
X014850Y006817D02*
X015724Y006817D01*
X015609Y006719D02*
X014891Y006719D01*
X014915Y006620D02*
X015524Y006620D01*
X016062Y006006D02*
X016137Y006038D01*
X016250Y006150D01*
X016535Y006150D01*
X017341Y005344D01*
X017433Y005306D01*
X017532Y005306D01*
X017736Y005306D01*
X017754Y005262D01*
X017900Y005115D01*
X018092Y005036D01*
X018298Y005036D01*
X018490Y005115D01*
X018636Y005262D01*
X018654Y005306D01*
X019147Y005306D01*
X019203Y005250D01*
X019305Y005208D01*
X019289Y005203D01*
X019231Y005174D01*
X019180Y005136D01*
X019134Y005091D01*
X019097Y005039D01*
X019067Y004982D01*
X019048Y004921D01*
X019038Y004857D01*
X019038Y004854D01*
X019416Y004854D01*
X019416Y004796D01*
X019474Y004796D01*
X019474Y004418D01*
X019477Y004418D01*
X019540Y004428D01*
X019601Y004448D01*
X019659Y004477D01*
X019710Y004514D01*
X019756Y004560D01*
X019794Y004612D01*
X019823Y004669D01*
X019842Y004730D01*
X019852Y004793D01*
X019852Y004796D01*
X019474Y004796D01*
X019474Y004854D01*
X019852Y004854D01*
X019852Y004857D01*
X019842Y004921D01*
X019823Y004982D01*
X019794Y005039D01*
X019756Y005091D01*
X019710Y005136D01*
X019659Y005174D01*
X019601Y005203D01*
X019585Y005208D01*
X019687Y005250D01*
X019807Y005370D01*
X019872Y005528D01*
X019872Y005698D01*
X019807Y005855D01*
X019687Y005975D01*
X019611Y006006D01*
X019687Y006038D01*
X019807Y006158D01*
X019872Y006315D01*
X019872Y006485D01*
X019807Y006642D01*
X019690Y006760D01*
X019773Y006760D01*
X019872Y006859D01*
X019872Y007515D01*
X019773Y007615D01*
X019371Y007615D01*
X019288Y007698D01*
X019218Y007768D01*
X019126Y007806D01*
X018654Y007806D01*
X018636Y007851D01*
X018490Y007997D01*
X018298Y008076D01*
X018092Y008076D01*
X017900Y007997D01*
X017754Y007851D01*
X017675Y007660D01*
X017675Y007453D01*
X017754Y007262D01*
X017900Y007115D01*
X018043Y007056D01*
X017900Y006997D01*
X017754Y006851D01*
X017675Y006660D01*
X017675Y006453D01*
X017754Y006262D01*
X017900Y006115D01*
X018043Y006056D01*
X017900Y005997D01*
X017754Y005851D01*
X017736Y005806D01*
X017586Y005806D01*
X016992Y006400D01*
X017015Y006423D02*
X017687Y006423D01*
X017675Y006522D02*
X017114Y006522D01*
X017213Y006620D02*
X017675Y006620D01*
X017700Y006719D02*
X017311Y006719D01*
X017387Y006794D02*
X017387Y006794D01*
X017410Y006817D02*
X017740Y006817D01*
X017819Y006916D02*
X017478Y006916D01*
X017495Y007015D02*
X017943Y007015D01*
X017906Y007113D02*
X017495Y007113D01*
X017495Y007212D02*
X017804Y007212D01*
X017734Y007310D02*
X017495Y007310D01*
X017495Y007409D02*
X017693Y007409D01*
X017675Y007507D02*
X017495Y007507D01*
X017495Y007606D02*
X017675Y007606D01*
X017694Y007704D02*
X017495Y007704D01*
X017495Y007803D02*
X017734Y007803D01*
X017805Y007901D02*
X017495Y007901D01*
X017495Y008000D02*
X017907Y008000D01*
X017495Y008099D02*
X019960Y008099D01*
X019960Y008197D02*
X017495Y008197D01*
X017495Y008296D02*
X019960Y008296D01*
X019960Y008394D02*
X017495Y008394D01*
X017495Y008493D02*
X019960Y008493D01*
X019960Y008591D02*
X017495Y008591D01*
X017495Y008690D02*
X019960Y008690D01*
X019960Y008788D02*
X017495Y008788D01*
X018483Y008000D02*
X019960Y008000D01*
X019960Y007901D02*
X018585Y007901D01*
X019134Y007803D02*
X019960Y007803D01*
X019960Y007704D02*
X019282Y007704D01*
X019782Y007606D02*
X019960Y007606D01*
X019960Y007507D02*
X019872Y007507D01*
X019872Y007409D02*
X019960Y007409D01*
X019960Y007310D02*
X019872Y007310D01*
X019872Y007212D02*
X019960Y007212D01*
X019960Y007113D02*
X019872Y007113D01*
X019872Y007015D02*
X019960Y007015D01*
X019960Y006916D02*
X019872Y006916D01*
X019830Y006817D02*
X019960Y006817D01*
X019960Y006719D02*
X019731Y006719D01*
X019816Y006620D02*
X019960Y006620D01*
X019960Y006522D02*
X019857Y006522D01*
X019872Y006423D02*
X019960Y006423D01*
X019960Y006325D02*
X019872Y006325D01*
X019836Y006226D02*
X019960Y006226D01*
X019960Y006128D02*
X019777Y006128D01*
X019667Y006029D02*
X019960Y006029D01*
X019960Y005931D02*
X019732Y005931D01*
X019817Y005832D02*
X019960Y005832D01*
X019960Y005733D02*
X019858Y005733D01*
X019872Y005635D02*
X019960Y005635D01*
X019960Y005536D02*
X019872Y005536D01*
X019835Y005438D02*
X019960Y005438D01*
X019960Y005339D02*
X019776Y005339D01*
X019664Y005241D02*
X019960Y005241D01*
X019960Y005142D02*
X019702Y005142D01*
X019790Y005044D02*
X019960Y005044D01*
X019960Y004945D02*
X019834Y004945D01*
X019960Y004847D02*
X019474Y004847D01*
X019416Y004847D02*
X016322Y004847D01*
X016322Y004945D02*
X019056Y004945D01*
X019100Y005044D02*
X018316Y005044D01*
X018516Y005142D02*
X019188Y005142D01*
X019226Y005241D02*
X018615Y005241D01*
X019038Y004796D02*
X019038Y004793D01*
X019048Y004730D01*
X019067Y004669D01*
X019097Y004612D01*
X019134Y004560D01*
X019180Y004514D01*
X019231Y004477D01*
X019289Y004448D01*
X019350Y004428D01*
X019413Y004418D01*
X019416Y004418D01*
X019416Y004796D01*
X019038Y004796D01*
X019045Y004748D02*
X016322Y004748D01*
X016322Y004649D02*
X019077Y004649D01*
X019143Y004551D02*
X016322Y004551D01*
X016322Y004497D02*
X016322Y005153D01*
X016223Y005253D01*
X016140Y005253D01*
X016257Y005370D01*
X016322Y005528D01*
X016322Y005698D01*
X016257Y005855D01*
X016137Y005975D01*
X016062Y006006D01*
X016117Y006029D02*
X016656Y006029D01*
X016558Y006128D02*
X016227Y006128D01*
X016182Y005931D02*
X016755Y005931D01*
X016853Y005832D02*
X016267Y005832D01*
X016308Y005733D02*
X016952Y005733D01*
X017050Y005635D02*
X016322Y005635D01*
X016322Y005536D02*
X017149Y005536D01*
X017247Y005438D02*
X016285Y005438D01*
X016226Y005339D02*
X017353Y005339D01*
X017775Y005241D02*
X016235Y005241D01*
X016322Y005142D02*
X017874Y005142D01*
X018074Y005044D02*
X016322Y005044D01*
X016322Y004497D02*
X016223Y004398D01*
X015821Y004398D01*
X015768Y004344D01*
X015676Y004306D01*
X014854Y004306D01*
X014836Y004262D01*
X014690Y004115D01*
X014586Y004073D01*
X014707Y004023D01*
X014861Y003868D01*
X014895Y003786D01*
X014929Y003868D01*
X015083Y004023D01*
X015286Y004106D01*
X015504Y004106D01*
X015707Y004023D01*
X015861Y003868D01*
X015895Y003786D01*
X015929Y003868D01*
X016083Y004023D01*
X016286Y004106D01*
X016504Y004106D01*
X016707Y004023D01*
X016861Y003868D01*
X016895Y003786D01*
X016929Y003868D01*
X017083Y004023D01*
X017286Y004106D01*
X017504Y004106D01*
X017707Y004023D01*
X017861Y003868D01*
X017895Y003786D01*
X017929Y003868D01*
X018083Y004023D01*
X018286Y004106D01*
X018504Y004106D01*
X018707Y004023D01*
X018861Y003868D01*
X018895Y003786D01*
X018929Y003868D01*
X019083Y004023D01*
X019286Y004106D01*
X019504Y004106D01*
X019707Y004023D01*
X019861Y003868D01*
X019945Y003666D01*
X019945Y003447D01*
X019861Y003245D01*
X019707Y003090D01*
X019612Y003051D01*
X019701Y003014D01*
X019853Y002862D01*
X019935Y002664D01*
X019935Y002449D01*
X019853Y002250D01*
X019701Y002099D01*
X019599Y002056D01*
X019701Y002014D01*
X019853Y001862D01*
X019935Y001664D01*
X019935Y001449D01*
X019853Y001250D01*
X019701Y001099D01*
X019502Y001016D01*
X019288Y001016D01*
X019089Y001099D01*
X018937Y001250D01*
X018895Y001352D01*
X018853Y001250D01*
X018701Y001099D01*
X018502Y001016D01*
X018288Y001016D01*
X018089Y001099D01*
X017937Y001250D01*
X017895Y001352D01*
X017853Y001250D01*
X017701Y001099D01*
X017502Y001016D01*
X017288Y001016D01*
X017089Y001099D01*
X016937Y001250D01*
X016895Y001352D01*
X016853Y001250D01*
X016701Y001099D01*
X016502Y001016D01*
X016288Y001016D01*
X016089Y001099D01*
X015937Y001250D01*
X015895Y001352D01*
X015853Y001250D01*
X015701Y001099D01*
X015502Y001016D01*
X015288Y001016D01*
X015089Y001099D01*
X014937Y001250D01*
X014895Y001352D01*
X014853Y001250D01*
X014701Y001099D01*
X014502Y001016D01*
X014288Y001016D01*
X014089Y001099D01*
X013937Y001250D01*
X013884Y001379D01*
X013877Y001357D01*
X013840Y001284D01*
X013792Y001218D01*
X013734Y001160D01*
X013668Y001112D01*
X013595Y001074D01*
X013517Y001049D01*
X013445Y001038D01*
X013445Y001506D01*
X013345Y001506D01*
X013345Y001038D01*
X013273Y001049D01*
X013195Y001074D01*
X013122Y001112D01*
X013056Y001160D01*
X012998Y001218D01*
X012950Y001284D01*
X012913Y001357D01*
X012906Y001379D01*
X012853Y001250D01*
X012701Y001099D01*
X012502Y001016D01*
X012288Y001016D01*
X012089Y001099D01*
X011937Y001250D01*
X011895Y001352D01*
X011853Y001250D01*
X011701Y001099D01*
X011502Y001016D01*
X011288Y001016D01*
X011089Y001099D01*
X010937Y001250D01*
X010895Y001352D01*
X010853Y001250D01*
X010701Y001099D01*
X010502Y001016D01*
X010288Y001016D01*
X010089Y001099D01*
X009937Y001250D01*
X009895Y001352D01*
X009853Y001250D01*
X009701Y001099D01*
X009502Y001016D01*
X009288Y001016D01*
X009089Y001099D01*
X008937Y001250D01*
X008895Y001352D01*
X008853Y001250D01*
X008701Y001099D01*
X008502Y001016D01*
X008288Y001016D01*
X008089Y001099D01*
X007937Y001250D01*
X007895Y001352D01*
X007853Y001250D01*
X007701Y001099D01*
X007502Y001016D01*
X007288Y001016D01*
X007089Y001099D01*
X006937Y001250D01*
X006895Y001352D01*
X006853Y001250D01*
X006701Y001099D01*
X006502Y001016D01*
X006288Y001016D01*
X006089Y001099D01*
X005937Y001250D01*
X005855Y001449D01*
X005855Y001479D01*
X005786Y001312D01*
X005640Y001165D01*
X005448Y001086D01*
X005242Y001086D01*
X005050Y001165D01*
X004904Y001312D01*
X004895Y001334D01*
X004886Y001312D01*
X004740Y001165D01*
X004548Y001086D01*
X004342Y001086D01*
X004150Y001165D01*
X004004Y001312D01*
X003935Y001479D01*
X003935Y001449D01*
X003853Y001250D01*
X003701Y001099D01*
X003502Y001016D01*
X003288Y001016D01*
X003089Y001099D01*
X002937Y001250D01*
X002884Y001379D01*
X002877Y001357D01*
X002840Y001284D01*
X002792Y001218D01*
X002734Y001160D01*
X002668Y001112D01*
X002595Y001074D01*
X002517Y001049D01*
X002445Y001038D01*
X002445Y001506D01*
X002345Y001506D01*
X002345Y001038D01*
X002273Y001049D01*
X002195Y001074D01*
X002122Y001112D01*
X002056Y001160D01*
X001998Y001218D01*
X001950Y001284D01*
X001913Y001357D01*
X001906Y001379D01*
X001853Y001250D01*
X001701Y001099D01*
X001502Y001016D01*
X001288Y001016D01*
X001089Y001099D01*
X000937Y001250D01*
X000855Y001449D01*
X000855Y001664D01*
X000937Y001862D01*
X001089Y002014D01*
X001191Y002056D01*
X001089Y002099D01*
X000937Y002250D01*
X000855Y002449D01*
X000855Y002664D01*
X000937Y002862D01*
X001089Y003014D01*
X001178Y003051D01*
X001083Y003090D01*
X000929Y003245D01*
X000845Y003447D01*
X000845Y003666D01*
X000929Y003868D01*
X001083Y004023D01*
X001145Y004048D01*
X001145Y004053D01*
X000815Y004383D01*
X000815Y000976D01*
X019960Y000976D01*
X019960Y020121D01*
X015445Y020022D02*
X015345Y020022D01*
X015345Y019924D02*
X015445Y019924D01*
X006191Y019056D02*
X006089Y019014D01*
X005937Y018862D01*
X005855Y018664D01*
X005855Y018449D01*
X005937Y018250D01*
X006089Y018099D01*
X006178Y018062D01*
X006083Y018023D01*
X005929Y017868D01*
X005845Y017666D01*
X005845Y017447D01*
X005929Y017245D01*
X006083Y017090D01*
X006117Y017076D01*
X005975Y017076D01*
X005875Y016977D01*
X005875Y016784D01*
X005861Y016818D01*
X005707Y016973D01*
X005504Y017056D01*
X005286Y017056D01*
X005083Y016973D01*
X004929Y016818D01*
X004895Y016736D01*
X004861Y016818D01*
X004707Y016973D01*
X004504Y017056D01*
X004286Y017056D01*
X004083Y016973D01*
X003929Y016818D01*
X003895Y016736D01*
X003861Y016818D01*
X003707Y016973D01*
X003504Y017056D01*
X003286Y017056D01*
X003083Y016973D01*
X002929Y016818D01*
X002895Y016736D01*
X002861Y016818D01*
X002707Y016973D01*
X002625Y017006D01*
X002695Y017006D01*
X002787Y017044D01*
X003187Y017444D01*
X003257Y017515D01*
X003295Y017607D01*
X003295Y019703D01*
X003449Y019856D01*
X004960Y019856D01*
X004854Y019751D01*
X004775Y019560D01*
X004775Y019353D01*
X004854Y019162D01*
X005000Y019015D01*
X005023Y019006D01*
X005000Y018997D01*
X004854Y018851D01*
X004775Y018660D01*
X004775Y018453D01*
X004854Y018262D01*
X005000Y018115D01*
X005023Y018106D01*
X005000Y018097D01*
X004854Y017951D01*
X004775Y017760D01*
X004775Y017553D01*
X004854Y017362D01*
X005000Y017215D01*
X005192Y017136D01*
X005398Y017136D01*
X005590Y017215D01*
X005736Y017362D01*
X005815Y017553D01*
X005815Y017760D01*
X005736Y017951D01*
X005590Y018097D01*
X005567Y018106D01*
X005590Y018115D01*
X005736Y018262D01*
X005815Y018453D01*
X005815Y018660D01*
X005736Y018851D01*
X005590Y018997D01*
X005567Y019006D01*
X005590Y019015D01*
X005736Y019162D01*
X005815Y019353D01*
X005815Y019560D01*
X005736Y019751D01*
X005630Y019856D01*
X005935Y019856D01*
X005855Y019664D01*
X005855Y019449D01*
X005937Y019250D01*
X006089Y019099D01*
X006191Y019056D01*
X006144Y019037D02*
X005611Y019037D01*
X005648Y018938D02*
X006013Y018938D01*
X005928Y018840D02*
X005740Y018840D01*
X005781Y018741D02*
X005887Y018741D01*
X005855Y018643D02*
X005815Y018643D01*
X005815Y018544D02*
X005855Y018544D01*
X005856Y018446D02*
X005812Y018446D01*
X005771Y018347D02*
X005897Y018347D01*
X005939Y018248D02*
X005723Y018248D01*
X005624Y018150D02*
X006038Y018150D01*
X006153Y018051D02*
X005635Y018051D01*
X005734Y017953D02*
X006014Y017953D01*
X005923Y017854D02*
X005776Y017854D01*
X005815Y017756D02*
X005882Y017756D01*
X005845Y017657D02*
X005815Y017657D01*
X005815Y017559D02*
X005845Y017559D01*
X005845Y017460D02*
X005777Y017460D01*
X005736Y017362D02*
X005880Y017362D01*
X005921Y017263D02*
X005637Y017263D01*
X005466Y017164D02*
X006009Y017164D01*
X005964Y017066D02*
X002808Y017066D01*
X002712Y016967D02*
X003078Y016967D01*
X002980Y016869D02*
X002810Y016869D01*
X002881Y016770D02*
X002909Y016770D01*
X002907Y017164D02*
X005124Y017164D01*
X004953Y017263D02*
X003005Y017263D01*
X003104Y017362D02*
X004854Y017362D01*
X004813Y017460D02*
X003202Y017460D01*
X003275Y017559D02*
X004775Y017559D01*
X004775Y017657D02*
X003295Y017657D01*
X003295Y017756D02*
X004775Y017756D01*
X004814Y017854D02*
X003295Y017854D01*
X003295Y017953D02*
X004856Y017953D01*
X004955Y018051D02*
X003295Y018051D01*
X003295Y018150D02*
X004966Y018150D01*
X004867Y018248D02*
X003295Y018248D01*
X003295Y018347D02*
X004819Y018347D01*
X004778Y018446D02*
X003295Y018446D01*
X003295Y018544D02*
X004775Y018544D01*
X004775Y018643D02*
X003295Y018643D01*
X003295Y018741D02*
X004809Y018741D01*
X004850Y018840D02*
X003295Y018840D01*
X003295Y018938D02*
X004942Y018938D01*
X004979Y019037D02*
X003295Y019037D01*
X003295Y019135D02*
X004881Y019135D01*
X004824Y019234D02*
X003295Y019234D01*
X003295Y019332D02*
X004783Y019332D01*
X004775Y019431D02*
X003295Y019431D01*
X003295Y019530D02*
X004775Y019530D01*
X004803Y019628D02*
X003295Y019628D01*
X003319Y019727D02*
X004844Y019727D01*
X004929Y019825D02*
X003417Y019825D01*
X003015Y020130D02*
X002833Y019948D01*
X002795Y019856D01*
X002795Y019757D01*
X002795Y017760D01*
X002541Y017506D01*
X000815Y017506D01*
X000815Y018201D01*
X000900Y018115D01*
X001092Y018036D01*
X001298Y018036D01*
X001490Y018115D01*
X001636Y018262D01*
X001715Y018453D01*
X001715Y018660D01*
X001636Y018851D01*
X001490Y018997D01*
X001298Y019076D01*
X001092Y019076D01*
X000900Y018997D01*
X000815Y018912D01*
X000815Y020131D01*
X003015Y020130D01*
X003006Y020121D02*
X000815Y020121D01*
X000815Y020022D02*
X002908Y020022D01*
X002823Y019924D02*
X000815Y019924D01*
X000815Y019825D02*
X002795Y019825D01*
X002795Y019727D02*
X000815Y019727D01*
X000815Y019628D02*
X002795Y019628D01*
X002795Y019530D02*
X000815Y019530D01*
X000815Y019431D02*
X002795Y019431D01*
X002795Y019332D02*
X000815Y019332D01*
X000815Y019234D02*
X002795Y019234D01*
X002795Y019135D02*
X000815Y019135D01*
X000815Y019037D02*
X000996Y019037D01*
X000842Y018938D02*
X000815Y018938D01*
X001394Y019037D02*
X002795Y019037D01*
X002795Y018938D02*
X001548Y018938D01*
X001640Y018840D02*
X002795Y018840D01*
X002795Y018741D02*
X001681Y018741D01*
X001715Y018643D02*
X002795Y018643D01*
X002795Y018544D02*
X001715Y018544D01*
X001712Y018446D02*
X002795Y018446D01*
X002795Y018347D02*
X001671Y018347D01*
X001623Y018248D02*
X002795Y018248D01*
X002795Y018150D02*
X001524Y018150D01*
X001335Y018051D02*
X002795Y018051D01*
X002795Y017953D02*
X000815Y017953D01*
X000815Y018051D02*
X001055Y018051D01*
X000866Y018150D02*
X000815Y018150D01*
X000815Y017854D02*
X002795Y017854D01*
X002791Y017756D02*
X000815Y017756D01*
X000815Y017657D02*
X002692Y017657D01*
X002594Y017559D02*
X000815Y017559D01*
X001395Y016506D02*
X001395Y016406D01*
X001895Y015906D01*
X001895Y015006D01*
X002499Y014402D01*
X002499Y013583D01*
X002243Y013583D02*
X002243Y014158D01*
X001395Y015006D01*
X001395Y015506D01*
X002395Y015506D02*
X002395Y015056D01*
X002755Y014696D01*
X002755Y013583D01*
X003011Y013583D02*
X003011Y014890D01*
X002895Y015006D01*
X002895Y016006D01*
X002395Y016506D01*
X003395Y016506D02*
X003895Y016006D01*
X003895Y015006D01*
X003523Y014634D01*
X003523Y013583D01*
X003267Y013583D02*
X003267Y015378D01*
X003395Y015506D01*
X004395Y015506D02*
X004395Y015056D01*
X003779Y014440D01*
X003779Y013583D01*
X004035Y013583D02*
X004035Y014396D01*
X004395Y014756D01*
X004645Y014756D01*
X004895Y015006D01*
X004895Y015756D01*
X004395Y016506D01*
X004810Y016869D02*
X004980Y016869D01*
X004909Y016770D02*
X004881Y016770D01*
X004712Y016967D02*
X005078Y016967D01*
X005395Y016506D02*
X005895Y015756D01*
X005895Y015006D01*
X004547Y013658D01*
X004547Y013583D01*
X004291Y013583D02*
X004291Y014352D01*
X004445Y014506D01*
X004895Y014506D01*
X005395Y015006D01*
X005395Y015506D01*
X005810Y016869D02*
X005875Y016869D01*
X005875Y016967D02*
X005712Y016967D01*
X004078Y016967D02*
X003712Y016967D01*
X003810Y016869D02*
X003980Y016869D01*
X003909Y016770D02*
X003881Y016770D01*
X005709Y019135D02*
X006052Y019135D01*
X005954Y019234D02*
X005766Y019234D01*
X005807Y019332D02*
X005903Y019332D01*
X005862Y019431D02*
X005815Y019431D01*
X005815Y019530D02*
X005855Y019530D01*
X005855Y019628D02*
X005787Y019628D01*
X005746Y019727D02*
X005881Y019727D01*
X005922Y019825D02*
X005661Y019825D01*
X004547Y010229D02*
X004547Y010155D01*
X005895Y008806D01*
X005895Y008056D01*
X005395Y007556D01*
X004895Y007326D02*
X004929Y007245D01*
X005083Y007090D01*
X005286Y007006D01*
X005504Y007006D01*
X005707Y007090D01*
X005861Y007245D01*
X005875Y007278D01*
X005875Y007136D01*
X005955Y007056D01*
X005875Y006977D01*
X005875Y006136D01*
X005955Y006056D01*
X005875Y005977D01*
X005875Y005136D01*
X005955Y005056D01*
X005875Y004977D01*
X005875Y004136D01*
X005975Y004036D01*
X006117Y004036D01*
X006083Y004023D01*
X005929Y003868D01*
X005845Y003666D01*
X005845Y003447D01*
X005929Y003245D01*
X006083Y003090D01*
X006178Y003051D01*
X006089Y003014D01*
X005937Y002862D01*
X005855Y002664D01*
X005855Y002449D01*
X005937Y002250D01*
X006089Y002099D01*
X006191Y002056D01*
X006089Y002014D01*
X005937Y001862D01*
X005865Y001688D01*
X005865Y001710D01*
X005786Y001901D01*
X005640Y002047D01*
X005448Y002126D01*
X005242Y002126D01*
X005050Y002047D01*
X004904Y001901D01*
X004895Y001879D01*
X004886Y001901D01*
X004740Y002047D01*
X004548Y002126D01*
X004342Y002126D01*
X004150Y002047D01*
X004004Y001901D01*
X003925Y001710D01*
X003925Y001688D01*
X003853Y001862D01*
X003701Y002014D01*
X003599Y002056D01*
X003701Y002099D01*
X003853Y002250D01*
X003935Y002449D01*
X003935Y002664D01*
X003853Y002862D01*
X003701Y003014D01*
X003612Y003051D01*
X003707Y003090D01*
X003861Y003245D01*
X003945Y003447D01*
X003945Y003666D01*
X003861Y003868D01*
X003707Y004023D01*
X003504Y004106D01*
X003286Y004106D01*
X003083Y004023D01*
X002929Y003868D01*
X002845Y003666D01*
X002845Y003447D01*
X002929Y003245D01*
X003083Y003090D01*
X003178Y003051D01*
X003089Y003014D01*
X002937Y002862D01*
X002884Y002734D01*
X002877Y002756D01*
X002840Y002829D01*
X002792Y002895D01*
X002734Y002953D01*
X002668Y003001D01*
X002595Y003038D01*
X002517Y003063D01*
X002445Y003075D01*
X002445Y002606D01*
X002345Y002606D01*
X002345Y003075D01*
X002273Y003063D01*
X002195Y003038D01*
X002122Y003001D01*
X002056Y002953D01*
X001998Y002895D01*
X001950Y002829D01*
X001913Y002756D01*
X001906Y002734D01*
X001853Y002862D01*
X001701Y003014D01*
X001612Y003051D01*
X001707Y003090D01*
X001861Y003245D01*
X001945Y003447D01*
X001945Y003666D01*
X001861Y003868D01*
X001707Y004023D01*
X001645Y004048D01*
X001645Y004206D01*
X001607Y004298D01*
X001568Y004336D01*
X001648Y004336D01*
X001840Y004415D01*
X001986Y004562D01*
X002065Y004753D01*
X002065Y004960D01*
X001986Y005151D01*
X001840Y005297D01*
X001648Y005376D01*
X001442Y005376D01*
X001250Y005297D01*
X001104Y005151D01*
X001095Y005129D01*
X001095Y006084D01*
X001104Y006062D01*
X001250Y005915D01*
X001442Y005836D01*
X001648Y005836D01*
X001840Y005915D01*
X001986Y006062D01*
X002065Y006253D01*
X002065Y006460D01*
X001986Y006651D01*
X001840Y006797D01*
X001648Y006876D01*
X001442Y006876D01*
X001250Y006797D01*
X001104Y006651D01*
X001095Y006629D01*
X001095Y007085D01*
X001286Y007006D01*
X001504Y007006D01*
X001707Y007090D01*
X001861Y007245D01*
X001895Y007326D01*
X001929Y007245D01*
X002083Y007090D01*
X002286Y007006D01*
X002504Y007006D01*
X002707Y007090D01*
X002861Y007245D01*
X002895Y007326D01*
X002929Y007245D01*
X003083Y007090D01*
X003286Y007006D01*
X003504Y007006D01*
X003707Y007090D01*
X003861Y007245D01*
X003895Y007326D01*
X003929Y007245D01*
X004083Y007090D01*
X004286Y007006D01*
X004504Y007006D01*
X004707Y007090D01*
X004861Y007245D01*
X004895Y007326D01*
X004888Y007310D02*
X004902Y007310D01*
X004962Y007212D02*
X004828Y007212D01*
X004730Y007113D02*
X005060Y007113D01*
X005266Y007015D02*
X004524Y007015D01*
X004266Y007015D02*
X003524Y007015D01*
X003730Y007113D02*
X004060Y007113D01*
X003962Y007212D02*
X003828Y007212D01*
X003888Y007310D02*
X003902Y007310D01*
X004395Y007556D02*
X004895Y008056D01*
X004895Y008806D01*
X004645Y009056D01*
X004245Y009056D01*
X004035Y009267D01*
X004035Y010229D01*
X004291Y010229D02*
X004291Y009361D01*
X004395Y009256D01*
X004695Y009256D01*
X005395Y008556D01*
X004395Y008556D02*
X003795Y009156D01*
X003795Y009206D01*
X003779Y010229D01*
X003523Y010229D02*
X003523Y009178D01*
X003895Y008806D01*
X003895Y008056D01*
X003395Y007556D01*
X002902Y007310D02*
X002888Y007310D01*
X002828Y007212D02*
X002962Y007212D01*
X003060Y007113D02*
X002730Y007113D01*
X002524Y007015D02*
X003266Y007015D01*
X002395Y007556D02*
X002895Y008056D01*
X002895Y008856D01*
X003011Y008972D01*
X003011Y010229D01*
X002755Y010229D02*
X002755Y009117D01*
X002395Y008756D01*
X002395Y008556D01*
X001895Y008806D02*
X001895Y008056D01*
X001395Y007556D01*
X001828Y007212D02*
X001962Y007212D01*
X001902Y007310D02*
X001888Y007310D01*
X001730Y007113D02*
X002060Y007113D01*
X002266Y007015D02*
X001524Y007015D01*
X001266Y007015D02*
X001095Y007015D01*
X001095Y006916D02*
X005875Y006916D01*
X005875Y006817D02*
X005290Y006817D01*
X005340Y006797D02*
X005148Y006876D01*
X004942Y006876D01*
X004750Y006797D01*
X004604Y006651D01*
X004525Y006460D01*
X004525Y006253D01*
X004604Y006062D01*
X004750Y005915D01*
X004942Y005836D01*
X005148Y005836D01*
X005340Y005915D01*
X005486Y006062D01*
X005565Y006253D01*
X005565Y006460D01*
X005486Y006651D01*
X005340Y006797D01*
X005418Y006719D02*
X005875Y006719D01*
X005875Y006620D02*
X005498Y006620D01*
X005539Y006522D02*
X005875Y006522D01*
X005875Y006423D02*
X005565Y006423D01*
X005565Y006325D02*
X005875Y006325D01*
X005875Y006226D02*
X005554Y006226D01*
X005513Y006128D02*
X005883Y006128D01*
X005927Y006029D02*
X005453Y006029D01*
X005355Y005931D02*
X005875Y005931D01*
X005875Y005832D02*
X001095Y005832D01*
X001095Y005733D02*
X005875Y005733D01*
X005875Y005635D02*
X001095Y005635D01*
X001095Y005536D02*
X005875Y005536D01*
X005875Y005438D02*
X001095Y005438D01*
X001095Y005339D02*
X001352Y005339D01*
X001194Y005241D02*
X001095Y005241D01*
X001095Y005142D02*
X001101Y005142D01*
X001738Y005339D02*
X004852Y005339D01*
X004942Y005376D02*
X004750Y005297D01*
X004604Y005151D01*
X004525Y004960D01*
X004525Y004753D01*
X004604Y004562D01*
X004750Y004415D01*
X004942Y004336D01*
X005148Y004336D01*
X005340Y004415D01*
X005486Y004562D01*
X005565Y004753D01*
X005565Y004960D01*
X005486Y005151D01*
X005340Y005297D01*
X005148Y005376D01*
X004942Y005376D01*
X004694Y005241D02*
X001896Y005241D01*
X001989Y005142D02*
X004601Y005142D01*
X004560Y005044D02*
X002030Y005044D01*
X002065Y004945D02*
X004525Y004945D01*
X004525Y004847D02*
X002065Y004847D01*
X002063Y004748D02*
X004527Y004748D01*
X004568Y004649D02*
X002022Y004649D01*
X001975Y004551D02*
X004615Y004551D01*
X004714Y004452D02*
X001876Y004452D01*
X001691Y004354D02*
X004899Y004354D01*
X004998Y004326D02*
X004792Y004326D01*
X004600Y004247D01*
X004454Y004101D01*
X004375Y003910D01*
X004375Y003703D01*
X004454Y003512D01*
X004600Y003365D01*
X004792Y003286D01*
X004998Y003286D01*
X005190Y003365D01*
X005336Y003512D01*
X005415Y003703D01*
X005415Y003910D01*
X005336Y004101D01*
X005190Y004247D01*
X004998Y004326D01*
X005170Y004255D02*
X005875Y004255D01*
X005875Y004157D02*
X005280Y004157D01*
X005354Y004058D02*
X005953Y004058D01*
X006021Y003960D02*
X005394Y003960D01*
X005415Y003861D02*
X005926Y003861D01*
X005885Y003763D02*
X005415Y003763D01*
X005399Y003664D02*
X005845Y003664D01*
X005845Y003566D02*
X005358Y003566D01*
X005291Y003467D02*
X005845Y003467D01*
X005878Y003368D02*
X005193Y003368D01*
X004598Y003368D02*
X003912Y003368D01*
X003945Y003467D02*
X004499Y003467D01*
X004432Y003566D02*
X003945Y003566D01*
X003945Y003664D02*
X004391Y003664D01*
X004375Y003763D02*
X003905Y003763D01*
X003864Y003861D02*
X004375Y003861D01*
X004396Y003960D02*
X003769Y003960D01*
X003620Y004058D02*
X004437Y004058D01*
X004510Y004157D02*
X001645Y004157D01*
X001645Y004058D02*
X003170Y004058D01*
X003021Y003960D02*
X001769Y003960D01*
X001864Y003861D02*
X002926Y003861D01*
X002885Y003763D02*
X001905Y003763D01*
X001945Y003664D02*
X002845Y003664D01*
X002845Y003566D02*
X001945Y003566D01*
X001945Y003467D02*
X002845Y003467D01*
X002878Y003368D02*
X001912Y003368D01*
X001872Y003270D02*
X002918Y003270D01*
X003002Y003171D02*
X001788Y003171D01*
X001665Y003073D02*
X002332Y003073D01*
X002345Y003073D02*
X002445Y003073D01*
X002458Y003073D02*
X003125Y003073D01*
X003049Y002974D02*
X002704Y002974D01*
X002806Y002876D02*
X002951Y002876D01*
X002902Y002777D02*
X002866Y002777D01*
X002445Y002777D02*
X002345Y002777D01*
X002345Y002679D02*
X002445Y002679D01*
X002445Y002506D02*
X002445Y002038D01*
X002445Y001606D01*
X002345Y001606D01*
X002345Y002038D01*
X002345Y002506D01*
X002445Y002506D01*
X002445Y002482D02*
X002345Y002482D01*
X002345Y002383D02*
X002445Y002383D01*
X002445Y002284D02*
X002345Y002284D01*
X002345Y002186D02*
X002445Y002186D01*
X002445Y002087D02*
X002345Y002087D01*
X002345Y001989D02*
X002445Y001989D01*
X002445Y001890D02*
X002345Y001890D01*
X002345Y001792D02*
X002445Y001792D01*
X002445Y001693D02*
X002345Y001693D01*
X002345Y001496D02*
X002445Y001496D01*
X002445Y001398D02*
X002345Y001398D01*
X002345Y001299D02*
X002445Y001299D01*
X002445Y001200D02*
X002345Y001200D01*
X002345Y001102D02*
X002445Y001102D01*
X002649Y001102D02*
X003086Y001102D01*
X002987Y001200D02*
X002775Y001200D01*
X002848Y001299D02*
X002917Y001299D01*
X002141Y001102D02*
X001704Y001102D01*
X001803Y001200D02*
X002015Y001200D01*
X001942Y001299D02*
X001873Y001299D01*
X001086Y001102D02*
X000815Y001102D01*
X000815Y001200D02*
X000987Y001200D01*
X000917Y001299D02*
X000815Y001299D01*
X000815Y001398D02*
X000876Y001398D01*
X000855Y001496D02*
X000815Y001496D01*
X000815Y001595D02*
X000855Y001595D01*
X000867Y001693D02*
X000815Y001693D01*
X000815Y001792D02*
X000908Y001792D01*
X000965Y001890D02*
X000815Y001890D01*
X000815Y001989D02*
X001064Y001989D01*
X001116Y002087D02*
X000815Y002087D01*
X000815Y002186D02*
X001002Y002186D01*
X000923Y002284D02*
X000815Y002284D01*
X000815Y002383D02*
X000882Y002383D01*
X000855Y002482D02*
X000815Y002482D01*
X000815Y002580D02*
X000855Y002580D01*
X000861Y002679D02*
X000815Y002679D01*
X000815Y002777D02*
X000902Y002777D01*
X000951Y002876D02*
X000815Y002876D01*
X000815Y002974D02*
X001049Y002974D01*
X001125Y003073D02*
X000815Y003073D01*
X000815Y003171D02*
X001002Y003171D01*
X000918Y003270D02*
X000815Y003270D01*
X000815Y003368D02*
X000878Y003368D01*
X000845Y003467D02*
X000815Y003467D01*
X000815Y003566D02*
X000845Y003566D01*
X000845Y003664D02*
X000815Y003664D01*
X000815Y003763D02*
X000885Y003763D01*
X000926Y003861D02*
X000815Y003861D01*
X000815Y003960D02*
X001021Y003960D01*
X001140Y004058D02*
X000815Y004058D01*
X000815Y004157D02*
X001041Y004157D01*
X000943Y004255D02*
X000815Y004255D01*
X000815Y004354D02*
X000844Y004354D01*
X001625Y004255D02*
X004620Y004255D01*
X005191Y004354D02*
X005875Y004354D01*
X005875Y004452D02*
X005376Y004452D01*
X005475Y004551D02*
X005875Y004551D01*
X005875Y004649D02*
X005522Y004649D01*
X005563Y004748D02*
X005875Y004748D01*
X005875Y004847D02*
X005565Y004847D01*
X005565Y004945D02*
X005875Y004945D01*
X005942Y005044D02*
X005530Y005044D01*
X005489Y005142D02*
X005875Y005142D01*
X005875Y005241D02*
X005396Y005241D01*
X005238Y005339D02*
X005875Y005339D01*
X004735Y005931D02*
X001855Y005931D01*
X001953Y006029D02*
X004637Y006029D01*
X004577Y006128D02*
X002013Y006128D01*
X002054Y006226D02*
X004536Y006226D01*
X004525Y006325D02*
X002065Y006325D01*
X002065Y006423D02*
X004525Y006423D01*
X004551Y006522D02*
X002039Y006522D01*
X001998Y006620D02*
X004592Y006620D01*
X004672Y006719D02*
X001918Y006719D01*
X001790Y006817D02*
X004800Y006817D01*
X005524Y007015D02*
X005913Y007015D01*
X005898Y007113D02*
X005730Y007113D01*
X005828Y007212D02*
X005875Y007212D01*
X003395Y008556D02*
X003267Y008684D01*
X003267Y010229D01*
X002499Y010229D02*
X002499Y009411D01*
X001895Y008806D01*
X001395Y008806D02*
X001395Y008556D01*
X001395Y008806D02*
X002243Y009655D01*
X002243Y010229D01*
X001300Y006817D02*
X001095Y006817D01*
X001095Y006719D02*
X001172Y006719D01*
X001137Y006029D02*
X001095Y006029D01*
X001095Y005931D02*
X001235Y005931D01*
X003872Y003270D02*
X005918Y003270D01*
X006002Y003171D02*
X003788Y003171D01*
X003665Y003073D02*
X006125Y003073D01*
X006049Y002974D02*
X003741Y002974D01*
X003839Y002876D02*
X005951Y002876D01*
X005902Y002777D02*
X003888Y002777D01*
X003929Y002679D02*
X005861Y002679D01*
X005855Y002580D02*
X003935Y002580D01*
X003935Y002482D02*
X005855Y002482D01*
X005882Y002383D02*
X003908Y002383D01*
X003867Y002284D02*
X005923Y002284D01*
X006002Y002186D02*
X003788Y002186D01*
X003674Y002087D02*
X004248Y002087D01*
X004092Y001989D02*
X003726Y001989D01*
X003825Y001890D02*
X004000Y001890D01*
X003959Y001792D02*
X003882Y001792D01*
X003923Y001693D02*
X003925Y001693D01*
X003914Y001398D02*
X003969Y001398D01*
X004017Y001299D02*
X003873Y001299D01*
X003803Y001200D02*
X004115Y001200D01*
X004304Y001102D02*
X003704Y001102D01*
X004586Y001102D02*
X005204Y001102D01*
X005015Y001200D02*
X004775Y001200D01*
X004873Y001299D02*
X004917Y001299D01*
X004890Y001890D02*
X004900Y001890D01*
X004992Y001989D02*
X004798Y001989D01*
X004642Y002087D02*
X005148Y002087D01*
X005542Y002087D02*
X006116Y002087D01*
X006064Y001989D02*
X005698Y001989D01*
X005790Y001890D02*
X005965Y001890D01*
X005908Y001792D02*
X005831Y001792D01*
X005865Y001693D02*
X005867Y001693D01*
X005876Y001398D02*
X005821Y001398D01*
X005773Y001299D02*
X005917Y001299D01*
X005987Y001200D02*
X005675Y001200D01*
X005486Y001102D02*
X006086Y001102D01*
X006704Y001102D02*
X007086Y001102D01*
X006987Y001200D02*
X006803Y001200D01*
X006873Y001299D02*
X006917Y001299D01*
X007704Y001102D02*
X008086Y001102D01*
X007987Y001200D02*
X007803Y001200D01*
X007873Y001299D02*
X007917Y001299D01*
X008704Y001102D02*
X009086Y001102D01*
X008987Y001200D02*
X008803Y001200D01*
X008873Y001299D02*
X008917Y001299D01*
X009704Y001102D02*
X010086Y001102D01*
X009987Y001200D02*
X009803Y001200D01*
X009873Y001299D02*
X009917Y001299D01*
X010704Y001102D02*
X011086Y001102D01*
X010987Y001200D02*
X010803Y001200D01*
X010873Y001299D02*
X010917Y001299D01*
X011704Y001102D02*
X012086Y001102D01*
X011987Y001200D02*
X011803Y001200D01*
X011873Y001299D02*
X011917Y001299D01*
X012704Y001102D02*
X013141Y001102D01*
X013015Y001200D02*
X012803Y001200D01*
X012873Y001299D02*
X012942Y001299D01*
X013345Y001299D02*
X013445Y001299D01*
X013445Y001398D02*
X013345Y001398D01*
X013345Y001496D02*
X013445Y001496D01*
X013445Y001606D02*
X013345Y001606D01*
X013345Y002075D01*
X013345Y002506D01*
X013445Y002506D01*
X013445Y002075D01*
X013445Y001606D01*
X013445Y001693D02*
X013345Y001693D01*
X013345Y001792D02*
X013445Y001792D01*
X013445Y001890D02*
X013345Y001890D01*
X013345Y001989D02*
X013445Y001989D01*
X013445Y002087D02*
X013345Y002087D01*
X013345Y002186D02*
X013445Y002186D01*
X013445Y002284D02*
X013345Y002284D01*
X013345Y002383D02*
X013445Y002383D01*
X013445Y002482D02*
X013345Y002482D01*
X013345Y002606D02*
X013345Y003075D01*
X013273Y003063D01*
X013195Y003038D01*
X013122Y003001D01*
X013056Y002953D01*
X012998Y002895D01*
X012950Y002829D01*
X012913Y002756D01*
X012906Y002734D01*
X012853Y002862D01*
X012701Y003014D01*
X012612Y003051D01*
X012707Y003090D01*
X012861Y003245D01*
X012945Y003447D01*
X012945Y003666D01*
X012861Y003868D01*
X012707Y004023D01*
X012673Y004036D01*
X012815Y004036D01*
X012895Y004116D01*
X012975Y004036D01*
X013815Y004036D01*
X013915Y004136D01*
X013915Y004356D01*
X013954Y004262D01*
X014100Y004115D01*
X014204Y004073D01*
X014083Y004023D01*
X013929Y003868D01*
X013845Y003666D01*
X013845Y003447D01*
X013929Y003245D01*
X014083Y003090D01*
X014178Y003051D01*
X014089Y003014D01*
X013937Y002862D01*
X013884Y002734D01*
X013877Y002756D01*
X013840Y002829D01*
X013792Y002895D01*
X013734Y002953D01*
X013668Y003001D01*
X013595Y003038D01*
X013517Y003063D01*
X013445Y003075D01*
X013445Y002606D01*
X013345Y002606D01*
X013345Y002679D02*
X013445Y002679D01*
X013445Y002777D02*
X013345Y002777D01*
X013345Y002876D02*
X013445Y002876D01*
X013445Y002974D02*
X013345Y002974D01*
X013345Y003073D02*
X013445Y003073D01*
X013458Y003073D02*
X014125Y003073D01*
X014049Y002974D02*
X013704Y002974D01*
X013806Y002876D02*
X013951Y002876D01*
X013902Y002777D02*
X013866Y002777D01*
X014002Y003171D02*
X012788Y003171D01*
X012872Y003270D02*
X013918Y003270D01*
X013878Y003368D02*
X012912Y003368D01*
X012945Y003467D02*
X013845Y003467D01*
X013845Y003566D02*
X012945Y003566D01*
X012945Y003664D02*
X013845Y003664D01*
X013885Y003763D02*
X012905Y003763D01*
X012864Y003861D02*
X013926Y003861D01*
X014021Y003960D02*
X012769Y003960D01*
X012837Y004058D02*
X012953Y004058D01*
X013837Y004058D02*
X014170Y004058D01*
X014059Y004157D02*
X013915Y004157D01*
X013915Y004255D02*
X013961Y004255D01*
X013916Y004354D02*
X013915Y004354D01*
X014620Y004058D02*
X015170Y004058D01*
X015021Y003960D02*
X014769Y003960D01*
X014864Y003861D02*
X014926Y003861D01*
X014731Y004157D02*
X019960Y004157D01*
X019960Y004255D02*
X014829Y004255D01*
X015620Y004058D02*
X016170Y004058D01*
X016021Y003960D02*
X015769Y003960D01*
X015864Y003861D02*
X015926Y003861D01*
X015777Y004354D02*
X019960Y004354D01*
X019960Y004452D02*
X019611Y004452D01*
X019474Y004452D02*
X019416Y004452D01*
X019416Y004551D02*
X019474Y004551D01*
X019474Y004649D02*
X019416Y004649D01*
X019416Y004748D02*
X019474Y004748D01*
X019279Y004452D02*
X016278Y004452D01*
X016620Y004058D02*
X017170Y004058D01*
X017021Y003960D02*
X016769Y003960D01*
X016864Y003861D02*
X016926Y003861D01*
X017620Y004058D02*
X018170Y004058D01*
X018021Y003960D02*
X017769Y003960D01*
X017864Y003861D02*
X017926Y003861D01*
X018620Y004058D02*
X019170Y004058D01*
X019021Y003960D02*
X018769Y003960D01*
X018864Y003861D02*
X018926Y003861D01*
X019620Y004058D02*
X019960Y004058D01*
X019960Y003960D02*
X019769Y003960D01*
X019864Y003861D02*
X019960Y003861D01*
X019960Y003763D02*
X019905Y003763D01*
X019945Y003664D02*
X019960Y003664D01*
X019960Y003566D02*
X019945Y003566D01*
X019945Y003467D02*
X019960Y003467D01*
X019960Y003368D02*
X019912Y003368D01*
X019872Y003270D02*
X019960Y003270D01*
X019960Y003171D02*
X019788Y003171D01*
X019665Y003073D02*
X019960Y003073D01*
X019960Y002974D02*
X019741Y002974D01*
X019839Y002876D02*
X019960Y002876D01*
X019960Y002777D02*
X019888Y002777D01*
X019929Y002679D02*
X019960Y002679D01*
X019960Y002580D02*
X019935Y002580D01*
X019935Y002482D02*
X019960Y002482D01*
X019960Y002383D02*
X019908Y002383D01*
X019867Y002284D02*
X019960Y002284D01*
X019960Y002186D02*
X019788Y002186D01*
X019674Y002087D02*
X019960Y002087D01*
X019960Y001989D02*
X019726Y001989D01*
X019825Y001890D02*
X019960Y001890D01*
X019960Y001792D02*
X019882Y001792D01*
X019923Y001693D02*
X019960Y001693D01*
X019960Y001595D02*
X019935Y001595D01*
X019935Y001496D02*
X019960Y001496D01*
X019960Y001398D02*
X019914Y001398D01*
X019873Y001299D02*
X019960Y001299D01*
X019960Y001200D02*
X019803Y001200D01*
X019704Y001102D02*
X019960Y001102D01*
X019960Y001003D02*
X000815Y001003D01*
X001888Y002777D02*
X001924Y002777D01*
X001984Y002876D02*
X001839Y002876D01*
X001741Y002974D02*
X002086Y002974D01*
X002345Y002974D02*
X002445Y002974D01*
X002445Y002876D02*
X002345Y002876D01*
X012665Y003073D02*
X013332Y003073D01*
X013086Y002974D02*
X012741Y002974D01*
X012839Y002876D02*
X012984Y002876D01*
X012924Y002777D02*
X012888Y002777D01*
X013848Y001299D02*
X013917Y001299D01*
X013987Y001200D02*
X013775Y001200D01*
X013649Y001102D02*
X014086Y001102D01*
X014704Y001102D02*
X015086Y001102D01*
X014987Y001200D02*
X014803Y001200D01*
X014873Y001299D02*
X014917Y001299D01*
X015704Y001102D02*
X016086Y001102D01*
X015987Y001200D02*
X015803Y001200D01*
X015873Y001299D02*
X015917Y001299D01*
X016704Y001102D02*
X017086Y001102D01*
X016987Y001200D02*
X016803Y001200D01*
X016873Y001299D02*
X016917Y001299D01*
X017704Y001102D02*
X018086Y001102D01*
X017987Y001200D02*
X017803Y001200D01*
X017873Y001299D02*
X017917Y001299D01*
X018704Y001102D02*
X019086Y001102D01*
X018987Y001200D02*
X018803Y001200D01*
X018873Y001299D02*
X018917Y001299D01*
X019747Y004551D02*
X019960Y004551D01*
X019960Y004649D02*
X019813Y004649D01*
X019845Y004748D02*
X019960Y004748D01*
X017978Y006029D02*
X017363Y006029D01*
X017265Y006128D02*
X017888Y006128D01*
X017790Y006226D02*
X017166Y006226D01*
X017067Y006325D02*
X017728Y006325D01*
X017834Y005931D02*
X017462Y005931D01*
X017560Y005832D02*
X017746Y005832D01*
X019416Y008985D02*
X019474Y008985D01*
X019474Y009084D02*
X019416Y009084D01*
X019416Y009182D02*
X019474Y009182D01*
X019474Y009281D02*
X019416Y009281D01*
X019124Y009577D02*
X018551Y009577D01*
X018641Y009675D02*
X019234Y009675D01*
X019179Y009774D02*
X018682Y009774D01*
X013445Y001200D02*
X013345Y001200D01*
X013345Y001102D02*
X013445Y001102D01*
D16*
X013395Y003556D03*
X012395Y003556D03*
X011395Y003556D03*
X010395Y003556D03*
X009395Y003556D03*
X008395Y003556D03*
X007395Y003556D03*
X006395Y003556D03*
X003395Y003556D03*
X002395Y003556D03*
X001395Y003556D03*
X001395Y007556D03*
X002395Y007556D03*
X003395Y007556D03*
X004395Y007556D03*
X005395Y007556D03*
X005395Y008556D03*
X004395Y008556D03*
X003395Y008556D03*
X002395Y008556D03*
X001395Y008556D03*
X001395Y015506D03*
X002395Y015506D03*
X003395Y015506D03*
X004395Y015506D03*
X005395Y015506D03*
X005395Y016506D03*
X004395Y016506D03*
X003395Y016506D03*
X002395Y016506D03*
X001395Y016506D03*
X006395Y017556D03*
X007395Y017556D03*
X008395Y017556D03*
X009395Y017556D03*
X010395Y017556D03*
X011395Y017556D03*
X012395Y017556D03*
X013395Y017556D03*
X014395Y017556D03*
X015395Y017556D03*
X016395Y017556D03*
X017395Y017556D03*
X018395Y017556D03*
X019395Y017556D03*
X019395Y003556D03*
X018395Y003556D03*
X017395Y003556D03*
X016395Y003556D03*
X015395Y003556D03*
X014395Y003556D03*
D17*
X003545Y017356D03*
X001595Y019856D03*
D18*
X001195Y018556D03*
X005295Y018556D03*
X005295Y017656D03*
X005295Y019456D03*
X014395Y016556D03*
X014395Y015556D03*
X014395Y014556D03*
X014395Y013556D03*
X014395Y011956D03*
X014395Y010956D03*
X014395Y009956D03*
X014395Y008956D03*
X014395Y007556D03*
X014395Y006556D03*
X014395Y005556D03*
X014395Y004556D03*
X018195Y004556D03*
X018195Y005556D03*
X018195Y006556D03*
X018195Y007556D03*
X018195Y008956D03*
X018195Y009956D03*
X018195Y010956D03*
X018195Y011956D03*
X018195Y013556D03*
X018195Y014556D03*
X018195Y015556D03*
X018195Y016556D03*
X005045Y006356D03*
X005045Y004856D03*
X004895Y003806D03*
X004445Y001606D03*
X005345Y001606D03*
X001545Y004856D03*
X001545Y006356D03*
D19*
X000845Y004706D02*
X000845Y017256D01*
X002645Y017256D01*
X003045Y017656D01*
X003045Y019806D01*
X003345Y020106D01*
X013845Y020106D01*
X014395Y019556D01*
X014395Y017556D02*
X015145Y016806D01*
X015145Y016306D01*
X014395Y015556D01*
X015809Y015556D01*
X015895Y015470D01*
X017281Y015470D01*
X018195Y014556D01*
X017245Y013606D01*
X017245Y011606D01*
X016595Y010956D01*
X017595Y009956D01*
X017245Y009606D01*
X017245Y007006D01*
X016639Y006400D01*
X017482Y005556D01*
X018195Y005556D01*
X019389Y005556D01*
X019445Y005613D01*
X019445Y006400D02*
X019289Y006556D01*
X018195Y006556D01*
X018195Y007556D02*
X019076Y007556D01*
X019445Y007187D01*
X016639Y006400D02*
X015895Y006400D01*
X015801Y006306D01*
X014445Y006306D01*
X014395Y006356D01*
X014395Y006556D01*
X014395Y005556D02*
X015839Y005556D01*
X015895Y005613D01*
X015895Y004825D02*
X015626Y004556D01*
X014395Y004556D01*
X014395Y008956D02*
X015526Y008956D01*
X015895Y009325D01*
X015739Y009956D02*
X015895Y010113D01*
X015739Y009956D02*
X014395Y009956D01*
X014395Y010956D02*
X015839Y010956D01*
X015895Y010900D01*
X016539Y010900D01*
X016595Y010956D01*
X017595Y009956D02*
X018195Y009956D01*
X018351Y010113D01*
X019445Y010113D01*
X019445Y010900D02*
X019389Y010956D01*
X018195Y010956D01*
X018195Y011956D02*
X019176Y011956D01*
X019445Y011687D01*
X018195Y014556D02*
X018321Y014683D01*
X019445Y014683D01*
X019445Y015470D02*
X019359Y015556D01*
X018195Y015556D01*
X018494Y016257D02*
X018195Y016556D01*
X018494Y016257D02*
X019445Y016257D01*
X015895Y014683D02*
X015769Y014556D01*
X014395Y014556D01*
X014395Y013556D02*
X015556Y013556D01*
X015895Y013895D01*
X001395Y004156D02*
X001395Y003556D01*
X001395Y004156D02*
X000845Y004706D01*
D20*
X006395Y004556D03*
X007395Y004556D03*
X008395Y004556D03*
X009395Y004556D03*
X010395Y004556D03*
X011395Y004556D03*
X012395Y004556D03*
X013395Y004556D03*
X013395Y005556D03*
X012395Y005556D03*
X011395Y005556D03*
X010395Y005556D03*
X009395Y005556D03*
X008395Y005556D03*
X007395Y005556D03*
X006395Y005556D03*
X006395Y006556D03*
X006395Y007556D03*
X007395Y007556D03*
X007395Y006556D03*
X008395Y006556D03*
X009395Y006556D03*
X009395Y007556D03*
X008395Y007556D03*
X008395Y008556D03*
X007395Y008556D03*
X006395Y008556D03*
X006395Y009556D03*
X006395Y010556D03*
X007395Y010556D03*
X007395Y009556D03*
X008395Y009556D03*
X009395Y009556D03*
X009395Y010556D03*
X008395Y010556D03*
X008395Y011556D03*
X007395Y011556D03*
X006395Y011556D03*
X006395Y012556D03*
X007395Y012556D03*
X008395Y012556D03*
X009395Y012556D03*
X009395Y011556D03*
X010395Y011556D03*
X011395Y011556D03*
X011395Y010556D03*
X011395Y009556D03*
X010395Y009556D03*
X010395Y010556D03*
X010395Y008556D03*
X011395Y008556D03*
X011395Y007556D03*
X011395Y006556D03*
X010395Y006556D03*
X010395Y007556D03*
X009395Y008556D03*
X012395Y008556D03*
X013395Y008556D03*
X013395Y007556D03*
X013395Y006556D03*
X012395Y006556D03*
X012395Y007556D03*
X012395Y009556D03*
X013395Y009556D03*
X013395Y010556D03*
X012395Y010556D03*
X012395Y011556D03*
X013395Y011556D03*
X013395Y012556D03*
X012395Y012556D03*
X011395Y012556D03*
X010395Y012556D03*
X010395Y013556D03*
X011395Y013556D03*
X011395Y014556D03*
X010395Y014556D03*
X009395Y014556D03*
X009395Y013556D03*
X008395Y013556D03*
X007395Y013556D03*
X007395Y014556D03*
X008395Y014556D03*
X008395Y015556D03*
X007395Y015556D03*
X006395Y015556D03*
X006395Y014556D03*
X006395Y013556D03*
X009395Y015556D03*
X010395Y015556D03*
X011395Y015556D03*
X012395Y015556D03*
X013395Y015556D03*
X013395Y014556D03*
X013395Y013556D03*
X012395Y013556D03*
X012395Y014556D03*
X012395Y016556D03*
X013395Y016556D03*
X011395Y016556D03*
X010395Y016556D03*
X009395Y016556D03*
X008395Y016556D03*
X007395Y016556D03*
X006395Y016556D03*
M02*
