G75*
G70*
%OFA0B0*%
%FSLAX24Y24*%
%IPPOS*%
%LPD*%
%AMOC8*
5,1,8,0,0,1.08239X$1,22.5*
%
%ADD10C,0.0000*%
%ADD11C,0.0320*%
%ADD12C,0.0030*%
%ADD13R,0.0070X0.0010*%
%ADD14R,0.0130X0.0010*%
%ADD15R,0.0190X0.0010*%
%ADD16R,0.0250X0.0010*%
%ADD17R,0.0150X0.0010*%
%ADD18R,0.0310X0.0010*%
%ADD19R,0.0170X0.0010*%
%ADD20R,0.0290X0.0010*%
%ADD21R,0.0240X0.0010*%
%ADD22R,0.0380X0.0010*%
%ADD23R,0.0180X0.0010*%
%ADD24R,0.0340X0.0010*%
%ADD25R,0.0420X0.0010*%
%ADD26R,0.0370X0.0010*%
%ADD27R,0.0330X0.0010*%
%ADD28R,0.0470X0.0010*%
%ADD29R,0.0400X0.0010*%
%ADD30R,0.0210X0.0010*%
%ADD31R,0.0360X0.0010*%
%ADD32R,0.0500X0.0010*%
%ADD33R,0.0430X0.0010*%
%ADD34R,0.0230X0.0010*%
%ADD35R,0.0390X0.0010*%
%ADD36R,0.0540X0.0010*%
%ADD37R,0.0450X0.0010*%
%ADD38R,0.0570X0.0010*%
%ADD39R,0.0440X0.0010*%
%ADD40R,0.0610X0.0010*%
%ADD41R,0.0490X0.0010*%
%ADD42R,0.0460X0.0010*%
%ADD43R,0.0630X0.0010*%
%ADD44R,0.0510X0.0010*%
%ADD45R,0.0270X0.0010*%
%ADD46R,0.0480X0.0010*%
%ADD47R,0.0660X0.0010*%
%ADD48R,0.0530X0.0010*%
%ADD49R,0.0690X0.0010*%
%ADD50R,0.0550X0.0010*%
%ADD51R,0.0280X0.0010*%
%ADD52R,0.0520X0.0010*%
%ADD53R,0.0710X0.0010*%
%ADD54R,0.0560X0.0010*%
%ADD55R,0.0730X0.0010*%
%ADD56R,0.0580X0.0010*%
%ADD57R,0.0750X0.0010*%
%ADD58R,0.0590X0.0010*%
%ADD59R,0.0300X0.0010*%
%ADD60R,0.0770X0.0010*%
%ADD61R,0.0790X0.0010*%
%ADD62R,0.0260X0.0010*%
%ADD63R,0.0810X0.0010*%
%ADD64R,0.0320X0.0010*%
%ADD65R,0.0830X0.0010*%
%ADD66R,0.0220X0.0010*%
%ADD67R,0.0350X0.0010*%
%ADD68R,0.0200X0.0010*%
%ADD69R,0.0600X0.0010*%
%ADD70R,0.0620X0.0010*%
%ADD71R,0.0410X0.0010*%
%ADD72R,0.0640X0.0010*%
%ADD73R,0.0650X0.0010*%
%ADD74R,0.0670X0.0010*%
%ADD75R,0.0160X0.0010*%
%ADD76R,0.0120X0.0010*%
%ADD77R,0.0140X0.0010*%
%ADD78R,0.0060X0.0010*%
%ADD79R,0.0040X0.0010*%
%ADD80R,0.0100X0.0010*%
%ADD81R,0.0110X0.0010*%
%ADD82R,0.0820X0.0010*%
%ADD83R,0.0700X0.0010*%
%ADD84R,0.0090X0.0010*%
%ADD85R,0.0880X0.0010*%
%ADD86R,0.0900X0.0010*%
%ADD87R,0.0080X0.0010*%
%ADD88C,0.0080*%
%ADD89C,0.0010*%
D10*
X000645Y000806D02*
X000645Y020301D01*
X020130Y020291D01*
X020130Y000806D01*
X000645Y000806D01*
D11*
X001395Y001556D02*
X001395Y003556D01*
X002395Y003556D02*
X002395Y001556D01*
X003395Y001556D02*
X003395Y003556D01*
X006395Y003556D02*
X006395Y001556D01*
X007395Y001556D02*
X007395Y003556D01*
X008395Y003556D02*
X008395Y001556D01*
X009395Y001556D02*
X009395Y003556D01*
X010395Y003556D02*
X010395Y001556D01*
X011395Y001556D02*
X011395Y003556D01*
X012395Y003556D02*
X012395Y001556D01*
X013395Y001556D02*
X013395Y003556D01*
X014395Y003556D02*
X014395Y001556D01*
X015395Y001556D02*
X015395Y003556D01*
X016395Y003556D02*
X016395Y001556D01*
X017395Y001556D02*
X017395Y003556D01*
X018395Y003556D02*
X018395Y001556D01*
X019395Y001556D02*
X019395Y003556D01*
X019395Y017556D02*
X019395Y019556D01*
X018395Y019556D02*
X018395Y017556D01*
X017395Y017556D02*
X017395Y019556D01*
X016395Y019556D02*
X016395Y017556D01*
X015395Y017556D02*
X015395Y019556D01*
X014395Y019556D02*
X014395Y017556D01*
X013395Y017556D02*
X013395Y019556D01*
X012395Y019556D02*
X012395Y017556D01*
X011395Y017556D02*
X011395Y019556D01*
X010395Y019556D02*
X010395Y017556D01*
X009395Y017556D02*
X009395Y019556D01*
X008395Y019556D02*
X008395Y017556D01*
X007395Y017556D02*
X007395Y019556D01*
X006395Y019556D02*
X006395Y017556D01*
D12*
X005702Y014916D02*
X005508Y014722D01*
X005460Y014770D01*
X005460Y014867D01*
X005508Y014916D01*
X005702Y014916D01*
X005750Y014867D01*
X005750Y014770D01*
X005702Y014722D01*
X005508Y014722D01*
X005508Y014623D02*
X005460Y014623D01*
X005460Y014575D01*
X005508Y014575D01*
X005508Y014623D01*
X005460Y014474D02*
X005460Y014280D01*
X005460Y014377D02*
X005750Y014377D01*
X005654Y014280D01*
X005654Y014179D02*
X005460Y014082D01*
X005654Y013986D01*
X005605Y013590D02*
X005557Y013590D01*
X005557Y013396D01*
X005605Y013396D02*
X005654Y013445D01*
X005654Y013541D01*
X005605Y013590D01*
X005460Y013541D02*
X005460Y013445D01*
X005508Y013396D01*
X005605Y013396D01*
X005654Y013295D02*
X005460Y013198D01*
X005654Y013102D01*
X005605Y013000D02*
X005654Y012952D01*
X005654Y012855D01*
X005605Y012807D01*
X005508Y012807D01*
X005460Y012855D01*
X005460Y012952D01*
X005508Y013000D01*
X005605Y013000D01*
X005654Y012707D02*
X005654Y012658D01*
X005557Y012561D01*
X005460Y012561D02*
X005654Y012561D01*
X005702Y012460D02*
X005750Y012412D01*
X005750Y012315D01*
X005702Y012267D01*
X005508Y012267D01*
X005460Y012315D01*
X005460Y012412D01*
X005508Y012460D01*
X005605Y012460D01*
X005605Y012364D01*
X005605Y012166D02*
X005654Y012117D01*
X005654Y012020D01*
X005605Y011972D01*
X005508Y011972D01*
X005460Y012020D01*
X005460Y012117D01*
X005508Y012166D01*
X005605Y012166D01*
X005654Y011872D02*
X005654Y011776D01*
X005702Y011824D02*
X005508Y011824D01*
X005460Y011872D01*
X005508Y011675D02*
X005460Y011626D01*
X005460Y011529D01*
X005508Y011481D01*
X005605Y011481D01*
X005654Y011529D01*
X005654Y011626D01*
X005605Y011675D01*
X005508Y011675D01*
X005299Y011439D02*
X005250Y011439D01*
X005154Y011439D02*
X004960Y011439D01*
X004960Y011391D02*
X004960Y011488D01*
X005008Y011587D02*
X005105Y011587D01*
X005154Y011636D01*
X005154Y011732D01*
X005105Y011781D01*
X005057Y011781D01*
X005057Y011587D01*
X005008Y011587D02*
X004960Y011636D01*
X004960Y011732D01*
X004960Y011882D02*
X005154Y011882D01*
X005154Y012027D01*
X005105Y012075D01*
X004960Y012075D01*
X004960Y012471D02*
X004960Y012665D01*
X005008Y012766D02*
X005105Y012766D01*
X005154Y012814D01*
X005154Y012911D01*
X005105Y012959D01*
X005057Y012959D01*
X005057Y012766D01*
X005008Y012766D02*
X004960Y012814D01*
X004960Y012911D01*
X004960Y013061D02*
X004960Y013157D01*
X004960Y013109D02*
X005250Y013109D01*
X005250Y013061D01*
X005105Y013257D02*
X005008Y013257D01*
X004960Y013305D01*
X004960Y013402D01*
X005008Y013450D01*
X005105Y013450D01*
X005154Y013402D01*
X005154Y013305D01*
X005105Y013257D01*
X005154Y013552D02*
X004960Y013552D01*
X004960Y013745D02*
X005105Y013745D01*
X005154Y013697D01*
X005154Y013552D01*
X005105Y013846D02*
X005008Y013846D01*
X004960Y013895D01*
X004960Y014040D01*
X004912Y014040D02*
X005154Y014040D01*
X005154Y013895D01*
X005105Y013846D01*
X004863Y013943D02*
X004863Y013991D01*
X004912Y014040D01*
X004960Y012471D02*
X005250Y012471D01*
X005154Y011439D02*
X005154Y011391D01*
X005154Y011291D02*
X005154Y011195D01*
X005202Y011243D02*
X005008Y011243D01*
X004960Y011291D01*
X005008Y011093D02*
X005057Y011045D01*
X005057Y010948D01*
X005105Y010900D01*
X005154Y010948D01*
X005154Y011093D01*
X005008Y011093D02*
X004960Y011045D01*
X004960Y010900D01*
X004960Y010799D02*
X004960Y010654D01*
X005008Y010605D01*
X005057Y010654D01*
X005057Y010799D01*
X005105Y010799D02*
X004960Y010799D01*
X005105Y010799D02*
X005154Y010750D01*
X005154Y010654D01*
X005105Y010504D02*
X005008Y010504D01*
X004960Y010456D01*
X004960Y010311D01*
X005250Y010311D01*
X005154Y010311D02*
X005154Y010456D01*
X005105Y010504D01*
X005105Y010209D02*
X005057Y010209D01*
X005057Y010016D01*
X005105Y010016D02*
X005154Y010064D01*
X005154Y010161D01*
X005105Y010209D01*
X004960Y010161D02*
X004960Y010064D01*
X005008Y010016D01*
X005105Y010016D01*
X005057Y009915D02*
X005008Y009915D01*
X004960Y009866D01*
X004960Y009770D01*
X005008Y009721D01*
X005105Y009770D02*
X005105Y009866D01*
X005057Y009915D01*
X005202Y009915D02*
X005250Y009866D01*
X005250Y009770D01*
X005202Y009721D01*
X005154Y009721D01*
X005105Y009770D01*
X005460Y009762D02*
X005460Y009859D01*
X005460Y009811D02*
X005654Y009811D01*
X005654Y009762D01*
X005750Y009811D02*
X005799Y009811D01*
X005654Y009959D02*
X005654Y010104D01*
X005605Y010152D01*
X005460Y010152D01*
X005460Y010253D02*
X005460Y010350D01*
X005460Y010302D02*
X005654Y010302D01*
X005654Y010253D01*
X005750Y010302D02*
X005799Y010302D01*
X005750Y010450D02*
X005654Y010547D01*
X005557Y010547D01*
X005460Y010450D01*
X005460Y010941D02*
X005750Y010941D01*
X005750Y011086D01*
X005702Y011134D01*
X005605Y011134D01*
X005557Y011086D01*
X005557Y010941D01*
X005557Y011236D02*
X005654Y011332D01*
X005654Y011381D01*
X005654Y011236D02*
X005460Y011236D01*
X005460Y009959D02*
X005654Y009959D01*
X005605Y009661D02*
X005460Y009661D01*
X005460Y009564D02*
X005605Y009564D01*
X005654Y009613D01*
X005605Y009661D01*
X005605Y009564D02*
X005654Y009516D01*
X005654Y009468D01*
X005460Y009468D01*
X005460Y009368D02*
X005557Y009271D01*
X005654Y009271D01*
X005750Y009368D01*
X003992Y011721D02*
X003868Y011721D01*
X003806Y011783D01*
X003806Y011845D01*
X003868Y011906D01*
X003992Y011906D01*
X004053Y011968D01*
X004053Y012030D01*
X003992Y012092D01*
X003868Y012092D01*
X003806Y012030D01*
X003685Y012030D02*
X003685Y011968D01*
X003623Y011906D01*
X003500Y011906D01*
X003438Y011845D01*
X003438Y011783D01*
X003500Y011721D01*
X003623Y011721D01*
X003685Y011783D01*
X003685Y012030D02*
X003623Y012092D01*
X003500Y012092D01*
X003438Y012030D01*
X003317Y012030D02*
X003317Y011783D01*
X003255Y011721D01*
X003131Y011721D01*
X003070Y011783D01*
X003070Y012030D01*
X003131Y012092D01*
X003255Y012092D01*
X003317Y012030D01*
X002948Y012092D02*
X002948Y011721D01*
X002948Y011845D02*
X002763Y011845D01*
X002701Y011906D01*
X002701Y012030D01*
X002763Y012092D01*
X002948Y012092D01*
X001900Y012140D02*
X001852Y012188D01*
X001658Y011995D01*
X001610Y012043D01*
X001610Y012140D01*
X001658Y012188D01*
X001852Y012188D01*
X001900Y012140D02*
X001900Y012043D01*
X001852Y011995D01*
X001658Y011995D01*
X001755Y011893D02*
X001755Y011700D01*
X001804Y011599D02*
X001852Y011599D01*
X001900Y011550D01*
X001900Y011454D01*
X001852Y011405D01*
X001804Y011599D02*
X001610Y011405D01*
X001610Y011599D01*
X001449Y011487D02*
X001400Y011487D01*
X001304Y011487D02*
X001062Y011487D01*
X001013Y011438D01*
X001013Y011390D01*
X001158Y011586D02*
X001207Y011635D01*
X001207Y011780D01*
X001255Y011780D02*
X001110Y011780D01*
X001110Y011635D01*
X001158Y011586D01*
X001304Y011635D02*
X001304Y011732D01*
X001255Y011780D01*
X001110Y011881D02*
X001110Y011978D01*
X001110Y011929D02*
X001400Y011929D01*
X001400Y011881D01*
X001304Y012078D02*
X001158Y012078D01*
X001110Y012126D01*
X001110Y012271D01*
X001304Y012271D01*
X001304Y012372D02*
X001304Y012421D01*
X001110Y012421D01*
X001110Y012469D02*
X001110Y012372D01*
X001110Y012569D02*
X001304Y012569D01*
X001304Y012714D01*
X001255Y012762D01*
X001110Y012762D01*
X001158Y012863D02*
X001110Y012912D01*
X001110Y013008D01*
X001158Y013057D01*
X001255Y013057D01*
X001304Y013008D01*
X001304Y012912D01*
X001255Y012863D01*
X001158Y012863D01*
X001158Y013158D02*
X001110Y013158D01*
X001110Y013206D01*
X001158Y013206D01*
X001158Y013158D01*
X001158Y013305D02*
X001110Y013354D01*
X001110Y013450D01*
X001158Y013499D01*
X001255Y013499D01*
X001304Y013450D01*
X001304Y013354D01*
X001255Y013305D01*
X001158Y013305D01*
X001110Y013600D02*
X001304Y013600D01*
X001304Y013697D02*
X001304Y013745D01*
X001304Y013697D02*
X001207Y013600D01*
X001255Y013845D02*
X001158Y013845D01*
X001110Y013894D01*
X001110Y014039D01*
X001062Y014039D02*
X001304Y014039D01*
X001304Y013894D01*
X001255Y013845D01*
X001013Y013942D02*
X001013Y013990D01*
X001062Y014039D01*
X001658Y013367D02*
X001610Y013318D01*
X001610Y013221D01*
X001658Y013173D01*
X001755Y013173D02*
X001804Y013270D01*
X001804Y013318D01*
X001755Y013367D01*
X001658Y013367D01*
X001755Y013173D02*
X001900Y013173D01*
X001900Y013367D01*
X001852Y013072D02*
X001658Y013072D01*
X001610Y013024D01*
X001610Y012927D01*
X001658Y012878D01*
X001852Y013072D01*
X001900Y013024D01*
X001900Y012927D01*
X001852Y012878D01*
X001658Y012878D01*
X001755Y012777D02*
X001755Y012584D01*
X001610Y012483D02*
X001610Y012289D01*
X001610Y012386D02*
X001900Y012386D01*
X001804Y012289D01*
X001449Y012421D02*
X001400Y012421D01*
X001400Y011289D02*
X001110Y011095D01*
X001110Y010801D02*
X001400Y010994D01*
X001610Y010961D02*
X001610Y010864D01*
X001658Y010816D01*
X001852Y011009D01*
X001658Y011009D01*
X001610Y010961D01*
X001610Y011111D02*
X001610Y011304D01*
X001610Y011207D02*
X001900Y011207D01*
X001804Y011111D01*
X001852Y011009D02*
X001900Y010961D01*
X001900Y010864D01*
X001852Y010816D01*
X001658Y010816D01*
X001610Y010715D02*
X001610Y010521D01*
X001804Y010715D01*
X001852Y010715D01*
X001900Y010666D01*
X001900Y010570D01*
X001852Y010521D01*
X001304Y010504D02*
X001255Y010552D01*
X001158Y010552D01*
X001110Y010504D01*
X001110Y010359D01*
X001013Y010359D02*
X001304Y010359D01*
X001304Y010504D01*
X001304Y010653D02*
X001255Y010653D01*
X001255Y010702D01*
X001304Y010702D01*
X001304Y010653D01*
X001158Y010653D02*
X001110Y010653D01*
X001110Y010702D01*
X001158Y010702D01*
X001158Y010653D01*
X001110Y010259D02*
X001158Y010211D01*
X001352Y010211D01*
X001304Y010259D02*
X001304Y010162D01*
X001304Y010063D02*
X001304Y009966D01*
X001352Y010014D02*
X001158Y010014D01*
X001110Y010063D01*
X001110Y009865D02*
X001255Y009865D01*
X001304Y009816D01*
X001304Y009720D01*
X001255Y009671D01*
X001400Y009671D02*
X001110Y009671D01*
X003992Y011721D02*
X004053Y011783D01*
D13*
X003515Y006616D03*
X003515Y006606D03*
X003505Y006576D03*
X003495Y006546D03*
X003495Y006536D03*
X003485Y006506D03*
X003475Y006476D03*
X003475Y006466D03*
X003465Y006436D03*
X003455Y006406D03*
X003455Y006396D03*
X003025Y006346D03*
X002045Y005886D03*
X003425Y004796D03*
X004135Y004806D03*
X004825Y004806D03*
D14*
X004825Y005486D03*
X004135Y004816D03*
X003795Y005846D03*
X003755Y005996D03*
X003555Y006106D03*
X003275Y006246D03*
X003425Y006356D03*
X003145Y006456D03*
X003025Y006736D03*
X003475Y006976D03*
X003695Y006786D03*
X004025Y006036D03*
X003005Y005956D03*
X002785Y004806D03*
X002045Y004806D03*
D15*
X002785Y004856D03*
X002785Y004866D03*
X002785Y004876D03*
X002785Y004886D03*
X002785Y004896D03*
X002785Y004906D03*
X002785Y004916D03*
X002785Y004926D03*
X002785Y004936D03*
X002785Y004946D03*
X002785Y004956D03*
X002785Y004966D03*
X002785Y004976D03*
X002785Y004986D03*
X002785Y004996D03*
X002785Y005006D03*
X002785Y005016D03*
X002785Y005026D03*
X002785Y005036D03*
X002785Y005046D03*
X002785Y005056D03*
X002785Y005066D03*
X002785Y005076D03*
X002785Y005086D03*
X002785Y005096D03*
X002785Y005106D03*
X002785Y005116D03*
X002785Y005126D03*
X002785Y005136D03*
X002785Y005146D03*
X002785Y005156D03*
X002785Y005166D03*
X002785Y005176D03*
X002785Y005186D03*
X002785Y005196D03*
X002785Y005206D03*
X002785Y005216D03*
X002785Y005226D03*
X002785Y005236D03*
X002785Y005246D03*
X002795Y005276D03*
X002795Y005286D03*
X003175Y005226D03*
X003175Y005216D03*
X003175Y005206D03*
X003165Y005176D03*
X003165Y005166D03*
X003165Y005156D03*
X003165Y005136D03*
X003165Y005126D03*
X003175Y005086D03*
X003175Y005076D03*
X003425Y004806D03*
X003675Y005066D03*
X003675Y005076D03*
X003685Y005086D03*
X003685Y005096D03*
X003685Y005106D03*
X003685Y005116D03*
X003685Y005186D03*
X003685Y005196D03*
X003685Y005206D03*
X003675Y005226D03*
X003955Y005336D03*
X003955Y005346D03*
X003955Y005356D03*
X003945Y005366D03*
X003945Y005376D03*
X003945Y005386D03*
X003935Y005416D03*
X003925Y005446D03*
X003965Y005326D03*
X003965Y005316D03*
X003965Y005306D03*
X003975Y005286D03*
X003975Y005276D03*
X003985Y005256D03*
X003985Y005246D03*
X003995Y005206D03*
X004005Y005176D03*
X004015Y005146D03*
X004255Y005156D03*
X004255Y005166D03*
X004265Y005186D03*
X004265Y005196D03*
X004275Y005216D03*
X004275Y005226D03*
X004275Y005236D03*
X004285Y005246D03*
X004285Y005256D03*
X004285Y005266D03*
X004295Y005276D03*
X004295Y005286D03*
X004295Y005296D03*
X004295Y005306D03*
X004305Y005316D03*
X004305Y005326D03*
X004315Y005346D03*
X004315Y005356D03*
X004315Y005366D03*
X004325Y005386D03*
X004325Y005396D03*
X004335Y005426D03*
X004335Y005436D03*
X004335Y005446D03*
X004595Y005256D03*
X004595Y005246D03*
X004595Y005236D03*
X004605Y005266D03*
X004605Y005036D03*
X004825Y004816D03*
X004825Y005476D03*
X004135Y004846D03*
X003415Y005546D03*
X003415Y005556D03*
X003415Y005566D03*
X003415Y005576D03*
X003415Y005586D03*
X003415Y005596D03*
X003415Y005606D03*
X003415Y005616D03*
X003415Y005626D03*
X003415Y005636D03*
X003415Y005646D03*
X003415Y005656D03*
X003415Y005666D03*
X003405Y005716D03*
X003405Y005726D03*
X003405Y005736D03*
X003405Y005746D03*
X003405Y005756D03*
X003405Y005766D03*
X003405Y005776D03*
X003405Y005786D03*
X003405Y005796D03*
X003405Y005806D03*
X003405Y005816D03*
X003405Y005826D03*
X003405Y005836D03*
X003405Y005846D03*
X003405Y005856D03*
X003405Y005866D03*
X003405Y005876D03*
X003405Y005886D03*
X003405Y005896D03*
X003405Y005906D03*
X003405Y005916D03*
X003405Y005926D03*
X003405Y005936D03*
X003405Y005946D03*
X003405Y005956D03*
X003575Y006086D03*
X003575Y006696D03*
D16*
X003585Y006726D03*
X003585Y007036D03*
X003025Y006706D03*
X002885Y005406D03*
X003235Y005306D03*
X003425Y004816D03*
X004135Y004886D03*
X004135Y004896D03*
X002425Y005136D03*
X002425Y005146D03*
X002425Y005156D03*
X002415Y005116D03*
X002405Y005096D03*
X002395Y005086D03*
X002045Y004816D03*
X001705Y005076D03*
X001695Y005086D03*
X001695Y005596D03*
X001695Y005606D03*
D17*
X002925Y005466D03*
X003005Y005966D03*
X003285Y006256D03*
X003135Y006446D03*
X003485Y006986D03*
X003585Y007066D03*
X003685Y006986D03*
X004005Y006046D03*
X004005Y005836D03*
X004135Y004826D03*
X002785Y004816D03*
D18*
X002415Y005196D03*
X002045Y004826D03*
X001765Y005026D03*
X002845Y005786D03*
X003425Y005466D03*
X004135Y004976D03*
X004135Y004966D03*
X003085Y006366D03*
X003075Y006376D03*
X003025Y006676D03*
X003585Y007006D03*
D19*
X003495Y006776D03*
X003675Y006776D03*
X003025Y006726D03*
X003565Y006096D03*
X003915Y005756D03*
X004335Y005466D03*
X004135Y004836D03*
X002785Y004826D03*
D20*
X002345Y005036D03*
X002425Y005186D03*
X002335Y005656D03*
X002045Y005866D03*
X001755Y005656D03*
X001745Y005036D03*
X003255Y005316D03*
X003425Y004826D03*
X004135Y004936D03*
X004135Y004946D03*
X004825Y004836D03*
X004825Y005456D03*
X003915Y005796D03*
X003405Y006016D03*
X003105Y006356D03*
X003025Y006686D03*
X003585Y006736D03*
X003585Y006746D03*
X003585Y007016D03*
D21*
X003580Y006716D03*
X003400Y005996D03*
X003030Y005996D03*
X002840Y006076D03*
X002840Y005756D03*
X002890Y005416D03*
X003420Y005496D03*
X003620Y005306D03*
X003630Y005296D03*
X003630Y004996D03*
X003230Y004996D03*
X002420Y005126D03*
X002410Y005106D03*
X002350Y005636D03*
X001680Y005586D03*
X001680Y005576D03*
X001670Y005566D03*
X001680Y005106D03*
X001690Y005096D03*
X003910Y005776D03*
X005010Y005306D03*
X004830Y004826D03*
D22*
X003430Y005446D03*
X002270Y005686D03*
X001820Y005686D03*
X002050Y004836D03*
D23*
X002780Y004836D03*
X002780Y004846D03*
X002790Y005256D03*
X002790Y005266D03*
X002920Y005456D03*
X003170Y005196D03*
X003170Y005186D03*
X003160Y005146D03*
X003170Y005116D03*
X003170Y005106D03*
X003170Y005096D03*
X003410Y005676D03*
X003410Y005686D03*
X003410Y005696D03*
X003410Y005706D03*
X003240Y006076D03*
X002840Y006096D03*
X002840Y005736D03*
X003680Y005216D03*
X003690Y005176D03*
X003690Y005166D03*
X003690Y005156D03*
X003690Y005146D03*
X003690Y005136D03*
X003690Y005126D03*
X003990Y005216D03*
X003990Y005226D03*
X003990Y005236D03*
X003980Y005266D03*
X003970Y005296D03*
X004000Y005196D03*
X004000Y005186D03*
X004010Y005166D03*
X004010Y005156D03*
X004250Y005146D03*
X004260Y005176D03*
X004270Y005206D03*
X004340Y005456D03*
X003930Y005456D03*
D24*
X003430Y004836D03*
X002840Y005806D03*
X003340Y006326D03*
X003040Y006416D03*
X004830Y005446D03*
D25*
X004830Y005416D03*
X004830Y004876D03*
X002050Y004846D03*
D26*
X002045Y005856D03*
X003425Y004846D03*
X004135Y005056D03*
X004135Y005066D03*
X004135Y005076D03*
X004825Y005436D03*
D27*
X004825Y004846D03*
X004135Y004996D03*
X004135Y005006D03*
X004135Y005016D03*
X003915Y005826D03*
X003035Y006016D03*
X003055Y006396D03*
X003045Y006406D03*
X003025Y006656D03*
X003025Y006666D03*
X003585Y006766D03*
X003585Y006996D03*
X002305Y005676D03*
X001785Y005676D03*
D28*
X002045Y004856D03*
X003425Y004886D03*
X004825Y005396D03*
D29*
X004830Y005426D03*
X004130Y005116D03*
X003430Y004856D03*
D30*
X003205Y005026D03*
X003195Y005036D03*
X003195Y005266D03*
X003205Y005276D03*
X002905Y005436D03*
X003415Y005526D03*
X003415Y005536D03*
X003655Y005266D03*
X003665Y005256D03*
X003655Y005026D03*
X004135Y004856D03*
X004625Y005006D03*
X004595Y005216D03*
X004615Y005286D03*
X005035Y005276D03*
X005045Y005266D03*
X005055Y005236D03*
X005055Y005226D03*
X003405Y005986D03*
X003235Y006066D03*
X003025Y006716D03*
X003585Y007056D03*
X001635Y005496D03*
X001625Y005476D03*
X001625Y005466D03*
X001625Y005456D03*
X001615Y005436D03*
X001615Y005426D03*
X001605Y005366D03*
X001605Y005356D03*
X001605Y005346D03*
X001605Y005336D03*
X001605Y005326D03*
X001615Y005266D03*
X001615Y005256D03*
X001615Y005246D03*
X001625Y005226D03*
X001625Y005216D03*
X001625Y005206D03*
X001635Y005196D03*
X001635Y005186D03*
X001645Y005166D03*
D31*
X002290Y005006D03*
X003390Y006266D03*
X004830Y004856D03*
D32*
X004830Y004916D03*
X002320Y005216D03*
X002300Y005336D03*
X002050Y004866D03*
D33*
X002285Y005376D03*
X003425Y004866D03*
D34*
X003215Y005006D03*
X003635Y005006D03*
X003225Y005296D03*
X003215Y005286D03*
X003415Y005506D03*
X002895Y005426D03*
X002825Y005316D03*
X003585Y006076D03*
X003735Y006026D03*
X003915Y006106D03*
X004605Y005076D03*
X004645Y004986D03*
X004135Y004876D03*
X004135Y004866D03*
X003585Y007046D03*
X001665Y005556D03*
X001655Y005546D03*
X001655Y005536D03*
X001655Y005146D03*
X001665Y005126D03*
X001675Y005116D03*
D35*
X004135Y005106D03*
X004135Y005096D03*
X004135Y005086D03*
X004825Y004866D03*
D36*
X004830Y005356D03*
X003430Y005376D03*
X002050Y004876D03*
D37*
X002295Y005366D03*
X003425Y004876D03*
X004825Y005406D03*
D38*
X004825Y005336D03*
X004775Y005086D03*
X003425Y005356D03*
X002045Y004886D03*
D39*
X003430Y005426D03*
X004830Y004886D03*
D40*
X003425Y004966D03*
X003425Y005326D03*
X002045Y004896D03*
D41*
X002325Y005206D03*
X002305Y005346D03*
X002045Y005826D03*
X003425Y004896D03*
X004825Y005386D03*
D42*
X004830Y004896D03*
X003430Y005416D03*
X002050Y005836D03*
D43*
X002045Y004906D03*
X004805Y005116D03*
D44*
X004825Y005376D03*
X003425Y005396D03*
X003425Y004906D03*
X002315Y005226D03*
X002315Y005236D03*
X002305Y005326D03*
D45*
X002425Y005176D03*
X002425Y005166D03*
X002365Y005056D03*
X002845Y005326D03*
X002875Y005376D03*
X002845Y005766D03*
X003035Y006006D03*
X003235Y006056D03*
X003025Y006696D03*
X002345Y005646D03*
X001735Y005046D03*
X001725Y005056D03*
X004135Y004916D03*
X004135Y004906D03*
D46*
X004830Y004906D03*
X003430Y005406D03*
X002300Y005356D03*
D47*
X002050Y004916D03*
X004820Y005146D03*
X004820Y005156D03*
D48*
X004825Y005366D03*
X004825Y004936D03*
X003425Y004916D03*
X002315Y005246D03*
X002315Y005256D03*
X002315Y005266D03*
X002315Y005276D03*
X002045Y005816D03*
D49*
X002045Y004926D03*
D50*
X003425Y004926D03*
X004825Y004946D03*
X004825Y004956D03*
X004825Y005346D03*
D51*
X004140Y004926D03*
X003600Y005316D03*
X003420Y005476D03*
X002870Y005366D03*
X002870Y005356D03*
X002860Y005346D03*
X002860Y005336D03*
X002360Y005046D03*
X001740Y005646D03*
X001730Y005636D03*
X003590Y007026D03*
X003910Y006086D03*
X003730Y006036D03*
D52*
X003430Y005386D03*
X002310Y005316D03*
X002310Y005306D03*
X002310Y005296D03*
X002310Y005286D03*
X004830Y004926D03*
D53*
X002045Y004936D03*
D54*
X002050Y005806D03*
X003430Y005366D03*
X003430Y004936D03*
X004820Y004966D03*
D55*
X002045Y004946D03*
X002045Y005746D03*
D56*
X003430Y004946D03*
X004830Y005326D03*
D57*
X002045Y004956D03*
X002045Y005736D03*
D58*
X003425Y005346D03*
X003425Y004956D03*
D59*
X003270Y004976D03*
X003590Y004976D03*
X004130Y004956D03*
X003910Y005806D03*
X003910Y006076D03*
X002840Y006056D03*
X002840Y005776D03*
X002330Y005026D03*
D60*
X002045Y004966D03*
X002045Y005726D03*
D61*
X002045Y005716D03*
X002045Y004976D03*
D62*
X001710Y005066D03*
X001710Y005616D03*
X001720Y005626D03*
X002380Y005066D03*
X002390Y005076D03*
X002880Y005386D03*
X002880Y005396D03*
X003240Y004986D03*
X003610Y004986D03*
X003420Y005486D03*
X003400Y006006D03*
X002840Y006066D03*
X003910Y006096D03*
X003910Y005786D03*
X004660Y005316D03*
X004830Y005466D03*
X004990Y005316D03*
X004660Y004976D03*
D63*
X002045Y004986D03*
X002045Y005706D03*
D64*
X001770Y005666D03*
X002320Y005666D03*
X002840Y005796D03*
X002850Y006046D03*
X003060Y006386D03*
X003590Y006756D03*
X003910Y005816D03*
X004140Y004986D03*
X002320Y005016D03*
X001780Y005016D03*
D65*
X002045Y004996D03*
X003485Y006046D03*
D66*
X003420Y005516D03*
X003640Y005286D03*
X003650Y005276D03*
X003650Y005016D03*
X003210Y005016D03*
X002350Y005626D03*
X002050Y005876D03*
X001650Y005526D03*
X001640Y005516D03*
X001640Y005506D03*
X001630Y005486D03*
X001640Y005176D03*
X001650Y005156D03*
X001660Y005136D03*
X002840Y005746D03*
X002840Y006086D03*
X003580Y006706D03*
X004640Y005306D03*
X004630Y005296D03*
X005020Y005296D03*
X005030Y005286D03*
X005050Y005216D03*
X004630Y004996D03*
D67*
X004135Y005026D03*
X004135Y005036D03*
X004135Y005046D03*
X003425Y005456D03*
X003385Y006276D03*
X003385Y006286D03*
X003375Y006296D03*
X003365Y006306D03*
X003355Y006316D03*
X003035Y006426D03*
X003035Y006436D03*
X001805Y005006D03*
D68*
X001620Y005236D03*
X001610Y005276D03*
X001610Y005286D03*
X001610Y005296D03*
X001610Y005306D03*
X001610Y005316D03*
X001610Y005376D03*
X001610Y005386D03*
X001610Y005396D03*
X001610Y005406D03*
X001610Y005416D03*
X001620Y005446D03*
X002350Y005616D03*
X002800Y005296D03*
X002810Y005306D03*
X002910Y005446D03*
X003190Y005256D03*
X003190Y005246D03*
X003180Y005236D03*
X003180Y005066D03*
X003180Y005056D03*
X003190Y005046D03*
X003660Y005036D03*
X003670Y005046D03*
X003670Y005056D03*
X003670Y005236D03*
X003670Y005246D03*
X003940Y005396D03*
X003940Y005406D03*
X003930Y005426D03*
X003930Y005436D03*
X004310Y005336D03*
X004320Y005376D03*
X004330Y005406D03*
X004330Y005416D03*
X004610Y005276D03*
X004590Y005226D03*
X004600Y005066D03*
X004600Y005056D03*
X004600Y005046D03*
X004610Y005026D03*
X004610Y005016D03*
X005050Y005246D03*
X005050Y005256D03*
X003910Y005766D03*
X003740Y006016D03*
X003910Y006116D03*
X003400Y005976D03*
X003400Y005966D03*
X003020Y005986D03*
X003400Y006336D03*
D69*
X003430Y005336D03*
X004790Y005096D03*
X002050Y005796D03*
D70*
X002050Y005786D03*
X003760Y006066D03*
X004800Y005106D03*
D71*
X004135Y005126D03*
X004135Y005136D03*
X003425Y005436D03*
X002045Y005846D03*
D72*
X004810Y005126D03*
D73*
X004815Y005136D03*
X003755Y006056D03*
X002045Y005776D03*
D74*
X002045Y005766D03*
X004825Y005206D03*
X004825Y005196D03*
X004825Y005186D03*
X004825Y005176D03*
X004825Y005166D03*
D75*
X003930Y005466D03*
X003820Y005836D03*
X003750Y006006D03*
X003910Y006126D03*
X003560Y006686D03*
X003410Y006346D03*
X003010Y005976D03*
X002350Y005606D03*
D76*
X002720Y005826D03*
X002720Y006006D03*
X002960Y005826D03*
X002970Y005836D03*
X003000Y005946D03*
X003250Y006096D03*
X003270Y006236D03*
X003520Y006246D03*
X003530Y006236D03*
X003760Y005986D03*
X003760Y005976D03*
X003780Y005866D03*
X003790Y005856D03*
X003910Y005746D03*
X004030Y005846D03*
X004040Y005856D03*
X004040Y006026D03*
X003540Y006676D03*
X003470Y006786D03*
X003460Y006796D03*
X003460Y006966D03*
X003710Y006966D03*
X003710Y006796D03*
X003150Y006626D03*
X003140Y006636D03*
X003150Y006466D03*
X002900Y006456D03*
X002940Y005476D03*
D77*
X002840Y005726D03*
X002730Y005816D03*
X002740Y006016D03*
X002840Y006106D03*
X002950Y005816D03*
X003250Y006086D03*
X003510Y006256D03*
X003130Y006646D03*
X002920Y006646D03*
X002920Y006446D03*
X003700Y006976D03*
X002350Y005596D03*
X003930Y005476D03*
X004340Y005476D03*
D78*
X002950Y005486D03*
X002840Y005716D03*
X002840Y006116D03*
X002340Y005566D03*
D79*
X002340Y005556D03*
D80*
X002340Y005576D03*
X002700Y005856D03*
X002690Y005876D03*
X002690Y005886D03*
X002690Y005896D03*
X002690Y005906D03*
X002690Y005916D03*
X002690Y005926D03*
X002690Y005936D03*
X002690Y005946D03*
X002690Y005956D03*
X002700Y005976D03*
X002980Y005856D03*
X002990Y005866D03*
X002990Y005876D03*
X002990Y005886D03*
X003000Y005916D03*
X003000Y005926D03*
X003000Y005936D03*
X003250Y006116D03*
X003250Y006126D03*
X003250Y006186D03*
X003250Y006196D03*
X003260Y006216D03*
X003200Y006346D03*
X003170Y006496D03*
X003170Y006506D03*
X003180Y006516D03*
X003180Y006526D03*
X003180Y006536D03*
X003180Y006546D03*
X003180Y006556D03*
X003180Y006566D03*
X003180Y006576D03*
X003170Y006586D03*
X003170Y006596D03*
X002890Y006616D03*
X002880Y006596D03*
X002870Y006576D03*
X002870Y006566D03*
X002870Y006556D03*
X002870Y006546D03*
X002870Y006536D03*
X002870Y006526D03*
X002870Y006516D03*
X002880Y006496D03*
X002890Y006476D03*
X003440Y006826D03*
X003440Y006836D03*
X003430Y006876D03*
X003430Y006886D03*
X003440Y006926D03*
X003440Y006936D03*
X003590Y007076D03*
X003730Y006936D03*
X003730Y006926D03*
X003730Y006916D03*
X003740Y006906D03*
X003740Y006896D03*
X003740Y006886D03*
X003740Y006876D03*
X003740Y006866D03*
X003740Y006856D03*
X003730Y006846D03*
X003730Y006836D03*
X003730Y006826D03*
X003530Y006656D03*
X003550Y006206D03*
X003550Y006196D03*
X003550Y006186D03*
X003550Y006176D03*
X003550Y006166D03*
X003550Y006156D03*
X003550Y006146D03*
X003550Y006136D03*
X003760Y005966D03*
X003760Y005956D03*
X003760Y005946D03*
X003760Y005936D03*
X003760Y005926D03*
X003760Y005916D03*
X003770Y005896D03*
X003770Y005886D03*
X004050Y005876D03*
X004060Y005886D03*
X004060Y005896D03*
X004060Y005986D03*
X004060Y005996D03*
X004050Y006006D03*
D81*
X004045Y006016D03*
X004045Y005866D03*
X003775Y005876D03*
X003765Y005906D03*
X003555Y006116D03*
X003555Y006126D03*
X003545Y006216D03*
X003535Y006226D03*
X003265Y006226D03*
X003255Y006106D03*
X003215Y006336D03*
X003165Y006476D03*
X003165Y006486D03*
X003165Y006606D03*
X003165Y006616D03*
X002905Y006636D03*
X002895Y006626D03*
X002885Y006606D03*
X002885Y006486D03*
X002895Y006466D03*
X002715Y005996D03*
X002705Y005986D03*
X002695Y005966D03*
X002695Y005866D03*
X002705Y005846D03*
X002715Y005836D03*
X002975Y005846D03*
X002345Y005586D03*
X003535Y006666D03*
X003455Y006806D03*
X003445Y006816D03*
X003445Y006946D03*
X003455Y006956D03*
X003715Y006956D03*
X003725Y006946D03*
X003725Y006816D03*
X003715Y006806D03*
D82*
X002050Y005696D03*
D83*
X002050Y005756D03*
D84*
X002875Y006506D03*
X002875Y006586D03*
X003255Y006206D03*
X003245Y006176D03*
X003245Y006166D03*
X003245Y006156D03*
X003245Y006146D03*
X003245Y006136D03*
X003445Y006366D03*
X003525Y006646D03*
X003435Y006846D03*
X003435Y006856D03*
X003435Y006866D03*
X003435Y006896D03*
X003435Y006906D03*
X003435Y006916D03*
X003915Y006136D03*
X004065Y005976D03*
X004065Y005966D03*
X004065Y005956D03*
X004065Y005946D03*
X004065Y005936D03*
X004065Y005926D03*
X004065Y005916D03*
X004065Y005906D03*
X002995Y005906D03*
X002995Y005896D03*
D85*
X003110Y006026D03*
D86*
X003130Y006036D03*
D87*
X003450Y006376D03*
X003450Y006386D03*
X003460Y006416D03*
X003460Y006426D03*
X003470Y006446D03*
X003470Y006456D03*
X003480Y006486D03*
X003480Y006496D03*
X003490Y006516D03*
X003490Y006526D03*
X003500Y006556D03*
X003500Y006566D03*
X003510Y006586D03*
X003510Y006596D03*
X003520Y006626D03*
X003520Y006636D03*
D88*
X004745Y011141D02*
X002045Y011141D01*
X002045Y011656D01*
X002075Y011658D01*
X002105Y011663D01*
X002134Y011672D01*
X002161Y011685D01*
X002187Y011700D01*
X002211Y011719D01*
X002232Y011740D01*
X002251Y011764D01*
X002266Y011790D01*
X002279Y011817D01*
X002288Y011846D01*
X002293Y011876D01*
X002295Y011906D01*
X002293Y011936D01*
X002288Y011966D01*
X002279Y011995D01*
X002266Y012022D01*
X002251Y012048D01*
X002232Y012072D01*
X002211Y012093D01*
X002187Y012112D01*
X002161Y012127D01*
X002134Y012140D01*
X002105Y012149D01*
X002075Y012154D01*
X002045Y012156D01*
X002045Y012671D01*
X004745Y012671D01*
X004745Y011141D01*
D89*
X003832Y011776D02*
X003832Y011901D01*
X003732Y011901D02*
X003732Y011776D01*
X003757Y011751D01*
X003807Y011751D01*
X003832Y011776D01*
X003685Y011776D02*
X003660Y011751D01*
X003610Y011751D01*
X003585Y011776D01*
X003585Y011801D01*
X003610Y011826D01*
X003660Y011826D01*
X003685Y011851D01*
X003685Y011876D01*
X003660Y011901D01*
X003610Y011901D01*
X003585Y011876D01*
X003537Y011876D02*
X003537Y011851D01*
X003512Y011826D01*
X003437Y011826D01*
X003437Y011776D02*
X003437Y011876D01*
X003462Y011901D01*
X003512Y011901D01*
X003537Y011876D01*
X003537Y011776D02*
X003512Y011751D01*
X003462Y011751D01*
X003437Y011776D01*
X003635Y011726D02*
X003635Y011926D01*
M02*
