G04 This is an RS-274x file exported by *
G04 gerbv version 2.3.0 *
G04 More information is available about gerbv at *
G04 http://gerbv.sourceforge.net/ *
G04 --End of header info--*
%MOIN*%
%FSLAX23Y23*%
%IPPOS*%
G04 --Define apertures--*
%ADD10C,0,0000*%
%ADD11C,0,0740*%
%ADD12R,0,0236X0,1535*%
%ADD13R,0,0880X0,0480*%
%ADD14R,0,0866X0,1417*%
%ADD15R,0,0394X0,0551*%
%ADD16R,0,0600X0,0300*%
%ADD17R,0,0515X0,0515*%
%ADD18C,0,0515*%
%ADD19C,0,0100*%
%ADD20C,0,0160*%
%ADD21C,0,0760*%
%ADD22C,0,0356*%
%ADD23C,0,0700*%
%ADD24R,0,0700X0,0700*%
G04 --Start main section--*
G54D10*
G01X00065Y00081D02*
G01X00065Y02030D01*
G01X00065Y02030D02*
G01X02013Y02029D01*
G01X02013Y02029D02*
G01X02013Y00081D01*
G01X02013Y00081D02*
G01X00065Y00081D01*
G54D11*
G01X00140Y00156D03*
G01X00240Y00156D03*
G01X00340Y00156D03*
G01X00340Y00256D03*
G01X00240Y00256D03*
G01X00140Y00256D03*
G01X00640Y00256D03*
G01X00640Y00156D03*
G01X00740Y00156D03*
G01X00840Y00156D03*
G01X00940Y00156D03*
G01X01040Y00156D03*
G01X01140Y00156D03*
G01X01240Y00156D03*
G01X01340Y00156D03*
G01X01440Y00156D03*
G01X01540Y00156D03*
G01X01640Y00156D03*
G01X01740Y00156D03*
G01X01840Y00156D03*
G01X01940Y00156D03*
G01X01940Y00256D03*
G01X01840Y00256D03*
G01X01740Y00256D03*
G01X01640Y00256D03*
G01X01540Y00256D03*
G01X01440Y00256D03*
G01X01340Y00256D03*
G01X01240Y00256D03*
G01X01140Y00256D03*
G01X01040Y00256D03*
G01X00940Y00256D03*
G01X00840Y00256D03*
G01X00740Y00256D03*
G01X00740Y01856D03*
G01X00840Y01856D03*
G01X00940Y01856D03*
G01X01040Y01856D03*
G01X01140Y01856D03*
G01X01240Y01856D03*
G01X01340Y01856D03*
G01X01440Y01856D03*
G01X01540Y01856D03*
G01X01640Y01856D03*
G01X01740Y01856D03*
G01X01840Y01856D03*
G01X01940Y01856D03*
G01X01940Y01956D03*
G01X01840Y01956D03*
G01X01740Y01956D03*
G01X01640Y01956D03*
G01X01540Y01956D03*
G01X01440Y01956D03*
G01X01340Y01956D03*
G01X01240Y01956D03*
G01X01140Y01956D03*
G01X01040Y01956D03*
G01X00940Y01956D03*
G01X00840Y01956D03*
G01X00740Y01956D03*
G01X00640Y01956D03*
G01X00640Y01856D03*
G54D12*
G01X00565Y01348D03*
G01X00515Y01348D03*
G01X00465Y01348D03*
G01X00415Y01348D03*
G01X00365Y01348D03*
G01X00315Y01348D03*
G01X00265Y01348D03*
G01X00215Y01348D03*
G01X00165Y01348D03*
G01X00115Y01348D03*
G01X00115Y01033D03*
G01X00165Y01033D03*
G01X00215Y01033D03*
G01X00265Y01033D03*
G01X00315Y01033D03*
G01X00365Y01033D03*
G01X00415Y01033D03*
G01X00465Y01033D03*
G01X00515Y01033D03*
G01X00565Y01033D03*
G54D13*
G01X00442Y01765D03*
G01X00442Y01856D03*
G01X00442Y01947D03*
G54D14*
G01X00198Y01856D03*
G54D15*
G01X00490Y00314D03*
G01X00452Y00227D03*
G01X00527Y00227D03*
G54D16*
G01X00430Y00486D03*
G01X00430Y00636D03*
G01X00230Y00636D03*
G01X00230Y00486D03*
G54D17*
G01X01590Y00483D03*
G01X01945Y00719D03*
G01X01590Y00933D03*
G01X01945Y01169D03*
G01X01590Y01390D03*
G01X01945Y01626D03*
G54D18*
G01X01945Y01547D03*
G01X01945Y01468D03*
G01X01945Y01390D03*
G01X01945Y01090D03*
G01X01945Y01011D03*
G01X01945Y00933D03*
G01X01945Y00640D03*
G01X01945Y00561D03*
G01X01945Y00483D03*
G01X01590Y00561D03*
G01X01590Y00640D03*
G01X01590Y00719D03*
G01X01590Y01011D03*
G01X01590Y01090D03*
G01X01590Y01169D03*
G01X01590Y01468D03*
G01X01590Y01547D03*
G01X01590Y01626D03*
G54D19*
G01X01587Y01628D02*
G01X01392Y01628D01*
G01X01392Y01638D02*
G01X01551Y01638D01*
G01X01550Y01635D02*
G01X01549Y01629D01*
G01X01549Y01629D02*
G01X01549Y01629D01*
G01X01549Y01629D02*
G01X01587Y01629D01*
G01X01587Y01629D02*
G01X01587Y01623D01*
G01X01587Y01623D02*
G01X01549Y01623D01*
G01X01549Y01623D02*
G01X01549Y01623D01*
G01X01549Y01623D02*
G01X01550Y01616D01*
G01X01550Y01616D02*
G01X01552Y01610D01*
G01X01552Y01610D02*
G01X01555Y01604D01*
G01X01555Y01604D02*
G01X01558Y01599D01*
G01X01558Y01599D02*
G01X01563Y01595D01*
G01X01563Y01595D02*
G01X01568Y01591D01*
G01X01568Y01591D02*
G01X01574Y01588D01*
G01X01574Y01588D02*
G01X01576Y01588D01*
G01X01576Y01588D02*
G01X01565Y01583D01*
G01X01565Y01583D02*
G01X01553Y01571D01*
G01X01553Y01571D02*
G01X01547Y01556D01*
G01X01547Y01556D02*
G01X01547Y01539D01*
G01X01547Y01539D02*
G01X01553Y01523D01*
G01X01553Y01523D02*
G01X01565Y01511D01*
G01X01565Y01511D02*
G01X01573Y01508D01*
G01X01573Y01508D02*
G01X01565Y01505D01*
G01X01565Y01505D02*
G01X01553Y01493D01*
G01X01553Y01493D02*
G01X01547Y01477D01*
G01X01547Y01477D02*
G01X01547Y01460D01*
G01X01547Y01460D02*
G01X01553Y01444D01*
G01X01553Y01444D02*
G01X01565Y01432D01*
G01X01565Y01432D02*
G01X01557Y01432D01*
G01X01557Y01432D02*
G01X01547Y01422D01*
G01X01547Y01422D02*
G01X01547Y01357D01*
G01X01547Y01357D02*
G01X01557Y01347D01*
G01X01557Y01347D02*
G01X01622Y01347D01*
G01X01622Y01347D02*
G01X01632Y01357D01*
G01X01632Y01357D02*
G01X01632Y01422D01*
G01X01632Y01422D02*
G01X01622Y01432D01*
G01X01622Y01432D02*
G01X01614Y01432D01*
G01X01614Y01432D02*
G01X01626Y01444D01*
G01X01626Y01444D02*
G01X01632Y01460D01*
G01X01632Y01460D02*
G01X01632Y01477D01*
G01X01632Y01477D02*
G01X01626Y01493D01*
G01X01626Y01493D02*
G01X01614Y01505D01*
G01X01614Y01505D02*
G01X01606Y01508D01*
G01X01606Y01508D02*
G01X01614Y01511D01*
G01X01614Y01511D02*
G01X01626Y01523D01*
G01X01626Y01523D02*
G01X01632Y01539D01*
G01X01632Y01539D02*
G01X01632Y01556D01*
G01X01632Y01556D02*
G01X01626Y01571D01*
G01X01626Y01571D02*
G01X01614Y01583D01*
G01X01614Y01583D02*
G01X01604Y01588D01*
G01X01604Y01588D02*
G01X01605Y01588D01*
G01X01605Y01588D02*
G01X01611Y01591D01*
G01X01611Y01591D02*
G01X01616Y01595D01*
G01X01616Y01595D02*
G01X01621Y01599D01*
G01X01621Y01599D02*
G01X01624Y01604D01*
G01X01624Y01604D02*
G01X01627Y01610D01*
G01X01627Y01610D02*
G01X01629Y01616D01*
G01X01629Y01616D02*
G01X01630Y01623D01*
G01X01630Y01623D02*
G01X01630Y01623D01*
G01X01630Y01623D02*
G01X01592Y01623D01*
G01X01592Y01623D02*
G01X01592Y01629D01*
G01X01592Y01629D02*
G01X01630Y01629D01*
G01X01630Y01629D02*
G01X01630Y01629D01*
G01X01630Y01629D02*
G01X01629Y01635D01*
G01X01629Y01635D02*
G01X01627Y01641D01*
G01X01627Y01641D02*
G01X01624Y01647D01*
G01X01624Y01647D02*
G01X01621Y01652D01*
G01X01621Y01652D02*
G01X01616Y01657D01*
G01X01616Y01657D02*
G01X01611Y01661D01*
G01X01611Y01661D02*
G01X01605Y01664D01*
G01X01605Y01664D02*
G01X01599Y01666D01*
G01X01599Y01666D02*
G01X01593Y01667D01*
G01X01593Y01667D02*
G01X01592Y01667D01*
G01X01592Y01667D02*
G01X01592Y01629D01*
G01X01592Y01629D02*
G01X01587Y01629D01*
G01X01587Y01629D02*
G01X01587Y01667D01*
G01X01587Y01667D02*
G01X01586Y01667D01*
G01X01586Y01667D02*
G01X01580Y01666D01*
G01X01580Y01666D02*
G01X01574Y01664D01*
G01X01574Y01664D02*
G01X01568Y01661D01*
G01X01568Y01661D02*
G01X01563Y01657D01*
G01X01563Y01657D02*
G01X01558Y01652D01*
G01X01558Y01652D02*
G01X01555Y01647D01*
G01X01555Y01647D02*
G01X01552Y01641D01*
G01X01552Y01641D02*
G01X01550Y01635D01*
G01X01555Y01648D02*
G01X01392Y01648D01*
G01X01392Y01657D02*
G01X01564Y01657D01*
G01X01587Y01657D02*
G01X01592Y01657D01*
G01X01592Y01648D02*
G01X01587Y01648D01*
G01X01587Y01638D02*
G01X01592Y01638D01*
G01X01592Y01628D02*
G01X01775Y01628D01*
G01X01775Y01626D02*
G01X01790Y01612D01*
G01X01790Y01612D02*
G01X01804Y01606D01*
G01X01804Y01606D02*
G01X01790Y01600D01*
G01X01790Y01600D02*
G01X01775Y01585D01*
G01X01775Y01585D02*
G01X01768Y01566D01*
G01X01768Y01566D02*
G01X01768Y01545D01*
G01X01768Y01545D02*
G01X01775Y01526D01*
G01X01775Y01526D02*
G01X01790Y01512D01*
G01X01790Y01512D02*
G01X01804Y01506D01*
G01X01804Y01506D02*
G01X01790Y01500D01*
G01X01790Y01500D02*
G01X01619Y01500D01*
G01X01611Y01510D02*
G01X01795Y01510D01*
G01X01790Y01500D02*
G01X01775Y01485D01*
G01X01775Y01485D02*
G01X01768Y01466D01*
G01X01768Y01466D02*
G01X01768Y01445D01*
G01X01768Y01445D02*
G01X01775Y01426D01*
G01X01775Y01426D02*
G01X01790Y01412D01*
G01X01790Y01412D02*
G01X01809Y01404D01*
G01X01809Y01404D02*
G01X01830Y01404D01*
G01X01830Y01404D02*
G01X01849Y01412D01*
G01X01849Y01412D02*
G01X01864Y01426D01*
G01X01864Y01426D02*
G01X01872Y01445D01*
G01X01872Y01445D02*
G01X01872Y01466D01*
G01X01872Y01466D02*
G01X01864Y01485D01*
G01X01864Y01485D02*
G01X01849Y01500D01*
G01X01849Y01500D02*
G01X01835Y01506D01*
G01X01835Y01506D02*
G01X01849Y01512D01*
G01X01849Y01512D02*
G01X01864Y01526D01*
G01X01864Y01526D02*
G01X01872Y01545D01*
G01X01872Y01545D02*
G01X01872Y01566D01*
G01X01872Y01566D02*
G01X01864Y01585D01*
G01X01864Y01585D02*
G01X01849Y01600D01*
G01X01849Y01600D02*
G01X01835Y01606D01*
G01X01835Y01606D02*
G01X01849Y01612D01*
G01X01849Y01612D02*
G01X01864Y01626D01*
G01X01864Y01626D02*
G01X01872Y01645D01*
G01X01872Y01645D02*
G01X01872Y01666D01*
G01X01872Y01666D02*
G01X01864Y01685D01*
G01X01864Y01685D02*
G01X01849Y01700D01*
G01X01849Y01700D02*
G01X01847Y01701D01*
G01X01847Y01701D02*
G01X01850Y01701D01*
G01X01850Y01701D02*
G01X01871Y01709D01*
G01X01871Y01709D02*
G01X01886Y01725D01*
G01X01886Y01725D02*
G01X01890Y01733D01*
G01X01890Y01733D02*
G01X01893Y01725D01*
G01X01893Y01725D02*
G01X01908Y01709D01*
G01X01908Y01709D02*
G01X01929Y01701D01*
G01X01929Y01701D02*
G01X01950Y01701D01*
G01X01950Y01701D02*
G01X01971Y01709D01*
G01X01971Y01709D02*
G01X01986Y01725D01*
G01X01986Y01725D02*
G01X01995Y01745D01*
G01X01995Y01745D02*
G01X01995Y01767D01*
G01X01995Y01767D02*
G01X01986Y01787D01*
G01X01986Y01787D02*
G01X01971Y01802D01*
G01X01971Y01802D02*
G01X01965Y01805D01*
G01X01965Y01805D02*
G01X01965Y01808D01*
G01X01965Y01808D02*
G01X01970Y01810D01*
G01X01970Y01810D02*
G01X01985Y01825D01*
G01X01985Y01825D02*
G01X01994Y01845D01*
G01X01994Y01845D02*
G01X01994Y01866D01*
G01X01994Y01866D02*
G01X01985Y01886D01*
G01X01985Y01886D02*
G01X01970Y01901D01*
G01X01970Y01901D02*
G01X01965Y01904D01*
G01X01965Y01904D02*
G01X01965Y01908D01*
G01X01965Y01908D02*
G01X01970Y01910D01*
G01X01970Y01910D02*
G01X01985Y01925D01*
G01X01985Y01925D02*
G01X01994Y01945D01*
G01X01994Y01945D02*
G01X01994Y01966D01*
G01X01994Y01966D02*
G01X01985Y01986D01*
G01X01985Y01986D02*
G01X01970Y02001D01*
G01X01970Y02001D02*
G01X01950Y02010D01*
G01X01950Y02010D02*
G01X01929Y02010D01*
G01X01929Y02010D02*
G01X01909Y02001D01*
G01X01909Y02001D02*
G01X01894Y01986D01*
G01X01894Y01986D02*
G01X01890Y01976D01*
G01X01890Y01976D02*
G01X01885Y01986D01*
G01X01885Y01986D02*
G01X01870Y02001D01*
G01X01870Y02001D02*
G01X01850Y02010D01*
G01X01850Y02010D02*
G01X01829Y02010D01*
G01X01829Y02010D02*
G01X01809Y02001D01*
G01X01809Y02001D02*
G01X01794Y01986D01*
G01X01794Y01986D02*
G01X01790Y01976D01*
G01X01790Y01976D02*
G01X01785Y01986D01*
G01X01785Y01986D02*
G01X01770Y02001D01*
G01X01770Y02001D02*
G01X01750Y02010D01*
G01X01750Y02010D02*
G01X01729Y02010D01*
G01X01729Y02010D02*
G01X01709Y02001D01*
G01X01709Y02001D02*
G01X01694Y01986D01*
G01X01694Y01986D02*
G01X01690Y01976D01*
G01X01690Y01976D02*
G01X01685Y01986D01*
G01X01685Y01986D02*
G01X01670Y02001D01*
G01X01670Y02001D02*
G01X01650Y02010D01*
G01X01650Y02010D02*
G01X01629Y02010D01*
G01X01629Y02010D02*
G01X01609Y02001D01*
G01X01609Y02001D02*
G01X01594Y01986D01*
G01X01594Y01986D02*
G01X01588Y01973D01*
G01X01588Y01973D02*
G01X01588Y01976D01*
G01X01588Y01976D02*
G01X01584Y01983D01*
G01X01584Y01983D02*
G01X01579Y01990D01*
G01X01579Y01990D02*
G01X01573Y01995D01*
G01X01573Y01995D02*
G01X01567Y02000D01*
G01X01567Y02000D02*
G01X01560Y02004D01*
G01X01560Y02004D02*
G01X01552Y02006D01*
G01X01552Y02006D02*
G01X01545Y02007D01*
G01X01545Y02007D02*
G01X01545Y01961D01*
G01X01545Y01961D02*
G01X01535Y01961D01*
G01X01535Y01961D02*
G01X01535Y02007D01*
G01X01535Y02007D02*
G01X01527Y02006D01*
G01X01527Y02006D02*
G01X01520Y02004D01*
G01X01520Y02004D02*
G01X01512Y02000D01*
G01X01512Y02000D02*
G01X01506Y01995D01*
G01X01506Y01995D02*
G01X01500Y01990D01*
G01X01500Y01990D02*
G01X01495Y01983D01*
G01X01495Y01983D02*
G01X01491Y01976D01*
G01X01491Y01976D02*
G01X01491Y01973D01*
G01X01491Y01973D02*
G01X01485Y01986D01*
G01X01485Y01986D02*
G01X01470Y02001D01*
G01X01470Y02001D02*
G01X01450Y02010D01*
G01X01450Y02010D02*
G01X01429Y02010D01*
G01X01429Y02010D02*
G01X01409Y02001D01*
G01X01409Y02001D02*
G01X01394Y01986D01*
G01X01394Y01986D02*
G01X01390Y01976D01*
G01X01390Y01976D02*
G01X01385Y01986D01*
G01X01385Y01986D02*
G01X01370Y02001D01*
G01X01370Y02001D02*
G01X01350Y02010D01*
G01X01350Y02010D02*
G01X01329Y02010D01*
G01X01329Y02010D02*
G01X01309Y02001D01*
G01X01309Y02001D02*
G01X01294Y01986D01*
G01X01294Y01986D02*
G01X01290Y01976D01*
G01X01290Y01976D02*
G01X01285Y01986D01*
G01X01285Y01986D02*
G01X01270Y02001D01*
G01X01270Y02001D02*
G01X01250Y02010D01*
G01X01250Y02010D02*
G01X01229Y02010D01*
G01X01229Y02010D02*
G01X01209Y02001D01*
G01X01209Y02001D02*
G01X01194Y01986D01*
G01X01194Y01986D02*
G01X01190Y01976D01*
G01X01190Y01976D02*
G01X01185Y01986D01*
G01X01185Y01986D02*
G01X01170Y02001D01*
G01X01170Y02001D02*
G01X01150Y02010D01*
G01X01150Y02010D02*
G01X01129Y02010D01*
G01X01129Y02010D02*
G01X01109Y02001D01*
G01X01109Y02001D02*
G01X01094Y01986D01*
G01X01094Y01986D02*
G01X01090Y01976D01*
G01X01090Y01976D02*
G01X01085Y01986D01*
G01X01085Y01986D02*
G01X01070Y02001D01*
G01X01070Y02001D02*
G01X01050Y02010D01*
G01X01050Y02010D02*
G01X01029Y02010D01*
G01X01029Y02010D02*
G01X01009Y02001D01*
G01X01009Y02001D02*
G01X00994Y01986D01*
G01X00994Y01986D02*
G01X00990Y01976D01*
G01X00990Y01976D02*
G01X00985Y01986D01*
G01X00985Y01986D02*
G01X00970Y02001D01*
G01X00970Y02001D02*
G01X00950Y02010D01*
G01X00950Y02010D02*
G01X00929Y02010D01*
G01X00929Y02010D02*
G01X00909Y02001D01*
G01X00909Y02001D02*
G01X00894Y01986D01*
G01X00894Y01986D02*
G01X00890Y01976D01*
G01X00890Y01976D02*
G01X00885Y01986D01*
G01X00885Y01986D02*
G01X00870Y02001D01*
G01X00870Y02001D02*
G01X00850Y02010D01*
G01X00850Y02010D02*
G01X00829Y02010D01*
G01X00829Y02010D02*
G01X00809Y02001D01*
G01X00809Y02001D02*
G01X00794Y01986D01*
G01X00794Y01986D02*
G01X00790Y01976D01*
G01X00790Y01976D02*
G01X00785Y01986D01*
G01X00785Y01986D02*
G01X00770Y02001D01*
G01X00770Y02001D02*
G01X00750Y02010D01*
G01X00750Y02010D02*
G01X00729Y02010D01*
G01X00729Y02010D02*
G01X00709Y02001D01*
G01X00709Y02001D02*
G01X00694Y01986D01*
G01X00694Y01986D02*
G01X00690Y01976D01*
G01X00690Y01976D02*
G01X00685Y01986D01*
G01X00685Y01986D02*
G01X00670Y02001D01*
G01X00670Y02001D02*
G01X00650Y02010D01*
G01X00650Y02010D02*
G01X00629Y02010D01*
G01X00629Y02010D02*
G01X00609Y02001D01*
G01X00609Y02001D02*
G01X00594Y01986D01*
G01X00594Y01986D02*
G01X00586Y01966D01*
G01X00586Y01966D02*
G01X00586Y01945D01*
G01X00586Y01945D02*
G01X00594Y01925D01*
G01X00594Y01925D02*
G01X00609Y01910D01*
G01X00609Y01910D02*
G01X00615Y01908D01*
G01X00615Y01908D02*
G01X00615Y01904D01*
G01X00615Y01904D02*
G01X00609Y01901D01*
G01X00609Y01901D02*
G01X00594Y01886D01*
G01X00594Y01886D02*
G01X00586Y01866D01*
G01X00586Y01866D02*
G01X00586Y01845D01*
G01X00586Y01845D02*
G01X00594Y01825D01*
G01X00594Y01825D02*
G01X00609Y01810D01*
G01X00609Y01810D02*
G01X00615Y01808D01*
G01X00615Y01808D02*
G01X00615Y01805D01*
G01X00615Y01805D02*
G01X00608Y01802D01*
G01X00608Y01802D02*
G01X00593Y01787D01*
G01X00593Y01787D02*
G01X00585Y01767D01*
G01X00585Y01767D02*
G01X00585Y01745D01*
G01X00585Y01745D02*
G01X00593Y01725D01*
G01X00593Y01725D02*
G01X00608Y01709D01*
G01X00608Y01709D02*
G01X00612Y01708D01*
G01X00612Y01708D02*
G01X00598Y01708D01*
G01X00598Y01708D02*
G01X00588Y01698D01*
G01X00588Y01698D02*
G01X00588Y01678D01*
G01X00588Y01678D02*
G01X00586Y01682D01*
G01X00586Y01682D02*
G01X00571Y01697D01*
G01X00571Y01697D02*
G01X00550Y01706D01*
G01X00550Y01706D02*
G01X00529Y01706D01*
G01X00529Y01706D02*
G01X00508Y01697D01*
G01X00508Y01697D02*
G01X00493Y01682D01*
G01X00493Y01682D02*
G01X00490Y01674D01*
G01X00490Y01674D02*
G01X00486Y01682D01*
G01X00486Y01682D02*
G01X00471Y01697D01*
G01X00471Y01697D02*
G01X00450Y01706D01*
G01X00450Y01706D02*
G01X00429Y01706D01*
G01X00429Y01706D02*
G01X00408Y01697D01*
G01X00408Y01697D02*
G01X00393Y01682D01*
G01X00393Y01682D02*
G01X00390Y01674D01*
G01X00390Y01674D02*
G01X00386Y01682D01*
G01X00386Y01682D02*
G01X00371Y01697D01*
G01X00371Y01697D02*
G01X00350Y01706D01*
G01X00350Y01706D02*
G01X00329Y01706D01*
G01X00329Y01706D02*
G01X00308Y01697D01*
G01X00308Y01697D02*
G01X00293Y01682D01*
G01X00293Y01682D02*
G01X00290Y01674D01*
G01X00290Y01674D02*
G01X00286Y01682D01*
G01X00286Y01682D02*
G01X00271Y01697D01*
G01X00271Y01697D02*
G01X00250Y01706D01*
G01X00250Y01706D02*
G01X00229Y01706D01*
G01X00229Y01706D02*
G01X00208Y01697D01*
G01X00208Y01697D02*
G01X00193Y01682D01*
G01X00193Y01682D02*
G01X00190Y01674D01*
G01X00190Y01674D02*
G01X00186Y01682D01*
G01X00186Y01682D02*
G01X00171Y01697D01*
G01X00171Y01697D02*
G01X00150Y01706D01*
G01X00150Y01706D02*
G01X00129Y01706D01*
G01X00129Y01706D02*
G01X00108Y01697D01*
G01X00108Y01697D02*
G01X00093Y01682D01*
G01X00093Y01682D02*
G01X00085Y01662D01*
G01X00085Y01662D02*
G01X00085Y01640D01*
G01X00085Y01640D02*
G01X00093Y01620D01*
G01X00093Y01620D02*
G01X00108Y01604D01*
G01X00108Y01604D02*
G01X00117Y01601D01*
G01X00117Y01601D02*
G01X00108Y01597D01*
G01X00108Y01597D02*
G01X00093Y01582D01*
G01X00093Y01582D02*
G01X00085Y01562D01*
G01X00085Y01562D02*
G01X00085Y01540D01*
G01X00085Y01540D02*
G01X00093Y01520D01*
G01X00093Y01520D02*
G01X00108Y01504D01*
G01X00108Y01504D02*
G01X00118Y01500D01*
G01X00118Y01500D02*
G01X00118Y01465D01*
G01X00118Y01465D02*
G01X00093Y01440D01*
G01X00093Y01440D02*
G01X00093Y01439D01*
G01X00093Y01439D02*
G01X00086Y01432D01*
G01X00086Y01432D02*
G01X00086Y01264D01*
G01X00086Y01264D02*
G01X00096Y01254D01*
G01X00096Y01254D02*
G01X00133Y01254D01*
G01X00133Y01254D02*
G01X00140Y01261D01*
G01X00140Y01261D02*
G01X00146Y01254D01*
G01X00146Y01254D02*
G01X00183Y01254D01*
G01X00183Y01254D02*
G01X00190Y01261D01*
G01X00190Y01261D02*
G01X00196Y01254D01*
G01X00196Y01254D02*
G01X00233Y01254D01*
G01X00233Y01254D02*
G01X00240Y01261D01*
G01X00240Y01261D02*
G01X00246Y01254D01*
G01X00246Y01254D02*
G01X00283Y01254D01*
G01X00283Y01254D02*
G01X00290Y01261D01*
G01X00290Y01261D02*
G01X00296Y01254D01*
G01X00296Y01254D02*
G01X00333Y01254D01*
G01X00333Y01254D02*
G01X00340Y01261D01*
G01X00340Y01261D02*
G01X00346Y01254D01*
G01X00346Y01254D02*
G01X00383Y01254D01*
G01X00383Y01254D02*
G01X00390Y01261D01*
G01X00390Y01261D02*
G01X00396Y01254D01*
G01X00396Y01254D02*
G01X00433Y01254D01*
G01X00433Y01254D02*
G01X00440Y01261D01*
G01X00440Y01261D02*
G01X00446Y01254D01*
G01X00446Y01254D02*
G01X00483Y01254D01*
G01X00483Y01254D02*
G01X00490Y01261D01*
G01X00490Y01261D02*
G01X00496Y01254D01*
G01X00496Y01254D02*
G01X00533Y01254D01*
G01X00533Y01254D02*
G01X00540Y01261D01*
G01X00540Y01261D02*
G01X00546Y01254D01*
G01X00546Y01254D02*
G01X00583Y01254D01*
G01X00583Y01254D02*
G01X00588Y01259D01*
G01X00588Y01259D02*
G01X00588Y01214D01*
G01X00588Y01214D02*
G01X00596Y01206D01*
G01X00596Y01206D02*
G01X00588Y01198D01*
G01X00588Y01198D02*
G01X00588Y01123D01*
G01X00588Y01123D02*
G01X00583Y01127D01*
G01X00583Y01127D02*
G01X00546Y01127D01*
G01X00546Y01127D02*
G01X00540Y01121D01*
G01X00540Y01121D02*
G01X00533Y01127D01*
G01X00533Y01127D02*
G01X00496Y01127D01*
G01X00496Y01127D02*
G01X00490Y01121D01*
G01X00490Y01121D02*
G01X00483Y01127D01*
G01X00483Y01127D02*
G01X00446Y01127D01*
G01X00446Y01127D02*
G01X00440Y01121D01*
G01X00440Y01121D02*
G01X00433Y01127D01*
G01X00433Y01127D02*
G01X00396Y01127D01*
G01X00396Y01127D02*
G01X00390Y01121D01*
G01X00390Y01121D02*
G01X00383Y01127D01*
G01X00383Y01127D02*
G01X00346Y01127D01*
G01X00346Y01127D02*
G01X00340Y01121D01*
G01X00340Y01121D02*
G01X00333Y01127D01*
G01X00333Y01127D02*
G01X00296Y01127D01*
G01X00296Y01127D02*
G01X00290Y01121D01*
G01X00290Y01121D02*
G01X00283Y01127D01*
G01X00283Y01127D02*
G01X00246Y01127D01*
G01X00246Y01127D02*
G01X00240Y01121D01*
G01X00240Y01121D02*
G01X00233Y01127D01*
G01X00233Y01127D02*
G01X00196Y01127D01*
G01X00196Y01127D02*
G01X00190Y01121D01*
G01X00190Y01121D02*
G01X00183Y01127D01*
G01X00183Y01127D02*
G01X00146Y01127D01*
G01X00146Y01127D02*
G01X00140Y01121D01*
G01X00140Y01121D02*
G01X00133Y01127D01*
G01X00133Y01127D02*
G01X00096Y01127D01*
G01X00096Y01127D02*
G01X00086Y01117D01*
G01X00086Y01117D02*
G01X00086Y00949D01*
G01X00086Y00949D02*
G01X00093Y00943D01*
G01X00093Y00943D02*
G01X00093Y00890D01*
G01X00093Y00890D02*
G01X00093Y00886D01*
G01X00093Y00886D02*
G01X00085Y00867D01*
G01X00085Y00867D02*
G01X00085Y00845D01*
G01X00085Y00845D02*
G01X00093Y00825D01*
G01X00093Y00825D02*
G01X00108Y00809D01*
G01X00108Y00809D02*
G01X00117Y00806D01*
G01X00117Y00806D02*
G01X00108Y00802D01*
G01X00108Y00802D02*
G01X00093Y00787D01*
G01X00093Y00787D02*
G01X00085Y00767D01*
G01X00085Y00767D02*
G01X00085Y00745D01*
G01X00085Y00745D02*
G01X00093Y00725D01*
G01X00093Y00725D02*
G01X00108Y00709D01*
G01X00108Y00709D02*
G01X00129Y00701D01*
G01X00129Y00701D02*
G01X00150Y00701D01*
G01X00150Y00701D02*
G01X00171Y00709D01*
G01X00171Y00709D02*
G01X00186Y00725D01*
G01X00186Y00725D02*
G01X00190Y00733D01*
G01X00190Y00733D02*
G01X00193Y00725D01*
G01X00193Y00725D02*
G01X00208Y00709D01*
G01X00208Y00709D02*
G01X00229Y00701D01*
G01X00229Y00701D02*
G01X00250Y00701D01*
G01X00250Y00701D02*
G01X00271Y00709D01*
G01X00271Y00709D02*
G01X00286Y00725D01*
G01X00286Y00725D02*
G01X00290Y00733D01*
G01X00290Y00733D02*
G01X00293Y00725D01*
G01X00293Y00725D02*
G01X00308Y00709D01*
G01X00308Y00709D02*
G01X00329Y00701D01*
G01X00329Y00701D02*
G01X00350Y00701D01*
G01X00350Y00701D02*
G01X00371Y00709D01*
G01X00371Y00709D02*
G01X00386Y00725D01*
G01X00386Y00725D02*
G01X00390Y00733D01*
G01X00390Y00733D02*
G01X00393Y00725D01*
G01X00393Y00725D02*
G01X00408Y00709D01*
G01X00408Y00709D02*
G01X00429Y00701D01*
G01X00429Y00701D02*
G01X00450Y00701D01*
G01X00450Y00701D02*
G01X00471Y00709D01*
G01X00471Y00709D02*
G01X00486Y00725D01*
G01X00486Y00725D02*
G01X00490Y00733D01*
G01X00490Y00733D02*
G01X00493Y00725D01*
G01X00493Y00725D02*
G01X00508Y00709D01*
G01X00508Y00709D02*
G01X00529Y00701D01*
G01X00529Y00701D02*
G01X00550Y00701D01*
G01X00550Y00701D02*
G01X00571Y00709D01*
G01X00571Y00709D02*
G01X00586Y00725D01*
G01X00586Y00725D02*
G01X00588Y00728D01*
G01X00588Y00728D02*
G01X00588Y00714D01*
G01X00588Y00714D02*
G01X00596Y00706D01*
G01X00596Y00706D02*
G01X00588Y00698D01*
G01X00588Y00698D02*
G01X00588Y00614D01*
G01X00588Y00614D02*
G01X00596Y00606D01*
G01X00596Y00606D02*
G01X00588Y00598D01*
G01X00588Y00598D02*
G01X00588Y00514D01*
G01X00588Y00514D02*
G01X00596Y00506D01*
G01X00596Y00506D02*
G01X00588Y00498D01*
G01X00588Y00498D02*
G01X00588Y00414D01*
G01X00588Y00414D02*
G01X00598Y00404D01*
G01X00598Y00404D02*
G01X00612Y00404D01*
G01X00612Y00404D02*
G01X00608Y00402D01*
G01X00608Y00402D02*
G01X00593Y00387D01*
G01X00593Y00387D02*
G01X00585Y00367D01*
G01X00585Y00367D02*
G01X00585Y00345D01*
G01X00585Y00345D02*
G01X00593Y00325D01*
G01X00593Y00325D02*
G01X00608Y00309D01*
G01X00608Y00309D02*
G01X00615Y00307D01*
G01X00615Y00307D02*
G01X00615Y00304D01*
G01X00615Y00304D02*
G01X00609Y00301D01*
G01X00609Y00301D02*
G01X00594Y00286D01*
G01X00594Y00286D02*
G01X00586Y00266D01*
G01X00586Y00266D02*
G01X00586Y00245D01*
G01X00586Y00245D02*
G01X00594Y00225D01*
G01X00594Y00225D02*
G01X00609Y00210D01*
G01X00609Y00210D02*
G01X00615Y00208D01*
G01X00615Y00208D02*
G01X00615Y00204D01*
G01X00615Y00204D02*
G01X00609Y00201D01*
G01X00609Y00201D02*
G01X00594Y00186D01*
G01X00594Y00186D02*
G01X00587Y00169D01*
G01X00587Y00169D02*
G01X00587Y00171D01*
G01X00587Y00171D02*
G01X00579Y00190D01*
G01X00579Y00190D02*
G01X00564Y00205D01*
G01X00564Y00205D02*
G01X00564Y00205D01*
G01X00564Y00205D02*
G01X00564Y00262D01*
G01X00564Y00262D02*
G01X00554Y00272D01*
G01X00554Y00272D02*
G01X00519Y00272D01*
G01X00519Y00272D02*
G01X00526Y00279D01*
G01X00526Y00279D02*
G01X00526Y00344D01*
G01X00526Y00344D02*
G01X00534Y00351D01*
G01X00534Y00351D02*
G01X00542Y00370D01*
G01X00542Y00370D02*
G01X00542Y00391D01*
G01X00542Y00391D02*
G01X00534Y00410D01*
G01X00534Y00410D02*
G01X00519Y00425D01*
G01X00519Y00425D02*
G01X00500Y00433D01*
G01X00500Y00433D02*
G01X00479Y00433D01*
G01X00479Y00433D02*
G01X00460Y00425D01*
G01X00460Y00425D02*
G01X00445Y00410D01*
G01X00445Y00410D02*
G01X00438Y00391D01*
G01X00438Y00391D02*
G01X00438Y00370D01*
G01X00438Y00370D02*
G01X00445Y00351D01*
G01X00445Y00351D02*
G01X00453Y00344D01*
G01X00453Y00344D02*
G01X00453Y00279D01*
G01X00453Y00279D02*
G01X00460Y00272D01*
G01X00460Y00272D02*
G01X00425Y00272D01*
G01X00425Y00272D02*
G01X00415Y00262D01*
G01X00415Y00262D02*
G01X00415Y00205D01*
G01X00415Y00205D02*
G01X00415Y00205D01*
G01X00415Y00205D02*
G01X00400Y00190D01*
G01X00400Y00190D02*
G01X00393Y00171D01*
G01X00393Y00171D02*
G01X00393Y00169D01*
G01X00393Y00169D02*
G01X00385Y00186D01*
G01X00385Y00186D02*
G01X00370Y00201D01*
G01X00370Y00201D02*
G01X00365Y00204D01*
G01X00365Y00204D02*
G01X00365Y00208D01*
G01X00365Y00208D02*
G01X00370Y00210D01*
G01X00370Y00210D02*
G01X00385Y00225D01*
G01X00385Y00225D02*
G01X00394Y00245D01*
G01X00394Y00245D02*
G01X00394Y00266D01*
G01X00394Y00266D02*
G01X00385Y00286D01*
G01X00385Y00286D02*
G01X00370Y00301D01*
G01X00370Y00301D02*
G01X00365Y00304D01*
G01X00365Y00304D02*
G01X00365Y00307D01*
G01X00365Y00307D02*
G01X00371Y00309D01*
G01X00371Y00309D02*
G01X00386Y00325D01*
G01X00386Y00325D02*
G01X00395Y00345D01*
G01X00395Y00345D02*
G01X00395Y00367D01*
G01X00395Y00367D02*
G01X00386Y00387D01*
G01X00386Y00387D02*
G01X00371Y00402D01*
G01X00371Y00402D02*
G01X00350Y00411D01*
G01X00350Y00411D02*
G01X00329Y00411D01*
G01X00329Y00411D02*
G01X00308Y00402D01*
G01X00308Y00402D02*
G01X00293Y00387D01*
G01X00293Y00387D02*
G01X00285Y00367D01*
G01X00285Y00367D02*
G01X00285Y00345D01*
G01X00285Y00345D02*
G01X00293Y00325D01*
G01X00293Y00325D02*
G01X00308Y00309D01*
G01X00308Y00309D02*
G01X00315Y00307D01*
G01X00315Y00307D02*
G01X00315Y00304D01*
G01X00315Y00304D02*
G01X00309Y00301D01*
G01X00309Y00301D02*
G01X00294Y00286D01*
G01X00294Y00286D02*
G01X00288Y00273D01*
G01X00288Y00273D02*
G01X00288Y00276D01*
G01X00288Y00276D02*
G01X00284Y00283D01*
G01X00284Y00283D02*
G01X00279Y00290D01*
G01X00279Y00290D02*
G01X00273Y00295D01*
G01X00273Y00295D02*
G01X00267Y00300D01*
G01X00267Y00300D02*
G01X00260Y00304D01*
G01X00260Y00304D02*
G01X00252Y00306D01*
G01X00252Y00306D02*
G01X00245Y00308D01*
G01X00245Y00308D02*
G01X00245Y00261D01*
G01X00245Y00261D02*
G01X00235Y00261D01*
G01X00235Y00261D02*
G01X00235Y00308D01*
G01X00235Y00308D02*
G01X00227Y00306D01*
G01X00227Y00306D02*
G01X00220Y00304D01*
G01X00220Y00304D02*
G01X00212Y00300D01*
G01X00212Y00300D02*
G01X00206Y00295D01*
G01X00206Y00295D02*
G01X00200Y00290D01*
G01X00200Y00290D02*
G01X00195Y00283D01*
G01X00195Y00283D02*
G01X00191Y00276D01*
G01X00191Y00276D02*
G01X00191Y00273D01*
G01X00191Y00273D02*
G01X00185Y00286D01*
G01X00185Y00286D02*
G01X00170Y00301D01*
G01X00170Y00301D02*
G01X00165Y00304D01*
G01X00165Y00304D02*
G01X00165Y00307D01*
G01X00165Y00307D02*
G01X00171Y00309D01*
G01X00171Y00309D02*
G01X00186Y00325D01*
G01X00186Y00325D02*
G01X00195Y00345D01*
G01X00195Y00345D02*
G01X00195Y00367D01*
G01X00195Y00367D02*
G01X00186Y00387D01*
G01X00186Y00387D02*
G01X00171Y00402D01*
G01X00171Y00402D02*
G01X00150Y00411D01*
G01X00150Y00411D02*
G01X00129Y00411D01*
G01X00129Y00411D02*
G01X00108Y00402D01*
G01X00108Y00402D02*
G01X00093Y00387D01*
G01X00093Y00387D02*
G01X00085Y00367D01*
G01X00085Y00367D02*
G01X00085Y00345D01*
G01X00085Y00345D02*
G01X00093Y00325D01*
G01X00093Y00325D02*
G01X00108Y00309D01*
G01X00108Y00309D02*
G01X00115Y00307D01*
G01X00115Y00307D02*
G01X00115Y00304D01*
G01X00115Y00304D02*
G01X00109Y00301D01*
G01X00109Y00301D02*
G01X00094Y00286D01*
G01X00094Y00286D02*
G01X00086Y00266D01*
G01X00086Y00266D02*
G01X00086Y00245D01*
G01X00086Y00245D02*
G01X00094Y00225D01*
G01X00094Y00225D02*
G01X00109Y00210D01*
G01X00109Y00210D02*
G01X00115Y00208D01*
G01X00115Y00208D02*
G01X00115Y00204D01*
G01X00115Y00204D02*
G01X00109Y00201D01*
G01X00109Y00201D02*
G01X00094Y00186D01*
G01X00094Y00186D02*
G01X00086Y00166D01*
G01X00086Y00166D02*
G01X00086Y00145D01*
G01X00086Y00145D02*
G01X00094Y00125D01*
G01X00094Y00125D02*
G01X00109Y00110D01*
G01X00109Y00110D02*
G01X00129Y00102D01*
G01X00129Y00102D02*
G01X00150Y00102D01*
G01X00150Y00102D02*
G01X00170Y00110D01*
G01X00170Y00110D02*
G01X00185Y00125D01*
G01X00185Y00125D02*
G01X00191Y00138D01*
G01X00191Y00138D02*
G01X00191Y00136D01*
G01X00191Y00136D02*
G01X00195Y00128D01*
G01X00195Y00128D02*
G01X00200Y00122D01*
G01X00200Y00122D02*
G01X00206Y00116D01*
G01X00206Y00116D02*
G01X00212Y00111D01*
G01X00212Y00111D02*
G01X00220Y00107D01*
G01X00220Y00107D02*
G01X00227Y00105D01*
G01X00227Y00105D02*
G01X00235Y00104D01*
G01X00235Y00104D02*
G01X00235Y00151D01*
G01X00235Y00151D02*
G01X00245Y00151D01*
G01X00245Y00151D02*
G01X00245Y00104D01*
G01X00245Y00104D02*
G01X00252Y00105D01*
G01X00252Y00105D02*
G01X00260Y00107D01*
G01X00260Y00107D02*
G01X00267Y00111D01*
G01X00267Y00111D02*
G01X00273Y00116D01*
G01X00273Y00116D02*
G01X00279Y00122D01*
G01X00279Y00122D02*
G01X00284Y00128D01*
G01X00284Y00128D02*
G01X00288Y00136D01*
G01X00288Y00136D02*
G01X00288Y00138D01*
G01X00288Y00138D02*
G01X00294Y00125D01*
G01X00294Y00125D02*
G01X00309Y00110D01*
G01X00309Y00110D02*
G01X00329Y00102D01*
G01X00329Y00102D02*
G01X00350Y00102D01*
G01X00350Y00102D02*
G01X00370Y00110D01*
G01X00370Y00110D02*
G01X00385Y00125D01*
G01X00385Y00125D02*
G01X00394Y00145D01*
G01X00394Y00145D02*
G01X00394Y00148D01*
G01X00394Y00148D02*
G01X00400Y00131D01*
G01X00400Y00131D02*
G01X00415Y00117D01*
G01X00415Y00117D02*
G01X00434Y00109D01*
G01X00434Y00109D02*
G01X00455Y00109D01*
G01X00455Y00109D02*
G01X00474Y00117D01*
G01X00474Y00117D02*
G01X00489Y00131D01*
G01X00489Y00131D02*
G01X00490Y00133D01*
G01X00490Y00133D02*
G01X00490Y00131D01*
G01X00490Y00131D02*
G01X00505Y00117D01*
G01X00505Y00117D02*
G01X00524Y00109D01*
G01X00524Y00109D02*
G01X00545Y00109D01*
G01X00545Y00109D02*
G01X00564Y00117D01*
G01X00564Y00117D02*
G01X00579Y00131D01*
G01X00579Y00131D02*
G01X00586Y00148D01*
G01X00586Y00148D02*
G01X00586Y00145D01*
G01X00586Y00145D02*
G01X00594Y00125D01*
G01X00594Y00125D02*
G01X00609Y00110D01*
G01X00609Y00110D02*
G01X00629Y00102D01*
G01X00629Y00102D02*
G01X00650Y00102D01*
G01X00650Y00102D02*
G01X00670Y00110D01*
G01X00670Y00110D02*
G01X00685Y00125D01*
G01X00685Y00125D02*
G01X00690Y00135D01*
G01X00690Y00135D02*
G01X00694Y00125D01*
G01X00694Y00125D02*
G01X00709Y00110D01*
G01X00709Y00110D02*
G01X00729Y00102D01*
G01X00729Y00102D02*
G01X00750Y00102D01*
G01X00750Y00102D02*
G01X00770Y00110D01*
G01X00770Y00110D02*
G01X00785Y00125D01*
G01X00785Y00125D02*
G01X00790Y00135D01*
G01X00790Y00135D02*
G01X00794Y00125D01*
G01X00794Y00125D02*
G01X00809Y00110D01*
G01X00809Y00110D02*
G01X00829Y00102D01*
G01X00829Y00102D02*
G01X00850Y00102D01*
G01X00850Y00102D02*
G01X00870Y00110D01*
G01X00870Y00110D02*
G01X00885Y00125D01*
G01X00885Y00125D02*
G01X00890Y00135D01*
G01X00890Y00135D02*
G01X00894Y00125D01*
G01X00894Y00125D02*
G01X00909Y00110D01*
G01X00909Y00110D02*
G01X00929Y00102D01*
G01X00929Y00102D02*
G01X00950Y00102D01*
G01X00950Y00102D02*
G01X00970Y00110D01*
G01X00970Y00110D02*
G01X00985Y00125D01*
G01X00985Y00125D02*
G01X00990Y00135D01*
G01X00990Y00135D02*
G01X00994Y00125D01*
G01X00994Y00125D02*
G01X01009Y00110D01*
G01X01009Y00110D02*
G01X01029Y00102D01*
G01X01029Y00102D02*
G01X01050Y00102D01*
G01X01050Y00102D02*
G01X01070Y00110D01*
G01X01070Y00110D02*
G01X01085Y00125D01*
G01X01085Y00125D02*
G01X01090Y00135D01*
G01X01090Y00135D02*
G01X01094Y00125D01*
G01X01094Y00125D02*
G01X01109Y00110D01*
G01X01109Y00110D02*
G01X01129Y00102D01*
G01X01129Y00102D02*
G01X01150Y00102D01*
G01X01150Y00102D02*
G01X01170Y00110D01*
G01X01170Y00110D02*
G01X01185Y00125D01*
G01X01185Y00125D02*
G01X01190Y00135D01*
G01X01190Y00135D02*
G01X01194Y00125D01*
G01X01194Y00125D02*
G01X01209Y00110D01*
G01X01209Y00110D02*
G01X01229Y00102D01*
G01X01229Y00102D02*
G01X01250Y00102D01*
G01X01250Y00102D02*
G01X01270Y00110D01*
G01X01270Y00110D02*
G01X01285Y00125D01*
G01X01285Y00125D02*
G01X01291Y00138D01*
G01X01291Y00138D02*
G01X01291Y00136D01*
G01X01291Y00136D02*
G01X01295Y00128D01*
G01X01295Y00128D02*
G01X01300Y00122D01*
G01X01300Y00122D02*
G01X01306Y00116D01*
G01X01306Y00116D02*
G01X01312Y00111D01*
G01X01312Y00111D02*
G01X01320Y00107D01*
G01X01320Y00107D02*
G01X01327Y00105D01*
G01X01327Y00105D02*
G01X01335Y00104D01*
G01X01335Y00104D02*
G01X01335Y00151D01*
G01X01335Y00151D02*
G01X01345Y00151D01*
G01X01345Y00151D02*
G01X01345Y00104D01*
G01X01345Y00104D02*
G01X01352Y00105D01*
G01X01352Y00105D02*
G01X01360Y00107D01*
G01X01360Y00107D02*
G01X01367Y00111D01*
G01X01367Y00111D02*
G01X01373Y00116D01*
G01X01373Y00116D02*
G01X01379Y00122D01*
G01X01379Y00122D02*
G01X01384Y00128D01*
G01X01384Y00128D02*
G01X01388Y00136D01*
G01X01388Y00136D02*
G01X01388Y00138D01*
G01X01388Y00138D02*
G01X01394Y00125D01*
G01X01394Y00125D02*
G01X01409Y00110D01*
G01X01409Y00110D02*
G01X01429Y00102D01*
G01X01429Y00102D02*
G01X01450Y00102D01*
G01X01450Y00102D02*
G01X01470Y00110D01*
G01X01470Y00110D02*
G01X01485Y00125D01*
G01X01485Y00125D02*
G01X01490Y00135D01*
G01X01490Y00135D02*
G01X01494Y00125D01*
G01X01494Y00125D02*
G01X01509Y00110D01*
G01X01509Y00110D02*
G01X01529Y00102D01*
G01X01529Y00102D02*
G01X01550Y00102D01*
G01X01550Y00102D02*
G01X01570Y00110D01*
G01X01570Y00110D02*
G01X01585Y00125D01*
G01X01585Y00125D02*
G01X01590Y00135D01*
G01X01590Y00135D02*
G01X01594Y00125D01*
G01X01594Y00125D02*
G01X01609Y00110D01*
G01X01609Y00110D02*
G01X01629Y00102D01*
G01X01629Y00102D02*
G01X01650Y00102D01*
G01X01650Y00102D02*
G01X01670Y00110D01*
G01X01670Y00110D02*
G01X01685Y00125D01*
G01X01685Y00125D02*
G01X01690Y00135D01*
G01X01690Y00135D02*
G01X01694Y00125D01*
G01X01694Y00125D02*
G01X01709Y00110D01*
G01X01709Y00110D02*
G01X01729Y00102D01*
G01X01729Y00102D02*
G01X01750Y00102D01*
G01X01750Y00102D02*
G01X01770Y00110D01*
G01X01770Y00110D02*
G01X01785Y00125D01*
G01X01785Y00125D02*
G01X01790Y00135D01*
G01X01790Y00135D02*
G01X01794Y00125D01*
G01X01794Y00125D02*
G01X01809Y00110D01*
G01X01809Y00110D02*
G01X01829Y00102D01*
G01X01829Y00102D02*
G01X01850Y00102D01*
G01X01850Y00102D02*
G01X01870Y00110D01*
G01X01870Y00110D02*
G01X01885Y00125D01*
G01X01885Y00125D02*
G01X01890Y00135D01*
G01X01890Y00135D02*
G01X01894Y00125D01*
G01X01894Y00125D02*
G01X01909Y00110D01*
G01X01909Y00110D02*
G01X01929Y00102D01*
G01X01929Y00102D02*
G01X01950Y00102D01*
G01X01950Y00102D02*
G01X01970Y00110D01*
G01X01970Y00110D02*
G01X01985Y00125D01*
G01X01985Y00125D02*
G01X01994Y00145D01*
G01X01994Y00145D02*
G01X01994Y00166D01*
G01X01994Y00166D02*
G01X01985Y00186D01*
G01X01985Y00186D02*
G01X01970Y00201D01*
G01X01970Y00201D02*
G01X01965Y00204D01*
G01X01965Y00204D02*
G01X01965Y00208D01*
G01X01965Y00208D02*
G01X01970Y00210D01*
G01X01970Y00210D02*
G01X01985Y00225D01*
G01X01985Y00225D02*
G01X01994Y00245D01*
G01X01994Y00245D02*
G01X01994Y00266D01*
G01X01994Y00266D02*
G01X01985Y00286D01*
G01X01985Y00286D02*
G01X01970Y00301D01*
G01X01970Y00301D02*
G01X01965Y00304D01*
G01X01965Y00304D02*
G01X01965Y00307D01*
G01X01965Y00307D02*
G01X01971Y00309D01*
G01X01971Y00309D02*
G01X01986Y00325D01*
G01X01986Y00325D02*
G01X01995Y00345D01*
G01X01995Y00345D02*
G01X01995Y00367D01*
G01X01995Y00367D02*
G01X01986Y00387D01*
G01X01986Y00387D02*
G01X01971Y00402D01*
G01X01971Y00402D02*
G01X01950Y00411D01*
G01X01950Y00411D02*
G01X01929Y00411D01*
G01X01929Y00411D02*
G01X01908Y00402D01*
G01X01908Y00402D02*
G01X01893Y00387D01*
G01X01893Y00387D02*
G01X01890Y00379D01*
G01X01890Y00379D02*
G01X01886Y00387D01*
G01X01886Y00387D02*
G01X01871Y00402D01*
G01X01871Y00402D02*
G01X01850Y00411D01*
G01X01850Y00411D02*
G01X01829Y00411D01*
G01X01829Y00411D02*
G01X01808Y00402D01*
G01X01808Y00402D02*
G01X01793Y00387D01*
G01X01793Y00387D02*
G01X01790Y00379D01*
G01X01790Y00379D02*
G01X01786Y00387D01*
G01X01786Y00387D02*
G01X01771Y00402D01*
G01X01771Y00402D02*
G01X01750Y00411D01*
G01X01750Y00411D02*
G01X01729Y00411D01*
G01X01729Y00411D02*
G01X01708Y00402D01*
G01X01708Y00402D02*
G01X01693Y00387D01*
G01X01693Y00387D02*
G01X01690Y00379D01*
G01X01690Y00379D02*
G01X01686Y00387D01*
G01X01686Y00387D02*
G01X01671Y00402D01*
G01X01671Y00402D02*
G01X01650Y00411D01*
G01X01650Y00411D02*
G01X01629Y00411D01*
G01X01629Y00411D02*
G01X01608Y00402D01*
G01X01608Y00402D02*
G01X01593Y00387D01*
G01X01593Y00387D02*
G01X01590Y00379D01*
G01X01590Y00379D02*
G01X01586Y00387D01*
G01X01586Y00387D02*
G01X01571Y00402D01*
G01X01571Y00402D02*
G01X01550Y00411D01*
G01X01550Y00411D02*
G01X01529Y00411D01*
G01X01529Y00411D02*
G01X01508Y00402D01*
G01X01508Y00402D02*
G01X01493Y00387D01*
G01X01493Y00387D02*
G01X01490Y00379D01*
G01X01490Y00379D02*
G01X01486Y00387D01*
G01X01486Y00387D02*
G01X01471Y00402D01*
G01X01471Y00402D02*
G01X01459Y00407D01*
G01X01459Y00407D02*
G01X01469Y00412D01*
G01X01469Y00412D02*
G01X01484Y00426D01*
G01X01484Y00426D02*
G01X01492Y00445D01*
G01X01492Y00445D02*
G01X01492Y00466D01*
G01X01492Y00466D02*
G01X01484Y00485D01*
G01X01484Y00485D02*
G01X01469Y00500D01*
G01X01469Y00500D02*
G01X01455Y00506D01*
G01X01455Y00506D02*
G01X01469Y00511D01*
G01X01469Y00511D02*
G01X01484Y00526D01*
G01X01484Y00526D02*
G01X01492Y00545D01*
G01X01492Y00545D02*
G01X01492Y00566D01*
G01X01492Y00566D02*
G01X01484Y00585D01*
G01X01484Y00585D02*
G01X01469Y00600D01*
G01X01469Y00600D02*
G01X01455Y00606D01*
G01X01455Y00606D02*
G01X01469Y00612D01*
G01X01469Y00612D02*
G01X01484Y00626D01*
G01X01484Y00626D02*
G01X01492Y00645D01*
G01X01492Y00645D02*
G01X01492Y00666D01*
G01X01492Y00666D02*
G01X01484Y00685D01*
G01X01484Y00685D02*
G01X01469Y00700D01*
G01X01469Y00700D02*
G01X01450Y00708D01*
G01X01450Y00708D02*
G01X01429Y00708D01*
G01X01429Y00708D02*
G01X01410Y00700D01*
G01X01410Y00700D02*
G01X01395Y00685D01*
G01X01395Y00685D02*
G01X01392Y00676D01*
G01X01392Y00676D02*
G01X01392Y00698D01*
G01X01392Y00698D02*
G01X01384Y00706D01*
G01X01384Y00706D02*
G01X01392Y00714D01*
G01X01392Y00714D02*
G01X01392Y00798D01*
G01X01392Y00798D02*
G01X01384Y00806D01*
G01X01384Y00806D02*
G01X01392Y00814D01*
G01X01392Y00814D02*
G01X01392Y00876D01*
G01X01392Y00876D02*
G01X01395Y00866D01*
G01X01395Y00866D02*
G01X01410Y00852D01*
G01X01410Y00852D02*
G01X01429Y00844D01*
G01X01429Y00844D02*
G01X01450Y00844D01*
G01X01450Y00844D02*
G01X01469Y00852D01*
G01X01469Y00852D02*
G01X01484Y00866D01*
G01X01484Y00866D02*
G01X01492Y00885D01*
G01X01492Y00885D02*
G01X01492Y00906D01*
G01X01492Y00906D02*
G01X01484Y00925D01*
G01X01484Y00925D02*
G01X01469Y00940D01*
G01X01469Y00940D02*
G01X01455Y00946D01*
G01X01455Y00946D02*
G01X01469Y00952D01*
G01X01469Y00952D02*
G01X01484Y00966D01*
G01X01484Y00966D02*
G01X01492Y00985D01*
G01X01492Y00985D02*
G01X01492Y01006D01*
G01X01492Y01006D02*
G01X01484Y01025D01*
G01X01484Y01025D02*
G01X01469Y01040D01*
G01X01469Y01040D02*
G01X01455Y01046D01*
G01X01455Y01046D02*
G01X01469Y01052D01*
G01X01469Y01052D02*
G01X01484Y01066D01*
G01X01484Y01066D02*
G01X01492Y01085D01*
G01X01492Y01085D02*
G01X01492Y01106D01*
G01X01492Y01106D02*
G01X01484Y01125D01*
G01X01484Y01125D02*
G01X01469Y01140D01*
G01X01469Y01140D02*
G01X01450Y01148D01*
G01X01450Y01148D02*
G01X01429Y01148D01*
G01X01429Y01148D02*
G01X01410Y01140D01*
G01X01410Y01140D02*
G01X01395Y01125D01*
G01X01395Y01125D02*
G01X01392Y01116D01*
G01X01392Y01116D02*
G01X01392Y01198D01*
G01X01392Y01198D02*
G01X01384Y01206D01*
G01X01384Y01206D02*
G01X01392Y01214D01*
G01X01392Y01214D02*
G01X01392Y01298D01*
G01X01392Y01298D02*
G01X01384Y01306D01*
G01X01384Y01306D02*
G01X01392Y01314D01*
G01X01392Y01314D02*
G01X01392Y01336D01*
G01X01392Y01336D02*
G01X01395Y01326D01*
G01X01395Y01326D02*
G01X01410Y01312D01*
G01X01410Y01312D02*
G01X01429Y01304D01*
G01X01429Y01304D02*
G01X01450Y01304D01*
G01X01450Y01304D02*
G01X01469Y01312D01*
G01X01469Y01312D02*
G01X01484Y01326D01*
G01X01484Y01326D02*
G01X01492Y01345D01*
G01X01492Y01345D02*
G01X01492Y01366D01*
G01X01492Y01366D02*
G01X01484Y01385D01*
G01X01484Y01385D02*
G01X01469Y01400D01*
G01X01469Y01400D02*
G01X01455Y01406D01*
G01X01455Y01406D02*
G01X01469Y01412D01*
G01X01469Y01412D02*
G01X01484Y01426D01*
G01X01484Y01426D02*
G01X01492Y01445D01*
G01X01492Y01445D02*
G01X01492Y01466D01*
G01X01492Y01466D02*
G01X01484Y01485D01*
G01X01484Y01485D02*
G01X01469Y01500D01*
G01X01469Y01500D02*
G01X01455Y01506D01*
G01X01455Y01506D02*
G01X01469Y01512D01*
G01X01469Y01512D02*
G01X01484Y01526D01*
G01X01484Y01526D02*
G01X01492Y01545D01*
G01X01492Y01545D02*
G01X01492Y01566D01*
G01X01492Y01566D02*
G01X01484Y01585D01*
G01X01484Y01585D02*
G01X01469Y01600D01*
G01X01469Y01600D02*
G01X01450Y01608D01*
G01X01450Y01608D02*
G01X01429Y01608D01*
G01X01429Y01608D02*
G01X01410Y01600D01*
G01X01410Y01600D02*
G01X01395Y01585D01*
G01X01395Y01585D02*
G01X01392Y01576D01*
G01X01392Y01576D02*
G01X01392Y01598D01*
G01X01392Y01598D02*
G01X01384Y01606D01*
G01X01384Y01606D02*
G01X01392Y01614D01*
G01X01392Y01614D02*
G01X01392Y01698D01*
G01X01392Y01698D02*
G01X01382Y01708D01*
G01X01382Y01708D02*
G01X01367Y01708D01*
G01X01367Y01708D02*
G01X01371Y01709D01*
G01X01371Y01709D02*
G01X01386Y01725D01*
G01X01386Y01725D02*
G01X01390Y01733D01*
G01X01390Y01733D02*
G01X01393Y01725D01*
G01X01393Y01725D02*
G01X01408Y01709D01*
G01X01408Y01709D02*
G01X01429Y01701D01*
G01X01429Y01701D02*
G01X01450Y01701D01*
G01X01450Y01701D02*
G01X01471Y01709D01*
G01X01471Y01709D02*
G01X01486Y01725D01*
G01X01486Y01725D02*
G01X01495Y01745D01*
G01X01495Y01745D02*
G01X01495Y01767D01*
G01X01495Y01767D02*
G01X01486Y01787D01*
G01X01486Y01787D02*
G01X01471Y01802D01*
G01X01471Y01802D02*
G01X01465Y01805D01*
G01X01465Y01805D02*
G01X01465Y01808D01*
G01X01465Y01808D02*
G01X01470Y01810D01*
G01X01470Y01810D02*
G01X01485Y01825D01*
G01X01485Y01825D02*
G01X01491Y01838D01*
G01X01491Y01838D02*
G01X01491Y01836D01*
G01X01491Y01836D02*
G01X01495Y01828D01*
G01X01495Y01828D02*
G01X01500Y01822D01*
G01X01500Y01822D02*
G01X01506Y01816D01*
G01X01506Y01816D02*
G01X01512Y01811D01*
G01X01512Y01811D02*
G01X01520Y01807D01*
G01X01520Y01807D02*
G01X01527Y01805D01*
G01X01527Y01805D02*
G01X01535Y01804D01*
G01X01535Y01804D02*
G01X01535Y01851D01*
G01X01535Y01851D02*
G01X01545Y01851D01*
G01X01545Y01851D02*
G01X01545Y01804D01*
G01X01545Y01804D02*
G01X01552Y01805D01*
G01X01552Y01805D02*
G01X01560Y01807D01*
G01X01560Y01807D02*
G01X01567Y01811D01*
G01X01567Y01811D02*
G01X01573Y01816D01*
G01X01573Y01816D02*
G01X01579Y01822D01*
G01X01579Y01822D02*
G01X01584Y01828D01*
G01X01584Y01828D02*
G01X01588Y01836D01*
G01X01588Y01836D02*
G01X01588Y01838D01*
G01X01588Y01838D02*
G01X01594Y01825D01*
G01X01594Y01825D02*
G01X01609Y01810D01*
G01X01609Y01810D02*
G01X01615Y01808D01*
G01X01615Y01808D02*
G01X01615Y01805D01*
G01X01615Y01805D02*
G01X01608Y01802D01*
G01X01608Y01802D02*
G01X01593Y01787D01*
G01X01593Y01787D02*
G01X01585Y01767D01*
G01X01585Y01767D02*
G01X01585Y01745D01*
G01X01585Y01745D02*
G01X01593Y01725D01*
G01X01593Y01725D02*
G01X01608Y01709D01*
G01X01608Y01709D02*
G01X01629Y01701D01*
G01X01629Y01701D02*
G01X01650Y01701D01*
G01X01650Y01701D02*
G01X01671Y01709D01*
G01X01671Y01709D02*
G01X01686Y01725D01*
G01X01686Y01725D02*
G01X01690Y01733D01*
G01X01690Y01733D02*
G01X01693Y01725D01*
G01X01693Y01725D02*
G01X01708Y01709D01*
G01X01708Y01709D02*
G01X01729Y01701D01*
G01X01729Y01701D02*
G01X01750Y01701D01*
G01X01750Y01701D02*
G01X01771Y01709D01*
G01X01771Y01709D02*
G01X01786Y01725D01*
G01X01786Y01725D02*
G01X01790Y01733D01*
G01X01790Y01733D02*
G01X01793Y01725D01*
G01X01793Y01725D02*
G01X01808Y01709D01*
G01X01808Y01709D02*
G01X01812Y01708D01*
G01X01812Y01708D02*
G01X01809Y01708D01*
G01X01809Y01708D02*
G01X01790Y01700D01*
G01X01790Y01700D02*
G01X01775Y01685D01*
G01X01775Y01685D02*
G01X01768Y01666D01*
G01X01768Y01666D02*
G01X01768Y01645D01*
G01X01768Y01645D02*
G01X01775Y01626D01*
G01X01784Y01618D02*
G01X01630Y01618D01*
G01X01626Y01608D02*
G01X01799Y01608D01*
G01X01789Y01598D02*
G01X01620Y01598D01*
G01X01606Y01588D02*
G01X01779Y01588D01*
G01X01773Y01579D02*
G01X01619Y01579D01*
G01X01627Y01569D02*
G01X01769Y01569D01*
G01X01768Y01559D02*
G01X01631Y01559D01*
G01X01632Y01549D02*
G01X01768Y01549D01*
G01X01770Y01539D02*
G01X01632Y01539D01*
G01X01628Y01529D02*
G01X01774Y01529D01*
G01X01782Y01519D02*
G01X01622Y01519D01*
G01X01627Y01490D02*
G01X01780Y01490D01*
G01X01773Y01480D02*
G01X01631Y01480D01*
G01X01632Y01470D02*
G01X01769Y01470D01*
G01X01768Y01460D02*
G01X01632Y01460D01*
G01X01628Y01450D02*
G01X01768Y01450D01*
G01X01770Y01441D02*
G01X01622Y01441D01*
G01X01624Y01431D02*
G01X01774Y01431D01*
G01X01781Y01421D02*
G01X01632Y01421D01*
G01X01632Y01411D02*
G01X01792Y01411D01*
G01X01848Y01411D02*
G01X01910Y01411D01*
G01X01910Y01411D02*
G01X01907Y01405D01*
G01X01907Y01405D02*
G01X01905Y01399D01*
G01X01905Y01399D02*
G01X01904Y01393D01*
G01X01904Y01393D02*
G01X01904Y01392D01*
G01X01904Y01392D02*
G01X01942Y01392D01*
G01X01942Y01392D02*
G01X01942Y01387D01*
G01X01942Y01387D02*
G01X01947Y01387D01*
G01X01947Y01387D02*
G01X01947Y01349D01*
G01X01947Y01349D02*
G01X01948Y01349D01*
G01X01948Y01349D02*
G01X01954Y01350D01*
G01X01954Y01350D02*
G01X01960Y01352D01*
G01X01960Y01352D02*
G01X01966Y01355D01*
G01X01966Y01355D02*
G01X01971Y01358D01*
G01X01971Y01358D02*
G01X01976Y01363D01*
G01X01976Y01363D02*
G01X01979Y01368D01*
G01X01979Y01368D02*
G01X01982Y01374D01*
G01X01982Y01374D02*
G01X01984Y01380D01*
G01X01984Y01380D02*
G01X01985Y01386D01*
G01X01985Y01386D02*
G01X01985Y01387D01*
G01X01985Y01387D02*
G01X01947Y01387D01*
G01X01947Y01387D02*
G01X01947Y01392D01*
G01X01947Y01392D02*
G01X01985Y01392D01*
G01X01985Y01392D02*
G01X01985Y01393D01*
G01X01985Y01393D02*
G01X01984Y01399D01*
G01X01984Y01399D02*
G01X01982Y01405D01*
G01X01982Y01405D02*
G01X01979Y01411D01*
G01X01979Y01411D02*
G01X01976Y01416D01*
G01X01976Y01416D02*
G01X01971Y01421D01*
G01X01971Y01421D02*
G01X01966Y01424D01*
G01X01966Y01424D02*
G01X01960Y01427D01*
G01X01960Y01427D02*
G01X01959Y01428D01*
G01X01959Y01428D02*
G01X01969Y01432D01*
G01X01969Y01432D02*
G01X01981Y01444D01*
G01X01981Y01444D02*
G01X01987Y01460D01*
G01X01987Y01460D02*
G01X01987Y01477D01*
G01X01987Y01477D02*
G01X01981Y01493D01*
G01X01981Y01493D02*
G01X01969Y01505D01*
G01X01969Y01505D02*
G01X01961Y01508D01*
G01X01961Y01508D02*
G01X01969Y01511D01*
G01X01969Y01511D02*
G01X01981Y01523D01*
G01X01981Y01523D02*
G01X01987Y01539D01*
G01X01987Y01539D02*
G01X01987Y01556D01*
G01X01987Y01556D02*
G01X01981Y01571D01*
G01X01981Y01571D02*
G01X01969Y01583D01*
G01X01969Y01583D02*
G01X01977Y01583D01*
G01X01977Y01583D02*
G01X01987Y01593D01*
G01X01987Y01593D02*
G01X01987Y01659D01*
G01X01987Y01659D02*
G01X01977Y01669D01*
G01X01977Y01669D02*
G01X01912Y01669D01*
G01X01912Y01669D02*
G01X01902Y01659D01*
G01X01902Y01659D02*
G01X01902Y01593D01*
G01X01902Y01593D02*
G01X01912Y01583D01*
G01X01912Y01583D02*
G01X01920Y01583D01*
G01X01920Y01583D02*
G01X01908Y01571D01*
G01X01908Y01571D02*
G01X01902Y01556D01*
G01X01902Y01556D02*
G01X01902Y01539D01*
G01X01902Y01539D02*
G01X01908Y01523D01*
G01X01908Y01523D02*
G01X01920Y01511D01*
G01X01920Y01511D02*
G01X01928Y01508D01*
G01X01928Y01508D02*
G01X01920Y01505D01*
G01X01920Y01505D02*
G01X01908Y01493D01*
G01X01908Y01493D02*
G01X01902Y01477D01*
G01X01902Y01477D02*
G01X01902Y01460D01*
G01X01902Y01460D02*
G01X01908Y01444D01*
G01X01908Y01444D02*
G01X01920Y01432D01*
G01X01920Y01432D02*
G01X01931Y01428D01*
G01X01931Y01428D02*
G01X01929Y01427D01*
G01X01929Y01427D02*
G01X01923Y01424D01*
G01X01923Y01424D02*
G01X01918Y01421D01*
G01X01918Y01421D02*
G01X01913Y01416D01*
G01X01913Y01416D02*
G01X01910Y01411D01*
G01X01905Y01401D02*
G01X01632Y01401D01*
G01X01632Y01391D02*
G01X01942Y01391D01*
G01X01942Y01387D02*
G01X01904Y01387D01*
G01X01904Y01387D02*
G01X01904Y01386D01*
G01X01904Y01386D02*
G01X01905Y01380D01*
G01X01905Y01380D02*
G01X01907Y01374D01*
G01X01907Y01374D02*
G01X01910Y01368D01*
G01X01910Y01368D02*
G01X01913Y01363D01*
G01X01913Y01363D02*
G01X01918Y01358D01*
G01X01918Y01358D02*
G01X01923Y01355D01*
G01X01923Y01355D02*
G01X01929Y01352D01*
G01X01929Y01352D02*
G01X01935Y01350D01*
G01X01935Y01350D02*
G01X01941Y01349D01*
G01X01941Y01349D02*
G01X01942Y01349D01*
G01X01942Y01349D02*
G01X01942Y01387D01*
G01X01942Y01381D02*
G01X01947Y01381D01*
G01X01947Y01391D02*
G01X01996Y01391D01*
G01X01996Y01401D02*
G01X01984Y01401D01*
G01X01979Y01411D02*
G01X01996Y01411D01*
G01X01996Y01421D02*
G01X01971Y01421D01*
G01X01966Y01431D02*
G01X01996Y01431D01*
G01X01996Y01441D02*
G01X01977Y01441D01*
G01X01983Y01450D02*
G01X01996Y01450D01*
G01X01996Y01460D02*
G01X01987Y01460D01*
G01X01987Y01470D02*
G01X01996Y01470D01*
G01X01996Y01480D02*
G01X01986Y01480D01*
G01X01982Y01490D02*
G01X01996Y01490D01*
G01X01996Y01500D02*
G01X01974Y01500D01*
G01X01966Y01510D02*
G01X01996Y01510D01*
G01X01996Y01519D02*
G01X01977Y01519D01*
G01X01983Y01529D02*
G01X01996Y01529D01*
G01X01996Y01539D02*
G01X01987Y01539D01*
G01X01987Y01549D02*
G01X01996Y01549D01*
G01X01996Y01559D02*
G01X01986Y01559D01*
G01X01982Y01569D02*
G01X01996Y01569D01*
G01X01996Y01579D02*
G01X01974Y01579D01*
G01X01983Y01588D02*
G01X01996Y01588D01*
G01X01996Y01598D02*
G01X01987Y01598D01*
G01X01987Y01608D02*
G01X01996Y01608D01*
G01X01996Y01618D02*
G01X01987Y01618D01*
G01X01987Y01628D02*
G01X01996Y01628D01*
G01X01996Y01638D02*
G01X01987Y01638D01*
G01X01987Y01648D02*
G01X01996Y01648D01*
G01X01996Y01657D02*
G01X01987Y01657D01*
G01X01979Y01667D02*
G01X01996Y01667D01*
G01X01996Y01677D02*
G01X01867Y01677D01*
G01X01871Y01667D02*
G01X01910Y01667D01*
G01X01902Y01657D02*
G01X01872Y01657D01*
G01X01872Y01648D02*
G01X01902Y01648D01*
G01X01902Y01638D02*
G01X01868Y01638D01*
G01X01864Y01628D02*
G01X01902Y01628D01*
G01X01902Y01618D02*
G01X01855Y01618D01*
G01X01841Y01608D02*
G01X01902Y01608D01*
G01X01902Y01598D02*
G01X01851Y01598D01*
G01X01860Y01588D02*
G01X01906Y01588D01*
G01X01916Y01579D02*
G01X01866Y01579D01*
G01X01870Y01569D02*
G01X01907Y01569D01*
G01X01903Y01559D02*
G01X01872Y01559D01*
G01X01872Y01549D02*
G01X01902Y01549D01*
G01X01902Y01539D02*
G01X01869Y01539D01*
G01X01865Y01529D02*
G01X01906Y01529D01*
G01X01912Y01519D02*
G01X01857Y01519D01*
G01X01844Y01510D02*
G01X01923Y01510D01*
G01X01915Y01500D02*
G01X01849Y01500D01*
G01X01859Y01490D02*
G01X01907Y01490D01*
G01X01903Y01480D02*
G01X01866Y01480D01*
G01X01870Y01470D02*
G01X01902Y01470D01*
G01X01902Y01460D02*
G01X01872Y01460D01*
G01X01872Y01450D02*
G01X01906Y01450D01*
G01X01912Y01441D02*
G01X01870Y01441D01*
G01X01865Y01431D02*
G01X01924Y01431D01*
G01X01918Y01421D02*
G01X01858Y01421D01*
G01X01905Y01381D02*
G01X01632Y01381D01*
G01X01632Y01372D02*
G01X01908Y01372D01*
G01X01915Y01362D02*
G01X01632Y01362D01*
G01X01627Y01352D02*
G01X01929Y01352D01*
G01X01942Y01352D02*
G01X01947Y01352D01*
G01X01947Y01362D02*
G01X01942Y01362D01*
G01X01942Y01372D02*
G01X01947Y01372D01*
G01X01960Y01352D02*
G01X01996Y01352D01*
G01X01996Y01342D02*
G01X01490Y01342D01*
G01X01492Y01352D02*
G01X01552Y01352D01*
G01X01547Y01362D02*
G01X01492Y01362D01*
G01X01489Y01372D02*
G01X01547Y01372D01*
G01X01547Y01381D02*
G01X01485Y01381D01*
G01X01477Y01391D02*
G01X01547Y01391D01*
G01X01547Y01401D02*
G01X01466Y01401D01*
G01X01468Y01411D02*
G01X01547Y01411D01*
G01X01547Y01421D02*
G01X01478Y01421D01*
G01X01485Y01431D02*
G01X01555Y01431D01*
G01X01557Y01441D02*
G01X01490Y01441D01*
G01X01492Y01450D02*
G01X01551Y01450D01*
G01X01547Y01460D02*
G01X01492Y01460D01*
G01X01490Y01470D02*
G01X01547Y01470D01*
G01X01548Y01480D02*
G01X01486Y01480D01*
G01X01479Y01490D02*
G01X01552Y01490D01*
G01X01560Y01500D02*
G01X01469Y01500D01*
G01X01464Y01510D02*
G01X01568Y01510D01*
G01X01557Y01519D02*
G01X01477Y01519D01*
G01X01485Y01529D02*
G01X01551Y01529D01*
G01X01547Y01539D02*
G01X01489Y01539D01*
G01X01492Y01549D02*
G01X01547Y01549D01*
G01X01548Y01559D02*
G01X01492Y01559D01*
G01X01490Y01569D02*
G01X01552Y01569D01*
G01X01561Y01579D02*
G01X01486Y01579D01*
G01X01480Y01588D02*
G01X01573Y01588D01*
G01X01559Y01598D02*
G01X01471Y01598D01*
G01X01409Y01598D02*
G01X01391Y01598D01*
G01X01392Y01588D02*
G01X01399Y01588D01*
G01X01393Y01579D02*
G01X01392Y01579D01*
G01X01386Y01608D02*
G01X01553Y01608D01*
G01X01550Y01618D02*
G01X01392Y01618D01*
G01X01392Y01667D02*
G01X01768Y01667D01*
G01X01768Y01657D02*
G01X01615Y01657D01*
G01X01624Y01648D02*
G01X01768Y01648D01*
G01X01771Y01638D02*
G01X01629Y01638D01*
G01X01614Y01707D02*
G01X01465Y01707D01*
G01X01478Y01716D02*
G01X01601Y01716D01*
G01X01592Y01726D02*
G01X01487Y01726D01*
G01X01491Y01736D02*
G01X01588Y01736D01*
G01X01585Y01746D02*
G01X01495Y01746D01*
G01X01495Y01756D02*
G01X01585Y01756D01*
G01X01585Y01766D02*
G01X01495Y01766D01*
G01X01491Y01776D02*
G01X01588Y01776D01*
G01X01592Y01785D02*
G01X01487Y01785D01*
G01X01478Y01795D02*
G01X01601Y01795D01*
G01X01615Y01805D02*
G01X01552Y01805D01*
G01X01545Y01805D02*
G01X01535Y01805D01*
G01X01527Y01805D02*
G01X01465Y01805D01*
G01X01475Y01815D02*
G01X01507Y01815D01*
G01X01498Y01825D02*
G01X01485Y01825D01*
G01X01489Y01835D02*
G01X01492Y01835D01*
G01X01535Y01835D02*
G01X01545Y01835D01*
G01X01545Y01825D02*
G01X01535Y01825D01*
G01X01535Y01815D02*
G01X01545Y01815D01*
G01X01572Y01815D02*
G01X01604Y01815D01*
G01X01594Y01825D02*
G01X01581Y01825D01*
G01X01587Y01835D02*
G01X01590Y01835D01*
G01X01545Y01845D02*
G01X01535Y01845D01*
G01X01535Y01861D02*
G01X01535Y01904D01*
G01X01535Y01904D02*
G01X01535Y01951D01*
G01X01535Y01951D02*
G01X01545Y01951D01*
G01X01545Y01951D02*
G01X01545Y01904D01*
G01X01545Y01904D02*
G01X01545Y01861D01*
G01X01545Y01861D02*
G01X01535Y01861D01*
G01X01535Y01864D02*
G01X01545Y01864D01*
G01X01545Y01874D02*
G01X01535Y01874D01*
G01X01535Y01884D02*
G01X01545Y01884D01*
G01X01545Y01894D02*
G01X01535Y01894D01*
G01X01535Y01904D02*
G01X01545Y01904D01*
G01X01545Y01914D02*
G01X01535Y01914D01*
G01X01535Y01923D02*
G01X01545Y01923D01*
G01X01545Y01933D02*
G01X01535Y01933D01*
G01X01535Y01943D02*
G01X01545Y01943D01*
G01X01545Y01963D02*
G01X01535Y01963D01*
G01X01535Y01973D02*
G01X01545Y01973D01*
G01X01545Y01983D02*
G01X01535Y01983D01*
G01X01535Y01992D02*
G01X01545Y01992D01*
G01X01545Y02002D02*
G01X01535Y02002D01*
G01X01516Y02002D02*
G01X01468Y02002D01*
G01X01479Y01992D02*
G01X01503Y01992D01*
G01X01495Y01983D02*
G01X01487Y01983D01*
G01X01411Y02002D02*
G01X01368Y02002D01*
G01X01379Y01992D02*
G01X01400Y01992D01*
G01X01392Y01983D02*
G01X01387Y01983D01*
G01X01311Y02002D02*
G01X01268Y02002D01*
G01X01279Y01992D02*
G01X01300Y01992D01*
G01X01292Y01983D02*
G01X01287Y01983D01*
G01X01211Y02002D02*
G01X01168Y02002D01*
G01X01179Y01992D02*
G01X01200Y01992D01*
G01X01192Y01983D02*
G01X01187Y01983D01*
G01X01111Y02002D02*
G01X01068Y02002D01*
G01X01079Y01992D02*
G01X01100Y01992D01*
G01X01092Y01983D02*
G01X01087Y01983D01*
G01X01011Y02002D02*
G01X00968Y02002D01*
G01X00979Y01992D02*
G01X01000Y01992D01*
G01X00992Y01983D02*
G01X00987Y01983D01*
G01X00911Y02002D02*
G01X00868Y02002D01*
G01X00879Y01992D02*
G01X00900Y01992D01*
G01X00892Y01983D02*
G01X00887Y01983D01*
G01X00811Y02002D02*
G01X00768Y02002D01*
G01X00779Y01992D02*
G01X00800Y01992D01*
G01X00792Y01983D02*
G01X00787Y01983D01*
G01X00711Y02002D02*
G01X00668Y02002D01*
G01X00679Y01992D02*
G01X00700Y01992D01*
G01X00692Y01983D02*
G01X00687Y01983D01*
G01X00611Y02002D02*
G01X00082Y02002D01*
G01X00082Y01992D02*
G01X00506Y01992D01*
G01X00500Y01990D02*
G01X00519Y01998D01*
G01X00519Y01998D02*
G01X00540Y01998D01*
G01X00540Y01998D02*
G01X00559Y01990D01*
G01X00559Y01990D02*
G01X00574Y01975D01*
G01X00574Y01975D02*
G01X00582Y01956D01*
G01X00582Y01956D02*
G01X00582Y01935D01*
G01X00582Y01935D02*
G01X00574Y01916D01*
G01X00574Y01916D02*
G01X00559Y01902D01*
G01X00559Y01902D02*
G01X00557Y01901D01*
G01X00557Y01901D02*
G01X00559Y01900D01*
G01X00559Y01900D02*
G01X00574Y01885D01*
G01X00574Y01885D02*
G01X00582Y01866D01*
G01X00582Y01866D02*
G01X00582Y01845D01*
G01X00582Y01845D02*
G01X00574Y01826D01*
G01X00574Y01826D02*
G01X00559Y01812D01*
G01X00559Y01812D02*
G01X00557Y01811D01*
G01X00557Y01811D02*
G01X00559Y01810D01*
G01X00559Y01810D02*
G01X00574Y01795D01*
G01X00574Y01795D02*
G01X00582Y01776D01*
G01X00582Y01776D02*
G01X00582Y01755D01*
G01X00582Y01755D02*
G01X00574Y01736D01*
G01X00574Y01736D02*
G01X00559Y01722D01*
G01X00559Y01722D02*
G01X00540Y01714D01*
G01X00540Y01714D02*
G01X00519Y01714D01*
G01X00519Y01714D02*
G01X00500Y01722D01*
G01X00500Y01722D02*
G01X00495Y01726D01*
G01X00495Y01726D02*
G01X00495Y01726D01*
G01X00495Y01726D02*
G01X00493Y01724D01*
G01X00493Y01724D02*
G01X00391Y01724D01*
G01X00391Y01724D02*
G01X00381Y01734D01*
G01X00381Y01734D02*
G01X00381Y01796D01*
G01X00381Y01796D02*
G01X00391Y01806D01*
G01X00391Y01806D02*
G01X00493Y01806D01*
G01X00493Y01806D02*
G01X00494Y01804D01*
G01X00494Y01804D02*
G01X00500Y01810D01*
G01X00500Y01810D02*
G01X00502Y01811D01*
G01X00502Y01811D02*
G01X00500Y01812D01*
G01X00500Y01812D02*
G01X00495Y01817D01*
G01X00495Y01817D02*
G01X00493Y01815D01*
G01X00493Y01815D02*
G01X00391Y01815D01*
G01X00391Y01815D02*
G01X00381Y01825D01*
G01X00381Y01825D02*
G01X00381Y01887D01*
G01X00381Y01887D02*
G01X00391Y01897D01*
G01X00391Y01897D02*
G01X00493Y01897D01*
G01X00493Y01897D02*
G01X00495Y01894D01*
G01X00495Y01894D02*
G01X00500Y01900D01*
G01X00500Y01900D02*
G01X00502Y01901D01*
G01X00502Y01901D02*
G01X00500Y01902D01*
G01X00500Y01902D02*
G01X00494Y01907D01*
G01X00494Y01907D02*
G01X00493Y01906D01*
G01X00493Y01906D02*
G01X00391Y01906D01*
G01X00391Y01906D02*
G01X00381Y01916D01*
G01X00381Y01916D02*
G01X00381Y01978D01*
G01X00381Y01978D02*
G01X00391Y01988D01*
G01X00391Y01988D02*
G01X00493Y01988D01*
G01X00493Y01988D02*
G01X00495Y01985D01*
G01X00495Y01985D02*
G01X00500Y01990D01*
G01X00553Y01992D02*
G01X00600Y01992D01*
G01X00592Y01983D02*
G01X00566Y01983D01*
G01X00575Y01973D02*
G01X00588Y01973D01*
G01X00586Y01963D02*
G01X00579Y01963D01*
G01X00582Y01953D02*
G01X00586Y01953D01*
G01X00586Y01943D02*
G01X00582Y01943D01*
G01X00581Y01933D02*
G01X00590Y01933D01*
G01X00595Y01923D02*
G01X00577Y01923D01*
G01X00571Y01914D02*
G01X00605Y01914D01*
G01X00614Y01904D02*
G01X00561Y01904D01*
G01X00565Y01894D02*
G01X00601Y01894D01*
G01X00593Y01884D02*
G01X00574Y01884D01*
G01X00578Y01874D02*
G01X00589Y01874D01*
G01X00586Y01864D02*
G01X00582Y01864D01*
G01X00582Y01854D02*
G01X00586Y01854D01*
G01X00586Y01845D02*
G01X00581Y01845D01*
G01X00577Y01835D02*
G01X00590Y01835D01*
G01X00594Y01825D02*
G01X00572Y01825D01*
G01X00562Y01815D02*
G01X00604Y01815D01*
G01X00615Y01805D02*
G01X00564Y01805D01*
G01X00573Y01795D02*
G01X00601Y01795D01*
G01X00592Y01785D02*
G01X00578Y01785D01*
G01X00582Y01776D02*
G01X00588Y01776D01*
G01X00585Y01766D02*
G01X00582Y01766D01*
G01X00582Y01756D02*
G01X00585Y01756D01*
G01X00585Y01746D02*
G01X00578Y01746D01*
G01X00574Y01736D02*
G01X00588Y01736D01*
G01X00592Y01726D02*
G01X00564Y01726D01*
G01X00547Y01716D02*
G01X00601Y01716D01*
G01X00596Y01707D02*
G01X00082Y01707D01*
G01X00082Y01716D02*
G01X00512Y01716D01*
G01X00508Y01697D02*
G01X00471Y01697D01*
G01X00481Y01687D02*
G01X00498Y01687D01*
G01X00491Y01677D02*
G01X00488Y01677D01*
G01X00440Y01651D02*
G01X00490Y01576D01*
G01X00490Y01576D02*
G01X00490Y01501D01*
G01X00490Y01501D02*
G01X00465Y01476D01*
G01X00465Y01476D02*
G01X00465Y01348D01*
G01X00415Y01348D02*
G01X00415Y01481D01*
G01X00415Y01481D02*
G01X00440Y01506D01*
G01X00440Y01506D02*
G01X00440Y01551D01*
G01X00390Y01601D02*
G01X00390Y01501D01*
G01X00390Y01501D02*
G01X00365Y01476D01*
G01X00365Y01476D02*
G01X00365Y01348D01*
G01X00315Y01348D02*
G01X00315Y01526D01*
G01X00315Y01526D02*
G01X00340Y01551D01*
G01X00290Y01601D02*
G01X00290Y01501D01*
G01X00290Y01501D02*
G01X00265Y01476D01*
G01X00265Y01476D02*
G01X00265Y01348D01*
G01X00215Y01348D02*
G01X00215Y01456D01*
G01X00215Y01456D02*
G01X00240Y01481D01*
G01X00240Y01481D02*
G01X00240Y01551D01*
G01X00190Y01591D02*
G01X00190Y01501D01*
G01X00190Y01501D02*
G01X00165Y01476D01*
G01X00165Y01476D02*
G01X00165Y01348D01*
G01X00115Y01348D02*
G01X00115Y01431D01*
G01X00115Y01431D02*
G01X00140Y01456D01*
G01X00140Y01456D02*
G01X00140Y01551D01*
G01X00099Y01588D02*
G01X00082Y01588D01*
G01X00082Y01579D02*
G01X00092Y01579D01*
G01X00087Y01569D02*
G01X00082Y01569D01*
G01X00082Y01559D02*
G01X00085Y01559D01*
G01X00085Y01549D02*
G01X00082Y01549D01*
G01X00082Y01539D02*
G01X00085Y01539D01*
G01X00082Y01529D02*
G01X00089Y01529D01*
G01X00093Y01519D02*
G01X00082Y01519D01*
G01X00082Y01510D02*
G01X00103Y01510D01*
G01X00118Y01500D02*
G01X00082Y01500D01*
G01X00082Y01490D02*
G01X00118Y01490D01*
G01X00118Y01480D02*
G01X00082Y01480D01*
G01X00082Y01470D02*
G01X00118Y01470D01*
G01X00113Y01460D02*
G01X00082Y01460D01*
G01X00082Y01450D02*
G01X00103Y01450D01*
G01X00093Y01441D02*
G01X00082Y01441D01*
G01X00082Y01431D02*
G01X00086Y01431D01*
G01X00086Y01421D02*
G01X00082Y01421D01*
G01X00082Y01411D02*
G01X00086Y01411D01*
G01X00086Y01401D02*
G01X00082Y01401D01*
G01X00082Y01391D02*
G01X00086Y01391D01*
G01X00086Y01381D02*
G01X00082Y01381D01*
G01X00082Y01372D02*
G01X00086Y01372D01*
G01X00086Y01362D02*
G01X00082Y01362D01*
G01X00082Y01352D02*
G01X00086Y01352D01*
G01X00086Y01342D02*
G01X00082Y01342D01*
G01X00082Y01332D02*
G01X00086Y01332D01*
G01X00086Y01322D02*
G01X00082Y01322D01*
G01X00082Y01312D02*
G01X00086Y01312D01*
G01X00086Y01303D02*
G01X00082Y01303D01*
G01X00082Y01293D02*
G01X00086Y01293D01*
G01X00086Y01283D02*
G01X00082Y01283D01*
G01X00082Y01273D02*
G01X00086Y01273D01*
G01X00087Y01263D02*
G01X00082Y01263D01*
G01X00082Y01253D02*
G01X00588Y01253D01*
G01X00588Y01243D02*
G01X00082Y01243D01*
G01X00082Y01234D02*
G01X00588Y01234D01*
G01X00588Y01224D02*
G01X00082Y01224D01*
G01X00082Y01214D02*
G01X00588Y01214D01*
G01X00594Y01204D02*
G01X00082Y01204D01*
G01X00082Y01194D02*
G01X00588Y01194D01*
G01X00588Y01184D02*
G01X00082Y01184D01*
G01X00082Y01175D02*
G01X00588Y01175D01*
G01X00588Y01165D02*
G01X00082Y01165D01*
G01X00082Y01155D02*
G01X00588Y01155D01*
G01X00588Y01145D02*
G01X00082Y01145D01*
G01X00082Y01135D02*
G01X00588Y01135D01*
G01X00588Y01125D02*
G01X00585Y01125D01*
G01X00544Y01125D02*
G01X00535Y01125D01*
G01X00494Y01125D02*
G01X00485Y01125D01*
G01X00444Y01125D02*
G01X00435Y01125D01*
G01X00394Y01125D02*
G01X00385Y01125D01*
G01X00344Y01125D02*
G01X00335Y01125D01*
G01X00294Y01125D02*
G01X00285Y01125D01*
G01X00244Y01125D02*
G01X00235Y01125D01*
G01X00194Y01125D02*
G01X00185Y01125D01*
G01X00144Y01125D02*
G01X00135Y01125D01*
G01X00094Y01125D02*
G01X00082Y01125D01*
G01X00082Y01115D02*
G01X00086Y01115D01*
G01X00086Y01106D02*
G01X00082Y01106D01*
G01X00082Y01096D02*
G01X00086Y01096D01*
G01X00086Y01086D02*
G01X00082Y01086D01*
G01X00082Y01076D02*
G01X00086Y01076D01*
G01X00086Y01066D02*
G01X00082Y01066D01*
G01X00082Y01056D02*
G01X00086Y01056D01*
G01X00086Y01046D02*
G01X00082Y01046D01*
G01X00082Y01037D02*
G01X00086Y01037D01*
G01X00086Y01027D02*
G01X00082Y01027D01*
G01X00082Y01017D02*
G01X00086Y01017D01*
G01X00086Y01007D02*
G01X00082Y01007D01*
G01X00082Y00997D02*
G01X00086Y00997D01*
G01X00086Y00987D02*
G01X00082Y00987D01*
G01X00082Y00977D02*
G01X00086Y00977D01*
G01X00086Y00968D02*
G01X00082Y00968D01*
G01X00082Y00958D02*
G01X00086Y00958D01*
G01X00087Y00948D02*
G01X00082Y00948D01*
G01X00082Y00938D02*
G01X00093Y00938D01*
G01X00093Y00928D02*
G01X00082Y00928D01*
G01X00082Y00918D02*
G01X00093Y00918D01*
G01X00093Y00908D02*
G01X00082Y00908D01*
G01X00082Y00899D02*
G01X00093Y00899D01*
G01X00093Y00889D02*
G01X00082Y00889D01*
G01X00082Y00879D02*
G01X00090Y00879D01*
G01X00086Y00869D02*
G01X00082Y00869D01*
G01X00082Y00859D02*
G01X00085Y00859D01*
G01X00085Y00849D02*
G01X00082Y00849D01*
G01X00082Y00839D02*
G01X00087Y00839D01*
G01X00091Y00830D02*
G01X00082Y00830D01*
G01X00082Y00820D02*
G01X00098Y00820D01*
G01X00108Y00810D02*
G01X00082Y00810D01*
G01X00082Y00800D02*
G01X00106Y00800D01*
G01X00096Y00790D02*
G01X00082Y00790D01*
G01X00082Y00780D02*
G01X00090Y00780D01*
G01X00086Y00770D02*
G01X00082Y00770D01*
G01X00082Y00761D02*
G01X00085Y00761D01*
G01X00085Y00751D02*
G01X00082Y00751D01*
G01X00082Y00741D02*
G01X00086Y00741D01*
G01X00090Y00731D02*
G01X00082Y00731D01*
G01X00082Y00721D02*
G01X00096Y00721D01*
G01X00106Y00711D02*
G01X00082Y00711D01*
G01X00082Y00702D02*
G01X00127Y00702D01*
G01X00130Y00682D02*
G01X00082Y00682D01*
G01X00082Y00672D02*
G01X00117Y00672D01*
G01X00110Y00665D02*
G01X00103Y00646D01*
G01X00103Y00646D02*
G01X00103Y00625D01*
G01X00103Y00625D02*
G01X00110Y00606D01*
G01X00110Y00606D02*
G01X00125Y00592D01*
G01X00125Y00592D02*
G01X00144Y00584D01*
G01X00144Y00584D02*
G01X00165Y00584D01*
G01X00165Y00584D02*
G01X00184Y00592D01*
G01X00184Y00592D02*
G01X00196Y00604D01*
G01X00196Y00604D02*
G01X00267Y00604D01*
G01X00267Y00604D02*
G01X00277Y00614D01*
G01X00277Y00614D02*
G01X00277Y00658D01*
G01X00277Y00658D02*
G01X00267Y00668D01*
G01X00267Y00668D02*
G01X00196Y00668D01*
G01X00196Y00668D02*
G01X00184Y00680D01*
G01X00184Y00680D02*
G01X00165Y00688D01*
G01X00165Y00688D02*
G01X00144Y00688D01*
G01X00144Y00688D02*
G01X00125Y00680D01*
G01X00125Y00680D02*
G01X00110Y00665D01*
G01X00109Y00662D02*
G01X00082Y00662D01*
G01X00082Y00652D02*
G01X00105Y00652D01*
G01X00103Y00642D02*
G01X00082Y00642D01*
G01X00082Y00633D02*
G01X00103Y00633D01*
G01X00104Y00623D02*
G01X00082Y00623D01*
G01X00082Y00613D02*
G01X00108Y00613D01*
G01X00114Y00603D02*
G01X00082Y00603D01*
G01X00082Y00593D02*
G01X00124Y00593D01*
G01X00082Y00583D02*
G01X00588Y00583D01*
G01X00588Y00573D02*
G01X00082Y00573D01*
G01X00082Y00564D02*
G01X00588Y00564D01*
G01X00588Y00554D02*
G01X00082Y00554D01*
G01X00082Y00544D02*
G01X00588Y00544D01*
G01X00588Y00534D02*
G01X00524Y00534D01*
G01X00515Y00538D02*
G01X00494Y00538D01*
G01X00494Y00538D02*
G01X00475Y00530D01*
G01X00475Y00530D02*
G01X00463Y00518D01*
G01X00463Y00518D02*
G01X00393Y00518D01*
G01X00393Y00518D02*
G01X00383Y00508D01*
G01X00383Y00508D02*
G01X00383Y00464D01*
G01X00383Y00464D02*
G01X00393Y00454D01*
G01X00393Y00454D02*
G01X00463Y00454D01*
G01X00463Y00454D02*
G01X00475Y00442D01*
G01X00475Y00442D02*
G01X00494Y00434D01*
G01X00494Y00434D02*
G01X00515Y00434D01*
G01X00515Y00434D02*
G01X00534Y00442D01*
G01X00534Y00442D02*
G01X00549Y00456D01*
G01X00549Y00456D02*
G01X00557Y00475D01*
G01X00557Y00475D02*
G01X00557Y00496D01*
G01X00557Y00496D02*
G01X00549Y00515D01*
G01X00549Y00515D02*
G01X00534Y00530D01*
G01X00534Y00530D02*
G01X00515Y00538D01*
G01X00540Y00524D02*
G01X00588Y00524D01*
G01X00588Y00514D02*
G01X00549Y00514D01*
G01X00553Y00504D02*
G01X00594Y00504D01*
G01X00588Y00495D02*
G01X00557Y00495D01*
G01X00557Y00485D02*
G01X00588Y00485D01*
G01X00588Y00475D02*
G01X00556Y00475D01*
G01X00552Y00465D02*
G01X00588Y00465D01*
G01X00588Y00455D02*
G01X00548Y00455D01*
G01X00538Y00445D02*
G01X00588Y00445D01*
G01X00588Y00435D02*
G01X00519Y00435D01*
G01X00517Y00426D02*
G01X00588Y00426D01*
G01X00588Y00416D02*
G01X00528Y00416D01*
G01X00535Y00406D02*
G01X00595Y00406D01*
G01X00602Y00396D02*
G01X00539Y00396D01*
G01X00542Y00386D02*
G01X00593Y00386D01*
G01X00589Y00376D02*
G01X00542Y00376D01*
G01X00540Y00366D02*
G01X00585Y00366D01*
G01X00585Y00357D02*
G01X00536Y00357D01*
G01X00529Y00347D02*
G01X00585Y00347D01*
G01X00588Y00337D02*
G01X00526Y00337D01*
G01X00526Y00327D02*
G01X00592Y00327D01*
G01X00600Y00317D02*
G01X00526Y00317D01*
G01X00526Y00307D02*
G01X00613Y00307D01*
G01X00605Y00297D02*
G01X00526Y00297D01*
G01X00526Y00288D02*
G01X00595Y00288D01*
G01X00590Y00278D02*
G01X00525Y00278D01*
G01X00558Y00268D02*
G01X00586Y00268D01*
G01X00586Y00258D02*
G01X00564Y00258D01*
G01X00564Y00248D02*
G01X00586Y00248D01*
G01X00588Y00238D02*
G01X00564Y00238D01*
G01X00564Y00228D02*
G01X00592Y00228D01*
G01X00600Y00219D02*
G01X00564Y00219D01*
G01X00564Y00209D02*
G01X00612Y00209D01*
G01X00606Y00199D02*
G01X00570Y00199D01*
G01X00579Y00189D02*
G01X00597Y00189D01*
G01X00591Y00179D02*
G01X00583Y00179D01*
G01X00587Y00169D02*
G01X00587Y00169D01*
G01X00588Y00140D02*
G01X00582Y00140D01*
G01X00577Y00130D02*
G01X00592Y00130D01*
G01X00599Y00120D02*
G01X00568Y00120D01*
G01X00549Y00110D02*
G01X00609Y00110D01*
G01X00670Y00110D02*
G01X00709Y00110D01*
G01X00699Y00120D02*
G01X00680Y00120D01*
G01X00687Y00130D02*
G01X00692Y00130D01*
G01X00770Y00110D02*
G01X00809Y00110D01*
G01X00799Y00120D02*
G01X00780Y00120D01*
G01X00787Y00130D02*
G01X00792Y00130D01*
G01X00870Y00110D02*
G01X00909Y00110D01*
G01X00899Y00120D02*
G01X00880Y00120D01*
G01X00887Y00130D02*
G01X00892Y00130D01*
G01X00970Y00110D02*
G01X01009Y00110D01*
G01X00999Y00120D02*
G01X00980Y00120D01*
G01X00987Y00130D02*
G01X00992Y00130D01*
G01X01070Y00110D02*
G01X01109Y00110D01*
G01X01099Y00120D02*
G01X01080Y00120D01*
G01X01087Y00130D02*
G01X01092Y00130D01*
G01X01170Y00110D02*
G01X01209Y00110D01*
G01X01199Y00120D02*
G01X01180Y00120D01*
G01X01187Y00130D02*
G01X01192Y00130D01*
G01X01270Y00110D02*
G01X01314Y00110D01*
G01X01302Y00120D02*
G01X01280Y00120D01*
G01X01287Y00130D02*
G01X01294Y00130D01*
G01X01335Y00130D02*
G01X01345Y00130D01*
G01X01345Y00140D02*
G01X01335Y00140D01*
G01X01335Y00150D02*
G01X01345Y00150D01*
G01X01345Y00161D02*
G01X01335Y00161D01*
G01X01335Y00161D02*
G01X01335Y00208D01*
G01X01335Y00208D02*
G01X01335Y00251D01*
G01X01335Y00251D02*
G01X01345Y00251D01*
G01X01345Y00251D02*
G01X01345Y00208D01*
G01X01345Y00208D02*
G01X01345Y00161D01*
G01X01345Y00169D02*
G01X01335Y00169D01*
G01X01335Y00179D02*
G01X01345Y00179D01*
G01X01345Y00189D02*
G01X01335Y00189D01*
G01X01335Y00199D02*
G01X01345Y00199D01*
G01X01345Y00209D02*
G01X01335Y00209D01*
G01X01335Y00219D02*
G01X01345Y00219D01*
G01X01345Y00228D02*
G01X01335Y00228D01*
G01X01335Y00238D02*
G01X01345Y00238D01*
G01X01345Y00248D02*
G01X01335Y00248D01*
G01X01335Y00261D02*
G01X01335Y00308D01*
G01X01335Y00308D02*
G01X01327Y00306D01*
G01X01327Y00306D02*
G01X01320Y00304D01*
G01X01320Y00304D02*
G01X01312Y00300D01*
G01X01312Y00300D02*
G01X01306Y00295D01*
G01X01306Y00295D02*
G01X01300Y00290D01*
G01X01300Y00290D02*
G01X01295Y00283D01*
G01X01295Y00283D02*
G01X01291Y00276D01*
G01X01291Y00276D02*
G01X01291Y00273D01*
G01X01291Y00273D02*
G01X01285Y00286D01*
G01X01285Y00286D02*
G01X01270Y00301D01*
G01X01270Y00301D02*
G01X01265Y00304D01*
G01X01265Y00304D02*
G01X01265Y00307D01*
G01X01265Y00307D02*
G01X01271Y00309D01*
G01X01271Y00309D02*
G01X01286Y00325D01*
G01X01286Y00325D02*
G01X01295Y00345D01*
G01X01295Y00345D02*
G01X01295Y00367D01*
G01X01295Y00367D02*
G01X01286Y00387D01*
G01X01286Y00387D02*
G01X01271Y00402D01*
G01X01271Y00402D02*
G01X01267Y00404D01*
G01X01267Y00404D02*
G01X01282Y00404D01*
G01X01282Y00404D02*
G01X01290Y00412D01*
G01X01290Y00412D02*
G01X01298Y00404D01*
G01X01298Y00404D02*
G01X01382Y00404D01*
G01X01382Y00404D02*
G01X01392Y00414D01*
G01X01392Y00414D02*
G01X01392Y00436D01*
G01X01392Y00436D02*
G01X01395Y00426D01*
G01X01395Y00426D02*
G01X01410Y00412D01*
G01X01410Y00412D02*
G01X01420Y00407D01*
G01X01420Y00407D02*
G01X01408Y00402D01*
G01X01408Y00402D02*
G01X01393Y00387D01*
G01X01393Y00387D02*
G01X01385Y00367D01*
G01X01385Y00367D02*
G01X01385Y00345D01*
G01X01385Y00345D02*
G01X01393Y00325D01*
G01X01393Y00325D02*
G01X01408Y00309D01*
G01X01408Y00309D02*
G01X01415Y00307D01*
G01X01415Y00307D02*
G01X01415Y00304D01*
G01X01415Y00304D02*
G01X01409Y00301D01*
G01X01409Y00301D02*
G01X01394Y00286D01*
G01X01394Y00286D02*
G01X01388Y00273D01*
G01X01388Y00273D02*
G01X01388Y00276D01*
G01X01388Y00276D02*
G01X01384Y00283D01*
G01X01384Y00283D02*
G01X01379Y00290D01*
G01X01379Y00290D02*
G01X01373Y00295D01*
G01X01373Y00295D02*
G01X01367Y00300D01*
G01X01367Y00300D02*
G01X01360Y00304D01*
G01X01360Y00304D02*
G01X01352Y00306D01*
G01X01352Y00306D02*
G01X01345Y00308D01*
G01X01345Y00308D02*
G01X01345Y00261D01*
G01X01345Y00261D02*
G01X01335Y00261D01*
G01X01335Y00268D02*
G01X01345Y00268D01*
G01X01345Y00278D02*
G01X01335Y00278D01*
G01X01335Y00288D02*
G01X01345Y00288D01*
G01X01345Y00297D02*
G01X01335Y00297D01*
G01X01335Y00307D02*
G01X01345Y00307D01*
G01X01346Y00307D02*
G01X01413Y00307D01*
G01X01405Y00297D02*
G01X01370Y00297D01*
G01X01381Y00288D02*
G01X01395Y00288D01*
G01X01390Y00278D02*
G01X01387Y00278D01*
G01X01400Y00317D02*
G01X01279Y00317D01*
G01X01287Y00327D02*
G01X01392Y00327D01*
G01X01388Y00337D02*
G01X01291Y00337D01*
G01X01295Y00347D02*
G01X01385Y00347D01*
G01X01385Y00357D02*
G01X01295Y00357D01*
G01X01295Y00366D02*
G01X01385Y00366D01*
G01X01389Y00376D02*
G01X01291Y00376D01*
G01X01286Y00386D02*
G01X01393Y00386D01*
G01X01402Y00396D02*
G01X01277Y00396D01*
G01X01284Y00406D02*
G01X01295Y00406D01*
G01X01384Y00406D02*
G01X01417Y00406D01*
G01X01406Y00416D02*
G01X01392Y00416D01*
G01X01392Y00426D02*
G01X01396Y00426D01*
G01X01392Y00435D02*
G01X01392Y00435D01*
G01X01462Y00406D02*
G01X01517Y00406D01*
G01X01502Y00396D02*
G01X01477Y00396D01*
G01X01486Y00386D02*
G01X01493Y00386D01*
G01X01473Y00416D02*
G01X01996Y00416D01*
G01X01996Y00426D02*
G01X01483Y00426D01*
G01X01487Y00435D02*
G01X01996Y00435D01*
G01X01996Y00445D02*
G01X01961Y00445D01*
G01X01960Y00445D02*
G01X01966Y00448D01*
G01X01966Y00448D02*
G01X01971Y00451D01*
G01X01971Y00451D02*
G01X01976Y00456D01*
G01X01976Y00456D02*
G01X01979Y00461D01*
G01X01979Y00461D02*
G01X01982Y00467D01*
G01X01982Y00467D02*
G01X01984Y00473D01*
G01X01984Y00473D02*
G01X01985Y00479D01*
G01X01985Y00479D02*
G01X01985Y00480D01*
G01X01985Y00480D02*
G01X01947Y00480D01*
G01X01947Y00480D02*
G01X01947Y00442D01*
G01X01947Y00442D02*
G01X01948Y00442D01*
G01X01948Y00442D02*
G01X01954Y00443D01*
G01X01954Y00443D02*
G01X01960Y00445D01*
G01X01947Y00445D02*
G01X01942Y00445D01*
G01X01942Y00442D02*
G01X01942Y00480D01*
G01X01942Y00480D02*
G01X01947Y00480D01*
G01X01947Y00480D02*
G01X01947Y00485D01*
G01X01947Y00485D02*
G01X01985Y00485D01*
G01X01985Y00485D02*
G01X01985Y00486D01*
G01X01985Y00486D02*
G01X01984Y00492D01*
G01X01984Y00492D02*
G01X01982Y00498D01*
G01X01982Y00498D02*
G01X01979Y00504D01*
G01X01979Y00504D02*
G01X01976Y00509D01*
G01X01976Y00509D02*
G01X01971Y00514D01*
G01X01971Y00514D02*
G01X01966Y00517D01*
G01X01966Y00517D02*
G01X01960Y00520D01*
G01X01960Y00520D02*
G01X01959Y00521D01*
G01X01959Y00521D02*
G01X01969Y00525D01*
G01X01969Y00525D02*
G01X01981Y00537D01*
G01X01981Y00537D02*
G01X01987Y00553D01*
G01X01987Y00553D02*
G01X01987Y00570D01*
G01X01987Y00570D02*
G01X01981Y00586D01*
G01X01981Y00586D02*
G01X01969Y00598D01*
G01X01969Y00598D02*
G01X01961Y00601D01*
G01X01961Y00601D02*
G01X01969Y00604D01*
G01X01969Y00604D02*
G01X01981Y00616D01*
G01X01981Y00616D02*
G01X01987Y00632D01*
G01X01987Y00632D02*
G01X01987Y00649D01*
G01X01987Y00649D02*
G01X01981Y00664D01*
G01X01981Y00664D02*
G01X01969Y00676D01*
G01X01969Y00676D02*
G01X01977Y00676D01*
G01X01977Y00676D02*
G01X01987Y00686D01*
G01X01987Y00686D02*
G01X01987Y00752D01*
G01X01987Y00752D02*
G01X01977Y00762D01*
G01X01977Y00762D02*
G01X01912Y00762D01*
G01X01912Y00762D02*
G01X01902Y00752D01*
G01X01902Y00752D02*
G01X01902Y00686D01*
G01X01902Y00686D02*
G01X01912Y00676D01*
G01X01912Y00676D02*
G01X01920Y00676D01*
G01X01920Y00676D02*
G01X01908Y00664D01*
G01X01908Y00664D02*
G01X01902Y00649D01*
G01X01902Y00649D02*
G01X01902Y00632D01*
G01X01902Y00632D02*
G01X01908Y00616D01*
G01X01908Y00616D02*
G01X01920Y00604D01*
G01X01920Y00604D02*
G01X01928Y00601D01*
G01X01928Y00601D02*
G01X01920Y00598D01*
G01X01920Y00598D02*
G01X01908Y00586D01*
G01X01908Y00586D02*
G01X01902Y00570D01*
G01X01902Y00570D02*
G01X01902Y00553D01*
G01X01902Y00553D02*
G01X01908Y00537D01*
G01X01908Y00537D02*
G01X01920Y00525D01*
G01X01920Y00525D02*
G01X01931Y00521D01*
G01X01931Y00521D02*
G01X01929Y00520D01*
G01X01929Y00520D02*
G01X01923Y00517D01*
G01X01923Y00517D02*
G01X01918Y00514D01*
G01X01918Y00514D02*
G01X01913Y00509D01*
G01X01913Y00509D02*
G01X01910Y00504D01*
G01X01910Y00504D02*
G01X01907Y00498D01*
G01X01907Y00498D02*
G01X01905Y00492D01*
G01X01905Y00492D02*
G01X01904Y00486D01*
G01X01904Y00486D02*
G01X01904Y00485D01*
G01X01904Y00485D02*
G01X01942Y00485D01*
G01X01942Y00485D02*
G01X01942Y00480D01*
G01X01942Y00480D02*
G01X01904Y00480D01*
G01X01904Y00480D02*
G01X01904Y00479D01*
G01X01904Y00479D02*
G01X01905Y00473D01*
G01X01905Y00473D02*
G01X01907Y00467D01*
G01X01907Y00467D02*
G01X01910Y00461D01*
G01X01910Y00461D02*
G01X01913Y00456D01*
G01X01913Y00456D02*
G01X01918Y00451D01*
G01X01918Y00451D02*
G01X01923Y00448D01*
G01X01923Y00448D02*
G01X01929Y00445D01*
G01X01929Y00445D02*
G01X01935Y00443D01*
G01X01935Y00443D02*
G01X01941Y00442D01*
G01X01941Y00442D02*
G01X01942Y00442D01*
G01X01942Y00455D02*
G01X01947Y00455D01*
G01X01947Y00465D02*
G01X01942Y00465D01*
G01X01942Y00475D02*
G01X01947Y00475D01*
G01X01947Y00485D02*
G01X01996Y00485D01*
G01X01996Y00495D02*
G01X01983Y00495D01*
G01X01979Y00504D02*
G01X01996Y00504D01*
G01X01996Y00514D02*
G01X01970Y00514D01*
G01X01966Y00524D02*
G01X01996Y00524D01*
G01X01996Y00534D02*
G01X01978Y00534D01*
G01X01984Y00544D02*
G01X01996Y00544D01*
G01X01996Y00554D02*
G01X01987Y00554D01*
G01X01987Y00564D02*
G01X01996Y00564D01*
G01X01996Y00573D02*
G01X01986Y00573D01*
G01X01982Y00583D02*
G01X01996Y00583D01*
G01X01996Y00593D02*
G01X01973Y00593D01*
G01X01967Y00603D02*
G01X01996Y00603D01*
G01X01996Y00613D02*
G01X01978Y00613D01*
G01X01984Y00623D02*
G01X01996Y00623D01*
G01X01996Y00633D02*
G01X01987Y00633D01*
G01X01987Y00642D02*
G01X01996Y00642D01*
G01X01996Y00652D02*
G01X01986Y00652D01*
G01X01982Y00662D02*
G01X01996Y00662D01*
G01X01996Y00672D02*
G01X01973Y00672D01*
G01X01983Y00682D02*
G01X01996Y00682D01*
G01X01996Y00692D02*
G01X01987Y00692D01*
G01X01987Y00702D02*
G01X01996Y00702D01*
G01X01996Y00711D02*
G01X01987Y00711D01*
G01X01987Y00721D02*
G01X01996Y00721D01*
G01X01996Y00731D02*
G01X01987Y00731D01*
G01X01987Y00741D02*
G01X01996Y00741D01*
G01X01996Y00751D02*
G01X01987Y00751D01*
G01X01996Y00761D02*
G01X01978Y00761D01*
G01X01996Y00770D02*
G01X01870Y00770D01*
G01X01872Y00766D02*
G01X01864Y00785D01*
G01X01864Y00785D02*
G01X01849Y00800D01*
G01X01849Y00800D02*
G01X01830Y00808D01*
G01X01830Y00808D02*
G01X01809Y00808D01*
G01X01809Y00808D02*
G01X01790Y00800D01*
G01X01790Y00800D02*
G01X01775Y00785D01*
G01X01775Y00785D02*
G01X01768Y00766D01*
G01X01768Y00766D02*
G01X01768Y00745D01*
G01X01768Y00745D02*
G01X01775Y00726D01*
G01X01775Y00726D02*
G01X01790Y00712D01*
G01X01790Y00712D02*
G01X01804Y00706D01*
G01X01804Y00706D02*
G01X01790Y00700D01*
G01X01790Y00700D02*
G01X01775Y00685D01*
G01X01775Y00685D02*
G01X01768Y00666D01*
G01X01768Y00666D02*
G01X01768Y00645D01*
G01X01768Y00645D02*
G01X01775Y00626D01*
G01X01775Y00626D02*
G01X01790Y00612D01*
G01X01790Y00612D02*
G01X01804Y00606D01*
G01X01804Y00606D02*
G01X01790Y00600D01*
G01X01790Y00600D02*
G01X01775Y00585D01*
G01X01775Y00585D02*
G01X01768Y00566D01*
G01X01768Y00566D02*
G01X01768Y00545D01*
G01X01768Y00545D02*
G01X01775Y00526D01*
G01X01775Y00526D02*
G01X01790Y00511D01*
G01X01790Y00511D02*
G01X01809Y00504D01*
G01X01809Y00504D02*
G01X01830Y00504D01*
G01X01830Y00504D02*
G01X01849Y00511D01*
G01X01849Y00511D02*
G01X01864Y00526D01*
G01X01864Y00526D02*
G01X01872Y00545D01*
G01X01872Y00545D02*
G01X01872Y00566D01*
G01X01872Y00566D02*
G01X01864Y00585D01*
G01X01864Y00585D02*
G01X01849Y00600D01*
G01X01849Y00600D02*
G01X01835Y00606D01*
G01X01835Y00606D02*
G01X01849Y00612D01*
G01X01849Y00612D02*
G01X01864Y00626D01*
G01X01864Y00626D02*
G01X01872Y00645D01*
G01X01872Y00645D02*
G01X01872Y00666D01*
G01X01872Y00666D02*
G01X01864Y00685D01*
G01X01864Y00685D02*
G01X01849Y00700D01*
G01X01849Y00700D02*
G01X01835Y00706D01*
G01X01835Y00706D02*
G01X01849Y00712D01*
G01X01849Y00712D02*
G01X01864Y00726D01*
G01X01864Y00726D02*
G01X01872Y00745D01*
G01X01872Y00745D02*
G01X01872Y00766D01*
G01X01872Y00761D02*
G01X01911Y00761D01*
G01X01902Y00751D02*
G01X01872Y00751D01*
G01X01870Y00741D02*
G01X01902Y00741D01*
G01X01902Y00731D02*
G01X01866Y00731D01*
G01X01859Y00721D02*
G01X01902Y00721D01*
G01X01902Y00711D02*
G01X01848Y00711D01*
G01X01845Y00702D02*
G01X01902Y00702D01*
G01X01902Y00692D02*
G01X01857Y00692D01*
G01X01865Y00682D02*
G01X01906Y00682D01*
G01X01916Y00672D02*
G01X01869Y00672D01*
G01X01872Y00662D02*
G01X01907Y00662D01*
G01X01903Y00652D02*
G01X01872Y00652D01*
G01X01870Y00642D02*
G01X01902Y00642D01*
G01X01902Y00633D02*
G01X01866Y00633D01*
G01X01860Y00623D02*
G01X01905Y00623D01*
G01X01911Y00613D02*
G01X01850Y00613D01*
G01X01841Y00603D02*
G01X01922Y00603D01*
G01X01916Y00593D02*
G01X01856Y00593D01*
G01X01864Y00583D02*
G01X01907Y00583D01*
G01X01903Y00573D02*
G01X01868Y00573D01*
G01X01872Y00564D02*
G01X01902Y00564D01*
G01X01902Y00554D02*
G01X01872Y00554D01*
G01X01871Y00544D02*
G01X01906Y00544D01*
G01X01911Y00534D02*
G01X01867Y00534D01*
G01X01862Y00524D02*
G01X01923Y00524D01*
G01X01919Y00514D02*
G01X01852Y00514D01*
G01X01832Y00504D02*
G01X01910Y00504D01*
G01X01906Y00495D02*
G01X01632Y00495D01*
G01X01632Y00485D02*
G01X01942Y00485D01*
G01X01908Y00465D02*
G01X01632Y00465D01*
G01X01632Y00455D02*
G01X01914Y00455D01*
G01X01928Y00445D02*
G01X01628Y00445D01*
G01X01632Y00450D02*
G01X01622Y00440D01*
G01X01622Y00440D02*
G01X01557Y00440D01*
G01X01557Y00440D02*
G01X01547Y00450D01*
G01X01547Y00450D02*
G01X01547Y00515D01*
G01X01547Y00515D02*
G01X01557Y00525D01*
G01X01557Y00525D02*
G01X01565Y00525D01*
G01X01565Y00525D02*
G01X01553Y00537D01*
G01X01553Y00537D02*
G01X01547Y00553D01*
G01X01547Y00553D02*
G01X01547Y00570D01*
G01X01547Y00570D02*
G01X01553Y00586D01*
G01X01553Y00586D02*
G01X01565Y00598D01*
G01X01565Y00598D02*
G01X01573Y00601D01*
G01X01573Y00601D02*
G01X01565Y00604D01*
G01X01565Y00604D02*
G01X01553Y00616D01*
G01X01553Y00616D02*
G01X01547Y00632D01*
G01X01547Y00632D02*
G01X01547Y00649D01*
G01X01547Y00649D02*
G01X01553Y00664D01*
G01X01553Y00664D02*
G01X01565Y00676D01*
G01X01565Y00676D02*
G01X01576Y00681D01*
G01X01576Y00681D02*
G01X01574Y00681D01*
G01X01574Y00681D02*
G01X01568Y00684D01*
G01X01568Y00684D02*
G01X01563Y00688D01*
G01X01563Y00688D02*
G01X01558Y00692D01*
G01X01558Y00692D02*
G01X01555Y00697D01*
G01X01555Y00697D02*
G01X01552Y00703D01*
G01X01552Y00703D02*
G01X01550Y00709D01*
G01X01550Y00709D02*
G01X01549Y00716D01*
G01X01549Y00716D02*
G01X01549Y00716D01*
G01X01549Y00716D02*
G01X01587Y00716D01*
G01X01587Y00716D02*
G01X01587Y00722D01*
G01X01587Y00722D02*
G01X01549Y00722D01*
G01X01549Y00722D02*
G01X01549Y00722D01*
G01X01549Y00722D02*
G01X01550Y00728D01*
G01X01550Y00728D02*
G01X01552Y00734D01*
G01X01552Y00734D02*
G01X01555Y00740D01*
G01X01555Y00740D02*
G01X01558Y00745D01*
G01X01558Y00745D02*
G01X01563Y00750D01*
G01X01563Y00750D02*
G01X01568Y00754D01*
G01X01568Y00754D02*
G01X01574Y00757D01*
G01X01574Y00757D02*
G01X01580Y00759D01*
G01X01580Y00759D02*
G01X01586Y00760D01*
G01X01586Y00760D02*
G01X01587Y00760D01*
G01X01587Y00760D02*
G01X01587Y00722D01*
G01X01587Y00722D02*
G01X01592Y00722D01*
G01X01592Y00722D02*
G01X01630Y00722D01*
G01X01630Y00722D02*
G01X01630Y00722D01*
G01X01630Y00722D02*
G01X01629Y00728D01*
G01X01629Y00728D02*
G01X01627Y00734D01*
G01X01627Y00734D02*
G01X01624Y00740D01*
G01X01624Y00740D02*
G01X01621Y00745D01*
G01X01621Y00745D02*
G01X01616Y00750D01*
G01X01616Y00750D02*
G01X01611Y00754D01*
G01X01611Y00754D02*
G01X01605Y00757D01*
G01X01605Y00757D02*
G01X01599Y00759D01*
G01X01599Y00759D02*
G01X01593Y00760D01*
G01X01593Y00760D02*
G01X01592Y00760D01*
G01X01592Y00760D02*
G01X01592Y00722D01*
G01X01592Y00722D02*
G01X01592Y00716D01*
G01X01592Y00716D02*
G01X01630Y00716D01*
G01X01630Y00716D02*
G01X01630Y00716D01*
G01X01630Y00716D02*
G01X01629Y00709D01*
G01X01629Y00709D02*
G01X01627Y00703D01*
G01X01627Y00703D02*
G01X01624Y00697D01*
G01X01624Y00697D02*
G01X01621Y00692D01*
G01X01621Y00692D02*
G01X01616Y00688D01*
G01X01616Y00688D02*
G01X01611Y00684D01*
G01X01611Y00684D02*
G01X01605Y00681D01*
G01X01605Y00681D02*
G01X01604Y00681D01*
G01X01604Y00681D02*
G01X01614Y00676D01*
G01X01614Y00676D02*
G01X01626Y00664D01*
G01X01626Y00664D02*
G01X01632Y00649D01*
G01X01632Y00649D02*
G01X01632Y00632D01*
G01X01632Y00632D02*
G01X01626Y00616D01*
G01X01626Y00616D02*
G01X01614Y00604D01*
G01X01614Y00604D02*
G01X01606Y00601D01*
G01X01606Y00601D02*
G01X01614Y00598D01*
G01X01614Y00598D02*
G01X01626Y00586D01*
G01X01626Y00586D02*
G01X01632Y00570D01*
G01X01632Y00570D02*
G01X01632Y00553D01*
G01X01632Y00553D02*
G01X01626Y00537D01*
G01X01626Y00537D02*
G01X01614Y00525D01*
G01X01614Y00525D02*
G01X01622Y00525D01*
G01X01622Y00525D02*
G01X01632Y00515D01*
G01X01632Y00515D02*
G01X01632Y00450D01*
G01X01632Y00475D02*
G01X01905Y00475D01*
G01X01917Y00406D02*
G01X01862Y00406D01*
G01X01877Y00396D02*
G01X01902Y00396D01*
G01X01893Y00386D02*
G01X01886Y00386D01*
G01X01817Y00406D02*
G01X01762Y00406D01*
G01X01777Y00396D02*
G01X01802Y00396D01*
G01X01793Y00386D02*
G01X01786Y00386D01*
G01X01717Y00406D02*
G01X01662Y00406D01*
G01X01677Y00396D02*
G01X01702Y00396D01*
G01X01693Y00386D02*
G01X01686Y00386D01*
G01X01617Y00406D02*
G01X01562Y00406D01*
G01X01577Y00396D02*
G01X01602Y00396D01*
G01X01593Y00386D02*
G01X01586Y00386D01*
G01X01551Y00445D02*
G01X01492Y00445D01*
G01X01492Y00455D02*
G01X01547Y00455D01*
G01X01547Y00465D02*
G01X01492Y00465D01*
G01X01488Y00475D02*
G01X01547Y00475D01*
G01X01547Y00485D02*
G01X01484Y00485D01*
G01X01474Y00495D02*
G01X01547Y00495D01*
G01X01547Y00504D02*
G01X01458Y00504D01*
G01X01472Y00514D02*
G01X01547Y00514D01*
G01X01556Y00524D02*
G01X01482Y00524D01*
G01X01487Y00534D02*
G01X01556Y00534D01*
G01X01551Y00544D02*
G01X01491Y00544D01*
G01X01492Y00554D02*
G01X01547Y00554D01*
G01X01547Y00564D02*
G01X01492Y00564D01*
G01X01488Y00573D02*
G01X01548Y00573D01*
G01X01552Y00583D02*
G01X01484Y00583D01*
G01X01476Y00593D02*
G01X01561Y00593D01*
G01X01567Y00603D02*
G01X01461Y00603D01*
G01X01470Y00613D02*
G01X01556Y00613D01*
G01X01550Y00623D02*
G01X01480Y00623D01*
G01X01486Y00633D02*
G01X01547Y00633D01*
G01X01547Y00642D02*
G01X01490Y00642D01*
G01X01492Y00652D02*
G01X01548Y00652D01*
G01X01552Y00662D02*
G01X01492Y00662D01*
G01X01489Y00672D02*
G01X01561Y00672D01*
G01X01572Y00682D02*
G01X01485Y00682D01*
G01X01477Y00692D02*
G01X01559Y00692D01*
G01X01553Y00702D02*
G01X01465Y00702D01*
G01X01414Y00702D02*
G01X01388Y00702D01*
G01X01389Y00711D02*
G01X01549Y00711D01*
G01X01551Y00731D02*
G01X01392Y00731D01*
G01X01392Y00721D02*
G01X01587Y00721D01*
G01X01592Y00721D02*
G01X01780Y00721D01*
G01X01773Y00731D02*
G01X01628Y00731D01*
G01X01624Y00741D02*
G01X01769Y00741D01*
G01X01768Y00751D02*
G01X01615Y00751D01*
G01X01592Y00751D02*
G01X01587Y00751D01*
G01X01587Y00741D02*
G01X01592Y00741D01*
G01X01592Y00731D02*
G01X01587Y00731D01*
G01X01564Y00751D02*
G01X01392Y00751D01*
G01X01392Y00741D02*
G01X01555Y00741D01*
G01X01607Y00682D02*
G01X01774Y00682D01*
G01X01770Y00672D02*
G01X01618Y00672D01*
G01X01627Y00662D02*
G01X01768Y00662D01*
G01X01768Y00652D02*
G01X01631Y00652D01*
G01X01632Y00642D02*
G01X01769Y00642D01*
G01X01773Y00633D02*
G01X01632Y00633D01*
G01X01629Y00623D02*
G01X01779Y00623D01*
G01X01789Y00613D02*
G01X01623Y00613D01*
G01X01612Y00603D02*
G01X01798Y00603D01*
G01X01783Y00593D02*
G01X01618Y00593D01*
G01X01627Y00583D02*
G01X01775Y00583D01*
G01X01771Y00573D02*
G01X01631Y00573D01*
G01X01632Y00564D02*
G01X01768Y00564D01*
G01X01768Y00554D02*
G01X01632Y00554D01*
G01X01629Y00544D02*
G01X01768Y00544D01*
G01X01772Y00534D02*
G01X01623Y00534D01*
G01X01624Y00524D02*
G01X01778Y00524D01*
G01X01787Y00514D02*
G01X01632Y00514D01*
G01X01632Y00504D02*
G01X01807Y00504D01*
G01X01962Y00406D02*
G01X01996Y00406D01*
G01X01996Y00396D02*
G01X01977Y00396D01*
G01X01986Y00386D02*
G01X01996Y00386D01*
G01X01996Y00376D02*
G01X01991Y00376D01*
G01X01995Y00366D02*
G01X01996Y00366D01*
G01X01996Y00357D02*
G01X01995Y00357D01*
G01X01995Y00347D02*
G01X01996Y00347D01*
G01X01996Y00337D02*
G01X01991Y00337D01*
G01X01987Y00327D02*
G01X01996Y00327D01*
G01X01996Y00317D02*
G01X01979Y00317D01*
G01X01967Y00307D02*
G01X01996Y00307D01*
G01X01996Y00297D02*
G01X01974Y00297D01*
G01X01984Y00288D02*
G01X01996Y00288D01*
G01X01996Y00278D02*
G01X01989Y00278D01*
G01X01993Y00268D02*
G01X01996Y00268D01*
G01X01996Y00258D02*
G01X01994Y00258D01*
G01X01994Y00248D02*
G01X01996Y00248D01*
G01X01996Y00238D02*
G01X01991Y00238D01*
G01X01987Y00228D02*
G01X01996Y00228D01*
G01X01996Y00219D02*
G01X01979Y00219D01*
G01X01967Y00209D02*
G01X01996Y00209D01*
G01X01996Y00199D02*
G01X01973Y00199D01*
G01X01983Y00189D02*
G01X01996Y00189D01*
G01X01996Y00179D02*
G01X01988Y00179D01*
G01X01992Y00169D02*
G01X01996Y00169D01*
G01X01996Y00160D02*
G01X01994Y00160D01*
G01X01994Y00150D02*
G01X01996Y00150D01*
G01X01996Y00140D02*
G01X01991Y00140D01*
G01X01987Y00130D02*
G01X01996Y00130D01*
G01X01996Y00120D02*
G01X01980Y00120D01*
G01X01970Y00110D02*
G01X01996Y00110D01*
G01X01996Y00100D02*
G01X00082Y00100D01*
G01X00082Y00098D02*
G01X00082Y01820D01*
G01X00082Y01820D02*
G01X00090Y01812D01*
G01X00090Y01812D02*
G01X00109Y01804D01*
G01X00109Y01804D02*
G01X00130Y01804D01*
G01X00130Y01804D02*
G01X00137Y01807D01*
G01X00137Y01807D02*
G01X00137Y01778D01*
G01X00137Y01778D02*
G01X00147Y01768D01*
G01X00147Y01768D02*
G01X00248Y01768D01*
G01X00248Y01768D02*
G01X00258Y01778D01*
G01X00258Y01778D02*
G01X00258Y01934D01*
G01X00258Y01934D02*
G01X00248Y01944D01*
G01X00248Y01944D02*
G01X00147Y01944D01*
G01X00147Y01944D02*
G01X00137Y01934D01*
G01X00137Y01934D02*
G01X00137Y01905D01*
G01X00137Y01905D02*
G01X00130Y01908D01*
G01X00130Y01908D02*
G01X00109Y01908D01*
G01X00109Y01908D02*
G01X00090Y01900D01*
G01X00090Y01900D02*
G01X00082Y01891D01*
G01X00082Y01891D02*
G01X00082Y02013D01*
G01X00082Y02013D02*
G01X01996Y02012D01*
G01X01996Y02012D02*
G01X00082Y02012D01*
G01X00082Y01983D02*
G01X00385Y01983D01*
G01X00381Y01973D02*
G01X00082Y01973D01*
G01X00082Y01963D02*
G01X00381Y01963D01*
G01X00381Y01953D02*
G01X00082Y01953D01*
G01X00082Y01943D02*
G01X00147Y01943D01*
G01X00137Y01933D02*
G01X00082Y01933D01*
G01X00082Y01923D02*
G01X00137Y01923D01*
G01X00137Y01914D02*
G01X00082Y01914D01*
G01X00082Y01904D02*
G01X00100Y01904D01*
G01X00084Y01894D02*
G01X00082Y01894D01*
G01X00082Y01815D02*
G01X00087Y01815D01*
G01X00082Y01805D02*
G01X00106Y01805D01*
G01X00082Y01795D02*
G01X00137Y01795D01*
G01X00137Y01805D02*
G01X00134Y01805D01*
G01X00137Y01785D02*
G01X00082Y01785D01*
G01X00082Y01776D02*
G01X00139Y01776D01*
G01X00082Y01766D02*
G01X00381Y01766D01*
G01X00381Y01756D02*
G01X00082Y01756D01*
G01X00082Y01746D02*
G01X00381Y01746D01*
G01X00381Y01736D02*
G01X00082Y01736D01*
G01X00082Y01726D02*
G01X00388Y01726D01*
G01X00371Y01697D02*
G01X00408Y01697D01*
G01X00398Y01687D02*
G01X00381Y01687D01*
G01X00388Y01677D02*
G01X00391Y01677D01*
G01X00340Y01651D02*
G01X00390Y01601D01*
G01X00290Y01601D02*
G01X00240Y01651D01*
G01X00198Y01687D02*
G01X00181Y01687D01*
G01X00188Y01677D02*
G01X00191Y01677D01*
G01X00208Y01697D02*
G01X00171Y01697D01*
G01X00140Y01651D02*
G01X00140Y01641D01*
G01X00140Y01641D02*
G01X00190Y01591D01*
G01X00111Y01598D02*
G01X00082Y01598D01*
G01X00082Y01608D02*
G01X00104Y01608D01*
G01X00094Y01618D02*
G01X00082Y01618D01*
G01X00082Y01628D02*
G01X00089Y01628D01*
G01X00085Y01638D02*
G01X00082Y01638D01*
G01X00082Y01648D02*
G01X00085Y01648D01*
G01X00085Y01657D02*
G01X00082Y01657D01*
G01X00082Y01667D02*
G01X00087Y01667D01*
G01X00091Y01677D02*
G01X00082Y01677D01*
G01X00082Y01687D02*
G01X00098Y01687D01*
G01X00108Y01697D02*
G01X00082Y01697D01*
G01X00271Y01697D02*
G01X00308Y01697D01*
G01X00298Y01687D02*
G01X00281Y01687D01*
G01X00288Y01677D02*
G01X00291Y01677D01*
G01X00256Y01776D02*
G01X00381Y01776D01*
G01X00381Y01785D02*
G01X00258Y01785D01*
G01X00258Y01795D02*
G01X00381Y01795D01*
G01X00390Y01805D02*
G01X00258Y01805D01*
G01X00258Y01815D02*
G01X00390Y01815D01*
G01X00381Y01825D02*
G01X00258Y01825D01*
G01X00258Y01835D02*
G01X00381Y01835D01*
G01X00381Y01845D02*
G01X00258Y01845D01*
G01X00258Y01854D02*
G01X00381Y01854D01*
G01X00381Y01864D02*
G01X00258Y01864D01*
G01X00258Y01874D02*
G01X00381Y01874D01*
G01X00381Y01884D02*
G01X00258Y01884D01*
G01X00258Y01894D02*
G01X00388Y01894D01*
G01X00383Y01914D02*
G01X00258Y01914D01*
G01X00258Y01904D02*
G01X00498Y01904D01*
G01X00497Y01815D02*
G01X00493Y01815D01*
G01X00493Y01805D02*
G01X00496Y01805D01*
G01X00571Y01697D02*
G01X00588Y01697D01*
G01X00588Y01687D02*
G01X00581Y01687D01*
G01X00540Y01651D02*
G01X00590Y01576D01*
G01X00590Y01576D02*
G01X00590Y01501D01*
G01X00590Y01501D02*
G01X00565Y01476D01*
G01X00565Y01476D02*
G01X00565Y01348D01*
G01X00515Y01348D02*
G01X00515Y01476D01*
G01X00515Y01476D02*
G01X00540Y01501D01*
G01X00540Y01501D02*
G01X00540Y01551D01*
G01X00381Y01923D02*
G01X00258Y01923D01*
G01X00258Y01933D02*
G01X00381Y01933D01*
G01X00381Y01943D02*
G01X00248Y01943D01*
G01X00265Y01033D02*
G01X00265Y00906D01*
G01X00265Y00906D02*
G01X00290Y00881D01*
G01X00290Y00881D02*
G01X00290Y00806D01*
G01X00290Y00806D02*
G01X00240Y00756D01*
G01X00190Y00731D02*
G01X00189Y00731D01*
G01X00183Y00721D02*
G01X00196Y00721D01*
G01X00206Y00711D02*
G01X00173Y00711D01*
G01X00152Y00702D02*
G01X00227Y00702D01*
G01X00252Y00702D02*
G01X00327Y00702D01*
G01X00306Y00711D02*
G01X00273Y00711D01*
G01X00283Y00721D02*
G01X00296Y00721D01*
G01X00290Y00731D02*
G01X00289Y00731D01*
G01X00340Y00756D02*
G01X00390Y00806D01*
G01X00390Y00806D02*
G01X00390Y00881D01*
G01X00390Y00881D02*
G01X00365Y00906D01*
G01X00365Y00906D02*
G01X00365Y01033D01*
G01X00315Y01033D02*
G01X00315Y00881D01*
G01X00315Y00881D02*
G01X00340Y00856D01*
G01X00415Y00881D02*
G01X00440Y00856D01*
G01X00415Y00881D02*
G01X00415Y01033D01*
G01X00465Y01033D02*
G01X00465Y00906D01*
G01X00465Y00906D02*
G01X00490Y00881D01*
G01X00490Y00881D02*
G01X00490Y00806D01*
G01X00490Y00806D02*
G01X00440Y00756D01*
G01X00489Y00731D02*
G01X00490Y00731D01*
G01X00496Y00721D02*
G01X00483Y00721D01*
G01X00473Y00711D02*
G01X00506Y00711D01*
G01X00527Y00702D02*
G01X00452Y00702D01*
G01X00427Y00702D02*
G01X00352Y00702D01*
G01X00373Y00711D02*
G01X00406Y00711D01*
G01X00396Y00721D02*
G01X00383Y00721D01*
G01X00389Y00731D02*
G01X00390Y00731D01*
G01X00393Y00668D02*
G01X00383Y00658D01*
G01X00383Y00658D02*
G01X00383Y00614D01*
G01X00383Y00614D02*
G01X00393Y00604D01*
G01X00393Y00604D02*
G01X00463Y00604D01*
G01X00463Y00604D02*
G01X00475Y00592D01*
G01X00475Y00592D02*
G01X00494Y00584D01*
G01X00494Y00584D02*
G01X00515Y00584D01*
G01X00515Y00584D02*
G01X00534Y00592D01*
G01X00534Y00592D02*
G01X00549Y00606D01*
G01X00549Y00606D02*
G01X00557Y00625D01*
G01X00557Y00625D02*
G01X00557Y00646D01*
G01X00557Y00646D02*
G01X00549Y00665D01*
G01X00549Y00665D02*
G01X00534Y00680D01*
G01X00534Y00680D02*
G01X00515Y00688D01*
G01X00515Y00688D02*
G01X00494Y00688D01*
G01X00494Y00688D02*
G01X00475Y00680D01*
G01X00475Y00680D02*
G01X00463Y00668D01*
G01X00463Y00668D02*
G01X00393Y00668D01*
G01X00387Y00662D02*
G01X00272Y00662D01*
G01X00277Y00652D02*
G01X00383Y00652D01*
G01X00383Y00642D02*
G01X00277Y00642D01*
G01X00277Y00633D02*
G01X00383Y00633D01*
G01X00383Y00623D02*
G01X00277Y00623D01*
G01X00276Y00613D02*
G01X00383Y00613D01*
G01X00464Y00603D02*
G01X00195Y00603D01*
G01X00186Y00593D02*
G01X00474Y00593D01*
G01X00485Y00534D02*
G01X00174Y00534D01*
G01X00165Y00538D02*
G01X00144Y00538D01*
G01X00144Y00538D02*
G01X00125Y00530D01*
G01X00125Y00530D02*
G01X00110Y00515D01*
G01X00110Y00515D02*
G01X00103Y00496D01*
G01X00103Y00496D02*
G01X00103Y00475D01*
G01X00103Y00475D02*
G01X00110Y00456D01*
G01X00110Y00456D02*
G01X00125Y00442D01*
G01X00125Y00442D02*
G01X00144Y00434D01*
G01X00144Y00434D02*
G01X00165Y00434D01*
G01X00165Y00434D02*
G01X00184Y00442D01*
G01X00184Y00442D02*
G01X00196Y00454D01*
G01X00196Y00454D02*
G01X00267Y00454D01*
G01X00267Y00454D02*
G01X00277Y00464D01*
G01X00277Y00464D02*
G01X00277Y00508D01*
G01X00277Y00508D02*
G01X00267Y00518D01*
G01X00267Y00518D02*
G01X00196Y00518D01*
G01X00196Y00518D02*
G01X00184Y00530D01*
G01X00184Y00530D02*
G01X00165Y00538D01*
G01X00190Y00524D02*
G01X00469Y00524D01*
G01X00471Y00445D02*
G01X00188Y00445D01*
G01X00169Y00435D02*
G01X00490Y00435D01*
G01X00462Y00426D02*
G01X00082Y00426D01*
G01X00082Y00416D02*
G01X00451Y00416D01*
G01X00444Y00406D02*
G01X00362Y00406D01*
G01X00377Y00396D02*
G01X00440Y00396D01*
G01X00438Y00386D02*
G01X00386Y00386D01*
G01X00391Y00376D02*
G01X00438Y00376D01*
G01X00439Y00366D02*
G01X00395Y00366D01*
G01X00395Y00357D02*
G01X00443Y00357D01*
G01X00450Y00347D02*
G01X00395Y00347D01*
G01X00391Y00337D02*
G01X00453Y00337D01*
G01X00453Y00327D02*
G01X00387Y00327D01*
G01X00379Y00317D02*
G01X00453Y00317D01*
G01X00453Y00307D02*
G01X00367Y00307D01*
G01X00374Y00297D02*
G01X00453Y00297D01*
G01X00453Y00288D02*
G01X00384Y00288D01*
G01X00389Y00278D02*
G01X00454Y00278D01*
G01X00421Y00268D02*
G01X00393Y00268D01*
G01X00394Y00258D02*
G01X00415Y00258D01*
G01X00415Y00248D02*
G01X00394Y00248D01*
G01X00391Y00238D02*
G01X00415Y00238D01*
G01X00415Y00228D02*
G01X00387Y00228D01*
G01X00379Y00219D02*
G01X00415Y00219D01*
G01X00415Y00209D02*
G01X00367Y00209D01*
G01X00373Y00199D02*
G01X00409Y00199D01*
G01X00400Y00189D02*
G01X00383Y00189D01*
G01X00388Y00179D02*
G01X00396Y00179D01*
G01X00393Y00169D02*
G01X00392Y00169D01*
G01X00391Y00140D02*
G01X00397Y00140D01*
G01X00402Y00130D02*
G01X00387Y00130D01*
G01X00380Y00120D02*
G01X00412Y00120D01*
G01X00430Y00110D02*
G01X00370Y00110D01*
G01X00309Y00110D02*
G01X00265Y00110D01*
G01X00278Y00120D02*
G01X00299Y00120D01*
G01X00292Y00130D02*
G01X00285Y00130D01*
G01X00245Y00130D02*
G01X00235Y00130D01*
G01X00235Y00140D02*
G01X00245Y00140D01*
G01X00245Y00150D02*
G01X00235Y00150D01*
G01X00235Y00161D02*
G01X00235Y00204D01*
G01X00235Y00204D02*
G01X00235Y00251D01*
G01X00235Y00251D02*
G01X00245Y00251D01*
G01X00245Y00251D02*
G01X00245Y00204D01*
G01X00245Y00204D02*
G01X00245Y00161D01*
G01X00245Y00161D02*
G01X00235Y00161D01*
G01X00235Y00169D02*
G01X00245Y00169D01*
G01X00245Y00179D02*
G01X00235Y00179D01*
G01X00235Y00189D02*
G01X00245Y00189D01*
G01X00245Y00199D02*
G01X00235Y00199D01*
G01X00235Y00209D02*
G01X00245Y00209D01*
G01X00245Y00219D02*
G01X00235Y00219D01*
G01X00235Y00228D02*
G01X00245Y00228D01*
G01X00245Y00238D02*
G01X00235Y00238D01*
G01X00235Y00248D02*
G01X00245Y00248D01*
G01X00245Y00268D02*
G01X00235Y00268D01*
G01X00235Y00278D02*
G01X00245Y00278D01*
G01X00245Y00288D02*
G01X00235Y00288D01*
G01X00235Y00297D02*
G01X00245Y00297D01*
G01X00245Y00307D02*
G01X00235Y00307D01*
G01X00233Y00307D02*
G01X00167Y00307D01*
G01X00174Y00297D02*
G01X00209Y00297D01*
G01X00198Y00288D02*
G01X00184Y00288D01*
G01X00189Y00278D02*
G01X00192Y00278D01*
G01X00179Y00317D02*
G01X00300Y00317D01*
G01X00292Y00327D02*
G01X00187Y00327D01*
G01X00191Y00337D02*
G01X00288Y00337D01*
G01X00285Y00347D02*
G01X00195Y00347D01*
G01X00195Y00357D02*
G01X00285Y00357D01*
G01X00285Y00366D02*
G01X00195Y00366D01*
G01X00191Y00376D02*
G01X00289Y00376D01*
G01X00293Y00386D02*
G01X00186Y00386D01*
G01X00177Y00396D02*
G01X00302Y00396D01*
G01X00317Y00406D02*
G01X00162Y00406D01*
G01X00140Y00435D02*
G01X00082Y00435D01*
G01X00082Y00445D02*
G01X00121Y00445D01*
G01X00112Y00455D02*
G01X00082Y00455D01*
G01X00082Y00465D02*
G01X00107Y00465D01*
G01X00103Y00475D02*
G01X00082Y00475D01*
G01X00082Y00485D02*
G01X00103Y00485D01*
G01X00103Y00495D02*
G01X00082Y00495D01*
G01X00082Y00504D02*
G01X00106Y00504D01*
G01X00110Y00514D02*
G01X00082Y00514D01*
G01X00082Y00524D02*
G01X00119Y00524D01*
G01X00135Y00534D02*
G01X00082Y00534D01*
G01X00082Y00406D02*
G01X00117Y00406D01*
G01X00102Y00396D02*
G01X00082Y00396D01*
G01X00082Y00386D02*
G01X00093Y00386D01*
G01X00089Y00376D02*
G01X00082Y00376D01*
G01X00082Y00366D02*
G01X00085Y00366D01*
G01X00085Y00357D02*
G01X00082Y00357D01*
G01X00082Y00347D02*
G01X00085Y00347D01*
G01X00082Y00337D02*
G01X00088Y00337D01*
G01X00092Y00327D02*
G01X00082Y00327D01*
G01X00082Y00317D02*
G01X00100Y00317D01*
G01X00113Y00307D02*
G01X00082Y00307D01*
G01X00082Y00297D02*
G01X00105Y00297D01*
G01X00095Y00288D02*
G01X00082Y00288D01*
G01X00082Y00278D02*
G01X00090Y00278D01*
G01X00086Y00268D02*
G01X00082Y00268D01*
G01X00082Y00258D02*
G01X00086Y00258D01*
G01X00086Y00248D02*
G01X00082Y00248D01*
G01X00082Y00238D02*
G01X00088Y00238D01*
G01X00092Y00228D02*
G01X00082Y00228D01*
G01X00082Y00219D02*
G01X00100Y00219D01*
G01X00112Y00209D02*
G01X00082Y00209D01*
G01X00082Y00199D02*
G01X00106Y00199D01*
G01X00097Y00189D02*
G01X00082Y00189D01*
G01X00082Y00179D02*
G01X00091Y00179D01*
G01X00087Y00169D02*
G01X00082Y00169D01*
G01X00082Y00160D02*
G01X00086Y00160D01*
G01X00086Y00150D02*
G01X00082Y00150D01*
G01X00082Y00140D02*
G01X00088Y00140D01*
G01X00092Y00130D02*
G01X00082Y00130D01*
G01X00082Y00120D02*
G01X00099Y00120D01*
G01X00109Y00110D02*
G01X00082Y00110D01*
G01X00082Y00098D02*
G01X01996Y00098D01*
G01X01996Y00098D02*
G01X01996Y02012D01*
G01X01996Y02002D02*
G01X01968Y02002D01*
G01X01979Y01992D02*
G01X01996Y01992D01*
G01X01996Y01983D02*
G01X01987Y01983D01*
G01X01991Y01973D02*
G01X01996Y01973D01*
G01X01996Y01963D02*
G01X01994Y01963D01*
G01X01994Y01953D02*
G01X01996Y01953D01*
G01X01996Y01943D02*
G01X01993Y01943D01*
G01X01996Y01933D02*
G01X01989Y01933D01*
G01X01984Y01923D02*
G01X01996Y01923D01*
G01X01996Y01914D02*
G01X01974Y01914D01*
G01X01965Y01904D02*
G01X01996Y01904D01*
G01X01996Y01894D02*
G01X01978Y01894D01*
G01X01986Y01884D02*
G01X01996Y01884D01*
G01X01996Y01874D02*
G01X01990Y01874D01*
G01X01994Y01864D02*
G01X01996Y01864D01*
G01X01996Y01854D02*
G01X01994Y01854D01*
G01X01993Y01845D02*
G01X01996Y01845D01*
G01X01996Y01835D02*
G01X01989Y01835D01*
G01X01985Y01825D02*
G01X01996Y01825D01*
G01X01996Y01815D02*
G01X01975Y01815D01*
G01X01965Y01805D02*
G01X01996Y01805D01*
G01X01996Y01795D02*
G01X01978Y01795D01*
G01X01987Y01785D02*
G01X01996Y01785D01*
G01X01996Y01776D02*
G01X01991Y01776D01*
G01X01995Y01766D02*
G01X01996Y01766D01*
G01X01996Y01756D02*
G01X01995Y01756D01*
G01X01995Y01746D02*
G01X01996Y01746D01*
G01X01996Y01736D02*
G01X01991Y01736D01*
G01X01987Y01726D02*
G01X01996Y01726D01*
G01X01996Y01716D02*
G01X01978Y01716D01*
G01X01965Y01707D02*
G01X01996Y01707D01*
G01X01996Y01697D02*
G01X01852Y01697D01*
G01X01862Y01687D02*
G01X01996Y01687D01*
G01X01914Y01707D02*
G01X01865Y01707D01*
G01X01878Y01716D02*
G01X01901Y01716D01*
G01X01892Y01726D02*
G01X01887Y01726D01*
G01X01807Y01707D02*
G01X01765Y01707D01*
G01X01778Y01716D02*
G01X01801Y01716D01*
G01X01792Y01726D02*
G01X01787Y01726D01*
G01X01787Y01697D02*
G01X01392Y01697D01*
G01X01392Y01687D02*
G01X01777Y01687D01*
G01X01772Y01677D02*
G01X01392Y01677D01*
G01X01383Y01707D02*
G01X01414Y01707D01*
G01X01401Y01716D02*
G01X01378Y01716D01*
G01X01387Y01726D02*
G01X01392Y01726D01*
G01X01665Y01707D02*
G01X01714Y01707D01*
G01X01701Y01716D02*
G01X01678Y01716D01*
G01X01687Y01726D02*
G01X01692Y01726D01*
G01X01687Y01983D02*
G01X01692Y01983D01*
G01X01700Y01992D02*
G01X01679Y01992D01*
G01X01668Y02002D02*
G01X01711Y02002D01*
G01X01768Y02002D02*
G01X01811Y02002D01*
G01X01800Y01992D02*
G01X01779Y01992D01*
G01X01787Y01983D02*
G01X01792Y01983D01*
G01X01868Y02002D02*
G01X01911Y02002D01*
G01X01900Y01992D02*
G01X01879Y01992D01*
G01X01887Y01983D02*
G01X01892Y01983D01*
G01X01611Y02002D02*
G01X01563Y02002D01*
G01X01576Y01992D02*
G01X01600Y01992D01*
G01X01592Y01983D02*
G01X01584Y01983D01*
G01X01985Y01381D02*
G01X01996Y01381D01*
G01X01996Y01372D02*
G01X01981Y01372D01*
G01X01974Y01362D02*
G01X01996Y01362D01*
G01X01996Y01332D02*
G01X01486Y01332D01*
G01X01480Y01322D02*
G01X01996Y01322D01*
G01X01996Y01312D02*
G01X01470Y01312D01*
G01X01409Y01312D02*
G01X01390Y01312D01*
G01X01392Y01322D02*
G01X01399Y01322D01*
G01X01393Y01332D02*
G01X01392Y01332D01*
G01X01387Y01303D02*
G01X01996Y01303D01*
G01X01996Y01293D02*
G01X01392Y01293D01*
G01X01392Y01283D02*
G01X01996Y01283D01*
G01X01996Y01273D02*
G01X01392Y01273D01*
G01X01392Y01263D02*
G01X01996Y01263D01*
G01X01996Y01253D02*
G01X01392Y01253D01*
G01X01392Y01243D02*
G01X01799Y01243D01*
G01X01790Y01240D02*
G01X01775Y01225D01*
G01X01775Y01225D02*
G01X01768Y01206D01*
G01X01768Y01206D02*
G01X01768Y01185D01*
G01X01768Y01185D02*
G01X01775Y01166D01*
G01X01775Y01166D02*
G01X01790Y01152D01*
G01X01790Y01152D02*
G01X01804Y01146D01*
G01X01804Y01146D02*
G01X01790Y01140D01*
G01X01790Y01140D02*
G01X01775Y01125D01*
G01X01775Y01125D02*
G01X01768Y01106D01*
G01X01768Y01106D02*
G01X01768Y01085D01*
G01X01768Y01085D02*
G01X01775Y01066D01*
G01X01775Y01066D02*
G01X01790Y01052D01*
G01X01790Y01052D02*
G01X01804Y01046D01*
G01X01804Y01046D02*
G01X01790Y01040D01*
G01X01790Y01040D02*
G01X01775Y01025D01*
G01X01775Y01025D02*
G01X01768Y01006D01*
G01X01768Y01006D02*
G01X01768Y00985D01*
G01X01768Y00985D02*
G01X01775Y00966D01*
G01X01775Y00966D02*
G01X01790Y00952D01*
G01X01790Y00952D02*
G01X01809Y00944D01*
G01X01809Y00944D02*
G01X01830Y00944D01*
G01X01830Y00944D02*
G01X01849Y00952D01*
G01X01849Y00952D02*
G01X01864Y00966D01*
G01X01864Y00966D02*
G01X01872Y00985D01*
G01X01872Y00985D02*
G01X01872Y01006D01*
G01X01872Y01006D02*
G01X01864Y01025D01*
G01X01864Y01025D02*
G01X01849Y01040D01*
G01X01849Y01040D02*
G01X01835Y01046D01*
G01X01835Y01046D02*
G01X01849Y01052D01*
G01X01849Y01052D02*
G01X01864Y01066D01*
G01X01864Y01066D02*
G01X01872Y01085D01*
G01X01872Y01085D02*
G01X01872Y01106D01*
G01X01872Y01106D02*
G01X01864Y01125D01*
G01X01864Y01125D02*
G01X01849Y01140D01*
G01X01849Y01140D02*
G01X01835Y01146D01*
G01X01835Y01146D02*
G01X01849Y01152D01*
G01X01849Y01152D02*
G01X01864Y01166D01*
G01X01864Y01166D02*
G01X01872Y01185D01*
G01X01872Y01185D02*
G01X01872Y01206D01*
G01X01872Y01206D02*
G01X01864Y01225D01*
G01X01864Y01225D02*
G01X01849Y01240D01*
G01X01849Y01240D02*
G01X01830Y01248D01*
G01X01830Y01248D02*
G01X01809Y01248D01*
G01X01809Y01248D02*
G01X01790Y01240D01*
G01X01784Y01234D02*
G01X01392Y01234D01*
G01X01392Y01224D02*
G01X01775Y01224D01*
G01X01771Y01214D02*
G01X01392Y01214D01*
G01X01385Y01204D02*
G01X01569Y01204D01*
G01X01568Y01204D02*
G01X01563Y01200D01*
G01X01563Y01200D02*
G01X01558Y01195D01*
G01X01558Y01195D02*
G01X01555Y01190D01*
G01X01555Y01190D02*
G01X01552Y01184D01*
G01X01552Y01184D02*
G01X01550Y01178D01*
G01X01550Y01178D02*
G01X01549Y01172D01*
G01X01549Y01172D02*
G01X01549Y01172D01*
G01X01549Y01172D02*
G01X01587Y01172D01*
G01X01587Y01172D02*
G01X01587Y01166D01*
G01X01587Y01166D02*
G01X01549Y01166D01*
G01X01549Y01166D02*
G01X01549Y01166D01*
G01X01549Y01166D02*
G01X01550Y01159D01*
G01X01550Y01159D02*
G01X01552Y01153D01*
G01X01552Y01153D02*
G01X01555Y01147D01*
G01X01555Y01147D02*
G01X01558Y01142D01*
G01X01558Y01142D02*
G01X01563Y01138D01*
G01X01563Y01138D02*
G01X01568Y01134D01*
G01X01568Y01134D02*
G01X01574Y01131D01*
G01X01574Y01131D02*
G01X01576Y01131D01*
G01X01576Y01131D02*
G01X01565Y01126D01*
G01X01565Y01126D02*
G01X01553Y01114D01*
G01X01553Y01114D02*
G01X01547Y01099D01*
G01X01547Y01099D02*
G01X01547Y01082D01*
G01X01547Y01082D02*
G01X01553Y01066D01*
G01X01553Y01066D02*
G01X01565Y01054D01*
G01X01565Y01054D02*
G01X01573Y01051D01*
G01X01573Y01051D02*
G01X01565Y01048D01*
G01X01565Y01048D02*
G01X01553Y01036D01*
G01X01553Y01036D02*
G01X01547Y01020D01*
G01X01547Y01020D02*
G01X01547Y01003D01*
G01X01547Y01003D02*
G01X01553Y00987D01*
G01X01553Y00987D02*
G01X01565Y00975D01*
G01X01565Y00975D02*
G01X01557Y00975D01*
G01X01557Y00975D02*
G01X01547Y00965D01*
G01X01547Y00965D02*
G01X01547Y00900D01*
G01X01547Y00900D02*
G01X01557Y00890D01*
G01X01557Y00890D02*
G01X01622Y00890D01*
G01X01622Y00890D02*
G01X01632Y00900D01*
G01X01632Y00900D02*
G01X01632Y00965D01*
G01X01632Y00965D02*
G01X01622Y00975D01*
G01X01622Y00975D02*
G01X01614Y00975D01*
G01X01614Y00975D02*
G01X01626Y00987D01*
G01X01626Y00987D02*
G01X01632Y01003D01*
G01X01632Y01003D02*
G01X01632Y01020D01*
G01X01632Y01020D02*
G01X01626Y01036D01*
G01X01626Y01036D02*
G01X01614Y01048D01*
G01X01614Y01048D02*
G01X01606Y01051D01*
G01X01606Y01051D02*
G01X01614Y01054D01*
G01X01614Y01054D02*
G01X01626Y01066D01*
G01X01626Y01066D02*
G01X01632Y01082D01*
G01X01632Y01082D02*
G01X01632Y01099D01*
G01X01632Y01099D02*
G01X01626Y01114D01*
G01X01626Y01114D02*
G01X01614Y01126D01*
G01X01614Y01126D02*
G01X01604Y01131D01*
G01X01604Y01131D02*
G01X01605Y01131D01*
G01X01605Y01131D02*
G01X01611Y01134D01*
G01X01611Y01134D02*
G01X01616Y01138D01*
G01X01616Y01138D02*
G01X01621Y01142D01*
G01X01621Y01142D02*
G01X01624Y01147D01*
G01X01624Y01147D02*
G01X01627Y01153D01*
G01X01627Y01153D02*
G01X01629Y01159D01*
G01X01629Y01159D02*
G01X01630Y01166D01*
G01X01630Y01166D02*
G01X01630Y01166D01*
G01X01630Y01166D02*
G01X01592Y01166D01*
G01X01592Y01166D02*
G01X01592Y01172D01*
G01X01592Y01172D02*
G01X01630Y01172D01*
G01X01630Y01172D02*
G01X01630Y01172D01*
G01X01630Y01172D02*
G01X01629Y01178D01*
G01X01629Y01178D02*
G01X01627Y01184D01*
G01X01627Y01184D02*
G01X01624Y01190D01*
G01X01624Y01190D02*
G01X01621Y01195D01*
G01X01621Y01195D02*
G01X01616Y01200D01*
G01X01616Y01200D02*
G01X01611Y01204D01*
G01X01611Y01204D02*
G01X01605Y01207D01*
G01X01605Y01207D02*
G01X01599Y01209D01*
G01X01599Y01209D02*
G01X01593Y01210D01*
G01X01593Y01210D02*
G01X01592Y01210D01*
G01X01592Y01210D02*
G01X01592Y01172D01*
G01X01592Y01172D02*
G01X01587Y01172D01*
G01X01587Y01172D02*
G01X01587Y01210D01*
G01X01587Y01210D02*
G01X01586Y01210D01*
G01X01586Y01210D02*
G01X01580Y01209D01*
G01X01580Y01209D02*
G01X01574Y01207D01*
G01X01574Y01207D02*
G01X01568Y01204D01*
G01X01558Y01194D02*
G01X01392Y01194D01*
G01X01392Y01184D02*
G01X01552Y01184D01*
G01X01549Y01175D02*
G01X01392Y01175D01*
G01X01392Y01165D02*
G01X01549Y01165D01*
G01X01551Y01155D02*
G01X01392Y01155D01*
G01X01392Y01145D02*
G01X01423Y01145D01*
G01X01405Y01135D02*
G01X01392Y01135D01*
G01X01392Y01125D02*
G01X01396Y01125D01*
G01X01456Y01145D02*
G01X01557Y01145D01*
G01X01567Y01135D02*
G01X01474Y01135D01*
G01X01484Y01125D02*
G01X01564Y01125D01*
G01X01554Y01115D02*
G01X01488Y01115D01*
G01X01492Y01106D02*
G01X01550Y01106D01*
G01X01547Y01096D02*
G01X01492Y01096D01*
G01X01492Y01086D02*
G01X01547Y01086D01*
G01X01549Y01076D02*
G01X01488Y01076D01*
G01X01484Y01066D02*
G01X01553Y01066D01*
G01X01563Y01056D02*
G01X01474Y01056D01*
G01X01472Y01037D02*
G01X01554Y01037D01*
G01X01550Y01027D02*
G01X01482Y01027D01*
G01X01487Y01017D02*
G01X01547Y01017D01*
G01X01547Y01007D02*
G01X01491Y01007D01*
G01X01492Y00997D02*
G01X01549Y00997D01*
G01X01553Y00987D02*
G01X01492Y00987D01*
G01X01488Y00977D02*
G01X01563Y00977D01*
G01X01549Y00968D02*
G01X01484Y00968D01*
G01X01475Y00958D02*
G01X01547Y00958D01*
G01X01547Y00948D02*
G01X01460Y00948D01*
G01X01471Y00938D02*
G01X01547Y00938D01*
G01X01547Y00928D02*
G01X01481Y00928D01*
G01X01486Y00918D02*
G01X01547Y00918D01*
G01X01547Y00908D02*
G01X01491Y00908D01*
G01X01492Y00899D02*
G01X01548Y00899D01*
G01X01492Y00889D02*
G01X01996Y00889D01*
G01X01996Y00899D02*
G01X01967Y00899D01*
G01X01966Y00898D02*
G01X01971Y00901D01*
G01X01971Y00901D02*
G01X01976Y00906D01*
G01X01976Y00906D02*
G01X01979Y00911D01*
G01X01979Y00911D02*
G01X01982Y00917D01*
G01X01982Y00917D02*
G01X01984Y00923D01*
G01X01984Y00923D02*
G01X01985Y00929D01*
G01X01985Y00929D02*
G01X01985Y00930D01*
G01X01985Y00930D02*
G01X01947Y00930D01*
G01X01947Y00930D02*
G01X01947Y00892D01*
G01X01947Y00892D02*
G01X01948Y00892D01*
G01X01948Y00892D02*
G01X01954Y00893D01*
G01X01954Y00893D02*
G01X01960Y00895D01*
G01X01960Y00895D02*
G01X01966Y00898D01*
G01X01977Y00908D02*
G01X01996Y00908D01*
G01X01996Y00918D02*
G01X01983Y00918D01*
G01X01985Y00928D02*
G01X01996Y00928D01*
G01X01996Y00938D02*
G01X01985Y00938D01*
G01X01985Y00936D02*
G01X01984Y00942D01*
G01X01984Y00942D02*
G01X01982Y00948D01*
G01X01982Y00948D02*
G01X01979Y00954D01*
G01X01979Y00954D02*
G01X01976Y00959D01*
G01X01976Y00959D02*
G01X01971Y00964D01*
G01X01971Y00964D02*
G01X01966Y00967D01*
G01X01966Y00967D02*
G01X01960Y00970D01*
G01X01960Y00970D02*
G01X01959Y00971D01*
G01X01959Y00971D02*
G01X01969Y00975D01*
G01X01969Y00975D02*
G01X01981Y00987D01*
G01X01981Y00987D02*
G01X01987Y01003D01*
G01X01987Y01003D02*
G01X01987Y01020D01*
G01X01987Y01020D02*
G01X01981Y01036D01*
G01X01981Y01036D02*
G01X01969Y01048D01*
G01X01969Y01048D02*
G01X01961Y01051D01*
G01X01961Y01051D02*
G01X01969Y01054D01*
G01X01969Y01054D02*
G01X01981Y01066D01*
G01X01981Y01066D02*
G01X01987Y01082D01*
G01X01987Y01082D02*
G01X01987Y01099D01*
G01X01987Y01099D02*
G01X01981Y01114D01*
G01X01981Y01114D02*
G01X01969Y01126D01*
G01X01969Y01126D02*
G01X01977Y01126D01*
G01X01977Y01126D02*
G01X01987Y01136D01*
G01X01987Y01136D02*
G01X01987Y01202D01*
G01X01987Y01202D02*
G01X01977Y01212D01*
G01X01977Y01212D02*
G01X01912Y01212D01*
G01X01912Y01212D02*
G01X01902Y01202D01*
G01X01902Y01202D02*
G01X01902Y01136D01*
G01X01902Y01136D02*
G01X01912Y01126D01*
G01X01912Y01126D02*
G01X01920Y01126D01*
G01X01920Y01126D02*
G01X01908Y01114D01*
G01X01908Y01114D02*
G01X01902Y01099D01*
G01X01902Y01099D02*
G01X01902Y01082D01*
G01X01902Y01082D02*
G01X01908Y01066D01*
G01X01908Y01066D02*
G01X01920Y01054D01*
G01X01920Y01054D02*
G01X01928Y01051D01*
G01X01928Y01051D02*
G01X01920Y01048D01*
G01X01920Y01048D02*
G01X01908Y01036D01*
G01X01908Y01036D02*
G01X01902Y01020D01*
G01X01902Y01020D02*
G01X01902Y01003D01*
G01X01902Y01003D02*
G01X01908Y00987D01*
G01X01908Y00987D02*
G01X01920Y00975D01*
G01X01920Y00975D02*
G01X01931Y00971D01*
G01X01931Y00971D02*
G01X01929Y00970D01*
G01X01929Y00970D02*
G01X01923Y00967D01*
G01X01923Y00967D02*
G01X01918Y00964D01*
G01X01918Y00964D02*
G01X01913Y00959D01*
G01X01913Y00959D02*
G01X01910Y00954D01*
G01X01910Y00954D02*
G01X01907Y00948D01*
G01X01907Y00948D02*
G01X01905Y00942D01*
G01X01905Y00942D02*
G01X01904Y00936D01*
G01X01904Y00936D02*
G01X01904Y00935D01*
G01X01904Y00935D02*
G01X01942Y00935D01*
G01X01942Y00935D02*
G01X01942Y00930D01*
G01X01942Y00930D02*
G01X01947Y00930D01*
G01X01947Y00930D02*
G01X01947Y00935D01*
G01X01947Y00935D02*
G01X01985Y00935D01*
G01X01985Y00935D02*
G01X01985Y00936D01*
G01X01982Y00948D02*
G01X01996Y00948D01*
G01X01996Y00958D02*
G01X01977Y00958D01*
G01X01966Y00968D02*
G01X01996Y00968D01*
G01X01996Y00977D02*
G01X01971Y00977D01*
G01X01981Y00987D02*
G01X01996Y00987D01*
G01X01996Y00997D02*
G01X01985Y00997D01*
G01X01987Y01007D02*
G01X01996Y01007D01*
G01X01996Y01017D02*
G01X01987Y01017D01*
G01X01984Y01027D02*
G01X01996Y01027D01*
G01X01996Y01037D02*
G01X01980Y01037D01*
G01X01970Y01046D02*
G01X01996Y01046D01*
G01X01996Y01056D02*
G01X01971Y01056D01*
G01X01981Y01066D02*
G01X01996Y01066D01*
G01X01996Y01076D02*
G01X01985Y01076D01*
G01X01987Y01086D02*
G01X01996Y01086D01*
G01X01996Y01096D02*
G01X01987Y01096D01*
G01X01984Y01106D02*
G01X01996Y01106D01*
G01X01996Y01115D02*
G01X01980Y01115D01*
G01X01970Y01125D02*
G01X01996Y01125D01*
G01X01996Y01135D02*
G01X01986Y01135D01*
G01X01987Y01145D02*
G01X01996Y01145D01*
G01X01996Y01155D02*
G01X01987Y01155D01*
G01X01987Y01165D02*
G01X01996Y01165D01*
G01X01996Y01175D02*
G01X01987Y01175D01*
G01X01987Y01184D02*
G01X01996Y01184D01*
G01X01996Y01194D02*
G01X01987Y01194D01*
G01X01985Y01204D02*
G01X01996Y01204D01*
G01X01996Y01214D02*
G01X01868Y01214D01*
G01X01872Y01204D02*
G01X01904Y01204D01*
G01X01902Y01194D02*
G01X01872Y01194D01*
G01X01871Y01184D02*
G01X01902Y01184D01*
G01X01902Y01175D02*
G01X01867Y01175D01*
G01X01862Y01165D02*
G01X01902Y01165D01*
G01X01902Y01155D02*
G01X01852Y01155D01*
G01X01836Y01145D02*
G01X01902Y01145D01*
G01X01903Y01135D02*
G01X01854Y01135D01*
G01X01864Y01125D02*
G01X01919Y01125D01*
G01X01909Y01115D02*
G01X01868Y01115D01*
G01X01872Y01106D02*
G01X01905Y01106D01*
G01X01902Y01096D02*
G01X01872Y01096D01*
G01X01872Y01086D02*
G01X01902Y01086D01*
G01X01904Y01076D02*
G01X01868Y01076D01*
G01X01864Y01066D02*
G01X01908Y01066D01*
G01X01918Y01056D02*
G01X01854Y01056D01*
G01X01852Y01037D02*
G01X01909Y01037D01*
G01X01905Y01027D02*
G01X01862Y01027D01*
G01X01867Y01017D02*
G01X01902Y01017D01*
G01X01902Y01007D02*
G01X01871Y01007D01*
G01X01872Y00997D02*
G01X01904Y00997D01*
G01X01908Y00987D02*
G01X01872Y00987D01*
G01X01868Y00977D02*
G01X01918Y00977D01*
G01X01923Y00968D02*
G01X01864Y00968D01*
G01X01855Y00958D02*
G01X01912Y00958D01*
G01X01907Y00948D02*
G01X01840Y00948D01*
G01X01799Y00948D02*
G01X01632Y00948D01*
G01X01632Y00938D02*
G01X01904Y00938D01*
G01X01904Y00930D02*
G01X01904Y00929D01*
G01X01904Y00929D02*
G01X01905Y00923D01*
G01X01905Y00923D02*
G01X01907Y00917D01*
G01X01907Y00917D02*
G01X01910Y00911D01*
G01X01910Y00911D02*
G01X01913Y00906D01*
G01X01913Y00906D02*
G01X01918Y00901D01*
G01X01918Y00901D02*
G01X01923Y00898D01*
G01X01923Y00898D02*
G01X01929Y00895D01*
G01X01929Y00895D02*
G01X01935Y00893D01*
G01X01935Y00893D02*
G01X01941Y00892D01*
G01X01941Y00892D02*
G01X01942Y00892D01*
G01X01942Y00892D02*
G01X01942Y00930D01*
G01X01942Y00930D02*
G01X01904Y00930D01*
G01X01904Y00928D02*
G01X01632Y00928D01*
G01X01632Y00918D02*
G01X01906Y00918D01*
G01X01912Y00908D02*
G01X01632Y00908D01*
G01X01631Y00899D02*
G01X01922Y00899D01*
G01X01942Y00899D02*
G01X01947Y00899D01*
G01X01947Y00908D02*
G01X01942Y00908D01*
G01X01942Y00918D02*
G01X01947Y00918D01*
G01X01947Y00928D02*
G01X01942Y00928D01*
G01X01996Y00879D02*
G01X01489Y00879D01*
G01X01485Y00869D02*
G01X01996Y00869D01*
G01X01996Y00859D02*
G01X01477Y00859D01*
G01X01464Y00849D02*
G01X01996Y00849D01*
G01X01996Y00839D02*
G01X01392Y00839D01*
G01X01392Y00830D02*
G01X01996Y00830D01*
G01X01996Y00820D02*
G01X01392Y00820D01*
G01X01388Y00810D02*
G01X01996Y00810D01*
G01X01996Y00800D02*
G01X01848Y00800D01*
G01X01859Y00790D02*
G01X01996Y00790D01*
G01X01996Y00780D02*
G01X01866Y00780D01*
G01X01791Y00800D02*
G01X01389Y00800D01*
G01X01392Y00790D02*
G01X01781Y00790D01*
G01X01773Y00780D02*
G01X01392Y00780D01*
G01X01392Y00770D02*
G01X01769Y00770D01*
G01X01768Y00761D02*
G01X01392Y00761D01*
G01X01392Y00692D02*
G01X01402Y00692D01*
G01X01394Y00682D02*
G01X01392Y00682D01*
G01X01392Y00849D02*
G01X01416Y00849D01*
G01X01403Y00859D02*
G01X01392Y00859D01*
G01X01392Y00869D02*
G01X01394Y00869D01*
G01X01456Y01046D02*
G01X01564Y01046D01*
G01X01615Y01046D02*
G01X01803Y01046D01*
G01X01787Y01037D02*
G01X01625Y01037D01*
G01X01629Y01027D02*
G01X01777Y01027D01*
G01X01772Y01017D02*
G01X01632Y01017D01*
G01X01632Y01007D02*
G01X01768Y01007D01*
G01X01768Y00997D02*
G01X01630Y00997D01*
G01X01626Y00987D02*
G01X01768Y00987D01*
G01X01771Y00977D02*
G01X01616Y00977D01*
G01X01630Y00968D02*
G01X01775Y00968D01*
G01X01784Y00958D02*
G01X01632Y00958D01*
G01X01616Y01056D02*
G01X01785Y01056D01*
G01X01776Y01066D02*
G01X01626Y01066D01*
G01X01630Y01076D02*
G01X01771Y01076D01*
G01X01768Y01086D02*
G01X01632Y01086D01*
G01X01632Y01096D02*
G01X01768Y01096D01*
G01X01768Y01106D02*
G01X01629Y01106D01*
G01X01625Y01115D02*
G01X01771Y01115D01*
G01X01776Y01125D02*
G01X01615Y01125D01*
G01X01612Y01135D02*
G01X01785Y01135D01*
G01X01787Y01155D02*
G01X01628Y01155D01*
G01X01630Y01165D02*
G01X01777Y01165D01*
G01X01772Y01175D02*
G01X01630Y01175D01*
G01X01627Y01184D02*
G01X01768Y01184D01*
G01X01768Y01194D02*
G01X01621Y01194D01*
G01X01610Y01204D02*
G01X01768Y01204D01*
G01X01803Y01145D02*
G01X01623Y01145D01*
G01X01592Y01175D02*
G01X01587Y01175D01*
G01X01587Y01184D02*
G01X01592Y01184D01*
G01X01592Y01194D02*
G01X01587Y01194D01*
G01X01587Y01204D02*
G01X01592Y01204D01*
G01X01840Y01243D02*
G01X01996Y01243D01*
G01X01996Y01234D02*
G01X01855Y01234D01*
G01X01864Y01224D02*
G01X01996Y01224D01*
G01X01919Y01046D02*
G01X01836Y01046D01*
G01X01791Y00711D02*
G01X01630Y00711D01*
G01X01626Y00702D02*
G01X01794Y00702D01*
G01X01782Y00692D02*
G01X01620Y00692D01*
G01X01985Y00475D02*
G01X01996Y00475D01*
G01X01996Y00465D02*
G01X01981Y00465D01*
G01X01975Y00455D02*
G01X01996Y00455D01*
G01X01892Y00130D02*
G01X01887Y00130D01*
G01X01880Y00120D02*
G01X01899Y00120D01*
G01X01909Y00110D02*
G01X01870Y00110D01*
G01X01809Y00110D02*
G01X01770Y00110D01*
G01X01780Y00120D02*
G01X01799Y00120D01*
G01X01792Y00130D02*
G01X01787Y00130D01*
G01X01709Y00110D02*
G01X01670Y00110D01*
G01X01680Y00120D02*
G01X01699Y00120D01*
G01X01692Y00130D02*
G01X01687Y00130D01*
G01X01609Y00110D02*
G01X01570Y00110D01*
G01X01580Y00120D02*
G01X01599Y00120D01*
G01X01592Y00130D02*
G01X01587Y00130D01*
G01X01509Y00110D02*
G01X01470Y00110D01*
G01X01480Y00120D02*
G01X01499Y00120D01*
G01X01492Y00130D02*
G01X01487Y00130D01*
G01X01409Y00110D02*
G01X01365Y00110D01*
G01X01378Y00120D02*
G01X01399Y00120D01*
G01X01392Y00130D02*
G01X01385Y00130D01*
G01X01345Y00120D02*
G01X01335Y00120D01*
G01X01335Y00110D02*
G01X01345Y00110D01*
G01X01292Y00278D02*
G01X01289Y00278D01*
G01X01284Y00288D02*
G01X01298Y00288D01*
G01X01309Y00297D02*
G01X01274Y00297D01*
G01X01267Y00307D02*
G01X01333Y00307D01*
G01X00593Y00603D02*
G01X00545Y00603D01*
G01X00551Y00613D02*
G01X00588Y00613D01*
G01X00588Y00623D02*
G01X00555Y00623D01*
G01X00557Y00633D02*
G01X00588Y00633D01*
G01X00588Y00642D02*
G01X00557Y00642D01*
G01X00554Y00652D02*
G01X00588Y00652D01*
G01X00588Y00662D02*
G01X00550Y00662D01*
G01X00542Y00672D02*
G01X00588Y00672D01*
G01X00588Y00682D02*
G01X00529Y00682D01*
G01X00552Y00702D02*
G01X00591Y00702D01*
G01X00590Y00711D02*
G01X00573Y00711D01*
G01X00583Y00721D02*
G01X00588Y00721D01*
G01X00588Y00692D02*
G01X00082Y00692D01*
G01X00140Y00756D02*
G01X00190Y00806D01*
G01X00190Y00806D02*
G01X00190Y00881D01*
G01X00190Y00881D02*
G01X00165Y00906D01*
G01X00165Y00906D02*
G01X00165Y01033D01*
G01X00215Y01033D02*
G01X00215Y00881D01*
G01X00215Y00881D02*
G01X00240Y00856D01*
G01X00140Y00856D02*
G01X00115Y00881D01*
G01X00115Y00881D02*
G01X00115Y01033D01*
G01X00179Y00682D02*
G01X00480Y00682D01*
G01X00467Y00672D02*
G01X00192Y00672D01*
G01X00270Y00514D02*
G01X00389Y00514D01*
G01X00383Y00504D02*
G01X00277Y00504D01*
G01X00277Y00495D02*
G01X00383Y00495D01*
G01X00383Y00485D02*
G01X00277Y00485D01*
G01X00277Y00475D02*
G01X00383Y00475D01*
G01X00383Y00465D02*
G01X00277Y00465D01*
G01X00268Y00455D02*
G01X00391Y00455D01*
G01X00313Y00307D02*
G01X00246Y00307D01*
G01X00270Y00297D02*
G01X00305Y00297D01*
G01X00295Y00288D02*
G01X00281Y00288D01*
G01X00287Y00278D02*
G01X00290Y00278D01*
G01X00194Y00130D02*
G01X00187Y00130D01*
G01X00180Y00120D02*
G01X00202Y00120D01*
G01X00214Y00110D02*
G01X00170Y00110D01*
G01X00235Y00110D02*
G01X00245Y00110D01*
G01X00245Y00120D02*
G01X00235Y00120D01*
G01X00459Y00110D02*
G01X00520Y00110D01*
G01X00501Y00120D02*
G01X00478Y00120D01*
G01X00487Y00130D02*
G01X00492Y00130D01*
G01X00536Y00593D02*
G01X00588Y00593D01*
G01X00540Y00756D02*
G01X00590Y00806D01*
G01X00590Y00806D02*
G01X00590Y00881D01*
G01X00590Y00881D02*
G01X00565Y00906D01*
G01X00565Y00906D02*
G01X00565Y01033D01*
G01X00515Y01033D02*
G01X00515Y00881D01*
G01X00515Y00881D02*
G01X00540Y00856D01*
G54D20*
G01X00504Y00636D02*
G01X00430Y00636D01*
G01X00430Y00486D02*
G01X00504Y00486D01*
G01X00490Y00381D02*
G01X00490Y00314D01*
G01X00452Y00227D02*
G01X00452Y00168D01*
G01X00452Y00168D02*
G01X00445Y00161D01*
G01X00527Y00168D02*
G01X00527Y00227D01*
G01X00527Y00168D02*
G01X00535Y00161D01*
G01X00640Y00156D02*
G01X00640Y00256D01*
G01X00640Y00256D02*
G01X00640Y00356D01*
G01X00740Y00356D02*
G01X00740Y00256D01*
G01X00740Y00256D02*
G01X00740Y00156D01*
G01X00840Y00156D02*
G01X00840Y00256D01*
G01X00840Y00256D02*
G01X00840Y00356D01*
G01X00940Y00356D02*
G01X00940Y00256D01*
G01X00940Y00256D02*
G01X00940Y00156D01*
G01X01040Y00156D02*
G01X01040Y00256D01*
G01X01040Y00256D02*
G01X01040Y00356D01*
G01X01140Y00356D02*
G01X01140Y00256D01*
G01X01140Y00256D02*
G01X01140Y00156D01*
G01X01240Y00156D02*
G01X01240Y00256D01*
G01X01240Y00256D02*
G01X01240Y00356D01*
G01X01340Y00256D02*
G01X01340Y00156D01*
G01X01440Y00156D02*
G01X01440Y00256D01*
G01X01440Y00256D02*
G01X01440Y00356D01*
G01X01540Y00356D02*
G01X01540Y00256D01*
G01X01540Y00256D02*
G01X01540Y00156D01*
G01X01640Y00156D02*
G01X01640Y00256D01*
G01X01640Y00256D02*
G01X01640Y00356D01*
G01X01740Y00356D02*
G01X01740Y00256D01*
G01X01740Y00256D02*
G01X01740Y00156D01*
G01X01840Y00156D02*
G01X01840Y00256D01*
G01X01840Y00256D02*
G01X01840Y00356D01*
G01X01940Y00356D02*
G01X01940Y00256D01*
G01X01940Y00256D02*
G01X01940Y00156D01*
G01X01590Y00719D02*
G01X01553Y00756D01*
G01X01553Y00756D02*
G01X01440Y00756D01*
G01X01440Y01756D02*
G01X01440Y01856D01*
G01X01440Y01856D02*
G01X01440Y01956D01*
G01X01340Y01956D02*
G01X01340Y01856D01*
G01X01340Y01856D02*
G01X01340Y01756D01*
G01X01240Y01756D02*
G01X01240Y01856D01*
G01X01240Y01856D02*
G01X01240Y01956D01*
G01X01140Y01956D02*
G01X01140Y01856D01*
G01X01140Y01856D02*
G01X01140Y01756D01*
G01X01040Y01756D02*
G01X01040Y01856D01*
G01X01040Y01856D02*
G01X01040Y01956D01*
G01X00940Y01956D02*
G01X00940Y01856D01*
G01X00940Y01856D02*
G01X00940Y01756D01*
G01X00840Y01756D02*
G01X00840Y01856D01*
G01X00840Y01856D02*
G01X00840Y01956D01*
G01X00740Y01956D02*
G01X00740Y01856D01*
G01X00740Y01856D02*
G01X00740Y01756D01*
G01X00640Y01756D02*
G01X00640Y01856D01*
G01X00640Y01856D02*
G01X00640Y01956D01*
G01X00530Y01946D02*
G01X00529Y01947D01*
G01X00529Y01947D02*
G01X00442Y01947D01*
G01X00442Y01856D02*
G01X00530Y01856D01*
G01X00530Y01766D02*
G01X00529Y01765D01*
G01X00529Y01765D02*
G01X00442Y01765D01*
G01X00198Y01856D02*
G01X00120Y01856D01*
G01X00155Y00636D02*
G01X00230Y00636D01*
G01X00230Y00486D02*
G01X00155Y00486D01*
G01X00140Y00356D02*
G01X00140Y00256D01*
G01X00140Y00256D02*
G01X00140Y00156D01*
G01X00240Y00156D02*
G01X00240Y00256D01*
G01X00340Y00256D02*
G01X00340Y00356D01*
G01X00340Y00256D02*
G01X00340Y00156D01*
G01X01640Y01756D02*
G01X01640Y01856D01*
G01X01640Y01856D02*
G01X01640Y01956D01*
G01X01540Y01956D02*
G01X01540Y01856D01*
G01X01740Y01856D02*
G01X01740Y01756D01*
G01X01740Y01856D02*
G01X01740Y01956D01*
G01X01840Y01956D02*
G01X01840Y01856D01*
G01X01840Y01856D02*
G01X01840Y01756D01*
G01X01940Y01756D02*
G01X01940Y01856D01*
G01X01940Y01856D02*
G01X01940Y01956D01*
G54D21*
G01X01940Y01756D03*
G01X01840Y01756D03*
G01X01740Y01756D03*
G01X01640Y01756D03*
G01X01540Y01756D03*
G01X01440Y01756D03*
G01X01340Y01756D03*
G01X01240Y01756D03*
G01X01140Y01756D03*
G01X01040Y01756D03*
G01X00940Y01756D03*
G01X00840Y01756D03*
G01X00740Y01756D03*
G01X00640Y01756D03*
G01X00540Y01651D03*
G01X00440Y01651D03*
G01X00440Y01551D03*
G01X00540Y01551D03*
G01X00340Y01551D03*
G01X00240Y01551D03*
G01X00140Y01551D03*
G01X00140Y01651D03*
G01X00240Y01651D03*
G01X00340Y01651D03*
G01X00340Y00856D03*
G01X00240Y00856D03*
G01X00140Y00856D03*
G01X00140Y00756D03*
G01X00240Y00756D03*
G01X00340Y00756D03*
G01X00440Y00756D03*
G01X00540Y00756D03*
G01X00540Y00856D03*
G01X00440Y00856D03*
G01X00340Y00356D03*
G01X00240Y00356D03*
G01X00140Y00356D03*
G01X00640Y00356D03*
G01X00740Y00356D03*
G01X00840Y00356D03*
G01X00940Y00356D03*
G01X01040Y00356D03*
G01X01140Y00356D03*
G01X01240Y00356D03*
G01X01340Y00356D03*
G01X01440Y00356D03*
G01X01540Y00356D03*
G01X01640Y00356D03*
G01X01740Y00356D03*
G01X01840Y00356D03*
G01X01940Y00356D03*
G54D22*
G01X00355Y01736D03*
G01X00160Y01986D03*
G54D23*
G01X00120Y01856D03*
G01X00530Y01856D03*
G01X00530Y01766D03*
G01X00530Y01946D03*
G01X01440Y01656D03*
G01X01440Y01556D03*
G01X01440Y01456D03*
G01X01440Y01356D03*
G01X01440Y01196D03*
G01X01440Y01096D03*
G01X01440Y00996D03*
G01X01440Y00896D03*
G01X01440Y00756D03*
G01X01440Y00656D03*
G01X01440Y00556D03*
G01X01440Y00456D03*
G01X01820Y00456D03*
G01X01820Y00556D03*
G01X01820Y00656D03*
G01X01820Y00756D03*
G01X01820Y00896D03*
G01X01820Y00996D03*
G01X01820Y01096D03*
G01X01820Y01196D03*
G01X01820Y01356D03*
G01X01820Y01456D03*
G01X01820Y01556D03*
G01X01820Y01656D03*
G01X00504Y00636D03*
G01X00504Y00486D03*
G01X00490Y00381D03*
G01X00445Y00161D03*
G01X00535Y00161D03*
G01X00155Y00486D03*
G01X00155Y00636D03*
G54D24*
G01X00640Y00656D03*
G01X00640Y00756D03*
G01X00740Y00756D03*
G01X00740Y00656D03*
G01X00840Y00656D03*
G01X00940Y00656D03*
G01X00940Y00756D03*
G01X00840Y00756D03*
G01X00840Y00856D03*
G01X00740Y00856D03*
G01X00640Y00856D03*
G01X00640Y00956D03*
G01X00640Y01056D03*
G01X00740Y01056D03*
G01X00740Y00956D03*
G01X00840Y00956D03*
G01X00940Y00956D03*
G01X00940Y01056D03*
G01X00840Y01056D03*
G01X00840Y01156D03*
G01X00740Y01156D03*
G01X00640Y01156D03*
G01X00640Y01256D03*
G01X00740Y01256D03*
G01X00840Y01256D03*
G01X00940Y01256D03*
G01X00940Y01156D03*
G01X01040Y01156D03*
G01X01140Y01156D03*
G01X01140Y01056D03*
G01X01140Y00956D03*
G01X01040Y00956D03*
G01X01040Y01056D03*
G01X01040Y00856D03*
G01X01140Y00856D03*
G01X01140Y00756D03*
G01X01140Y00656D03*
G01X01040Y00656D03*
G01X01040Y00756D03*
G01X00940Y00856D03*
G01X00940Y00556D03*
G01X00840Y00556D03*
G01X00740Y00556D03*
G01X00740Y00456D03*
G01X00840Y00456D03*
G01X00940Y00456D03*
G01X01040Y00456D03*
G01X01140Y00456D03*
G01X01240Y00456D03*
G01X01340Y00456D03*
G01X01340Y00556D03*
G01X01240Y00556D03*
G01X01140Y00556D03*
G01X01040Y00556D03*
G01X01240Y00656D03*
G01X01340Y00656D03*
G01X01340Y00756D03*
G01X01240Y00756D03*
G01X01240Y00856D03*
G01X01340Y00856D03*
G01X01340Y00956D03*
G01X01240Y00956D03*
G01X01240Y01056D03*
G01X01340Y01056D03*
G01X01340Y01156D03*
G01X01240Y01156D03*
G01X01240Y01256D03*
G01X01340Y01256D03*
G01X01340Y01356D03*
G01X01240Y01356D03*
G01X01240Y01456D03*
G01X01340Y01456D03*
G01X01340Y01556D03*
G01X01240Y01556D03*
G01X01140Y01556D03*
G01X01040Y01556D03*
G01X01040Y01456D03*
G01X01040Y01356D03*
G01X01140Y01356D03*
G01X01140Y01456D03*
G01X01140Y01256D03*
G01X01040Y01256D03*
G01X00940Y01356D03*
G01X00840Y01356D03*
G01X00740Y01356D03*
G01X00740Y01456D03*
G01X00840Y01456D03*
G01X00940Y01456D03*
G01X00940Y01556D03*
G01X00840Y01556D03*
G01X00740Y01556D03*
G01X00640Y01556D03*
G01X00640Y01456D03*
G01X00640Y01356D03*
G01X00640Y01656D03*
G01X00740Y01656D03*
G01X00840Y01656D03*
G01X00940Y01656D03*
G01X01040Y01656D03*
G01X01140Y01656D03*
G01X01240Y01656D03*
G01X01340Y01656D03*
G01X00640Y00556D03*
G01X00640Y00456D03*
M02*
