G75*
G70*
%OFA0B0*%
%FSLAX24Y24*%
%IPPOS*%
%LPD*%
%AMOC8*
5,1,8,0,0,1.08239X$1,22.5*
%
%ADD10C,0.0000*%
%ADD11C,0.0780*%
%ADD12R,0.0276X0.1575*%
%ADD13R,0.0920X0.0520*%
%ADD14R,0.0906X0.1457*%
%ADD15R,0.0434X0.0591*%
%ADD16R,0.0640X0.0340*%
%ADD17R,0.0555X0.0555*%
%ADD18C,0.0555*%
%ADD19C,0.0800*%
%ADD20C,0.0740*%
%ADD21R,0.0740X0.0740*%
D10*
X000645Y000806D02*
X000645Y020301D01*
X020130Y020291D01*
X020130Y000806D01*
X000645Y000806D01*
D11*
X001395Y001556D03*
X002395Y001556D03*
X003395Y001556D03*
X003395Y002556D03*
X002395Y002556D03*
X001395Y002556D03*
X006395Y002556D03*
X006395Y001556D03*
X007395Y001556D03*
X008395Y001556D03*
X009395Y001556D03*
X010395Y001556D03*
X011395Y001556D03*
X012395Y001556D03*
X013395Y001556D03*
X014395Y001556D03*
X015395Y001556D03*
X016395Y001556D03*
X017395Y001556D03*
X018395Y001556D03*
X019395Y001556D03*
X019395Y002556D03*
X018395Y002556D03*
X017395Y002556D03*
X016395Y002556D03*
X015395Y002556D03*
X014395Y002556D03*
X013395Y002556D03*
X012395Y002556D03*
X011395Y002556D03*
X010395Y002556D03*
X009395Y002556D03*
X008395Y002556D03*
X007395Y002556D03*
X007395Y018556D03*
X008395Y018556D03*
X009395Y018556D03*
X010395Y018556D03*
X011395Y018556D03*
X012395Y018556D03*
X013395Y018556D03*
X014395Y018556D03*
X015395Y018556D03*
X016395Y018556D03*
X017395Y018556D03*
X018395Y018556D03*
X019395Y018556D03*
X019395Y019556D03*
X018395Y019556D03*
X017395Y019556D03*
X016395Y019556D03*
X015395Y019556D03*
X014395Y019556D03*
X013395Y019556D03*
X012395Y019556D03*
X011395Y019556D03*
X010395Y019556D03*
X009395Y019556D03*
X008395Y019556D03*
X007395Y019556D03*
X006395Y019556D03*
X006395Y018556D03*
D12*
X005645Y013481D03*
X005145Y013481D03*
X004645Y013481D03*
X004145Y013481D03*
X003645Y013481D03*
X003145Y013481D03*
X002645Y013481D03*
X002145Y013481D03*
X001645Y013481D03*
X001145Y013481D03*
X001145Y010331D03*
X001645Y010331D03*
X002145Y010331D03*
X002645Y010331D03*
X003145Y010331D03*
X003645Y010331D03*
X004145Y010331D03*
X004645Y010331D03*
X005145Y010331D03*
X005645Y010331D03*
D13*
X004415Y017646D03*
X004415Y018556D03*
X004415Y019466D03*
D14*
X001975Y018556D03*
D15*
X004895Y003139D03*
X004521Y002273D03*
X005269Y002273D03*
D16*
X004295Y004856D03*
X004295Y006356D03*
X002295Y006356D03*
X002295Y004856D03*
D17*
X015895Y004825D03*
X019445Y007187D03*
X015895Y009325D03*
X019445Y011687D03*
X015895Y013895D03*
X019445Y016257D03*
D18*
X019445Y015470D03*
X019445Y014683D03*
X019445Y013895D03*
X019445Y010900D03*
X019445Y010113D03*
X019445Y009325D03*
X019445Y006400D03*
X019445Y005613D03*
X019445Y004825D03*
X015895Y005613D03*
X015895Y006400D03*
X015895Y007187D03*
X015895Y010113D03*
X015895Y010900D03*
X015895Y011687D03*
X015895Y014683D03*
X015895Y015470D03*
X015895Y016257D03*
D19*
X015395Y017556D03*
X016395Y017556D03*
X017395Y017556D03*
X018395Y017556D03*
X019395Y017556D03*
X014395Y017556D03*
X013395Y017556D03*
X012395Y017556D03*
X011395Y017556D03*
X010395Y017556D03*
X009395Y017556D03*
X008395Y017556D03*
X007395Y017556D03*
X006395Y017556D03*
X005395Y016506D03*
X004395Y016506D03*
X004395Y015506D03*
X005395Y015506D03*
X003395Y015506D03*
X002395Y015506D03*
X001395Y015506D03*
X001395Y016506D03*
X002395Y016506D03*
X003395Y016506D03*
X003395Y008556D03*
X002395Y008556D03*
X001395Y008556D03*
X001395Y007556D03*
X002395Y007556D03*
X003395Y007556D03*
X004395Y007556D03*
X005395Y007556D03*
X005395Y008556D03*
X004395Y008556D03*
X003395Y003556D03*
X002395Y003556D03*
X001395Y003556D03*
X006395Y003556D03*
X007395Y003556D03*
X008395Y003556D03*
X009395Y003556D03*
X010395Y003556D03*
X011395Y003556D03*
X012395Y003556D03*
X013395Y003556D03*
X014395Y003556D03*
X015395Y003556D03*
X016395Y003556D03*
X017395Y003556D03*
X018395Y003556D03*
X019395Y003556D03*
D20*
X018195Y004556D03*
X018195Y005556D03*
X018195Y006556D03*
X018195Y007556D03*
X018195Y008956D03*
X018195Y009956D03*
X018195Y010956D03*
X018195Y011956D03*
X018195Y013556D03*
X018195Y014556D03*
X018195Y015556D03*
X018195Y016556D03*
X014395Y016556D03*
X014395Y015556D03*
X014395Y014556D03*
X014395Y013556D03*
X014395Y011956D03*
X014395Y010956D03*
X014395Y009956D03*
X014395Y008956D03*
X014395Y006556D03*
X014395Y005556D03*
X014395Y004556D03*
X005345Y001606D03*
X004445Y001606D03*
X004895Y003806D03*
X005045Y004856D03*
X005045Y006356D03*
X001545Y006356D03*
X001545Y004856D03*
X005295Y017656D03*
X005295Y018556D03*
X005295Y019456D03*
X001195Y018556D03*
D21*
X006395Y016556D03*
X006395Y015556D03*
X006395Y014556D03*
X006395Y013556D03*
X006395Y012556D03*
X006395Y011556D03*
X006395Y010556D03*
X006395Y009556D03*
X006395Y008556D03*
X006395Y007556D03*
X006395Y006556D03*
X006395Y005556D03*
X006395Y004556D03*
X007395Y004556D03*
X008395Y004556D03*
X009395Y004556D03*
X010395Y004556D03*
X011395Y004556D03*
X012395Y004556D03*
X013395Y004556D03*
X013395Y005556D03*
X012395Y005556D03*
X011395Y005556D03*
X010395Y005556D03*
X009395Y005556D03*
X008395Y005556D03*
X007395Y005556D03*
X007395Y006556D03*
X008395Y006556D03*
X009395Y006556D03*
X009395Y007556D03*
X008395Y007556D03*
X007395Y007556D03*
X007395Y008556D03*
X008395Y008556D03*
X009395Y008556D03*
X010395Y008556D03*
X011395Y008556D03*
X011395Y007556D03*
X011395Y006556D03*
X010395Y006556D03*
X010395Y007556D03*
X012395Y007556D03*
X012395Y006556D03*
X013395Y006556D03*
X013395Y007556D03*
X013395Y008556D03*
X012395Y008556D03*
X012395Y009556D03*
X013395Y009556D03*
X013395Y010556D03*
X012395Y010556D03*
X011395Y010556D03*
X011395Y009556D03*
X010395Y009556D03*
X010395Y010556D03*
X009395Y010556D03*
X009395Y009556D03*
X008395Y009556D03*
X007395Y009556D03*
X007395Y010556D03*
X008395Y010556D03*
X008395Y011556D03*
X007395Y011556D03*
X007395Y012556D03*
X008395Y012556D03*
X009395Y012556D03*
X009395Y011556D03*
X010395Y011556D03*
X011395Y011556D03*
X012395Y011556D03*
X013395Y011556D03*
X013395Y012556D03*
X012395Y012556D03*
X011395Y012556D03*
X010395Y012556D03*
X010395Y013556D03*
X011395Y013556D03*
X011395Y014556D03*
X010395Y014556D03*
X009395Y014556D03*
X009395Y013556D03*
X008395Y013556D03*
X007395Y013556D03*
X007395Y014556D03*
X008395Y014556D03*
X008395Y015556D03*
X007395Y015556D03*
X007395Y016556D03*
X008395Y016556D03*
X009395Y016556D03*
X009395Y015556D03*
X010395Y015556D03*
X011395Y015556D03*
X012395Y015556D03*
X013395Y015556D03*
X013395Y014556D03*
X013395Y013556D03*
X012395Y013556D03*
X012395Y014556D03*
X012395Y016556D03*
X013395Y016556D03*
X011395Y016556D03*
X010395Y016556D03*
M02*
