G75*
G70*
%OFA0B0*%
%FSLAX24Y24*%
%IPPOS*%
%LPD*%
%AMOC8*
5,1,8,0,0,1.08239X$1,22.5*
%
%ADD10C,0.0000*%
%ADD11R,0.0030X0.0090*%
%ADD12R,0.0030X0.0030*%
%ADD13R,0.0030X0.0060*%
%ADD14R,0.0030X0.0150*%
%ADD15R,0.0030X0.0180*%
%ADD16R,0.0030X0.0210*%
%ADD17R,0.0030X0.0120*%
%ADD18R,0.0030X0.0240*%
%ADD19R,0.0030X0.0390*%
%ADD20R,0.0030X0.0570*%
%ADD21R,0.0030X0.0270*%
%ADD22R,0.0030X0.0330*%
%ADD23R,0.0030X0.0360*%
%ADD24R,0.0030X0.0300*%
%ADD25R,0.0030X0.0540*%
%ADD26R,0.0030X0.0420*%
%ADD27R,0.0030X0.0450*%
%ADD28R,0.0030X0.0480*%
%ADD29R,0.0030X0.0690*%
%ADD30R,0.0030X0.0720*%
%ADD31R,0.0030X0.0960*%
%ADD32R,0.0030X0.0840*%
%ADD33R,0.0030X0.0810*%
%ADD34R,0.0210X0.0030*%
%ADD35R,0.0090X0.0030*%
%ADD36R,0.0060X0.0030*%
%ADD37R,0.0120X0.0030*%
%ADD38R,0.0420X0.0030*%
%ADD39R,0.0300X0.0030*%
%ADD40R,0.0240X0.0030*%
%ADD41R,0.0150X0.0030*%
%ADD42R,0.0180X0.0030*%
%ADD43R,0.0360X0.0030*%
%ADD44R,0.1020X0.0030*%
%ADD45R,0.0390X0.0030*%
%ADD46R,0.0270X0.0030*%
%ADD47R,0.0330X0.0030*%
%ADD48R,0.0480X0.0030*%
%ADD49C,0.0040*%
%ADD50C,0.0030*%
%ADD51C,0.0080*%
%ADD52C,0.0020*%
%ADD53C,0.0100*%
%ADD54C,0.0160*%
%ADD55C,0.0060*%
%ADD56C,0.0070*%
%ADD57C,0.0050*%
%ADD58R,0.0160X0.0230*%
D10*
X001129Y000806D02*
X001129Y020301D01*
X020614Y020291D01*
X020614Y000806D01*
X001129Y000806D01*
X018602Y013790D02*
X018604Y013816D01*
X018610Y013842D01*
X018620Y013867D01*
X018633Y013890D01*
X018649Y013910D01*
X018669Y013928D01*
X018691Y013943D01*
X018714Y013955D01*
X018740Y013963D01*
X018766Y013967D01*
X018792Y013967D01*
X018818Y013963D01*
X018844Y013955D01*
X018868Y013943D01*
X018889Y013928D01*
X018909Y013910D01*
X018925Y013890D01*
X018938Y013867D01*
X018948Y013842D01*
X018954Y013816D01*
X018956Y013790D01*
X018954Y013764D01*
X018948Y013738D01*
X018938Y013713D01*
X018925Y013690D01*
X018909Y013670D01*
X018889Y013652D01*
X018867Y013637D01*
X018844Y013625D01*
X018818Y013617D01*
X018792Y013613D01*
X018766Y013613D01*
X018740Y013617D01*
X018714Y013625D01*
X018690Y013637D01*
X018669Y013652D01*
X018649Y013670D01*
X018633Y013690D01*
X018620Y013713D01*
X018610Y013738D01*
X018604Y013764D01*
X018602Y013790D01*
X018602Y015522D02*
X018604Y015548D01*
X018610Y015574D01*
X018620Y015599D01*
X018633Y015622D01*
X018649Y015642D01*
X018669Y015660D01*
X018691Y015675D01*
X018714Y015687D01*
X018740Y015695D01*
X018766Y015699D01*
X018792Y015699D01*
X018818Y015695D01*
X018844Y015687D01*
X018868Y015675D01*
X018889Y015660D01*
X018909Y015642D01*
X018925Y015622D01*
X018938Y015599D01*
X018948Y015574D01*
X018954Y015548D01*
X018956Y015522D01*
X018954Y015496D01*
X018948Y015470D01*
X018938Y015445D01*
X018925Y015422D01*
X018909Y015402D01*
X018889Y015384D01*
X018867Y015369D01*
X018844Y015357D01*
X018818Y015349D01*
X018792Y015345D01*
X018766Y015345D01*
X018740Y015349D01*
X018714Y015357D01*
X018690Y015369D01*
X018669Y015384D01*
X018649Y015402D01*
X018633Y015422D01*
X018620Y015445D01*
X018610Y015470D01*
X018604Y015496D01*
X018602Y015522D01*
D11*
X013209Y013576D03*
X012669Y014146D03*
X012639Y014146D03*
X012549Y014146D03*
X012729Y014176D03*
X012759Y014176D03*
X012849Y014206D03*
X012879Y014206D03*
X012969Y014236D03*
X012999Y014266D03*
X013029Y014266D03*
X012969Y014476D03*
X012759Y014536D03*
X012399Y014446D03*
X012249Y014236D03*
X012189Y014266D03*
X011829Y014296D03*
X011769Y014326D03*
X011769Y014476D03*
X011619Y014536D03*
X011589Y014536D03*
X011949Y014626D03*
X011649Y014986D03*
X011589Y015196D03*
X011469Y015376D03*
X011499Y015466D03*
X011529Y015556D03*
X011559Y015706D03*
X011319Y015616D03*
X011259Y015346D03*
X011829Y015196D03*
X012309Y015376D03*
X012399Y015256D03*
X012549Y015526D03*
X012579Y015526D03*
X012729Y015496D03*
X012759Y015496D03*
X012879Y015466D03*
X012939Y015436D03*
X013029Y015376D03*
X011589Y013666D03*
X011439Y013696D03*
X010509Y014866D03*
X009999Y014386D03*
X009879Y014476D03*
X009909Y015526D03*
D12*
X010029Y015466D03*
X010089Y015376D03*
X010179Y015256D03*
X010209Y015226D03*
X010119Y015196D03*
X010179Y015106D03*
X010269Y015136D03*
X010299Y015136D03*
X010329Y015166D03*
X010359Y015196D03*
X010419Y015226D03*
X010449Y015256D03*
X010479Y015286D03*
X010509Y015286D03*
X010629Y015286D03*
X010659Y015286D03*
X010689Y015256D03*
X010719Y015256D03*
X010719Y015346D03*
X010689Y015376D03*
X010659Y015406D03*
X010629Y015406D03*
X010599Y015436D03*
X010569Y015436D03*
X010539Y015466D03*
X010479Y015496D03*
X010419Y015526D03*
X010389Y015526D03*
X010359Y015556D03*
X010329Y015586D03*
X010269Y015616D03*
X010239Y015646D03*
X010329Y015736D03*
X010359Y015736D03*
X010419Y015706D03*
X010449Y015706D03*
X010479Y015706D03*
X010509Y015706D03*
X010539Y015676D03*
X010569Y015676D03*
X010629Y015646D03*
X010689Y015616D03*
X010749Y015586D03*
X010779Y015556D03*
X010809Y015526D03*
X010959Y015376D03*
X010989Y015346D03*
X011019Y015316D03*
X011109Y015286D03*
X011139Y015286D03*
X011169Y015286D03*
X011199Y015286D03*
X011229Y015316D03*
X011349Y015256D03*
X011379Y015256D03*
X011499Y015376D03*
X011529Y015376D03*
X011559Y015376D03*
X011589Y015376D03*
X011619Y015376D03*
X011649Y015406D03*
X011679Y015406D03*
X011709Y015406D03*
X011739Y015406D03*
X011769Y015436D03*
X011799Y015436D03*
X011829Y015436D03*
X011859Y015466D03*
X011889Y015496D03*
X011949Y015556D03*
X012009Y015586D03*
X012039Y015586D03*
X012069Y015616D03*
X012099Y015616D03*
X012129Y015646D03*
X012189Y015676D03*
X012249Y015706D03*
X012279Y015706D03*
X012309Y015736D03*
X012339Y015736D03*
X012399Y015766D03*
X012459Y015796D03*
X012489Y015796D03*
X012519Y015796D03*
X012579Y015826D03*
X012609Y015826D03*
X012639Y015826D03*
X012699Y015856D03*
X012729Y015886D03*
X012759Y015916D03*
X012849Y016036D03*
X012759Y015706D03*
X012729Y015676D03*
X012699Y015646D03*
X012519Y015676D03*
X012489Y015676D03*
X012429Y015496D03*
X012399Y015496D03*
X012369Y015496D03*
X012339Y015466D03*
X012309Y015466D03*
X012279Y015466D03*
X012249Y015556D03*
X012219Y015556D03*
X012129Y015526D03*
X012099Y015496D03*
X012369Y015406D03*
X012399Y015406D03*
X012429Y015406D03*
X012519Y015406D03*
X012789Y015226D03*
X012939Y015166D03*
X012969Y015136D03*
X012999Y015106D03*
X013029Y015076D03*
X013059Y015046D03*
X013089Y015016D03*
X013089Y014716D03*
X013059Y014686D03*
X013029Y014656D03*
X012999Y014626D03*
X012969Y014596D03*
X012819Y014536D03*
X012789Y014536D03*
X012699Y014326D03*
X012669Y014056D03*
X012639Y014056D03*
X012699Y014026D03*
X012729Y014026D03*
X012759Y013996D03*
X012789Y013996D03*
X012819Y013966D03*
X012849Y013936D03*
X012909Y013906D03*
X012939Y013876D03*
X012999Y013846D03*
X013029Y013816D03*
X013059Y013786D03*
X012969Y013666D03*
X012999Y013636D03*
X013029Y013636D03*
X013119Y013576D03*
X013149Y013546D03*
X013179Y013546D03*
X012939Y013696D03*
X012909Y013696D03*
X012879Y013726D03*
X012849Y013726D03*
X012819Y013726D03*
X012759Y013756D03*
X012729Y013756D03*
X012699Y013786D03*
X012669Y013786D03*
X012639Y013816D03*
X012609Y013816D03*
X012579Y013846D03*
X012519Y013876D03*
X012459Y013906D03*
X012399Y013936D03*
X012369Y013966D03*
X012339Y013966D03*
X012309Y013996D03*
X012279Y014026D03*
X012249Y014056D03*
X012219Y014056D03*
X012189Y014086D03*
X012159Y014116D03*
X012129Y014116D03*
X012099Y014146D03*
X012069Y014176D03*
X012009Y014206D03*
X011979Y014206D03*
X011739Y014296D03*
X011679Y014326D03*
X011649Y014326D03*
X011679Y014386D03*
X011709Y014386D03*
X011649Y014416D03*
X011619Y014416D03*
X011259Y014446D03*
X011229Y014446D03*
X011199Y014446D03*
X011079Y014416D03*
X010989Y014416D03*
X010959Y014416D03*
X010929Y014416D03*
X010899Y014416D03*
X010839Y014386D03*
X010809Y014356D03*
X010689Y014236D03*
X010659Y014206D03*
X010539Y014206D03*
X010509Y014206D03*
X010479Y014206D03*
X010449Y014206D03*
X010389Y014236D03*
X010359Y014236D03*
X010329Y014266D03*
X010299Y014296D03*
X010269Y014326D03*
X010239Y014326D03*
X010209Y014356D03*
X010179Y014356D03*
X010149Y014356D03*
X010119Y014356D03*
X010089Y014326D03*
X009999Y014206D03*
X009969Y014176D03*
X009969Y014416D03*
X009939Y014416D03*
X009909Y014506D03*
X010119Y014596D03*
X010239Y014626D03*
X010329Y014656D03*
X010359Y014626D03*
X010389Y014596D03*
X010449Y014536D03*
X010479Y014506D03*
X010449Y014446D03*
X010419Y014446D03*
X010389Y014446D03*
X010329Y014476D03*
X010299Y014476D03*
X010269Y014476D03*
X010479Y014416D03*
X010509Y014416D03*
X010569Y014476D03*
X010599Y014476D03*
X010599Y014416D03*
X010419Y014956D03*
X010389Y014956D03*
X010929Y014956D03*
X011019Y015106D03*
X011409Y015586D03*
X011409Y015946D03*
X011559Y016246D03*
X011829Y015346D03*
X012369Y014086D03*
X012399Y014056D03*
X011589Y013486D03*
X011499Y013576D03*
X010299Y015766D03*
X010269Y015796D03*
X010209Y015886D03*
X010179Y015916D03*
X010149Y015916D03*
X014079Y015706D03*
X014079Y015676D03*
X014079Y015586D03*
X014349Y015676D03*
X014469Y015766D03*
X014499Y015826D03*
X014499Y015856D03*
X014499Y015886D03*
X014529Y015916D03*
X014619Y015976D03*
X014619Y016006D03*
X014649Y016036D03*
X014769Y016036D03*
X014679Y016156D03*
X014619Y016186D03*
X014979Y016126D03*
X015009Y016006D03*
X015009Y015976D03*
X015219Y015916D03*
X015249Y015946D03*
X015279Y016006D03*
X015279Y016036D03*
X015279Y016066D03*
X015279Y016096D03*
X015279Y016126D03*
X015429Y015736D03*
X015429Y015616D03*
X014949Y015616D03*
X014109Y016636D03*
D13*
X012909Y015451D03*
X012849Y015481D03*
X012819Y015481D03*
X012789Y015481D03*
X012669Y015631D03*
X012789Y015721D03*
X012819Y015751D03*
X012849Y015781D03*
X012669Y015841D03*
X012549Y015811D03*
X012429Y015781D03*
X012369Y015751D03*
X012219Y015691D03*
X012159Y015661D03*
X011979Y015571D03*
X011919Y015541D03*
X011889Y015361D03*
X011859Y015361D03*
X011889Y015241D03*
X011859Y015181D03*
X011769Y015211D03*
X011589Y015301D03*
X011439Y015241D03*
X011409Y015241D03*
X011079Y015301D03*
X011049Y015301D03*
X010929Y015391D03*
X010899Y015421D03*
X010869Y015451D03*
X010839Y015481D03*
X010719Y015601D03*
X010659Y015631D03*
X010599Y015661D03*
X010449Y015511D03*
X010299Y015601D03*
X010209Y015691D03*
X010179Y015721D03*
X010149Y015781D03*
X010119Y015871D03*
X010239Y015841D03*
X010389Y015721D03*
X009999Y015511D03*
X009969Y015541D03*
X009939Y015571D03*
X009939Y015451D03*
X009969Y015421D03*
X009999Y015361D03*
X010029Y015331D03*
X010059Y015271D03*
X010089Y015241D03*
X010149Y015301D03*
X010119Y015331D03*
X010059Y015421D03*
X010149Y015151D03*
X010239Y015181D03*
X010209Y015061D03*
X010239Y015001D03*
X010239Y014791D03*
X010209Y014731D03*
X010179Y014701D03*
X010149Y014641D03*
X010299Y014671D03*
X010419Y014821D03*
X010539Y014851D03*
X010659Y014491D03*
X010689Y014491D03*
X010629Y014461D03*
X010569Y014401D03*
X010539Y014401D03*
X010719Y014251D03*
X010749Y014281D03*
X010779Y014311D03*
X010869Y014401D03*
X011019Y014401D03*
X011049Y014401D03*
X011109Y014431D03*
X011139Y014431D03*
X011169Y014431D03*
X011289Y014431D03*
X011619Y014341D03*
X011709Y014311D03*
X011739Y014371D03*
X011739Y014491D03*
X011709Y014491D03*
X011679Y014491D03*
X011769Y014611D03*
X011799Y014611D03*
X012039Y014191D03*
X012219Y014251D03*
X012279Y014221D03*
X012309Y014221D03*
X012339Y014221D03*
X012369Y014191D03*
X012399Y014191D03*
X012429Y014191D03*
X012459Y014191D03*
X012489Y014161D03*
X012519Y014161D03*
X012699Y014161D03*
X012909Y014221D03*
X012939Y014221D03*
X013119Y014371D03*
X012999Y014461D03*
X012879Y014521D03*
X012849Y014521D03*
X012399Y014761D03*
X012759Y015211D03*
X012819Y015241D03*
X012849Y015241D03*
X012549Y015391D03*
X012519Y015511D03*
X012489Y015511D03*
X012459Y015511D03*
X012339Y015391D03*
X012789Y015991D03*
X012819Y016021D03*
X011469Y016231D03*
X011349Y015721D03*
X010779Y015301D03*
X010389Y015211D03*
X009909Y014431D03*
X009969Y014311D03*
X010029Y014251D03*
X010059Y014281D03*
X011229Y014791D03*
X012339Y014101D03*
X012429Y013921D03*
X012489Y013891D03*
X012549Y013861D03*
X012879Y013921D03*
X012969Y013861D03*
X013089Y013771D03*
X013119Y013741D03*
X013149Y013711D03*
X013179Y013651D03*
X013089Y013591D03*
X013059Y013621D03*
X011619Y013531D03*
X011529Y013531D03*
X011469Y013621D03*
D14*
X011349Y014026D03*
X011589Y014386D03*
X011649Y014536D03*
X011769Y014836D03*
X011529Y015226D03*
X011499Y015226D03*
X010929Y014836D03*
X011439Y016036D03*
X012189Y015376D03*
X012399Y015046D03*
X012669Y015196D03*
X012699Y015196D03*
X012939Y015286D03*
X012999Y015376D03*
X013149Y014866D03*
X012399Y014626D03*
X012069Y014326D03*
X012039Y014326D03*
D15*
X011919Y014311D03*
X012699Y014551D03*
X012999Y014851D03*
X012909Y015241D03*
X012639Y015541D03*
X011559Y015241D03*
X011079Y014941D03*
X011049Y014911D03*
X010869Y014851D03*
X010449Y014881D03*
X010269Y014881D03*
X013089Y014371D03*
D16*
X013059Y014356D03*
X012669Y014566D03*
X012639Y014566D03*
X012069Y014536D03*
X011919Y015286D03*
X011649Y015226D03*
X011619Y015226D03*
X011199Y014866D03*
X011109Y014926D03*
X010899Y014866D03*
X011319Y014296D03*
X012969Y015376D03*
D17*
X012879Y015241D03*
X012699Y015481D03*
X012669Y015481D03*
X012609Y015541D03*
X012699Y014911D03*
X012789Y014821D03*
X013029Y014881D03*
X012939Y014521D03*
X012909Y014521D03*
X013029Y014431D03*
X012819Y014221D03*
X012789Y014191D03*
X012609Y014131D03*
X012579Y014131D03*
X012729Y014551D03*
X012159Y014281D03*
X011799Y014311D03*
X011799Y014491D03*
X011529Y014491D03*
X011409Y014311D03*
X011439Y014281D03*
X011379Y013921D03*
X011409Y013801D03*
X011559Y013801D03*
X010839Y014851D03*
X010479Y014881D03*
X010209Y014551D03*
X009939Y014221D03*
X010749Y015301D03*
X011469Y015241D03*
X011799Y015211D03*
X011379Y015811D03*
D18*
X011289Y015481D03*
X011139Y014911D03*
X011169Y014881D03*
X012879Y015931D03*
D19*
X012489Y015106D03*
X012759Y014866D03*
X012369Y014596D03*
D20*
X012429Y015016D03*
X012459Y015016D03*
X012729Y014956D03*
X011919Y014716D03*
D21*
X011829Y014536D03*
X012189Y015136D03*
X012549Y015196D03*
X012639Y015226D03*
X012609Y014566D03*
X012579Y014566D03*
D22*
X012219Y014536D03*
X012189Y014536D03*
X011949Y014386D03*
X011559Y014416D03*
X011019Y014866D03*
X011979Y015256D03*
X012309Y015136D03*
X012519Y015166D03*
X012609Y015256D03*
D23*
X012579Y015241D03*
X012009Y015241D03*
X012279Y014581D03*
X012309Y014581D03*
X012339Y014581D03*
X012249Y014551D03*
X010959Y014911D03*
D24*
X011949Y015271D03*
X012339Y015121D03*
X012369Y015121D03*
X012549Y014581D03*
X012459Y014551D03*
X012429Y014551D03*
X012159Y014521D03*
D25*
X012009Y014521D03*
X012519Y014701D03*
D26*
X012489Y014641D03*
X012099Y014461D03*
X012129Y015241D03*
X010989Y014911D03*
D27*
X011739Y014806D03*
X011979Y014476D03*
X012129Y014446D03*
X012279Y015196D03*
X012159Y015226D03*
X011589Y015976D03*
D28*
X012219Y015241D03*
X012249Y015241D03*
D29*
X012099Y015076D03*
D30*
X012069Y015061D03*
D31*
X012039Y014941D03*
D32*
X011889Y014641D03*
D33*
X011859Y014656D03*
X011709Y014956D03*
X011679Y014956D03*
D34*
X013839Y016876D03*
X014259Y016366D03*
X014679Y016366D03*
X015249Y016426D03*
X015609Y016396D03*
X015609Y016366D03*
X015939Y016396D03*
X016179Y016396D03*
X015909Y015886D03*
X015219Y015496D03*
X014169Y015646D03*
D35*
X014619Y015916D03*
X014679Y016066D03*
X014709Y016096D03*
X014829Y016186D03*
X015009Y016516D03*
X015009Y016546D03*
X015009Y016576D03*
X015249Y016756D03*
X015579Y016906D03*
X015609Y016576D03*
X015879Y016096D03*
X016029Y016006D03*
X016029Y015946D03*
X016119Y015916D03*
X016149Y015946D03*
X016059Y015706D03*
X015609Y015916D03*
X015609Y015946D03*
X015639Y015976D03*
X015459Y015886D03*
X015369Y015796D03*
X015039Y015526D03*
X014979Y015556D03*
X014139Y016486D03*
X014169Y016516D03*
X014109Y016666D03*
X014349Y016666D03*
X014649Y016936D03*
X013809Y016906D03*
X013839Y016666D03*
X013839Y016636D03*
X013839Y016606D03*
X013839Y016576D03*
X013509Y016516D03*
X016479Y016516D03*
X016479Y016486D03*
X016509Y016456D03*
X016479Y016546D03*
X016479Y016576D03*
X016479Y016606D03*
X016509Y016666D03*
X016779Y016636D03*
X016779Y016486D03*
X016539Y016006D03*
X016539Y015946D03*
X016569Y015706D03*
D36*
X016554Y015976D03*
X016404Y016096D03*
X016104Y015886D03*
X016044Y015976D03*
X015594Y015886D03*
X015414Y015766D03*
X015444Y015706D03*
X015444Y015676D03*
X015444Y015646D03*
X015414Y015586D03*
X015384Y015556D03*
X015354Y015526D03*
X015054Y015676D03*
X015054Y015706D03*
X015054Y015736D03*
X015054Y015766D03*
X015054Y015796D03*
X015024Y015916D03*
X015024Y015946D03*
X014994Y016036D03*
X014994Y016066D03*
X014994Y016096D03*
X014694Y016126D03*
X014694Y015826D03*
X014484Y015796D03*
X014454Y015736D03*
X014214Y015616D03*
X014184Y015586D03*
X014124Y015556D03*
X013524Y016546D03*
X015234Y016186D03*
X015264Y016156D03*
D37*
X015174Y016216D03*
X015024Y016426D03*
X015024Y016456D03*
X015024Y016486D03*
X014994Y016606D03*
X014994Y016636D03*
X014994Y016666D03*
X014994Y016696D03*
X014994Y016756D03*
X014664Y016756D03*
X014664Y016726D03*
X014664Y016696D03*
X014664Y016666D03*
X014664Y016636D03*
X014664Y016606D03*
X014664Y016576D03*
X014664Y016546D03*
X014664Y016516D03*
X014664Y016786D03*
X014664Y016816D03*
X014664Y016846D03*
X014364Y016636D03*
X014364Y016606D03*
X014364Y016516D03*
X014364Y016486D03*
X014334Y016696D03*
X014124Y016456D03*
X013824Y016486D03*
X013824Y016516D03*
X013824Y016546D03*
X013794Y016456D03*
X013554Y016426D03*
X013524Y016456D03*
X013524Y016486D03*
X013854Y016696D03*
X013854Y016726D03*
X014574Y015946D03*
X014634Y015886D03*
X014664Y015856D03*
X014964Y015586D03*
X015594Y015796D03*
X015624Y015766D03*
X015684Y015736D03*
X015684Y016006D03*
X015984Y015916D03*
X016164Y015976D03*
X016194Y016006D03*
X016134Y015796D03*
X016164Y015766D03*
X016194Y015736D03*
X016044Y015616D03*
X016494Y015916D03*
X016554Y015616D03*
X016764Y016456D03*
X016794Y016516D03*
X016794Y016546D03*
X016794Y016576D03*
X016794Y016606D03*
X016764Y016666D03*
X016494Y016636D03*
X016194Y016636D03*
X016194Y016606D03*
X016194Y016576D03*
X016194Y016546D03*
X016194Y016516D03*
X016194Y016486D03*
X016194Y016666D03*
X015924Y016576D03*
X015924Y016546D03*
X015924Y016516D03*
X015924Y016486D03*
X015594Y016516D03*
X015594Y016546D03*
X015594Y016606D03*
X015594Y016636D03*
X015594Y016666D03*
X015564Y016726D03*
X015594Y016876D03*
X015234Y016726D03*
X015264Y016666D03*
X015264Y016636D03*
X015264Y016606D03*
X015264Y016576D03*
X015264Y016546D03*
X015264Y016516D03*
X015264Y016486D03*
X014154Y015736D03*
D38*
X013884Y015616D03*
X015924Y015676D03*
X016434Y015676D03*
D39*
X016494Y015646D03*
X015984Y015646D03*
X015144Y015856D03*
X013674Y016396D03*
D40*
X014304Y015706D03*
X015114Y015886D03*
X015054Y016246D03*
X016044Y016756D03*
D41*
X015939Y016636D03*
X015939Y016606D03*
X015939Y016456D03*
X015939Y016426D03*
X016209Y016456D03*
X016539Y016426D03*
X016719Y016426D03*
X016629Y016756D03*
X016419Y015886D03*
X015729Y015706D03*
X015309Y015826D03*
X015069Y015826D03*
X014679Y016426D03*
X014679Y016456D03*
X014679Y016486D03*
X014379Y016456D03*
X014139Y016426D03*
X013779Y016426D03*
X013839Y016756D03*
X013839Y016786D03*
X013839Y016816D03*
X014139Y016696D03*
X014229Y016756D03*
X014649Y016876D03*
X014649Y016906D03*
X014979Y016726D03*
X015249Y016696D03*
X015579Y016696D03*
X015609Y016486D03*
X015609Y016456D03*
X015609Y016426D03*
D42*
X015264Y016456D03*
X014904Y016216D03*
X014664Y016396D03*
X014364Y016426D03*
X014334Y016576D03*
X013854Y016846D03*
X013674Y016366D03*
X015954Y016666D03*
X016194Y016426D03*
X016644Y016366D03*
X016254Y015706D03*
D43*
X016134Y015826D03*
X015864Y016036D03*
X015624Y015826D03*
X014274Y016396D03*
D44*
X015924Y015856D03*
D45*
X016389Y016036D03*
X016029Y016696D03*
X016029Y016726D03*
X015189Y016396D03*
D46*
X015879Y016066D03*
X016389Y016066D03*
X016629Y016396D03*
X016629Y016726D03*
X014289Y016546D03*
X014229Y016726D03*
D47*
X015219Y016366D03*
X016629Y016696D03*
D48*
X016074Y016366D03*
D49*
X016505Y017476D02*
X016658Y017476D01*
X016735Y017553D01*
X016888Y017553D02*
X016888Y017476D01*
X016888Y017553D02*
X017195Y017860D01*
X017195Y017937D01*
X016888Y017937D01*
X016735Y017860D02*
X016658Y017937D01*
X016505Y017937D01*
X016428Y017860D01*
X016428Y017553D01*
X016505Y017476D01*
X017428Y017553D02*
X017505Y017476D01*
X017658Y017476D01*
X017735Y017553D01*
X017888Y017553D02*
X017965Y017476D01*
X018119Y017476D01*
X018195Y017553D01*
X018195Y017630D01*
X018119Y017706D01*
X017888Y017706D01*
X017888Y017553D01*
X017888Y017706D02*
X018042Y017860D01*
X018195Y017937D01*
X018428Y017860D02*
X018428Y017553D01*
X018505Y017476D01*
X018658Y017476D01*
X018735Y017553D01*
X018888Y017553D02*
X018965Y017476D01*
X019119Y017476D01*
X019195Y017553D01*
X019195Y017706D01*
X019119Y017783D01*
X019042Y017783D01*
X018888Y017706D01*
X018888Y017937D01*
X019195Y017937D01*
X019428Y017860D02*
X019428Y017553D01*
X019505Y017476D01*
X019658Y017476D01*
X019735Y017553D01*
X019888Y017706D02*
X020195Y017706D01*
X020119Y017476D02*
X020119Y017937D01*
X019888Y017706D01*
X019735Y017860D02*
X019658Y017937D01*
X019505Y017937D01*
X019428Y017860D01*
X018735Y017860D02*
X018658Y017937D01*
X018505Y017937D01*
X018428Y017860D01*
X017735Y017860D02*
X017658Y017937D01*
X017505Y017937D01*
X017428Y017860D01*
X017428Y017553D01*
X020159Y014923D02*
X020159Y014616D01*
X020159Y014769D02*
X019698Y014769D01*
X019852Y014616D01*
X019698Y014462D02*
X020159Y014156D01*
X020159Y014462D02*
X019698Y014156D01*
X014195Y017553D02*
X014119Y017476D01*
X013965Y017476D01*
X013888Y017553D01*
X014195Y017860D01*
X014195Y017553D01*
X014195Y017860D02*
X014119Y017937D01*
X013965Y017937D01*
X013888Y017860D01*
X013888Y017553D01*
X013735Y017553D02*
X013658Y017476D01*
X013428Y017476D01*
X013428Y017937D01*
X013658Y017937D01*
X013735Y017860D01*
X013735Y017783D01*
X013658Y017706D01*
X013428Y017706D01*
X013658Y017706D02*
X013735Y017630D01*
X013735Y017553D01*
X013195Y017476D02*
X012888Y017476D01*
X013042Y017476D02*
X013042Y017937D01*
X012888Y017783D01*
X012735Y017783D02*
X012658Y017706D01*
X012428Y017706D01*
X012428Y017476D02*
X012658Y017476D01*
X012735Y017553D01*
X012735Y017630D01*
X012658Y017706D01*
X012735Y017783D02*
X012735Y017860D01*
X012658Y017937D01*
X012428Y017937D01*
X012428Y017476D01*
X012195Y017476D02*
X011888Y017476D01*
X012195Y017783D01*
X012195Y017860D01*
X012119Y017937D01*
X011965Y017937D01*
X011888Y017860D01*
X011735Y017860D02*
X011735Y017783D01*
X011658Y017706D01*
X011428Y017706D01*
X011428Y017476D02*
X011658Y017476D01*
X011735Y017553D01*
X011735Y017630D01*
X011658Y017706D01*
X011735Y017860D02*
X011658Y017937D01*
X011428Y017937D01*
X011428Y017476D01*
X011195Y017553D02*
X011119Y017476D01*
X010965Y017476D01*
X010888Y017553D01*
X010735Y017553D02*
X010658Y017476D01*
X010428Y017476D01*
X010428Y017937D01*
X010658Y017937D01*
X010735Y017860D01*
X010735Y017783D01*
X010658Y017706D01*
X010428Y017706D01*
X010658Y017706D02*
X010735Y017630D01*
X010735Y017553D01*
X011042Y017706D02*
X011119Y017706D01*
X011195Y017630D01*
X011195Y017553D01*
X011119Y017706D02*
X011195Y017783D01*
X011195Y017860D01*
X011119Y017937D01*
X010965Y017937D01*
X010888Y017860D01*
X010195Y017706D02*
X009888Y017706D01*
X010119Y017937D01*
X010119Y017476D01*
X009735Y017553D02*
X009658Y017476D01*
X009428Y017476D01*
X009428Y017937D01*
X009658Y017937D01*
X009735Y017860D01*
X009735Y017783D01*
X009658Y017706D01*
X009428Y017706D01*
X009195Y017706D02*
X009119Y017783D01*
X009042Y017783D01*
X008888Y017706D01*
X008888Y017937D01*
X009195Y017937D01*
X009195Y017706D02*
X009195Y017553D01*
X009119Y017476D01*
X008965Y017476D01*
X008888Y017553D01*
X008735Y017553D02*
X008658Y017476D01*
X008428Y017476D01*
X008428Y017937D01*
X008658Y017937D01*
X008735Y017860D01*
X008735Y017783D01*
X008658Y017706D01*
X008428Y017706D01*
X008658Y017706D02*
X008735Y017630D01*
X008735Y017553D01*
X008195Y017553D02*
X008195Y017630D01*
X008119Y017706D01*
X007888Y017706D01*
X007888Y017553D01*
X007965Y017476D01*
X008119Y017476D01*
X008195Y017553D01*
X008042Y017860D02*
X007888Y017706D01*
X007735Y017630D02*
X007735Y017553D01*
X007658Y017476D01*
X007428Y017476D01*
X007428Y017937D01*
X007658Y017937D01*
X007735Y017860D01*
X007735Y017783D01*
X007658Y017706D01*
X007428Y017706D01*
X007658Y017706D02*
X007735Y017630D01*
X008042Y017860D02*
X008195Y017937D01*
X007195Y017937D02*
X007195Y017860D01*
X006888Y017553D01*
X006888Y017476D01*
X006735Y017553D02*
X006658Y017476D01*
X006428Y017476D01*
X006428Y017937D01*
X006658Y017937D01*
X006735Y017860D01*
X006735Y017783D01*
X006658Y017706D01*
X006428Y017706D01*
X006658Y017706D02*
X006735Y017630D01*
X006735Y017553D01*
X006888Y017937D02*
X007195Y017937D01*
X009658Y017706D02*
X009735Y017630D01*
X009735Y017553D01*
X003369Y015334D02*
X003062Y015334D01*
X003215Y015334D02*
X003215Y015794D01*
X003062Y015641D01*
X002909Y015641D02*
X002832Y015564D01*
X002602Y015564D01*
X002832Y015564D02*
X002909Y015487D01*
X002909Y015410D01*
X002832Y015334D01*
X002602Y015334D01*
X002602Y015794D01*
X002832Y015794D01*
X002909Y015717D01*
X002909Y015641D01*
X002448Y015794D02*
X002141Y015334D01*
X002448Y015334D02*
X002141Y015794D01*
X011249Y006265D02*
X011609Y006265D01*
X011609Y006145D02*
X011609Y006385D01*
X011369Y006145D02*
X011249Y006265D01*
X011309Y006016D02*
X011549Y006016D01*
X011609Y005956D01*
X011609Y005836D01*
X011549Y005776D01*
X011309Y005776D01*
X011249Y005836D01*
X011249Y005956D01*
X011309Y006016D01*
X011489Y005896D02*
X011609Y006016D01*
X011808Y004983D02*
X011808Y004907D01*
X011808Y004753D02*
X011808Y004370D01*
X011731Y004293D01*
X011654Y004293D01*
X011961Y004523D02*
X012038Y004600D01*
X012268Y004600D01*
X012268Y004676D02*
X012268Y004446D01*
X012038Y004446D01*
X011961Y004523D01*
X012038Y004753D02*
X012191Y004753D01*
X012268Y004676D01*
X012421Y004446D02*
X012575Y004446D01*
X012498Y004446D02*
X012498Y004907D01*
X012421Y004907D01*
X012728Y004753D02*
X012728Y004523D01*
X012805Y004446D01*
X013035Y004446D01*
X013035Y004753D01*
X013189Y004753D02*
X013265Y004753D01*
X013265Y004446D01*
X013189Y004446D02*
X013342Y004446D01*
X013496Y004446D02*
X013496Y004753D01*
X013726Y004753D01*
X013802Y004676D01*
X013802Y004446D01*
X013956Y004523D02*
X013956Y004676D01*
X014033Y004753D01*
X014186Y004753D01*
X014263Y004676D01*
X014263Y004523D01*
X014186Y004446D01*
X014033Y004446D01*
X013956Y004523D01*
X014416Y004523D02*
X014493Y004523D01*
X014493Y004446D01*
X014416Y004446D01*
X014416Y004523D01*
X014646Y004523D02*
X014646Y004676D01*
X014723Y004753D01*
X014877Y004753D01*
X014953Y004676D01*
X014953Y004523D01*
X014877Y004446D01*
X014723Y004446D01*
X014646Y004523D01*
X015107Y004600D02*
X015260Y004753D01*
X015337Y004753D01*
X015490Y004676D02*
X015490Y004523D01*
X015567Y004446D01*
X015797Y004446D01*
X015797Y004370D02*
X015797Y004753D01*
X015567Y004753D01*
X015490Y004676D01*
X015107Y004753D02*
X015107Y004446D01*
X015644Y004293D02*
X015721Y004293D01*
X015797Y004370D01*
X015602Y003637D02*
X015756Y003483D01*
X015756Y003176D01*
X015909Y003253D02*
X015909Y003406D01*
X016139Y003406D01*
X016216Y003330D01*
X016216Y003253D01*
X016139Y003176D01*
X015986Y003176D01*
X015909Y003253D01*
X015909Y003406D02*
X016063Y003560D01*
X016216Y003637D01*
X016449Y003560D02*
X016449Y003253D01*
X016526Y003176D01*
X016679Y003176D01*
X016756Y003253D01*
X016909Y003253D02*
X017216Y003560D01*
X017216Y003253D01*
X017139Y003176D01*
X016986Y003176D01*
X016909Y003253D01*
X016909Y003560D01*
X016986Y003637D01*
X017139Y003637D01*
X017216Y003560D01*
X017449Y003560D02*
X017449Y003253D01*
X017526Y003176D01*
X017679Y003176D01*
X017756Y003253D01*
X017909Y003176D02*
X018216Y003176D01*
X018063Y003176D02*
X018063Y003637D01*
X017909Y003483D01*
X017756Y003560D02*
X017679Y003637D01*
X017526Y003637D01*
X017449Y003560D01*
X016756Y003560D02*
X016679Y003637D01*
X016526Y003637D01*
X016449Y003560D01*
X015756Y003406D02*
X015449Y003406D01*
X015449Y003483D02*
X015602Y003637D01*
X015449Y003483D02*
X015449Y003176D01*
X015216Y003560D02*
X015216Y003637D01*
X014909Y003637D01*
X014756Y003483D02*
X014756Y003176D01*
X014909Y003176D02*
X014909Y003253D01*
X015216Y003560D01*
X014756Y003483D02*
X014602Y003637D01*
X014449Y003483D01*
X014449Y003176D01*
X014449Y003406D02*
X014756Y003406D01*
X013216Y003406D02*
X013216Y003253D01*
X013139Y003176D01*
X012986Y003176D01*
X012909Y003253D01*
X012909Y003406D02*
X013063Y003483D01*
X013139Y003483D01*
X013216Y003406D01*
X013216Y003637D02*
X012909Y003637D01*
X012909Y003406D01*
X012756Y003406D02*
X012449Y003406D01*
X012449Y003483D02*
X012602Y003637D01*
X012756Y003483D01*
X012756Y003176D01*
X012449Y003176D02*
X012449Y003483D01*
X012216Y003406D02*
X011909Y003406D01*
X012139Y003637D01*
X012139Y003176D01*
X011756Y003176D02*
X011756Y003483D01*
X011602Y003637D01*
X011449Y003483D01*
X011449Y003176D01*
X011449Y003406D02*
X011756Y003406D01*
X011216Y003330D02*
X011216Y003253D01*
X011139Y003176D01*
X010986Y003176D01*
X010909Y003253D01*
X010756Y003176D02*
X010756Y003483D01*
X010602Y003637D01*
X010449Y003483D01*
X010449Y003176D01*
X010449Y003406D02*
X010756Y003406D01*
X010909Y003560D02*
X010986Y003637D01*
X011139Y003637D01*
X011216Y003560D01*
X011216Y003483D01*
X011139Y003406D01*
X011216Y003330D01*
X011139Y003406D02*
X011063Y003406D01*
X010216Y003483D02*
X010216Y003560D01*
X010139Y003637D01*
X009986Y003637D01*
X009909Y003560D01*
X009756Y003483D02*
X009756Y003176D01*
X009909Y003176D02*
X010216Y003483D01*
X010216Y003176D02*
X009909Y003176D01*
X009756Y003406D02*
X009449Y003406D01*
X009449Y003483D02*
X009602Y003637D01*
X009756Y003483D01*
X009449Y003483D02*
X009449Y003176D01*
X009216Y003176D02*
X008909Y003176D01*
X008756Y003176D02*
X008756Y003483D01*
X008602Y003637D01*
X008449Y003483D01*
X008449Y003176D01*
X008449Y003406D02*
X008756Y003406D01*
X008909Y003483D02*
X009063Y003637D01*
X009063Y003176D01*
X008216Y003253D02*
X008139Y003176D01*
X007986Y003176D01*
X007909Y003253D01*
X008216Y003560D01*
X008216Y003253D01*
X008216Y003560D02*
X008139Y003637D01*
X007986Y003637D01*
X007909Y003560D01*
X007909Y003253D01*
X007756Y003176D02*
X007756Y003483D01*
X007602Y003637D01*
X007449Y003483D01*
X007449Y003176D01*
X007449Y003406D02*
X007756Y003406D01*
X008969Y004446D02*
X008969Y004907D01*
X009046Y004753D02*
X008969Y004676D01*
X009046Y004753D02*
X009199Y004753D01*
X009276Y004676D01*
X009276Y004446D01*
X009506Y004523D02*
X009506Y004830D01*
X009429Y004753D02*
X009583Y004753D01*
X009736Y004753D02*
X009889Y004753D01*
X009813Y004830D02*
X009813Y004523D01*
X009889Y004446D01*
X010043Y004446D02*
X010273Y004446D01*
X010350Y004523D01*
X010350Y004676D01*
X010273Y004753D01*
X010043Y004753D01*
X010043Y004293D01*
X010503Y004446D02*
X010503Y004523D01*
X010580Y004523D01*
X010580Y004446D01*
X010503Y004446D01*
X010503Y004676D02*
X010503Y004753D01*
X010580Y004753D01*
X010580Y004676D01*
X010503Y004676D01*
X010733Y004446D02*
X011040Y004907D01*
X011501Y004907D02*
X011194Y004446D01*
X009583Y004446D02*
X009506Y004523D01*
X013265Y004907D02*
X013265Y004983D01*
X016762Y006196D02*
X016822Y006136D01*
X016942Y006136D01*
X017002Y006196D01*
X017002Y006437D01*
X016942Y006497D01*
X016822Y006497D01*
X016762Y006437D01*
X016762Y006196D01*
X016882Y006256D02*
X017002Y006136D01*
X017131Y006136D02*
X017371Y006376D01*
X017371Y006437D01*
X017311Y006497D01*
X017191Y006497D01*
X017131Y006437D01*
X017131Y006136D02*
X017371Y006136D01*
X018526Y003637D02*
X018449Y003560D01*
X018449Y003253D01*
X018526Y003176D01*
X018679Y003176D01*
X018756Y003253D01*
X018909Y003176D02*
X019216Y003483D01*
X019216Y003560D01*
X019139Y003637D01*
X018986Y003637D01*
X018909Y003560D01*
X018756Y003560D02*
X018679Y003637D01*
X018526Y003637D01*
X018909Y003176D02*
X019216Y003176D01*
X019449Y003253D02*
X019449Y003560D01*
X019526Y003637D01*
X019679Y003637D01*
X019756Y003560D01*
X019909Y003560D02*
X019986Y003637D01*
X020139Y003637D01*
X020216Y003560D01*
X020216Y003483D01*
X020139Y003406D01*
X020216Y003330D01*
X020216Y003253D01*
X020139Y003176D01*
X019986Y003176D01*
X019909Y003253D01*
X019756Y003253D02*
X019679Y003176D01*
X019526Y003176D01*
X019449Y003253D01*
X020063Y003406D02*
X020139Y003406D01*
D50*
X019334Y004184D02*
X019237Y004281D01*
X019044Y004281D01*
X019044Y004382D02*
X019044Y004527D01*
X019092Y004575D01*
X019189Y004575D01*
X019237Y004527D01*
X019237Y004382D01*
X019334Y004382D02*
X019044Y004382D01*
X019044Y004087D02*
X019237Y004087D01*
X019334Y004184D01*
X019334Y004677D02*
X019044Y004677D01*
X019044Y004822D01*
X019092Y004870D01*
X019189Y004870D01*
X019237Y004822D01*
X019237Y004677D01*
X019187Y005087D02*
X018994Y005087D01*
X019187Y005087D02*
X019284Y005184D01*
X019187Y005281D01*
X018994Y005281D01*
X018994Y005382D02*
X018994Y005527D01*
X019042Y005575D01*
X019235Y005575D01*
X019284Y005527D01*
X019284Y005382D01*
X018994Y005382D01*
X018994Y005677D02*
X018994Y005822D01*
X019042Y005870D01*
X019235Y005870D01*
X019284Y005822D01*
X019284Y005677D01*
X018994Y005677D01*
X019042Y006187D02*
X019235Y006187D01*
X019284Y006236D01*
X019284Y006332D01*
X019235Y006381D01*
X019139Y006381D01*
X019139Y006284D01*
X019042Y006187D02*
X018994Y006236D01*
X018994Y006332D01*
X019042Y006381D01*
X018994Y006482D02*
X019284Y006675D01*
X018994Y006675D01*
X018994Y006777D02*
X018994Y006922D01*
X019042Y006970D01*
X019235Y006970D01*
X019284Y006922D01*
X019284Y006777D01*
X018994Y006777D01*
X018994Y006482D02*
X019284Y006482D01*
X018717Y006443D02*
X018717Y006250D01*
X018668Y006201D01*
X018571Y006201D01*
X018523Y006250D01*
X018717Y006443D01*
X018668Y006492D01*
X018571Y006492D01*
X018523Y006443D01*
X018523Y006250D01*
X018422Y006201D02*
X018228Y006201D01*
X018325Y006201D02*
X018325Y006492D01*
X018228Y006395D01*
X018127Y006443D02*
X018079Y006492D01*
X017982Y006492D01*
X017934Y006443D01*
X017934Y006250D01*
X017982Y006201D01*
X018079Y006201D01*
X018127Y006250D01*
X018994Y007187D02*
X018994Y007332D01*
X019042Y007381D01*
X019139Y007381D01*
X019187Y007332D01*
X019187Y007187D01*
X019284Y007187D02*
X018994Y007187D01*
X019042Y007482D02*
X019235Y007482D01*
X019284Y007530D01*
X019284Y007627D01*
X019235Y007675D01*
X019139Y007675D01*
X019139Y007579D01*
X019042Y007675D02*
X018994Y007627D01*
X018994Y007530D01*
X019042Y007482D01*
X018994Y007777D02*
X018994Y007922D01*
X019042Y007970D01*
X019235Y007970D01*
X019284Y007922D01*
X019284Y007777D01*
X018994Y007777D01*
X018994Y008237D02*
X018994Y008382D01*
X019042Y008431D01*
X019139Y008431D01*
X019187Y008382D01*
X019187Y008237D01*
X019284Y008237D02*
X018994Y008237D01*
X019042Y008532D02*
X019235Y008532D01*
X019284Y008580D01*
X019284Y008677D01*
X019235Y008725D01*
X019139Y008725D01*
X019139Y008629D01*
X019042Y008725D02*
X018994Y008677D01*
X018994Y008580D01*
X019042Y008532D01*
X019042Y008827D02*
X019235Y008827D01*
X019284Y008875D01*
X019284Y008972D01*
X019235Y009020D01*
X019042Y009020D02*
X018994Y008972D01*
X018994Y008875D01*
X019042Y008827D01*
X018114Y008715D02*
X018114Y008591D01*
X018052Y008530D01*
X018052Y008408D02*
X018114Y008346D01*
X018114Y008223D01*
X018052Y008161D01*
X017805Y008161D01*
X017744Y008223D01*
X017744Y008346D01*
X017805Y008408D01*
X017744Y008530D02*
X017929Y008530D01*
X017867Y008653D01*
X017867Y008715D01*
X017929Y008776D01*
X018052Y008776D01*
X018114Y008715D01*
X017744Y008776D02*
X017744Y008530D01*
X017644Y009435D02*
X017644Y009620D01*
X017705Y009682D01*
X017829Y009682D01*
X017890Y009620D01*
X017890Y009435D01*
X017890Y009558D02*
X018014Y009682D01*
X018014Y009803D02*
X017767Y010050D01*
X017705Y010050D01*
X017644Y009988D01*
X017644Y009865D01*
X017705Y009803D01*
X018014Y009803D02*
X018014Y010050D01*
X018014Y009435D02*
X017644Y009435D01*
X017014Y010521D02*
X016724Y010521D01*
X016724Y010666D01*
X016772Y010715D01*
X016820Y010715D01*
X016869Y010666D01*
X016869Y010521D01*
X017014Y010521D02*
X017014Y010666D01*
X016965Y010715D01*
X016917Y010715D01*
X016869Y010666D01*
X016820Y010816D02*
X016724Y010913D01*
X017014Y010913D01*
X017014Y011009D02*
X017014Y010816D01*
X017014Y011221D02*
X016820Y011221D01*
X016724Y011318D01*
X016820Y011415D01*
X017014Y011415D01*
X016965Y011516D02*
X017014Y011564D01*
X017014Y011661D01*
X016965Y011709D01*
X016869Y011709D01*
X016820Y011661D01*
X016820Y011613D01*
X016869Y011516D01*
X016724Y011516D01*
X016724Y011709D01*
X016869Y011415D02*
X016869Y011221D01*
X017308Y011801D02*
X017260Y011850D01*
X017308Y011801D02*
X017405Y011801D01*
X017453Y011850D01*
X017453Y011898D01*
X017405Y011946D01*
X017308Y011946D01*
X017260Y011995D01*
X017260Y012043D01*
X017308Y012092D01*
X017405Y012092D01*
X017453Y012043D01*
X017651Y012092D02*
X017748Y012092D01*
X017700Y012092D02*
X017700Y011850D01*
X017651Y011801D01*
X017603Y011801D01*
X017555Y011850D01*
X017849Y011801D02*
X018043Y011801D01*
X017946Y011801D02*
X017946Y012092D01*
X017849Y011995D01*
X018844Y011662D02*
X018844Y011371D01*
X019037Y011371D01*
X019138Y011371D02*
X019332Y011371D01*
X019433Y011371D02*
X019578Y011371D01*
X019627Y011420D01*
X019627Y011613D01*
X019578Y011662D01*
X019433Y011662D01*
X019433Y011371D01*
X019235Y011516D02*
X019138Y011516D01*
X019138Y011371D02*
X019138Y011662D01*
X019332Y011662D01*
X019728Y011613D02*
X019776Y011662D01*
X019873Y011662D01*
X019921Y011613D01*
X019921Y011565D01*
X019728Y011371D01*
X019921Y011371D01*
X017242Y013247D02*
X017173Y013179D01*
X017105Y013179D01*
X017105Y013316D02*
X017139Y013350D01*
X017208Y013350D01*
X017242Y013316D01*
X017242Y013247D01*
X017139Y013350D02*
X017139Y013418D01*
X017105Y013453D01*
X017036Y013453D01*
X016968Y013384D01*
X016968Y013316D01*
X016862Y013279D02*
X016794Y013210D01*
X016828Y013244D02*
X016999Y013073D01*
X016999Y013005D01*
X016965Y012971D01*
X016897Y012971D01*
X016825Y012899D02*
X016825Y012831D01*
X016757Y012762D01*
X016688Y012762D01*
X016654Y012865D02*
X016723Y012933D01*
X016791Y012933D01*
X016825Y012899D01*
X016654Y012865D02*
X016586Y012865D01*
X016551Y012899D01*
X016551Y012968D01*
X016620Y013036D01*
X016688Y013036D01*
X015322Y014412D02*
X015356Y014446D01*
X015356Y014515D01*
X015185Y014686D01*
X015151Y014652D02*
X015219Y014720D01*
X015325Y014757D02*
X015325Y014826D01*
X015393Y014894D01*
X015462Y014894D01*
X015496Y014860D01*
X015496Y014586D01*
X015633Y014723D01*
X015322Y014412D02*
X015253Y014412D01*
X015182Y014341D02*
X015182Y014272D01*
X015113Y014204D01*
X015045Y014204D01*
X015011Y014307D02*
X015079Y014375D01*
X015148Y014375D01*
X015182Y014341D01*
X015011Y014307D02*
X014942Y014307D01*
X014908Y014341D01*
X014908Y014409D01*
X014977Y014478D01*
X015045Y014478D01*
X015697Y015121D02*
X015821Y015368D01*
X015942Y015368D02*
X016066Y015492D01*
X016066Y015121D01*
X016189Y015121D02*
X015942Y015121D01*
X015697Y015121D02*
X015574Y015368D01*
X016310Y015183D02*
X016372Y015183D01*
X016372Y015121D01*
X016310Y015121D01*
X016310Y015183D01*
X016495Y015183D02*
X016741Y015430D01*
X016741Y015183D01*
X016680Y015121D01*
X016556Y015121D01*
X016495Y015183D01*
X016495Y015430D01*
X016556Y015492D01*
X016680Y015492D01*
X016741Y015430D01*
X015985Y017087D02*
X015792Y017087D01*
X015744Y017136D01*
X015744Y017232D01*
X015792Y017281D01*
X015889Y017281D02*
X015889Y017184D01*
X015889Y017281D02*
X015985Y017281D01*
X016034Y017232D01*
X016034Y017136D01*
X015985Y017087D01*
X016034Y017382D02*
X015744Y017382D01*
X016034Y017575D01*
X015744Y017575D01*
X015744Y017677D02*
X015744Y017822D01*
X015792Y017870D01*
X015985Y017870D01*
X016034Y017822D01*
X016034Y017677D01*
X015744Y017677D01*
X015034Y017677D02*
X015034Y017822D01*
X014985Y017870D01*
X014792Y017870D01*
X014744Y017822D01*
X014744Y017677D01*
X015034Y017677D01*
X014985Y017575D02*
X015034Y017527D01*
X015034Y017382D01*
X014744Y017382D01*
X014744Y017527D01*
X014792Y017575D01*
X014985Y017575D01*
X014937Y017281D02*
X014744Y017281D01*
X014937Y017281D02*
X015034Y017184D01*
X014937Y017087D01*
X014744Y017087D01*
X014111Y014742D02*
X014172Y014680D01*
X014172Y014618D01*
X014111Y014556D01*
X014172Y014495D01*
X014172Y014433D01*
X014111Y014371D01*
X013987Y014371D01*
X013926Y014433D01*
X013804Y014433D02*
X013742Y014371D01*
X013619Y014371D01*
X013557Y014433D01*
X013557Y014680D01*
X013619Y014742D01*
X013742Y014742D01*
X013804Y014680D01*
X013926Y014680D02*
X013987Y014742D01*
X014111Y014742D01*
X014111Y014556D02*
X014049Y014556D01*
X009109Y011280D02*
X009109Y011218D01*
X009047Y011156D01*
X009109Y011095D01*
X009109Y011033D01*
X009047Y010971D01*
X008924Y010971D01*
X008862Y011033D01*
X008741Y010971D02*
X008617Y011095D01*
X008679Y011095D02*
X008494Y011095D01*
X008494Y010971D02*
X008494Y011342D01*
X008679Y011342D01*
X008741Y011280D01*
X008741Y011156D01*
X008679Y011095D01*
X008862Y011280D02*
X008924Y011342D01*
X009047Y011342D01*
X009109Y011280D01*
X009047Y011156D02*
X008986Y011156D01*
X008209Y011156D02*
X007962Y011156D01*
X008147Y011342D01*
X008147Y010971D01*
X007841Y010971D02*
X007717Y011095D01*
X007779Y011095D02*
X007594Y011095D01*
X007594Y010971D02*
X007594Y011342D01*
X007779Y011342D01*
X007841Y011280D01*
X007841Y011156D01*
X007779Y011095D01*
X006859Y010721D02*
X006612Y010721D01*
X006491Y010721D02*
X006367Y010845D01*
X006429Y010845D02*
X006244Y010845D01*
X006244Y010721D02*
X006244Y011092D01*
X006429Y011092D01*
X006491Y011030D01*
X006491Y010906D01*
X006429Y010845D01*
X006612Y010968D02*
X006736Y011092D01*
X006736Y010721D01*
X006669Y009162D02*
X006545Y009162D01*
X006484Y009100D01*
X006362Y009100D02*
X006115Y008853D01*
X006177Y008791D01*
X006301Y008791D01*
X006362Y008853D01*
X006362Y009100D01*
X006301Y009162D01*
X006177Y009162D01*
X006115Y009100D01*
X006115Y008853D01*
X005994Y008976D02*
X005747Y008976D01*
X005626Y008791D02*
X005379Y008791D01*
X005257Y008791D02*
X005010Y008791D01*
X005134Y008791D02*
X005134Y009162D01*
X005010Y009038D01*
X004889Y009100D02*
X004889Y008853D01*
X004827Y008791D01*
X004704Y008791D01*
X004642Y008853D01*
X004889Y009100D01*
X004827Y009162D01*
X004704Y009162D01*
X004642Y009100D01*
X004642Y008853D01*
X004521Y008791D02*
X004274Y008791D01*
X004521Y009038D01*
X004521Y009100D01*
X004459Y009162D01*
X004336Y009162D01*
X004274Y009100D01*
X003477Y009433D02*
X003477Y009680D01*
X003416Y009742D01*
X003230Y009742D01*
X003230Y009371D01*
X003416Y009371D01*
X003477Y009433D01*
X003109Y009371D02*
X003109Y009742D01*
X002862Y009742D02*
X003109Y009371D01*
X002862Y009371D02*
X002862Y009742D01*
X002741Y009680D02*
X002679Y009742D01*
X002556Y009742D01*
X002494Y009680D01*
X002494Y009433D01*
X002556Y009371D01*
X002679Y009371D01*
X002741Y009433D01*
X002741Y009556D01*
X002617Y009556D01*
X002617Y011371D02*
X002741Y011495D01*
X002741Y011742D01*
X002862Y011742D02*
X003047Y011742D01*
X003109Y011680D01*
X003109Y011433D01*
X003047Y011371D01*
X002862Y011371D01*
X002862Y011742D01*
X002494Y011742D02*
X002494Y011495D01*
X002617Y011371D01*
X003230Y011371D02*
X003416Y011371D01*
X003477Y011433D01*
X003477Y011680D01*
X003416Y011742D01*
X003230Y011742D01*
X003230Y011371D01*
X003109Y012371D02*
X002862Y012742D01*
X002741Y012680D02*
X002741Y012556D01*
X002679Y012495D01*
X002494Y012495D01*
X002617Y012495D02*
X002741Y012371D01*
X002862Y012371D02*
X003109Y012742D01*
X002741Y012680D02*
X002679Y012742D01*
X002494Y012742D01*
X002494Y012371D01*
X002617Y013371D02*
X002617Y013742D01*
X002494Y013742D02*
X002741Y013742D01*
X002862Y013742D02*
X003109Y013371D01*
X002862Y013371D02*
X003109Y013742D01*
X002986Y014371D02*
X002986Y014742D01*
X003109Y014742D02*
X002862Y014742D01*
X002741Y014680D02*
X002741Y014556D01*
X002679Y014495D01*
X002494Y014495D01*
X002617Y014495D02*
X002741Y014371D01*
X002494Y014371D02*
X002494Y014742D01*
X002679Y014742D01*
X002741Y014680D01*
X003230Y014680D02*
X003230Y014618D01*
X003292Y014556D01*
X003416Y014556D01*
X003477Y014495D01*
X003477Y014433D01*
X003416Y014371D01*
X003292Y014371D01*
X003230Y014433D01*
X003230Y014680D02*
X003292Y014742D01*
X003416Y014742D01*
X003477Y014680D01*
X002697Y018021D02*
X002697Y018392D01*
X002512Y018206D01*
X002759Y018206D01*
X002391Y018083D02*
X002329Y018021D01*
X002206Y018021D01*
X002144Y018083D01*
X002144Y018330D01*
X002206Y018392D01*
X002329Y018392D01*
X002391Y018330D01*
X002312Y019671D02*
X002559Y019671D01*
X002680Y019733D02*
X002742Y019671D01*
X002866Y019671D01*
X002927Y019733D01*
X002927Y019795D01*
X002866Y019856D01*
X002742Y019856D01*
X002680Y019918D01*
X002680Y019980D01*
X002742Y020042D01*
X002866Y020042D01*
X002927Y019980D01*
X003049Y020042D02*
X003049Y019671D01*
X003296Y019671D01*
X003172Y019856D02*
X003049Y019856D01*
X003049Y020042D02*
X003296Y020042D01*
X003417Y020042D02*
X003664Y020042D01*
X003540Y020042D02*
X003540Y019671D01*
X004494Y018830D02*
X004494Y018768D01*
X004556Y018706D01*
X004679Y018706D01*
X004741Y018645D01*
X004741Y018583D01*
X004679Y018521D01*
X004556Y018521D01*
X004494Y018583D01*
X004494Y018830D02*
X004556Y018892D01*
X004679Y018892D01*
X004741Y018830D01*
X004862Y018768D02*
X004986Y018892D01*
X004986Y018521D01*
X005109Y018521D02*
X004862Y018521D01*
X002559Y020042D02*
X002312Y020042D01*
X002312Y019671D01*
X002191Y019671D02*
X002067Y019795D01*
X002129Y019795D02*
X001944Y019795D01*
X001944Y019671D02*
X001944Y020042D01*
X002129Y020042D01*
X002191Y019980D01*
X002191Y019856D01*
X002129Y019795D01*
X002312Y019856D02*
X002436Y019856D01*
X007544Y014092D02*
X007729Y014092D01*
X007791Y014030D01*
X007791Y013783D01*
X007729Y013721D01*
X007544Y013721D01*
X007544Y014092D01*
X007912Y013968D02*
X008036Y014092D01*
X008036Y013721D01*
X008159Y013721D02*
X007912Y013721D01*
X005120Y010590D02*
X005058Y010590D01*
X004812Y010836D01*
X004750Y010836D01*
X004750Y010590D01*
X004812Y010468D02*
X004750Y010406D01*
X004750Y010283D01*
X004812Y010221D01*
X005058Y010221D01*
X005120Y010283D01*
X005120Y010406D01*
X005058Y010468D01*
X005502Y009162D02*
X005502Y008791D01*
X005379Y009038D02*
X005502Y009162D01*
X006484Y008791D02*
X006731Y009038D01*
X006731Y009100D01*
X006669Y009162D01*
X006852Y008976D02*
X007099Y008976D01*
X007220Y009038D02*
X007344Y009162D01*
X007344Y008791D01*
X007467Y008791D02*
X007220Y008791D01*
X007589Y008853D02*
X007589Y009100D01*
X007650Y009162D01*
X007774Y009162D01*
X007835Y009100D01*
X007589Y008853D01*
X007650Y008791D01*
X007774Y008791D01*
X007835Y008853D01*
X007835Y009100D01*
X006731Y008791D02*
X006484Y008791D01*
X006510Y007092D02*
X006510Y006801D01*
X006703Y006801D01*
X006805Y006801D02*
X006950Y006801D01*
X006998Y006850D01*
X006998Y007043D01*
X006950Y007092D01*
X006805Y007092D01*
X006805Y006801D01*
X006607Y006946D02*
X006510Y006946D01*
X006510Y007092D02*
X006703Y007092D01*
X007099Y006995D02*
X007196Y007092D01*
X007196Y006801D01*
X007099Y006801D02*
X007293Y006801D01*
X006409Y006801D02*
X006215Y006801D01*
X006215Y007092D01*
X005794Y006706D02*
X005745Y006754D01*
X005649Y006754D01*
X005649Y006657D01*
X005745Y006561D02*
X005794Y006609D01*
X005794Y006706D01*
X005745Y006561D02*
X005552Y006561D01*
X005504Y006609D01*
X005504Y006706D01*
X005552Y006754D01*
X005504Y006459D02*
X005504Y006266D01*
X005794Y006266D01*
X005794Y006459D01*
X005649Y006363D02*
X005649Y006266D01*
X005649Y006165D02*
X005697Y006116D01*
X005697Y005971D01*
X005794Y005971D02*
X005504Y005971D01*
X005504Y006116D01*
X005552Y006165D01*
X005649Y006165D01*
X005697Y006068D02*
X005794Y006165D01*
X005745Y005388D02*
X005649Y005388D01*
X005649Y005291D01*
X005745Y005195D02*
X005552Y005195D01*
X005504Y005243D01*
X005504Y005340D01*
X005552Y005388D01*
X005745Y005388D02*
X005794Y005340D01*
X005794Y005243D01*
X005745Y005195D01*
X005794Y005093D02*
X005794Y004900D01*
X005504Y004900D01*
X005504Y005093D01*
X005649Y004997D02*
X005649Y004900D01*
X005649Y004799D02*
X005552Y004799D01*
X005504Y004750D01*
X005504Y004605D01*
X005794Y004605D01*
X005697Y004605D02*
X005697Y004750D01*
X005649Y004799D01*
X005697Y004702D02*
X005794Y004799D01*
X005649Y004504D02*
X005649Y004311D01*
X005745Y004209D02*
X005552Y004209D01*
X005504Y004161D01*
X005504Y004064D01*
X005552Y004016D01*
X005745Y004016D01*
X005794Y004064D01*
X005794Y004161D01*
X005745Y004209D01*
X005794Y003915D02*
X005504Y003915D01*
X005504Y003721D02*
X005794Y003915D01*
X005794Y003721D02*
X005504Y003721D01*
X006244Y003542D02*
X006244Y003171D01*
X006244Y003295D02*
X006429Y003295D01*
X006491Y003356D01*
X006491Y003480D01*
X006429Y003542D01*
X006244Y003542D01*
X006367Y003295D02*
X006491Y003171D01*
X006612Y003233D02*
X006674Y003171D01*
X006797Y003171D01*
X006859Y003233D01*
X006859Y003295D01*
X006797Y003356D01*
X006674Y003356D01*
X006612Y003418D01*
X006612Y003480D01*
X006674Y003542D01*
X006797Y003542D01*
X006859Y003480D01*
X006980Y003542D02*
X007227Y003542D01*
X007104Y003542D02*
X007104Y003171D01*
X007008Y004221D02*
X006762Y004221D01*
X006700Y004283D01*
X006700Y004406D01*
X006762Y004468D01*
X006762Y004590D02*
X006823Y004590D01*
X006885Y004651D01*
X006885Y004775D01*
X006947Y004836D01*
X007008Y004836D01*
X007070Y004775D01*
X007070Y004651D01*
X007008Y004590D01*
X006947Y004590D01*
X006885Y004651D01*
X006885Y004775D02*
X006823Y004836D01*
X006762Y004836D01*
X006700Y004775D01*
X006700Y004651D01*
X006762Y004590D01*
X007008Y004468D02*
X007070Y004406D01*
X007070Y004283D01*
X007008Y004221D01*
X008844Y005582D02*
X008844Y005727D01*
X008892Y005775D01*
X008989Y005775D01*
X009037Y005727D01*
X009037Y005582D01*
X009037Y005679D02*
X009134Y005775D01*
X009085Y005877D02*
X009134Y005925D01*
X009134Y006022D01*
X009085Y006070D01*
X008989Y006070D01*
X008940Y006022D01*
X008940Y005973D01*
X008989Y005877D01*
X008844Y005877D01*
X008844Y006070D01*
X008892Y006482D02*
X009085Y006482D01*
X009134Y006530D01*
X009134Y006627D01*
X009085Y006675D01*
X009085Y006777D02*
X008989Y006777D01*
X008989Y006922D01*
X009037Y006970D01*
X009085Y006970D01*
X009134Y006922D01*
X009134Y006825D01*
X009085Y006777D01*
X008989Y006777D02*
X008892Y006873D01*
X008844Y006970D01*
X008892Y006675D02*
X008844Y006627D01*
X008844Y006530D01*
X008892Y006482D01*
X008844Y005582D02*
X009134Y005582D01*
X011944Y007430D02*
X011992Y007382D01*
X012185Y007382D01*
X012234Y007430D01*
X012234Y007527D01*
X012185Y007575D01*
X012234Y007677D02*
X012234Y007870D01*
X012234Y007773D02*
X011944Y007773D01*
X012040Y007677D01*
X011992Y007575D02*
X011944Y007527D01*
X011944Y007430D01*
X013944Y007430D02*
X013992Y007382D01*
X014185Y007382D01*
X014234Y007430D01*
X014234Y007527D01*
X014185Y007575D01*
X014234Y007677D02*
X014040Y007870D01*
X013992Y007870D01*
X013944Y007822D01*
X013944Y007725D01*
X013992Y007677D01*
X013992Y007575D02*
X013944Y007527D01*
X013944Y007430D01*
X014234Y007677D02*
X014234Y007870D01*
X015513Y006492D02*
X015465Y006443D01*
X015465Y006250D01*
X015513Y006201D01*
X015610Y006201D01*
X015658Y006250D01*
X015759Y006250D02*
X015808Y006201D01*
X015904Y006201D01*
X015953Y006250D01*
X015953Y006443D01*
X015904Y006492D01*
X015808Y006492D01*
X015759Y006443D01*
X015759Y006395D01*
X015808Y006346D01*
X015953Y006346D01*
X015658Y006443D02*
X015610Y006492D01*
X015513Y006492D01*
X013965Y003954D02*
X013772Y003954D01*
X013724Y003906D01*
X013724Y003761D01*
X014014Y003761D01*
X014014Y003906D01*
X013965Y003954D01*
X014014Y003659D02*
X013724Y003659D01*
X013724Y003466D02*
X014014Y003659D01*
X014014Y003466D02*
X013724Y003466D01*
X013772Y003365D02*
X013724Y003316D01*
X013724Y003220D01*
X013772Y003171D01*
X013965Y003171D01*
X014014Y003220D01*
X014014Y003316D01*
X013965Y003365D01*
X013869Y003365D01*
X013869Y003268D01*
X005572Y002230D02*
X005511Y002292D01*
X005387Y002292D01*
X005326Y002230D01*
X005204Y002230D02*
X005142Y002292D01*
X004957Y002292D01*
X004957Y001921D01*
X005142Y001921D01*
X005204Y001983D01*
X005204Y002230D01*
X005326Y001921D02*
X005572Y002168D01*
X005572Y002230D01*
X005572Y001921D02*
X005326Y001921D01*
X004243Y003131D02*
X004243Y003422D01*
X004049Y003422D02*
X004243Y003131D01*
X004049Y003131D02*
X004049Y003422D01*
X003949Y003422D02*
X003853Y003422D01*
X003901Y003422D02*
X003901Y003131D01*
X003853Y003131D02*
X003949Y003131D01*
X003752Y003228D02*
X003752Y003422D01*
X003558Y003422D02*
X003558Y003228D01*
X003655Y003131D01*
X003752Y003228D01*
X003243Y003180D02*
X003243Y003373D01*
X003194Y003422D01*
X003049Y003422D01*
X003049Y003131D01*
X003194Y003131D01*
X003243Y003180D01*
X002948Y003131D02*
X002948Y003422D01*
X002755Y003422D02*
X002948Y003131D01*
X002755Y003131D02*
X002755Y003422D01*
X002653Y003373D02*
X002605Y003422D01*
X002508Y003422D01*
X002460Y003373D01*
X002460Y003180D01*
X002508Y003131D01*
X002605Y003131D01*
X002653Y003180D01*
X002653Y003276D01*
X002557Y003276D01*
X002544Y004021D02*
X002544Y004166D01*
X002592Y004215D01*
X002640Y004215D01*
X002689Y004166D01*
X002689Y004021D01*
X002834Y004021D02*
X002544Y004021D01*
X002689Y004166D02*
X002737Y004215D01*
X002785Y004215D01*
X002834Y004166D01*
X002834Y004021D01*
X002834Y004316D02*
X002640Y004316D01*
X002544Y004413D01*
X002640Y004509D01*
X002834Y004509D01*
X002689Y004509D02*
X002689Y004316D01*
X002544Y004611D02*
X002544Y004804D01*
X002544Y004707D02*
X002834Y004707D01*
X002834Y005002D02*
X002544Y005002D01*
X002544Y004905D02*
X002544Y005099D01*
X002572Y005821D02*
X002620Y005821D01*
X002669Y005870D01*
X002669Y005966D01*
X002717Y006015D01*
X002765Y006015D01*
X002814Y005966D01*
X002814Y005870D01*
X002765Y005821D01*
X002572Y005821D02*
X002524Y005870D01*
X002524Y005966D01*
X002572Y006015D01*
X002524Y006116D02*
X002814Y006116D01*
X002814Y006309D01*
X002814Y006411D02*
X002524Y006411D01*
X002524Y006556D01*
X002572Y006604D01*
X002669Y006604D01*
X002717Y006556D01*
X002717Y006411D01*
X002717Y006507D02*
X002814Y006604D01*
X002814Y006705D02*
X002814Y006802D01*
X002814Y006754D02*
X002524Y006754D01*
X002524Y006802D02*
X002524Y006705D01*
X002620Y006902D02*
X002524Y006998D01*
X002620Y007095D01*
X002814Y007095D01*
X002814Y007196D02*
X002814Y007390D01*
X002814Y007196D02*
X002524Y007196D01*
X002669Y007095D02*
X002669Y006902D01*
X002620Y006902D02*
X002814Y006902D01*
X002524Y006309D02*
X002524Y006116D01*
X002669Y006116D02*
X002669Y006213D01*
X004004Y006261D02*
X004004Y006406D01*
X004052Y006454D01*
X004100Y006454D01*
X004149Y006406D01*
X004149Y006261D01*
X004197Y006159D02*
X004245Y006159D01*
X004294Y006111D01*
X004294Y006014D01*
X004245Y005966D01*
X004245Y005865D02*
X004004Y005865D01*
X004052Y005966D02*
X004100Y005966D01*
X004149Y006014D01*
X004149Y006111D01*
X004197Y006159D01*
X004294Y006261D02*
X004294Y006406D01*
X004245Y006454D01*
X004197Y006454D01*
X004149Y006406D01*
X004294Y006261D02*
X004004Y006261D01*
X004052Y006159D02*
X004004Y006111D01*
X004004Y006014D01*
X004052Y005966D01*
X004245Y005865D02*
X004294Y005816D01*
X004294Y005720D01*
X004245Y005671D01*
X004004Y005671D01*
X004004Y005249D02*
X004004Y005055D01*
X004004Y005152D02*
X004294Y005152D01*
X004294Y004857D02*
X004004Y004857D01*
X004004Y004761D02*
X004004Y004954D01*
X004100Y004659D02*
X004294Y004659D01*
X004149Y004659D02*
X004149Y004466D01*
X004100Y004466D02*
X004004Y004563D01*
X004100Y004659D01*
X004100Y004466D02*
X004294Y004466D01*
X004245Y004365D02*
X004294Y004316D01*
X004294Y004171D01*
X004004Y004171D01*
X004004Y004316D01*
X004052Y004365D01*
X004100Y004365D01*
X004149Y004316D01*
X004149Y004171D01*
X004149Y004316D02*
X004197Y004365D01*
X004245Y004365D01*
D51*
X004129Y003056D02*
X003629Y003056D01*
X003379Y002806D01*
X003129Y003056D01*
X002629Y003056D01*
X002379Y002806D01*
X002129Y003056D01*
X001629Y003056D01*
X001379Y002806D01*
X001379Y002306D01*
X001629Y002056D01*
X002129Y002056D01*
X002379Y002306D01*
X002629Y002056D01*
X003129Y002056D01*
X003379Y002306D01*
X003629Y002056D01*
X004129Y002056D01*
X004379Y002306D01*
X004379Y002806D01*
X004129Y003056D01*
X004808Y003062D02*
X004985Y003062D01*
X004808Y003062D02*
X004808Y001251D01*
X004985Y001251D01*
X004379Y001306D02*
X004379Y001806D01*
X004129Y002056D01*
X003629Y002056D01*
X003379Y001806D01*
X003129Y002056D01*
X002629Y002056D01*
X002379Y001806D01*
X002129Y002056D01*
X001629Y002056D01*
X001379Y001806D01*
X001379Y001306D01*
X001629Y001056D01*
X002129Y001056D01*
X002379Y001306D01*
X002629Y001056D01*
X003129Y001056D01*
X003379Y001306D01*
X003629Y001056D01*
X004129Y001056D01*
X004379Y001306D01*
X004985Y002550D02*
X005773Y002550D01*
X005773Y003062D02*
X005950Y003062D01*
X005950Y001251D01*
X005773Y001251D01*
X006379Y001306D02*
X006379Y001806D01*
X006629Y002056D01*
X007129Y002056D01*
X007379Y001806D01*
X007629Y002056D01*
X008129Y002056D01*
X008379Y001806D01*
X008629Y002056D01*
X009129Y002056D01*
X009379Y001806D01*
X009629Y002056D01*
X010129Y002056D01*
X010379Y001806D01*
X010629Y002056D01*
X011129Y002056D01*
X011379Y001806D01*
X011629Y002056D01*
X012129Y002056D01*
X012379Y001806D01*
X012629Y002056D01*
X013129Y002056D01*
X013379Y001806D01*
X013629Y002056D01*
X014129Y002056D01*
X014379Y001806D01*
X014629Y002056D01*
X015129Y002056D01*
X015379Y001806D01*
X015629Y002056D01*
X016129Y002056D01*
X016379Y001806D01*
X016629Y002056D01*
X017129Y002056D01*
X017379Y001806D01*
X017629Y002056D01*
X018129Y002056D01*
X018379Y001806D01*
X018629Y002056D01*
X019129Y002056D01*
X019379Y001806D01*
X019629Y002056D01*
X020129Y002056D01*
X020379Y001806D01*
X020379Y001306D01*
X020129Y001056D01*
X019629Y001056D01*
X019379Y001306D01*
X019129Y001056D01*
X018629Y001056D01*
X018379Y001306D01*
X018129Y001056D01*
X017629Y001056D01*
X017379Y001306D01*
X017129Y001056D01*
X016629Y001056D01*
X016379Y001306D01*
X016129Y001056D01*
X015629Y001056D01*
X015379Y001306D01*
X015129Y001056D01*
X014629Y001056D01*
X014379Y001306D01*
X014129Y001056D01*
X013629Y001056D01*
X013379Y001306D01*
X013129Y001056D01*
X012629Y001056D01*
X012379Y001306D01*
X012129Y001056D01*
X011629Y001056D01*
X011379Y001306D01*
X011129Y001056D01*
X010629Y001056D01*
X010379Y001306D01*
X010129Y001056D01*
X009629Y001056D01*
X009379Y001306D01*
X009129Y001056D01*
X008629Y001056D01*
X008379Y001306D01*
X008129Y001056D01*
X007629Y001056D01*
X007379Y001306D01*
X007129Y001056D01*
X006629Y001056D01*
X006379Y001306D01*
X006629Y002056D02*
X007129Y002056D01*
X007379Y002306D01*
X007629Y002056D01*
X008129Y002056D01*
X008379Y002306D01*
X008629Y002056D01*
X009129Y002056D01*
X009379Y002306D01*
X009629Y002056D01*
X010129Y002056D01*
X010379Y002306D01*
X010629Y002056D01*
X011129Y002056D01*
X011379Y002306D01*
X011629Y002056D01*
X012129Y002056D01*
X012379Y002306D01*
X012629Y002056D01*
X013129Y002056D01*
X013379Y002306D01*
X013629Y002056D01*
X014129Y002056D01*
X014379Y002306D01*
X014629Y002056D01*
X015129Y002056D01*
X015379Y002306D01*
X015629Y002056D01*
X016129Y002056D01*
X016379Y002306D01*
X016629Y002056D01*
X017129Y002056D01*
X017379Y002306D01*
X017629Y002056D01*
X018129Y002056D01*
X018379Y002306D01*
X018629Y002056D01*
X019129Y002056D01*
X019379Y002306D01*
X019629Y002056D01*
X020129Y002056D01*
X020379Y002306D01*
X020379Y002806D01*
X020129Y003056D01*
X019629Y003056D01*
X019379Y002806D01*
X019129Y003056D01*
X018629Y003056D01*
X018379Y002806D01*
X018129Y003056D01*
X017629Y003056D01*
X017379Y002806D01*
X017129Y003056D01*
X016629Y003056D01*
X016379Y002806D01*
X016129Y003056D01*
X015629Y003056D01*
X015379Y002806D01*
X015129Y003056D01*
X014629Y003056D01*
X014379Y002806D01*
X014129Y003056D01*
X013629Y003056D01*
X013379Y002806D01*
X013129Y003056D01*
X012629Y003056D01*
X012379Y002806D01*
X012129Y003056D01*
X011629Y003056D01*
X011379Y002806D01*
X011129Y003056D01*
X010629Y003056D01*
X010379Y002806D01*
X010129Y003056D01*
X009629Y003056D01*
X009379Y002806D01*
X009129Y003056D01*
X008629Y003056D01*
X008379Y002806D01*
X008129Y003056D01*
X007629Y003056D01*
X007379Y002806D01*
X007129Y003056D01*
X006629Y003056D01*
X006379Y002806D01*
X006379Y002306D01*
X006629Y002056D01*
X006574Y003926D02*
X005905Y003926D01*
X005905Y005167D01*
X006574Y005167D01*
X007169Y005072D02*
X007169Y004050D01*
X007323Y003946D02*
X007795Y003946D01*
X007952Y004084D01*
X007952Y005048D01*
X007795Y005167D01*
X007323Y005167D01*
X007795Y005167D01*
X007774Y005863D02*
X007223Y005863D01*
X006947Y005981D02*
X006947Y006256D01*
X006711Y006020D01*
X006711Y006493D01*
X006947Y006256D01*
X006947Y006532D01*
X007223Y006650D02*
X007774Y006650D01*
X007774Y005863D01*
X006435Y005863D02*
X005884Y005863D01*
X005884Y006650D01*
X006435Y006650D01*
X005852Y009896D02*
X005183Y009896D01*
X004589Y009990D02*
X004589Y011013D01*
X004435Y011117D02*
X003963Y011117D01*
X003805Y010979D01*
X003805Y010014D01*
X003963Y009896D01*
X004435Y009896D01*
X003963Y009896D01*
X005183Y011136D02*
X005852Y011136D01*
X005852Y009896D01*
X002639Y007335D02*
X000149Y009825D01*
X000149Y014372D01*
X002639Y016863D01*
X010936Y016863D01*
X011129Y018056D02*
X010629Y018056D01*
X010379Y018306D01*
X010129Y018056D01*
X009629Y018056D01*
X009379Y018306D01*
X009129Y018056D01*
X008629Y018056D01*
X008379Y018306D01*
X008129Y018056D01*
X007629Y018056D01*
X007379Y018306D01*
X007129Y018056D01*
X006629Y018056D01*
X006379Y018306D01*
X006379Y018806D01*
X006629Y019056D01*
X007129Y019056D01*
X007379Y018806D01*
X007629Y019056D01*
X008129Y019056D01*
X008379Y018806D01*
X008629Y019056D01*
X009129Y019056D01*
X009379Y018806D01*
X009629Y019056D01*
X010129Y019056D01*
X010379Y018806D01*
X010629Y019056D01*
X011129Y019056D01*
X011379Y018806D01*
X011629Y019056D01*
X012129Y019056D01*
X012379Y018806D01*
X012629Y019056D01*
X013129Y019056D01*
X013379Y018806D01*
X013629Y019056D01*
X014129Y019056D01*
X014379Y018806D01*
X014629Y019056D01*
X015129Y019056D01*
X015379Y018806D01*
X015629Y019056D01*
X016129Y019056D01*
X016379Y018806D01*
X016629Y019056D01*
X017129Y019056D01*
X017379Y018806D01*
X017629Y019056D01*
X018129Y019056D01*
X018379Y018806D01*
X018629Y019056D01*
X019129Y019056D01*
X019379Y018806D01*
X019629Y019056D01*
X020129Y019056D01*
X020379Y018806D01*
X020379Y018306D01*
X020129Y018056D01*
X019629Y018056D01*
X019379Y018306D01*
X019129Y018056D01*
X018629Y018056D01*
X018379Y018306D01*
X018129Y018056D01*
X017629Y018056D01*
X017379Y018306D01*
X017129Y018056D01*
X016629Y018056D01*
X016379Y018306D01*
X016129Y018056D01*
X015629Y018056D01*
X015379Y018306D01*
X015129Y018056D01*
X014629Y018056D01*
X014379Y018306D01*
X014129Y018056D01*
X013629Y018056D01*
X013379Y018306D01*
X013129Y018056D01*
X012629Y018056D01*
X012379Y018306D01*
X012129Y018056D01*
X011629Y018056D01*
X011379Y018306D01*
X011129Y018056D01*
X011129Y019056D02*
X010629Y019056D01*
X010379Y019306D01*
X010129Y019056D01*
X009629Y019056D01*
X009379Y019306D01*
X009129Y019056D01*
X008629Y019056D01*
X008379Y019306D01*
X008129Y019056D01*
X007629Y019056D01*
X007379Y019306D01*
X007129Y019056D01*
X006629Y019056D01*
X006379Y019306D01*
X006379Y019806D01*
X006629Y020056D01*
X007129Y020056D01*
X007379Y019806D01*
X007629Y020056D01*
X008129Y020056D01*
X008379Y019806D01*
X008629Y020056D01*
X009129Y020056D01*
X009379Y019806D01*
X009629Y020056D01*
X010129Y020056D01*
X010379Y019806D01*
X010629Y020056D01*
X011129Y020056D01*
X011379Y019806D01*
X011629Y020056D01*
X012129Y020056D01*
X012379Y019806D01*
X012629Y020056D01*
X013129Y020056D01*
X013379Y019806D01*
X013629Y020056D01*
X014129Y020056D01*
X014379Y019806D01*
X014629Y020056D01*
X015129Y020056D01*
X015379Y019806D01*
X015629Y020056D01*
X016129Y020056D01*
X016379Y019806D01*
X016629Y020056D01*
X017129Y020056D01*
X017379Y019806D01*
X017629Y020056D01*
X018129Y020056D01*
X018379Y019806D01*
X018629Y020056D01*
X019129Y020056D01*
X019379Y019806D01*
X019629Y020056D01*
X020129Y020056D01*
X020379Y019806D01*
X020379Y019306D01*
X020129Y019056D01*
X019629Y019056D01*
X019379Y019306D01*
X019129Y019056D01*
X018629Y019056D01*
X018379Y019306D01*
X018129Y019056D01*
X017629Y019056D01*
X017379Y019306D01*
X017129Y019056D01*
X016629Y019056D01*
X016379Y019306D01*
X016129Y019056D01*
X015629Y019056D01*
X015379Y019306D01*
X015129Y019056D01*
X014629Y019056D01*
X014379Y019306D01*
X014129Y019056D01*
X013629Y019056D01*
X013379Y019306D01*
X013129Y019056D01*
X012629Y019056D01*
X012379Y019306D01*
X012129Y019056D01*
X011629Y019056D01*
X011379Y019306D01*
X011129Y019056D01*
X015834Y014657D02*
X016280Y014212D01*
X016279Y014211D02*
X016288Y014196D01*
X016293Y014180D01*
X016296Y014162D01*
X016295Y014145D01*
X016292Y014128D01*
X016286Y014112D01*
X016277Y014097D01*
X016265Y014084D01*
X016251Y014073D01*
X016346Y013979D02*
X016357Y013993D01*
X016370Y014005D01*
X016385Y014014D01*
X016401Y014020D01*
X016418Y014023D01*
X016435Y014024D01*
X016453Y014021D01*
X016469Y014016D01*
X016484Y014007D01*
X016930Y013562D01*
X016929Y013561D02*
X016938Y013546D01*
X016943Y013530D01*
X016946Y013512D01*
X016945Y013495D01*
X016942Y013478D01*
X016936Y013462D01*
X016927Y013447D01*
X016915Y013434D01*
X016901Y013423D01*
X016512Y013034D02*
X016501Y013020D01*
X016488Y013008D01*
X016473Y012999D01*
X016457Y012993D01*
X016440Y012990D01*
X016423Y012989D01*
X016405Y012992D01*
X016389Y012997D01*
X016374Y013006D01*
X016373Y013005D02*
X015928Y013451D01*
X015919Y013466D01*
X015914Y013482D01*
X015911Y013500D01*
X015912Y013517D01*
X015915Y013534D01*
X015921Y013550D01*
X015930Y013565D01*
X015942Y013578D01*
X015956Y013589D01*
X015862Y013684D02*
X015851Y013670D01*
X015838Y013658D01*
X015823Y013649D01*
X015807Y013643D01*
X015790Y013640D01*
X015773Y013639D01*
X015755Y013642D01*
X015739Y013647D01*
X015724Y013656D01*
X015723Y013655D02*
X015278Y014101D01*
X015269Y014116D01*
X015264Y014132D01*
X015261Y014150D01*
X015262Y014167D01*
X015265Y014184D01*
X015271Y014200D01*
X015280Y014215D01*
X015292Y014228D01*
X015306Y014239D01*
X015696Y014629D02*
X015707Y014643D01*
X015720Y014655D01*
X015735Y014664D01*
X015751Y014670D01*
X015768Y014673D01*
X015785Y014674D01*
X015803Y014671D01*
X015819Y014666D01*
X015834Y014657D01*
X017480Y015522D02*
X017480Y015877D01*
X018464Y016152D02*
X019291Y016152D01*
X017480Y013790D02*
X017480Y013436D01*
X018464Y013160D02*
X019291Y013160D01*
X019035Y011200D02*
X018484Y011200D01*
X018484Y010413D01*
X019035Y010413D01*
X019311Y010570D02*
X019547Y010806D01*
X019311Y011043D01*
X019311Y010570D01*
X019547Y010531D02*
X019547Y010806D01*
X019547Y011082D01*
X019823Y011200D02*
X020374Y011200D01*
X020374Y010413D01*
X019823Y010413D01*
X019629Y010056D02*
X020129Y010056D01*
X020379Y009806D01*
X020379Y009306D01*
X020129Y009056D01*
X020379Y008806D01*
X020379Y008306D01*
X020129Y008056D01*
X020379Y007806D01*
X020379Y007306D01*
X020129Y007056D01*
X020379Y006806D01*
X020379Y006306D01*
X020129Y006056D01*
X020379Y005806D01*
X020379Y005306D01*
X020129Y005056D01*
X020379Y004806D01*
X020379Y004306D01*
X020129Y004056D01*
X019629Y004056D01*
X019379Y004306D01*
X019379Y004806D01*
X019629Y005056D01*
X019379Y005306D01*
X019379Y005806D01*
X019629Y006056D01*
X019379Y006306D01*
X019379Y006806D01*
X019629Y007056D01*
X019379Y007306D01*
X019379Y007806D01*
X019629Y008056D01*
X019379Y008306D01*
X019379Y008806D01*
X019629Y009056D01*
X019379Y009306D01*
X019379Y009806D01*
X019629Y010056D01*
X010936Y007335D02*
X002639Y007335D01*
X002429Y007356D02*
X002179Y007606D01*
X001679Y007606D01*
X001429Y007356D01*
X001429Y006856D01*
X001679Y006606D01*
X001429Y006356D01*
X001429Y005856D01*
X001679Y005606D01*
X002179Y005606D01*
X002429Y005856D01*
X002429Y006356D01*
X002179Y006606D01*
X002429Y006856D01*
X002429Y007356D01*
X002129Y009106D02*
X001629Y009106D01*
X001379Y009356D01*
X001379Y009856D01*
X001629Y010106D01*
X001379Y010356D01*
X001379Y010856D01*
X001629Y011106D01*
X001379Y011356D01*
X001379Y011856D01*
X001629Y012106D01*
X001379Y012356D01*
X001379Y012856D01*
X001629Y013106D01*
X001379Y013356D01*
X001379Y013856D01*
X001629Y014106D01*
X001379Y014356D01*
X001379Y014856D01*
X001629Y015106D01*
X002129Y015106D01*
X002379Y014856D01*
X002379Y014356D01*
X002129Y014106D01*
X002379Y013856D01*
X002379Y013356D01*
X002129Y013106D01*
X002379Y012856D01*
X002379Y012356D01*
X002129Y012106D01*
X002379Y011856D01*
X002379Y011356D01*
X002129Y011106D01*
X002379Y010856D01*
X002379Y010356D01*
X002129Y010106D01*
X002379Y009856D01*
X002379Y009356D01*
X002129Y009106D01*
X001178Y004260D02*
X001178Y003646D01*
X004173Y017706D02*
X005385Y017706D01*
X005779Y018218D02*
X005779Y019194D01*
X005385Y019706D02*
X004173Y019706D01*
X003779Y019206D02*
X003779Y018218D01*
X004279Y018706D02*
X004281Y018750D01*
X004287Y018794D01*
X004297Y018837D01*
X004310Y018879D01*
X004327Y018920D01*
X004348Y018959D01*
X004372Y018996D01*
X004399Y019031D01*
X004429Y019063D01*
X004462Y019093D01*
X004498Y019119D01*
X004535Y019143D01*
X004575Y019162D01*
X004616Y019179D01*
X004659Y019191D01*
X004702Y019200D01*
X004746Y019205D01*
X004790Y019206D01*
X004834Y019203D01*
X004878Y019196D01*
X004921Y019185D01*
X004963Y019171D01*
X005003Y019153D01*
X005042Y019131D01*
X005078Y019107D01*
X005112Y019079D01*
X005144Y019048D01*
X005173Y019014D01*
X005199Y018978D01*
X005221Y018940D01*
X005240Y018900D01*
X005255Y018858D01*
X005267Y018816D01*
X005275Y018772D01*
X005279Y018728D01*
X005279Y018684D01*
X005275Y018640D01*
X005267Y018596D01*
X005255Y018554D01*
X005240Y018512D01*
X005221Y018472D01*
X005199Y018434D01*
X005173Y018398D01*
X005144Y018364D01*
X005112Y018333D01*
X005078Y018305D01*
X005042Y018281D01*
X005003Y018259D01*
X004963Y018241D01*
X004921Y018227D01*
X004878Y018216D01*
X004834Y018209D01*
X004790Y018206D01*
X004746Y018207D01*
X004702Y018212D01*
X004659Y018221D01*
X004616Y018233D01*
X004575Y018250D01*
X004535Y018269D01*
X004498Y018293D01*
X004462Y018319D01*
X004429Y018349D01*
X004399Y018381D01*
X004372Y018416D01*
X004348Y018453D01*
X004327Y018492D01*
X004310Y018533D01*
X004297Y018575D01*
X004287Y018618D01*
X004281Y018662D01*
X004279Y018706D01*
D52*
X002866Y019180D02*
X002092Y019180D01*
X002092Y017233D01*
X002866Y017233D01*
X002866Y019180D01*
X007295Y015027D02*
X008463Y015027D01*
X008463Y012686D01*
X007295Y012686D01*
X007295Y015027D01*
X007542Y012130D02*
X008316Y012130D01*
X008316Y010183D01*
X007542Y010183D01*
X007542Y012130D01*
X006966Y011880D02*
X006192Y011880D01*
X006192Y009933D01*
X006966Y009933D01*
X006966Y011880D01*
X008442Y012130D02*
X009216Y012130D01*
X009216Y010183D01*
X008442Y010183D01*
X008442Y012130D01*
X011105Y008043D02*
X011105Y007269D01*
X013052Y007269D01*
X013052Y008043D01*
X011105Y008043D01*
X009952Y007193D02*
X009952Y006419D01*
X008005Y006419D01*
X008005Y007193D01*
X009952Y007193D01*
X009952Y006293D02*
X009952Y005519D01*
X008005Y005519D01*
X008005Y006293D01*
X009952Y006293D01*
X013105Y007269D02*
X013105Y008043D01*
X015052Y008043D01*
X015052Y007269D01*
X013105Y007269D01*
X015442Y007320D02*
X015442Y005373D01*
X016216Y005373D01*
X016216Y007320D01*
X015442Y007320D01*
X016945Y008119D02*
X016945Y008893D01*
X018892Y008893D01*
X018892Y008119D01*
X016945Y008119D01*
X017962Y007320D02*
X018736Y007320D01*
X018736Y005373D01*
X017962Y005373D01*
X017962Y007320D01*
X018802Y009419D02*
X016855Y009419D01*
X016855Y010193D01*
X018802Y010193D01*
X018802Y009419D01*
X014316Y013583D02*
X013542Y013583D01*
X013542Y015530D01*
X014316Y015530D01*
X014316Y013583D01*
X002078Y003300D02*
X002078Y003153D01*
X002041Y003116D01*
X001931Y003116D01*
X001931Y003336D01*
X002041Y003336D01*
X002078Y003300D01*
X001857Y003300D02*
X001857Y003153D01*
X001820Y003116D01*
X001710Y003116D01*
X001710Y003336D01*
X001820Y003336D01*
X001857Y003300D01*
X001636Y003336D02*
X001636Y003190D01*
X001562Y003116D01*
X001489Y003190D01*
X001489Y003336D01*
D53*
X007329Y015006D02*
X008429Y015006D01*
X017129Y011506D02*
X017129Y011206D01*
X017129Y011006D02*
X017129Y010706D01*
D54*
X017279Y007206D02*
X017279Y007006D01*
X016879Y007056D02*
X016879Y007206D01*
X014129Y006956D02*
X011729Y006956D01*
X011672Y006954D01*
X011616Y006948D01*
X011560Y006939D01*
X011504Y006926D01*
X011450Y006909D01*
X011397Y006889D01*
X011346Y006865D01*
X011296Y006837D01*
X011248Y006807D01*
X011202Y006773D01*
X011159Y006736D01*
X011118Y006697D01*
X011080Y006655D01*
X011045Y006610D01*
X011013Y006563D01*
X010984Y006514D01*
X010958Y006464D01*
X010936Y006411D01*
X010917Y006358D01*
X010902Y006303D01*
X010891Y006247D01*
X010883Y006191D01*
X010879Y006134D01*
X010879Y006078D01*
X010883Y006021D01*
X010891Y005965D01*
X010902Y005909D01*
X010917Y005854D01*
X010936Y005801D01*
X010958Y005748D01*
X010984Y005698D01*
X011013Y005649D01*
X011045Y005602D01*
X011080Y005557D01*
X011118Y005515D01*
X011159Y005476D01*
X011202Y005439D01*
X011248Y005405D01*
X011296Y005375D01*
X011346Y005347D01*
X011397Y005323D01*
X011450Y005303D01*
X011504Y005286D01*
X011560Y005273D01*
X011616Y005264D01*
X011672Y005258D01*
X011729Y005256D01*
X014129Y005256D01*
X014186Y005258D01*
X014242Y005264D01*
X014298Y005273D01*
X014354Y005286D01*
X014408Y005303D01*
X014461Y005323D01*
X014512Y005347D01*
X014562Y005375D01*
X014610Y005405D01*
X014656Y005439D01*
X014699Y005476D01*
X014740Y005515D01*
X014778Y005557D01*
X014813Y005602D01*
X014845Y005649D01*
X014874Y005698D01*
X014900Y005748D01*
X014922Y005801D01*
X014941Y005854D01*
X014956Y005909D01*
X014967Y005965D01*
X014975Y006021D01*
X014979Y006078D01*
X014979Y006134D01*
X014975Y006191D01*
X014967Y006247D01*
X014956Y006303D01*
X014941Y006358D01*
X014922Y006411D01*
X014900Y006464D01*
X014874Y006514D01*
X014845Y006563D01*
X014813Y006610D01*
X014778Y006655D01*
X014740Y006697D01*
X014699Y006736D01*
X014656Y006773D01*
X014610Y006807D01*
X014562Y006837D01*
X014512Y006865D01*
X014461Y006889D01*
X014408Y006909D01*
X014354Y006926D01*
X014298Y006939D01*
X014242Y006948D01*
X014186Y006954D01*
X014129Y006956D01*
D55*
X014129Y006756D02*
X011729Y006756D01*
X011679Y006754D01*
X011630Y006748D01*
X011581Y006739D01*
X011533Y006726D01*
X011486Y006709D01*
X011441Y006689D01*
X011397Y006665D01*
X011355Y006638D01*
X011315Y006607D01*
X011278Y006574D01*
X011244Y006538D01*
X011212Y006500D01*
X011183Y006459D01*
X011158Y006417D01*
X011136Y006372D01*
X011117Y006326D01*
X011102Y006278D01*
X011091Y006230D01*
X011083Y006181D01*
X011079Y006131D01*
X011079Y006081D01*
X011083Y006031D01*
X011091Y005982D01*
X011102Y005934D01*
X011117Y005886D01*
X011136Y005840D01*
X011158Y005795D01*
X011183Y005753D01*
X011212Y005712D01*
X011244Y005674D01*
X011278Y005638D01*
X011315Y005605D01*
X011355Y005574D01*
X011397Y005547D01*
X011441Y005523D01*
X011486Y005503D01*
X011533Y005486D01*
X011581Y005473D01*
X011630Y005464D01*
X011679Y005458D01*
X011729Y005456D01*
X014129Y005456D01*
X014179Y005458D01*
X014228Y005464D01*
X014277Y005473D01*
X014325Y005486D01*
X014372Y005503D01*
X014417Y005523D01*
X014461Y005547D01*
X014503Y005574D01*
X014543Y005605D01*
X014580Y005638D01*
X014614Y005674D01*
X014646Y005712D01*
X014675Y005753D01*
X014700Y005795D01*
X014722Y005840D01*
X014741Y005886D01*
X014756Y005934D01*
X014767Y005982D01*
X014775Y006031D01*
X014779Y006081D01*
X014779Y006131D01*
X014775Y006181D01*
X014767Y006230D01*
X014756Y006278D01*
X014741Y006326D01*
X014722Y006372D01*
X014700Y006417D01*
X014675Y006459D01*
X014646Y006500D01*
X014614Y006538D01*
X014580Y006574D01*
X014543Y006607D01*
X014503Y006638D01*
X014461Y006665D01*
X014417Y006689D01*
X014372Y006709D01*
X014325Y006726D01*
X014277Y006739D01*
X014228Y006748D01*
X014179Y006754D01*
X014129Y006756D01*
X013429Y006106D02*
X013179Y006106D01*
X013179Y006406D01*
X013029Y006406D02*
X013029Y005806D01*
X012829Y005806D01*
X012829Y006406D01*
X013029Y006406D01*
X012679Y006406D02*
X012679Y006106D01*
X012429Y006106D01*
X012679Y006106D02*
X012679Y005806D01*
X013179Y005806D02*
X013179Y006106D01*
X016679Y006706D02*
X016679Y004556D01*
X016681Y004539D01*
X016685Y004522D01*
X016692Y004506D01*
X016702Y004492D01*
X016715Y004479D01*
X016729Y004469D01*
X016745Y004462D01*
X016762Y004458D01*
X016779Y004456D01*
X017379Y004456D01*
X017396Y004458D01*
X017413Y004462D01*
X017429Y004469D01*
X017443Y004479D01*
X017456Y004492D01*
X017466Y004506D01*
X017473Y004522D01*
X017477Y004539D01*
X017479Y004556D01*
X017479Y006706D01*
X017429Y006706D01*
X016729Y006706D01*
X016679Y006706D01*
X016729Y006706D02*
X016729Y006856D01*
X017429Y006856D01*
X017429Y006706D01*
X017079Y006056D02*
X017079Y005856D01*
X016879Y005856D01*
X016879Y005706D02*
X016879Y005556D01*
X017279Y005556D01*
X017279Y005706D01*
X016879Y005706D01*
X017079Y005856D02*
X017279Y005856D01*
X017279Y005406D02*
X017079Y005406D01*
X016879Y005406D01*
X017079Y005406D02*
X017079Y005206D01*
X016509Y009144D02*
X016509Y012068D01*
X009559Y012068D01*
X009559Y009144D01*
X016509Y009144D01*
X017429Y010506D02*
X018029Y010506D01*
X018046Y010508D01*
X018063Y010512D01*
X018079Y010519D01*
X018093Y010529D01*
X018106Y010542D01*
X018116Y010556D01*
X018123Y010572D01*
X018127Y010589D01*
X018129Y010606D01*
X018129Y011606D01*
X018127Y011623D01*
X018123Y011640D01*
X018116Y011656D01*
X018106Y011670D01*
X018093Y011683D01*
X018079Y011693D01*
X018063Y011700D01*
X018046Y011704D01*
X018029Y011706D01*
X017429Y011706D01*
X017412Y011704D01*
X017395Y011700D01*
X017379Y011693D01*
X017365Y011683D01*
X017352Y011670D01*
X017342Y011656D01*
X017335Y011640D01*
X017331Y011623D01*
X017329Y011606D01*
X017329Y010606D01*
X017331Y010589D01*
X017335Y010572D01*
X017342Y010556D01*
X017352Y010542D01*
X017365Y010529D01*
X017379Y010519D01*
X017395Y010512D01*
X017412Y010508D01*
X017429Y010506D01*
X009719Y009366D02*
X009721Y009395D01*
X009727Y009423D01*
X009736Y009450D01*
X009750Y009475D01*
X009766Y009499D01*
X009786Y009519D01*
X009808Y009538D01*
X009832Y009552D01*
X009859Y009564D01*
X009886Y009572D01*
X009915Y009576D01*
X009943Y009576D01*
X009972Y009572D01*
X009999Y009564D01*
X010026Y009552D01*
X010050Y009538D01*
X010072Y009519D01*
X010092Y009499D01*
X010108Y009475D01*
X010122Y009450D01*
X010131Y009423D01*
X010137Y009395D01*
X010139Y009366D01*
X010137Y009337D01*
X010131Y009309D01*
X010122Y009282D01*
X010108Y009257D01*
X010092Y009233D01*
X010072Y009213D01*
X010050Y009194D01*
X010026Y009180D01*
X009999Y009168D01*
X009972Y009160D01*
X009943Y009156D01*
X009915Y009156D01*
X009886Y009160D01*
X009859Y009168D01*
X009832Y009180D01*
X009808Y009194D01*
X009786Y009213D01*
X009766Y009233D01*
X009750Y009257D01*
X009736Y009282D01*
X009727Y009309D01*
X009721Y009337D01*
X009719Y009366D01*
X006209Y013276D02*
X003749Y013276D01*
X003749Y014638D01*
X006209Y014638D01*
X006209Y013276D01*
X005279Y006956D02*
X004479Y006956D01*
X004379Y006856D01*
X004379Y006056D01*
X004479Y005956D01*
X004379Y005856D01*
X004379Y005056D01*
X004479Y004956D01*
X004379Y004856D01*
X004379Y004056D01*
X004479Y003956D01*
X005279Y003956D01*
X005379Y004056D01*
X005379Y004856D01*
X005279Y004956D01*
X005379Y005056D01*
X005379Y005856D01*
X005279Y005956D01*
X005379Y006056D01*
X005379Y006856D01*
X005279Y006956D01*
X003929Y006856D02*
X003929Y006056D01*
X003829Y005956D01*
X003929Y005856D01*
X003929Y005056D01*
X003829Y004956D01*
X003929Y004856D01*
X003929Y004056D01*
X003829Y003956D01*
X003029Y003956D01*
X002929Y004056D01*
X002929Y004856D01*
X003029Y004956D01*
X002929Y005056D01*
X002929Y005856D01*
X003029Y005956D01*
X002929Y006056D01*
X002929Y006856D01*
X003029Y006956D01*
X003829Y006956D01*
X003929Y006856D01*
X002479Y005506D02*
X002479Y005306D01*
X002479Y005506D02*
X002279Y005506D01*
X001679Y005506D02*
X001479Y005506D01*
X001479Y005306D01*
X001479Y004706D02*
X001479Y004506D01*
X001679Y004506D01*
X001679Y004356D02*
X001479Y004356D01*
X001479Y004156D01*
X001479Y003556D02*
X001479Y003356D01*
X001679Y003356D01*
X002279Y003356D02*
X002479Y003356D01*
X002479Y003556D01*
X002479Y004156D02*
X002479Y004356D01*
X002279Y004356D01*
X002279Y004506D02*
X002479Y004506D01*
X002479Y004706D01*
D56*
X011945Y010241D02*
X012155Y010241D01*
X012050Y010241D02*
X012050Y010872D01*
X011945Y010872D02*
X012155Y010872D01*
X012375Y010767D02*
X012375Y010346D01*
X012480Y010241D01*
X012690Y010241D01*
X012795Y010346D01*
X013019Y010241D02*
X013440Y010241D01*
X013229Y010241D02*
X013229Y010872D01*
X013019Y010662D01*
X012795Y010767D02*
X012690Y010872D01*
X012480Y010872D01*
X012375Y010767D01*
D57*
X005471Y013781D02*
X005171Y013781D01*
X005471Y014082D01*
X005471Y014157D01*
X005396Y014232D01*
X005246Y014232D01*
X005171Y014157D01*
X005011Y014157D02*
X004936Y014232D01*
X004786Y014232D01*
X004711Y014157D01*
X004711Y013856D01*
X004786Y013781D01*
X004936Y013781D01*
X005011Y013856D01*
X004554Y013781D02*
X004404Y013781D01*
X004479Y013781D02*
X004479Y014232D01*
X004404Y014232D02*
X004554Y014232D01*
X001229Y005132D02*
X001229Y004831D01*
X001079Y004981D02*
X001379Y004981D01*
X001504Y004706D02*
X001804Y004706D01*
D58*
X016879Y006991D03*
X017279Y006991D03*
M02*
