G75*
G70*
%OFA0B0*%
%FSLAX24Y24*%
%IPPOS*%
%LPD*%
%AMOC8*
5,1,8,0,0,1.08239X$1,22.5*
%
%ADD10C,0.0000*%
%ADD11C,0.0740*%
%ADD12C,0.0520*%
%ADD13C,0.0515*%
%ADD14R,0.0551X0.0709*%
%ADD15R,0.0748X0.0551*%
%ADD16R,0.0591X0.0315*%
%ADD17C,0.0560*%
%ADD18R,0.0748X0.1339*%
%ADD19OC8,0.1000*%
%ADD20C,0.0100*%
%ADD21C,0.0317*%
%ADD22C,0.0356*%
%ADD23C,0.0160*%
D10*
X001129Y000806D02*
X001129Y020301D01*
X020614Y020291D01*
X020614Y000806D01*
X001129Y000806D01*
X018602Y013790D02*
X018604Y013816D01*
X018610Y013842D01*
X018620Y013867D01*
X018633Y013890D01*
X018649Y013910D01*
X018669Y013928D01*
X018691Y013943D01*
X018714Y013955D01*
X018740Y013963D01*
X018766Y013967D01*
X018792Y013967D01*
X018818Y013963D01*
X018844Y013955D01*
X018868Y013943D01*
X018889Y013928D01*
X018909Y013910D01*
X018925Y013890D01*
X018938Y013867D01*
X018948Y013842D01*
X018954Y013816D01*
X018956Y013790D01*
X018954Y013764D01*
X018948Y013738D01*
X018938Y013713D01*
X018925Y013690D01*
X018909Y013670D01*
X018889Y013652D01*
X018867Y013637D01*
X018844Y013625D01*
X018818Y013617D01*
X018792Y013613D01*
X018766Y013613D01*
X018740Y013617D01*
X018714Y013625D01*
X018690Y013637D01*
X018669Y013652D01*
X018649Y013670D01*
X018633Y013690D01*
X018620Y013713D01*
X018610Y013738D01*
X018604Y013764D01*
X018602Y013790D01*
X018602Y015522D02*
X018604Y015548D01*
X018610Y015574D01*
X018620Y015599D01*
X018633Y015622D01*
X018649Y015642D01*
X018669Y015660D01*
X018691Y015675D01*
X018714Y015687D01*
X018740Y015695D01*
X018766Y015699D01*
X018792Y015699D01*
X018818Y015695D01*
X018844Y015687D01*
X018868Y015675D01*
X018889Y015660D01*
X018909Y015642D01*
X018925Y015622D01*
X018938Y015599D01*
X018948Y015574D01*
X018954Y015548D01*
X018956Y015522D01*
X018954Y015496D01*
X018948Y015470D01*
X018938Y015445D01*
X018925Y015422D01*
X018909Y015402D01*
X018889Y015384D01*
X018867Y015369D01*
X018844Y015357D01*
X018818Y015349D01*
X018792Y015345D01*
X018766Y015345D01*
X018740Y015349D01*
X018714Y015357D01*
X018690Y015369D01*
X018669Y015384D01*
X018649Y015402D01*
X018633Y015422D01*
X018620Y015445D01*
X018610Y015470D01*
X018604Y015496D01*
X018602Y015522D01*
D11*
X018879Y018556D03*
X019879Y018556D03*
X019879Y019556D03*
X018879Y019556D03*
X017879Y019556D03*
X017879Y018556D03*
X016879Y018556D03*
X015879Y018556D03*
X014879Y018556D03*
X013879Y018556D03*
X012879Y018556D03*
X011879Y018556D03*
X010879Y018556D03*
X009879Y018556D03*
X008879Y018556D03*
X007879Y018556D03*
X006879Y018556D03*
X006879Y019556D03*
X007879Y019556D03*
X008879Y019556D03*
X009879Y019556D03*
X010879Y019556D03*
X011879Y019556D03*
X012879Y019556D03*
X013879Y019556D03*
X014879Y019556D03*
X015879Y019556D03*
X016879Y019556D03*
X019879Y009556D03*
X019879Y008556D03*
X019879Y007556D03*
X019879Y006556D03*
X019879Y005556D03*
X019879Y004556D03*
X019879Y002556D03*
X018879Y002556D03*
X018879Y001556D03*
X019879Y001556D03*
X017879Y001556D03*
X016879Y001556D03*
X015879Y001556D03*
X014879Y001556D03*
X013879Y001556D03*
X012879Y001556D03*
X011879Y001556D03*
X010879Y001556D03*
X009879Y001556D03*
X008879Y001556D03*
X007879Y001556D03*
X006879Y001556D03*
X006879Y002556D03*
X007879Y002556D03*
X008879Y002556D03*
X009879Y002556D03*
X010879Y002556D03*
X011879Y002556D03*
X012879Y002556D03*
X013879Y002556D03*
X014879Y002556D03*
X015879Y002556D03*
X016879Y002556D03*
X017879Y002556D03*
X003879Y002556D03*
X003879Y001556D03*
X002879Y001556D03*
X001879Y001556D03*
X001879Y002556D03*
X002879Y002556D03*
X001929Y006106D03*
X001929Y007106D03*
X001879Y009606D03*
X001879Y010606D03*
X001879Y011606D03*
X001879Y012606D03*
X001879Y013606D03*
X001879Y014606D03*
D12*
X011979Y006106D03*
X013879Y006106D03*
X016579Y007506D03*
X017579Y007506D03*
D13*
X009765Y007768D03*
X008977Y007768D03*
X008190Y007768D03*
X007402Y007768D03*
X006615Y007768D03*
X005828Y007768D03*
X005040Y007768D03*
X004253Y007768D03*
X003465Y007768D03*
X002678Y007768D03*
X002678Y016430D03*
X003465Y016430D03*
X004253Y016430D03*
X005040Y016430D03*
X005828Y016430D03*
X006615Y016430D03*
X007402Y016430D03*
X008190Y016430D03*
X008977Y016430D03*
X009765Y016430D03*
D14*
X013036Y016249D03*
X013036Y014005D03*
D15*
X018213Y016879D03*
X018607Y011702D03*
D16*
X017091Y013537D03*
X016934Y013970D03*
X017091Y014403D03*
X017170Y014836D03*
X017091Y015269D03*
X017170Y015702D03*
X017091Y016135D03*
X017091Y016568D03*
D17*
X005159Y006456D02*
X004599Y006456D01*
X003709Y006456D02*
X003149Y006456D01*
X003149Y005456D02*
X003709Y005456D01*
X004599Y005456D02*
X005159Y005456D01*
X005159Y004456D02*
X004599Y004456D01*
X003709Y004456D02*
X003149Y004456D01*
D18*
X006211Y004556D03*
X007747Y004556D03*
D19*
X001979Y005006D03*
X001979Y003856D03*
D20*
X002029Y003861D02*
X004629Y003861D01*
X004629Y003763D02*
X002629Y003763D01*
X002629Y003806D02*
X002629Y003587D01*
X002548Y003506D01*
X004475Y003506D01*
X004629Y003660D01*
X004629Y004006D01*
X004509Y004006D01*
X004344Y004075D01*
X004217Y004201D01*
X004154Y004355D01*
X004090Y004201D01*
X003964Y004075D01*
X003798Y004006D01*
X003059Y004006D01*
X002894Y004075D01*
X002767Y004201D01*
X002699Y004367D01*
X002699Y004383D01*
X002501Y004581D01*
X002337Y004417D01*
X002629Y004126D01*
X002629Y003906D01*
X002029Y003906D01*
X002029Y003806D01*
X002029Y003206D01*
X002175Y003206D01*
X002042Y003073D01*
X001986Y003096D01*
X001771Y003096D01*
X001573Y003014D01*
X001421Y002862D01*
X001339Y002664D01*
X001339Y002449D01*
X001421Y002250D01*
X001573Y002099D01*
X001629Y002075D01*
X001629Y002037D01*
X001573Y002014D01*
X001421Y001862D01*
X001339Y001664D01*
X001339Y001449D01*
X001421Y001250D01*
X001573Y001099D01*
X001771Y001016D01*
X001986Y001016D01*
X002185Y001099D01*
X002337Y001250D01*
X002390Y001379D01*
X002438Y001262D01*
X002584Y001115D01*
X002775Y001036D01*
X002829Y001036D01*
X002829Y001506D01*
X002929Y001506D01*
X002929Y001036D01*
X002982Y001036D01*
X003173Y001115D01*
X003320Y001262D01*
X003368Y001379D01*
X003421Y001250D01*
X003573Y001099D01*
X003771Y001016D01*
X003986Y001016D01*
X004185Y001099D01*
X004337Y001250D01*
X004419Y001449D01*
X004419Y001664D01*
X004337Y001862D01*
X004185Y002014D01*
X004129Y002037D01*
X004129Y002075D01*
X004185Y002099D01*
X004337Y002250D01*
X004360Y002306D01*
X005697Y002306D01*
X005796Y002306D01*
X005888Y002344D01*
X006743Y003199D01*
X006807Y003199D01*
X006814Y003202D01*
X006788Y003176D01*
X006663Y003051D01*
X006573Y003014D01*
X006421Y002862D01*
X006339Y002664D01*
X006339Y002449D01*
X006421Y002250D01*
X006573Y002099D01*
X006629Y002075D01*
X006629Y002037D01*
X006573Y002014D01*
X006421Y001862D01*
X006339Y001664D01*
X006339Y001449D01*
X006421Y001250D01*
X006573Y001099D01*
X006771Y001016D01*
X006986Y001016D01*
X007185Y001099D01*
X007337Y001250D01*
X007379Y001352D01*
X007421Y001250D01*
X007573Y001099D01*
X007771Y001016D01*
X007986Y001016D01*
X008185Y001099D01*
X008337Y001250D01*
X008379Y001352D01*
X008421Y001250D01*
X008573Y001099D01*
X008771Y001016D01*
X008986Y001016D01*
X009185Y001099D01*
X009337Y001250D01*
X009379Y001352D01*
X009421Y001250D01*
X009573Y001099D01*
X009771Y001016D01*
X009986Y001016D01*
X010185Y001099D01*
X010337Y001250D01*
X010379Y001352D01*
X010421Y001250D01*
X010573Y001099D01*
X010771Y001016D01*
X010986Y001016D01*
X011185Y001099D01*
X011337Y001250D01*
X011379Y001352D01*
X011421Y001250D01*
X011573Y001099D01*
X011771Y001016D01*
X011986Y001016D01*
X012185Y001099D01*
X012337Y001250D01*
X012379Y001352D01*
X012421Y001250D01*
X012573Y001099D01*
X012771Y001016D01*
X012986Y001016D01*
X013185Y001099D01*
X013337Y001250D01*
X013390Y001379D01*
X013438Y001262D01*
X013584Y001115D01*
X013775Y001036D01*
X013829Y001036D01*
X013829Y001506D01*
X013929Y001506D01*
X013929Y001036D01*
X013982Y001036D01*
X014173Y001115D01*
X014320Y001262D01*
X014368Y001379D01*
X014421Y001250D01*
X014573Y001099D01*
X014771Y001016D01*
X014986Y001016D01*
X015185Y001099D01*
X015337Y001250D01*
X015379Y001352D01*
X015421Y001250D01*
X015573Y001099D01*
X015771Y001016D01*
X015986Y001016D01*
X016185Y001099D01*
X016337Y001250D01*
X016379Y001352D01*
X016421Y001250D01*
X016573Y001099D01*
X016771Y001016D01*
X016986Y001016D01*
X017185Y001099D01*
X017337Y001250D01*
X017379Y001352D01*
X017421Y001250D01*
X017573Y001099D01*
X017771Y001016D01*
X017986Y001016D01*
X018185Y001099D01*
X018337Y001250D01*
X018379Y001352D01*
X018421Y001250D01*
X018573Y001099D01*
X018771Y001016D01*
X018986Y001016D01*
X019185Y001099D01*
X019337Y001250D01*
X019379Y001352D01*
X019421Y001250D01*
X019573Y001099D01*
X019771Y001016D01*
X019986Y001016D01*
X020185Y001099D01*
X020337Y001250D01*
X020419Y001449D01*
X020419Y001664D01*
X020337Y001862D01*
X020185Y002014D01*
X020129Y002037D01*
X020129Y002075D01*
X020185Y002099D01*
X020337Y002250D01*
X020419Y002449D01*
X020419Y002664D01*
X020337Y002862D01*
X020185Y003014D01*
X019986Y003096D01*
X019771Y003096D01*
X019573Y003014D01*
X019421Y002862D01*
X019379Y002760D01*
X019337Y002862D01*
X019185Y003014D01*
X018986Y003096D01*
X018771Y003096D01*
X018573Y003014D01*
X018421Y002862D01*
X018379Y002760D01*
X018337Y002862D01*
X018185Y003014D01*
X017986Y003096D01*
X017771Y003096D01*
X017573Y003014D01*
X017421Y002862D01*
X017379Y002760D01*
X017337Y002862D01*
X017185Y003014D01*
X016986Y003096D01*
X016771Y003096D01*
X016573Y003014D01*
X016421Y002862D01*
X016379Y002760D01*
X016337Y002862D01*
X016185Y003014D01*
X015986Y003096D01*
X015771Y003096D01*
X015573Y003014D01*
X015421Y002862D01*
X015379Y002760D01*
X015337Y002862D01*
X015185Y003014D01*
X014986Y003096D01*
X014771Y003096D01*
X014573Y003014D01*
X014421Y002862D01*
X014368Y002734D01*
X014320Y002851D01*
X014173Y002997D01*
X013982Y003076D01*
X013929Y003076D01*
X013929Y002606D01*
X013829Y002606D01*
X013829Y003076D01*
X013775Y003076D01*
X013584Y002997D01*
X013438Y002851D01*
X013390Y002734D01*
X013337Y002862D01*
X013185Y003014D01*
X012986Y003096D01*
X012771Y003096D01*
X012573Y003014D01*
X012421Y002862D01*
X012379Y002760D01*
X012337Y002862D01*
X012185Y003014D01*
X011986Y003096D01*
X011771Y003096D01*
X011573Y003014D01*
X011421Y002862D01*
X011379Y002760D01*
X011337Y002862D01*
X011185Y003014D01*
X010986Y003096D01*
X010771Y003096D01*
X010573Y003014D01*
X010421Y002862D01*
X010379Y002760D01*
X010337Y002862D01*
X010185Y003014D01*
X009986Y003096D01*
X009771Y003096D01*
X009573Y003014D01*
X009421Y002862D01*
X009379Y002760D01*
X009337Y002862D01*
X009185Y003014D01*
X008986Y003096D01*
X008771Y003096D01*
X008573Y003014D01*
X008421Y002862D01*
X008379Y002760D01*
X008337Y002862D01*
X008185Y003014D01*
X007986Y003096D01*
X007771Y003096D01*
X007573Y003014D01*
X007421Y002862D01*
X007379Y002760D01*
X007337Y002862D01*
X007216Y002983D01*
X007370Y003136D01*
X019520Y003136D01*
X019649Y003265D01*
X020099Y003715D01*
X020099Y003897D01*
X020099Y004063D01*
X020185Y004099D01*
X020337Y004250D01*
X020419Y004449D01*
X020419Y004664D01*
X020337Y004862D01*
X020185Y005014D01*
X020083Y005056D01*
X020185Y005099D01*
X020337Y005250D01*
X020419Y005449D01*
X020419Y005664D01*
X020337Y005862D01*
X020185Y006014D01*
X020057Y006067D01*
X020173Y006115D01*
X020320Y006262D01*
X020399Y006453D01*
X020399Y006506D01*
X019929Y006506D01*
X019929Y006606D01*
X020399Y006606D01*
X020399Y006660D01*
X020320Y006851D01*
X020173Y006997D01*
X020057Y007045D01*
X020185Y007099D01*
X020337Y007250D01*
X020419Y007449D01*
X020419Y007664D01*
X020337Y007862D01*
X020185Y008014D01*
X020083Y008056D01*
X020185Y008099D01*
X020444Y008099D01*
X020444Y008197D02*
X020283Y008197D01*
X020337Y008250D02*
X020185Y008099D01*
X020199Y008000D02*
X020444Y008000D01*
X020444Y007901D02*
X020297Y007901D01*
X020361Y007803D02*
X020444Y007803D01*
X020444Y007704D02*
X020402Y007704D01*
X020419Y007606D02*
X020444Y007606D01*
X020444Y007507D02*
X020419Y007507D01*
X020402Y007409D02*
X020444Y007409D01*
X020444Y007310D02*
X020361Y007310D01*
X020298Y007212D02*
X020444Y007212D01*
X020444Y007113D02*
X020199Y007113D01*
X020131Y007015D02*
X020444Y007015D01*
X020444Y006916D02*
X020254Y006916D01*
X020333Y006817D02*
X020444Y006817D01*
X020444Y006719D02*
X020374Y006719D01*
X020399Y006620D02*
X020444Y006620D01*
X020444Y006522D02*
X019929Y006522D01*
X020346Y006325D02*
X020444Y006325D01*
X020444Y006423D02*
X020386Y006423D01*
X020444Y006226D02*
X020284Y006226D01*
X020186Y006128D02*
X020444Y006128D01*
X020444Y006029D02*
X020148Y006029D01*
X020268Y005931D02*
X020444Y005931D01*
X020444Y005832D02*
X020349Y005832D01*
X020390Y005733D02*
X020444Y005733D01*
X020444Y005635D02*
X020419Y005635D01*
X020419Y005536D02*
X020444Y005536D01*
X020444Y005438D02*
X020414Y005438D01*
X020444Y005339D02*
X020373Y005339D01*
X020327Y005241D02*
X020444Y005241D01*
X020444Y005142D02*
X020228Y005142D01*
X020113Y005044D02*
X020444Y005044D01*
X020444Y004945D02*
X020254Y004945D01*
X020343Y004847D02*
X020444Y004847D01*
X020444Y004748D02*
X020384Y004748D01*
X020419Y004649D02*
X020444Y004649D01*
X020444Y004551D02*
X020419Y004551D01*
X020419Y004452D02*
X020444Y004452D01*
X020444Y004354D02*
X020379Y004354D01*
X020339Y004255D02*
X020444Y004255D01*
X020444Y004157D02*
X020243Y004157D01*
X020099Y004058D02*
X020444Y004058D01*
X020444Y003960D02*
X020099Y003960D01*
X020099Y003861D02*
X020444Y003861D01*
X020444Y003763D02*
X020099Y003763D01*
X020048Y003664D02*
X020444Y003664D01*
X020444Y003566D02*
X019949Y003566D01*
X019851Y003467D02*
X020444Y003467D01*
X020444Y003368D02*
X019752Y003368D01*
X019654Y003270D02*
X020444Y003270D01*
X020444Y003171D02*
X019555Y003171D01*
X019715Y003073D02*
X019043Y003073D01*
X019224Y002974D02*
X019533Y002974D01*
X019435Y002876D02*
X019323Y002876D01*
X019372Y002777D02*
X019386Y002777D01*
X019429Y003356D02*
X007279Y003356D01*
X006879Y002956D01*
X006879Y002556D01*
X007372Y002777D02*
X007386Y002777D01*
X007435Y002876D02*
X007323Y002876D01*
X007224Y002974D02*
X007533Y002974D01*
X007715Y003073D02*
X007306Y003073D01*
X007083Y003472D02*
X007086Y003478D01*
X007086Y003542D01*
X007281Y003738D01*
X007302Y003717D01*
X008191Y003717D01*
X008291Y003817D01*
X008291Y005296D01*
X008191Y005396D01*
X007892Y005396D01*
X007891Y005398D01*
X007741Y005548D01*
X007670Y005618D01*
X007579Y005656D01*
X005563Y005656D01*
X005540Y005711D01*
X005414Y005838D01*
X005248Y005906D01*
X004509Y005906D01*
X004344Y005838D01*
X004217Y005711D01*
X004176Y005612D01*
X004120Y005668D01*
X004106Y005674D01*
X004090Y005711D01*
X003964Y005838D01*
X003798Y005906D01*
X003059Y005906D01*
X002894Y005838D01*
X002829Y005773D01*
X002829Y006140D01*
X002894Y006075D01*
X003059Y006006D01*
X003798Y006006D01*
X003964Y006075D01*
X004090Y006201D01*
X004154Y006355D01*
X004217Y006201D01*
X004344Y006075D01*
X004509Y006006D01*
X005248Y006006D01*
X005414Y006075D01*
X005540Y006201D01*
X005609Y006367D01*
X005609Y006546D01*
X005540Y006711D01*
X005414Y006838D01*
X005248Y006906D01*
X004509Y006906D01*
X004463Y006887D01*
X004582Y007006D01*
X010029Y007006D01*
X010120Y007044D01*
X010191Y007115D01*
X012134Y009058D01*
X012232Y008961D01*
X012259Y008950D01*
X012259Y006434D01*
X012222Y006471D01*
X012064Y006536D01*
X011893Y006536D01*
X011735Y006471D01*
X011614Y006350D01*
X011549Y006192D01*
X011549Y006021D01*
X011614Y005863D01*
X011735Y005742D01*
X011893Y005676D01*
X012064Y005676D01*
X012222Y005742D01*
X012259Y005778D01*
X012259Y005597D01*
X011916Y005254D01*
X011810Y005254D01*
X011682Y005201D01*
X011584Y005103D01*
X011531Y004976D01*
X011531Y004837D01*
X011584Y004709D01*
X011682Y004611D01*
X011810Y004558D01*
X011948Y004558D01*
X012076Y004611D01*
X012174Y004709D01*
X012227Y004837D01*
X012227Y004943D01*
X012570Y005286D01*
X012659Y005375D01*
X012659Y005029D01*
X012584Y004953D01*
X012531Y004826D01*
X012531Y004687D01*
X012584Y004559D01*
X012682Y004461D01*
X012810Y004408D01*
X012948Y004408D01*
X013076Y004461D01*
X013174Y004559D01*
X013227Y004687D01*
X013227Y004826D01*
X013174Y004953D01*
X013099Y005029D01*
X013099Y008984D01*
X013174Y009059D01*
X013227Y009187D01*
X013227Y009326D01*
X013174Y009453D01*
X013076Y009551D01*
X012948Y009604D01*
X012810Y009604D01*
X012682Y009551D01*
X012654Y009524D01*
X012627Y009551D01*
X013082Y010006D01*
X014725Y010006D01*
X015217Y009515D01*
X015287Y009444D01*
X015379Y009406D01*
X015464Y009406D01*
X015431Y009326D01*
X015431Y009187D01*
X015484Y009059D01*
X015582Y008961D01*
X015710Y008908D01*
X015848Y008908D01*
X015976Y008961D01*
X016051Y009036D01*
X017988Y009036D01*
X018259Y008765D01*
X018259Y004365D01*
X018388Y004236D01*
X018581Y004043D01*
X018581Y003937D01*
X018634Y003809D01*
X018732Y003711D01*
X018860Y003658D01*
X018998Y003658D01*
X019126Y003711D01*
X019224Y003809D01*
X019277Y003937D01*
X019277Y004076D01*
X019224Y004203D01*
X019126Y004301D01*
X018998Y004354D01*
X018892Y004354D01*
X018699Y004547D01*
X018699Y008947D01*
X018570Y009076D01*
X018170Y009476D01*
X017988Y009476D01*
X016752Y009476D01*
X016791Y009515D01*
X016829Y009607D01*
X016829Y009706D01*
X016829Y011403D01*
X017920Y012494D01*
X017920Y012494D01*
X017991Y012565D01*
X018029Y012657D01*
X018029Y013364D01*
X018074Y013409D01*
X018079Y013421D01*
X018079Y012560D01*
X017667Y012148D01*
X017629Y012056D01*
X017629Y011957D01*
X017629Y011256D01*
X017629Y011157D01*
X017667Y011065D01*
X019029Y009703D01*
X019029Y006107D01*
X019067Y006015D01*
X019137Y005944D01*
X019362Y005720D01*
X019339Y005664D01*
X019339Y005449D01*
X019421Y005250D01*
X019573Y005099D01*
X019675Y005056D01*
X019573Y005014D01*
X019421Y004862D01*
X019339Y004664D01*
X019339Y004449D01*
X019421Y004250D01*
X019573Y004099D01*
X019659Y004063D01*
X019659Y003897D01*
X019338Y003576D01*
X007370Y003576D01*
X007188Y003576D01*
X007083Y003472D01*
X007109Y003566D02*
X007177Y003566D01*
X007208Y003664D02*
X018845Y003664D01*
X019012Y003664D02*
X019425Y003664D01*
X019524Y003763D02*
X019177Y003763D01*
X019245Y003861D02*
X019623Y003861D01*
X019659Y003960D02*
X019277Y003960D01*
X019277Y004058D02*
X019659Y004058D01*
X019515Y004157D02*
X019243Y004157D01*
X019172Y004255D02*
X019419Y004255D01*
X019378Y004354D02*
X018999Y004354D01*
X018794Y004452D02*
X019339Y004452D01*
X019339Y004551D02*
X018699Y004551D01*
X018699Y004649D02*
X019339Y004649D01*
X019374Y004748D02*
X018699Y004748D01*
X018699Y004847D02*
X019415Y004847D01*
X019504Y004945D02*
X018699Y004945D01*
X018699Y005044D02*
X019644Y005044D01*
X019529Y005142D02*
X018699Y005142D01*
X018699Y005241D02*
X019431Y005241D01*
X019384Y005339D02*
X018699Y005339D01*
X018699Y005438D02*
X019343Y005438D01*
X019339Y005536D02*
X018699Y005536D01*
X018699Y005635D02*
X019339Y005635D01*
X019348Y005733D02*
X018699Y005733D01*
X018699Y005832D02*
X019250Y005832D01*
X019151Y005931D02*
X018699Y005931D01*
X018699Y006029D02*
X019061Y006029D01*
X019029Y006128D02*
X018699Y006128D01*
X018699Y006226D02*
X019029Y006226D01*
X019029Y006325D02*
X018699Y006325D01*
X018699Y006423D02*
X019029Y006423D01*
X019029Y006522D02*
X018699Y006522D01*
X018699Y006620D02*
X019029Y006620D01*
X019029Y006719D02*
X018699Y006719D01*
X018699Y006817D02*
X019029Y006817D01*
X019029Y006916D02*
X018699Y006916D01*
X018699Y007015D02*
X019029Y007015D01*
X019029Y007113D02*
X018699Y007113D01*
X018699Y007212D02*
X019029Y007212D01*
X019029Y007310D02*
X018699Y007310D01*
X018699Y007409D02*
X019029Y007409D01*
X019029Y007507D02*
X018699Y007507D01*
X018699Y007606D02*
X019029Y007606D01*
X019029Y007704D02*
X018699Y007704D01*
X018699Y007803D02*
X019029Y007803D01*
X019029Y007901D02*
X018699Y007901D01*
X018699Y008000D02*
X019029Y008000D01*
X019029Y008099D02*
X018699Y008099D01*
X018699Y008197D02*
X019029Y008197D01*
X019029Y008296D02*
X018699Y008296D01*
X018699Y008394D02*
X019029Y008394D01*
X019029Y008493D02*
X018699Y008493D01*
X018699Y008591D02*
X019029Y008591D01*
X019029Y008690D02*
X018699Y008690D01*
X018699Y008788D02*
X019029Y008788D01*
X019029Y008887D02*
X018699Y008887D01*
X018661Y008985D02*
X019029Y008985D01*
X019029Y009084D02*
X018562Y009084D01*
X018570Y009076D02*
X018570Y009076D01*
X018464Y009182D02*
X019029Y009182D01*
X019029Y009281D02*
X018365Y009281D01*
X018267Y009380D02*
X019029Y009380D01*
X019029Y009478D02*
X016754Y009478D01*
X016816Y009577D02*
X019029Y009577D01*
X019029Y009675D02*
X016829Y009675D01*
X016829Y009774D02*
X018958Y009774D01*
X018859Y009872D02*
X016829Y009872D01*
X016829Y009971D02*
X018761Y009971D01*
X018662Y010069D02*
X016829Y010069D01*
X016829Y010168D02*
X018564Y010168D01*
X018465Y010266D02*
X016829Y010266D01*
X016829Y010365D02*
X018367Y010365D01*
X018268Y010464D02*
X016829Y010464D01*
X016829Y010562D02*
X018169Y010562D01*
X018071Y010661D02*
X016829Y010661D01*
X016829Y010759D02*
X017972Y010759D01*
X017874Y010858D02*
X016829Y010858D01*
X016829Y010956D02*
X017775Y010956D01*
X017677Y011055D02*
X016829Y011055D01*
X016829Y011153D02*
X017630Y011153D01*
X017629Y011252D02*
X016829Y011252D01*
X016829Y011350D02*
X017629Y011350D01*
X017629Y011449D02*
X016875Y011449D01*
X016974Y011548D02*
X017629Y011548D01*
X017629Y011646D02*
X017072Y011646D01*
X017171Y011745D02*
X017629Y011745D01*
X017629Y011843D02*
X017269Y011843D01*
X017368Y011942D02*
X017629Y011942D01*
X017629Y012040D02*
X017466Y012040D01*
X017565Y012139D02*
X017663Y012139D01*
X017663Y012237D02*
X017756Y012237D01*
X017762Y012336D02*
X017855Y012336D01*
X017860Y012434D02*
X017953Y012434D01*
X017959Y012533D02*
X018052Y012533D01*
X018079Y012631D02*
X018018Y012631D01*
X018029Y012730D02*
X018079Y012730D01*
X018079Y012829D02*
X018029Y012829D01*
X018029Y012927D02*
X018079Y012927D01*
X018079Y013026D02*
X018029Y013026D01*
X018029Y013124D02*
X018079Y013124D01*
X018079Y013223D02*
X018029Y013223D01*
X018029Y013321D02*
X018079Y013321D01*
X018078Y013420D02*
X018079Y013420D01*
X018579Y013420D02*
X019009Y013420D01*
X018975Y013496D02*
X019009Y013529D01*
X019009Y012579D01*
X018934Y012503D01*
X018881Y012376D01*
X018881Y012237D01*
X018926Y012128D01*
X018657Y012128D01*
X018657Y011752D01*
X018557Y011752D01*
X018557Y012128D01*
X018354Y012128D01*
X018470Y012244D01*
X018470Y012244D01*
X018541Y012315D01*
X018579Y012407D01*
X018579Y013499D01*
X018582Y013496D01*
X018710Y013443D01*
X018848Y013443D01*
X018975Y013496D01*
X018998Y013518D02*
X019009Y013518D01*
X019009Y013321D02*
X018579Y013321D01*
X018579Y013223D02*
X019009Y013223D01*
X019009Y013124D02*
X018579Y013124D01*
X018579Y013026D02*
X019009Y013026D01*
X019009Y012927D02*
X018579Y012927D01*
X018579Y012829D02*
X019009Y012829D01*
X019009Y012730D02*
X018579Y012730D01*
X018579Y012631D02*
X019009Y012631D01*
X018963Y012533D02*
X018579Y012533D01*
X018579Y012434D02*
X018905Y012434D01*
X018881Y012336D02*
X018549Y012336D01*
X018463Y012237D02*
X018881Y012237D01*
X018921Y012139D02*
X018365Y012139D01*
X018557Y012040D02*
X018657Y012040D01*
X018657Y011942D02*
X018557Y011942D01*
X018557Y011843D02*
X018657Y011843D01*
X018657Y011752D02*
X019131Y011752D01*
X019131Y011970D01*
X019160Y011958D01*
X019298Y011958D01*
X019426Y012011D01*
X019524Y012109D01*
X019577Y012237D01*
X019577Y012376D01*
X019524Y012503D01*
X019449Y012579D01*
X019449Y013815D01*
X019449Y013997D01*
X018099Y015347D01*
X017970Y015476D01*
X017609Y015476D01*
X017615Y015482D01*
X017615Y015673D01*
X017199Y015673D01*
X017199Y015731D01*
X017615Y015731D01*
X017615Y015922D01*
X017557Y015980D01*
X017557Y016340D01*
X017557Y016796D01*
X017457Y016896D01*
X016726Y016896D01*
X016626Y016796D01*
X016626Y016376D01*
X016388Y016376D01*
X016259Y016247D01*
X015838Y015826D01*
X013455Y015826D01*
X013462Y015833D01*
X013462Y016199D01*
X013086Y016199D01*
X013086Y016299D01*
X012986Y016299D01*
X012986Y016199D01*
X012611Y016199D01*
X012611Y015833D01*
X012617Y015826D01*
X012385Y015826D01*
X012374Y015853D01*
X012276Y015951D01*
X012148Y016004D01*
X012010Y016004D01*
X011882Y015951D01*
X011784Y015853D01*
X011731Y015726D01*
X011731Y015587D01*
X011784Y015459D01*
X011882Y015361D01*
X012010Y015308D01*
X012148Y015308D01*
X012276Y015361D01*
X012301Y015386D01*
X015838Y015386D01*
X016020Y015386D01*
X016570Y015936D01*
X016626Y015936D01*
X016626Y015907D01*
X016725Y015808D01*
X016725Y015731D01*
X017141Y015731D01*
X017141Y015673D01*
X016725Y015673D01*
X016725Y015596D01*
X016626Y015497D01*
X016626Y015106D01*
X013471Y015106D01*
X013376Y015201D01*
X013248Y015254D01*
X013110Y015254D01*
X012982Y015201D01*
X012884Y015103D01*
X012831Y014976D01*
X012831Y014837D01*
X012835Y014826D01*
X012001Y014826D01*
X011926Y014901D01*
X011798Y014954D01*
X011660Y014954D01*
X011532Y014901D01*
X011434Y014803D01*
X011381Y014676D01*
X011381Y014537D01*
X011434Y014409D01*
X011532Y014311D01*
X011660Y014258D01*
X011798Y014258D01*
X011926Y014311D01*
X012001Y014386D01*
X012611Y014386D01*
X012611Y014055D01*
X012986Y014055D01*
X012986Y013955D01*
X012611Y013955D01*
X012611Y013589D01*
X012699Y013501D01*
X012941Y013501D01*
X012931Y013476D01*
X012931Y013337D01*
X012959Y013268D01*
X012926Y013301D01*
X012798Y013354D01*
X012660Y013354D01*
X012532Y013301D01*
X012434Y013203D01*
X012381Y013076D01*
X012381Y012937D01*
X012434Y012809D01*
X012532Y012711D01*
X012660Y012658D01*
X012766Y012658D01*
X014298Y011126D01*
X014270Y011126D01*
X013549Y011847D01*
X013420Y011976D01*
X011001Y011976D01*
X010926Y012051D01*
X010798Y012104D01*
X010660Y012104D01*
X010532Y012051D01*
X010434Y011953D01*
X010381Y011826D01*
X010381Y011747D01*
X010376Y011751D01*
X010248Y011804D01*
X010110Y011804D01*
X009982Y011751D01*
X009884Y011653D01*
X009831Y011526D01*
X009831Y011387D01*
X009884Y011259D01*
X009982Y011161D01*
X010110Y011108D01*
X010138Y011108D01*
X010134Y011103D01*
X010081Y010976D01*
X010081Y010837D01*
X010101Y010789D01*
X009866Y010554D01*
X009760Y010554D01*
X009649Y010508D01*
X009649Y011384D01*
X009724Y011459D01*
X009777Y011587D01*
X009777Y011726D01*
X009724Y011853D01*
X009626Y011951D01*
X009498Y012004D01*
X009360Y012004D01*
X009232Y011951D01*
X009134Y011853D01*
X009081Y011726D01*
X009081Y011587D01*
X009134Y011459D01*
X009209Y011384D01*
X009209Y009029D01*
X009134Y008953D01*
X009081Y008826D01*
X009081Y008687D01*
X009134Y008559D01*
X009232Y008461D01*
X009360Y008408D01*
X009498Y008408D01*
X009626Y008461D01*
X009724Y008559D01*
X009777Y008687D01*
X009777Y008826D01*
X009724Y008953D01*
X009649Y009029D01*
X009649Y009904D01*
X009760Y009858D01*
X009898Y009858D01*
X010026Y009911D01*
X010124Y010009D01*
X010177Y010137D01*
X010177Y010243D01*
X010492Y010558D01*
X010498Y010558D01*
X010626Y010611D01*
X010724Y010709D01*
X010777Y010837D01*
X010777Y010976D01*
X010724Y011103D01*
X010626Y011201D01*
X010542Y011236D01*
X012988Y011236D01*
X013709Y010515D01*
X013718Y010506D01*
X012929Y010506D01*
X012837Y010468D01*
X012767Y010398D01*
X010172Y007803D01*
X010172Y007849D01*
X010110Y007999D01*
X009995Y008114D01*
X009846Y008176D01*
X009793Y008176D01*
X009793Y007797D01*
X009736Y007797D01*
X009736Y008176D01*
X009684Y008176D01*
X009534Y008114D01*
X009419Y007999D01*
X009382Y007908D01*
X009340Y008010D01*
X009219Y008130D01*
X009062Y008196D01*
X008892Y008196D01*
X008735Y008130D01*
X008615Y008010D01*
X008584Y007935D01*
X008552Y008010D01*
X008432Y008130D01*
X008275Y008196D01*
X008105Y008196D01*
X007948Y008130D01*
X007827Y008010D01*
X007796Y007935D01*
X007765Y008010D01*
X007645Y008130D01*
X007487Y008196D01*
X007317Y008196D01*
X007160Y008130D01*
X007040Y008010D01*
X007009Y007935D01*
X006977Y008010D01*
X006857Y008130D01*
X006700Y008196D01*
X006530Y008196D01*
X006373Y008130D01*
X006253Y008010D01*
X006221Y007935D01*
X006190Y008010D01*
X006070Y008130D01*
X005913Y008196D01*
X005743Y008196D01*
X005585Y008130D01*
X005465Y008010D01*
X005434Y007935D01*
X005403Y008010D01*
X005282Y008130D01*
X005125Y008196D01*
X004955Y008196D01*
X004798Y008130D01*
X004678Y008010D01*
X004646Y007935D01*
X004615Y008010D01*
X004495Y008130D01*
X004473Y008140D01*
X004473Y008289D01*
X004820Y008636D01*
X007356Y008636D01*
X007432Y008561D01*
X007560Y008508D01*
X007698Y008508D01*
X007826Y008561D01*
X007924Y008659D01*
X007977Y008787D01*
X007977Y008926D01*
X007924Y009053D01*
X007826Y009151D01*
X007698Y009204D01*
X007560Y009204D01*
X007432Y009151D01*
X007356Y009076D01*
X004820Y009076D01*
X004249Y009647D01*
X004120Y009776D01*
X003649Y009776D01*
X003649Y013065D01*
X003649Y013247D01*
X003199Y013697D01*
X003070Y013826D01*
X002372Y013826D01*
X002337Y013912D01*
X002185Y014064D01*
X002083Y014106D01*
X002185Y014149D01*
X002337Y014300D01*
X002419Y014499D01*
X002419Y014714D01*
X002337Y014912D01*
X002185Y015064D01*
X001986Y015146D01*
X001771Y015146D01*
X001573Y015064D01*
X001421Y014912D01*
X001339Y014714D01*
X001339Y014499D01*
X001421Y014300D01*
X001573Y014149D01*
X001675Y014106D01*
X001573Y014064D01*
X001421Y013912D01*
X001339Y013714D01*
X001339Y013499D01*
X001421Y013300D01*
X001573Y013149D01*
X001675Y013106D01*
X001573Y013064D01*
X001421Y012912D01*
X001339Y012714D01*
X001339Y012499D01*
X001421Y012300D01*
X001573Y012149D01*
X001675Y012106D01*
X001573Y012064D01*
X001421Y011912D01*
X001339Y011714D01*
X001339Y011499D01*
X001362Y011443D01*
X001299Y011380D01*
X001299Y020131D01*
X020444Y020121D01*
X001299Y020121D01*
X001299Y020022D02*
X006593Y020022D01*
X006573Y020014D02*
X006421Y019862D01*
X006339Y019664D01*
X006339Y019449D01*
X006421Y019250D01*
X006573Y019099D01*
X006629Y019075D01*
X006629Y019037D01*
X006573Y019014D01*
X006421Y018862D01*
X006339Y018664D01*
X006339Y018449D01*
X006421Y018250D01*
X006573Y018099D01*
X006771Y018016D01*
X006986Y018016D01*
X007185Y018099D01*
X007337Y018250D01*
X007379Y018352D01*
X007421Y018250D01*
X007573Y018099D01*
X007771Y018016D01*
X007986Y018016D01*
X008185Y018099D01*
X008337Y018250D01*
X008379Y018352D01*
X008421Y018250D01*
X008573Y018099D01*
X008771Y018016D01*
X008986Y018016D01*
X009185Y018099D01*
X009337Y018250D01*
X009379Y018352D01*
X009421Y018250D01*
X009573Y018099D01*
X009771Y018016D01*
X009986Y018016D01*
X010185Y018099D01*
X010337Y018250D01*
X010379Y018352D01*
X010421Y018250D01*
X010573Y018099D01*
X010771Y018016D01*
X010986Y018016D01*
X011185Y018099D01*
X011337Y018250D01*
X011379Y018352D01*
X011421Y018250D01*
X011573Y018099D01*
X011771Y018016D01*
X011986Y018016D01*
X012185Y018099D01*
X012337Y018250D01*
X012379Y018352D01*
X012421Y018250D01*
X012573Y018099D01*
X012771Y018016D01*
X012986Y018016D01*
X013185Y018099D01*
X013337Y018250D01*
X013379Y018352D01*
X013421Y018250D01*
X013573Y018099D01*
X013771Y018016D01*
X013986Y018016D01*
X014185Y018099D01*
X014337Y018250D01*
X014379Y018352D01*
X014421Y018250D01*
X014573Y018099D01*
X014771Y018016D01*
X014986Y018016D01*
X015185Y018099D01*
X015337Y018250D01*
X015390Y018379D01*
X015438Y018262D01*
X015584Y018115D01*
X015775Y018036D01*
X015829Y018036D01*
X015829Y018506D01*
X015929Y018506D01*
X015929Y018036D01*
X015982Y018036D01*
X016173Y018115D01*
X016320Y018262D01*
X016368Y018379D01*
X016421Y018250D01*
X016573Y018099D01*
X016771Y018016D01*
X016986Y018016D01*
X017185Y018099D01*
X017337Y018250D01*
X017379Y018352D01*
X017421Y018250D01*
X017573Y018099D01*
X017771Y018016D01*
X017986Y018016D01*
X018185Y018099D01*
X018337Y018250D01*
X018379Y018352D01*
X018421Y018250D01*
X018573Y018099D01*
X018771Y018016D01*
X018986Y018016D01*
X019185Y018099D01*
X019337Y018250D01*
X019379Y018352D01*
X019421Y018250D01*
X019573Y018099D01*
X019771Y018016D01*
X019986Y018016D01*
X020185Y018099D01*
X020337Y018250D01*
X020419Y018449D01*
X020419Y018664D01*
X020337Y018862D01*
X020185Y019014D01*
X020129Y019037D01*
X020129Y019075D01*
X020185Y019099D01*
X020337Y019250D01*
X020419Y019449D01*
X020419Y019664D01*
X020337Y019862D01*
X020185Y020014D01*
X019986Y020096D01*
X019771Y020096D01*
X019573Y020014D01*
X019421Y019862D01*
X019379Y019760D01*
X019337Y019862D01*
X019185Y020014D01*
X018986Y020096D01*
X018771Y020096D01*
X018573Y020014D01*
X018421Y019862D01*
X018379Y019760D01*
X018337Y019862D01*
X018185Y020014D01*
X017986Y020096D01*
X017771Y020096D01*
X017573Y020014D01*
X017421Y019862D01*
X017379Y019760D01*
X017337Y019862D01*
X017185Y020014D01*
X016986Y020096D01*
X016771Y020096D01*
X016573Y020014D01*
X016421Y019862D01*
X016368Y019734D01*
X016320Y019851D01*
X016173Y019997D01*
X015982Y020076D01*
X015929Y020076D01*
X015929Y019606D01*
X015829Y019606D01*
X015829Y020076D01*
X015775Y020076D01*
X015584Y019997D01*
X015438Y019851D01*
X015390Y019734D01*
X015337Y019862D01*
X015185Y020014D01*
X014986Y020096D01*
X014771Y020096D01*
X014573Y020014D01*
X014421Y019862D01*
X014379Y019760D01*
X014337Y019862D01*
X014185Y020014D01*
X013986Y020096D01*
X013771Y020096D01*
X013573Y020014D01*
X013421Y019862D01*
X013379Y019760D01*
X013337Y019862D01*
X013185Y020014D01*
X012986Y020096D01*
X012771Y020096D01*
X012573Y020014D01*
X012421Y019862D01*
X012379Y019760D01*
X012337Y019862D01*
X012185Y020014D01*
X011986Y020096D01*
X011771Y020096D01*
X011573Y020014D01*
X011421Y019862D01*
X011379Y019760D01*
X011337Y019862D01*
X011185Y020014D01*
X010986Y020096D01*
X010771Y020096D01*
X010573Y020014D01*
X010421Y019862D01*
X010379Y019760D01*
X010337Y019862D01*
X010185Y020014D01*
X009986Y020096D01*
X009771Y020096D01*
X009573Y020014D01*
X009421Y019862D01*
X009379Y019760D01*
X009337Y019862D01*
X009185Y020014D01*
X008986Y020096D01*
X008771Y020096D01*
X008573Y020014D01*
X008421Y019862D01*
X008379Y019760D01*
X008337Y019862D01*
X008185Y020014D01*
X007986Y020096D01*
X007771Y020096D01*
X007573Y020014D01*
X007421Y019862D01*
X007379Y019760D01*
X007337Y019862D01*
X007185Y020014D01*
X006986Y020096D01*
X006771Y020096D01*
X006573Y020014D01*
X006483Y019924D02*
X001299Y019924D01*
X001299Y019825D02*
X006406Y019825D01*
X006365Y019727D02*
X001299Y019727D01*
X001299Y019628D02*
X006339Y019628D01*
X006339Y019530D02*
X001299Y019530D01*
X001299Y019431D02*
X006346Y019431D01*
X006387Y019332D02*
X001299Y019332D01*
X001299Y019234D02*
X006438Y019234D01*
X006536Y019135D02*
X001299Y019135D01*
X001299Y019037D02*
X006628Y019037D01*
X006497Y018938D02*
X001299Y018938D01*
X001299Y018840D02*
X006412Y018840D01*
X006371Y018741D02*
X001299Y018741D01*
X001299Y018643D02*
X006339Y018643D01*
X006339Y018544D02*
X001299Y018544D01*
X001299Y018446D02*
X006340Y018446D01*
X006381Y018347D02*
X001299Y018347D01*
X001299Y018248D02*
X006423Y018248D01*
X006521Y018150D02*
X001299Y018150D01*
X001299Y018051D02*
X006687Y018051D01*
X007071Y018051D02*
X007687Y018051D01*
X007521Y018150D02*
X007236Y018150D01*
X007335Y018248D02*
X007423Y018248D01*
X007381Y018347D02*
X007377Y018347D01*
X008071Y018051D02*
X008687Y018051D01*
X008521Y018150D02*
X008236Y018150D01*
X008335Y018248D02*
X008423Y018248D01*
X008381Y018347D02*
X008377Y018347D01*
X009071Y018051D02*
X009687Y018051D01*
X009521Y018150D02*
X009236Y018150D01*
X009335Y018248D02*
X009423Y018248D01*
X009381Y018347D02*
X009377Y018347D01*
X010071Y018051D02*
X010687Y018051D01*
X010521Y018150D02*
X010236Y018150D01*
X010335Y018248D02*
X010423Y018248D01*
X010381Y018347D02*
X010377Y018347D01*
X011071Y018051D02*
X011687Y018051D01*
X011521Y018150D02*
X011236Y018150D01*
X011335Y018248D02*
X011423Y018248D01*
X011381Y018347D02*
X011377Y018347D01*
X012071Y018051D02*
X012687Y018051D01*
X012521Y018150D02*
X012236Y018150D01*
X012335Y018248D02*
X012423Y018248D01*
X012381Y018347D02*
X012377Y018347D01*
X013071Y018051D02*
X013687Y018051D01*
X013521Y018150D02*
X013236Y018150D01*
X013335Y018248D02*
X013423Y018248D01*
X013381Y018347D02*
X013377Y018347D01*
X014071Y018051D02*
X014687Y018051D01*
X014521Y018150D02*
X014236Y018150D01*
X014335Y018248D02*
X014423Y018248D01*
X014381Y018347D02*
X014377Y018347D01*
X015071Y018051D02*
X015739Y018051D01*
X015829Y018051D02*
X015929Y018051D01*
X016019Y018051D02*
X016687Y018051D01*
X016521Y018150D02*
X016208Y018150D01*
X016306Y018248D02*
X016423Y018248D01*
X016381Y018347D02*
X016355Y018347D01*
X015929Y018347D02*
X015829Y018347D01*
X015829Y018248D02*
X015929Y018248D01*
X015929Y018150D02*
X015829Y018150D01*
X015550Y018150D02*
X015236Y018150D01*
X015335Y018248D02*
X015451Y018248D01*
X015403Y018347D02*
X015377Y018347D01*
X015829Y018446D02*
X015929Y018446D01*
X015929Y018606D02*
X015829Y018606D01*
X015829Y019076D01*
X015829Y019506D01*
X015929Y019506D01*
X015929Y019076D01*
X015929Y018606D01*
X015929Y018643D02*
X015829Y018643D01*
X015829Y018741D02*
X015929Y018741D01*
X015929Y018840D02*
X015829Y018840D01*
X015829Y018938D02*
X015929Y018938D01*
X015929Y019037D02*
X015829Y019037D01*
X015829Y019135D02*
X015929Y019135D01*
X015929Y019234D02*
X015829Y019234D01*
X015829Y019332D02*
X015929Y019332D01*
X015929Y019431D02*
X015829Y019431D01*
X015829Y019628D02*
X015929Y019628D01*
X015929Y019727D02*
X015829Y019727D01*
X015829Y019825D02*
X015929Y019825D01*
X015929Y019924D02*
X015829Y019924D01*
X015829Y020022D02*
X015929Y020022D01*
X016113Y020022D02*
X016593Y020022D01*
X016483Y019924D02*
X016247Y019924D01*
X016330Y019825D02*
X016406Y019825D01*
X017165Y020022D02*
X017593Y020022D01*
X017483Y019924D02*
X017275Y019924D01*
X017352Y019825D02*
X017406Y019825D01*
X018165Y020022D02*
X018593Y020022D01*
X018483Y019924D02*
X018275Y019924D01*
X018352Y019825D02*
X018406Y019825D01*
X019165Y020022D02*
X019593Y020022D01*
X019483Y019924D02*
X019275Y019924D01*
X019352Y019825D02*
X019406Y019825D01*
X020130Y019037D02*
X020444Y019037D01*
X020444Y019135D02*
X020222Y019135D01*
X020320Y019234D02*
X020444Y019234D01*
X020444Y019332D02*
X020371Y019332D01*
X020411Y019431D02*
X020444Y019431D01*
X020444Y019530D02*
X020419Y019530D01*
X020419Y019628D02*
X020444Y019628D01*
X020444Y019727D02*
X020393Y019727D01*
X020352Y019825D02*
X020444Y019825D01*
X020444Y019924D02*
X020275Y019924D01*
X020165Y020022D02*
X020444Y020022D01*
X020444Y020121D02*
X020444Y000976D01*
X001299Y000976D01*
X001299Y006183D01*
X001389Y006093D01*
X001389Y005999D01*
X001471Y005800D01*
X001623Y005649D01*
X001659Y005634D01*
X001309Y005284D01*
X001309Y004729D01*
X001620Y004417D01*
X001329Y004126D01*
X001329Y003906D01*
X001929Y003906D01*
X001929Y003806D01*
X002029Y003806D01*
X002629Y003806D01*
X002629Y003664D02*
X004629Y003664D01*
X004535Y003566D02*
X002607Y003566D01*
X002629Y003960D02*
X004629Y003960D01*
X004384Y004058D02*
X003924Y004058D01*
X004046Y004157D02*
X004262Y004157D01*
X004195Y004255D02*
X004113Y004255D01*
X004153Y004354D02*
X004154Y004354D01*
X002934Y004058D02*
X002629Y004058D01*
X002598Y004157D02*
X002812Y004157D01*
X002745Y004255D02*
X002499Y004255D01*
X002400Y004354D02*
X002704Y004354D01*
X002629Y004452D02*
X002372Y004452D01*
X002471Y004551D02*
X002531Y004551D01*
X001929Y003861D02*
X001299Y003861D01*
X001329Y003806D02*
X001329Y003587D01*
X001710Y003206D01*
X001929Y003206D01*
X001929Y003806D01*
X001329Y003806D01*
X001329Y003763D02*
X001299Y003763D01*
X001299Y003664D02*
X001329Y003664D01*
X001350Y003566D02*
X001299Y003566D01*
X001299Y003467D02*
X001449Y003467D01*
X001547Y003368D02*
X001299Y003368D01*
X001299Y003270D02*
X001646Y003270D01*
X001715Y003073D02*
X001299Y003073D01*
X001299Y003171D02*
X002140Y003171D01*
X002029Y003270D02*
X001929Y003270D01*
X001929Y003368D02*
X002029Y003368D01*
X002029Y003467D02*
X001929Y003467D01*
X001929Y003566D02*
X002029Y003566D01*
X002029Y003664D02*
X001929Y003664D01*
X001929Y003763D02*
X002029Y003763D01*
X001329Y003960D02*
X001299Y003960D01*
X001299Y004058D02*
X001329Y004058D01*
X001299Y004157D02*
X001360Y004157D01*
X001299Y004255D02*
X001459Y004255D01*
X001557Y004354D02*
X001299Y004354D01*
X001299Y004452D02*
X001585Y004452D01*
X001487Y004551D02*
X001299Y004551D01*
X001299Y004649D02*
X001388Y004649D01*
X001309Y004748D02*
X001299Y004748D01*
X001299Y004847D02*
X001309Y004847D01*
X001299Y004945D02*
X001309Y004945D01*
X001299Y005044D02*
X001309Y005044D01*
X001299Y005142D02*
X001309Y005142D01*
X001299Y005241D02*
X001309Y005241D01*
X001299Y005339D02*
X001364Y005339D01*
X001299Y005438D02*
X001463Y005438D01*
X001561Y005536D02*
X001299Y005536D01*
X001299Y005635D02*
X001656Y005635D01*
X001538Y005733D02*
X001299Y005733D01*
X001299Y005832D02*
X001458Y005832D01*
X001417Y005931D02*
X001299Y005931D01*
X001299Y006029D02*
X001389Y006029D01*
X001354Y006128D02*
X001299Y006128D01*
X002469Y007120D02*
X002469Y007214D01*
X002387Y007412D01*
X002235Y007564D01*
X002036Y007646D01*
X001821Y007646D01*
X001623Y007564D01*
X001579Y007520D01*
X001579Y009171D01*
X001584Y009165D01*
X001775Y009086D01*
X001829Y009086D01*
X001829Y009556D01*
X001929Y009556D01*
X001929Y009086D01*
X001982Y009086D01*
X002173Y009165D01*
X002320Y009312D01*
X002399Y009503D01*
X002399Y009556D01*
X001929Y009556D01*
X001929Y009656D01*
X002399Y009656D01*
X002399Y009710D01*
X002320Y009901D01*
X002173Y010047D01*
X002057Y010095D01*
X002185Y010149D01*
X002337Y010300D01*
X002419Y010499D01*
X002419Y010714D01*
X002337Y010912D01*
X002185Y011064D01*
X002083Y011106D01*
X002185Y011149D01*
X002337Y011300D01*
X002419Y011499D01*
X002419Y011714D01*
X002337Y011912D01*
X002185Y012064D01*
X002083Y012106D01*
X002185Y012149D01*
X002337Y012300D01*
X002372Y012386D01*
X002809Y012386D01*
X002809Y009165D01*
X002938Y009036D01*
X003309Y008665D01*
X003309Y008629D01*
X003234Y008553D01*
X003181Y008426D01*
X003181Y008287D01*
X003234Y008159D01*
X003251Y008142D01*
X003223Y008130D01*
X003103Y008010D01*
X003072Y007935D01*
X003040Y008010D01*
X002920Y008130D01*
X002763Y008196D01*
X002593Y008196D01*
X002436Y008130D01*
X002316Y008010D01*
X002251Y007853D01*
X002251Y007683D01*
X002316Y007526D01*
X002436Y007406D01*
X002593Y007341D01*
X002763Y007341D01*
X002920Y007406D01*
X003040Y007526D01*
X003072Y007602D01*
X003103Y007526D01*
X003223Y007406D01*
X003380Y007341D01*
X003550Y007341D01*
X003708Y007406D01*
X003828Y007526D01*
X003859Y007602D01*
X003890Y007526D01*
X004011Y007406D01*
X004168Y007341D01*
X004210Y007341D01*
X003775Y006906D01*
X003059Y006906D01*
X002894Y006838D01*
X002809Y006753D01*
X002791Y006798D01*
X002720Y006868D01*
X002469Y007120D01*
X002476Y007113D02*
X003982Y007113D01*
X003884Y007015D02*
X002574Y007015D01*
X002673Y006916D02*
X003785Y006916D01*
X004081Y007212D02*
X002469Y007212D01*
X002429Y007310D02*
X004179Y007310D01*
X004008Y007409D02*
X003711Y007409D01*
X003809Y007507D02*
X003909Y007507D01*
X004253Y007768D02*
X004253Y008380D01*
X004729Y008856D01*
X004029Y009556D01*
X003429Y009556D01*
X003429Y013156D01*
X002979Y013606D01*
X001879Y013606D01*
X001499Y013223D02*
X001299Y013223D01*
X001299Y013321D02*
X001412Y013321D01*
X001372Y013420D02*
X001299Y013420D01*
X001299Y013518D02*
X001339Y013518D01*
X001339Y013617D02*
X001299Y013617D01*
X001299Y013715D02*
X001340Y013715D01*
X001380Y013814D02*
X001299Y013814D01*
X001299Y013913D02*
X001421Y013913D01*
X001520Y014011D02*
X001299Y014011D01*
X001299Y014110D02*
X001667Y014110D01*
X001513Y014208D02*
X001299Y014208D01*
X001299Y014307D02*
X001418Y014307D01*
X001378Y014405D02*
X001299Y014405D01*
X001299Y014504D02*
X001339Y014504D01*
X001339Y014602D02*
X001299Y014602D01*
X001299Y014701D02*
X001339Y014701D01*
X001374Y014799D02*
X001299Y014799D01*
X001299Y014898D02*
X001415Y014898D01*
X001505Y014997D02*
X001299Y014997D01*
X001299Y015095D02*
X001648Y015095D01*
X001299Y015194D02*
X012974Y015194D01*
X012880Y015095D02*
X002110Y015095D01*
X002252Y014997D02*
X012839Y014997D01*
X012831Y014898D02*
X011929Y014898D01*
X011779Y014606D02*
X014529Y014606D01*
X014729Y014406D01*
X017079Y014406D01*
X017091Y014403D01*
X016934Y013970D02*
X016929Y013956D01*
X014729Y013956D01*
X014179Y013406D01*
X013279Y013406D01*
X012931Y013420D02*
X003476Y013420D01*
X003378Y013518D02*
X012681Y013518D01*
X012611Y013617D02*
X003279Y013617D01*
X003181Y013715D02*
X012611Y013715D01*
X012611Y013814D02*
X003082Y013814D01*
X003575Y013321D02*
X008780Y013321D01*
X008732Y013301D02*
X008634Y013203D01*
X008581Y013076D01*
X008581Y012937D01*
X008634Y012809D01*
X008732Y012711D01*
X008860Y012658D01*
X008998Y012658D01*
X009126Y012711D01*
X009201Y012786D01*
X010506Y012786D01*
X010582Y012711D01*
X010710Y012658D01*
X010848Y012658D01*
X010976Y012711D01*
X011074Y012809D01*
X011127Y012937D01*
X011127Y013076D01*
X011074Y013203D01*
X010976Y013301D01*
X010848Y013354D01*
X010710Y013354D01*
X010582Y013301D01*
X010506Y013226D01*
X009201Y013226D01*
X009126Y013301D01*
X008998Y013354D01*
X008860Y013354D01*
X008732Y013301D01*
X008653Y013223D02*
X003649Y013223D01*
X003649Y013124D02*
X008601Y013124D01*
X008581Y013026D02*
X003649Y013026D01*
X003649Y012927D02*
X008585Y012927D01*
X008626Y012829D02*
X003649Y012829D01*
X003649Y012730D02*
X008713Y012730D01*
X008929Y013006D02*
X010779Y013006D01*
X011107Y013124D02*
X012401Y013124D01*
X012381Y013026D02*
X011127Y013026D01*
X011123Y012927D02*
X012385Y012927D01*
X012426Y012829D02*
X011082Y012829D01*
X010995Y012730D02*
X012513Y012730D01*
X012792Y012631D02*
X003649Y012631D01*
X003649Y012533D02*
X012891Y012533D01*
X012990Y012434D02*
X003649Y012434D01*
X003649Y012336D02*
X005416Y012336D01*
X005432Y012351D02*
X005386Y012306D01*
X004229Y012306D01*
X004137Y012268D01*
X004067Y012198D01*
X004023Y012154D01*
X003960Y012154D01*
X003832Y012101D01*
X003734Y012003D01*
X003681Y011876D01*
X003681Y011737D01*
X003734Y011609D01*
X003832Y011511D01*
X003960Y011458D01*
X004098Y011458D01*
X004226Y011511D01*
X004324Y011609D01*
X004377Y011737D01*
X004377Y011801D01*
X004382Y011806D01*
X005386Y011806D01*
X005389Y011804D01*
X005382Y011801D01*
X005284Y011703D01*
X005231Y011576D01*
X005231Y011437D01*
X005284Y011309D01*
X005382Y011211D01*
X005510Y011158D01*
X005648Y011158D01*
X005776Y011211D01*
X005821Y011256D01*
X007086Y011256D01*
X007132Y011211D01*
X007260Y011158D01*
X007398Y011158D01*
X007526Y011211D01*
X007624Y011309D01*
X007677Y011437D01*
X007677Y011576D01*
X007624Y011703D01*
X007526Y011801D01*
X007398Y011854D01*
X007260Y011854D01*
X007132Y011801D01*
X007086Y011756D01*
X005821Y011756D01*
X005819Y011758D01*
X005826Y011761D01*
X005924Y011859D01*
X005977Y011987D01*
X005977Y012126D01*
X005924Y012253D01*
X005826Y012351D01*
X005698Y012404D01*
X005560Y012404D01*
X005432Y012351D01*
X005841Y012336D02*
X013088Y012336D01*
X013187Y012237D02*
X005931Y012237D01*
X005971Y012139D02*
X013285Y012139D01*
X013384Y012040D02*
X010937Y012040D01*
X010729Y011756D02*
X013329Y011756D01*
X014179Y010906D01*
X015729Y010906D01*
X016029Y011206D02*
X014529Y011206D01*
X012729Y013006D01*
X012453Y013223D02*
X011055Y013223D01*
X010928Y013321D02*
X012580Y013321D01*
X012878Y013321D02*
X012937Y013321D01*
X013462Y013707D02*
X013462Y013955D01*
X013086Y013955D01*
X013086Y014055D01*
X013462Y014055D01*
X013462Y014386D01*
X014438Y014386D01*
X014509Y014315D01*
X014638Y014186D01*
X016469Y014186D01*
X016469Y014176D01*
X014638Y014176D01*
X014509Y014047D01*
X014088Y013626D01*
X013551Y013626D01*
X013476Y013701D01*
X013462Y013707D01*
X013462Y013715D02*
X014177Y013715D01*
X014275Y013814D02*
X013462Y013814D01*
X013462Y013913D02*
X014374Y013913D01*
X014473Y014011D02*
X013086Y014011D01*
X012986Y014011D02*
X002238Y014011D01*
X002336Y013913D02*
X012611Y013913D01*
X012611Y014110D02*
X002091Y014110D01*
X002244Y014208D02*
X012611Y014208D01*
X012611Y014307D02*
X011915Y014307D01*
X011729Y014556D02*
X011729Y014606D01*
X011729Y014556D02*
X011779Y014606D01*
X011528Y014898D02*
X002342Y014898D01*
X002383Y014799D02*
X011432Y014799D01*
X011391Y014701D02*
X002419Y014701D01*
X002419Y014602D02*
X011381Y014602D01*
X011394Y014504D02*
X002419Y014504D01*
X002380Y014405D02*
X011438Y014405D01*
X011542Y014307D02*
X002339Y014307D01*
X001632Y013124D02*
X001299Y013124D01*
X001299Y013026D02*
X001535Y013026D01*
X001436Y012927D02*
X001299Y012927D01*
X001299Y012829D02*
X001386Y012829D01*
X001346Y012730D02*
X001299Y012730D01*
X001299Y012631D02*
X001339Y012631D01*
X001339Y012533D02*
X001299Y012533D01*
X001299Y012434D02*
X001366Y012434D01*
X001406Y012336D02*
X001299Y012336D01*
X001299Y012237D02*
X001484Y012237D01*
X001596Y012139D02*
X001299Y012139D01*
X001299Y012040D02*
X001549Y012040D01*
X001451Y011942D02*
X001299Y011942D01*
X001299Y011843D02*
X001392Y011843D01*
X001352Y011745D02*
X001299Y011745D01*
X001299Y011646D02*
X001339Y011646D01*
X001339Y011548D02*
X001299Y011548D01*
X001299Y011449D02*
X001359Y011449D01*
X002190Y011153D02*
X002809Y011153D01*
X002809Y011055D02*
X002194Y011055D01*
X002292Y010956D02*
X002809Y010956D01*
X002809Y010858D02*
X002359Y010858D01*
X002400Y010759D02*
X002809Y010759D01*
X002809Y010661D02*
X002419Y010661D01*
X002419Y010562D02*
X002809Y010562D01*
X002809Y010464D02*
X002404Y010464D01*
X002363Y010365D02*
X002809Y010365D01*
X002809Y010266D02*
X002303Y010266D01*
X002204Y010168D02*
X002809Y010168D01*
X002809Y010069D02*
X002120Y010069D01*
X002250Y009971D02*
X002809Y009971D01*
X002809Y009872D02*
X002331Y009872D01*
X002372Y009774D02*
X002809Y009774D01*
X002809Y009675D02*
X002399Y009675D01*
X002389Y009478D02*
X002809Y009478D01*
X002809Y009380D02*
X002348Y009380D01*
X002289Y009281D02*
X002809Y009281D01*
X002809Y009182D02*
X002190Y009182D01*
X001929Y009182D02*
X001829Y009182D01*
X001829Y009281D02*
X001929Y009281D01*
X001929Y009380D02*
X001829Y009380D01*
X001829Y009478D02*
X001929Y009478D01*
X001929Y009577D02*
X002809Y009577D01*
X003029Y009256D02*
X003029Y012606D01*
X001879Y012606D01*
X002274Y012237D02*
X002809Y012237D01*
X002809Y012139D02*
X002161Y012139D01*
X002209Y012040D02*
X002809Y012040D01*
X002809Y011942D02*
X002307Y011942D01*
X002365Y011843D02*
X002809Y011843D01*
X002809Y011745D02*
X002406Y011745D01*
X002419Y011646D02*
X002809Y011646D01*
X002809Y011548D02*
X002419Y011548D01*
X002398Y011449D02*
X002809Y011449D01*
X002809Y011350D02*
X002357Y011350D01*
X002288Y011252D02*
X002809Y011252D01*
X003649Y011252D02*
X005341Y011252D01*
X005267Y011350D02*
X003649Y011350D01*
X003649Y011449D02*
X005231Y011449D01*
X005231Y011548D02*
X004262Y011548D01*
X004339Y011646D02*
X005260Y011646D01*
X005325Y011745D02*
X004377Y011745D01*
X004106Y012237D02*
X003649Y012237D01*
X003649Y012139D02*
X003922Y012139D01*
X003770Y012040D02*
X003649Y012040D01*
X003649Y011942D02*
X003708Y011942D01*
X003681Y011843D02*
X003649Y011843D01*
X003649Y011745D02*
X003681Y011745D01*
X003649Y011646D02*
X003718Y011646D01*
X003649Y011548D02*
X003795Y011548D01*
X003649Y011153D02*
X009209Y011153D01*
X009209Y011055D02*
X003649Y011055D01*
X003649Y010956D02*
X009209Y010956D01*
X009209Y010858D02*
X003649Y010858D01*
X003649Y010759D02*
X009209Y010759D01*
X009209Y010661D02*
X003649Y010661D01*
X003649Y010562D02*
X009209Y010562D01*
X009209Y010464D02*
X003649Y010464D01*
X003649Y010365D02*
X009209Y010365D01*
X009209Y010266D02*
X003649Y010266D01*
X003649Y010168D02*
X009209Y010168D01*
X009209Y010069D02*
X007683Y010069D01*
X007726Y010051D02*
X007598Y010104D01*
X007460Y010104D01*
X007332Y010051D01*
X007234Y009953D01*
X007181Y009826D01*
X007181Y009776D01*
X006351Y009776D01*
X006276Y009851D01*
X006148Y009904D01*
X006010Y009904D01*
X005882Y009851D01*
X005784Y009753D01*
X005731Y009626D01*
X005731Y009487D01*
X005784Y009359D01*
X005882Y009261D01*
X006010Y009208D01*
X006148Y009208D01*
X006276Y009261D01*
X006351Y009336D01*
X007420Y009336D01*
X007492Y009408D01*
X007598Y009408D01*
X007726Y009461D01*
X007824Y009559D01*
X007877Y009687D01*
X007877Y009826D01*
X007824Y009953D01*
X007726Y010051D01*
X007807Y009971D02*
X009209Y009971D01*
X009209Y009872D02*
X007858Y009872D01*
X007877Y009774D02*
X009209Y009774D01*
X009209Y009675D02*
X007872Y009675D01*
X007831Y009577D02*
X009209Y009577D01*
X009209Y009478D02*
X007743Y009478D01*
X007751Y009182D02*
X009209Y009182D01*
X009209Y009084D02*
X007893Y009084D01*
X007952Y008985D02*
X009166Y008985D01*
X009106Y008887D02*
X007977Y008887D01*
X007977Y008788D02*
X009081Y008788D01*
X009081Y008690D02*
X007937Y008690D01*
X007856Y008591D02*
X009120Y008591D01*
X009200Y008493D02*
X004676Y008493D01*
X004578Y008394D02*
X010763Y008394D01*
X010665Y008296D02*
X004479Y008296D01*
X004473Y008197D02*
X010566Y008197D01*
X010468Y008099D02*
X010010Y008099D01*
X010109Y008000D02*
X010369Y008000D01*
X010270Y007901D02*
X010150Y007901D01*
X009793Y007901D02*
X009736Y007901D01*
X009736Y007803D02*
X009793Y007803D01*
X009793Y008000D02*
X009736Y008000D01*
X009736Y008099D02*
X009793Y008099D01*
X009519Y008099D02*
X009251Y008099D01*
X009344Y008000D02*
X009420Y008000D01*
X009657Y008493D02*
X010862Y008493D01*
X010960Y008591D02*
X009737Y008591D01*
X009777Y008690D02*
X011059Y008690D01*
X011157Y008788D02*
X009777Y008788D01*
X009751Y008887D02*
X011256Y008887D01*
X011354Y008985D02*
X009692Y008985D01*
X009649Y009084D02*
X011453Y009084D01*
X011552Y009182D02*
X009649Y009182D01*
X009649Y009281D02*
X011650Y009281D01*
X011749Y009380D02*
X009649Y009380D01*
X009649Y009478D02*
X011847Y009478D01*
X011946Y009577D02*
X009649Y009577D01*
X009649Y009675D02*
X012044Y009675D01*
X012143Y009774D02*
X009649Y009774D01*
X009649Y009872D02*
X009726Y009872D01*
X009932Y009872D02*
X012241Y009872D01*
X012340Y009971D02*
X010086Y009971D01*
X010149Y010069D02*
X012438Y010069D01*
X012537Y010168D02*
X010177Y010168D01*
X010200Y010266D02*
X012636Y010266D01*
X012734Y010365D02*
X010299Y010365D01*
X010397Y010464D02*
X012833Y010464D01*
X013047Y009971D02*
X014761Y009971D01*
X014859Y009872D02*
X012948Y009872D01*
X012850Y009774D02*
X014958Y009774D01*
X015056Y009675D02*
X012751Y009675D01*
X012743Y009577D02*
X012653Y009577D01*
X013015Y009577D02*
X015155Y009577D01*
X015253Y009478D02*
X013149Y009478D01*
X013205Y009380D02*
X015453Y009380D01*
X015431Y009281D02*
X013227Y009281D01*
X013225Y009182D02*
X015433Y009182D01*
X015473Y009084D02*
X013184Y009084D01*
X013100Y008985D02*
X015557Y008985D01*
X015779Y009256D02*
X018079Y009256D01*
X018479Y008856D01*
X018479Y004456D01*
X018929Y004006D01*
X018680Y003763D02*
X008237Y003763D01*
X008291Y003861D02*
X018612Y003861D01*
X018581Y003960D02*
X008291Y003960D01*
X008291Y004058D02*
X018566Y004058D01*
X018467Y004157D02*
X008291Y004157D01*
X008291Y004255D02*
X018369Y004255D01*
X018270Y004354D02*
X008291Y004354D01*
X008291Y004452D02*
X012703Y004452D01*
X012592Y004551D02*
X008291Y004551D01*
X008291Y004649D02*
X011643Y004649D01*
X011568Y004748D02*
X008291Y004748D01*
X008291Y004847D02*
X011531Y004847D01*
X011531Y004945D02*
X008291Y004945D01*
X008291Y005044D02*
X011559Y005044D01*
X011622Y005142D02*
X008291Y005142D01*
X008291Y005241D02*
X011777Y005241D01*
X012001Y005339D02*
X008247Y005339D01*
X007851Y005438D02*
X012099Y005438D01*
X012198Y005536D02*
X007752Y005536D01*
X007630Y005635D02*
X012259Y005635D01*
X012259Y005733D02*
X012202Y005733D01*
X012479Y005506D02*
X012479Y009256D01*
X012429Y009256D01*
X012207Y008985D02*
X012061Y008985D01*
X011963Y008887D02*
X012259Y008887D01*
X012259Y008788D02*
X011864Y008788D01*
X011766Y008690D02*
X012259Y008690D01*
X012259Y008591D02*
X011667Y008591D01*
X011569Y008493D02*
X012259Y008493D01*
X012259Y008394D02*
X011470Y008394D01*
X011372Y008296D02*
X012259Y008296D01*
X012259Y008197D02*
X011273Y008197D01*
X011174Y008099D02*
X012259Y008099D01*
X012259Y008000D02*
X011076Y008000D01*
X010977Y007901D02*
X012259Y007901D01*
X012259Y007803D02*
X010879Y007803D01*
X010780Y007704D02*
X012259Y007704D01*
X012259Y007606D02*
X010682Y007606D01*
X010583Y007507D02*
X012259Y007507D01*
X012259Y007409D02*
X010485Y007409D01*
X010386Y007310D02*
X012259Y007310D01*
X012259Y007212D02*
X010288Y007212D01*
X010191Y007115D02*
X010191Y007115D01*
X010189Y007113D02*
X012259Y007113D01*
X012259Y007015D02*
X010048Y007015D01*
X008703Y008099D02*
X008464Y008099D01*
X008556Y008000D02*
X008611Y008000D01*
X007916Y008099D02*
X007677Y008099D01*
X007769Y008000D02*
X007823Y008000D01*
X007128Y008099D02*
X006889Y008099D01*
X006982Y008000D02*
X007036Y008000D01*
X007402Y008591D02*
X004775Y008591D01*
X004729Y008856D02*
X007629Y008856D01*
X007507Y009182D02*
X004714Y009182D01*
X004812Y009084D02*
X007364Y009084D01*
X007463Y009380D02*
X009209Y009380D01*
X009209Y009281D02*
X006296Y009281D01*
X006079Y009556D02*
X007329Y009556D01*
X007529Y009756D01*
X007375Y010069D02*
X003649Y010069D01*
X003649Y009971D02*
X007251Y009971D01*
X007200Y009872D02*
X006226Y009872D01*
X005932Y009872D02*
X003649Y009872D01*
X004122Y009774D02*
X005804Y009774D01*
X005751Y009675D02*
X004221Y009675D01*
X004320Y009577D02*
X005731Y009577D01*
X005734Y009478D02*
X004418Y009478D01*
X004517Y009380D02*
X005775Y009380D01*
X005862Y009281D02*
X004615Y009281D01*
X004527Y008099D02*
X004766Y008099D01*
X004674Y008000D02*
X004619Y008000D01*
X005314Y008099D02*
X005554Y008099D01*
X005461Y008000D02*
X005407Y008000D01*
X006102Y008099D02*
X006341Y008099D01*
X006248Y008000D02*
X006194Y008000D01*
X005434Y006817D02*
X012259Y006817D01*
X012259Y006719D02*
X005533Y006719D01*
X005578Y006620D02*
X012259Y006620D01*
X012259Y006522D02*
X012099Y006522D01*
X011858Y006522D02*
X005609Y006522D01*
X005609Y006423D02*
X011688Y006423D01*
X011604Y006325D02*
X005591Y006325D01*
X005551Y006226D02*
X011563Y006226D01*
X011549Y006128D02*
X005467Y006128D01*
X005303Y006029D02*
X011549Y006029D01*
X011586Y005931D02*
X002829Y005931D01*
X002829Y006029D02*
X003004Y006029D01*
X002841Y006128D02*
X002829Y006128D01*
X002829Y005832D02*
X002888Y005832D01*
X003853Y006029D02*
X004454Y006029D01*
X004291Y006128D02*
X004017Y006128D01*
X004101Y006226D02*
X004207Y006226D01*
X004166Y006325D02*
X004141Y006325D01*
X003969Y005832D02*
X004338Y005832D01*
X004240Y005733D02*
X004068Y005733D01*
X004154Y005635D02*
X004186Y005635D01*
X005419Y005832D02*
X011645Y005832D01*
X011755Y005733D02*
X005518Y005733D01*
X004492Y006916D02*
X012259Y006916D01*
X013099Y006916D02*
X018259Y006916D01*
X018259Y006817D02*
X013099Y006817D01*
X013099Y006719D02*
X018259Y006719D01*
X018259Y006620D02*
X013099Y006620D01*
X013099Y006522D02*
X013758Y006522D01*
X013793Y006536D02*
X013635Y006471D01*
X013514Y006350D01*
X013449Y006192D01*
X013449Y006021D01*
X013514Y005863D01*
X013635Y005742D01*
X013793Y005676D01*
X013964Y005676D01*
X014122Y005742D01*
X014243Y005863D01*
X014309Y006021D01*
X014309Y006192D01*
X014243Y006350D01*
X014122Y006471D01*
X013964Y006536D01*
X013793Y006536D01*
X013999Y006522D02*
X018259Y006522D01*
X018259Y006423D02*
X014170Y006423D01*
X014254Y006325D02*
X018259Y006325D01*
X018259Y006226D02*
X014295Y006226D01*
X014309Y006128D02*
X018259Y006128D01*
X018259Y006029D02*
X014309Y006029D01*
X014271Y005931D02*
X018259Y005931D01*
X018259Y005832D02*
X014213Y005832D01*
X014102Y005733D02*
X018259Y005733D01*
X018259Y005635D02*
X013099Y005635D01*
X013099Y005733D02*
X013655Y005733D01*
X013545Y005832D02*
X013099Y005832D01*
X013099Y005931D02*
X013486Y005931D01*
X013449Y006029D02*
X013099Y006029D01*
X013099Y006128D02*
X013449Y006128D01*
X013463Y006226D02*
X013099Y006226D01*
X013099Y006325D02*
X013504Y006325D01*
X013588Y006423D02*
X013099Y006423D01*
X013099Y007015D02*
X018259Y007015D01*
X018259Y007113D02*
X017753Y007113D01*
X017822Y007142D02*
X017664Y007076D01*
X017493Y007076D01*
X017335Y007142D01*
X017214Y007263D01*
X017149Y007421D01*
X017149Y007592D01*
X017214Y007750D01*
X017335Y007871D01*
X017493Y007936D01*
X017664Y007936D01*
X017822Y007871D01*
X017943Y007750D01*
X018009Y007592D01*
X018009Y007421D01*
X017943Y007263D01*
X017822Y007142D01*
X017892Y007212D02*
X018259Y007212D01*
X018259Y007310D02*
X017963Y007310D01*
X018004Y007409D02*
X018259Y007409D01*
X018259Y007507D02*
X018009Y007507D01*
X018003Y007606D02*
X018259Y007606D01*
X018259Y007704D02*
X017962Y007704D01*
X017890Y007803D02*
X018259Y007803D01*
X018259Y007901D02*
X017748Y007901D01*
X017409Y007901D02*
X016748Y007901D01*
X016822Y007871D02*
X016664Y007936D01*
X016493Y007936D01*
X016335Y007871D01*
X016214Y007750D01*
X016149Y007592D01*
X016149Y007421D01*
X016214Y007263D01*
X016335Y007142D01*
X016493Y007076D01*
X016664Y007076D01*
X016822Y007142D01*
X016943Y007263D01*
X017009Y007421D01*
X017009Y007592D01*
X016943Y007750D01*
X016822Y007871D01*
X016890Y007803D02*
X017267Y007803D01*
X017195Y007704D02*
X016962Y007704D01*
X017003Y007606D02*
X017155Y007606D01*
X017149Y007507D02*
X017009Y007507D01*
X017004Y007409D02*
X017154Y007409D01*
X017195Y007310D02*
X016963Y007310D01*
X016892Y007212D02*
X017265Y007212D01*
X017404Y007113D02*
X016753Y007113D01*
X016404Y007113D02*
X013099Y007113D01*
X013099Y007212D02*
X016265Y007212D01*
X016195Y007310D02*
X013099Y007310D01*
X013099Y007409D02*
X016154Y007409D01*
X016149Y007507D02*
X013099Y007507D01*
X013099Y007606D02*
X016155Y007606D01*
X016195Y007704D02*
X013099Y007704D01*
X013099Y007803D02*
X016267Y007803D01*
X016409Y007901D02*
X013099Y007901D01*
X013099Y008000D02*
X018259Y008000D01*
X018259Y008099D02*
X013099Y008099D01*
X013099Y008197D02*
X018259Y008197D01*
X018259Y008296D02*
X013099Y008296D01*
X013099Y008394D02*
X018259Y008394D01*
X018259Y008493D02*
X013099Y008493D01*
X013099Y008591D02*
X018259Y008591D01*
X018259Y008690D02*
X013099Y008690D01*
X013099Y008788D02*
X018236Y008788D01*
X018137Y008887D02*
X013099Y008887D01*
X012879Y009256D02*
X012879Y004756D01*
X013227Y004748D02*
X018259Y004748D01*
X018259Y004649D02*
X013211Y004649D01*
X013166Y004551D02*
X018259Y004551D01*
X018259Y004452D02*
X013055Y004452D01*
X013218Y004847D02*
X018259Y004847D01*
X018259Y004945D02*
X013177Y004945D01*
X013099Y005044D02*
X018259Y005044D01*
X018259Y005142D02*
X013099Y005142D01*
X013099Y005241D02*
X018259Y005241D01*
X018259Y005339D02*
X013099Y005339D01*
X013099Y005438D02*
X018259Y005438D01*
X018259Y005536D02*
X013099Y005536D01*
X012659Y005339D02*
X012623Y005339D01*
X012659Y005241D02*
X012524Y005241D01*
X012426Y005142D02*
X012659Y005142D01*
X012659Y005044D02*
X012327Y005044D01*
X012229Y004945D02*
X012580Y004945D01*
X012539Y004847D02*
X012227Y004847D01*
X012190Y004748D02*
X012531Y004748D01*
X012546Y004649D02*
X012114Y004649D01*
X011879Y004906D02*
X012479Y005506D01*
X012715Y003073D02*
X012043Y003073D01*
X012224Y002974D02*
X012533Y002974D01*
X012435Y002876D02*
X012323Y002876D01*
X012372Y002777D02*
X012386Y002777D01*
X013043Y003073D02*
X013767Y003073D01*
X013829Y003073D02*
X013929Y003073D01*
X013991Y003073D02*
X014715Y003073D01*
X014533Y002974D02*
X014196Y002974D01*
X014295Y002876D02*
X014435Y002876D01*
X014386Y002777D02*
X014350Y002777D01*
X013929Y002777D02*
X013829Y002777D01*
X013829Y002679D02*
X013929Y002679D01*
X013929Y002506D02*
X013929Y002036D01*
X013929Y001606D01*
X013829Y001606D01*
X013829Y002036D01*
X013829Y002506D01*
X013929Y002506D01*
X013929Y002482D02*
X013829Y002482D01*
X013829Y002383D02*
X013929Y002383D01*
X013929Y002284D02*
X013829Y002284D01*
X013829Y002186D02*
X013929Y002186D01*
X013929Y002087D02*
X013829Y002087D01*
X013829Y001989D02*
X013929Y001989D01*
X013929Y001890D02*
X013829Y001890D01*
X013829Y001792D02*
X013929Y001792D01*
X013929Y001693D02*
X013829Y001693D01*
X013829Y001496D02*
X013929Y001496D01*
X013929Y001398D02*
X013829Y001398D01*
X013829Y001299D02*
X013929Y001299D01*
X013929Y001200D02*
X013829Y001200D01*
X013829Y001102D02*
X013929Y001102D01*
X014141Y001102D02*
X014569Y001102D01*
X014471Y001200D02*
X014258Y001200D01*
X014335Y001299D02*
X014401Y001299D01*
X015188Y001102D02*
X015569Y001102D01*
X015471Y001200D02*
X015287Y001200D01*
X015357Y001299D02*
X015401Y001299D01*
X016188Y001102D02*
X016569Y001102D01*
X016471Y001200D02*
X016287Y001200D01*
X016357Y001299D02*
X016401Y001299D01*
X017188Y001102D02*
X017569Y001102D01*
X017471Y001200D02*
X017287Y001200D01*
X017357Y001299D02*
X017401Y001299D01*
X018188Y001102D02*
X018569Y001102D01*
X018471Y001200D02*
X018287Y001200D01*
X018357Y001299D02*
X018401Y001299D01*
X019188Y001102D02*
X019569Y001102D01*
X019471Y001200D02*
X019287Y001200D01*
X019357Y001299D02*
X019401Y001299D01*
X020188Y001102D02*
X020444Y001102D01*
X020444Y001200D02*
X020287Y001200D01*
X020357Y001299D02*
X020444Y001299D01*
X020444Y001398D02*
X020398Y001398D01*
X020419Y001496D02*
X020444Y001496D01*
X020444Y001595D02*
X020419Y001595D01*
X020407Y001693D02*
X020444Y001693D01*
X020444Y001792D02*
X020366Y001792D01*
X020308Y001890D02*
X020444Y001890D01*
X020444Y001989D02*
X020210Y001989D01*
X020158Y002087D02*
X020444Y002087D01*
X020444Y002186D02*
X020272Y002186D01*
X020351Y002284D02*
X020444Y002284D01*
X020444Y002383D02*
X020391Y002383D01*
X020419Y002482D02*
X020444Y002482D01*
X020444Y002580D02*
X020419Y002580D01*
X020413Y002679D02*
X020444Y002679D01*
X020444Y002777D02*
X020372Y002777D01*
X020323Y002876D02*
X020444Y002876D01*
X020444Y002974D02*
X020224Y002974D01*
X020043Y003073D02*
X020444Y003073D01*
X019879Y003806D02*
X019429Y003356D01*
X019879Y003806D02*
X019879Y004556D01*
X019137Y005944D02*
X019137Y005944D01*
X020337Y008250D02*
X020419Y008449D01*
X020419Y008664D01*
X020337Y008862D01*
X020185Y009014D01*
X020083Y009056D01*
X020185Y009099D01*
X020337Y009250D01*
X020419Y009449D01*
X020419Y009664D01*
X020337Y009862D01*
X020185Y010014D01*
X019986Y010096D01*
X019771Y010096D01*
X019573Y010014D01*
X019495Y009936D01*
X019491Y009948D01*
X019420Y010018D01*
X018129Y011310D01*
X018129Y011319D01*
X018171Y011276D01*
X018557Y011276D01*
X018557Y011652D01*
X018657Y011652D01*
X018657Y011276D01*
X019043Y011276D01*
X019131Y011364D01*
X019131Y011652D01*
X018657Y011652D01*
X018657Y011752D01*
X018657Y011745D02*
X020444Y011745D01*
X020444Y011843D02*
X019131Y011843D01*
X019131Y011942D02*
X020444Y011942D01*
X020444Y012040D02*
X019455Y012040D01*
X019536Y012139D02*
X020444Y012139D01*
X020444Y012237D02*
X019577Y012237D01*
X019577Y012336D02*
X020444Y012336D01*
X020444Y012434D02*
X019553Y012434D01*
X019494Y012533D02*
X020444Y012533D01*
X020444Y012631D02*
X019449Y012631D01*
X019449Y012730D02*
X020444Y012730D01*
X020444Y012829D02*
X019449Y012829D01*
X019449Y012927D02*
X020444Y012927D01*
X020444Y013026D02*
X019449Y013026D01*
X019449Y013124D02*
X020444Y013124D01*
X020444Y013223D02*
X019449Y013223D01*
X019449Y013321D02*
X020444Y013321D01*
X020444Y013420D02*
X019449Y013420D01*
X019449Y013518D02*
X020444Y013518D01*
X020444Y013617D02*
X019449Y013617D01*
X019449Y013715D02*
X020444Y013715D01*
X020444Y013814D02*
X019449Y013814D01*
X019449Y013913D02*
X020444Y013913D01*
X020444Y014011D02*
X019435Y014011D01*
X019337Y014110D02*
X020444Y014110D01*
X020444Y014208D02*
X019238Y014208D01*
X019139Y014307D02*
X020444Y014307D01*
X020444Y014405D02*
X019041Y014405D01*
X018942Y014504D02*
X020444Y014504D01*
X020444Y014602D02*
X018844Y014602D01*
X018745Y014701D02*
X020444Y014701D01*
X020444Y014799D02*
X018647Y014799D01*
X018548Y014898D02*
X020444Y014898D01*
X020444Y014997D02*
X018450Y014997D01*
X018351Y015095D02*
X020444Y015095D01*
X020444Y015194D02*
X018892Y015194D01*
X018848Y015175D02*
X018975Y015228D01*
X019073Y015326D01*
X019126Y015453D01*
X019126Y015591D01*
X019073Y015719D01*
X018975Y015817D01*
X018848Y015870D01*
X018710Y015870D01*
X018582Y015817D01*
X018484Y015719D01*
X018432Y015591D01*
X018432Y015453D01*
X018484Y015326D01*
X018582Y015228D01*
X018710Y015175D01*
X018848Y015175D01*
X018665Y015194D02*
X018253Y015194D01*
X018154Y015292D02*
X018518Y015292D01*
X018458Y015391D02*
X018055Y015391D01*
X017879Y015256D02*
X017104Y015256D01*
X017091Y015269D01*
X017079Y015256D01*
X017141Y015686D02*
X016320Y015686D01*
X016221Y015588D02*
X016717Y015588D01*
X016626Y015489D02*
X016123Y015489D01*
X016024Y015391D02*
X016626Y015391D01*
X016626Y015292D02*
X001299Y015292D01*
X001299Y015391D02*
X011852Y015391D01*
X011771Y015489D02*
X001299Y015489D01*
X001299Y015588D02*
X011731Y015588D01*
X011731Y015686D02*
X001299Y015686D01*
X001299Y015785D02*
X011755Y015785D01*
X011814Y015883D02*
X001299Y015883D01*
X001299Y015982D02*
X011955Y015982D01*
X012202Y015982D02*
X012611Y015982D01*
X012611Y016081D02*
X010020Y016081D01*
X010007Y016067D02*
X010127Y016187D01*
X010192Y016344D01*
X010192Y016515D01*
X010127Y016672D01*
X012617Y016672D01*
X012611Y016666D02*
X012611Y016299D01*
X012986Y016299D01*
X012986Y016754D01*
X012699Y016754D01*
X012611Y016666D01*
X012611Y016573D02*
X010168Y016573D01*
X010192Y016475D02*
X012611Y016475D01*
X012611Y016376D02*
X010192Y016376D01*
X010164Y016278D02*
X012986Y016278D01*
X012986Y016376D02*
X013086Y016376D01*
X013086Y016299D02*
X013086Y016754D01*
X013374Y016754D01*
X013462Y016666D01*
X013462Y016299D01*
X013086Y016299D01*
X013086Y016278D02*
X016289Y016278D01*
X016388Y016376D02*
X013462Y016376D01*
X013462Y016475D02*
X016626Y016475D01*
X016626Y016573D02*
X013462Y016573D01*
X013456Y016672D02*
X016626Y016672D01*
X016626Y016770D02*
X010028Y016770D01*
X010007Y016792D02*
X009850Y016857D01*
X009680Y016857D01*
X009522Y016792D01*
X009402Y016672D01*
X009339Y016672D01*
X009340Y016672D02*
X009219Y016792D01*
X009062Y016857D01*
X008892Y016857D01*
X008735Y016792D01*
X008615Y016672D01*
X008552Y016672D01*
X008432Y016792D01*
X008275Y016857D01*
X008105Y016857D01*
X007948Y016792D01*
X007827Y016672D01*
X007796Y016596D01*
X007765Y016672D01*
X007828Y016672D01*
X007765Y016672D02*
X007645Y016792D01*
X007487Y016857D01*
X007317Y016857D01*
X007160Y016792D01*
X007040Y016672D01*
X006977Y016672D01*
X006857Y016792D01*
X006700Y016857D01*
X006530Y016857D01*
X006373Y016792D01*
X006253Y016672D01*
X006190Y016672D01*
X006070Y016792D01*
X005913Y016857D01*
X005743Y016857D01*
X005585Y016792D01*
X005465Y016672D01*
X005402Y016672D01*
X005403Y016672D02*
X005282Y016792D01*
X005125Y016857D01*
X004955Y016857D01*
X004798Y016792D01*
X004678Y016672D01*
X004615Y016672D01*
X004495Y016792D01*
X004338Y016857D01*
X004168Y016857D01*
X004011Y016792D01*
X003890Y016672D01*
X003859Y016596D01*
X003828Y016672D01*
X003891Y016672D01*
X003828Y016672D02*
X003708Y016792D01*
X003550Y016857D01*
X003380Y016857D01*
X003223Y016792D01*
X003103Y016672D01*
X003040Y016672D01*
X002920Y016792D01*
X002763Y016857D01*
X002593Y016857D01*
X002436Y016792D01*
X002316Y016672D01*
X001299Y016672D01*
X001299Y016770D02*
X002414Y016770D01*
X002316Y016672D02*
X002251Y016515D01*
X002251Y016344D01*
X002316Y016187D01*
X002436Y016067D01*
X002593Y016002D01*
X002763Y016002D01*
X002920Y016067D01*
X003040Y016187D01*
X003072Y016263D01*
X003103Y016187D01*
X003223Y016067D01*
X003380Y016002D01*
X003550Y016002D01*
X003708Y016067D01*
X003828Y016187D01*
X003859Y016263D01*
X003890Y016187D01*
X004011Y016067D01*
X004168Y016002D01*
X004338Y016002D01*
X004495Y016067D01*
X004615Y016187D01*
X004646Y016263D01*
X004678Y016187D01*
X004798Y016067D01*
X004955Y016002D01*
X005125Y016002D01*
X005282Y016067D01*
X005403Y016187D01*
X005434Y016263D01*
X005465Y016187D01*
X005585Y016067D01*
X005743Y016002D01*
X005913Y016002D01*
X006070Y016067D01*
X006190Y016187D01*
X006221Y016263D01*
X006253Y016187D01*
X006373Y016067D01*
X006530Y016002D01*
X006700Y016002D01*
X006857Y016067D01*
X006977Y016187D01*
X007009Y016263D01*
X007040Y016187D01*
X007160Y016067D01*
X007317Y016002D01*
X007487Y016002D01*
X007645Y016067D01*
X007765Y016187D01*
X007796Y016263D01*
X007827Y016187D01*
X007948Y016067D01*
X008105Y016002D01*
X008275Y016002D01*
X008432Y016067D01*
X008552Y016187D01*
X008584Y016263D01*
X008615Y016187D01*
X008735Y016067D01*
X008892Y016002D01*
X009062Y016002D01*
X009219Y016067D01*
X009340Y016187D01*
X009371Y016263D01*
X009402Y016187D01*
X009522Y016067D01*
X009680Y016002D01*
X009850Y016002D01*
X010007Y016067D01*
X010119Y016179D02*
X012611Y016179D01*
X012611Y015883D02*
X012344Y015883D01*
X012079Y015656D02*
X012079Y015606D01*
X015929Y015606D01*
X016479Y016156D01*
X017079Y016156D01*
X017091Y016135D01*
X017199Y015686D02*
X018471Y015686D01*
X018432Y015588D02*
X017615Y015588D01*
X017615Y015489D02*
X018432Y015489D01*
X018550Y015785D02*
X017615Y015785D01*
X017615Y015883D02*
X020444Y015883D01*
X020444Y015785D02*
X019007Y015785D01*
X019087Y015686D02*
X020444Y015686D01*
X020444Y015588D02*
X019126Y015588D01*
X019126Y015489D02*
X020444Y015489D01*
X020444Y015391D02*
X019100Y015391D01*
X019039Y015292D02*
X020444Y015292D01*
X020444Y015982D02*
X017557Y015982D01*
X017557Y016081D02*
X020444Y016081D01*
X020444Y016179D02*
X017557Y016179D01*
X017557Y016278D02*
X020444Y016278D01*
X020444Y016376D02*
X017557Y016376D01*
X017557Y016475D02*
X017756Y016475D01*
X017777Y016454D02*
X017689Y016541D01*
X017689Y016829D01*
X018163Y016829D01*
X018163Y016929D01*
X017689Y016929D01*
X017689Y017217D01*
X017777Y017305D01*
X018164Y017305D01*
X018164Y016929D01*
X018263Y016929D01*
X018263Y017305D01*
X018650Y017305D01*
X018737Y017217D01*
X018737Y016929D01*
X018264Y016929D01*
X018264Y016829D01*
X018737Y016829D01*
X018737Y016541D01*
X018650Y016454D01*
X018263Y016454D01*
X018263Y016829D01*
X018164Y016829D01*
X018164Y016454D01*
X017777Y016454D01*
X017689Y016573D02*
X017557Y016573D01*
X017557Y016672D02*
X017689Y016672D01*
X017689Y016770D02*
X017557Y016770D01*
X017484Y016869D02*
X018163Y016869D01*
X018164Y016967D02*
X018263Y016967D01*
X018264Y016869D02*
X020444Y016869D01*
X020444Y016967D02*
X018737Y016967D01*
X018737Y017066D02*
X020444Y017066D01*
X020444Y017164D02*
X018737Y017164D01*
X018691Y017263D02*
X020444Y017263D01*
X020444Y017362D02*
X001299Y017362D01*
X001299Y017460D02*
X020444Y017460D01*
X020444Y017559D02*
X001299Y017559D01*
X001299Y017657D02*
X020444Y017657D01*
X020444Y017756D02*
X001299Y017756D01*
X001299Y017854D02*
X020444Y017854D01*
X020444Y017953D02*
X001299Y017953D01*
X001299Y017263D02*
X017736Y017263D01*
X017689Y017164D02*
X001299Y017164D01*
X001299Y017066D02*
X017689Y017066D01*
X017689Y016967D02*
X001299Y016967D01*
X001299Y016869D02*
X016699Y016869D01*
X016190Y016179D02*
X013462Y016179D01*
X013462Y016081D02*
X016092Y016081D01*
X015993Y015982D02*
X013462Y015982D01*
X013462Y015883D02*
X015895Y015883D01*
X016419Y015785D02*
X016725Y015785D01*
X016650Y015883D02*
X016517Y015883D01*
X016626Y015194D02*
X013384Y015194D01*
X013462Y014307D02*
X014517Y014307D01*
X014616Y014208D02*
X013462Y014208D01*
X013462Y014110D02*
X014571Y014110D01*
X013482Y011942D02*
X013454Y011942D01*
X013553Y011843D02*
X013581Y011843D01*
X013652Y011745D02*
X013679Y011745D01*
X013750Y011646D02*
X013778Y011646D01*
X013849Y011548D02*
X013876Y011548D01*
X013947Y011449D02*
X013975Y011449D01*
X014046Y011350D02*
X014074Y011350D01*
X014144Y011252D02*
X014172Y011252D01*
X014243Y011153D02*
X014271Y011153D01*
X013929Y010606D02*
X015129Y010606D01*
X015629Y010106D01*
X016179Y010106D01*
X016000Y008985D02*
X018039Y008985D01*
X019271Y010168D02*
X020444Y010168D01*
X020444Y010266D02*
X019172Y010266D01*
X019074Y010365D02*
X020444Y010365D01*
X020444Y010464D02*
X018975Y010464D01*
X018876Y010562D02*
X020444Y010562D01*
X020444Y010661D02*
X018778Y010661D01*
X018679Y010759D02*
X020444Y010759D01*
X020444Y010858D02*
X018581Y010858D01*
X018482Y010956D02*
X020444Y010956D01*
X020444Y011055D02*
X018384Y011055D01*
X018285Y011153D02*
X020444Y011153D01*
X020444Y011252D02*
X018187Y011252D01*
X018557Y011350D02*
X018657Y011350D01*
X018657Y011449D02*
X018557Y011449D01*
X018557Y011548D02*
X018657Y011548D01*
X018657Y011646D02*
X018557Y011646D01*
X019131Y011646D02*
X020444Y011646D01*
X020444Y011548D02*
X019131Y011548D01*
X019131Y011449D02*
X020444Y011449D01*
X020444Y011350D02*
X019117Y011350D01*
X019229Y012306D02*
X019229Y013906D01*
X017879Y015256D01*
X018164Y016475D02*
X018263Y016475D01*
X018263Y016573D02*
X018164Y016573D01*
X018164Y016672D02*
X018263Y016672D01*
X018263Y016770D02*
X018164Y016770D01*
X018164Y017066D02*
X018263Y017066D01*
X018263Y017164D02*
X018164Y017164D01*
X018164Y017263D02*
X018263Y017263D01*
X018737Y016770D02*
X020444Y016770D01*
X020444Y016672D02*
X018737Y016672D01*
X018737Y016573D02*
X020444Y016573D01*
X020444Y016475D02*
X018671Y016475D01*
X018687Y018051D02*
X018071Y018051D01*
X018236Y018150D02*
X018521Y018150D01*
X018423Y018248D02*
X018335Y018248D01*
X018377Y018347D02*
X018381Y018347D01*
X019071Y018051D02*
X019687Y018051D01*
X019521Y018150D02*
X019236Y018150D01*
X019335Y018248D02*
X019423Y018248D01*
X019381Y018347D02*
X019377Y018347D01*
X020071Y018051D02*
X020444Y018051D01*
X020444Y018150D02*
X020236Y018150D01*
X020335Y018248D02*
X020444Y018248D01*
X020444Y018347D02*
X020377Y018347D01*
X020417Y018446D02*
X020444Y018446D01*
X020444Y018544D02*
X020419Y018544D01*
X020419Y018643D02*
X020444Y018643D01*
X020444Y018741D02*
X020387Y018741D01*
X020346Y018840D02*
X020444Y018840D01*
X020444Y018938D02*
X020260Y018938D01*
X017687Y018051D02*
X017071Y018051D01*
X017236Y018150D02*
X017521Y018150D01*
X017423Y018248D02*
X017335Y018248D01*
X017377Y018347D02*
X017381Y018347D01*
X015645Y020022D02*
X015165Y020022D01*
X015275Y019924D02*
X015511Y019924D01*
X015427Y019825D02*
X015352Y019825D01*
X014593Y020022D02*
X014165Y020022D01*
X014275Y019924D02*
X014483Y019924D01*
X014406Y019825D02*
X014352Y019825D01*
X013593Y020022D02*
X013165Y020022D01*
X013275Y019924D02*
X013483Y019924D01*
X013406Y019825D02*
X013352Y019825D01*
X012593Y020022D02*
X012165Y020022D01*
X012275Y019924D02*
X012483Y019924D01*
X012406Y019825D02*
X012352Y019825D01*
X011593Y020022D02*
X011165Y020022D01*
X011275Y019924D02*
X011483Y019924D01*
X011406Y019825D02*
X011352Y019825D01*
X010593Y020022D02*
X010165Y020022D01*
X010275Y019924D02*
X010483Y019924D01*
X010406Y019825D02*
X010352Y019825D01*
X009593Y020022D02*
X009165Y020022D01*
X009275Y019924D02*
X009483Y019924D01*
X009406Y019825D02*
X009352Y019825D01*
X008593Y020022D02*
X008165Y020022D01*
X008275Y019924D02*
X008483Y019924D01*
X008406Y019825D02*
X008352Y019825D01*
X007593Y020022D02*
X007165Y020022D01*
X007275Y019924D02*
X007483Y019924D01*
X007406Y019825D02*
X007352Y019825D01*
X007139Y016770D02*
X006879Y016770D01*
X006977Y016672D02*
X007009Y016596D01*
X007040Y016672D01*
X007048Y016179D02*
X006969Y016179D01*
X006871Y016081D02*
X007147Y016081D01*
X007658Y016081D02*
X007934Y016081D01*
X007836Y016179D02*
X007756Y016179D01*
X007666Y016770D02*
X007926Y016770D01*
X008454Y016770D02*
X008714Y016770D01*
X008615Y016672D02*
X008584Y016596D01*
X008552Y016672D01*
X008544Y016179D02*
X008623Y016179D01*
X008722Y016081D02*
X008445Y016081D01*
X009233Y016081D02*
X009509Y016081D01*
X009411Y016179D02*
X009331Y016179D01*
X009371Y016596D02*
X009340Y016672D01*
X009402Y016672D02*
X009371Y016596D01*
X009241Y016770D02*
X009501Y016770D01*
X010007Y016792D02*
X010127Y016672D01*
X012986Y016672D02*
X013086Y016672D01*
X013086Y016573D02*
X012986Y016573D01*
X012986Y016475D02*
X013086Y016475D01*
X010630Y013321D02*
X009078Y013321D01*
X009145Y012730D02*
X010563Y012730D01*
X010520Y012040D02*
X005977Y012040D01*
X005958Y011942D02*
X009222Y011942D01*
X009129Y011843D02*
X007425Y011843D01*
X007583Y011745D02*
X009089Y011745D01*
X009081Y011646D02*
X007648Y011646D01*
X007677Y011548D02*
X009097Y011548D01*
X009144Y011449D02*
X007677Y011449D01*
X007641Y011350D02*
X009209Y011350D01*
X009209Y011252D02*
X007567Y011252D01*
X007091Y011252D02*
X005817Y011252D01*
X005908Y011843D02*
X007232Y011843D01*
X009429Y011656D02*
X009429Y008756D01*
X009829Y010206D02*
X010429Y010806D01*
X010429Y010906D01*
X010675Y010661D02*
X013563Y010661D01*
X013465Y010759D02*
X010745Y010759D01*
X010777Y010858D02*
X013366Y010858D01*
X013268Y010956D02*
X010777Y010956D01*
X010744Y011055D02*
X013169Y011055D01*
X013071Y011153D02*
X010674Y011153D01*
X010114Y011055D02*
X009649Y011055D01*
X009649Y011153D02*
X010001Y011153D01*
X009891Y011252D02*
X009649Y011252D01*
X009649Y011350D02*
X009846Y011350D01*
X009831Y011449D02*
X009714Y011449D01*
X009761Y011548D02*
X009840Y011548D01*
X009881Y011646D02*
X009777Y011646D01*
X009769Y011745D02*
X009975Y011745D01*
X009728Y011843D02*
X010388Y011843D01*
X010429Y011942D02*
X009636Y011942D01*
X010179Y011456D02*
X013079Y011456D01*
X013929Y010606D01*
X013662Y010562D02*
X010507Y010562D01*
X010081Y010858D02*
X009649Y010858D01*
X009649Y010956D02*
X010081Y010956D01*
X010071Y010759D02*
X009649Y010759D01*
X009649Y010661D02*
X009972Y010661D01*
X009874Y010562D02*
X009649Y010562D01*
X006359Y016081D02*
X006083Y016081D01*
X006182Y016179D02*
X006261Y016179D01*
X006221Y016596D02*
X006190Y016672D01*
X006253Y016672D02*
X006221Y016596D01*
X006091Y016770D02*
X006351Y016770D01*
X005564Y016770D02*
X005304Y016770D01*
X005403Y016672D02*
X005434Y016596D01*
X005465Y016672D01*
X005474Y016179D02*
X005394Y016179D01*
X005296Y016081D02*
X005572Y016081D01*
X004785Y016081D02*
X004508Y016081D01*
X004607Y016179D02*
X004686Y016179D01*
X004646Y016596D02*
X004615Y016672D01*
X004678Y016672D02*
X004646Y016596D01*
X004517Y016770D02*
X004776Y016770D01*
X003989Y016770D02*
X003729Y016770D01*
X003202Y016770D02*
X002942Y016770D01*
X003040Y016672D02*
X003072Y016596D01*
X003103Y016672D01*
X003111Y016179D02*
X003032Y016179D01*
X002934Y016081D02*
X003210Y016081D01*
X003721Y016081D02*
X003997Y016081D01*
X003899Y016179D02*
X003819Y016179D01*
X002422Y016081D02*
X001299Y016081D01*
X001299Y016179D02*
X002324Y016179D01*
X002278Y016278D02*
X001299Y016278D01*
X001299Y016376D02*
X002251Y016376D01*
X002251Y016475D02*
X001299Y016475D01*
X001299Y016573D02*
X002275Y016573D01*
X002351Y012336D02*
X002809Y012336D01*
X003029Y009256D02*
X003529Y008756D01*
X003529Y008356D01*
X003271Y008591D02*
X001579Y008591D01*
X001579Y008493D02*
X003209Y008493D01*
X003181Y008394D02*
X001579Y008394D01*
X001579Y008296D02*
X003181Y008296D01*
X003218Y008197D02*
X001579Y008197D01*
X001579Y008099D02*
X002404Y008099D01*
X002311Y008000D02*
X001579Y008000D01*
X001579Y007901D02*
X002271Y007901D01*
X002251Y007803D02*
X001579Y007803D01*
X001579Y007704D02*
X002251Y007704D01*
X002283Y007606D02*
X002134Y007606D01*
X002291Y007507D02*
X002334Y007507D01*
X002388Y007409D02*
X002433Y007409D01*
X002923Y007409D02*
X003220Y007409D01*
X003122Y007507D02*
X003022Y007507D01*
X003045Y008000D02*
X003099Y008000D01*
X003191Y008099D02*
X002952Y008099D01*
X003284Y008690D02*
X001579Y008690D01*
X001579Y008788D02*
X003186Y008788D01*
X003087Y008887D02*
X001579Y008887D01*
X001579Y008985D02*
X002989Y008985D01*
X002890Y009084D02*
X001579Y009084D01*
X001579Y007606D02*
X001724Y007606D01*
X002771Y006817D02*
X002874Y006817D01*
X001533Y002974D02*
X001299Y002974D01*
X001299Y002876D02*
X001435Y002876D01*
X001386Y002777D02*
X001299Y002777D01*
X001299Y002679D02*
X001345Y002679D01*
X001339Y002580D02*
X001299Y002580D01*
X001299Y002482D02*
X001339Y002482D01*
X001366Y002383D02*
X001299Y002383D01*
X001299Y002284D02*
X001407Y002284D01*
X001486Y002186D02*
X001299Y002186D01*
X001299Y002087D02*
X001600Y002087D01*
X001548Y001989D02*
X001299Y001989D01*
X001299Y001890D02*
X001449Y001890D01*
X001392Y001792D02*
X001299Y001792D01*
X001299Y001693D02*
X001351Y001693D01*
X001339Y001595D02*
X001299Y001595D01*
X001299Y001496D02*
X001339Y001496D01*
X001360Y001398D02*
X001299Y001398D01*
X001299Y001299D02*
X001401Y001299D01*
X001471Y001200D02*
X001299Y001200D01*
X001299Y001102D02*
X001569Y001102D01*
X001299Y001003D02*
X020444Y001003D01*
X018715Y003073D02*
X018043Y003073D01*
X018224Y002974D02*
X018533Y002974D01*
X018435Y002876D02*
X018323Y002876D01*
X018372Y002777D02*
X018386Y002777D01*
X017715Y003073D02*
X017043Y003073D01*
X017224Y002974D02*
X017533Y002974D01*
X017435Y002876D02*
X017323Y002876D01*
X017372Y002777D02*
X017386Y002777D01*
X016715Y003073D02*
X016043Y003073D01*
X016224Y002974D02*
X016533Y002974D01*
X016435Y002876D02*
X016323Y002876D01*
X016372Y002777D02*
X016386Y002777D01*
X015715Y003073D02*
X015043Y003073D01*
X015224Y002974D02*
X015533Y002974D01*
X015435Y002876D02*
X015323Y002876D01*
X015372Y002777D02*
X015386Y002777D01*
X013929Y002876D02*
X013829Y002876D01*
X013829Y002974D02*
X013929Y002974D01*
X013561Y002974D02*
X013224Y002974D01*
X013323Y002876D02*
X013463Y002876D01*
X013408Y002777D02*
X013372Y002777D01*
X013357Y001299D02*
X013423Y001299D01*
X013499Y001200D02*
X013287Y001200D01*
X013188Y001102D02*
X013617Y001102D01*
X012569Y001102D02*
X012188Y001102D01*
X012287Y001200D02*
X012471Y001200D01*
X012401Y001299D02*
X012357Y001299D01*
X011569Y001102D02*
X011188Y001102D01*
X011287Y001200D02*
X011471Y001200D01*
X011401Y001299D02*
X011357Y001299D01*
X010569Y001102D02*
X010188Y001102D01*
X010287Y001200D02*
X010471Y001200D01*
X010401Y001299D02*
X010357Y001299D01*
X009569Y001102D02*
X009188Y001102D01*
X009287Y001200D02*
X009471Y001200D01*
X009401Y001299D02*
X009357Y001299D01*
X008569Y001102D02*
X008188Y001102D01*
X008287Y001200D02*
X008471Y001200D01*
X008401Y001299D02*
X008357Y001299D01*
X007569Y001102D02*
X007188Y001102D01*
X007287Y001200D02*
X007471Y001200D01*
X007401Y001299D02*
X007357Y001299D01*
X006569Y001102D02*
X004188Y001102D01*
X004287Y001200D02*
X006471Y001200D01*
X006401Y001299D02*
X004357Y001299D01*
X004398Y001398D02*
X006360Y001398D01*
X006339Y001496D02*
X004419Y001496D01*
X004419Y001595D02*
X006339Y001595D01*
X006351Y001693D02*
X004407Y001693D01*
X004366Y001792D02*
X006392Y001792D01*
X006449Y001890D02*
X004308Y001890D01*
X004210Y001989D02*
X006548Y001989D01*
X006600Y002087D02*
X004158Y002087D01*
X004272Y002186D02*
X006486Y002186D01*
X006407Y002284D02*
X004351Y002284D01*
X003401Y001299D02*
X003335Y001299D01*
X003258Y001200D02*
X003471Y001200D01*
X003569Y001102D02*
X003141Y001102D01*
X002929Y001102D02*
X002829Y001102D01*
X002829Y001200D02*
X002929Y001200D01*
X002929Y001299D02*
X002829Y001299D01*
X002829Y001398D02*
X002929Y001398D01*
X002929Y001496D02*
X002829Y001496D01*
X002829Y001606D02*
X002829Y002036D01*
X002829Y002506D01*
X002929Y002506D01*
X002929Y002036D01*
X002929Y001606D01*
X002829Y001606D01*
X002829Y001693D02*
X002929Y001693D01*
X002929Y001792D02*
X002829Y001792D01*
X002829Y001890D02*
X002929Y001890D01*
X002929Y001989D02*
X002829Y001989D01*
X002829Y002087D02*
X002929Y002087D01*
X002929Y002186D02*
X002829Y002186D01*
X002829Y002284D02*
X002929Y002284D01*
X002929Y002383D02*
X002829Y002383D01*
X002829Y002482D02*
X002929Y002482D01*
X002423Y001299D02*
X002357Y001299D01*
X002287Y001200D02*
X002499Y001200D01*
X002617Y001102D02*
X002188Y001102D01*
X005927Y002383D02*
X006366Y002383D01*
X006339Y002482D02*
X006025Y002482D01*
X006124Y002580D02*
X006339Y002580D01*
X006345Y002679D02*
X006222Y002679D01*
X006321Y002777D02*
X006386Y002777D01*
X006419Y002876D02*
X006435Y002876D01*
X006518Y002974D02*
X006533Y002974D01*
X006617Y003073D02*
X006684Y003073D01*
X006715Y003171D02*
X006783Y003171D01*
X008043Y003073D02*
X008715Y003073D01*
X008533Y002974D02*
X008224Y002974D01*
X008323Y002876D02*
X008435Y002876D01*
X008386Y002777D02*
X008372Y002777D01*
X009043Y003073D02*
X009715Y003073D01*
X009533Y002974D02*
X009224Y002974D01*
X009323Y002876D02*
X009435Y002876D01*
X009386Y002777D02*
X009372Y002777D01*
X010043Y003073D02*
X010715Y003073D01*
X010533Y002974D02*
X010224Y002974D01*
X010323Y002876D02*
X010435Y002876D01*
X010386Y002777D02*
X010372Y002777D01*
X011043Y003073D02*
X011715Y003073D01*
X011533Y002974D02*
X011224Y002974D01*
X011323Y002876D02*
X011435Y002876D01*
X011386Y002777D02*
X011372Y002777D01*
X019369Y010069D02*
X019706Y010069D01*
X019530Y009971D02*
X019468Y009971D01*
X020051Y010069D02*
X020444Y010069D01*
X020444Y009971D02*
X020228Y009971D01*
X020326Y009872D02*
X020444Y009872D01*
X020444Y009774D02*
X020373Y009774D01*
X020414Y009675D02*
X020444Y009675D01*
X020444Y009577D02*
X020419Y009577D01*
X020419Y009478D02*
X020444Y009478D01*
X020444Y009380D02*
X020390Y009380D01*
X020349Y009281D02*
X020444Y009281D01*
X020444Y009182D02*
X020269Y009182D01*
X020149Y009084D02*
X020444Y009084D01*
X020444Y008985D02*
X020213Y008985D01*
X020312Y008887D02*
X020444Y008887D01*
X020444Y008788D02*
X020367Y008788D01*
X020408Y008690D02*
X020444Y008690D01*
X020444Y008591D02*
X020419Y008591D01*
X020419Y008493D02*
X020444Y008493D01*
X020444Y008394D02*
X020396Y008394D01*
X020355Y008296D02*
X020444Y008296D01*
D21*
X017279Y003656D03*
D22*
X018329Y003856D03*
X018929Y004006D03*
X019329Y005056D03*
X015779Y009256D03*
X016179Y010106D03*
X015729Y010906D03*
X016029Y011206D03*
X013729Y009556D03*
X012879Y009256D03*
X012429Y009256D03*
X010429Y010906D03*
X010179Y011456D03*
X010729Y011756D03*
X010779Y013006D03*
X009429Y011656D03*
X008929Y013006D03*
X007329Y011506D03*
X005579Y011506D03*
X005629Y012056D03*
X004029Y011806D03*
X006079Y009556D03*
X007529Y009756D03*
X007629Y008856D03*
X009429Y008756D03*
X009829Y010206D03*
X012729Y013006D03*
X013279Y013406D03*
X013179Y014906D03*
X012079Y015656D03*
X011729Y014606D03*
X017779Y013606D03*
X019229Y012306D03*
X020029Y012006D03*
X018729Y016156D03*
X014079Y006806D03*
X012879Y004756D03*
X011879Y004906D03*
X011479Y006856D03*
X006738Y003547D03*
X003529Y008356D03*
D23*
X002679Y007769D02*
X002678Y007768D01*
X002129Y007106D02*
X002579Y006656D01*
X002579Y005656D01*
X002779Y005456D01*
X003429Y005456D01*
X003979Y005456D01*
X004529Y004906D01*
X006229Y004906D01*
X006229Y004556D01*
X006211Y004556D01*
X006738Y003547D02*
X005747Y002556D01*
X003879Y002556D01*
X003879Y001556D01*
X004579Y003256D02*
X002579Y003256D01*
X001879Y002556D01*
X001879Y001556D01*
X004579Y003256D02*
X004879Y003556D01*
X004879Y004456D01*
X005079Y005406D02*
X005029Y005456D01*
X004879Y005456D01*
X005079Y005406D02*
X007529Y005406D01*
X007679Y005256D01*
X007679Y004624D01*
X007747Y004556D01*
X006738Y003547D01*
X006879Y002556D02*
X006879Y001556D01*
X007879Y001556D02*
X007879Y002556D01*
X008879Y002556D02*
X008879Y001556D01*
X009879Y001556D02*
X009879Y002556D01*
X010879Y002556D02*
X010879Y001556D01*
X011879Y001556D02*
X011879Y002556D01*
X012879Y002556D02*
X012879Y001556D01*
X014879Y001556D02*
X014879Y002556D01*
X015879Y002556D02*
X015879Y001556D01*
X016879Y001556D02*
X016879Y002556D01*
X017879Y002556D02*
X017879Y001556D01*
X018879Y001556D02*
X018879Y002556D01*
X019879Y002556D02*
X019879Y001556D01*
X019879Y005556D02*
X019279Y006156D01*
X019279Y009806D01*
X017879Y011206D01*
X017879Y012006D01*
X018329Y012456D01*
X018329Y013856D01*
X017329Y014856D01*
X017179Y014856D01*
X017170Y014836D01*
X017129Y014856D01*
X013279Y014856D01*
X013229Y014906D01*
X013179Y014906D01*
X016579Y011506D02*
X016579Y009656D01*
X015429Y009656D01*
X014829Y010256D01*
X012979Y010256D01*
X009979Y007256D01*
X004479Y007256D01*
X003679Y006456D01*
X003429Y006456D01*
X002129Y007106D02*
X001929Y007106D01*
X001329Y006506D02*
X001329Y011056D01*
X001879Y011606D01*
X004029Y011806D02*
X004279Y012056D01*
X005629Y012056D01*
X005579Y011506D02*
X007329Y011506D01*
X001929Y006106D02*
X001729Y006106D01*
X001329Y006506D01*
X001979Y005056D02*
X001979Y005006D01*
X002429Y005006D01*
X002979Y004456D01*
X003429Y004456D01*
X016579Y011506D02*
X017779Y012706D01*
X017779Y013606D01*
X017879Y018556D02*
X017879Y019556D01*
X018879Y019556D02*
X018879Y018556D01*
X019879Y018556D02*
X019879Y019556D01*
X016879Y019556D02*
X016879Y018556D01*
X014879Y018556D02*
X014879Y019556D01*
X013879Y019556D02*
X013879Y018556D01*
X012879Y018556D02*
X012879Y019556D01*
X011879Y019556D02*
X011879Y018556D01*
X010879Y018556D02*
X010879Y019556D01*
X009879Y019556D02*
X009879Y018556D01*
X008879Y018556D02*
X008879Y019556D01*
X007879Y019556D02*
X007879Y018556D01*
X006879Y018556D02*
X006879Y019556D01*
M02*
