G75*
G70*
%OFA0B0*%
%FSLAX24Y24*%
%IPPOS*%
%LPD*%
%AMOC8*
5,1,8,0,0,1.08239X$1,22.5*
%
%ADD10C,0.0000*%
%ADD11C,0.0740*%
%ADD12C,0.0520*%
%ADD13C,0.0515*%
%ADD14R,0.0551X0.0709*%
%ADD15R,0.0748X0.0551*%
%ADD16R,0.0591X0.0315*%
%ADD17C,0.0560*%
%ADD18R,0.0748X0.1339*%
%ADD19OC8,0.1000*%
%ADD20R,0.0472X0.0984*%
%ADD21R,0.0500X0.0250*%
%ADD22R,0.0709X0.0630*%
%ADD23R,0.0250X0.0500*%
%ADD24R,0.0236X0.0866*%
%ADD25R,0.0630X0.0709*%
%ADD26C,0.0100*%
%ADD27C,0.0396*%
%ADD28C,0.0160*%
%ADD29C,0.0120*%
D10*
X000897Y000806D02*
X000897Y020301D01*
X020382Y020291D01*
X020382Y000806D01*
X000897Y000806D01*
X018370Y013790D02*
X018372Y013816D01*
X018378Y013842D01*
X018388Y013867D01*
X018401Y013890D01*
X018417Y013910D01*
X018437Y013928D01*
X018459Y013943D01*
X018482Y013955D01*
X018508Y013963D01*
X018534Y013967D01*
X018560Y013967D01*
X018586Y013963D01*
X018612Y013955D01*
X018636Y013943D01*
X018657Y013928D01*
X018677Y013910D01*
X018693Y013890D01*
X018706Y013867D01*
X018716Y013842D01*
X018722Y013816D01*
X018724Y013790D01*
X018722Y013764D01*
X018716Y013738D01*
X018706Y013713D01*
X018693Y013690D01*
X018677Y013670D01*
X018657Y013652D01*
X018635Y013637D01*
X018612Y013625D01*
X018586Y013617D01*
X018560Y013613D01*
X018534Y013613D01*
X018508Y013617D01*
X018482Y013625D01*
X018458Y013637D01*
X018437Y013652D01*
X018417Y013670D01*
X018401Y013690D01*
X018388Y013713D01*
X018378Y013738D01*
X018372Y013764D01*
X018370Y013790D01*
X018370Y015522D02*
X018372Y015548D01*
X018378Y015574D01*
X018388Y015599D01*
X018401Y015622D01*
X018417Y015642D01*
X018437Y015660D01*
X018459Y015675D01*
X018482Y015687D01*
X018508Y015695D01*
X018534Y015699D01*
X018560Y015699D01*
X018586Y015695D01*
X018612Y015687D01*
X018636Y015675D01*
X018657Y015660D01*
X018677Y015642D01*
X018693Y015622D01*
X018706Y015599D01*
X018716Y015574D01*
X018722Y015548D01*
X018724Y015522D01*
X018722Y015496D01*
X018716Y015470D01*
X018706Y015445D01*
X018693Y015422D01*
X018677Y015402D01*
X018657Y015384D01*
X018635Y015369D01*
X018612Y015357D01*
X018586Y015349D01*
X018560Y015345D01*
X018534Y015345D01*
X018508Y015349D01*
X018482Y015357D01*
X018458Y015369D01*
X018437Y015384D01*
X018417Y015402D01*
X018401Y015422D01*
X018388Y015445D01*
X018378Y015470D01*
X018372Y015496D01*
X018370Y015522D01*
D11*
X018647Y018556D03*
X017647Y018556D03*
X016647Y018556D03*
X015647Y018556D03*
X014647Y018556D03*
X013647Y018556D03*
X012647Y018556D03*
X011647Y018556D03*
X010647Y018556D03*
X009647Y018556D03*
X008647Y018556D03*
X007647Y018556D03*
X006647Y018556D03*
X006647Y019556D03*
X007647Y019556D03*
X008647Y019556D03*
X009647Y019556D03*
X010647Y019556D03*
X011647Y019556D03*
X012647Y019556D03*
X013647Y019556D03*
X014647Y019556D03*
X015647Y019556D03*
X016647Y019556D03*
X017647Y019556D03*
X018647Y019556D03*
X019647Y019556D03*
X019647Y018556D03*
X019647Y002556D03*
X019647Y001556D03*
X018647Y001556D03*
X017647Y001556D03*
X016647Y001556D03*
X015647Y001556D03*
X014647Y001556D03*
X013647Y001556D03*
X012647Y001556D03*
X011647Y001556D03*
X010647Y001556D03*
X009647Y001556D03*
X008647Y001556D03*
X007647Y001556D03*
X006647Y001556D03*
X006647Y002556D03*
X007647Y002556D03*
X008647Y002556D03*
X009647Y002556D03*
X010647Y002556D03*
X011647Y002556D03*
X012647Y002556D03*
X013647Y002556D03*
X014647Y002556D03*
X015647Y002556D03*
X016647Y002556D03*
X017647Y002556D03*
X018647Y002556D03*
X003647Y002556D03*
X002647Y002556D03*
X002647Y001556D03*
X003647Y001556D03*
X001647Y001556D03*
X001647Y002556D03*
X001697Y006106D03*
X001697Y007106D03*
X001647Y008406D03*
X001647Y009406D03*
X001647Y010406D03*
X001647Y011406D03*
X001647Y012406D03*
X001647Y013406D03*
X001647Y014556D03*
X001647Y015556D03*
X001647Y016556D03*
X001647Y017556D03*
X001647Y018556D03*
X001647Y019556D03*
D12*
X012247Y007206D03*
X014147Y007206D03*
X016347Y006806D03*
X017347Y006806D03*
D13*
X009940Y007768D03*
X009153Y007768D03*
X008366Y007768D03*
X007578Y007768D03*
X006791Y007768D03*
X006003Y007768D03*
X005216Y007768D03*
X004429Y007768D03*
X003641Y007768D03*
X002854Y007768D03*
X002854Y016430D03*
X003641Y016430D03*
X004429Y016430D03*
X005216Y016430D03*
X006003Y016430D03*
X006791Y016430D03*
X007578Y016430D03*
X008366Y016430D03*
X009153Y016430D03*
X009940Y016430D03*
D14*
X013804Y016849D03*
X013804Y014605D03*
D15*
X018982Y017479D03*
X019375Y012302D03*
D16*
X017860Y014137D03*
X017702Y014570D03*
X017860Y015003D03*
X017938Y015436D03*
X017860Y015869D03*
X017938Y016302D03*
X017860Y016735D03*
X017860Y017168D03*
D17*
X005577Y006406D02*
X005017Y006406D01*
X005017Y005406D02*
X005577Y005406D01*
X005577Y004406D02*
X005017Y004406D01*
X003877Y004406D02*
X003317Y004406D01*
X003317Y005406D02*
X003877Y005406D01*
X003877Y006406D02*
X003317Y006406D01*
D18*
X006879Y004556D03*
X008415Y004556D03*
D19*
X001747Y005006D03*
X001747Y003856D03*
D20*
X012997Y004406D03*
X014297Y004406D03*
D21*
X014197Y006129D03*
X014197Y006483D03*
X012297Y006483D03*
X012297Y006129D03*
X011997Y004706D03*
X011997Y004356D03*
X011997Y004006D03*
X016347Y005829D03*
X016347Y006183D03*
X017347Y006183D03*
X017347Y005829D03*
X005497Y008529D03*
X005497Y008883D03*
D22*
X010397Y005157D03*
X010397Y004055D03*
X010997Y009855D03*
X011997Y009895D03*
X012997Y009855D03*
X013997Y009855D03*
X014997Y009855D03*
X015997Y009855D03*
X015997Y010957D03*
X014997Y010957D03*
X013997Y010957D03*
X012997Y010957D03*
X011997Y010997D03*
X010997Y010957D03*
X011097Y014055D03*
X010097Y014055D03*
X009097Y014055D03*
X008097Y014055D03*
X007097Y014055D03*
X007097Y015157D03*
X008097Y015157D03*
X009097Y015157D03*
X010097Y015157D03*
X011097Y015157D03*
X012097Y015157D03*
X012097Y014055D03*
X002997Y017955D03*
X002997Y019057D03*
D23*
X003747Y012156D03*
X004097Y012156D03*
X004447Y012156D03*
X005647Y012156D03*
X005997Y012156D03*
X006347Y012156D03*
X007020Y008606D03*
X007374Y008606D03*
X008220Y008606D03*
X008574Y008606D03*
X018747Y004156D03*
X019097Y004156D03*
X019447Y004156D03*
D24*
X019647Y007133D03*
X019147Y007133D03*
X018647Y007133D03*
X018147Y007133D03*
X018147Y009180D03*
X018647Y009180D03*
X019147Y009180D03*
X019647Y009180D03*
D25*
X019648Y005456D03*
X018546Y005456D03*
D26*
X018596Y005438D02*
X019183Y005438D01*
X019183Y005536D02*
X019011Y005536D01*
X019011Y005506D02*
X019011Y005811D01*
X019183Y005638D01*
X019183Y005040D01*
X019271Y004952D01*
X019360Y004952D01*
X019347Y004939D01*
X018964Y004556D01*
X018934Y004556D01*
X018850Y004556D01*
X018840Y004566D01*
X018820Y004586D01*
X018800Y004586D01*
X018434Y004952D01*
X018496Y004952D01*
X018496Y005406D01*
X018596Y005406D01*
X018596Y004952D01*
X018881Y004952D01*
X018919Y004962D01*
X018953Y004982D01*
X018981Y005010D01*
X019001Y005044D01*
X019011Y005082D01*
X019011Y005406D01*
X018596Y005406D01*
X018596Y005506D01*
X019011Y005506D01*
X019011Y005635D02*
X019183Y005635D01*
X019088Y005733D02*
X019011Y005733D01*
X018861Y005961D02*
X018596Y005961D01*
X018596Y005506D01*
X018496Y005506D01*
X018496Y005961D01*
X018237Y005961D01*
X018237Y006143D01*
X018237Y006309D01*
X018037Y006509D01*
X018037Y006550D01*
X018138Y006550D01*
X018138Y007123D01*
X018156Y007123D01*
X018156Y006550D01*
X018285Y006550D01*
X018323Y006560D01*
X018357Y006580D01*
X018385Y006607D01*
X018394Y006623D01*
X018447Y006569D01*
X018447Y006540D01*
X018447Y006375D01*
X018861Y005961D01*
X018793Y006029D02*
X018237Y006029D01*
X018237Y006128D02*
X018694Y006128D01*
X018595Y006226D02*
X018237Y006226D01*
X018221Y006325D02*
X018497Y006325D01*
X018447Y006423D02*
X018123Y006423D01*
X018037Y006522D02*
X018447Y006522D01*
X018396Y006620D02*
X018392Y006620D01*
X018156Y006620D02*
X018138Y006620D01*
X018138Y006719D02*
X018156Y006719D01*
X018156Y006817D02*
X018138Y006817D01*
X018138Y006916D02*
X018156Y006916D01*
X018156Y007015D02*
X018138Y007015D01*
X018138Y007113D02*
X018156Y007113D01*
X018156Y007142D02*
X018138Y007142D01*
X018138Y007716D01*
X018009Y007716D01*
X017971Y007705D01*
X017937Y007686D01*
X017909Y007658D01*
X017889Y007624D01*
X017879Y007585D01*
X017879Y007467D01*
X017397Y007949D01*
X017397Y008064D01*
X017492Y008159D01*
X017545Y008287D01*
X017545Y008401D01*
X017650Y008296D01*
X018437Y008296D01*
X018437Y007686D01*
X018394Y007643D01*
X018385Y007658D01*
X018357Y007686D01*
X018323Y007705D01*
X018285Y007716D01*
X018156Y007716D01*
X018156Y007142D01*
X018156Y007212D02*
X018138Y007212D01*
X018138Y007310D02*
X018156Y007310D01*
X018156Y007409D02*
X018138Y007409D01*
X018138Y007507D02*
X018156Y007507D01*
X018156Y007606D02*
X018138Y007606D01*
X018138Y007704D02*
X018156Y007704D01*
X018325Y007704D02*
X018437Y007704D01*
X018437Y007803D02*
X017543Y007803D01*
X017445Y007901D02*
X018437Y007901D01*
X018437Y008000D02*
X017397Y008000D01*
X017431Y008099D02*
X018437Y008099D01*
X018437Y008197D02*
X017508Y008197D01*
X017545Y008296D02*
X018437Y008296D01*
X017969Y007704D02*
X017642Y007704D01*
X017740Y007606D02*
X017884Y007606D01*
X017879Y007507D02*
X017839Y007507D01*
X017837Y007226D02*
X017837Y006426D01*
X018037Y006226D01*
X018037Y005066D01*
X018717Y004386D01*
X018737Y004386D01*
X018757Y004366D01*
X018757Y004186D01*
X018747Y004156D01*
X018472Y004157D02*
X017547Y004157D01*
X017547Y004255D02*
X018472Y004255D01*
X018472Y004348D02*
X018472Y003844D01*
X018510Y003806D01*
X018439Y003806D01*
X018344Y003901D01*
X018216Y003954D01*
X018078Y003954D01*
X017950Y003901D01*
X017852Y003803D01*
X017799Y003676D01*
X017799Y003537D01*
X017852Y003409D01*
X017950Y003311D01*
X018078Y003258D01*
X018216Y003258D01*
X018344Y003311D01*
X018439Y003406D01*
X019064Y003406D01*
X019230Y003406D01*
X019520Y003696D01*
X019534Y003696D01*
X019594Y003756D01*
X019634Y003756D01*
X019722Y003844D01*
X019722Y004468D01*
X019634Y004556D01*
X019530Y004556D01*
X019630Y004656D01*
X019864Y004656D01*
X020030Y004656D01*
X020232Y004859D01*
X020232Y000956D01*
X001047Y000956D01*
X001047Y020151D01*
X020232Y020141D01*
X020232Y014466D01*
X020116Y014514D01*
X019978Y014514D01*
X019897Y014481D01*
X019897Y018097D01*
X019942Y018115D01*
X020088Y018262D01*
X020167Y018453D01*
X020167Y018660D01*
X020088Y018851D01*
X019942Y018997D01*
X019877Y019024D01*
X019877Y019089D01*
X019942Y019115D01*
X020088Y019262D01*
X020167Y019453D01*
X020167Y019660D01*
X020088Y019851D01*
X019942Y019997D01*
X019750Y020076D01*
X019544Y020076D01*
X019352Y019997D01*
X019206Y019851D01*
X019147Y019708D01*
X019088Y019851D01*
X018942Y019997D01*
X018750Y020076D01*
X018544Y020076D01*
X018352Y019997D01*
X018206Y019851D01*
X018147Y019708D01*
X018088Y019851D01*
X017942Y019997D01*
X017750Y020076D01*
X017544Y020076D01*
X017352Y019997D01*
X017206Y019851D01*
X017147Y019708D01*
X017088Y019851D01*
X016942Y019997D01*
X016750Y020076D01*
X016544Y020076D01*
X016352Y019997D01*
X016206Y019851D01*
X016146Y019704D01*
X016129Y019756D01*
X016092Y019829D01*
X016044Y019895D01*
X015986Y019953D01*
X015920Y020001D01*
X015847Y020038D01*
X015769Y020063D01*
X015697Y020075D01*
X015697Y019606D01*
X015597Y019606D01*
X015597Y020075D01*
X015525Y020063D01*
X015447Y020038D01*
X015374Y020001D01*
X015308Y019953D01*
X015250Y019895D01*
X015202Y019829D01*
X015165Y019756D01*
X015148Y019704D01*
X015088Y019851D01*
X014942Y019997D01*
X014750Y020076D01*
X014544Y020076D01*
X014352Y019997D01*
X014206Y019851D01*
X014147Y019708D01*
X014088Y019851D01*
X013942Y019997D01*
X013750Y020076D01*
X013544Y020076D01*
X013352Y019997D01*
X013206Y019851D01*
X013147Y019708D01*
X013088Y019851D01*
X012942Y019997D01*
X012750Y020076D01*
X012544Y020076D01*
X012352Y019997D01*
X012206Y019851D01*
X012147Y019708D01*
X012088Y019851D01*
X011942Y019997D01*
X011750Y020076D01*
X011544Y020076D01*
X011352Y019997D01*
X011206Y019851D01*
X011147Y019708D01*
X011088Y019851D01*
X010942Y019997D01*
X010750Y020076D01*
X010544Y020076D01*
X010352Y019997D01*
X010206Y019851D01*
X010147Y019708D01*
X010088Y019851D01*
X009942Y019997D01*
X009750Y020076D01*
X009544Y020076D01*
X009352Y019997D01*
X009206Y019851D01*
X009147Y019708D01*
X009088Y019851D01*
X008942Y019997D01*
X008750Y020076D01*
X008544Y020076D01*
X008352Y019997D01*
X008206Y019851D01*
X008147Y019708D01*
X008088Y019851D01*
X007942Y019997D01*
X007750Y020076D01*
X007544Y020076D01*
X007352Y019997D01*
X007206Y019851D01*
X007147Y019708D01*
X007088Y019851D01*
X006942Y019997D01*
X006750Y020076D01*
X006544Y020076D01*
X006352Y019997D01*
X006206Y019851D01*
X006127Y019660D01*
X006127Y019453D01*
X006206Y019262D01*
X006352Y019115D01*
X006417Y019089D01*
X006417Y019024D01*
X006352Y018997D01*
X006206Y018851D01*
X006127Y018660D01*
X006127Y018453D01*
X006206Y018262D01*
X006352Y018115D01*
X006544Y018036D01*
X006750Y018036D01*
X006942Y018115D01*
X007088Y018262D01*
X007147Y018405D01*
X007206Y018262D01*
X007352Y018115D01*
X007544Y018036D01*
X007750Y018036D01*
X007942Y018115D01*
X008088Y018262D01*
X008147Y018405D01*
X008206Y018262D01*
X008352Y018115D01*
X008544Y018036D01*
X008750Y018036D01*
X008942Y018115D01*
X009088Y018262D01*
X009147Y018405D01*
X009206Y018262D01*
X009352Y018115D01*
X009544Y018036D01*
X009750Y018036D01*
X009942Y018115D01*
X010088Y018262D01*
X010147Y018405D01*
X010206Y018262D01*
X010352Y018115D01*
X010544Y018036D01*
X010750Y018036D01*
X010942Y018115D01*
X011088Y018262D01*
X011147Y018405D01*
X011206Y018262D01*
X011352Y018115D01*
X011544Y018036D01*
X011750Y018036D01*
X011942Y018115D01*
X012088Y018262D01*
X012147Y018405D01*
X012206Y018262D01*
X012352Y018115D01*
X012544Y018036D01*
X012750Y018036D01*
X012942Y018115D01*
X013088Y018262D01*
X013147Y018405D01*
X013206Y018262D01*
X013352Y018115D01*
X013544Y018036D01*
X013750Y018036D01*
X013942Y018115D01*
X013998Y018172D01*
X014764Y017406D01*
X014930Y017406D01*
X017433Y017406D01*
X017414Y017388D01*
X017414Y016948D01*
X017414Y016906D01*
X016214Y016906D01*
X016097Y016789D01*
X015614Y016306D01*
X012480Y016306D01*
X012445Y016341D01*
X012445Y016476D01*
X012392Y016603D01*
X012294Y016701D01*
X012166Y016754D01*
X012028Y016754D01*
X011900Y016701D01*
X011802Y016603D01*
X011749Y016476D01*
X011749Y016337D01*
X011802Y016209D01*
X011900Y016111D01*
X012028Y016058D01*
X012162Y016058D01*
X012197Y016023D01*
X012314Y015906D01*
X012912Y015906D01*
X012667Y015662D01*
X012667Y015651D01*
X012576Y015560D01*
X012513Y015622D01*
X011681Y015622D01*
X011597Y015539D01*
X011513Y015622D01*
X011327Y015622D01*
X011327Y016361D01*
X012242Y017276D01*
X012835Y017276D01*
X012850Y017261D01*
X012978Y017208D01*
X013116Y017208D01*
X013244Y017261D01*
X013259Y017276D01*
X013398Y017276D01*
X013389Y017261D01*
X013379Y017223D01*
X013379Y016899D01*
X013754Y016899D01*
X013754Y016799D01*
X013379Y016799D01*
X013379Y016475D01*
X013389Y016437D01*
X013409Y016403D01*
X013437Y016375D01*
X013471Y016355D01*
X013509Y016345D01*
X013755Y016345D01*
X013755Y016799D01*
X013854Y016799D01*
X013854Y016345D01*
X014100Y016345D01*
X014138Y016355D01*
X014172Y016375D01*
X014200Y016403D01*
X014220Y016437D01*
X014230Y016475D01*
X014230Y016799D01*
X013855Y016799D01*
X013855Y016899D01*
X014230Y016899D01*
X014230Y017185D01*
X014294Y017211D01*
X014392Y017309D01*
X014445Y017437D01*
X014445Y017576D01*
X014392Y017703D01*
X014294Y017801D01*
X014166Y017854D01*
X014028Y017854D01*
X013900Y017801D01*
X013835Y017736D01*
X013349Y017736D01*
X013342Y017753D01*
X013244Y017851D01*
X013116Y017904D01*
X012978Y017904D01*
X012850Y017851D01*
X012752Y017753D01*
X012745Y017736D01*
X012242Y017736D01*
X012052Y017736D01*
X011097Y016781D01*
X010292Y017586D01*
X010102Y017586D01*
X009092Y017586D01*
X008902Y017586D01*
X008802Y017486D01*
X004069Y017486D01*
X004092Y017509D01*
X004145Y017637D01*
X004145Y017776D01*
X004092Y017903D01*
X003994Y018001D01*
X003866Y018054D01*
X003728Y018054D01*
X003600Y018001D01*
X003502Y017903D01*
X003501Y017902D01*
X003501Y018332D01*
X003413Y018420D01*
X002581Y018420D01*
X002493Y018332D01*
X002493Y018036D01*
X002140Y018388D01*
X002167Y018453D01*
X002167Y018660D01*
X002147Y018708D01*
X002276Y018708D01*
X002404Y018761D01*
X002493Y018850D01*
X002493Y018680D01*
X002581Y018593D01*
X003413Y018593D01*
X003501Y018680D01*
X003501Y019435D01*
X003413Y019522D01*
X003305Y019522D01*
X003312Y019529D01*
X003365Y019657D01*
X003365Y019796D01*
X003312Y019923D01*
X003214Y020021D01*
X003086Y020074D01*
X002948Y020074D01*
X002820Y020021D01*
X002722Y019923D01*
X002673Y019806D01*
X002106Y019806D01*
X002088Y019851D01*
X001942Y019997D01*
X001750Y020076D01*
X001544Y020076D01*
X001352Y019997D01*
X001206Y019851D01*
X001127Y019660D01*
X001127Y019453D01*
X001206Y019262D01*
X001352Y019115D01*
X001495Y019056D01*
X001352Y018997D01*
X001206Y018851D01*
X001127Y018660D01*
X001127Y018453D01*
X001206Y018262D01*
X001352Y018115D01*
X001499Y018055D01*
X001447Y018038D01*
X001374Y018001D01*
X001308Y017953D01*
X001047Y017953D01*
X001047Y018051D02*
X001488Y018051D01*
X001318Y018150D02*
X001047Y018150D01*
X001047Y018248D02*
X001219Y018248D01*
X001171Y018347D02*
X001047Y018347D01*
X001047Y018446D02*
X001130Y018446D01*
X001127Y018544D02*
X001047Y018544D01*
X001047Y018643D02*
X001127Y018643D01*
X001161Y018741D02*
X001047Y018741D01*
X001047Y018840D02*
X001202Y018840D01*
X001294Y018938D02*
X001047Y018938D01*
X001047Y019037D02*
X001448Y019037D01*
X001333Y019135D02*
X001047Y019135D01*
X001047Y019234D02*
X001234Y019234D01*
X001177Y019332D02*
X001047Y019332D01*
X001047Y019431D02*
X001136Y019431D01*
X001127Y019530D02*
X001047Y019530D01*
X001047Y019628D02*
X001127Y019628D01*
X001155Y019727D02*
X001047Y019727D01*
X001047Y019825D02*
X001196Y019825D01*
X001279Y019924D02*
X001047Y019924D01*
X001047Y020022D02*
X001413Y020022D01*
X001047Y020121D02*
X020232Y020121D01*
X020232Y020022D02*
X019881Y020022D01*
X020015Y019924D02*
X020232Y019924D01*
X020232Y019825D02*
X020098Y019825D01*
X020139Y019727D02*
X020232Y019727D01*
X020232Y019628D02*
X020167Y019628D01*
X020167Y019530D02*
X020232Y019530D01*
X020232Y019431D02*
X020158Y019431D01*
X020117Y019332D02*
X020232Y019332D01*
X020232Y019234D02*
X020060Y019234D01*
X019961Y019135D02*
X020232Y019135D01*
X020232Y019037D02*
X019877Y019037D01*
X020000Y018938D02*
X020232Y018938D01*
X020232Y018840D02*
X020092Y018840D01*
X020133Y018741D02*
X020232Y018741D01*
X020232Y018643D02*
X020167Y018643D01*
X020167Y018544D02*
X020232Y018544D01*
X020232Y018446D02*
X020164Y018446D01*
X020123Y018347D02*
X020232Y018347D01*
X020232Y018248D02*
X020075Y018248D01*
X019976Y018150D02*
X020232Y018150D01*
X020232Y018051D02*
X019897Y018051D01*
X019897Y017953D02*
X020232Y017953D01*
X020232Y017854D02*
X019897Y017854D01*
X019897Y017756D02*
X020232Y017756D01*
X020232Y017657D02*
X019897Y017657D01*
X019897Y017559D02*
X020232Y017559D01*
X020232Y017460D02*
X019897Y017460D01*
X019897Y017362D02*
X020232Y017362D01*
X020232Y017263D02*
X019897Y017263D01*
X019897Y017164D02*
X020232Y017164D01*
X020232Y017066D02*
X019897Y017066D01*
X019897Y016967D02*
X020232Y016967D01*
X020232Y016869D02*
X019897Y016869D01*
X019897Y016770D02*
X020232Y016770D01*
X020232Y016672D02*
X019897Y016672D01*
X019897Y016573D02*
X020232Y016573D01*
X020232Y016475D02*
X019897Y016475D01*
X019897Y016376D02*
X020232Y016376D01*
X020232Y016278D02*
X019897Y016278D01*
X019897Y016179D02*
X020232Y016179D01*
X020232Y016081D02*
X019897Y016081D01*
X019897Y015982D02*
X020232Y015982D01*
X020232Y015883D02*
X019897Y015883D01*
X019897Y015785D02*
X020232Y015785D01*
X020232Y015686D02*
X019897Y015686D01*
X019897Y015588D02*
X020232Y015588D01*
X020232Y015489D02*
X019897Y015489D01*
X019897Y015391D02*
X020232Y015391D01*
X020232Y015292D02*
X019897Y015292D01*
X019897Y015194D02*
X020232Y015194D01*
X020232Y015095D02*
X019897Y015095D01*
X019897Y014997D02*
X020232Y014997D01*
X020232Y014898D02*
X019897Y014898D01*
X019897Y014799D02*
X020232Y014799D01*
X020232Y014701D02*
X019897Y014701D01*
X019897Y014602D02*
X020232Y014602D01*
X020232Y014504D02*
X020142Y014504D01*
X019952Y014504D02*
X019897Y014504D01*
X019497Y014504D02*
X019097Y014504D01*
X019097Y014602D02*
X019497Y014602D01*
X019497Y014701D02*
X019097Y014701D01*
X019097Y014799D02*
X019497Y014799D01*
X019497Y014898D02*
X019097Y014898D01*
X019097Y014997D02*
X019497Y014997D01*
X019497Y015095D02*
X019097Y015095D01*
X019097Y015194D02*
X019497Y015194D01*
X019497Y015292D02*
X019097Y015292D01*
X019097Y015391D02*
X019497Y015391D01*
X019497Y015489D02*
X019097Y015489D01*
X019097Y015588D02*
X019497Y015588D01*
X019497Y015686D02*
X019097Y015686D01*
X019097Y015773D02*
X019097Y015939D01*
X019020Y016016D01*
X019104Y016051D01*
X019202Y016149D01*
X019255Y016277D01*
X019255Y016416D01*
X019202Y016543D01*
X019104Y016641D01*
X018982Y016692D01*
X019005Y016747D01*
X019005Y016886D01*
X018952Y017013D01*
X018912Y017054D01*
X018932Y017054D01*
X018932Y017429D01*
X019032Y017429D01*
X019032Y017054D01*
X019375Y017054D01*
X019414Y017064D01*
X019448Y017084D01*
X019476Y017111D01*
X019495Y017146D01*
X019497Y017152D01*
X019497Y013949D01*
X019402Y013853D01*
X019396Y013840D01*
X019097Y014139D01*
X019097Y015773D01*
X019097Y015785D02*
X019497Y015785D01*
X019497Y015883D02*
X019097Y015883D01*
X019054Y015982D02*
X019497Y015982D01*
X019497Y016081D02*
X019134Y016081D01*
X019214Y016179D02*
X019497Y016179D01*
X019497Y016278D02*
X019255Y016278D01*
X019255Y016376D02*
X019497Y016376D01*
X019497Y016475D02*
X019231Y016475D01*
X019172Y016573D02*
X019497Y016573D01*
X019497Y016672D02*
X019031Y016672D01*
X019005Y016770D02*
X019497Y016770D01*
X019497Y016869D02*
X019005Y016869D01*
X018971Y016967D02*
X019497Y016967D01*
X019497Y017066D02*
X019417Y017066D01*
X019032Y017066D02*
X018932Y017066D01*
X018932Y017164D02*
X019032Y017164D01*
X019032Y017263D02*
X018932Y017263D01*
X018932Y017362D02*
X019032Y017362D01*
X019032Y017529D02*
X018932Y017529D01*
X018932Y017905D01*
X018588Y017905D01*
X018550Y017894D01*
X018516Y017875D01*
X018488Y017847D01*
X018468Y017813D01*
X018458Y017774D01*
X018458Y017708D01*
X018360Y017806D01*
X018194Y017806D01*
X014930Y017806D01*
X014700Y018036D01*
X014750Y018036D01*
X014942Y018115D01*
X015088Y018262D01*
X015148Y018408D01*
X015165Y018357D01*
X015202Y018284D01*
X015250Y018218D01*
X015308Y018160D01*
X015374Y018112D01*
X015447Y018074D01*
X015525Y018049D01*
X015597Y018038D01*
X015597Y018506D01*
X015697Y018506D01*
X015697Y018038D01*
X015769Y018049D01*
X015847Y018074D01*
X015920Y018112D01*
X015986Y018160D01*
X016044Y018218D01*
X016092Y018284D01*
X016129Y018357D01*
X016146Y018408D01*
X016206Y018262D01*
X016352Y018115D01*
X016544Y018036D01*
X016750Y018036D01*
X016942Y018115D01*
X017088Y018262D01*
X017147Y018405D01*
X017206Y018262D01*
X017352Y018115D01*
X017544Y018036D01*
X017750Y018036D01*
X017942Y018115D01*
X018088Y018262D01*
X018147Y018405D01*
X018206Y018262D01*
X018352Y018115D01*
X018544Y018036D01*
X018750Y018036D01*
X018942Y018115D01*
X019088Y018262D01*
X019147Y018405D01*
X019206Y018262D01*
X019352Y018115D01*
X019497Y018056D01*
X019497Y017806D01*
X019495Y017813D01*
X019476Y017847D01*
X019448Y017875D01*
X019414Y017894D01*
X019375Y017905D01*
X019032Y017905D01*
X019032Y017529D01*
X019032Y017559D02*
X018932Y017559D01*
X018932Y017657D02*
X019032Y017657D01*
X019032Y017756D02*
X018932Y017756D01*
X018932Y017854D02*
X019032Y017854D01*
X018976Y018150D02*
X019318Y018150D01*
X019219Y018248D02*
X019075Y018248D01*
X019123Y018347D02*
X019171Y018347D01*
X019497Y018051D02*
X018787Y018051D01*
X018507Y018051D02*
X017787Y018051D01*
X017976Y018150D02*
X018318Y018150D01*
X018219Y018248D02*
X018075Y018248D01*
X018123Y018347D02*
X018171Y018347D01*
X018495Y017854D02*
X014882Y017854D01*
X014783Y017953D02*
X019497Y017953D01*
X019497Y017854D02*
X019468Y017854D01*
X019697Y018506D02*
X019647Y018556D01*
X019697Y018506D02*
X019697Y013656D01*
X019447Y013414D02*
X019500Y013361D01*
X019628Y013308D01*
X019766Y013308D01*
X019894Y013361D01*
X019987Y013454D01*
X019987Y008793D01*
X019915Y008721D01*
X019915Y009675D01*
X019827Y009763D01*
X019467Y009763D01*
X019397Y009693D01*
X019327Y009763D01*
X018967Y009763D01*
X018897Y009693D01*
X018882Y009708D01*
X019097Y009923D01*
X019097Y010089D01*
X019097Y010423D01*
X019447Y010773D01*
X019447Y010939D01*
X019447Y011439D01*
X019330Y011556D01*
X019030Y011856D01*
X018864Y011856D01*
X018580Y011856D01*
X018345Y012091D01*
X018345Y012226D01*
X018292Y012353D01*
X018210Y012436D01*
X018680Y012906D01*
X018964Y012906D01*
X019130Y012906D01*
X019330Y013106D01*
X019447Y013223D01*
X019447Y013414D01*
X019447Y013321D02*
X019596Y013321D01*
X019446Y013223D02*
X019987Y013223D01*
X019987Y013321D02*
X019798Y013321D01*
X019953Y013420D02*
X019987Y013420D01*
X019987Y013124D02*
X019348Y013124D01*
X019249Y013026D02*
X019987Y013026D01*
X019987Y012927D02*
X019151Y012927D01*
X019047Y013106D02*
X019247Y013306D01*
X019247Y013706D01*
X018897Y014056D01*
X018897Y015856D01*
X018097Y015856D01*
X017860Y015869D01*
X017909Y016273D02*
X017493Y016273D01*
X017493Y016167D01*
X017414Y016089D01*
X017414Y015686D01*
X016895Y015686D01*
X016895Y015726D01*
X016842Y015853D01*
X016744Y015951D01*
X016616Y016004D01*
X016478Y016004D01*
X016350Y015951D01*
X016252Y015853D01*
X016199Y015726D01*
X016199Y015587D01*
X016252Y015459D01*
X016350Y015361D01*
X016478Y015308D01*
X016570Y015308D01*
X016652Y015226D01*
X016842Y015226D01*
X017418Y015226D01*
X017414Y015222D01*
X017414Y015206D01*
X017074Y015206D01*
X016957Y015089D01*
X016347Y014479D01*
X016347Y014313D01*
X016347Y013966D01*
X015074Y013966D01*
X014957Y013849D01*
X014877Y013769D01*
X014877Y015326D01*
X015424Y015326D01*
X015452Y015259D01*
X015550Y015161D01*
X015678Y015108D01*
X015816Y015108D01*
X015944Y015161D01*
X016042Y015259D01*
X016095Y015387D01*
X016095Y015526D01*
X016042Y015653D01*
X015944Y015751D01*
X015816Y015804D01*
X015678Y015804D01*
X015634Y015786D01*
X015552Y015786D01*
X014742Y015786D01*
X014622Y015906D01*
X015614Y015906D01*
X015780Y015906D01*
X016380Y016506D01*
X017423Y016506D01*
X017493Y016437D01*
X017493Y016331D01*
X017909Y016331D01*
X017909Y016273D01*
X017909Y016278D02*
X016151Y016278D01*
X016250Y016376D02*
X017493Y016376D01*
X017455Y016475D02*
X016348Y016475D01*
X016297Y016706D02*
X017831Y016706D01*
X017860Y016735D01*
X017414Y016967D02*
X014230Y016967D01*
X014230Y017066D02*
X017414Y017066D01*
X017414Y017164D02*
X014230Y017164D01*
X014346Y017263D02*
X017414Y017263D01*
X017414Y017362D02*
X014414Y017362D01*
X014445Y017460D02*
X014710Y017460D01*
X014612Y017559D02*
X014445Y017559D01*
X014411Y017657D02*
X014513Y017657D01*
X014415Y017756D02*
X014340Y017756D01*
X014316Y017854D02*
X014166Y017854D01*
X014218Y017953D02*
X004043Y017953D01*
X004112Y017854D02*
X012857Y017854D01*
X012754Y017756D02*
X004145Y017756D01*
X004145Y017657D02*
X011973Y017657D01*
X011874Y017559D02*
X010320Y017559D01*
X010418Y017460D02*
X011776Y017460D01*
X011677Y017362D02*
X010517Y017362D01*
X010615Y017263D02*
X011579Y017263D01*
X011480Y017164D02*
X010714Y017164D01*
X010813Y017066D02*
X011381Y017066D01*
X011283Y016967D02*
X010911Y016967D01*
X011010Y016869D02*
X011184Y016869D01*
X011539Y016573D02*
X011789Y016573D01*
X011749Y016475D02*
X011441Y016475D01*
X011342Y016376D02*
X011749Y016376D01*
X011774Y016278D02*
X011327Y016278D01*
X011327Y016179D02*
X011832Y016179D01*
X011974Y016081D02*
X011327Y016081D01*
X011327Y015982D02*
X012238Y015982D01*
X012397Y016106D02*
X015697Y016106D01*
X016297Y016706D01*
X016177Y016869D02*
X013855Y016869D01*
X013854Y016770D02*
X013755Y016770D01*
X013755Y016672D02*
X013854Y016672D01*
X013854Y016573D02*
X013755Y016573D01*
X013755Y016475D02*
X013854Y016475D01*
X013854Y016376D02*
X013755Y016376D01*
X013435Y016376D02*
X012445Y016376D01*
X012445Y016475D02*
X013379Y016475D01*
X013379Y016573D02*
X012405Y016573D01*
X012324Y016672D02*
X013379Y016672D01*
X013379Y016770D02*
X011736Y016770D01*
X011638Y016672D02*
X011870Y016672D01*
X011835Y016869D02*
X013754Y016869D01*
X013379Y016967D02*
X011933Y016967D01*
X012032Y017066D02*
X013379Y017066D01*
X013379Y017164D02*
X012130Y017164D01*
X012229Y017263D02*
X012848Y017263D01*
X013246Y017263D02*
X013390Y017263D01*
X013340Y017756D02*
X013854Y017756D01*
X014028Y017854D02*
X013237Y017854D01*
X013318Y018150D02*
X012976Y018150D01*
X013075Y018248D02*
X013219Y018248D01*
X013171Y018347D02*
X013123Y018347D01*
X012787Y018051D02*
X013507Y018051D01*
X013787Y018051D02*
X014119Y018051D01*
X014021Y018150D02*
X013976Y018150D01*
X013897Y018556D02*
X013647Y018556D01*
X013897Y018556D02*
X014847Y017606D01*
X018277Y017606D01*
X018397Y017486D01*
X018397Y017076D01*
X018657Y016816D01*
X018458Y017756D02*
X018410Y017756D01*
X017507Y018051D02*
X016787Y018051D01*
X016976Y018150D02*
X017318Y018150D01*
X017219Y018248D02*
X017075Y018248D01*
X017123Y018347D02*
X017171Y018347D01*
X016507Y018051D02*
X015776Y018051D01*
X015697Y018051D02*
X015597Y018051D01*
X015518Y018051D02*
X014787Y018051D01*
X014976Y018150D02*
X015322Y018150D01*
X015228Y018248D02*
X015075Y018248D01*
X015123Y018347D02*
X015170Y018347D01*
X015597Y018347D02*
X015697Y018347D01*
X015697Y018248D02*
X015597Y018248D01*
X015597Y018150D02*
X015697Y018150D01*
X015972Y018150D02*
X016318Y018150D01*
X016219Y018248D02*
X016066Y018248D01*
X016124Y018347D02*
X016171Y018347D01*
X015697Y018446D02*
X015597Y018446D01*
X015597Y018606D02*
X015597Y019075D01*
X015597Y019506D01*
X015697Y019506D01*
X015697Y019075D01*
X015697Y018606D01*
X015597Y018606D01*
X015597Y018643D02*
X015697Y018643D01*
X015697Y018741D02*
X015597Y018741D01*
X015597Y018840D02*
X015697Y018840D01*
X015697Y018938D02*
X015597Y018938D01*
X015597Y019037D02*
X015697Y019037D01*
X015697Y019135D02*
X015597Y019135D01*
X015597Y019234D02*
X015697Y019234D01*
X015697Y019332D02*
X015597Y019332D01*
X015597Y019431D02*
X015697Y019431D01*
X015697Y019628D02*
X015597Y019628D01*
X015597Y019727D02*
X015697Y019727D01*
X015697Y019825D02*
X015597Y019825D01*
X015597Y019924D02*
X015697Y019924D01*
X015697Y020022D02*
X015597Y020022D01*
X015416Y020022D02*
X014881Y020022D01*
X015015Y019924D02*
X015279Y019924D01*
X015200Y019825D02*
X015098Y019825D01*
X015139Y019727D02*
X015156Y019727D01*
X015878Y020022D02*
X016413Y020022D01*
X016279Y019924D02*
X016015Y019924D01*
X016094Y019825D02*
X016196Y019825D01*
X016155Y019727D02*
X016138Y019727D01*
X016881Y020022D02*
X017413Y020022D01*
X017279Y019924D02*
X017015Y019924D01*
X017098Y019825D02*
X017196Y019825D01*
X017155Y019727D02*
X017139Y019727D01*
X017881Y020022D02*
X018413Y020022D01*
X018279Y019924D02*
X018015Y019924D01*
X018098Y019825D02*
X018196Y019825D01*
X018155Y019727D02*
X018139Y019727D01*
X018881Y020022D02*
X019413Y020022D01*
X019279Y019924D02*
X019015Y019924D01*
X019098Y019825D02*
X019196Y019825D01*
X019155Y019727D02*
X019139Y019727D01*
X016097Y016789D02*
X016097Y016789D01*
X016078Y016770D02*
X014230Y016770D01*
X014230Y016672D02*
X015980Y016672D01*
X015881Y016573D02*
X014230Y016573D01*
X014230Y016475D02*
X015783Y016475D01*
X015684Y016376D02*
X014173Y016376D01*
X014645Y015883D02*
X016282Y015883D01*
X016224Y015785D02*
X015863Y015785D01*
X016009Y015686D02*
X016199Y015686D01*
X016199Y015588D02*
X016069Y015588D01*
X016095Y015489D02*
X016239Y015489D01*
X016320Y015391D02*
X016095Y015391D01*
X016056Y015292D02*
X016586Y015292D01*
X016864Y014997D02*
X014877Y014997D01*
X014877Y015095D02*
X016963Y015095D01*
X017061Y015194D02*
X015977Y015194D01*
X015517Y015194D02*
X014877Y015194D01*
X014877Y015292D02*
X015438Y015292D01*
X014877Y014898D02*
X016766Y014898D01*
X016667Y014799D02*
X014877Y014799D01*
X014877Y014701D02*
X016569Y014701D01*
X016470Y014602D02*
X014877Y014602D01*
X014877Y014504D02*
X016372Y014504D01*
X016347Y014405D02*
X014877Y014405D01*
X014877Y014307D02*
X016347Y014307D01*
X016347Y014208D02*
X014877Y014208D01*
X014877Y014110D02*
X016347Y014110D01*
X016347Y014011D02*
X014877Y014011D01*
X014877Y013913D02*
X015020Y013913D01*
X014922Y013814D02*
X014877Y013814D01*
X015157Y013766D02*
X016467Y013766D01*
X016547Y013846D01*
X016547Y014396D01*
X017157Y015006D01*
X017847Y015006D01*
X017860Y015003D01*
X017797Y014586D02*
X017702Y014570D01*
X017617Y014556D01*
X018297Y014556D01*
X018497Y014756D01*
X019097Y014405D02*
X019497Y014405D01*
X019497Y014307D02*
X019097Y014307D01*
X019097Y014208D02*
X019497Y014208D01*
X019497Y014110D02*
X019126Y014110D01*
X019225Y014011D02*
X019497Y014011D01*
X019461Y013913D02*
X019324Y013913D01*
X018897Y013456D02*
X017847Y013456D01*
X017697Y013606D01*
X016897Y013606D01*
X016547Y013846D02*
X016547Y013156D01*
X017647Y012056D01*
X017647Y012006D01*
X018197Y011456D01*
X018847Y011456D01*
X019047Y011256D01*
X019047Y010956D01*
X018697Y010606D01*
X018697Y010106D01*
X018147Y009556D01*
X018147Y009180D01*
X018647Y009180D02*
X018647Y009756D01*
X018897Y010006D01*
X018897Y010506D01*
X019247Y010856D01*
X019247Y011356D01*
X018947Y011656D01*
X018497Y011656D01*
X017997Y012156D01*
X017997Y012506D01*
X018597Y013106D01*
X019047Y013106D01*
X018982Y012728D02*
X018943Y012717D01*
X018909Y012698D01*
X018881Y012670D01*
X018862Y012635D01*
X018851Y012597D01*
X018851Y012352D01*
X019325Y012352D01*
X019325Y012252D01*
X018851Y012252D01*
X018851Y012007D01*
X018862Y011968D01*
X018881Y011934D01*
X018909Y011906D01*
X018943Y011887D01*
X018982Y011876D01*
X019325Y011876D01*
X019325Y012252D01*
X019425Y012252D01*
X019425Y011876D01*
X019769Y011876D01*
X019807Y011887D01*
X019841Y011906D01*
X019869Y011934D01*
X019889Y011968D01*
X019899Y012007D01*
X019899Y012252D01*
X019425Y012252D01*
X019425Y012352D01*
X019325Y012352D01*
X019325Y012728D01*
X018982Y012728D01*
X018861Y012631D02*
X018405Y012631D01*
X018306Y012533D02*
X018851Y012533D01*
X018851Y012434D02*
X018211Y012434D01*
X018299Y012336D02*
X019325Y012336D01*
X019325Y012434D02*
X019425Y012434D01*
X019425Y012352D02*
X019425Y012728D01*
X019769Y012728D01*
X019807Y012717D01*
X019841Y012698D01*
X019869Y012670D01*
X019889Y012635D01*
X019899Y012597D01*
X019899Y012352D01*
X019425Y012352D01*
X019425Y012336D02*
X019987Y012336D01*
X019987Y012434D02*
X019899Y012434D01*
X019899Y012533D02*
X019987Y012533D01*
X019987Y012631D02*
X019890Y012631D01*
X019987Y012730D02*
X018504Y012730D01*
X018602Y012829D02*
X019987Y012829D01*
X019987Y012237D02*
X019899Y012237D01*
X019899Y012139D02*
X019987Y012139D01*
X019987Y012040D02*
X019899Y012040D01*
X019874Y011942D02*
X019987Y011942D01*
X019987Y011843D02*
X019043Y011843D01*
X019141Y011745D02*
X019987Y011745D01*
X019987Y011646D02*
X019240Y011646D01*
X019339Y011548D02*
X019987Y011548D01*
X019987Y011449D02*
X019437Y011449D01*
X019447Y011350D02*
X019987Y011350D01*
X019987Y011252D02*
X019447Y011252D01*
X019447Y011153D02*
X019987Y011153D01*
X019987Y011055D02*
X019447Y011055D01*
X019447Y010956D02*
X019987Y010956D01*
X019987Y010858D02*
X019447Y010858D01*
X019433Y010759D02*
X019987Y010759D01*
X019987Y010661D02*
X019334Y010661D01*
X019236Y010562D02*
X019987Y010562D01*
X019987Y010464D02*
X019137Y010464D01*
X019097Y010365D02*
X019987Y010365D01*
X019987Y010266D02*
X019097Y010266D01*
X019097Y010168D02*
X019987Y010168D01*
X019987Y010069D02*
X019097Y010069D01*
X019097Y009971D02*
X019987Y009971D01*
X019987Y009872D02*
X019046Y009872D01*
X018947Y009774D02*
X019987Y009774D01*
X019987Y009675D02*
X019915Y009675D01*
X019915Y009577D02*
X019987Y009577D01*
X019987Y009478D02*
X019915Y009478D01*
X019915Y009380D02*
X019987Y009380D01*
X019987Y009281D02*
X019915Y009281D01*
X019915Y009182D02*
X019987Y009182D01*
X019987Y009084D02*
X019915Y009084D01*
X019915Y008985D02*
X019987Y008985D01*
X019987Y008887D02*
X019915Y008887D01*
X019915Y008788D02*
X019982Y008788D01*
X019647Y007133D02*
X019647Y006606D01*
X020197Y006056D01*
X020197Y005106D01*
X019947Y004856D01*
X019547Y004856D01*
X019097Y004406D01*
X019097Y004156D01*
X019447Y003906D02*
X019147Y003606D01*
X018147Y003606D01*
X017828Y003467D02*
X017547Y003467D01*
X017547Y003566D02*
X017799Y003566D01*
X017799Y003664D02*
X017547Y003664D01*
X017547Y003763D02*
X017835Y003763D01*
X017910Y003861D02*
X017547Y003861D01*
X017547Y003960D02*
X018472Y003960D01*
X018472Y004058D02*
X017547Y004058D01*
X017547Y004354D02*
X018467Y004354D01*
X018472Y004348D02*
X017837Y004983D01*
X017837Y005149D01*
X017837Y006143D01*
X017747Y006234D01*
X017747Y006016D01*
X017747Y005642D01*
X017659Y005554D01*
X017547Y005554D01*
X017547Y003076D01*
X017750Y003076D01*
X017942Y002997D01*
X018088Y002851D01*
X018147Y002708D01*
X018206Y002851D01*
X018352Y002997D01*
X018544Y003076D01*
X018750Y003076D01*
X018942Y002997D01*
X019088Y002851D01*
X019147Y002708D01*
X019206Y002851D01*
X019352Y002997D01*
X019544Y003076D01*
X019750Y003076D01*
X019942Y002997D01*
X020088Y002851D01*
X020167Y002660D01*
X020167Y002453D01*
X020088Y002262D01*
X019942Y002115D01*
X019877Y002089D01*
X019877Y002024D01*
X019942Y001997D01*
X020088Y001851D01*
X020167Y001660D01*
X020167Y001453D01*
X020088Y001262D01*
X019942Y001115D01*
X019750Y001036D01*
X019544Y001036D01*
X019352Y001115D01*
X019206Y001262D01*
X019147Y001405D01*
X019088Y001262D01*
X018942Y001115D01*
X018750Y001036D01*
X018544Y001036D01*
X018352Y001115D01*
X018206Y001262D01*
X018147Y001405D01*
X018088Y001262D01*
X017942Y001115D01*
X017750Y001036D01*
X017544Y001036D01*
X017352Y001115D01*
X017206Y001262D01*
X017147Y001405D01*
X017088Y001262D01*
X016942Y001115D01*
X016750Y001036D01*
X016544Y001036D01*
X016352Y001115D01*
X016206Y001262D01*
X016147Y001405D01*
X016088Y001262D01*
X015942Y001115D01*
X015750Y001036D01*
X015544Y001036D01*
X015352Y001115D01*
X015206Y001262D01*
X015147Y001405D01*
X015088Y001262D01*
X014942Y001115D01*
X014750Y001036D01*
X014544Y001036D01*
X014352Y001115D01*
X014206Y001262D01*
X014146Y001408D01*
X014129Y001357D01*
X014092Y001284D01*
X014044Y001218D01*
X013986Y001160D01*
X013920Y001112D01*
X013847Y001074D01*
X013769Y001049D01*
X013697Y001038D01*
X013697Y001506D01*
X013597Y001506D01*
X013597Y001038D01*
X013525Y001049D01*
X013447Y001074D01*
X013374Y001112D01*
X013308Y001160D01*
X013250Y001218D01*
X013202Y001284D01*
X013165Y001357D01*
X013148Y001408D01*
X013088Y001262D01*
X012942Y001115D01*
X012750Y001036D01*
X012544Y001036D01*
X012352Y001115D01*
X012206Y001262D01*
X012147Y001405D01*
X012088Y001262D01*
X011942Y001115D01*
X011750Y001036D01*
X011544Y001036D01*
X011352Y001115D01*
X011206Y001262D01*
X011147Y001405D01*
X011088Y001262D01*
X010942Y001115D01*
X010750Y001036D01*
X010544Y001036D01*
X010352Y001115D01*
X010206Y001262D01*
X010147Y001405D01*
X010088Y001262D01*
X009942Y001115D01*
X009750Y001036D01*
X009544Y001036D01*
X009352Y001115D01*
X009206Y001262D01*
X009147Y001405D01*
X009088Y001262D01*
X008942Y001115D01*
X008750Y001036D01*
X008544Y001036D01*
X008352Y001115D01*
X008206Y001262D01*
X008147Y001405D01*
X008088Y001262D01*
X007942Y001115D01*
X007750Y001036D01*
X007544Y001036D01*
X007352Y001115D01*
X007206Y001262D01*
X007147Y001405D01*
X007088Y001262D01*
X006942Y001115D01*
X006750Y001036D01*
X006544Y001036D01*
X006352Y001115D01*
X006206Y001262D01*
X006127Y001453D01*
X006127Y001660D01*
X006206Y001851D01*
X006352Y001997D01*
X006417Y002024D01*
X006417Y002089D01*
X006352Y002115D01*
X006206Y002262D01*
X006127Y002453D01*
X006127Y002660D01*
X006206Y002851D01*
X006352Y002997D01*
X006544Y003076D01*
X006750Y003076D01*
X006942Y002997D01*
X007088Y002851D01*
X007147Y002708D01*
X007206Y002851D01*
X007352Y002997D01*
X007544Y003076D01*
X007750Y003076D01*
X007942Y002997D01*
X008088Y002851D01*
X008147Y002708D01*
X008206Y002851D01*
X008352Y002997D01*
X008544Y003076D01*
X008750Y003076D01*
X008942Y002997D01*
X009088Y002851D01*
X009147Y002708D01*
X009206Y002851D01*
X009352Y002997D01*
X009544Y003076D01*
X009750Y003076D01*
X009942Y002997D01*
X010088Y002851D01*
X010147Y002708D01*
X010206Y002851D01*
X010352Y002997D01*
X010544Y003076D01*
X010750Y003076D01*
X010942Y002997D01*
X011088Y002851D01*
X011147Y002708D01*
X011206Y002851D01*
X011352Y002997D01*
X011544Y003076D01*
X011750Y003076D01*
X011787Y003061D01*
X011787Y003731D01*
X011685Y003731D01*
X011597Y003819D01*
X011597Y003871D01*
X011592Y003859D01*
X011494Y003761D01*
X011366Y003708D01*
X011228Y003708D01*
X011100Y003761D01*
X011015Y003846D01*
X010901Y003846D01*
X010901Y003678D01*
X010813Y003590D01*
X009981Y003590D01*
X009893Y003678D01*
X009893Y004432D01*
X009981Y004520D01*
X010813Y004520D01*
X010901Y004432D01*
X010901Y004266D01*
X011015Y004266D01*
X011100Y004351D01*
X011228Y004404D01*
X011252Y004404D01*
X011087Y004569D01*
X011087Y004743D01*
X011087Y006724D01*
X011002Y006809D01*
X010949Y006937D01*
X010949Y007076D01*
X010990Y007174D01*
X010627Y006811D01*
X010492Y006676D01*
X005915Y006676D01*
X005941Y006650D01*
X006007Y006492D01*
X006007Y006321D01*
X005941Y006163D01*
X005821Y006042D01*
X005663Y005976D01*
X004931Y005976D01*
X004773Y006042D01*
X004652Y006163D01*
X004587Y006321D01*
X004587Y006492D01*
X004652Y006650D01*
X004679Y006676D01*
X004215Y006676D01*
X004241Y006650D01*
X004307Y006492D01*
X004307Y006321D01*
X004241Y006163D01*
X004121Y006042D01*
X003963Y005976D01*
X003231Y005976D01*
X003073Y006042D01*
X002952Y006163D01*
X002887Y006321D01*
X002887Y006492D01*
X002952Y006650D01*
X003073Y006771D01*
X003171Y006811D01*
X003050Y006861D01*
X002985Y006926D01*
X002552Y006926D01*
X002417Y007061D01*
X002181Y007297D01*
X002217Y007210D01*
X002217Y007112D01*
X002442Y006886D01*
X002577Y006752D01*
X002577Y005752D01*
X002642Y005686D01*
X002989Y005686D01*
X003073Y005771D01*
X003231Y005836D01*
X003963Y005836D01*
X004121Y005771D01*
X004241Y005650D01*
X004247Y005636D01*
X004342Y005636D01*
X004587Y005391D01*
X004587Y005492D01*
X004652Y005650D01*
X004773Y005771D01*
X004931Y005836D01*
X005663Y005836D01*
X005821Y005771D01*
X005941Y005650D01*
X005947Y005636D01*
X007285Y005636D01*
X007350Y005701D01*
X007478Y005754D01*
X007616Y005754D01*
X007744Y005701D01*
X007809Y005636D01*
X008002Y005636D01*
X008192Y005636D01*
X008453Y005376D01*
X008803Y005376D01*
X008620Y005558D01*
X008528Y005558D01*
X008400Y005611D01*
X008302Y005709D01*
X008249Y005837D01*
X008249Y005976D01*
X008302Y006103D01*
X008400Y006201D01*
X008528Y006254D01*
X008666Y006254D01*
X008794Y006201D01*
X008892Y006103D01*
X008945Y005976D01*
X008945Y005883D01*
X009442Y005386D01*
X009893Y005386D01*
X009893Y005535D01*
X009981Y005622D01*
X010813Y005622D01*
X010901Y005535D01*
X010901Y004780D01*
X010813Y004693D01*
X009981Y004693D01*
X009893Y004780D01*
X009893Y004926D01*
X009252Y004926D01*
X009117Y005061D01*
X008939Y005239D01*
X008939Y003825D01*
X008851Y003737D01*
X007979Y003737D01*
X007891Y003825D01*
X007891Y005176D01*
X007809Y005176D01*
X007744Y005111D01*
X007616Y005058D01*
X007478Y005058D01*
X007403Y005089D01*
X007403Y003825D01*
X007315Y003737D01*
X006804Y003737D01*
X006854Y003617D01*
X006854Y003478D01*
X006801Y003350D01*
X006703Y003252D01*
X006575Y003199D01*
X006483Y003199D01*
X005745Y002461D01*
X005745Y002461D01*
X005610Y002326D01*
X004115Y002326D01*
X004088Y002262D01*
X003942Y002115D01*
X003877Y002089D01*
X003877Y002024D01*
X003942Y001997D01*
X004088Y001851D01*
X004167Y001660D01*
X004167Y001453D01*
X004088Y001262D01*
X003942Y001115D01*
X003750Y001036D01*
X003544Y001036D01*
X003352Y001115D01*
X003206Y001262D01*
X003146Y001408D01*
X003129Y001357D01*
X003092Y001284D01*
X003044Y001218D01*
X002986Y001160D01*
X002920Y001112D01*
X002847Y001074D01*
X002769Y001049D01*
X002697Y001038D01*
X002697Y001506D01*
X002597Y001506D01*
X002597Y001038D01*
X002525Y001049D01*
X002447Y001074D01*
X002374Y001112D01*
X002308Y001160D01*
X002250Y001218D01*
X002202Y001284D01*
X002165Y001357D01*
X002148Y001408D01*
X002088Y001262D01*
X001942Y001115D01*
X001750Y001036D01*
X001544Y001036D01*
X001352Y001115D01*
X001206Y001262D01*
X001127Y001453D01*
X001127Y001660D01*
X001206Y001851D01*
X001352Y001997D01*
X001417Y002024D01*
X001417Y002089D01*
X001352Y002115D01*
X001206Y002262D01*
X001127Y002453D01*
X001127Y002660D01*
X001206Y002851D01*
X001352Y002997D01*
X001544Y003076D01*
X001742Y003076D01*
X001872Y003206D01*
X001797Y003206D01*
X001797Y003806D01*
X001697Y003806D01*
X001697Y003206D01*
X001478Y003206D01*
X001097Y003587D01*
X001097Y003806D01*
X001697Y003806D01*
X001697Y003906D01*
X001097Y003906D01*
X001097Y004126D01*
X001403Y004431D01*
X001097Y004737D01*
X001097Y005276D01*
X001462Y005641D01*
X001402Y005665D01*
X001256Y005812D01*
X001177Y006003D01*
X001177Y006210D01*
X001256Y006401D01*
X001402Y006547D01*
X001545Y006606D01*
X001402Y006665D01*
X001256Y006812D01*
X001177Y007003D01*
X001177Y007210D01*
X001256Y007401D01*
X001402Y007547D01*
X001594Y007626D01*
X001800Y007626D01*
X001992Y007547D01*
X002138Y007401D01*
X002167Y007330D01*
X002167Y007502D01*
X002167Y008644D01*
X002102Y008709D01*
X002049Y008837D01*
X002049Y008976D01*
X002102Y009103D01*
X002200Y009201D01*
X002328Y009254D01*
X002466Y009254D01*
X002594Y009201D01*
X002692Y009103D01*
X002745Y008976D01*
X002745Y008837D01*
X002692Y008709D01*
X002627Y008644D01*
X002627Y008115D01*
X002773Y008176D01*
X002935Y008176D01*
X003084Y008114D01*
X003199Y007999D01*
X003247Y007882D01*
X003296Y007999D01*
X003410Y008114D01*
X003441Y008126D01*
X003441Y010918D01*
X003441Y011083D01*
X003897Y011539D01*
X003897Y011756D01*
X003630Y011756D01*
X003080Y011206D01*
X002939Y011206D01*
X002844Y011111D01*
X002716Y011058D01*
X002578Y011058D01*
X002450Y011111D01*
X002355Y011206D01*
X002127Y011206D01*
X002088Y011112D01*
X001942Y010965D01*
X001799Y010906D01*
X001942Y010847D01*
X002088Y010701D01*
X002167Y010510D01*
X002167Y010303D01*
X002088Y010112D01*
X001942Y009965D01*
X001799Y009906D01*
X001942Y009847D01*
X002088Y009701D01*
X002167Y009510D01*
X002167Y009303D01*
X002088Y009112D01*
X001942Y008965D01*
X001795Y008905D01*
X001847Y008888D01*
X001920Y008851D01*
X001986Y008803D01*
X002044Y008745D01*
X002092Y008679D01*
X002129Y008606D01*
X002154Y008528D01*
X002166Y008456D01*
X001697Y008456D01*
X001697Y008356D01*
X001697Y007888D01*
X001769Y007899D01*
X001847Y007924D01*
X001920Y007962D01*
X001986Y008010D01*
X002044Y008068D01*
X002092Y008134D01*
X002129Y008207D01*
X002154Y008284D01*
X002166Y008356D01*
X001697Y008356D01*
X001597Y008356D01*
X001597Y007888D01*
X001525Y007899D01*
X001447Y007924D01*
X001374Y007962D01*
X001308Y008010D01*
X001250Y008068D01*
X001202Y008134D01*
X001165Y008207D01*
X001140Y008284D01*
X001128Y008356D01*
X001597Y008356D01*
X001597Y008456D01*
X001128Y008456D01*
X001140Y008528D01*
X001165Y008606D01*
X001202Y008679D01*
X001250Y008745D01*
X001308Y008803D01*
X001374Y008851D01*
X001447Y008888D01*
X001499Y008905D01*
X001352Y008965D01*
X001206Y009112D01*
X001127Y009303D01*
X001127Y009510D01*
X001206Y009701D01*
X001352Y009847D01*
X001495Y009906D01*
X001352Y009965D01*
X001206Y010112D01*
X001127Y010303D01*
X001127Y010510D01*
X001206Y010701D01*
X001352Y010847D01*
X001495Y010906D01*
X001352Y010965D01*
X001206Y011112D01*
X001127Y011303D01*
X001127Y011510D01*
X001206Y011701D01*
X001352Y011847D01*
X001495Y011906D01*
X001352Y011965D01*
X001206Y012112D01*
X001127Y012303D01*
X001127Y012510D01*
X001206Y012701D01*
X001352Y012847D01*
X001495Y012906D01*
X001352Y012965D01*
X001206Y013112D01*
X001127Y013303D01*
X001127Y013510D01*
X001206Y013701D01*
X001352Y013847D01*
X001544Y013926D01*
X001750Y013926D01*
X001942Y013847D01*
X002088Y013701D01*
X002123Y013615D01*
X002214Y013706D01*
X002380Y013706D01*
X002764Y013706D01*
X002930Y013706D01*
X003180Y013456D01*
X004580Y013456D01*
X004697Y013339D01*
X004780Y013256D01*
X007482Y013256D01*
X007449Y013337D01*
X007449Y013472D01*
X007330Y013590D01*
X006681Y013590D01*
X006593Y013678D01*
X006593Y014432D01*
X006681Y014520D01*
X007513Y014520D01*
X007597Y014436D01*
X007681Y014520D01*
X008513Y014520D01*
X008597Y014436D01*
X008681Y014520D01*
X009513Y014520D01*
X009597Y014436D01*
X009681Y014520D01*
X010513Y014520D01*
X010597Y014436D01*
X010681Y014520D01*
X011513Y014520D01*
X011597Y014436D01*
X011681Y014520D01*
X012513Y014520D01*
X012601Y014432D01*
X012601Y014002D01*
X012602Y014003D01*
X012700Y014101D01*
X012828Y014154D01*
X012966Y014154D01*
X013094Y014101D01*
X013192Y014003D01*
X013245Y013876D01*
X013245Y013768D01*
X013358Y013814D01*
X013496Y013814D01*
X013624Y013761D01*
X013722Y013663D01*
X013750Y013596D01*
X014282Y013596D01*
X014417Y013732D01*
X014417Y015461D01*
X014282Y015596D01*
X013252Y015596D01*
X013127Y015471D01*
X013127Y015461D01*
X012992Y015326D01*
X012992Y015326D01*
X012727Y015061D01*
X012727Y015061D01*
X012601Y014935D01*
X012601Y014780D01*
X012513Y014693D01*
X011681Y014693D01*
X011597Y014776D01*
X011513Y014693D01*
X010681Y014693D01*
X010597Y014776D01*
X010513Y014693D01*
X009681Y014693D01*
X009597Y014776D01*
X009513Y014693D01*
X008681Y014693D01*
X008597Y014776D01*
X008513Y014693D01*
X007681Y014693D01*
X007597Y014776D01*
X007513Y014693D01*
X006681Y014693D01*
X006644Y014729D01*
X005795Y013879D01*
X005795Y013787D01*
X005742Y013659D01*
X005644Y013561D01*
X005516Y013508D01*
X005378Y013508D01*
X005250Y013561D01*
X005152Y013659D01*
X005099Y013787D01*
X005099Y013926D01*
X005152Y014053D01*
X005250Y014151D01*
X005378Y014204D01*
X005470Y014204D01*
X006593Y015327D01*
X006593Y015506D01*
X006089Y015506D01*
X006092Y015503D01*
X006145Y015376D01*
X006145Y015237D01*
X006092Y015109D01*
X005994Y015011D01*
X005866Y014958D01*
X005732Y014958D01*
X005047Y014273D01*
X005047Y014273D01*
X004930Y014156D01*
X004380Y014156D01*
X004130Y013906D01*
X003964Y013906D01*
X003889Y013906D01*
X003794Y013811D01*
X003666Y013758D01*
X003528Y013758D01*
X003400Y013811D01*
X003302Y013909D01*
X003249Y014037D01*
X003249Y014176D01*
X003302Y014303D01*
X003400Y014401D01*
X003528Y014454D01*
X003666Y014454D01*
X003794Y014401D01*
X003889Y014306D01*
X003964Y014306D01*
X004097Y014439D01*
X004214Y014556D01*
X004764Y014556D01*
X005449Y015241D01*
X005449Y015376D01*
X005502Y015503D01*
X005505Y015506D01*
X002530Y015506D01*
X002380Y015356D01*
X002214Y015356D01*
X002127Y015356D01*
X002088Y015262D01*
X001942Y015115D01*
X001799Y015056D01*
X001942Y014997D01*
X005204Y014997D01*
X005303Y015095D02*
X001892Y015095D01*
X001942Y014997D02*
X002088Y014851D01*
X002167Y014660D01*
X002167Y014453D01*
X002088Y014262D01*
X001942Y014115D01*
X001750Y014036D01*
X001544Y014036D01*
X001352Y014115D01*
X001206Y014262D01*
X001127Y014453D01*
X001127Y014660D01*
X001206Y014851D01*
X001352Y014997D01*
X001495Y015056D01*
X001352Y015115D01*
X001206Y015262D01*
X001127Y015453D01*
X001127Y015660D01*
X001206Y015851D01*
X001352Y015997D01*
X001495Y016056D01*
X001352Y016115D01*
X001206Y016262D01*
X001127Y016453D01*
X001127Y016660D01*
X001206Y016851D01*
X001352Y016997D01*
X001499Y017058D01*
X001447Y017074D01*
X001374Y017112D01*
X001308Y017160D01*
X001250Y017218D01*
X001202Y017284D01*
X001165Y017357D01*
X001140Y017434D01*
X001128Y017506D01*
X001597Y017506D01*
X001597Y017606D01*
X001128Y017606D01*
X001140Y017678D01*
X001165Y017756D01*
X001202Y017829D01*
X001250Y017895D01*
X001308Y017953D01*
X001221Y017854D02*
X001047Y017854D01*
X001047Y017756D02*
X001165Y017756D01*
X001137Y017657D02*
X001047Y017657D01*
X001047Y017559D02*
X001597Y017559D01*
X001136Y017460D02*
X001047Y017460D01*
X001047Y017362D02*
X001164Y017362D01*
X001217Y017263D02*
X001047Y017263D01*
X001047Y017164D02*
X001303Y017164D01*
X001473Y017066D02*
X001047Y017066D01*
X001047Y016967D02*
X001323Y016967D01*
X001224Y016869D02*
X001047Y016869D01*
X001047Y016770D02*
X001173Y016770D01*
X001132Y016672D02*
X001047Y016672D01*
X001047Y016573D02*
X001127Y016573D01*
X001127Y016475D02*
X001047Y016475D01*
X001047Y016376D02*
X001159Y016376D01*
X001200Y016278D02*
X001047Y016278D01*
X001047Y016179D02*
X001289Y016179D01*
X001437Y016081D02*
X001047Y016081D01*
X001047Y015982D02*
X001337Y015982D01*
X001239Y015883D02*
X001047Y015883D01*
X001047Y015785D02*
X001179Y015785D01*
X001138Y015686D02*
X001047Y015686D01*
X001047Y015588D02*
X001127Y015588D01*
X001127Y015489D02*
X001047Y015489D01*
X001047Y015391D02*
X001153Y015391D01*
X001194Y015292D02*
X001047Y015292D01*
X001047Y015194D02*
X001274Y015194D01*
X001402Y015095D02*
X001047Y015095D01*
X001047Y014997D02*
X001352Y014997D01*
X001253Y014898D02*
X001047Y014898D01*
X001047Y014799D02*
X001185Y014799D01*
X001144Y014701D02*
X001047Y014701D01*
X001047Y014602D02*
X001127Y014602D01*
X001127Y014504D02*
X001047Y014504D01*
X001047Y014405D02*
X001147Y014405D01*
X001188Y014307D02*
X001047Y014307D01*
X001047Y014208D02*
X001260Y014208D01*
X001366Y014110D02*
X001047Y014110D01*
X001047Y014011D02*
X003260Y014011D01*
X003249Y014110D02*
X001927Y014110D01*
X002034Y014208D02*
X003262Y014208D01*
X003305Y014307D02*
X002106Y014307D01*
X002147Y014405D02*
X003409Y014405D01*
X003597Y014106D02*
X004047Y014106D01*
X004297Y014356D01*
X004847Y014356D01*
X005797Y015306D01*
X006145Y015292D02*
X006558Y015292D01*
X006593Y015391D02*
X006139Y015391D01*
X006098Y015489D02*
X006593Y015489D01*
X006459Y015194D02*
X006127Y015194D01*
X006078Y015095D02*
X006361Y015095D01*
X006262Y014997D02*
X005959Y014997D01*
X006065Y014799D02*
X005573Y014799D01*
X005474Y014701D02*
X005966Y014701D01*
X005868Y014602D02*
X005376Y014602D01*
X005277Y014504D02*
X005769Y014504D01*
X005671Y014405D02*
X005179Y014405D01*
X005080Y014307D02*
X005572Y014307D01*
X005474Y014208D02*
X004982Y014208D01*
X005208Y014110D02*
X004333Y014110D01*
X004235Y014011D02*
X005134Y014011D01*
X005099Y013913D02*
X004136Y013913D01*
X003797Y013814D02*
X005099Y013814D01*
X005129Y013715D02*
X002073Y013715D01*
X002123Y013617D02*
X002125Y013617D01*
X002297Y013506D02*
X002297Y012806D01*
X004347Y012806D01*
X004447Y012706D01*
X004447Y012156D01*
X005647Y012156D01*
X005372Y011956D02*
X005372Y011844D01*
X005460Y011756D01*
X005797Y011756D01*
X005797Y011439D01*
X005751Y011393D01*
X005650Y011351D01*
X005552Y011253D01*
X005499Y011126D01*
X005499Y010987D01*
X005552Y010859D01*
X005650Y010761D01*
X005778Y010708D01*
X005916Y010708D01*
X006044Y010761D01*
X006142Y010859D01*
X006195Y010987D01*
X006195Y011126D01*
X006152Y011229D01*
X006197Y011273D01*
X006197Y011439D01*
X006197Y011756D01*
X006534Y011756D01*
X006622Y011844D01*
X006622Y011956D01*
X011355Y011956D01*
X011302Y011903D01*
X011249Y011776D01*
X011249Y011641D01*
X011030Y011422D01*
X010581Y011422D01*
X010493Y011335D01*
X010493Y010580D01*
X010581Y010493D01*
X011413Y010493D01*
X011501Y010580D01*
X011501Y010612D01*
X011581Y010533D01*
X012413Y010533D01*
X012493Y010612D01*
X012493Y010580D01*
X012581Y010493D01*
X013413Y010493D01*
X013497Y010576D01*
X013581Y010493D01*
X014413Y010493D01*
X014497Y010576D01*
X014581Y010493D01*
X015413Y010493D01*
X015497Y010576D01*
X015581Y010493D01*
X016413Y010493D01*
X016501Y010580D01*
X016501Y011335D01*
X016413Y011422D01*
X016305Y011422D01*
X016392Y011509D01*
X016445Y011637D01*
X016445Y011776D01*
X016392Y011903D01*
X016294Y012001D01*
X016166Y012054D01*
X016028Y012054D01*
X015900Y012001D01*
X015847Y011949D01*
X015794Y012001D01*
X015666Y012054D01*
X015528Y012054D01*
X015400Y012001D01*
X015302Y011903D01*
X015297Y011892D01*
X015292Y011903D01*
X015194Y012001D01*
X015066Y012054D01*
X014928Y012054D01*
X014800Y012001D01*
X014702Y011903D01*
X014682Y011856D01*
X014642Y011953D01*
X014544Y012051D01*
X014416Y012104D01*
X014278Y012104D01*
X014150Y012051D01*
X014052Y011953D01*
X013999Y011826D01*
X013999Y011706D01*
X013380Y011706D01*
X012730Y012356D01*
X012564Y012356D01*
X006622Y012356D01*
X006622Y012468D01*
X006534Y012556D01*
X006480Y012556D01*
X006430Y012606D01*
X006180Y012856D01*
X009124Y012856D01*
X009157Y012823D01*
X009274Y012706D01*
X014714Y012706D01*
X014880Y012706D01*
X014910Y012736D01*
X014978Y012708D01*
X015116Y012708D01*
X015244Y012761D01*
X015342Y012859D01*
X015395Y012987D01*
X015395Y013126D01*
X015342Y013253D01*
X015244Y013351D01*
X015116Y013404D01*
X015078Y013404D01*
X015240Y013566D01*
X016347Y013566D01*
X016347Y013073D01*
X016464Y012956D01*
X017447Y011973D01*
X017447Y011923D01*
X017997Y011373D01*
X018034Y011336D01*
X016952Y011336D01*
X016817Y011202D01*
X016817Y011011D01*
X016817Y010001D01*
X016736Y010034D01*
X016598Y010034D01*
X016501Y009994D01*
X016501Y010232D01*
X016413Y010320D01*
X015581Y010320D01*
X015497Y010236D01*
X015413Y010320D01*
X014581Y010320D01*
X014497Y010236D01*
X014413Y010320D01*
X013581Y010320D01*
X013497Y010236D01*
X013413Y010320D01*
X012581Y010320D01*
X012501Y010241D01*
X012501Y010272D01*
X012413Y010360D01*
X011581Y010360D01*
X011493Y010272D01*
X011493Y010241D01*
X011413Y010320D01*
X010581Y010320D01*
X010545Y010285D01*
X010545Y010376D01*
X010492Y010503D01*
X010394Y010601D01*
X010266Y010654D01*
X010128Y010654D01*
X010000Y010601D01*
X009905Y010506D01*
X007289Y010506D01*
X007194Y010601D01*
X007066Y010654D01*
X006928Y010654D01*
X006800Y010601D01*
X006702Y010503D01*
X006649Y010376D01*
X006649Y010237D01*
X006702Y010109D01*
X006725Y010086D01*
X005842Y010086D01*
X005745Y010183D01*
X005745Y010226D01*
X005692Y010353D01*
X005594Y010451D01*
X005466Y010504D01*
X005328Y010504D01*
X005200Y010451D01*
X005102Y010353D01*
X005049Y010226D01*
X005049Y010087D01*
X005102Y009959D01*
X005200Y009861D01*
X005328Y009808D01*
X005466Y009808D01*
X005469Y009809D01*
X005517Y009761D01*
X005652Y009626D01*
X007434Y009626D01*
X007197Y009389D01*
X007197Y009223D01*
X007197Y009006D01*
X006833Y009006D01*
X006745Y008918D01*
X006745Y008792D01*
X006314Y008361D01*
X006345Y008437D01*
X006345Y008576D01*
X006292Y008703D01*
X006194Y008801D01*
X006066Y008854D01*
X005928Y008854D01*
X005897Y008842D01*
X005897Y009071D01*
X005809Y009158D01*
X005185Y009158D01*
X005133Y009106D01*
X005080Y009106D01*
X004430Y009756D01*
X004497Y009823D01*
X004497Y009964D01*
X004592Y010059D01*
X004645Y010187D01*
X004645Y010326D01*
X004592Y010453D01*
X004494Y010551D01*
X004366Y010604D01*
X004228Y010604D01*
X004100Y010551D01*
X004002Y010453D01*
X003949Y010326D01*
X003949Y010187D01*
X004002Y010059D01*
X004084Y009977D01*
X003997Y009889D01*
X003997Y009789D01*
X003997Y009623D01*
X004797Y008823D01*
X004914Y008706D01*
X005097Y008706D01*
X005097Y008696D01*
X005097Y008342D01*
X005185Y008254D01*
X005757Y008254D01*
X005800Y008211D01*
X005904Y008168D01*
X005772Y008114D01*
X005658Y007999D01*
X005610Y007882D01*
X005561Y007999D01*
X005447Y008114D01*
X005297Y008176D01*
X005135Y008176D01*
X004985Y008114D01*
X004870Y007999D01*
X004822Y007882D01*
X004774Y007999D01*
X004659Y008114D01*
X004510Y008176D01*
X004347Y008176D01*
X004198Y008114D01*
X004083Y007999D01*
X004035Y007882D01*
X003986Y007999D01*
X003872Y008114D01*
X003841Y008126D01*
X003841Y010918D01*
X004180Y011256D01*
X004297Y011373D01*
X004297Y011756D01*
X004634Y011756D01*
X004722Y011844D01*
X004722Y011956D01*
X005372Y011956D01*
X005372Y011942D02*
X004722Y011942D01*
X004721Y011843D02*
X005373Y011843D01*
X005797Y011745D02*
X004297Y011745D01*
X004297Y011646D02*
X005797Y011646D01*
X005797Y011548D02*
X004297Y011548D01*
X004297Y011449D02*
X005797Y011449D01*
X005649Y011350D02*
X004274Y011350D01*
X004175Y011252D02*
X005551Y011252D01*
X005510Y011153D02*
X004077Y011153D01*
X003978Y011055D02*
X005499Y011055D01*
X005512Y010956D02*
X003880Y010956D01*
X003841Y010858D02*
X005553Y010858D01*
X005655Y010759D02*
X003841Y010759D01*
X003841Y010661D02*
X010493Y010661D01*
X010493Y010759D02*
X006039Y010759D01*
X006141Y010858D02*
X010493Y010858D01*
X010493Y010956D02*
X006182Y010956D01*
X006195Y011055D02*
X010493Y011055D01*
X010493Y011153D02*
X006184Y011153D01*
X006175Y011252D02*
X010493Y011252D01*
X010509Y011350D02*
X006197Y011350D01*
X006197Y011449D02*
X011057Y011449D01*
X011155Y011548D02*
X006197Y011548D01*
X006197Y011646D02*
X011249Y011646D01*
X011249Y011745D02*
X006197Y011745D01*
X006621Y011843D02*
X011277Y011843D01*
X011340Y011942D02*
X006622Y011942D01*
X006347Y012156D02*
X006347Y012406D01*
X005897Y012856D01*
X004597Y012856D01*
X004447Y013006D01*
X002797Y013006D01*
X002647Y013156D01*
X002847Y013506D02*
X003097Y013256D01*
X004497Y013256D01*
X004697Y013056D01*
X009207Y013056D01*
X009357Y012906D01*
X014797Y012906D01*
X014947Y013056D01*
X015047Y012956D01*
X015047Y013056D01*
X015169Y012730D02*
X016690Y012730D01*
X016592Y012829D02*
X015312Y012829D01*
X015370Y012927D02*
X016493Y012927D01*
X016464Y012956D02*
X016464Y012956D01*
X016395Y013026D02*
X015395Y013026D01*
X015395Y013124D02*
X016347Y013124D01*
X016347Y013223D02*
X015355Y013223D01*
X015274Y013321D02*
X016347Y013321D01*
X016347Y013420D02*
X015093Y013420D01*
X015192Y013518D02*
X016347Y013518D01*
X016789Y012631D02*
X006405Y012631D01*
X006306Y012730D02*
X009250Y012730D01*
X009152Y012829D02*
X006208Y012829D01*
X006557Y012533D02*
X016887Y012533D01*
X016986Y012434D02*
X006622Y012434D01*
X006347Y012156D02*
X012647Y012156D01*
X013297Y011506D01*
X012947Y011156D01*
X012947Y011007D01*
X012997Y010957D01*
X012997Y011006D01*
X013297Y011506D02*
X014097Y011506D01*
X014347Y011756D01*
X014647Y011942D02*
X014740Y011942D01*
X014894Y012040D02*
X014555Y012040D01*
X014139Y012040D02*
X013046Y012040D01*
X013144Y011942D02*
X014047Y011942D01*
X014006Y011843D02*
X013243Y011843D01*
X013341Y011745D02*
X013999Y011745D01*
X014297Y011206D02*
X013997Y010957D01*
X014297Y011206D02*
X014546Y011455D01*
X014546Y011456D01*
X014747Y011456D01*
X014997Y011706D01*
X015254Y011942D02*
X015340Y011942D01*
X015494Y012040D02*
X015100Y012040D01*
X015597Y011706D02*
X015197Y011306D01*
X015197Y011106D01*
X015097Y011006D01*
X014997Y011006D01*
X014997Y010957D01*
X015483Y010562D02*
X015511Y010562D01*
X015527Y010266D02*
X015467Y010266D01*
X015997Y010957D02*
X015997Y011006D01*
X016097Y011006D01*
X016097Y011706D01*
X016332Y011449D02*
X017921Y011449D01*
X017823Y011548D02*
X016408Y011548D01*
X016445Y011646D02*
X017724Y011646D01*
X017626Y011745D02*
X016445Y011745D01*
X016417Y011843D02*
X017527Y011843D01*
X017447Y011942D02*
X016354Y011942D01*
X016200Y012040D02*
X017380Y012040D01*
X017282Y012139D02*
X012947Y012139D01*
X012849Y012237D02*
X017183Y012237D01*
X017085Y012336D02*
X012750Y012336D01*
X012247Y011706D02*
X012247Y011356D01*
X012097Y011206D01*
X011997Y011206D01*
X011997Y010997D01*
X012443Y010562D02*
X012511Y010562D01*
X012501Y010266D02*
X012527Y010266D01*
X013467Y010266D02*
X013527Y010266D01*
X013511Y010562D02*
X013483Y010562D01*
X014483Y010562D02*
X014511Y010562D01*
X014527Y010266D02*
X014467Y010266D01*
X016223Y009056D02*
X016272Y008939D01*
X016370Y008841D01*
X016498Y008788D01*
X016504Y008788D01*
X016102Y008386D01*
X011742Y008386D01*
X011552Y008386D01*
X010302Y007136D01*
X004192Y007136D01*
X004002Y007136D01*
X003702Y006836D01*
X003384Y006836D01*
X003444Y006861D01*
X003542Y006959D01*
X003595Y007087D01*
X003595Y007226D01*
X003542Y007353D01*
X003517Y007378D01*
X003560Y007361D01*
X003722Y007361D01*
X003872Y007423D01*
X003986Y007537D01*
X004035Y007654D01*
X004083Y007537D01*
X004198Y007423D01*
X004347Y007361D01*
X004510Y007361D01*
X004659Y007423D01*
X004774Y007537D01*
X004822Y007654D01*
X004870Y007537D01*
X004985Y007423D01*
X005135Y007361D01*
X005297Y007361D01*
X005447Y007423D01*
X005561Y007537D01*
X005610Y007654D01*
X005658Y007537D01*
X005772Y007423D01*
X005922Y007361D01*
X006084Y007361D01*
X006234Y007423D01*
X006349Y007537D01*
X006397Y007654D01*
X006445Y007537D01*
X006560Y007423D01*
X006710Y007361D01*
X006872Y007361D01*
X007021Y007423D01*
X007136Y007537D01*
X007184Y007654D01*
X007233Y007537D01*
X007347Y007423D01*
X007497Y007361D01*
X007659Y007361D01*
X007809Y007423D01*
X007924Y007537D01*
X007972Y007654D01*
X008020Y007537D01*
X008135Y007423D01*
X008284Y007361D01*
X008447Y007361D01*
X008596Y007423D01*
X008711Y007537D01*
X008759Y007654D01*
X008807Y007537D01*
X008922Y007423D01*
X009072Y007361D01*
X009234Y007361D01*
X009384Y007423D01*
X009498Y007537D01*
X009548Y007657D01*
X009563Y007612D01*
X009592Y007555D01*
X009629Y007503D01*
X009675Y007457D01*
X009727Y007420D01*
X009784Y007390D01*
X009845Y007371D01*
X009908Y007361D01*
X009911Y007361D01*
X009911Y007739D01*
X009969Y007739D01*
X009969Y007361D01*
X009972Y007361D01*
X010036Y007371D01*
X010097Y007390D01*
X010154Y007420D01*
X010206Y007457D01*
X010251Y007503D01*
X010289Y007555D01*
X010318Y007612D01*
X010338Y007673D01*
X010348Y007736D01*
X010348Y007739D01*
X009969Y007739D01*
X009969Y007797D01*
X009911Y007797D01*
X009911Y008176D01*
X009908Y008176D01*
X009845Y008166D01*
X009784Y008146D01*
X009727Y008117D01*
X009675Y008079D01*
X009629Y008034D01*
X009592Y007982D01*
X009563Y007925D01*
X009548Y007879D01*
X009498Y007999D01*
X009384Y008114D01*
X009234Y008176D01*
X009072Y008176D01*
X009041Y008163D01*
X008849Y008355D01*
X008849Y008676D01*
X009080Y008906D01*
X010714Y008906D01*
X010880Y008906D01*
X010892Y008919D01*
X010900Y008911D01*
X011028Y008858D01*
X011166Y008858D01*
X011294Y008911D01*
X011392Y009009D01*
X011445Y009137D01*
X011445Y009276D01*
X011398Y009390D01*
X011413Y009390D01*
X011501Y009478D01*
X011533Y009478D01*
X011501Y009478D02*
X011501Y009509D01*
X011581Y009430D01*
X011764Y009430D01*
X011729Y009346D01*
X011729Y009207D01*
X011782Y009079D01*
X011880Y008981D01*
X012008Y008928D01*
X012146Y008928D01*
X012274Y008981D01*
X012349Y009056D01*
X016223Y009056D01*
X016253Y008985D02*
X012278Y008985D01*
X012097Y009256D02*
X012077Y009276D01*
X012097Y009256D02*
X016447Y009256D01*
X016567Y009136D01*
X016324Y008887D02*
X011235Y008887D01*
X011368Y008985D02*
X011876Y008985D01*
X011780Y009084D02*
X011423Y009084D01*
X011445Y009182D02*
X011739Y009182D01*
X011729Y009281D02*
X011443Y009281D01*
X011402Y009380D02*
X011743Y009380D01*
X011097Y009206D02*
X010897Y009206D01*
X010797Y009106D01*
X008997Y009106D01*
X008497Y008606D01*
X008574Y008606D01*
X008849Y008591D02*
X016307Y008591D01*
X016405Y008690D02*
X008863Y008690D01*
X008962Y008788D02*
X016497Y008788D01*
X016859Y008493D02*
X016877Y008493D01*
X016890Y008524D02*
X016849Y008426D01*
X016849Y008287D01*
X016902Y008159D01*
X016997Y008064D01*
X016997Y007949D01*
X016997Y007783D01*
X017637Y007143D01*
X017637Y007096D01*
X017579Y007154D01*
X017429Y007216D01*
X017265Y007216D01*
X017115Y007154D01*
X016999Y007039D01*
X016937Y006888D01*
X016937Y006725D01*
X016999Y006574D01*
X017115Y006459D01*
X017116Y006458D01*
X017035Y006458D01*
X016947Y006371D01*
X016947Y006016D01*
X016947Y005642D01*
X017035Y005554D01*
X017147Y005554D01*
X017147Y002939D01*
X017147Y002773D01*
X017166Y002754D01*
X017147Y002708D01*
X017088Y002851D01*
X016942Y002997D01*
X016797Y003057D01*
X016797Y005589D01*
X016746Y005641D01*
X016747Y005642D01*
X016747Y006016D01*
X016747Y006371D01*
X016659Y006458D01*
X016578Y006458D01*
X016579Y006459D01*
X016695Y006574D01*
X016757Y006725D01*
X016757Y006888D01*
X016695Y007039D01*
X016579Y007154D01*
X016429Y007216D01*
X016265Y007216D01*
X016115Y007154D01*
X015999Y007039D01*
X015937Y006888D01*
X015937Y006725D01*
X015999Y006574D01*
X016115Y006459D01*
X016116Y006458D01*
X016035Y006458D01*
X015947Y006371D01*
X015947Y006016D01*
X015947Y005642D01*
X016035Y005554D01*
X016266Y005554D01*
X016397Y005423D01*
X016397Y003016D01*
X016352Y002997D01*
X016206Y002851D01*
X016147Y002708D01*
X016088Y002851D01*
X015942Y002997D01*
X015847Y003036D01*
X015847Y003373D01*
X015847Y003539D01*
X015197Y004189D01*
X015197Y005189D01*
X015080Y005306D01*
X014521Y005866D01*
X014597Y005942D01*
X014597Y006316D01*
X014597Y006671D01*
X014509Y006758D01*
X014347Y006758D01*
X014347Y006845D01*
X014379Y006859D01*
X014495Y006974D01*
X014557Y007125D01*
X014557Y007288D01*
X014495Y007439D01*
X014379Y007554D01*
X014229Y007616D01*
X014065Y007616D01*
X013915Y007554D01*
X013799Y007439D01*
X013737Y007288D01*
X013737Y007125D01*
X013799Y006974D01*
X013915Y006859D01*
X013947Y006845D01*
X013947Y006758D01*
X013885Y006758D01*
X013797Y006671D01*
X013797Y006316D01*
X013797Y005942D01*
X013885Y005854D01*
X013997Y005854D01*
X013997Y005823D01*
X014797Y005023D01*
X014797Y004189D01*
X014797Y004023D01*
X015447Y003373D01*
X015447Y003036D01*
X015352Y002997D01*
X015206Y002851D01*
X015147Y002708D01*
X015088Y002851D01*
X014942Y002997D01*
X014750Y003076D01*
X014544Y003076D01*
X014449Y003037D01*
X013897Y003589D01*
X013897Y004889D01*
X013780Y005006D01*
X012697Y006089D01*
X012697Y006316D01*
X012697Y006671D01*
X012609Y006758D01*
X012447Y006758D01*
X012447Y006845D01*
X012479Y006859D01*
X012595Y006974D01*
X012657Y007125D01*
X012657Y007288D01*
X012595Y007439D01*
X012479Y007554D01*
X012329Y007616D01*
X012165Y007616D01*
X012015Y007554D01*
X011899Y007439D01*
X011837Y007288D01*
X011837Y007125D01*
X011899Y006974D01*
X012015Y006859D01*
X012047Y006845D01*
X012047Y006758D01*
X011985Y006758D01*
X011897Y006671D01*
X011897Y006316D01*
X011897Y005942D01*
X011985Y005854D01*
X012366Y005854D01*
X013172Y005048D01*
X012699Y005048D01*
X012611Y004961D01*
X012611Y004916D01*
X012610Y004916D01*
X012374Y004916D01*
X012309Y004981D01*
X011685Y004981D01*
X011597Y004893D01*
X011597Y004653D01*
X011507Y004743D01*
X011507Y006724D01*
X011592Y006809D01*
X011645Y006937D01*
X011645Y007076D01*
X011592Y007203D01*
X011494Y007301D01*
X011366Y007354D01*
X011228Y007354D01*
X011130Y007314D01*
X011742Y007926D01*
X016102Y007926D01*
X016292Y007926D01*
X016890Y008524D01*
X016849Y008394D02*
X016760Y008394D01*
X016849Y008296D02*
X016661Y008296D01*
X016563Y008197D02*
X016886Y008197D01*
X016962Y008099D02*
X016464Y008099D01*
X016366Y008000D02*
X016997Y008000D01*
X016997Y007901D02*
X011717Y007901D01*
X011619Y007803D02*
X016997Y007803D01*
X017076Y007704D02*
X011520Y007704D01*
X011422Y007606D02*
X012140Y007606D01*
X011968Y007507D02*
X011323Y007507D01*
X011225Y007409D02*
X011887Y007409D01*
X011846Y007310D02*
X011473Y007310D01*
X011584Y007212D02*
X011837Y007212D01*
X011842Y007113D02*
X011630Y007113D01*
X011645Y007015D02*
X011883Y007015D01*
X011957Y006916D02*
X011636Y006916D01*
X011596Y006817D02*
X012047Y006817D01*
X011945Y006719D02*
X011507Y006719D01*
X011507Y006620D02*
X011897Y006620D01*
X011897Y006522D02*
X011507Y006522D01*
X011507Y006423D02*
X011897Y006423D01*
X011897Y006325D02*
X011507Y006325D01*
X011507Y006226D02*
X011897Y006226D01*
X011897Y006128D02*
X011507Y006128D01*
X011507Y006029D02*
X011897Y006029D01*
X011908Y005931D02*
X011507Y005931D01*
X011507Y005832D02*
X012388Y005832D01*
X012487Y005733D02*
X011507Y005733D01*
X011507Y005635D02*
X012586Y005635D01*
X012684Y005536D02*
X011507Y005536D01*
X011507Y005438D02*
X012783Y005438D01*
X012881Y005339D02*
X011507Y005339D01*
X011507Y005241D02*
X012980Y005241D01*
X013078Y005142D02*
X011507Y005142D01*
X011507Y005044D02*
X012694Y005044D01*
X012611Y004945D02*
X012345Y004945D01*
X012397Y004496D02*
X012610Y004496D01*
X012611Y004496D01*
X012611Y003852D01*
X012699Y003764D01*
X013296Y003764D01*
X013384Y003852D01*
X013384Y004837D01*
X013497Y004723D01*
X013497Y003589D01*
X013497Y003423D01*
X013919Y003001D01*
X013847Y003038D01*
X013769Y003063D01*
X013697Y003075D01*
X013697Y002606D01*
X013597Y002606D01*
X013597Y003075D01*
X013525Y003063D01*
X013447Y003038D01*
X013374Y003001D01*
X013308Y002953D01*
X013250Y002895D01*
X013202Y002829D01*
X013165Y002756D01*
X013148Y002704D01*
X013088Y002851D01*
X012942Y002997D01*
X012750Y003076D01*
X012544Y003076D01*
X012352Y002997D01*
X012207Y002852D01*
X012207Y002993D01*
X012207Y003731D01*
X012309Y003731D01*
X012397Y003819D01*
X012397Y004193D01*
X012397Y004496D01*
X012397Y004452D02*
X012611Y004452D01*
X012611Y004354D02*
X012397Y004354D01*
X012397Y004255D02*
X012611Y004255D01*
X012611Y004157D02*
X012397Y004157D01*
X012397Y004058D02*
X012611Y004058D01*
X012611Y003960D02*
X012397Y003960D01*
X012397Y003861D02*
X012611Y003861D01*
X012340Y003763D02*
X013497Y003763D01*
X013497Y003861D02*
X013384Y003861D01*
X013384Y003960D02*
X013497Y003960D01*
X013497Y004058D02*
X013384Y004058D01*
X013384Y004157D02*
X013497Y004157D01*
X013497Y004255D02*
X013384Y004255D01*
X013384Y004354D02*
X013497Y004354D01*
X013497Y004452D02*
X013384Y004452D01*
X013384Y004551D02*
X013497Y004551D01*
X013497Y004649D02*
X013384Y004649D01*
X013384Y004748D02*
X013472Y004748D01*
X013697Y004806D02*
X013697Y003506D01*
X014647Y002556D01*
X015118Y002777D02*
X015176Y002777D01*
X015231Y002876D02*
X015063Y002876D01*
X014964Y002974D02*
X015330Y002974D01*
X015447Y003073D02*
X014759Y003073D01*
X014535Y003073D02*
X014413Y003073D01*
X014315Y003171D02*
X015447Y003171D01*
X015447Y003270D02*
X014216Y003270D01*
X014118Y003368D02*
X015447Y003368D01*
X015353Y003467D02*
X014019Y003467D01*
X013921Y003566D02*
X015255Y003566D01*
X015156Y003664D02*
X013897Y003664D01*
X013897Y003763D02*
X015058Y003763D01*
X014959Y003861D02*
X014674Y003861D01*
X014673Y003856D02*
X014683Y003894D01*
X014683Y004356D01*
X014347Y004356D01*
X014347Y004456D01*
X014683Y004456D01*
X014683Y004918D01*
X014673Y004956D01*
X014653Y004991D01*
X014625Y005018D01*
X014591Y005038D01*
X014553Y005048D01*
X014346Y005048D01*
X014346Y004456D01*
X014247Y004456D01*
X014247Y005048D01*
X014041Y005048D01*
X014002Y005038D01*
X013968Y005018D01*
X013940Y004991D01*
X013921Y004956D01*
X013910Y004918D01*
X013910Y004456D01*
X014246Y004456D01*
X014246Y004356D01*
X013910Y004356D01*
X013910Y003894D01*
X013921Y003856D01*
X013940Y003822D01*
X013968Y003794D01*
X014002Y003774D01*
X014041Y003764D01*
X014247Y003764D01*
X014247Y004356D01*
X014346Y004356D01*
X014346Y003764D01*
X014553Y003764D01*
X014591Y003774D01*
X014625Y003794D01*
X014653Y003822D01*
X014673Y003856D01*
X014683Y003960D02*
X014861Y003960D01*
X014797Y004058D02*
X014683Y004058D01*
X014683Y004157D02*
X014797Y004157D01*
X014797Y004255D02*
X014683Y004255D01*
X014683Y004354D02*
X014797Y004354D01*
X014797Y004452D02*
X014347Y004452D01*
X014346Y004354D02*
X014247Y004354D01*
X014246Y004452D02*
X013897Y004452D01*
X013897Y004354D02*
X013910Y004354D01*
X013897Y004255D02*
X013910Y004255D01*
X013897Y004157D02*
X013910Y004157D01*
X013897Y004058D02*
X013910Y004058D01*
X013897Y003960D02*
X013910Y003960D01*
X013897Y003861D02*
X013919Y003861D01*
X014247Y003861D02*
X014346Y003861D01*
X014346Y003960D02*
X014247Y003960D01*
X014247Y004058D02*
X014346Y004058D01*
X014346Y004157D02*
X014247Y004157D01*
X014247Y004255D02*
X014346Y004255D01*
X014346Y004551D02*
X014247Y004551D01*
X014247Y004649D02*
X014346Y004649D01*
X014346Y004748D02*
X014247Y004748D01*
X014247Y004847D02*
X014346Y004847D01*
X014346Y004945D02*
X014247Y004945D01*
X014247Y005044D02*
X014346Y005044D01*
X014570Y005044D02*
X014777Y005044D01*
X014797Y004945D02*
X014676Y004945D01*
X014683Y004847D02*
X014797Y004847D01*
X014797Y004748D02*
X014683Y004748D01*
X014683Y004649D02*
X014797Y004649D01*
X014797Y004551D02*
X014683Y004551D01*
X014997Y004106D02*
X015647Y003456D01*
X015647Y001556D01*
X016027Y001200D02*
X016267Y001200D01*
X016191Y001299D02*
X016103Y001299D01*
X016144Y001398D02*
X016150Y001398D01*
X016385Y001102D02*
X015909Y001102D01*
X015385Y001102D02*
X014909Y001102D01*
X015027Y001200D02*
X015267Y001200D01*
X015191Y001299D02*
X015103Y001299D01*
X015144Y001398D02*
X015150Y001398D01*
X014385Y001102D02*
X013901Y001102D01*
X014027Y001200D02*
X014267Y001200D01*
X014191Y001299D02*
X014099Y001299D01*
X014142Y001398D02*
X014150Y001398D01*
X013697Y001398D02*
X013597Y001398D01*
X013597Y001496D02*
X013697Y001496D01*
X013697Y001606D02*
X013597Y001606D01*
X013597Y002038D01*
X013597Y002506D01*
X013697Y002506D01*
X013697Y002038D01*
X013697Y001606D01*
X013697Y001693D02*
X013597Y001693D01*
X013597Y001792D02*
X013697Y001792D01*
X013697Y001890D02*
X013597Y001890D01*
X013597Y001989D02*
X013697Y001989D01*
X013697Y002087D02*
X013597Y002087D01*
X013597Y002186D02*
X013697Y002186D01*
X013697Y002284D02*
X013597Y002284D01*
X013597Y002383D02*
X013697Y002383D01*
X013697Y002482D02*
X013597Y002482D01*
X013597Y002679D02*
X013697Y002679D01*
X013697Y002777D02*
X013597Y002777D01*
X013597Y002876D02*
X013697Y002876D01*
X013697Y002974D02*
X013597Y002974D01*
X013597Y003073D02*
X013697Y003073D01*
X013710Y003073D02*
X013848Y003073D01*
X013749Y003171D02*
X012207Y003171D01*
X012207Y003073D02*
X012535Y003073D01*
X012759Y003073D02*
X013584Y003073D01*
X013651Y003270D02*
X012207Y003270D01*
X012207Y003368D02*
X013552Y003368D01*
X013497Y003467D02*
X012207Y003467D01*
X012207Y003566D02*
X013497Y003566D01*
X013497Y003664D02*
X012207Y003664D01*
X011787Y003664D02*
X010887Y003664D01*
X010901Y003763D02*
X011098Y003763D01*
X011496Y003763D02*
X011654Y003763D01*
X011597Y003861D02*
X011593Y003861D01*
X011787Y003566D02*
X006854Y003566D01*
X006849Y003467D02*
X011787Y003467D01*
X011787Y003368D02*
X006808Y003368D01*
X006721Y003270D02*
X011787Y003270D01*
X011787Y003171D02*
X006455Y003171D01*
X006535Y003073D02*
X006356Y003073D01*
X006330Y002974D02*
X006258Y002974D01*
X006231Y002876D02*
X006159Y002876D01*
X006176Y002777D02*
X006061Y002777D01*
X006135Y002679D02*
X005962Y002679D01*
X005864Y002580D02*
X006127Y002580D01*
X006127Y002482D02*
X005765Y002482D01*
X005667Y002383D02*
X006156Y002383D01*
X006197Y002284D02*
X004097Y002284D01*
X004012Y002186D02*
X006282Y002186D01*
X006417Y002087D02*
X003877Y002087D01*
X003950Y001989D02*
X006344Y001989D01*
X006246Y001890D02*
X004048Y001890D01*
X004112Y001792D02*
X006182Y001792D01*
X006141Y001693D02*
X004153Y001693D01*
X004167Y001595D02*
X006127Y001595D01*
X006127Y001496D02*
X004167Y001496D01*
X004144Y001398D02*
X006150Y001398D01*
X006191Y001299D02*
X004103Y001299D01*
X004027Y001200D02*
X006267Y001200D01*
X006385Y001102D02*
X003909Y001102D01*
X003385Y001102D02*
X002901Y001102D01*
X003027Y001200D02*
X003267Y001200D01*
X003191Y001299D02*
X003099Y001299D01*
X003142Y001398D02*
X003150Y001398D01*
X002697Y001398D02*
X002597Y001398D01*
X002597Y001496D02*
X002697Y001496D01*
X002697Y001606D02*
X002597Y001606D01*
X002597Y002038D01*
X002597Y002506D01*
X002697Y002506D01*
X002697Y002038D01*
X002697Y001606D01*
X002697Y001693D02*
X002597Y001693D01*
X002597Y001792D02*
X002697Y001792D01*
X002697Y001890D02*
X002597Y001890D01*
X002597Y001989D02*
X002697Y001989D01*
X002697Y002087D02*
X002597Y002087D01*
X002597Y002186D02*
X002697Y002186D01*
X002697Y002284D02*
X002597Y002284D01*
X002597Y002383D02*
X002697Y002383D01*
X002697Y002482D02*
X002597Y002482D01*
X002597Y002606D02*
X002597Y003075D01*
X002525Y003063D01*
X002447Y003038D01*
X002374Y003001D01*
X002308Y002953D01*
X002250Y002895D01*
X002202Y002829D01*
X002165Y002756D01*
X002148Y002704D01*
X002111Y002795D01*
X002630Y003314D01*
X002744Y003361D01*
X002842Y003459D01*
X002890Y003574D01*
X002892Y003576D01*
X004602Y003576D01*
X004792Y003576D01*
X005192Y003976D01*
X005663Y003976D01*
X005821Y004042D01*
X005941Y004163D01*
X006007Y004321D01*
X006007Y004492D01*
X005941Y004650D01*
X005915Y004676D01*
X006355Y004676D01*
X006355Y003862D01*
X006309Y003843D01*
X006211Y003745D01*
X006158Y003617D01*
X006158Y003525D01*
X005419Y002786D01*
X004115Y002786D01*
X004088Y002851D01*
X003942Y002997D01*
X003750Y003076D01*
X003544Y003076D01*
X003352Y002997D01*
X003206Y002851D01*
X003146Y002704D01*
X003129Y002756D01*
X003092Y002829D01*
X003044Y002895D01*
X002986Y002953D01*
X002920Y003001D01*
X002847Y003038D01*
X002769Y003063D01*
X002697Y003075D01*
X002697Y002606D01*
X002597Y002606D01*
X002597Y002679D02*
X002697Y002679D01*
X002697Y002777D02*
X002597Y002777D01*
X002597Y002876D02*
X002697Y002876D01*
X002697Y002974D02*
X002597Y002974D01*
X002597Y003073D02*
X002697Y003073D01*
X002710Y003073D02*
X003535Y003073D01*
X003759Y003073D02*
X005706Y003073D01*
X005805Y003171D02*
X002487Y003171D01*
X002584Y003073D02*
X002389Y003073D01*
X002338Y002974D02*
X002290Y002974D01*
X002236Y002876D02*
X002192Y002876D01*
X002176Y002777D02*
X002118Y002777D01*
X001837Y003171D02*
X001047Y003171D01*
X001047Y003073D02*
X001535Y003073D01*
X001330Y002974D02*
X001047Y002974D01*
X001047Y002876D02*
X001231Y002876D01*
X001176Y002777D02*
X001047Y002777D01*
X001047Y002679D02*
X001135Y002679D01*
X001127Y002580D02*
X001047Y002580D01*
X001047Y002482D02*
X001127Y002482D01*
X001156Y002383D02*
X001047Y002383D01*
X001047Y002284D02*
X001197Y002284D01*
X001282Y002186D02*
X001047Y002186D01*
X001047Y002087D02*
X001417Y002087D01*
X001344Y001989D02*
X001047Y001989D01*
X001047Y001890D02*
X001246Y001890D01*
X001182Y001792D02*
X001047Y001792D01*
X001047Y001693D02*
X001141Y001693D01*
X001127Y001595D02*
X001047Y001595D01*
X001047Y001496D02*
X001127Y001496D01*
X001150Y001398D02*
X001047Y001398D01*
X001047Y001299D02*
X001191Y001299D01*
X001267Y001200D02*
X001047Y001200D01*
X001047Y001102D02*
X001385Y001102D01*
X001047Y001003D02*
X020232Y001003D01*
X020232Y001102D02*
X019909Y001102D01*
X020027Y001200D02*
X020232Y001200D01*
X020232Y001299D02*
X020103Y001299D01*
X020144Y001398D02*
X020232Y001398D01*
X020232Y001496D02*
X020167Y001496D01*
X020167Y001595D02*
X020232Y001595D01*
X020232Y001693D02*
X020153Y001693D01*
X020112Y001792D02*
X020232Y001792D01*
X020232Y001890D02*
X020048Y001890D01*
X019950Y001989D02*
X020232Y001989D01*
X020232Y002087D02*
X019877Y002087D01*
X020012Y002186D02*
X020232Y002186D01*
X020232Y002284D02*
X020097Y002284D01*
X020138Y002383D02*
X020232Y002383D01*
X020232Y002482D02*
X020167Y002482D01*
X020167Y002580D02*
X020232Y002580D01*
X020232Y002679D02*
X020159Y002679D01*
X020118Y002777D02*
X020232Y002777D01*
X020232Y002876D02*
X020063Y002876D01*
X019964Y002974D02*
X020232Y002974D01*
X020232Y003073D02*
X019759Y003073D01*
X019535Y003073D02*
X018759Y003073D01*
X018535Y003073D02*
X017759Y003073D01*
X017964Y002974D02*
X018330Y002974D01*
X018231Y002876D02*
X018063Y002876D01*
X018118Y002777D02*
X018176Y002777D01*
X018244Y003270D02*
X020232Y003270D01*
X020232Y003368D02*
X018401Y003368D01*
X018049Y003270D02*
X017547Y003270D01*
X017547Y003368D02*
X017893Y003368D01*
X017547Y003171D02*
X020232Y003171D01*
X020232Y003467D02*
X019291Y003467D01*
X019389Y003566D02*
X020232Y003566D01*
X020232Y003664D02*
X019488Y003664D01*
X019640Y003763D02*
X020232Y003763D01*
X020232Y003861D02*
X019722Y003861D01*
X019722Y003960D02*
X020232Y003960D01*
X020232Y004058D02*
X019722Y004058D01*
X019722Y004157D02*
X020232Y004157D01*
X020232Y004255D02*
X019722Y004255D01*
X019722Y004354D02*
X020232Y004354D01*
X020232Y004452D02*
X019722Y004452D01*
X019639Y004551D02*
X020232Y004551D01*
X020232Y004649D02*
X019623Y004649D01*
X019353Y004945D02*
X018441Y004945D01*
X018496Y005044D02*
X018596Y005044D01*
X018596Y005142D02*
X018496Y005142D01*
X018496Y005241D02*
X018596Y005241D01*
X018596Y005339D02*
X018496Y005339D01*
X018496Y005536D02*
X018596Y005536D01*
X018596Y005635D02*
X018496Y005635D01*
X018496Y005733D02*
X018596Y005733D01*
X018596Y005832D02*
X018496Y005832D01*
X018496Y005931D02*
X018596Y005931D01*
X018647Y006457D02*
X019648Y005456D01*
X019183Y005339D02*
X019011Y005339D01*
X019011Y005241D02*
X019183Y005241D01*
X019183Y005142D02*
X019011Y005142D01*
X019000Y005044D02*
X019183Y005044D01*
X019254Y004847D02*
X018539Y004847D01*
X018638Y004748D02*
X019156Y004748D01*
X019057Y004649D02*
X018737Y004649D01*
X018368Y004452D02*
X017547Y004452D01*
X017547Y004551D02*
X018269Y004551D01*
X018171Y004649D02*
X017547Y004649D01*
X017547Y004748D02*
X018072Y004748D01*
X017974Y004847D02*
X017547Y004847D01*
X017547Y004945D02*
X017875Y004945D01*
X017837Y005044D02*
X017547Y005044D01*
X017547Y005142D02*
X017837Y005142D01*
X017837Y005241D02*
X017547Y005241D01*
X017547Y005339D02*
X017837Y005339D01*
X017837Y005438D02*
X017547Y005438D01*
X017547Y005536D02*
X017837Y005536D01*
X017837Y005635D02*
X017740Y005635D01*
X017747Y005733D02*
X017837Y005733D01*
X017837Y005832D02*
X017747Y005832D01*
X017747Y005931D02*
X017837Y005931D01*
X017837Y006029D02*
X017747Y006029D01*
X017747Y006128D02*
X017837Y006128D01*
X017754Y006226D02*
X017747Y006226D01*
X017347Y006183D02*
X017347Y006806D01*
X017620Y007113D02*
X017637Y007113D01*
X017569Y007212D02*
X017440Y007212D01*
X017470Y007310D02*
X014548Y007310D01*
X014557Y007212D02*
X016254Y007212D01*
X016440Y007212D02*
X017254Y007212D01*
X017074Y007113D02*
X016620Y007113D01*
X016705Y007015D02*
X016989Y007015D01*
X016949Y006916D02*
X016745Y006916D01*
X016757Y006817D02*
X016937Y006817D01*
X016939Y006719D02*
X016755Y006719D01*
X016714Y006620D02*
X016980Y006620D01*
X017052Y006522D02*
X016642Y006522D01*
X016694Y006423D02*
X017000Y006423D01*
X016947Y006325D02*
X016747Y006325D01*
X016747Y006226D02*
X016947Y006226D01*
X016947Y006128D02*
X016747Y006128D01*
X016747Y006029D02*
X016947Y006029D01*
X016947Y005931D02*
X016747Y005931D01*
X016747Y005832D02*
X016947Y005832D01*
X016947Y005733D02*
X016747Y005733D01*
X016751Y005635D02*
X016954Y005635D01*
X016797Y005536D02*
X017147Y005536D01*
X017147Y005438D02*
X016797Y005438D01*
X016797Y005339D02*
X017147Y005339D01*
X017147Y005241D02*
X016797Y005241D01*
X016797Y005142D02*
X017147Y005142D01*
X017147Y005044D02*
X016797Y005044D01*
X016797Y004945D02*
X017147Y004945D01*
X017147Y004847D02*
X016797Y004847D01*
X016797Y004748D02*
X017147Y004748D01*
X017147Y004649D02*
X016797Y004649D01*
X016797Y004551D02*
X017147Y004551D01*
X017147Y004452D02*
X016797Y004452D01*
X016797Y004354D02*
X017147Y004354D01*
X017147Y004255D02*
X016797Y004255D01*
X016797Y004157D02*
X017147Y004157D01*
X017147Y004058D02*
X016797Y004058D01*
X016797Y003960D02*
X017147Y003960D01*
X017147Y003861D02*
X016797Y003861D01*
X016797Y003763D02*
X017147Y003763D01*
X017147Y003664D02*
X016797Y003664D01*
X016797Y003566D02*
X017147Y003566D01*
X017147Y003467D02*
X016797Y003467D01*
X016797Y003368D02*
X017147Y003368D01*
X017147Y003270D02*
X016797Y003270D01*
X016797Y003171D02*
X017147Y003171D01*
X017147Y003073D02*
X016797Y003073D01*
X016964Y002974D02*
X017147Y002974D01*
X017147Y002876D02*
X017063Y002876D01*
X017118Y002777D02*
X017147Y002777D01*
X017347Y002856D02*
X017647Y002556D01*
X017347Y002856D02*
X017347Y005829D01*
X016597Y005506D02*
X016597Y002606D01*
X016647Y002556D01*
X016176Y002777D02*
X016118Y002777D01*
X016063Y002876D02*
X016231Y002876D01*
X016330Y002974D02*
X015964Y002974D01*
X015847Y003073D02*
X016397Y003073D01*
X016397Y003171D02*
X015847Y003171D01*
X015847Y003270D02*
X016397Y003270D01*
X016397Y003368D02*
X015847Y003368D01*
X015847Y003467D02*
X016397Y003467D01*
X016397Y003566D02*
X015821Y003566D01*
X015722Y003664D02*
X016397Y003664D01*
X016397Y003763D02*
X015624Y003763D01*
X015525Y003861D02*
X016397Y003861D01*
X016397Y003960D02*
X015426Y003960D01*
X015328Y004058D02*
X016397Y004058D01*
X016397Y004157D02*
X015229Y004157D01*
X015197Y004255D02*
X016397Y004255D01*
X016397Y004354D02*
X015197Y004354D01*
X015197Y004452D02*
X016397Y004452D01*
X016397Y004551D02*
X015197Y004551D01*
X015197Y004649D02*
X016397Y004649D01*
X016397Y004748D02*
X015197Y004748D01*
X015197Y004847D02*
X016397Y004847D01*
X016397Y004945D02*
X015197Y004945D01*
X015197Y005044D02*
X016397Y005044D01*
X016397Y005142D02*
X015197Y005142D01*
X015145Y005241D02*
X016397Y005241D01*
X016397Y005339D02*
X015047Y005339D01*
X014948Y005438D02*
X016383Y005438D01*
X016284Y005536D02*
X014850Y005536D01*
X014751Y005635D02*
X015954Y005635D01*
X015947Y005733D02*
X014653Y005733D01*
X014554Y005832D02*
X015947Y005832D01*
X015947Y005931D02*
X014586Y005931D01*
X014597Y006029D02*
X015947Y006029D01*
X015947Y006128D02*
X014597Y006128D01*
X014597Y006226D02*
X015947Y006226D01*
X015947Y006325D02*
X014597Y006325D01*
X014597Y006423D02*
X016000Y006423D01*
X016052Y006522D02*
X014597Y006522D01*
X014597Y006620D02*
X015980Y006620D01*
X015939Y006719D02*
X014549Y006719D01*
X014347Y006817D02*
X015937Y006817D01*
X015949Y006916D02*
X014436Y006916D01*
X014511Y007015D02*
X015989Y007015D01*
X016074Y007113D02*
X014552Y007113D01*
X014507Y007409D02*
X017372Y007409D01*
X017273Y007507D02*
X014426Y007507D01*
X014254Y007606D02*
X017175Y007606D01*
X017197Y007866D02*
X017197Y008356D01*
X017545Y008394D02*
X017552Y008394D01*
X017197Y007866D02*
X017837Y007226D01*
X018647Y007133D02*
X018647Y006457D01*
X020220Y004847D02*
X020232Y004847D01*
X020232Y004748D02*
X020122Y004748D01*
X018472Y003861D02*
X018384Y003861D01*
X018964Y002974D02*
X019330Y002974D01*
X019231Y002876D02*
X019063Y002876D01*
X019118Y002777D02*
X019176Y002777D01*
X019144Y001398D02*
X019150Y001398D01*
X019191Y001299D02*
X019103Y001299D01*
X019027Y001200D02*
X019267Y001200D01*
X019385Y001102D02*
X018909Y001102D01*
X018385Y001102D02*
X017909Y001102D01*
X018027Y001200D02*
X018267Y001200D01*
X018191Y001299D02*
X018103Y001299D01*
X018144Y001398D02*
X018150Y001398D01*
X017385Y001102D02*
X016909Y001102D01*
X017027Y001200D02*
X017267Y001200D01*
X017191Y001299D02*
X017103Y001299D01*
X017144Y001398D02*
X017150Y001398D01*
X014997Y004106D02*
X014997Y005106D01*
X014197Y005906D01*
X014197Y006129D01*
X014197Y006483D02*
X014147Y006533D01*
X014147Y007206D01*
X013868Y007507D02*
X012526Y007507D01*
X012607Y007409D02*
X013787Y007409D01*
X013746Y007310D02*
X012648Y007310D01*
X012657Y007212D02*
X013737Y007212D01*
X013742Y007113D02*
X012652Y007113D01*
X012611Y007015D02*
X013783Y007015D01*
X013857Y006916D02*
X012536Y006916D01*
X012447Y006817D02*
X013947Y006817D01*
X013845Y006719D02*
X012649Y006719D01*
X012697Y006620D02*
X013797Y006620D01*
X013797Y006522D02*
X012697Y006522D01*
X012697Y006423D02*
X013797Y006423D01*
X013797Y006325D02*
X012697Y006325D01*
X012697Y006226D02*
X013797Y006226D01*
X013797Y006128D02*
X012697Y006128D01*
X012757Y006029D02*
X013797Y006029D01*
X013808Y005931D02*
X012856Y005931D01*
X012954Y005832D02*
X013997Y005832D01*
X014087Y005733D02*
X013053Y005733D01*
X013151Y005635D02*
X014186Y005635D01*
X014284Y005536D02*
X013250Y005536D01*
X013348Y005438D02*
X014383Y005438D01*
X014481Y005339D02*
X013447Y005339D01*
X013545Y005241D02*
X014580Y005241D01*
X014678Y005142D02*
X013644Y005142D01*
X013742Y005044D02*
X014023Y005044D01*
X013918Y004945D02*
X013841Y004945D01*
X013897Y004847D02*
X013910Y004847D01*
X013897Y004748D02*
X013910Y004748D01*
X013897Y004649D02*
X013910Y004649D01*
X013897Y004551D02*
X013910Y004551D01*
X013697Y004806D02*
X012374Y006129D01*
X012297Y006129D01*
X012297Y006483D02*
X012247Y006533D01*
X012247Y007206D01*
X012354Y007606D02*
X014040Y007606D01*
X016110Y008394D02*
X008849Y008394D01*
X008849Y008493D02*
X016208Y008493D01*
X016501Y010069D02*
X016817Y010069D01*
X016817Y010168D02*
X016501Y010168D01*
X016467Y010266D02*
X016817Y010266D01*
X016817Y010365D02*
X010545Y010365D01*
X010509Y010464D02*
X016817Y010464D01*
X016817Y010562D02*
X016483Y010562D01*
X016501Y010661D02*
X016817Y010661D01*
X016817Y010759D02*
X016501Y010759D01*
X016501Y010858D02*
X016817Y010858D01*
X016817Y010956D02*
X016501Y010956D01*
X016501Y011055D02*
X016817Y011055D01*
X016817Y011153D02*
X016501Y011153D01*
X016501Y011252D02*
X016867Y011252D01*
X016485Y011350D02*
X018020Y011350D01*
X018494Y011942D02*
X018877Y011942D01*
X018851Y012040D02*
X018396Y012040D01*
X018345Y012139D02*
X018851Y012139D01*
X018851Y012237D02*
X018340Y012237D01*
X019325Y012237D02*
X019425Y012237D01*
X019425Y012139D02*
X019325Y012139D01*
X019325Y012040D02*
X019425Y012040D01*
X019425Y011942D02*
X019325Y011942D01*
X019325Y012533D02*
X019425Y012533D01*
X019425Y012631D02*
X019325Y012631D01*
X017702Y014570D02*
X017527Y014556D01*
X017414Y015686D02*
X016895Y015686D01*
X016871Y015785D02*
X017414Y015785D01*
X017414Y015883D02*
X016812Y015883D01*
X016670Y015982D02*
X017414Y015982D01*
X017414Y016081D02*
X015954Y016081D01*
X016053Y016179D02*
X017493Y016179D01*
X016424Y015982D02*
X015855Y015982D01*
X014389Y015489D02*
X013145Y015489D01*
X013057Y015391D02*
X014417Y015391D01*
X014417Y015292D02*
X012958Y015292D01*
X012860Y015194D02*
X014417Y015194D01*
X014417Y015095D02*
X014145Y015095D01*
X014138Y015099D02*
X014100Y015109D01*
X013854Y015109D01*
X013854Y014655D01*
X013755Y014655D01*
X013755Y015109D01*
X013509Y015109D01*
X013471Y015099D01*
X013437Y015079D01*
X013409Y015052D01*
X013389Y015017D01*
X013379Y014979D01*
X013379Y014655D01*
X013754Y014655D01*
X013754Y014555D01*
X013379Y014555D01*
X013379Y014231D01*
X013389Y014193D01*
X013409Y014159D01*
X013437Y014131D01*
X013471Y014111D01*
X013509Y014101D01*
X013755Y014101D01*
X013755Y014555D01*
X013854Y014555D01*
X013854Y014101D01*
X014100Y014101D01*
X014138Y014111D01*
X014172Y014131D01*
X014200Y014159D01*
X014220Y014193D01*
X014230Y014231D01*
X014230Y014555D01*
X013855Y014555D01*
X013855Y014655D01*
X014230Y014655D01*
X014230Y014979D01*
X014220Y015017D01*
X014200Y015052D01*
X014172Y015079D01*
X014138Y015099D01*
X014225Y014997D02*
X014417Y014997D01*
X014417Y014898D02*
X014230Y014898D01*
X014230Y014799D02*
X014417Y014799D01*
X014417Y014701D02*
X014230Y014701D01*
X014230Y014504D02*
X014417Y014504D01*
X014417Y014602D02*
X013855Y014602D01*
X013854Y014504D02*
X013755Y014504D01*
X013754Y014602D02*
X006518Y014602D01*
X006420Y014504D02*
X006664Y014504D01*
X006593Y014405D02*
X006321Y014405D01*
X006223Y014307D02*
X006593Y014307D01*
X006593Y014208D02*
X006124Y014208D01*
X006026Y014110D02*
X006593Y014110D01*
X006593Y014011D02*
X005927Y014011D01*
X005828Y013913D02*
X006593Y013913D01*
X006593Y013814D02*
X005795Y013814D01*
X005765Y013715D02*
X006593Y013715D01*
X006654Y013617D02*
X005700Y013617D01*
X005541Y013518D02*
X007402Y013518D01*
X007449Y013420D02*
X004616Y013420D01*
X004715Y013321D02*
X007455Y013321D01*
X007797Y013406D02*
X007197Y014006D01*
X007097Y014006D01*
X007097Y014055D01*
X007530Y014504D02*
X007664Y014504D01*
X007672Y014701D02*
X007522Y014701D01*
X008097Y014055D02*
X008097Y014006D01*
X008197Y014006D01*
X008797Y013406D01*
X009097Y014006D02*
X009097Y014055D01*
X009097Y014006D02*
X009197Y014006D01*
X009797Y013406D01*
X010097Y014006D02*
X010097Y014055D01*
X010097Y014006D02*
X010197Y014006D01*
X010797Y013406D01*
X010897Y013406D01*
X011197Y013806D02*
X011197Y014006D01*
X011097Y014006D01*
X011097Y014055D01*
X011197Y013806D02*
X011597Y013406D01*
X011897Y013106D01*
X014497Y013106D01*
X015157Y013766D01*
X014417Y013814D02*
X013497Y013814D01*
X013357Y013814D02*
X013245Y013814D01*
X013230Y013913D02*
X014417Y013913D01*
X014417Y014011D02*
X013184Y014011D01*
X013074Y014110D02*
X013476Y014110D01*
X013385Y014208D02*
X012601Y014208D01*
X012601Y014110D02*
X012720Y014110D01*
X012610Y014011D02*
X012601Y014011D01*
X012601Y014307D02*
X013379Y014307D01*
X013379Y014405D02*
X012601Y014405D01*
X012530Y014504D02*
X013379Y014504D01*
X013379Y014701D02*
X012522Y014701D01*
X012601Y014799D02*
X013379Y014799D01*
X013379Y014898D02*
X012601Y014898D01*
X012662Y014997D02*
X013384Y014997D01*
X013464Y015095D02*
X012761Y015095D01*
X012603Y015588D02*
X012548Y015588D01*
X012692Y015686D02*
X011327Y015686D01*
X011327Y015785D02*
X012790Y015785D01*
X012889Y015883D02*
X011327Y015883D01*
X011548Y015588D02*
X011646Y015588D01*
X012397Y016106D02*
X012097Y016406D01*
X013244Y015588D02*
X014290Y015588D01*
X013854Y015095D02*
X013755Y015095D01*
X013755Y014997D02*
X013854Y014997D01*
X013854Y014898D02*
X013755Y014898D01*
X013755Y014799D02*
X013854Y014799D01*
X013854Y014701D02*
X013755Y014701D01*
X013755Y014405D02*
X013854Y014405D01*
X013854Y014307D02*
X013755Y014307D01*
X013755Y014208D02*
X013854Y014208D01*
X013854Y014110D02*
X013755Y014110D01*
X014133Y014110D02*
X014417Y014110D01*
X014417Y014208D02*
X014224Y014208D01*
X014230Y014307D02*
X014417Y014307D01*
X014417Y014405D02*
X014230Y014405D01*
X014401Y013715D02*
X013670Y013715D01*
X013741Y013617D02*
X014302Y013617D01*
X014904Y012730D02*
X014925Y012730D01*
X015700Y012040D02*
X015994Y012040D01*
X012097Y013466D02*
X012097Y014055D01*
X011664Y014504D02*
X011530Y014504D01*
X011522Y014701D02*
X011672Y014701D01*
X010672Y014701D02*
X010522Y014701D01*
X010530Y014504D02*
X010664Y014504D01*
X009664Y014504D02*
X009530Y014504D01*
X009522Y014701D02*
X009672Y014701D01*
X008672Y014701D02*
X008522Y014701D01*
X008530Y014504D02*
X008664Y014504D01*
X009307Y015646D02*
X010037Y015646D01*
X010397Y016006D01*
X010447Y016006D01*
X009307Y015646D02*
X009247Y015706D01*
X002447Y015706D01*
X002297Y015556D01*
X001647Y015556D01*
X002020Y015194D02*
X005402Y015194D01*
X005449Y015292D02*
X002100Y015292D01*
X002414Y015391D02*
X005455Y015391D01*
X005496Y015489D02*
X002513Y015489D01*
X002397Y015906D02*
X007647Y015906D01*
X008147Y016406D01*
X008342Y016406D01*
X008366Y016430D01*
X009547Y016906D02*
X009547Y016931D01*
X009547Y016906D02*
X001997Y016906D01*
X001647Y016556D01*
X002247Y016056D02*
X002397Y015906D01*
X002041Y014898D02*
X005106Y014898D01*
X005007Y014799D02*
X002109Y014799D01*
X002150Y014701D02*
X004909Y014701D01*
X004810Y014602D02*
X002167Y014602D01*
X002167Y014504D02*
X004162Y014504D01*
X004063Y014405D02*
X003785Y014405D01*
X003889Y014307D02*
X003965Y014307D01*
X003397Y013814D02*
X001975Y013814D01*
X001784Y013913D02*
X003300Y013913D01*
X003118Y013518D02*
X005353Y013518D01*
X005194Y013617D02*
X003019Y013617D01*
X002847Y013506D02*
X002297Y013506D01*
X002297Y012806D02*
X002297Y012406D01*
X001647Y012406D01*
X001278Y012040D02*
X001047Y012040D01*
X001047Y011942D02*
X001410Y011942D01*
X001349Y011843D02*
X001047Y011843D01*
X001047Y011745D02*
X001250Y011745D01*
X001184Y011646D02*
X001047Y011646D01*
X001047Y011548D02*
X001143Y011548D01*
X001127Y011449D02*
X001047Y011449D01*
X001047Y011350D02*
X001127Y011350D01*
X001148Y011252D02*
X001047Y011252D01*
X001047Y011153D02*
X001189Y011153D01*
X001263Y011055D02*
X001047Y011055D01*
X001047Y010956D02*
X001375Y010956D01*
X001378Y010858D02*
X001047Y010858D01*
X001047Y010759D02*
X001265Y010759D01*
X001190Y010661D02*
X001047Y010661D01*
X001047Y010562D02*
X001149Y010562D01*
X001127Y010464D02*
X001047Y010464D01*
X001047Y010365D02*
X001127Y010365D01*
X001142Y010266D02*
X001047Y010266D01*
X001047Y010168D02*
X001183Y010168D01*
X001249Y010069D02*
X001047Y010069D01*
X001047Y009971D02*
X001347Y009971D01*
X001413Y009872D02*
X001047Y009872D01*
X001047Y009774D02*
X001279Y009774D01*
X001196Y009675D02*
X001047Y009675D01*
X001047Y009577D02*
X001155Y009577D01*
X001127Y009478D02*
X001047Y009478D01*
X001047Y009380D02*
X001127Y009380D01*
X001136Y009281D02*
X001047Y009281D01*
X001047Y009182D02*
X001177Y009182D01*
X001234Y009084D02*
X001047Y009084D01*
X001047Y008985D02*
X001333Y008985D01*
X001445Y008887D02*
X001047Y008887D01*
X001047Y008788D02*
X001294Y008788D01*
X001210Y008690D02*
X001047Y008690D01*
X001047Y008591D02*
X001160Y008591D01*
X001134Y008493D02*
X001047Y008493D01*
X001047Y008394D02*
X001597Y008394D01*
X001597Y008296D02*
X001697Y008296D01*
X001697Y008394D02*
X002167Y008394D01*
X002156Y008296D02*
X002167Y008296D01*
X002167Y008197D02*
X002124Y008197D01*
X002167Y008099D02*
X002066Y008099D01*
X001972Y008000D02*
X002167Y008000D01*
X002167Y007901D02*
X001776Y007901D01*
X001697Y007901D02*
X001597Y007901D01*
X001518Y007901D02*
X001047Y007901D01*
X001047Y007803D02*
X002167Y007803D01*
X002167Y007704D02*
X001047Y007704D01*
X001047Y007606D02*
X001544Y007606D01*
X001363Y007507D02*
X001047Y007507D01*
X001047Y007409D02*
X001264Y007409D01*
X001219Y007310D02*
X001047Y007310D01*
X001047Y007212D02*
X001178Y007212D01*
X001177Y007113D02*
X001047Y007113D01*
X001047Y007015D02*
X001177Y007015D01*
X001213Y006916D02*
X001047Y006916D01*
X001047Y006817D02*
X001254Y006817D01*
X001349Y006719D02*
X001047Y006719D01*
X001047Y006620D02*
X001511Y006620D01*
X001377Y006522D02*
X001047Y006522D01*
X001047Y006423D02*
X001279Y006423D01*
X001225Y006325D02*
X001047Y006325D01*
X001047Y006226D02*
X001184Y006226D01*
X001177Y006128D02*
X001047Y006128D01*
X001047Y006029D02*
X001177Y006029D01*
X001207Y005931D02*
X001047Y005931D01*
X001047Y005832D02*
X001248Y005832D01*
X001334Y005733D02*
X001047Y005733D01*
X001047Y005635D02*
X001456Y005635D01*
X001358Y005536D02*
X001047Y005536D01*
X001047Y005438D02*
X001259Y005438D01*
X001161Y005339D02*
X001047Y005339D01*
X001047Y005241D02*
X001097Y005241D01*
X001097Y005142D02*
X001047Y005142D01*
X001047Y005044D02*
X001097Y005044D01*
X001097Y004945D02*
X001047Y004945D01*
X001047Y004847D02*
X001097Y004847D01*
X001097Y004748D02*
X001047Y004748D01*
X001047Y004649D02*
X001185Y004649D01*
X001283Y004551D02*
X001047Y004551D01*
X001047Y004452D02*
X001382Y004452D01*
X001325Y004354D02*
X001047Y004354D01*
X001047Y004255D02*
X001227Y004255D01*
X001128Y004157D02*
X001047Y004157D01*
X001047Y004058D02*
X001097Y004058D01*
X001097Y003960D02*
X001047Y003960D01*
X001047Y003861D02*
X001697Y003861D01*
X001697Y003763D02*
X001797Y003763D01*
X001797Y003664D02*
X001697Y003664D01*
X001697Y003566D02*
X001797Y003566D01*
X001797Y003467D02*
X001697Y003467D01*
X001697Y003368D02*
X001797Y003368D01*
X001797Y003270D02*
X001697Y003270D01*
X001414Y003270D02*
X001047Y003270D01*
X001047Y003368D02*
X001316Y003368D01*
X001217Y003467D02*
X001047Y003467D01*
X001047Y003566D02*
X001119Y003566D01*
X001097Y003664D02*
X001047Y003664D01*
X001047Y003763D02*
X001097Y003763D01*
X002586Y003270D02*
X005903Y003270D01*
X006002Y003368D02*
X002751Y003368D01*
X002845Y003467D02*
X006100Y003467D01*
X006158Y003566D02*
X002886Y003566D01*
X002956Y002974D02*
X003330Y002974D01*
X003231Y002876D02*
X003058Y002876D01*
X003118Y002777D02*
X003176Y002777D01*
X003964Y002974D02*
X005607Y002974D01*
X005509Y002876D02*
X004063Y002876D01*
X004880Y003664D02*
X006177Y003664D01*
X006229Y003763D02*
X004979Y003763D01*
X005077Y003861D02*
X006354Y003861D01*
X006355Y003960D02*
X005176Y003960D01*
X005837Y004058D02*
X006355Y004058D01*
X006355Y004157D02*
X005936Y004157D01*
X005980Y004255D02*
X006355Y004255D01*
X006355Y004354D02*
X006007Y004354D01*
X006007Y004452D02*
X006355Y004452D01*
X006355Y004551D02*
X005982Y004551D01*
X005942Y004649D02*
X006355Y004649D01*
X007403Y004649D02*
X007891Y004649D01*
X007891Y004551D02*
X007403Y004551D01*
X007403Y004452D02*
X007891Y004452D01*
X007891Y004354D02*
X007403Y004354D01*
X007403Y004255D02*
X007891Y004255D01*
X007891Y004157D02*
X007403Y004157D01*
X007403Y004058D02*
X007891Y004058D01*
X007891Y003960D02*
X007403Y003960D01*
X007403Y003861D02*
X007891Y003861D01*
X007953Y003763D02*
X007341Y003763D01*
X006834Y003664D02*
X009907Y003664D01*
X009893Y003763D02*
X008876Y003763D01*
X008939Y003861D02*
X009893Y003861D01*
X009893Y003960D02*
X008939Y003960D01*
X008939Y004058D02*
X009893Y004058D01*
X009893Y004157D02*
X008939Y004157D01*
X008939Y004255D02*
X009893Y004255D01*
X009893Y004354D02*
X008939Y004354D01*
X008939Y004452D02*
X009913Y004452D01*
X009925Y004748D02*
X008939Y004748D01*
X008939Y004649D02*
X011087Y004649D01*
X011087Y004748D02*
X010869Y004748D01*
X010901Y004847D02*
X011087Y004847D01*
X011087Y004945D02*
X010901Y004945D01*
X010901Y005044D02*
X011087Y005044D01*
X011087Y005142D02*
X010901Y005142D01*
X010901Y005241D02*
X011087Y005241D01*
X011087Y005339D02*
X010901Y005339D01*
X010901Y005438D02*
X011087Y005438D01*
X011087Y005536D02*
X010899Y005536D01*
X011087Y005635D02*
X009194Y005635D01*
X009292Y005536D02*
X009894Y005536D01*
X009893Y005438D02*
X009391Y005438D01*
X009036Y005142D02*
X008939Y005142D01*
X008939Y005044D02*
X009134Y005044D01*
X009233Y004945D02*
X008939Y004945D01*
X008939Y004847D02*
X009893Y004847D01*
X010881Y004452D02*
X011204Y004452D01*
X011106Y004354D02*
X010901Y004354D01*
X011105Y004551D02*
X008939Y004551D01*
X008740Y005438D02*
X008391Y005438D01*
X008292Y005536D02*
X008642Y005536D01*
X008376Y005635D02*
X008194Y005635D01*
X008292Y005733D02*
X007667Y005733D01*
X007427Y005733D02*
X005858Y005733D01*
X005673Y005832D02*
X008251Y005832D01*
X008249Y005931D02*
X002577Y005931D01*
X002577Y006029D02*
X003104Y006029D01*
X002988Y006128D02*
X002577Y006128D01*
X002577Y006226D02*
X002926Y006226D01*
X002887Y006325D02*
X002577Y006325D01*
X002577Y006423D02*
X002887Y006423D01*
X002899Y006522D02*
X002577Y006522D01*
X002577Y006620D02*
X002940Y006620D01*
X003022Y006719D02*
X002577Y006719D01*
X002511Y006817D02*
X003155Y006817D01*
X002995Y006916D02*
X002413Y006916D01*
X002464Y007015D02*
X002314Y007015D01*
X002365Y007113D02*
X002217Y007113D01*
X002216Y007212D02*
X002266Y007212D01*
X002167Y007409D02*
X002130Y007409D01*
X002167Y007507D02*
X002031Y007507D01*
X002167Y007606D02*
X001850Y007606D01*
X001697Y008000D02*
X001597Y008000D01*
X001597Y008099D02*
X001697Y008099D01*
X001697Y008197D02*
X001597Y008197D01*
X001322Y008000D02*
X001047Y008000D01*
X001047Y008099D02*
X001228Y008099D01*
X001170Y008197D02*
X001047Y008197D01*
X001047Y008296D02*
X001138Y008296D01*
X001849Y008887D02*
X002049Y008887D01*
X002053Y008985D02*
X001961Y008985D01*
X002060Y009084D02*
X002094Y009084D01*
X002117Y009182D02*
X002181Y009182D01*
X002158Y009281D02*
X003441Y009281D01*
X003441Y009182D02*
X002613Y009182D01*
X002700Y009084D02*
X003441Y009084D01*
X003441Y008985D02*
X002741Y008985D01*
X002745Y008887D02*
X003441Y008887D01*
X003441Y008788D02*
X002725Y008788D01*
X002673Y008690D02*
X003441Y008690D01*
X003441Y008591D02*
X002627Y008591D01*
X002627Y008493D02*
X003441Y008493D01*
X003441Y008394D02*
X002627Y008394D01*
X002627Y008296D02*
X003441Y008296D01*
X003441Y008197D02*
X002627Y008197D01*
X002167Y008493D02*
X002160Y008493D01*
X002167Y008591D02*
X002134Y008591D01*
X002121Y008690D02*
X002084Y008690D01*
X002069Y008788D02*
X002000Y008788D01*
X002167Y009380D02*
X003441Y009380D01*
X003441Y009478D02*
X002167Y009478D01*
X002139Y009577D02*
X003441Y009577D01*
X003441Y009675D02*
X002098Y009675D01*
X002015Y009774D02*
X003441Y009774D01*
X003441Y009872D02*
X001881Y009872D01*
X001947Y009971D02*
X003441Y009971D01*
X003441Y010069D02*
X002045Y010069D01*
X002111Y010168D02*
X003441Y010168D01*
X003441Y010266D02*
X002152Y010266D01*
X002167Y010365D02*
X003441Y010365D01*
X003441Y010464D02*
X002167Y010464D01*
X002145Y010562D02*
X003441Y010562D01*
X003441Y010661D02*
X002104Y010661D01*
X002029Y010759D02*
X003441Y010759D01*
X003441Y010858D02*
X001916Y010858D01*
X001919Y010956D02*
X003441Y010956D01*
X003441Y011055D02*
X002031Y011055D01*
X002105Y011153D02*
X002408Y011153D01*
X002647Y011406D02*
X002997Y011406D01*
X003747Y012156D01*
X004097Y012156D02*
X004097Y011456D01*
X003641Y011000D01*
X003641Y007768D01*
X003838Y007409D02*
X004231Y007409D01*
X004113Y007507D02*
X003956Y007507D01*
X004015Y007606D02*
X004055Y007606D01*
X004043Y007901D02*
X004027Y007901D01*
X003985Y008000D02*
X004084Y008000D01*
X004183Y008099D02*
X003887Y008099D01*
X003841Y008197D02*
X005834Y008197D01*
X005757Y008099D02*
X005462Y008099D01*
X005560Y008000D02*
X005659Y008000D01*
X005617Y007901D02*
X005602Y007901D01*
X005590Y007606D02*
X005629Y007606D01*
X005688Y007507D02*
X005531Y007507D01*
X005413Y007409D02*
X005806Y007409D01*
X006003Y007768D02*
X006841Y008606D01*
X007020Y008606D01*
X006741Y008788D02*
X006207Y008788D01*
X006298Y008690D02*
X006642Y008690D01*
X006544Y008591D02*
X006339Y008591D01*
X006345Y008493D02*
X006445Y008493D01*
X006347Y008394D02*
X006327Y008394D01*
X005997Y008506D02*
X005497Y008506D01*
X005497Y008529D01*
X005497Y008883D02*
X005497Y008906D01*
X004997Y008906D01*
X004197Y009706D01*
X004197Y009806D01*
X004297Y009906D01*
X004297Y010256D01*
X003965Y010365D02*
X003841Y010365D01*
X003841Y010464D02*
X004012Y010464D01*
X004126Y010562D02*
X003841Y010562D01*
X003841Y010266D02*
X003949Y010266D01*
X003957Y010168D02*
X003841Y010168D01*
X003841Y010069D02*
X003998Y010069D01*
X004079Y009971D02*
X003841Y009971D01*
X003841Y009872D02*
X003997Y009872D01*
X003997Y009774D02*
X003841Y009774D01*
X003841Y009675D02*
X003997Y009675D01*
X004044Y009577D02*
X003841Y009577D01*
X003841Y009478D02*
X004142Y009478D01*
X004241Y009380D02*
X003841Y009380D01*
X003841Y009281D02*
X004339Y009281D01*
X004438Y009182D02*
X003841Y009182D01*
X003841Y009084D02*
X004536Y009084D01*
X004635Y008985D02*
X003841Y008985D01*
X003841Y008887D02*
X004734Y008887D01*
X004832Y008788D02*
X003841Y008788D01*
X003841Y008690D02*
X005097Y008690D01*
X005097Y008591D02*
X003841Y008591D01*
X003841Y008493D02*
X005097Y008493D01*
X005097Y008394D02*
X003841Y008394D01*
X003841Y008296D02*
X005143Y008296D01*
X004970Y008099D02*
X004674Y008099D01*
X004773Y008000D02*
X004872Y008000D01*
X004830Y007901D02*
X004814Y007901D01*
X004802Y007606D02*
X004842Y007606D01*
X004901Y007507D02*
X004744Y007507D01*
X004626Y007409D02*
X005019Y007409D01*
X004640Y006620D02*
X004254Y006620D01*
X004295Y006522D02*
X004599Y006522D01*
X004587Y006423D02*
X004307Y006423D01*
X004307Y006325D02*
X004587Y006325D01*
X004626Y006226D02*
X004268Y006226D01*
X004206Y006128D02*
X004688Y006128D01*
X004804Y006029D02*
X004090Y006029D01*
X003973Y005832D02*
X004921Y005832D01*
X004736Y005733D02*
X004158Y005733D01*
X004344Y005635D02*
X004646Y005635D01*
X004605Y005536D02*
X004442Y005536D01*
X004541Y005438D02*
X004587Y005438D01*
X005790Y006029D02*
X008271Y006029D01*
X008326Y006128D02*
X005906Y006128D01*
X005968Y006226D02*
X008460Y006226D01*
X008734Y006226D02*
X011087Y006226D01*
X011087Y006128D02*
X008868Y006128D01*
X008923Y006029D02*
X011087Y006029D01*
X011087Y005931D02*
X008945Y005931D01*
X008996Y005832D02*
X011087Y005832D01*
X011087Y005733D02*
X009095Y005733D01*
X007891Y005142D02*
X007775Y005142D01*
X007891Y005044D02*
X007403Y005044D01*
X007403Y004945D02*
X007891Y004945D01*
X007891Y004847D02*
X007403Y004847D01*
X007403Y004748D02*
X007891Y004748D01*
X007759Y003073D02*
X008535Y003073D01*
X008759Y003073D02*
X009535Y003073D01*
X009759Y003073D02*
X010535Y003073D01*
X010330Y002974D02*
X009964Y002974D01*
X010063Y002876D02*
X010231Y002876D01*
X010176Y002777D02*
X010118Y002777D01*
X010759Y003073D02*
X011535Y003073D01*
X011759Y003073D02*
X011787Y003073D01*
X012207Y002974D02*
X012330Y002974D01*
X012231Y002876D02*
X012207Y002876D01*
X012964Y002974D02*
X013338Y002974D01*
X013236Y002876D02*
X013063Y002876D01*
X013118Y002777D02*
X013176Y002777D01*
X013144Y001398D02*
X013152Y001398D01*
X013194Y001299D02*
X013103Y001299D01*
X013027Y001200D02*
X013267Y001200D01*
X013393Y001102D02*
X012909Y001102D01*
X012385Y001102D02*
X011909Y001102D01*
X012027Y001200D02*
X012267Y001200D01*
X012191Y001299D02*
X012103Y001299D01*
X012144Y001398D02*
X012150Y001398D01*
X011385Y001102D02*
X010909Y001102D01*
X011027Y001200D02*
X011267Y001200D01*
X011191Y001299D02*
X011103Y001299D01*
X011144Y001398D02*
X011150Y001398D01*
X010385Y001102D02*
X009909Y001102D01*
X010027Y001200D02*
X010267Y001200D01*
X010191Y001299D02*
X010103Y001299D01*
X010144Y001398D02*
X010150Y001398D01*
X009385Y001102D02*
X008909Y001102D01*
X009027Y001200D02*
X009267Y001200D01*
X009191Y001299D02*
X009103Y001299D01*
X009144Y001398D02*
X009150Y001398D01*
X008385Y001102D02*
X007909Y001102D01*
X008027Y001200D02*
X008267Y001200D01*
X008191Y001299D02*
X008103Y001299D01*
X008144Y001398D02*
X008150Y001398D01*
X007385Y001102D02*
X006909Y001102D01*
X007027Y001200D02*
X007267Y001200D01*
X007191Y001299D02*
X007103Y001299D01*
X007144Y001398D02*
X007150Y001398D01*
X007118Y002777D02*
X007176Y002777D01*
X007231Y002876D02*
X007063Y002876D01*
X006964Y002974D02*
X007330Y002974D01*
X007535Y003073D02*
X006759Y003073D01*
X007964Y002974D02*
X008330Y002974D01*
X008231Y002876D02*
X008063Y002876D01*
X008118Y002777D02*
X008176Y002777D01*
X008964Y002974D02*
X009330Y002974D01*
X009231Y002876D02*
X009063Y002876D01*
X009118Y002777D02*
X009176Y002777D01*
X010964Y002974D02*
X011330Y002974D01*
X011231Y002876D02*
X011063Y002876D01*
X011118Y002777D02*
X011176Y002777D01*
X011507Y004748D02*
X011597Y004748D01*
X011597Y004847D02*
X011507Y004847D01*
X011507Y004945D02*
X011649Y004945D01*
X011087Y006325D02*
X006007Y006325D01*
X006007Y006423D02*
X011087Y006423D01*
X011087Y006522D02*
X005995Y006522D01*
X005954Y006620D02*
X011087Y006620D01*
X011087Y006719D02*
X010535Y006719D01*
X010633Y006817D02*
X010998Y006817D01*
X010958Y006916D02*
X010732Y006916D01*
X010830Y007015D02*
X010949Y007015D01*
X010964Y007113D02*
X010929Y007113D01*
X010574Y007409D02*
X010132Y007409D01*
X010254Y007507D02*
X010673Y007507D01*
X010771Y007606D02*
X010315Y007606D01*
X010343Y007704D02*
X010870Y007704D01*
X010968Y007803D02*
X010347Y007803D01*
X010348Y007800D02*
X010338Y007864D01*
X010318Y007925D01*
X010289Y007982D01*
X010251Y008034D01*
X010206Y008079D01*
X010154Y008117D01*
X010097Y008146D01*
X010036Y008166D01*
X009972Y008176D01*
X009969Y008176D01*
X009969Y007797D01*
X010348Y007797D01*
X010348Y007800D01*
X010325Y007901D02*
X011067Y007901D01*
X011165Y008000D02*
X010276Y008000D01*
X010179Y008099D02*
X011264Y008099D01*
X011363Y008197D02*
X009007Y008197D01*
X008908Y008296D02*
X011461Y008296D01*
X010959Y008887D02*
X009060Y008887D01*
X008715Y008206D02*
X008297Y008206D01*
X008197Y008306D01*
X008197Y008606D01*
X008220Y008606D01*
X008715Y008206D02*
X009153Y007768D01*
X008838Y007507D02*
X008681Y007507D01*
X008739Y007606D02*
X008779Y007606D01*
X008956Y007409D02*
X008563Y007409D01*
X008168Y007409D02*
X007775Y007409D01*
X007893Y007507D02*
X008050Y007507D01*
X007992Y007606D02*
X007952Y007606D01*
X007381Y007409D02*
X006988Y007409D01*
X007106Y007507D02*
X007263Y007507D01*
X007204Y007606D02*
X007164Y007606D01*
X006594Y007409D02*
X006200Y007409D01*
X006319Y007507D02*
X006475Y007507D01*
X006417Y007606D02*
X006377Y007606D01*
X007374Y008606D02*
X007397Y008606D01*
X007397Y009306D01*
X007697Y009606D01*
X010097Y009606D01*
X010247Y009456D01*
X010197Y010306D02*
X006997Y010306D01*
X006678Y010168D02*
X005761Y010168D01*
X005728Y010266D02*
X006649Y010266D01*
X006649Y010365D02*
X005681Y010365D01*
X005565Y010464D02*
X006685Y010464D01*
X006761Y010562D02*
X004468Y010562D01*
X004582Y010464D02*
X005229Y010464D01*
X005113Y010365D02*
X004629Y010365D01*
X004645Y010266D02*
X005066Y010266D01*
X005049Y010168D02*
X004637Y010168D01*
X004596Y010069D02*
X005056Y010069D01*
X005097Y009971D02*
X004504Y009971D01*
X004497Y009872D02*
X005189Y009872D01*
X005504Y009774D02*
X004447Y009774D01*
X004511Y009675D02*
X005603Y009675D01*
X005884Y009084D02*
X007197Y009084D01*
X007197Y009182D02*
X005004Y009182D01*
X004905Y009281D02*
X007197Y009281D01*
X007197Y009380D02*
X004807Y009380D01*
X004708Y009478D02*
X007286Y009478D01*
X007385Y009577D02*
X004609Y009577D01*
X005897Y008985D02*
X006812Y008985D01*
X006745Y008887D02*
X005897Y008887D01*
X007233Y010562D02*
X009961Y010562D01*
X010433Y010562D02*
X010511Y010562D01*
X010997Y010957D02*
X010997Y011206D01*
X011097Y011206D01*
X011597Y011706D01*
X011551Y010562D02*
X011483Y010562D01*
X011467Y010266D02*
X011493Y010266D01*
X009969Y008099D02*
X009911Y008099D01*
X009911Y008000D02*
X009969Y008000D01*
X009969Y007901D02*
X009911Y007901D01*
X009911Y007803D02*
X009969Y007803D01*
X009969Y007704D02*
X009911Y007704D01*
X009911Y007606D02*
X009969Y007606D01*
X009969Y007507D02*
X009911Y007507D01*
X009911Y007409D02*
X009969Y007409D01*
X009748Y007409D02*
X009350Y007409D01*
X009468Y007507D02*
X009626Y007507D01*
X009566Y007606D02*
X009527Y007606D01*
X009539Y007901D02*
X009555Y007901D01*
X009605Y008000D02*
X009497Y008000D01*
X009399Y008099D02*
X009702Y008099D01*
X010476Y007310D02*
X003560Y007310D01*
X003595Y007212D02*
X010377Y007212D01*
X005997Y011356D02*
X005847Y011206D01*
X005847Y011056D01*
X005997Y011356D02*
X005997Y012156D01*
X003897Y011745D02*
X003618Y011745D01*
X003520Y011646D02*
X003897Y011646D01*
X003897Y011548D02*
X003421Y011548D01*
X003323Y011449D02*
X003807Y011449D01*
X003708Y011350D02*
X003224Y011350D01*
X003125Y011252D02*
X003610Y011252D01*
X003511Y011153D02*
X002886Y011153D01*
X002647Y011406D02*
X001647Y011406D01*
X001195Y012139D02*
X001047Y012139D01*
X001047Y012237D02*
X001154Y012237D01*
X001127Y012336D02*
X001047Y012336D01*
X001047Y012434D02*
X001127Y012434D01*
X001137Y012533D02*
X001047Y012533D01*
X001047Y012631D02*
X001177Y012631D01*
X001235Y012730D02*
X001047Y012730D01*
X001047Y012829D02*
X001334Y012829D01*
X001445Y012927D02*
X001047Y012927D01*
X001047Y013026D02*
X001292Y013026D01*
X001201Y013124D02*
X001047Y013124D01*
X001047Y013223D02*
X001160Y013223D01*
X001127Y013321D02*
X001047Y013321D01*
X001047Y013420D02*
X001127Y013420D01*
X001131Y013518D02*
X001047Y013518D01*
X001047Y013617D02*
X001171Y013617D01*
X001221Y013715D02*
X001047Y013715D01*
X001047Y013814D02*
X001319Y013814D01*
X001511Y013913D02*
X001047Y013913D01*
X004113Y017559D02*
X008874Y017559D01*
X008787Y018051D02*
X009507Y018051D01*
X009318Y018150D02*
X008976Y018150D01*
X009075Y018248D02*
X009219Y018248D01*
X009171Y018347D02*
X009123Y018347D01*
X008507Y018051D02*
X007787Y018051D01*
X007976Y018150D02*
X008318Y018150D01*
X008219Y018248D02*
X008075Y018248D01*
X008123Y018347D02*
X008171Y018347D01*
X007507Y018051D02*
X006787Y018051D01*
X006976Y018150D02*
X007318Y018150D01*
X007219Y018248D02*
X007075Y018248D01*
X007123Y018347D02*
X007171Y018347D01*
X006507Y018051D02*
X003874Y018051D01*
X003721Y018051D02*
X003501Y018051D01*
X003501Y017953D02*
X003551Y017953D01*
X003501Y018150D02*
X006318Y018150D01*
X006219Y018248D02*
X003501Y018248D01*
X003486Y018347D02*
X006171Y018347D01*
X006130Y018446D02*
X002164Y018446D01*
X002167Y018544D02*
X006127Y018544D01*
X006127Y018643D02*
X003464Y018643D01*
X003501Y018741D02*
X006161Y018741D01*
X006202Y018840D02*
X003501Y018840D01*
X003501Y018938D02*
X006294Y018938D01*
X006417Y019037D02*
X003501Y019037D01*
X003501Y019135D02*
X006333Y019135D01*
X006234Y019234D02*
X003501Y019234D01*
X003501Y019332D02*
X006177Y019332D01*
X006136Y019431D02*
X003501Y019431D01*
X003312Y019530D02*
X006127Y019530D01*
X006127Y019628D02*
X003353Y019628D01*
X003365Y019727D02*
X006155Y019727D01*
X006196Y019825D02*
X003353Y019825D01*
X003312Y019924D02*
X006279Y019924D01*
X006413Y020022D02*
X003212Y020022D01*
X003017Y019726D02*
X002897Y019606D01*
X001697Y019606D01*
X002015Y019924D02*
X002722Y019924D01*
X002681Y019825D02*
X002098Y019825D01*
X001881Y020022D02*
X002822Y020022D01*
X002997Y019057D02*
X002997Y019056D01*
X002207Y019056D01*
X002483Y018840D02*
X002493Y018840D01*
X002493Y018741D02*
X002356Y018741D01*
X002530Y018643D02*
X002167Y018643D01*
X002181Y018347D02*
X002507Y018347D01*
X002493Y018248D02*
X002280Y018248D01*
X002379Y018150D02*
X002493Y018150D01*
X002493Y018051D02*
X002477Y018051D01*
X005671Y014898D02*
X006163Y014898D01*
X006617Y014701D02*
X006672Y014701D01*
X009787Y018051D02*
X010507Y018051D01*
X010318Y018150D02*
X009976Y018150D01*
X010075Y018248D02*
X010219Y018248D01*
X010171Y018347D02*
X010123Y018347D01*
X010787Y018051D02*
X011507Y018051D01*
X011318Y018150D02*
X010976Y018150D01*
X011075Y018248D02*
X011219Y018248D01*
X011171Y018347D02*
X011123Y018347D01*
X011787Y018051D02*
X012507Y018051D01*
X012318Y018150D02*
X011976Y018150D01*
X012075Y018248D02*
X012219Y018248D01*
X012171Y018347D02*
X012123Y018347D01*
X012139Y019727D02*
X012155Y019727D01*
X012196Y019825D02*
X012098Y019825D01*
X012015Y019924D02*
X012279Y019924D01*
X012413Y020022D02*
X011881Y020022D01*
X011413Y020022D02*
X010881Y020022D01*
X011015Y019924D02*
X011279Y019924D01*
X011196Y019825D02*
X011098Y019825D01*
X011139Y019727D02*
X011155Y019727D01*
X010413Y020022D02*
X009881Y020022D01*
X010015Y019924D02*
X010279Y019924D01*
X010196Y019825D02*
X010098Y019825D01*
X010139Y019727D02*
X010155Y019727D01*
X009413Y020022D02*
X008881Y020022D01*
X009015Y019924D02*
X009279Y019924D01*
X009196Y019825D02*
X009098Y019825D01*
X009139Y019727D02*
X009155Y019727D01*
X008413Y020022D02*
X007881Y020022D01*
X008015Y019924D02*
X008279Y019924D01*
X008196Y019825D02*
X008098Y019825D01*
X008139Y019727D02*
X008155Y019727D01*
X007413Y020022D02*
X006881Y020022D01*
X007015Y019924D02*
X007279Y019924D01*
X007196Y019825D02*
X007098Y019825D01*
X007139Y019727D02*
X007155Y019727D01*
X012881Y020022D02*
X013413Y020022D01*
X013279Y019924D02*
X013015Y019924D01*
X013098Y019825D02*
X013196Y019825D01*
X013155Y019727D02*
X013139Y019727D01*
X013881Y020022D02*
X014413Y020022D01*
X014279Y019924D02*
X014015Y019924D01*
X014098Y019825D02*
X014196Y019825D01*
X014155Y019727D02*
X014139Y019727D01*
X003395Y008099D02*
X003099Y008099D01*
X003198Y008000D02*
X003297Y008000D01*
X003255Y007901D02*
X003239Y007901D01*
X003595Y007113D02*
X003979Y007113D01*
X003880Y007015D02*
X003565Y007015D01*
X003499Y006916D02*
X003781Y006916D01*
X003221Y005832D02*
X002577Y005832D01*
X002595Y005733D02*
X003036Y005733D01*
X002152Y001398D02*
X002144Y001398D01*
X002103Y001299D02*
X002194Y001299D01*
X002267Y001200D02*
X002027Y001200D01*
X001909Y001102D02*
X002393Y001102D01*
X002597Y001102D02*
X002697Y001102D01*
X002697Y001200D02*
X002597Y001200D01*
X002597Y001299D02*
X002697Y001299D01*
X013597Y001299D02*
X013697Y001299D01*
X013697Y001200D02*
X013597Y001200D01*
X013597Y001102D02*
X013697Y001102D01*
X016597Y005506D02*
X016347Y005756D01*
X016347Y005829D01*
X016347Y006183D02*
X016347Y006806D01*
D27*
X017197Y008356D03*
X017427Y008816D03*
X016567Y009136D03*
X016667Y009686D03*
X016097Y011706D03*
X015597Y011706D03*
X014997Y011706D03*
X014347Y011756D03*
X013657Y011926D03*
X015047Y013056D03*
X016597Y012466D03*
X016897Y013606D03*
X017997Y012156D03*
X018697Y011106D03*
X019697Y013026D03*
X019697Y013656D03*
X020047Y014166D03*
X018897Y013456D03*
X018497Y014756D03*
X018907Y016346D03*
X018657Y016816D03*
X016567Y016236D03*
X016547Y015656D03*
X015747Y015456D03*
X014857Y017086D03*
X014097Y017506D03*
X013047Y017556D03*
X012097Y016406D03*
X010447Y016006D03*
X009547Y016931D03*
X012897Y013806D03*
X013427Y013466D03*
X012097Y013466D03*
X011597Y013406D03*
X010897Y013406D03*
X009797Y013406D03*
X008797Y013406D03*
X007797Y013406D03*
X006697Y012706D03*
X005447Y013856D03*
X005797Y015306D03*
X003597Y014106D03*
X002647Y013156D03*
X002647Y011406D03*
X004297Y010256D03*
X004997Y010906D03*
X005397Y010156D03*
X005847Y011056D03*
X006997Y010306D03*
X006477Y009146D03*
X005997Y008506D03*
X007967Y007326D03*
X008597Y005906D03*
X007547Y005406D03*
X006506Y003547D03*
X003247Y007156D03*
X002397Y008906D03*
X002547Y003656D03*
X010247Y009456D03*
X010197Y010306D03*
X011097Y009206D03*
X012077Y009276D03*
X011297Y007006D03*
X013317Y006876D03*
X011297Y004056D03*
X018147Y003606D03*
X019037Y004856D03*
X012247Y011706D03*
X011597Y011706D03*
X005777Y019046D03*
X004377Y019006D03*
X003017Y019726D03*
X002207Y019056D03*
X003797Y017706D03*
X002247Y016056D03*
D28*
X002697Y017256D02*
X008897Y017256D01*
X008997Y017356D01*
X010197Y017356D01*
X011097Y016456D01*
X012147Y017506D01*
X013047Y017506D01*
X013047Y017556D01*
X013047Y017506D02*
X014097Y017506D01*
X013647Y018556D02*
X013647Y019556D01*
X014647Y019556D02*
X014647Y018556D01*
X012647Y018556D02*
X012647Y019556D01*
X011647Y019556D02*
X011647Y018556D01*
X010647Y018556D02*
X010647Y019556D01*
X009647Y019556D02*
X009647Y018556D01*
X008647Y018556D02*
X008647Y019556D01*
X007647Y019556D02*
X007647Y018556D01*
X006647Y018556D02*
X006647Y019556D01*
X002697Y017256D02*
X002297Y017656D01*
X002297Y017906D01*
X001647Y018556D01*
X005447Y013856D02*
X006747Y015156D01*
X007047Y015156D01*
X007097Y015157D01*
X007097Y015206D01*
X008097Y015206D01*
X008097Y015157D01*
X008097Y015206D02*
X009097Y015206D01*
X009097Y015157D01*
X009097Y015206D02*
X010097Y015206D01*
X010097Y015157D01*
X010097Y015206D02*
X011097Y015206D01*
X011097Y015157D01*
X011097Y016456D01*
X011097Y015206D02*
X012097Y015206D01*
X012097Y015157D01*
X012147Y015156D01*
X012497Y015156D01*
X012897Y015556D01*
X012897Y015566D01*
X013157Y015826D01*
X014377Y015826D01*
X014647Y015556D01*
X014647Y013636D01*
X014377Y013366D01*
X013527Y013366D01*
X013427Y013466D01*
X014647Y015556D02*
X015647Y015556D01*
X015747Y015456D01*
X016547Y015656D02*
X016747Y015456D01*
X017918Y015456D01*
X017938Y015436D01*
X017647Y018556D02*
X017647Y019556D01*
X018647Y019556D02*
X018647Y018556D01*
X019647Y018556D02*
X019647Y019556D01*
X016647Y019556D02*
X016647Y018556D01*
X017047Y011106D02*
X018697Y011106D01*
X017047Y011106D02*
X017047Y009006D01*
X016197Y008156D01*
X011647Y008156D01*
X010397Y006906D01*
X004097Y006906D01*
X003597Y006406D01*
X003247Y007156D02*
X002647Y007156D01*
X002397Y007406D01*
X002397Y008906D01*
X001897Y007106D02*
X001697Y007106D01*
X001897Y007106D02*
X002347Y006656D01*
X002347Y005656D01*
X002547Y005456D01*
X003547Y005456D01*
X003597Y005406D01*
X004247Y005406D01*
X004747Y004906D01*
X006529Y004906D01*
X006879Y004556D01*
X007547Y005406D02*
X008097Y005406D01*
X008397Y005106D01*
X008397Y004574D01*
X008415Y004556D01*
X009347Y005156D02*
X010397Y005156D01*
X010397Y005157D01*
X009347Y005156D02*
X008597Y005906D01*
X007547Y005406D02*
X005297Y005406D01*
X005297Y004406D02*
X004697Y003806D01*
X002797Y003806D01*
X002597Y003606D01*
X002547Y003656D01*
X002597Y003606D02*
X001697Y002706D01*
X001697Y002606D01*
X001647Y002556D01*
X001647Y001556D01*
X003647Y001556D02*
X003647Y002556D01*
X005515Y002556D01*
X006506Y003547D01*
X006647Y002556D02*
X006647Y001556D01*
X007647Y001556D02*
X007647Y002556D01*
X008647Y002556D02*
X008647Y001556D01*
X009647Y001556D02*
X009647Y002556D01*
X010647Y002556D02*
X010647Y001556D01*
X011647Y001556D02*
X011647Y002556D01*
X012647Y002556D02*
X012647Y001556D01*
X014647Y001556D02*
X014647Y002556D01*
X015647Y002556D02*
X015647Y001556D01*
X016647Y001556D02*
X016647Y002556D01*
X017647Y002556D02*
X017647Y001556D01*
X018647Y001556D02*
X018647Y002556D01*
X019647Y002556D02*
X019647Y001556D01*
X016667Y009686D02*
X016367Y009686D01*
X016198Y009855D01*
X015997Y009855D01*
X014997Y009855D01*
X013997Y009855D01*
X012997Y009855D01*
X012957Y009895D01*
X011997Y009895D01*
X011957Y009855D01*
X010997Y009855D01*
X010897Y009856D01*
X005747Y009856D01*
X005447Y010156D01*
X005397Y010156D01*
X010947Y009856D02*
X010997Y009855D01*
X003597Y004406D02*
X003547Y004456D01*
X002747Y004456D01*
X002197Y005006D01*
X001747Y005006D01*
X001747Y005056D01*
D29*
X010397Y004056D02*
X010397Y004055D01*
X010397Y004056D02*
X011297Y004056D01*
X011597Y004356D02*
X011997Y004356D01*
X011997Y004006D02*
X011997Y002906D01*
X011647Y002556D01*
X011597Y004356D02*
X011297Y004656D01*
X011297Y007006D01*
X011997Y004706D02*
X012697Y004706D01*
X012997Y004406D01*
X017427Y008816D02*
X017737Y008506D01*
X018647Y008506D01*
X019147Y008506D01*
X019147Y009180D01*
X019647Y009180D01*
X020197Y008706D02*
X020197Y014016D01*
X020047Y014166D01*
X018907Y016346D02*
X018847Y016406D01*
X018547Y016406D01*
X018197Y016756D01*
X017897Y016756D01*
X017860Y016735D01*
X020197Y008706D02*
X019147Y007656D01*
X019147Y007133D01*
X018647Y007133D02*
X018647Y008506D01*
X019447Y004156D02*
X019447Y003906D01*
X003797Y017706D02*
X003697Y017606D01*
X002997Y017606D01*
X002997Y017955D01*
X001647Y019556D02*
X001697Y019606D01*
M02*
