G75*
G70*
%OFA0B0*%
%FSLAX24Y24*%
%IPPOS*%
%LPD*%
%AMOC8*
5,1,8,0,0,1.08239X$1,22.5*
%
%ADD10C,0.0000*%
%ADD11R,0.0210X0.0030*%
%ADD12R,0.0090X0.0030*%
%ADD13R,0.0060X0.0030*%
%ADD14R,0.0030X0.0030*%
%ADD15R,0.0120X0.0030*%
%ADD16R,0.0420X0.0030*%
%ADD17R,0.0300X0.0030*%
%ADD18R,0.0240X0.0030*%
%ADD19R,0.0150X0.0030*%
%ADD20R,0.0180X0.0030*%
%ADD21R,0.0360X0.0030*%
%ADD22R,0.1020X0.0030*%
%ADD23R,0.0390X0.0030*%
%ADD24R,0.0270X0.0030*%
%ADD25R,0.0330X0.0030*%
%ADD26R,0.0480X0.0030*%
%ADD27C,0.0040*%
%ADD28C,0.0030*%
%ADD29C,0.0020*%
%ADD30R,0.0020X0.0060*%
%ADD31R,0.0020X0.0080*%
%ADD32R,0.0020X0.0100*%
%ADD33R,0.0020X0.0220*%
%ADD34R,0.0020X0.0180*%
%ADD35R,0.0020X0.0140*%
%ADD36R,0.0020X0.0160*%
%ADD37R,0.0020X0.0280*%
%ADD38R,0.0020X0.0240*%
%ADD39R,0.0020X0.0040*%
%ADD40R,0.0020X0.0120*%
%ADD41R,0.0020X0.0340*%
%ADD42R,0.0020X0.0380*%
%ADD43R,0.0020X0.0440*%
%ADD44R,0.0020X0.0540*%
%ADD45R,0.0020X0.0480*%
%ADD46R,0.0020X0.0520*%
%ADD47R,0.0020X0.0200*%
%ADD48R,0.0020X0.0600*%
%ADD49R,0.0020X0.0260*%
%ADD50R,0.0020X0.0620*%
%ADD51R,0.0020X0.0300*%
%ADD52R,0.0020X0.0360*%
%ADD53R,0.0020X0.0640*%
%ADD54R,0.0020X0.0760*%
%ADD55R,0.0020X0.0400*%
%ADD56R,0.0020X0.0780*%
%ADD57R,0.0020X0.0320*%
%ADD58R,0.0020X0.0720*%
%ADD59R,0.0020X0.0740*%
%ADD60R,0.0020X0.0420*%
%ADD61R,0.0020X0.0820*%
%ADD62R,0.0020X0.0840*%
%ADD63R,0.0020X0.0460*%
%ADD64R,0.0020X0.0560*%
%ADD65R,0.0020X0.0660*%
%ADD66R,0.0020X0.0020*%
%ADD67R,0.0020X0.0880*%
%ADD68R,0.0020X0.0900*%
%ADD69R,0.0020X0.0940*%
%ADD70R,0.0020X0.0920*%
%ADD71R,0.0020X0.0500*%
%ADD72R,0.0020X0.0580*%
%ADD73R,0.0020X0.0700*%
%ADD74R,0.0020X0.0800*%
%ADD75R,0.0020X0.0980*%
%ADD76R,0.0020X0.1060*%
%ADD77R,0.0020X0.1040*%
%ADD78R,0.0020X0.1480*%
%ADD79R,0.0020X0.1460*%
%ADD80R,0.0020X0.1120*%
%ADD81R,0.0020X0.1080*%
%ADD82R,0.0020X0.1020*%
%ADD83R,0.0020X0.0680*%
%ADD84R,0.0020X0.1360*%
%ADD85R,0.0020X0.1100*%
%ADD86R,0.0020X0.1140*%
%ADD87R,0.0020X0.1160*%
%ADD88R,0.0020X0.1000*%
%ADD89C,0.0160*%
%ADD90C,0.0080*%
%ADD91C,0.0060*%
%ADD92C,0.0079*%
%ADD93C,0.0050*%
%ADD94R,0.5500X0.5850*%
D10*
X000897Y000151D02*
X000897Y019646D01*
X020382Y019636D01*
X020382Y000151D01*
X000897Y000151D01*
X017463Y012525D02*
X017465Y012551D01*
X017471Y012577D01*
X017480Y012601D01*
X017493Y012624D01*
X017510Y012644D01*
X017529Y012662D01*
X017551Y012677D01*
X017574Y012688D01*
X017599Y012696D01*
X017625Y012700D01*
X017651Y012700D01*
X017677Y012696D01*
X017702Y012688D01*
X017726Y012677D01*
X017747Y012662D01*
X017766Y012644D01*
X017783Y012624D01*
X017796Y012601D01*
X017805Y012577D01*
X017811Y012551D01*
X017813Y012525D01*
X017811Y012499D01*
X017805Y012473D01*
X017796Y012449D01*
X017783Y012426D01*
X017766Y012406D01*
X017747Y012388D01*
X017725Y012373D01*
X017702Y012362D01*
X017677Y012354D01*
X017651Y012350D01*
X017625Y012350D01*
X017599Y012354D01*
X017574Y012362D01*
X017550Y012373D01*
X017529Y012388D01*
X017510Y012406D01*
X017493Y012426D01*
X017480Y012449D01*
X017471Y012473D01*
X017465Y012499D01*
X017463Y012525D01*
X017463Y015675D02*
X017465Y015701D01*
X017471Y015727D01*
X017480Y015751D01*
X017493Y015774D01*
X017510Y015794D01*
X017529Y015812D01*
X017551Y015827D01*
X017574Y015838D01*
X017599Y015846D01*
X017625Y015850D01*
X017651Y015850D01*
X017677Y015846D01*
X017702Y015838D01*
X017726Y015827D01*
X017747Y015812D01*
X017766Y015794D01*
X017783Y015774D01*
X017796Y015751D01*
X017805Y015727D01*
X017811Y015701D01*
X017813Y015675D01*
X017811Y015649D01*
X017805Y015623D01*
X017796Y015599D01*
X017783Y015576D01*
X017766Y015556D01*
X017747Y015538D01*
X017725Y015523D01*
X017702Y015512D01*
X017677Y015504D01*
X017651Y015500D01*
X017625Y015500D01*
X017599Y015504D01*
X017574Y015512D01*
X017550Y015523D01*
X017529Y015538D01*
X017510Y015556D01*
X017493Y015576D01*
X017480Y015599D01*
X017471Y015623D01*
X017465Y015649D01*
X017463Y015675D01*
D11*
X005123Y010427D03*
X004703Y009917D03*
X004283Y009917D03*
X003713Y009977D03*
X003353Y009947D03*
X003353Y009917D03*
X003023Y009947D03*
X002783Y009947D03*
X003102Y008991D03*
X003792Y008601D03*
X004842Y008751D03*
D12*
X004392Y009021D03*
X004332Y009171D03*
X004302Y009201D03*
X004182Y009291D03*
X003642Y008901D03*
X003552Y008991D03*
X003402Y009021D03*
X003402Y009051D03*
X003372Y009081D03*
X003132Y009201D03*
X002982Y009111D03*
X002982Y009051D03*
X002892Y009021D03*
X002862Y009051D03*
X002952Y008811D03*
X002442Y008811D03*
X002472Y009051D03*
X002472Y009111D03*
X002453Y010007D03*
X002483Y010037D03*
X002483Y010067D03*
X002483Y010097D03*
X002483Y010127D03*
X002483Y010157D03*
X002453Y010217D03*
X002183Y010187D03*
X002183Y010037D03*
X003353Y010127D03*
X003383Y010457D03*
X003713Y010307D03*
X003953Y010127D03*
X003953Y010097D03*
X003953Y010067D03*
X004613Y010217D03*
X004793Y010067D03*
X004823Y010037D03*
X004853Y010217D03*
X005123Y010217D03*
X005123Y010187D03*
X005123Y010157D03*
X005123Y010127D03*
X005153Y010457D03*
X005453Y010067D03*
X004032Y008661D03*
X003972Y008631D03*
D13*
X003957Y008781D03*
X003957Y008811D03*
X003957Y008841D03*
X003957Y008871D03*
X003957Y008901D03*
X003987Y009021D03*
X003987Y009051D03*
X004017Y009141D03*
X004017Y009171D03*
X004017Y009201D03*
X003777Y009291D03*
X003747Y009261D03*
X003417Y008991D03*
X003597Y008871D03*
X003567Y008811D03*
X003567Y008781D03*
X003567Y008751D03*
X003597Y008691D03*
X003627Y008661D03*
X003657Y008631D03*
X004317Y008931D03*
X004527Y008901D03*
X004557Y008841D03*
X004797Y008721D03*
X004827Y008691D03*
X004887Y008661D03*
X004317Y009231D03*
X005438Y010097D03*
X002967Y009081D03*
X002907Y008991D03*
X002607Y009201D03*
X002457Y009081D03*
D14*
X003582Y008841D03*
X003582Y008721D03*
X003792Y009021D03*
X003762Y009051D03*
X003732Y009111D03*
X003732Y009141D03*
X003732Y009171D03*
X003732Y009201D03*
X003732Y009231D03*
X004002Y009111D03*
X004002Y009081D03*
X004032Y009231D03*
X004242Y009141D03*
X004362Y009141D03*
X004392Y009111D03*
X004392Y009081D03*
X004482Y009021D03*
X004512Y008991D03*
X004512Y008961D03*
X004512Y008931D03*
X004542Y008871D03*
X004662Y008781D03*
X004932Y008781D03*
X004932Y008811D03*
X004932Y008691D03*
X004392Y009291D03*
X004332Y009261D03*
X004062Y008721D03*
X004853Y010187D03*
D15*
X004838Y010007D03*
X004598Y010037D03*
X004598Y010067D03*
X004598Y010157D03*
X004598Y010187D03*
X004628Y010247D03*
X004298Y010247D03*
X004298Y010217D03*
X004298Y010187D03*
X004298Y010157D03*
X004298Y010127D03*
X004298Y010097D03*
X004298Y010067D03*
X004298Y010277D03*
X004298Y010307D03*
X004298Y010337D03*
X004298Y010367D03*
X004298Y010397D03*
X003968Y010307D03*
X003968Y010247D03*
X003968Y010217D03*
X003968Y010187D03*
X003968Y010157D03*
X003938Y010037D03*
X003938Y010007D03*
X003938Y009977D03*
X003698Y010037D03*
X003698Y010067D03*
X003698Y010097D03*
X003698Y010127D03*
X003698Y010157D03*
X003698Y010187D03*
X003698Y010217D03*
X003728Y010277D03*
X003398Y010277D03*
X003368Y010217D03*
X003368Y010187D03*
X003368Y010157D03*
X003368Y010097D03*
X003368Y010067D03*
X003038Y010067D03*
X003038Y010037D03*
X003038Y010097D03*
X003038Y010127D03*
X002768Y010127D03*
X002768Y010097D03*
X002768Y010067D03*
X002768Y010037D03*
X002768Y010157D03*
X002768Y010187D03*
X002768Y010217D03*
X002468Y010187D03*
X002198Y010217D03*
X002168Y010157D03*
X002168Y010127D03*
X002168Y010097D03*
X002168Y010067D03*
X002198Y010007D03*
X002517Y009021D03*
X002457Y008721D03*
X002817Y008841D03*
X002847Y008871D03*
X002877Y008901D03*
X002847Y009081D03*
X002817Y009111D03*
X003027Y009021D03*
X003327Y009111D03*
X003417Y008901D03*
X003387Y008871D03*
X003327Y008841D03*
X002967Y008721D03*
X003837Y009321D03*
X004347Y008961D03*
X004377Y008991D03*
X004437Y009051D03*
X004857Y008841D03*
X004047Y008691D03*
X005168Y010007D03*
X005138Y010037D03*
X005138Y010067D03*
X005138Y010097D03*
X005108Y010247D03*
X005108Y010277D03*
X005438Y010037D03*
X005438Y010007D03*
X005408Y009977D03*
X003368Y010427D03*
D16*
X003087Y008781D03*
X002577Y008781D03*
X005127Y008721D03*
D17*
X003867Y008961D03*
X003027Y008751D03*
X002517Y008751D03*
X005288Y009947D03*
D18*
X004707Y008811D03*
X003897Y008991D03*
X003957Y009351D03*
X002918Y010307D03*
D19*
X003023Y010187D03*
X003023Y010157D03*
X003023Y010007D03*
X003023Y009977D03*
X002753Y010007D03*
X002423Y009977D03*
X002243Y009977D03*
X002333Y010307D03*
X003383Y010247D03*
X003353Y010037D03*
X003353Y010007D03*
X003353Y009977D03*
X003713Y010247D03*
X003983Y010277D03*
X004313Y010427D03*
X004313Y010457D03*
X004283Y010037D03*
X004283Y010007D03*
X004283Y009977D03*
X004583Y010007D03*
X004823Y009977D03*
X004823Y010247D03*
X004733Y010307D03*
X005123Y010307D03*
X005123Y010337D03*
X005123Y010367D03*
X005183Y009977D03*
X003942Y008931D03*
X003702Y008931D03*
X003282Y008811D03*
X002592Y008991D03*
D20*
X002757Y008811D03*
X002318Y009917D03*
X002768Y009977D03*
X003008Y010217D03*
X003698Y010007D03*
X004298Y009947D03*
X004598Y009977D03*
X004628Y010127D03*
X005108Y010397D03*
X005288Y009917D03*
X004107Y009321D03*
D21*
X003387Y008931D03*
X003147Y009141D03*
X002877Y008931D03*
X004688Y009947D03*
D22*
X003087Y008961D03*
D23*
X002622Y009141D03*
X002933Y010247D03*
X002933Y010277D03*
X003773Y009947D03*
D24*
X003132Y009171D03*
X002622Y009171D03*
X002333Y009947D03*
X004673Y010097D03*
X004733Y010277D03*
D25*
X003743Y009917D03*
X002333Y010247D03*
D26*
X002888Y009917D03*
D27*
X002665Y008311D02*
X002665Y007850D01*
X002818Y007850D02*
X002511Y007850D01*
X002818Y008157D02*
X002665Y008311D01*
X002972Y007927D02*
X002972Y007850D01*
X003048Y007850D01*
X003048Y007927D01*
X002972Y007927D01*
X003202Y007850D02*
X003509Y007850D01*
X003202Y008157D01*
X003202Y008234D01*
X003279Y008311D01*
X003432Y008311D01*
X003509Y008234D01*
X003662Y008157D02*
X003816Y007850D01*
X003969Y008157D01*
X018581Y007705D02*
X018581Y007628D01*
X018657Y007551D01*
X018581Y007475D01*
X018581Y007398D01*
X018657Y007321D01*
X018811Y007321D01*
X018887Y007398D01*
X019041Y007398D02*
X019118Y007321D01*
X019271Y007321D01*
X019348Y007398D01*
X019348Y007705D01*
X019271Y007782D01*
X019118Y007782D01*
X019041Y007705D01*
X018887Y007705D02*
X018811Y007782D01*
X018657Y007782D01*
X018581Y007705D01*
X018657Y007551D02*
X018734Y007551D01*
X019501Y007321D02*
X019655Y007321D01*
X019578Y007321D02*
X019578Y007782D01*
X019655Y007782D02*
X019501Y007782D01*
D28*
X018134Y005622D02*
X017940Y005622D01*
X017892Y005574D01*
X017892Y005477D01*
X017940Y005429D01*
X018037Y005477D02*
X018037Y005622D01*
X018134Y005622D02*
X018182Y005574D01*
X018182Y005477D01*
X018134Y005429D01*
X018085Y005429D01*
X018037Y005477D01*
X018182Y005328D02*
X018182Y005231D01*
X018182Y005279D02*
X017940Y005279D01*
X017892Y005231D01*
X017892Y005183D01*
X017940Y005134D01*
X017940Y005033D02*
X017892Y004985D01*
X017892Y004888D01*
X017940Y004840D01*
X018037Y004888D02*
X018037Y004985D01*
X017989Y005033D01*
X017940Y005033D01*
X018037Y004888D02*
X018085Y004840D01*
X018134Y004840D01*
X018182Y004888D01*
X018182Y004985D01*
X018134Y005033D01*
X018942Y005067D02*
X019232Y005067D01*
X019087Y004922D01*
X019087Y005115D01*
X018942Y004820D02*
X018942Y004627D01*
X018942Y004724D02*
X019232Y004724D01*
X019135Y004627D01*
X019184Y004526D02*
X019232Y004477D01*
X019232Y004381D01*
X019184Y004332D01*
X018990Y004332D01*
X018942Y004381D01*
X018942Y004477D01*
X018990Y004526D01*
X017634Y002960D02*
X017510Y002960D01*
X017572Y002960D02*
X017572Y002651D01*
X017634Y002589D01*
X017695Y002589D01*
X017757Y002651D01*
X017389Y002651D02*
X017327Y002713D01*
X017142Y002713D01*
X017142Y002774D02*
X017142Y002589D01*
X017327Y002589D01*
X017389Y002651D01*
X017327Y002836D02*
X017204Y002836D01*
X017142Y002774D01*
X017020Y002589D02*
X016897Y002589D01*
X016959Y002589D02*
X016959Y002960D01*
X017020Y002960D01*
X016775Y002836D02*
X016775Y002651D01*
X016713Y002589D01*
X016528Y002589D01*
X016528Y002836D01*
X016407Y002836D02*
X016345Y002836D01*
X016345Y002589D01*
X016407Y002589D02*
X016283Y002589D01*
X016161Y002589D02*
X016161Y002836D01*
X015976Y002836D01*
X015914Y002774D01*
X015914Y002589D01*
X015793Y002651D02*
X015731Y002589D01*
X015608Y002589D01*
X015546Y002651D01*
X015546Y002774D01*
X015608Y002836D01*
X015731Y002836D01*
X015793Y002774D01*
X015793Y002651D01*
X016345Y002960D02*
X016345Y003021D01*
X015056Y002774D02*
X015056Y002651D01*
X014994Y002589D01*
X014809Y002589D01*
X014809Y002528D02*
X014809Y002836D01*
X014994Y002836D01*
X015056Y002774D01*
X014933Y002466D02*
X014871Y002466D01*
X014809Y002528D01*
X014688Y002589D02*
X014688Y002836D01*
X014688Y002713D02*
X014564Y002836D01*
X014503Y002836D01*
X014381Y002774D02*
X014381Y002651D01*
X014319Y002589D01*
X014196Y002589D01*
X014134Y002651D01*
X014134Y002774D01*
X014196Y002836D01*
X014319Y002836D01*
X014381Y002774D01*
X014013Y002836D02*
X014013Y002651D01*
X013951Y002589D01*
X013766Y002589D01*
X013766Y002836D01*
X013644Y002836D02*
X013459Y002836D01*
X013397Y002774D01*
X013397Y002651D01*
X013459Y002589D01*
X013644Y002589D01*
X013644Y002466D02*
X013644Y002836D01*
X013617Y003316D02*
X013556Y003378D01*
X013556Y003501D01*
X013617Y003563D01*
X013556Y003684D02*
X013556Y003931D01*
X013556Y004053D02*
X013556Y004300D01*
X013556Y004176D02*
X013926Y004176D01*
X013803Y004053D01*
X013926Y003808D02*
X013556Y003808D01*
X013803Y003684D02*
X013926Y003808D01*
X013864Y003563D02*
X013926Y003501D01*
X013926Y003378D01*
X013864Y003316D01*
X013617Y003316D01*
X012284Y004816D02*
X012187Y004816D01*
X012139Y004865D01*
X012139Y004913D01*
X012187Y004961D01*
X012284Y004961D01*
X012332Y005010D01*
X012332Y005058D01*
X012284Y005106D01*
X012187Y005106D01*
X012139Y005058D01*
X011941Y005106D02*
X011844Y005106D01*
X011892Y005106D02*
X011892Y004865D01*
X011941Y004816D01*
X011989Y004816D01*
X012037Y004865D01*
X011743Y004961D02*
X011549Y004961D01*
X011598Y004816D02*
X011598Y005106D01*
X011743Y004961D01*
X012284Y004816D02*
X012332Y004865D01*
X012842Y005188D02*
X012890Y005140D01*
X012842Y005188D02*
X012842Y005285D01*
X012890Y005333D01*
X012939Y005333D01*
X012987Y005285D01*
X012987Y005188D01*
X013035Y005140D01*
X013084Y005140D01*
X013132Y005188D01*
X013132Y005285D01*
X013084Y005333D01*
X013132Y005531D02*
X013132Y005628D01*
X013132Y005579D02*
X012890Y005579D01*
X012842Y005531D01*
X012842Y005483D01*
X012890Y005434D01*
X012890Y005729D02*
X012842Y005777D01*
X012842Y005874D01*
X012890Y005922D01*
X012987Y005922D01*
X013035Y005874D01*
X013035Y005826D01*
X012987Y005729D01*
X013132Y005729D01*
X013132Y005922D01*
X013392Y005874D02*
X013440Y005922D01*
X013489Y005922D01*
X013537Y005874D01*
X013537Y005729D01*
X013440Y005729D01*
X013392Y005777D01*
X013392Y005874D01*
X013537Y005729D02*
X013634Y005826D01*
X013682Y005922D01*
X013682Y005628D02*
X013682Y005531D01*
X013682Y005579D02*
X013440Y005579D01*
X013392Y005531D01*
X013392Y005483D01*
X013440Y005434D01*
X013440Y005333D02*
X013392Y005285D01*
X013392Y005188D01*
X013440Y005140D01*
X013537Y005188D02*
X013537Y005285D01*
X013489Y005333D01*
X013440Y005333D01*
X013537Y005188D02*
X013585Y005140D01*
X013634Y005140D01*
X013682Y005188D01*
X013682Y005285D01*
X013634Y005333D01*
X015542Y005231D02*
X015590Y005279D01*
X015832Y005279D01*
X015832Y005231D02*
X015832Y005328D01*
X015784Y005429D02*
X015735Y005429D01*
X015687Y005477D01*
X015687Y005574D01*
X015639Y005622D01*
X015590Y005622D01*
X015542Y005574D01*
X015542Y005477D01*
X015590Y005429D01*
X015639Y005429D01*
X015687Y005477D01*
X015687Y005574D02*
X015735Y005622D01*
X015784Y005622D01*
X015832Y005574D01*
X015832Y005477D01*
X015784Y005429D01*
X015542Y005231D02*
X015542Y005183D01*
X015590Y005134D01*
X015590Y005033D02*
X015542Y004985D01*
X015542Y004888D01*
X015590Y004840D01*
X015687Y004888D02*
X015687Y004985D01*
X015639Y005033D01*
X015590Y005033D01*
X015687Y004888D02*
X015735Y004840D01*
X015784Y004840D01*
X015832Y004888D01*
X015832Y004985D01*
X015784Y005033D01*
X012732Y007982D02*
X012732Y008127D01*
X012684Y008176D01*
X012587Y008176D01*
X012539Y008127D01*
X012539Y007982D01*
X012539Y008079D02*
X012442Y008176D01*
X012490Y008277D02*
X012442Y008325D01*
X012442Y008422D01*
X012490Y008470D01*
X012490Y008572D02*
X012442Y008620D01*
X012442Y008717D01*
X012490Y008765D01*
X012539Y008765D01*
X012587Y008717D01*
X012587Y008572D01*
X012490Y008572D01*
X012587Y008572D02*
X012684Y008668D01*
X012732Y008765D01*
X012684Y008470D02*
X012732Y008422D01*
X012732Y008325D01*
X012684Y008277D01*
X012490Y008277D01*
X012442Y007982D02*
X012732Y007982D01*
X013633Y008695D02*
X013633Y008791D01*
X013682Y008840D01*
X013730Y008840D01*
X013827Y008791D01*
X013827Y008936D01*
X013633Y008936D01*
X013928Y008888D02*
X013976Y008936D01*
X014073Y008936D01*
X014121Y008888D01*
X014121Y008695D01*
X014073Y008646D01*
X013976Y008646D01*
X013928Y008695D01*
X013827Y008695D02*
X013778Y008646D01*
X013682Y008646D01*
X013633Y008695D01*
X014222Y008646D02*
X014319Y008743D01*
X014271Y008743D02*
X014416Y008743D01*
X014416Y008646D02*
X014416Y008936D01*
X014271Y008936D01*
X014222Y008888D01*
X014222Y008791D01*
X014271Y008743D01*
X014152Y009316D02*
X013862Y009316D01*
X013959Y009316D02*
X013959Y009461D01*
X014007Y009510D01*
X014104Y009510D01*
X014152Y009461D01*
X014152Y009316D01*
X013959Y009413D02*
X013862Y009510D01*
X013910Y009611D02*
X013862Y009659D01*
X013862Y009756D01*
X013910Y009804D01*
X014104Y009804D01*
X014152Y009756D01*
X014152Y009659D01*
X014104Y009611D01*
X014055Y009611D01*
X014007Y009659D01*
X014007Y009804D01*
X012721Y009796D02*
X012721Y010086D01*
X012576Y010086D01*
X012528Y010038D01*
X012528Y009941D01*
X012576Y009893D01*
X012721Y009893D01*
X012625Y009893D02*
X012528Y009796D01*
X012427Y009845D02*
X012378Y009796D01*
X012282Y009796D01*
X012233Y009845D01*
X012233Y009893D01*
X012282Y009941D01*
X012330Y009941D01*
X012282Y009941D02*
X012233Y009990D01*
X012233Y010038D01*
X012282Y010086D01*
X012378Y010086D01*
X012427Y010038D01*
X011766Y010086D02*
X011766Y009796D01*
X011766Y009893D02*
X011621Y009893D01*
X011572Y009941D01*
X011572Y010038D01*
X011621Y010086D01*
X011766Y010086D01*
X011669Y009893D02*
X011572Y009796D01*
X011471Y009796D02*
X011278Y009796D01*
X011375Y009796D02*
X011375Y010086D01*
X011471Y009990D01*
X011177Y010038D02*
X011177Y009845D01*
X010983Y010038D01*
X010983Y009845D01*
X011032Y009796D01*
X011128Y009796D01*
X011177Y009845D01*
X011177Y010038D02*
X011128Y010086D01*
X011032Y010086D01*
X010983Y010038D01*
X010666Y010076D02*
X010666Y009786D01*
X010666Y009883D02*
X010521Y009883D01*
X010472Y009931D01*
X010472Y010028D01*
X010521Y010076D01*
X010666Y010076D01*
X010569Y009883D02*
X010472Y009786D01*
X010371Y009786D02*
X010178Y009786D01*
X010275Y009786D02*
X010275Y010076D01*
X010371Y009980D01*
X010077Y009980D02*
X009980Y010076D01*
X009980Y009786D01*
X010077Y009786D02*
X009883Y009786D01*
X009616Y009796D02*
X009616Y010086D01*
X009471Y010086D01*
X009422Y010038D01*
X009422Y009941D01*
X009471Y009893D01*
X009616Y009893D01*
X009519Y009893D02*
X009422Y009796D01*
X009321Y009796D02*
X009128Y009796D01*
X009225Y009796D02*
X009225Y010086D01*
X009321Y009990D01*
X009027Y010038D02*
X008978Y010086D01*
X008882Y010086D01*
X008833Y010038D01*
X008833Y009990D01*
X009027Y009796D01*
X008833Y009796D01*
X008992Y008865D02*
X008992Y008672D01*
X008992Y008768D02*
X009282Y008768D01*
X009185Y008672D01*
X009185Y008570D02*
X009137Y008522D01*
X009137Y008377D01*
X009137Y008276D02*
X009089Y008227D01*
X009089Y008082D01*
X009089Y008179D02*
X008992Y008276D01*
X008992Y008377D02*
X008992Y008522D01*
X009040Y008570D01*
X009089Y008570D01*
X009137Y008522D01*
X009185Y008570D02*
X009234Y008570D01*
X009282Y008522D01*
X009282Y008377D01*
X008992Y008377D01*
X009137Y008276D02*
X009234Y008276D01*
X009282Y008227D01*
X009282Y008082D01*
X008992Y008082D01*
X010092Y008032D02*
X010382Y008032D01*
X010382Y008177D01*
X010334Y008226D01*
X010237Y008226D01*
X010189Y008177D01*
X010189Y008032D01*
X010189Y008129D02*
X010092Y008226D01*
X010092Y008327D02*
X010092Y008472D01*
X010140Y008520D01*
X010189Y008520D01*
X010237Y008472D01*
X010237Y008327D01*
X010237Y008472D02*
X010285Y008520D01*
X010334Y008520D01*
X010382Y008472D01*
X010382Y008327D01*
X010092Y008327D01*
X010140Y008622D02*
X010334Y008815D01*
X010140Y008815D01*
X010092Y008767D01*
X010092Y008670D01*
X010140Y008622D01*
X010334Y008622D01*
X010382Y008670D01*
X010382Y008767D01*
X010334Y008815D01*
X011342Y008622D02*
X011390Y008622D01*
X011584Y008815D01*
X011632Y008815D01*
X011632Y008622D01*
X011584Y008520D02*
X011632Y008472D01*
X011632Y008375D01*
X011584Y008327D01*
X011390Y008327D01*
X011342Y008375D01*
X011342Y008472D01*
X011390Y008520D01*
X011342Y008226D02*
X011439Y008129D01*
X011439Y008177D02*
X011439Y008032D01*
X011342Y008032D02*
X011632Y008032D01*
X011632Y008177D01*
X011584Y008226D01*
X011487Y008226D01*
X011439Y008177D01*
X010552Y005849D02*
X010552Y005655D01*
X010407Y005655D01*
X010455Y005752D01*
X010455Y005801D01*
X010407Y005849D01*
X010310Y005849D01*
X010262Y005801D01*
X010262Y005704D01*
X010310Y005655D01*
X010262Y005554D02*
X010455Y005554D01*
X010552Y005458D01*
X010455Y005361D01*
X010262Y005361D01*
X010262Y005260D02*
X010359Y005163D01*
X010359Y005211D02*
X010359Y005066D01*
X010262Y005066D02*
X010552Y005066D01*
X010552Y005211D01*
X010504Y005260D01*
X010407Y005260D01*
X010359Y005211D01*
X010407Y005361D02*
X010407Y005554D01*
X010391Y004106D02*
X010391Y003816D01*
X010487Y003816D02*
X010294Y003816D01*
X010193Y003865D02*
X010144Y003816D01*
X010048Y003816D01*
X009999Y003865D01*
X009999Y004058D01*
X010048Y004106D01*
X010144Y004106D01*
X010193Y004058D01*
X010193Y004010D01*
X010144Y003961D01*
X009999Y003961D01*
X010391Y004106D02*
X010487Y004010D01*
X010589Y004058D02*
X010589Y003961D01*
X010637Y003913D01*
X010782Y003913D01*
X010685Y003913D02*
X010589Y003816D01*
X010782Y003816D02*
X010782Y004106D01*
X010637Y004106D01*
X010589Y004058D01*
X011233Y003791D02*
X011427Y003791D01*
X011282Y003936D01*
X011282Y003646D01*
X011528Y003646D02*
X011528Y003840D01*
X011625Y003936D01*
X011721Y003840D01*
X011721Y003646D01*
X011721Y003791D02*
X011528Y003791D01*
X007832Y003776D02*
X007832Y003530D01*
X007462Y003530D01*
X007647Y003530D02*
X007647Y003653D01*
X007709Y003898D02*
X007832Y004021D01*
X007462Y004021D01*
X007462Y003898D02*
X007462Y004145D01*
X006904Y008916D02*
X006855Y008916D01*
X006807Y008965D01*
X006807Y009061D01*
X006759Y009110D01*
X006710Y009110D01*
X006662Y009061D01*
X006662Y008965D01*
X006710Y008916D01*
X006552Y008916D02*
X006552Y009061D01*
X006504Y009110D01*
X006407Y009110D01*
X006359Y009061D01*
X006359Y008916D01*
X006359Y009013D02*
X006262Y009110D01*
X006262Y009211D02*
X006262Y009404D01*
X006310Y009505D02*
X006262Y009554D01*
X006262Y009651D01*
X006310Y009699D01*
X006359Y009699D01*
X006407Y009651D01*
X006407Y009554D01*
X006455Y009505D01*
X006504Y009505D01*
X006552Y009554D01*
X006552Y009651D01*
X006504Y009699D01*
X006552Y009800D02*
X006262Y009800D01*
X006262Y009994D01*
X006407Y009897D02*
X006407Y009800D01*
X006552Y009800D02*
X006552Y009994D01*
X006552Y010095D02*
X006552Y010288D01*
X006552Y010191D02*
X006262Y010191D01*
X006662Y010095D02*
X006952Y010095D01*
X006952Y010240D01*
X006904Y010288D01*
X006807Y010288D01*
X006759Y010240D01*
X006759Y010095D01*
X006662Y009994D02*
X006662Y009800D01*
X006952Y009800D01*
X006952Y009994D01*
X006807Y009897D02*
X006807Y009800D01*
X006662Y009699D02*
X006662Y009505D01*
X006952Y009505D01*
X006952Y009699D01*
X006807Y009602D02*
X006807Y009505D01*
X006662Y009404D02*
X006662Y009211D01*
X006952Y009211D01*
X006904Y009110D02*
X006952Y009061D01*
X006952Y008965D01*
X006904Y008916D01*
X006552Y008916D02*
X006262Y008916D01*
X006102Y008936D02*
X006102Y009081D01*
X006054Y009130D01*
X005957Y009130D01*
X005909Y009081D01*
X005909Y008936D01*
X005909Y009033D02*
X005812Y009130D01*
X005812Y008936D02*
X006102Y008936D01*
X006102Y009231D02*
X006102Y009424D01*
X006102Y009328D02*
X005812Y009328D01*
X005860Y009525D02*
X005812Y009574D01*
X005812Y009671D01*
X005860Y009719D01*
X005909Y009719D01*
X005957Y009671D01*
X005957Y009574D01*
X006005Y009525D01*
X006054Y009525D01*
X006102Y009574D01*
X006102Y009671D01*
X006054Y009719D01*
X006407Y009308D02*
X006407Y009211D01*
X006552Y009211D02*
X006262Y009211D01*
X006552Y009211D02*
X006552Y009404D01*
X006587Y010716D02*
X006394Y011006D01*
X006293Y010958D02*
X006244Y011006D01*
X006148Y011006D01*
X006099Y010958D01*
X006099Y010910D01*
X006293Y010716D01*
X006099Y010716D01*
X005732Y011006D02*
X005539Y011006D01*
X005635Y011006D02*
X005635Y010716D01*
X005437Y010716D02*
X005244Y011006D01*
X005143Y010910D02*
X005046Y011006D01*
X005046Y010716D01*
X005143Y010716D02*
X004949Y010716D01*
X005244Y010716D02*
X005437Y011006D01*
X004532Y011006D02*
X004532Y010716D01*
X004532Y010813D02*
X004387Y010813D01*
X004339Y010861D01*
X004339Y010958D01*
X004387Y011006D01*
X004532Y011006D01*
X004435Y010813D02*
X004339Y010716D01*
X004237Y010716D02*
X004044Y011006D01*
X003943Y010958D02*
X003894Y011006D01*
X003798Y011006D01*
X003749Y010958D01*
X003749Y010910D01*
X003943Y010716D01*
X003749Y010716D01*
X003532Y010716D02*
X003532Y011006D01*
X003387Y011006D01*
X003339Y010958D01*
X003339Y010861D01*
X003387Y010813D01*
X003532Y010813D01*
X003435Y010813D02*
X003339Y010716D01*
X003237Y010716D02*
X003044Y011006D01*
X002943Y010910D02*
X002846Y011006D01*
X002846Y010716D01*
X002943Y010716D02*
X002749Y010716D01*
X003044Y010716D02*
X003237Y011006D01*
X004044Y010716D02*
X004237Y011006D01*
X004232Y012066D02*
X004087Y012066D01*
X004039Y012115D01*
X004039Y012308D01*
X004087Y012356D01*
X004232Y012356D01*
X004232Y012066D01*
X003937Y012115D02*
X003937Y012308D01*
X003889Y012356D01*
X003792Y012356D01*
X003744Y012308D01*
X003744Y012115D01*
X003792Y012066D01*
X003889Y012066D01*
X003937Y012115D01*
X003643Y012115D02*
X003643Y012356D01*
X003625Y012546D02*
X003625Y012836D01*
X003721Y012740D01*
X003822Y012836D02*
X003919Y012836D01*
X003871Y012836D02*
X003871Y012595D01*
X003919Y012546D01*
X003968Y012546D01*
X004016Y012595D01*
X004117Y012595D02*
X004165Y012546D01*
X004262Y012546D01*
X004311Y012595D01*
X004262Y012691D02*
X004165Y012691D01*
X004117Y012643D01*
X004117Y012595D01*
X004262Y012691D02*
X004311Y012740D01*
X004311Y012788D01*
X004262Y012836D01*
X004165Y012836D01*
X004117Y012788D01*
X003721Y012546D02*
X003528Y012546D01*
X003427Y012546D02*
X003233Y012546D01*
X003330Y012546D02*
X003330Y012836D01*
X003427Y012740D01*
X003449Y012356D02*
X003449Y012115D01*
X003498Y012066D01*
X003594Y012066D01*
X003643Y012115D01*
X003348Y012356D02*
X003155Y012356D01*
X003251Y012356D02*
X003251Y012066D01*
X005583Y012595D02*
X005632Y012546D01*
X005728Y012546D01*
X005777Y012595D01*
X005583Y012788D01*
X005583Y012595D01*
X005583Y012788D02*
X005632Y012836D01*
X005728Y012836D01*
X005777Y012788D01*
X005777Y012595D01*
X005878Y012546D02*
X006071Y012546D01*
X005975Y012546D02*
X005975Y012836D01*
X006071Y012740D01*
X006172Y012836D02*
X006269Y012836D01*
X006221Y012836D02*
X006221Y012595D01*
X006269Y012546D01*
X006318Y012546D01*
X006366Y012595D01*
X006467Y012595D02*
X006515Y012546D01*
X006612Y012546D01*
X006661Y012595D01*
X006612Y012691D02*
X006515Y012691D01*
X006467Y012643D01*
X006467Y012595D01*
X006612Y012691D02*
X006661Y012740D01*
X006661Y012788D01*
X006612Y012836D01*
X006515Y012836D01*
X006467Y012788D01*
X006382Y012306D02*
X006237Y012306D01*
X006189Y012258D01*
X006189Y012065D01*
X006237Y012016D01*
X006382Y012016D01*
X006382Y012306D01*
X006087Y012306D02*
X005991Y012306D01*
X006039Y012306D02*
X006039Y012016D01*
X006087Y012016D02*
X005991Y012016D01*
X005891Y012016D02*
X005891Y012306D01*
X005697Y012016D01*
X005697Y012306D01*
X006942Y012277D02*
X006942Y012422D01*
X006990Y012470D01*
X007039Y012470D01*
X007087Y012422D01*
X007087Y012277D01*
X007087Y012176D02*
X007039Y012127D01*
X007039Y011982D01*
X007039Y012079D02*
X006942Y012176D01*
X006942Y012277D02*
X007232Y012277D01*
X007232Y012422D01*
X007184Y012470D01*
X007135Y012470D01*
X007087Y012422D01*
X006990Y012572D02*
X006942Y012572D01*
X006990Y012572D02*
X007184Y012765D01*
X007232Y012765D01*
X007232Y012572D01*
X007184Y012176D02*
X007087Y012176D01*
X007184Y012176D02*
X007232Y012127D01*
X007232Y011982D01*
X006942Y011982D01*
X006882Y011006D02*
X006689Y011006D01*
X006785Y011006D02*
X006785Y010716D01*
X006587Y011006D02*
X006394Y010716D01*
X008042Y011982D02*
X008332Y011982D01*
X008332Y012127D01*
X008284Y012176D01*
X008187Y012176D01*
X008139Y012127D01*
X008139Y011982D01*
X008139Y012079D02*
X008042Y012176D01*
X008042Y012277D02*
X008042Y012422D01*
X008090Y012470D01*
X008139Y012470D01*
X008187Y012422D01*
X008187Y012277D01*
X008042Y012277D02*
X008332Y012277D01*
X008332Y012422D01*
X008284Y012470D01*
X008235Y012470D01*
X008187Y012422D01*
X008187Y012572D02*
X008187Y012717D01*
X008139Y012765D01*
X008090Y012765D01*
X008042Y012717D01*
X008042Y012620D01*
X008090Y012572D01*
X008187Y012572D01*
X008284Y012668D01*
X008332Y012765D01*
X009042Y012717D02*
X009042Y012620D01*
X009090Y012572D01*
X009187Y012572D02*
X009235Y012668D01*
X009235Y012717D01*
X009187Y012765D01*
X009090Y012765D01*
X009042Y012717D01*
X009187Y012572D02*
X009332Y012572D01*
X009332Y012765D01*
X009284Y012470D02*
X009235Y012470D01*
X009187Y012422D01*
X009187Y012277D01*
X009187Y012176D02*
X009139Y012127D01*
X009139Y011982D01*
X009139Y012079D02*
X009042Y012176D01*
X009042Y012277D02*
X009042Y012422D01*
X009090Y012470D01*
X009139Y012470D01*
X009187Y012422D01*
X009284Y012470D02*
X009332Y012422D01*
X009332Y012277D01*
X009042Y012277D01*
X009187Y012176D02*
X009284Y012176D01*
X009332Y012127D01*
X009332Y011982D01*
X009042Y011982D01*
X010042Y011982D02*
X010332Y011982D01*
X010332Y012127D01*
X010284Y012176D01*
X010187Y012176D01*
X010139Y012127D01*
X010139Y011982D01*
X010139Y012079D02*
X010042Y012176D01*
X010042Y012277D02*
X010042Y012422D01*
X010090Y012470D01*
X010139Y012470D01*
X010187Y012422D01*
X010187Y012277D01*
X010042Y012277D02*
X010332Y012277D01*
X010332Y012422D01*
X010284Y012470D01*
X010235Y012470D01*
X010187Y012422D01*
X010187Y012572D02*
X010187Y012765D01*
X010042Y012717D02*
X010332Y012717D01*
X010187Y012572D01*
X011092Y012620D02*
X011140Y012572D01*
X011092Y012620D02*
X011092Y012717D01*
X011140Y012765D01*
X011189Y012765D01*
X011237Y012717D01*
X011237Y012668D01*
X011237Y012717D02*
X011285Y012765D01*
X011334Y012765D01*
X011382Y012717D01*
X011382Y012620D01*
X011334Y012572D01*
X011334Y012470D02*
X011285Y012470D01*
X011237Y012422D01*
X011237Y012277D01*
X011237Y012176D02*
X011189Y012127D01*
X011189Y011982D01*
X011189Y012079D02*
X011092Y012176D01*
X011092Y012277D02*
X011092Y012422D01*
X011140Y012470D01*
X011189Y012470D01*
X011237Y012422D01*
X011334Y012470D02*
X011382Y012422D01*
X011382Y012277D01*
X011092Y012277D01*
X011237Y012176D02*
X011334Y012176D01*
X011382Y012127D01*
X011382Y011982D01*
X011092Y011982D01*
X012342Y012032D02*
X012632Y012032D01*
X012632Y012177D01*
X012584Y012226D01*
X012487Y012226D01*
X012439Y012177D01*
X012439Y012032D01*
X012439Y012129D02*
X012342Y012226D01*
X012342Y012327D02*
X012342Y012472D01*
X012390Y012520D01*
X012439Y012520D01*
X012487Y012472D01*
X012487Y012327D01*
X012487Y012472D02*
X012535Y012520D01*
X012584Y012520D01*
X012632Y012472D01*
X012632Y012327D01*
X012342Y012327D01*
X012342Y012622D02*
X012535Y012815D01*
X012584Y012815D01*
X012632Y012767D01*
X012632Y012670D01*
X012584Y012622D01*
X012342Y012622D02*
X012342Y012815D01*
X012289Y013816D02*
X012385Y013913D01*
X012337Y013913D02*
X012482Y013913D01*
X012482Y013816D02*
X012482Y014106D01*
X012337Y014106D01*
X012289Y014058D01*
X012289Y013961D01*
X012337Y013913D01*
X012187Y014010D02*
X012091Y014106D01*
X012091Y013816D01*
X012187Y013816D02*
X011994Y013816D01*
X011893Y013865D02*
X011844Y013816D01*
X011748Y013816D01*
X011699Y013865D01*
X011699Y013913D01*
X011748Y013961D01*
X011796Y013961D01*
X011748Y013961D02*
X011699Y014010D01*
X011699Y014058D01*
X011748Y014106D01*
X011844Y014106D01*
X011893Y014058D01*
X011482Y014106D02*
X011482Y013816D01*
X011482Y013913D02*
X011337Y013913D01*
X011289Y013961D01*
X011289Y014058D01*
X011337Y014106D01*
X011482Y014106D01*
X011385Y013913D02*
X011289Y013816D01*
X011187Y013816D02*
X010994Y013816D01*
X011091Y013816D02*
X011091Y014106D01*
X011187Y014010D01*
X010893Y013961D02*
X010699Y013961D01*
X010748Y013816D02*
X010748Y014106D01*
X010893Y013961D01*
X010482Y013913D02*
X010337Y013913D01*
X010289Y013961D01*
X010289Y014058D01*
X010337Y014106D01*
X010482Y014106D01*
X010482Y013816D01*
X010385Y013913D02*
X010289Y013816D01*
X010187Y013816D02*
X009994Y013816D01*
X010091Y013816D02*
X010091Y014106D01*
X010187Y014010D01*
X009893Y013961D02*
X009796Y014010D01*
X009748Y014010D01*
X009699Y013961D01*
X009699Y013865D01*
X009748Y013816D01*
X009844Y013816D01*
X009893Y013865D01*
X009893Y013961D02*
X009893Y014106D01*
X009699Y014106D01*
X009482Y014106D02*
X009337Y014106D01*
X009289Y014058D01*
X009289Y013961D01*
X009337Y013913D01*
X009482Y013913D01*
X009385Y013913D02*
X009289Y013816D01*
X009187Y013816D02*
X008994Y013816D01*
X009091Y013816D02*
X009091Y014106D01*
X009187Y014010D01*
X008893Y013961D02*
X008893Y013865D01*
X008844Y013816D01*
X008748Y013816D01*
X008699Y013865D01*
X008699Y013913D01*
X008748Y013961D01*
X008893Y013961D01*
X008796Y014058D01*
X008699Y014106D01*
X008482Y014106D02*
X008337Y014106D01*
X008289Y014058D01*
X008289Y013961D01*
X008337Y013913D01*
X008482Y013913D01*
X008385Y013913D02*
X008289Y013816D01*
X008187Y013816D02*
X007994Y013816D01*
X008091Y013816D02*
X008091Y014106D01*
X008187Y014010D01*
X007893Y014106D02*
X007699Y014106D01*
X007699Y014058D01*
X007893Y013865D01*
X007893Y013816D01*
X007482Y013816D02*
X007482Y014106D01*
X007337Y014106D01*
X007289Y014058D01*
X007289Y013961D01*
X007337Y013913D01*
X007482Y013913D01*
X007385Y013913D02*
X007289Y013816D01*
X007187Y013816D02*
X006994Y013816D01*
X007091Y013816D02*
X007091Y014106D01*
X007187Y014010D01*
X006893Y014010D02*
X006893Y014058D01*
X006844Y014106D01*
X006748Y014106D01*
X006699Y014058D01*
X006699Y014010D01*
X006748Y013961D01*
X006844Y013961D01*
X006893Y014010D01*
X006844Y013961D02*
X006893Y013913D01*
X006893Y013865D01*
X006844Y013816D01*
X006748Y013816D01*
X006699Y013865D01*
X006699Y013913D01*
X006748Y013961D01*
X006712Y015006D02*
X006836Y015006D01*
X006898Y015068D01*
X006651Y015315D01*
X006651Y015068D01*
X006712Y015006D01*
X006529Y015006D02*
X006282Y015253D01*
X006282Y015315D01*
X006344Y015376D01*
X006468Y015376D01*
X006529Y015315D01*
X006651Y015315D02*
X006712Y015376D01*
X006836Y015376D01*
X006898Y015315D01*
X006898Y015068D01*
X007019Y015191D02*
X007266Y015191D01*
X007387Y015006D02*
X007634Y015006D01*
X007511Y015006D02*
X007511Y015376D01*
X007634Y015253D01*
X007756Y015315D02*
X007756Y015068D01*
X007817Y015006D01*
X007941Y015006D01*
X008003Y015068D01*
X007756Y015315D01*
X007817Y015376D01*
X007941Y015376D01*
X008003Y015315D01*
X008003Y015068D01*
X008124Y015191D02*
X008371Y015191D01*
X008492Y015253D02*
X008492Y015315D01*
X008554Y015376D01*
X008677Y015376D01*
X008739Y015315D01*
X008984Y015376D02*
X008984Y015006D01*
X009107Y015006D02*
X008861Y015006D01*
X008739Y015006D02*
X008492Y015253D01*
X008492Y015006D02*
X008739Y015006D01*
X009107Y015253D02*
X008984Y015376D01*
X009229Y015315D02*
X009476Y015068D01*
X009414Y015006D01*
X009291Y015006D01*
X009229Y015068D01*
X009229Y015315D01*
X009291Y015376D01*
X009414Y015376D01*
X009476Y015315D01*
X009476Y015068D01*
X009597Y015006D02*
X009844Y015006D01*
X009597Y015253D01*
X009597Y015315D01*
X009659Y015376D01*
X009782Y015376D01*
X009844Y015315D01*
X010355Y016253D02*
X010355Y016623D01*
X010170Y016623D01*
X010108Y016561D01*
X010108Y016438D01*
X010170Y016376D01*
X010355Y016376D01*
X010477Y016376D02*
X010539Y016438D01*
X010539Y016685D01*
X010600Y016623D02*
X010477Y016623D01*
X010722Y016623D02*
X010846Y016623D01*
X010784Y016685D02*
X010784Y016438D01*
X010722Y016376D01*
X010967Y016376D02*
X010967Y016561D01*
X011029Y016623D01*
X011152Y016623D01*
X011214Y016561D01*
X011214Y016746D02*
X011214Y016376D01*
X011166Y017017D02*
X011228Y017079D01*
X011166Y017017D02*
X011043Y017017D01*
X010981Y017079D01*
X010981Y017141D01*
X011043Y017202D01*
X011166Y017202D01*
X011228Y017264D01*
X011228Y017326D01*
X011166Y017387D01*
X011043Y017387D01*
X010981Y017326D01*
X010860Y017202D02*
X010798Y017264D01*
X010675Y017264D01*
X010613Y017202D01*
X010613Y017141D01*
X010860Y017141D01*
X010860Y017202D02*
X010860Y017079D01*
X010798Y017017D01*
X010675Y017017D01*
X010491Y017017D02*
X010306Y017017D01*
X010245Y017079D01*
X010245Y017202D01*
X010306Y017264D01*
X010491Y017264D01*
X010491Y017387D02*
X010491Y017017D01*
X010123Y017079D02*
X010061Y017017D01*
X009876Y017017D01*
X009876Y017202D01*
X009938Y017264D01*
X010061Y017264D01*
X010061Y017141D02*
X009876Y017141D01*
X009755Y017202D02*
X009693Y017264D01*
X009508Y017264D01*
X009387Y017264D02*
X009263Y017264D01*
X009325Y017326D02*
X009325Y017079D01*
X009263Y017017D01*
X009141Y017017D02*
X009018Y017017D01*
X009079Y017017D02*
X009079Y017264D01*
X009141Y017264D01*
X009079Y017387D02*
X009079Y017449D01*
X008896Y017202D02*
X008834Y017264D01*
X008710Y017264D01*
X008649Y017202D01*
X008649Y017141D01*
X008896Y017141D01*
X008896Y017202D02*
X008896Y017079D01*
X008834Y017017D01*
X008710Y017017D01*
X008527Y017017D02*
X008527Y017264D01*
X008342Y017264D01*
X008280Y017202D01*
X008280Y017017D01*
X008390Y016746D02*
X008390Y016376D01*
X008452Y016376D02*
X008328Y016376D01*
X008206Y016438D02*
X008206Y016623D01*
X008206Y016438D02*
X008145Y016376D01*
X007959Y016376D01*
X007959Y016623D01*
X007838Y016623D02*
X007776Y016623D01*
X007776Y016376D01*
X007715Y016376D02*
X007838Y016376D01*
X007592Y016376D02*
X007592Y016623D01*
X007407Y016623D01*
X007346Y016561D01*
X007346Y016376D01*
X007224Y016438D02*
X007162Y016376D01*
X007039Y016376D01*
X006977Y016438D01*
X006977Y016561D01*
X007039Y016623D01*
X007162Y016623D01*
X007224Y016561D01*
X007224Y016438D01*
X006856Y016438D02*
X006794Y016438D01*
X006794Y016376D01*
X006856Y016376D01*
X006856Y016438D01*
X006672Y016438D02*
X006672Y016561D01*
X006610Y016623D01*
X006487Y016623D01*
X006425Y016561D01*
X006425Y016438D01*
X006487Y016376D01*
X006610Y016376D01*
X006672Y016438D01*
X006303Y016500D02*
X006180Y016623D01*
X006118Y016623D01*
X005997Y016561D02*
X005997Y016438D01*
X005935Y016376D01*
X005750Y016376D01*
X005750Y016314D02*
X005750Y016623D01*
X005935Y016623D01*
X005997Y016561D01*
X006303Y016623D02*
X006303Y016376D01*
X005873Y016253D02*
X005811Y016253D01*
X005750Y016314D01*
X005887Y016894D02*
X005825Y016955D01*
X005825Y017264D01*
X006010Y017264D01*
X006072Y017202D01*
X006072Y017079D01*
X006010Y017017D01*
X005825Y017017D01*
X005887Y016894D02*
X005948Y016894D01*
X006193Y017017D02*
X006193Y017202D01*
X006255Y017264D01*
X006440Y017264D01*
X006440Y017017D01*
X006562Y017079D02*
X006562Y017202D01*
X006623Y017264D01*
X006747Y017264D01*
X006809Y017202D01*
X006809Y017079D01*
X006747Y017017D01*
X006623Y017017D01*
X006562Y017079D01*
X006931Y017017D02*
X007054Y017017D01*
X006992Y017017D02*
X006992Y017387D01*
X007054Y017387D01*
X007237Y017264D02*
X007175Y017202D01*
X007175Y017141D01*
X007422Y017141D01*
X007422Y017202D02*
X007361Y017264D01*
X007237Y017264D01*
X007422Y017202D02*
X007422Y017079D01*
X007361Y017017D01*
X007237Y017017D01*
X007544Y017017D02*
X007791Y017017D01*
X007791Y017387D01*
X007776Y016808D02*
X007776Y016746D01*
X008390Y016746D02*
X008452Y016746D01*
X008635Y016623D02*
X008573Y016561D01*
X008573Y016376D01*
X008758Y016376D01*
X008820Y016438D01*
X008758Y016500D01*
X008573Y016500D01*
X008635Y016623D02*
X008758Y016623D01*
X008942Y016623D02*
X008942Y016314D01*
X009004Y016253D01*
X009066Y016253D01*
X009434Y016376D02*
X009187Y016746D01*
X008942Y016746D02*
X008942Y016808D01*
X009508Y017079D02*
X009570Y017141D01*
X009693Y017141D01*
X009755Y017202D01*
X009755Y017017D02*
X009570Y017017D01*
X009508Y017079D01*
X009555Y016746D02*
X009802Y016376D01*
X009925Y016376D02*
X009986Y016376D01*
X009986Y016438D01*
X009925Y016438D01*
X009925Y016376D01*
X009925Y016561D02*
X009986Y016561D01*
X009986Y016623D01*
X009925Y016623D01*
X009925Y016561D01*
X010123Y017079D02*
X010061Y017141D01*
X009482Y014106D02*
X009482Y013816D01*
X008482Y013816D02*
X008482Y014106D01*
X006529Y015006D02*
X006282Y015006D01*
X003382Y017716D02*
X003382Y018006D01*
X003237Y018006D01*
X003189Y017958D01*
X003189Y017861D01*
X003237Y017813D01*
X003382Y017813D01*
X003285Y017813D02*
X003189Y017716D01*
X003087Y017716D02*
X002894Y017910D01*
X002894Y017958D01*
X002942Y018006D01*
X003039Y018006D01*
X003087Y017958D01*
X003087Y017716D02*
X002894Y017716D01*
X002793Y017765D02*
X002599Y017958D01*
X002599Y017765D01*
X002648Y017716D01*
X002744Y017716D01*
X002793Y017765D01*
X002793Y017958D01*
X002744Y018006D01*
X002648Y018006D01*
X002599Y017958D01*
X015632Y008936D02*
X015632Y008646D01*
X015583Y008791D02*
X015777Y008791D01*
X015632Y008936D01*
X015862Y009316D02*
X016152Y009316D01*
X016152Y009461D01*
X016104Y009510D01*
X016007Y009510D01*
X015959Y009461D01*
X015959Y009316D01*
X015959Y009413D02*
X015862Y009510D01*
X015910Y009611D02*
X015862Y009659D01*
X015862Y009756D01*
X015910Y009804D01*
X015959Y009804D01*
X016007Y009756D01*
X016007Y009659D01*
X016055Y009611D01*
X016104Y009611D01*
X016152Y009659D01*
X016152Y009756D01*
X016104Y009804D01*
X016055Y009804D01*
X016007Y009756D01*
X016007Y009659D02*
X015959Y009611D01*
X015910Y009611D01*
X015926Y008936D02*
X016023Y008936D01*
X016071Y008888D01*
X016071Y008695D01*
X016023Y008646D01*
X015926Y008646D01*
X015878Y008695D01*
X015878Y008888D02*
X015926Y008936D01*
X016172Y008888D02*
X016172Y008791D01*
X016221Y008743D01*
X016366Y008743D01*
X016269Y008743D02*
X016172Y008646D01*
X016366Y008646D02*
X016366Y008936D01*
X016221Y008936D01*
X016172Y008888D01*
D29*
X016971Y009164D02*
X016971Y009938D01*
X015023Y009938D01*
X015023Y009164D01*
X016971Y009164D01*
X014971Y009164D02*
X014971Y009938D01*
X013023Y009938D01*
X013023Y009164D01*
X014971Y009164D01*
X012784Y008978D02*
X012010Y008978D01*
X012010Y010925D01*
X012784Y010925D01*
X012784Y008978D01*
X011684Y008978D02*
X010910Y008978D01*
X010910Y010925D01*
X011684Y010925D01*
X011684Y008978D01*
X010634Y008968D02*
X009860Y008968D01*
X009860Y010915D01*
X010634Y010915D01*
X010634Y008968D01*
X009584Y008978D02*
X008810Y008978D01*
X008810Y010925D01*
X009584Y010925D01*
X009584Y008978D01*
X006994Y008645D02*
X006994Y008608D01*
X006958Y008571D01*
X006884Y008571D01*
X006848Y008535D01*
X006848Y008498D01*
X006884Y008461D01*
X006958Y008461D01*
X006994Y008498D01*
X006994Y008645D02*
X006958Y008681D01*
X006884Y008681D01*
X006848Y008645D01*
X006700Y008681D02*
X006627Y008681D01*
X006663Y008681D02*
X006663Y008498D01*
X006700Y008461D01*
X006737Y008461D01*
X006774Y008498D01*
X006553Y008461D02*
X006406Y008461D01*
X006479Y008461D02*
X006479Y008681D01*
X006553Y008608D01*
X006332Y008645D02*
X006295Y008681D01*
X006221Y008681D01*
X006185Y008645D01*
X006185Y008608D01*
X006221Y008571D01*
X006185Y008535D01*
X006185Y008498D01*
X006221Y008461D01*
X006295Y008461D01*
X006332Y008498D01*
X006258Y008571D02*
X006221Y008571D01*
X005944Y008608D02*
X005908Y008571D01*
X005834Y008571D01*
X005798Y008535D01*
X005798Y008498D01*
X005834Y008461D01*
X005908Y008461D01*
X005944Y008498D01*
X005944Y008608D02*
X005944Y008645D01*
X005908Y008681D01*
X005834Y008681D01*
X005798Y008645D01*
X005650Y008681D02*
X005577Y008681D01*
X005613Y008681D02*
X005613Y008498D01*
X005650Y008461D01*
X005687Y008461D01*
X005724Y008498D01*
X005503Y008461D02*
X005356Y008461D01*
X005429Y008461D02*
X005429Y008681D01*
X005503Y008608D01*
X005282Y008645D02*
X005245Y008681D01*
X005171Y008681D01*
X005135Y008645D01*
X005135Y008608D01*
X005282Y008461D01*
X005135Y008461D01*
X004664Y008468D02*
X004628Y008431D01*
X004554Y008431D01*
X004518Y008468D01*
X004518Y008505D01*
X004554Y008541D01*
X004628Y008541D01*
X004664Y008578D01*
X004664Y008615D01*
X004628Y008651D01*
X004554Y008651D01*
X004518Y008615D01*
X004370Y008651D02*
X004297Y008651D01*
X004333Y008651D02*
X004333Y008468D01*
X004370Y008431D01*
X004407Y008431D01*
X004444Y008468D01*
X004223Y008431D02*
X004076Y008431D01*
X004149Y008431D02*
X004149Y008651D01*
X004223Y008578D01*
X004002Y008541D02*
X003855Y008541D01*
X003891Y008431D02*
X003891Y008651D01*
X004002Y008541D01*
X006710Y012978D02*
X007484Y012978D01*
X007484Y014925D01*
X006710Y014925D01*
X006710Y012978D01*
X007710Y012978D02*
X008484Y012978D01*
X008484Y014925D01*
X007710Y014925D01*
X007710Y012978D01*
X008710Y012978D02*
X009484Y012978D01*
X009484Y014925D01*
X008710Y014925D01*
X008710Y012978D01*
X009710Y012978D02*
X010484Y012978D01*
X010484Y014925D01*
X009710Y014925D01*
X009710Y012978D01*
X010710Y012978D02*
X011484Y012978D01*
X011484Y014925D01*
X010710Y014925D01*
X010710Y012978D01*
X011710Y012978D02*
X012484Y012978D01*
X012484Y014925D01*
X011710Y014925D01*
X011710Y012978D01*
X012522Y007008D02*
X012485Y006971D01*
X012485Y006935D01*
X012632Y006935D01*
X012632Y006971D02*
X012632Y006898D01*
X012595Y006861D01*
X012522Y006861D01*
X012572Y006768D02*
X012572Y006731D01*
X012572Y006658D02*
X012572Y006511D01*
X012608Y006511D02*
X012535Y006511D01*
X012461Y006511D02*
X012461Y006658D01*
X012351Y006658D01*
X012314Y006621D01*
X012314Y006511D01*
X012240Y006511D02*
X012130Y006511D01*
X012093Y006548D01*
X012130Y006585D01*
X012203Y006585D01*
X012240Y006621D01*
X012203Y006658D01*
X012093Y006658D01*
X012572Y006658D02*
X012608Y006658D01*
X012683Y006621D02*
X012683Y006548D01*
X012719Y006511D01*
X012829Y006511D01*
X012829Y006438D02*
X012829Y006658D01*
X012719Y006658D01*
X012683Y006621D01*
X012743Y006861D02*
X012706Y006898D01*
X012743Y006935D01*
X012816Y006935D01*
X012853Y006971D01*
X012816Y007008D01*
X012706Y007008D01*
X012632Y006971D02*
X012595Y007008D01*
X012522Y007008D01*
X012743Y006861D02*
X012853Y006861D01*
X012927Y006898D02*
X012927Y006971D01*
X012964Y007008D01*
X013037Y007008D01*
X013074Y006971D01*
X013074Y006898D01*
X013037Y006861D01*
X012964Y006861D01*
X012927Y006898D01*
X013148Y006898D02*
X013148Y006971D01*
X013185Y007008D01*
X013295Y007008D01*
X013295Y006788D01*
X013295Y006861D02*
X013185Y006861D01*
X013148Y006898D01*
X013161Y006731D02*
X013161Y006511D01*
X013198Y006511D02*
X013124Y006511D01*
X013272Y006511D02*
X013382Y006511D01*
X013419Y006548D01*
X013382Y006585D01*
X013272Y006585D01*
X013272Y006621D02*
X013272Y006511D01*
X013272Y006621D02*
X013309Y006658D01*
X013382Y006658D01*
X013493Y006658D02*
X013566Y006658D01*
X013529Y006695D02*
X013529Y006548D01*
X013493Y006511D01*
X013640Y006511D02*
X013787Y006731D01*
X013737Y006861D02*
X013590Y006861D01*
X013516Y006861D02*
X013369Y007008D01*
X013516Y007008D02*
X013369Y006861D01*
X013198Y006731D02*
X013161Y006731D01*
X013640Y006731D02*
X013787Y006511D01*
X013737Y006861D02*
X013737Y007081D01*
X013590Y007081D01*
X013664Y006971D02*
X013737Y006971D01*
X015693Y006658D02*
X015803Y006658D01*
X015840Y006621D01*
X015803Y006585D01*
X015730Y006585D01*
X015693Y006548D01*
X015730Y006511D01*
X015840Y006511D01*
X015914Y006511D02*
X015914Y006621D01*
X015951Y006658D01*
X016061Y006658D01*
X016061Y006511D01*
X016135Y006511D02*
X016208Y006511D01*
X016172Y006511D02*
X016172Y006658D01*
X016208Y006658D01*
X016172Y006731D02*
X016172Y006768D01*
X016195Y006861D02*
X016232Y006898D01*
X016232Y006971D01*
X016195Y007008D01*
X016122Y007008D01*
X016085Y006971D01*
X016085Y006935D01*
X016232Y006935D01*
X016195Y006861D02*
X016122Y006861D01*
X016306Y006898D02*
X016343Y006935D01*
X016416Y006935D01*
X016453Y006971D01*
X016416Y007008D01*
X016306Y007008D01*
X016306Y006898D02*
X016343Y006861D01*
X016453Y006861D01*
X016527Y006898D02*
X016527Y006971D01*
X016564Y007008D01*
X016637Y007008D01*
X016674Y006971D01*
X016674Y006898D01*
X016637Y006861D01*
X016564Y006861D01*
X016527Y006898D01*
X016748Y006898D02*
X016748Y006971D01*
X016785Y007008D01*
X016895Y007008D01*
X016895Y006788D01*
X016895Y006861D02*
X016785Y006861D01*
X016748Y006898D01*
X016761Y006731D02*
X016761Y006511D01*
X016798Y006511D02*
X016724Y006511D01*
X016872Y006511D02*
X016982Y006511D01*
X017019Y006548D01*
X016982Y006585D01*
X016872Y006585D01*
X016872Y006621D02*
X016872Y006511D01*
X016872Y006621D02*
X016909Y006658D01*
X016982Y006658D01*
X017093Y006658D02*
X017166Y006658D01*
X017129Y006695D02*
X017129Y006548D01*
X017093Y006511D01*
X017240Y006511D02*
X017387Y006731D01*
X017337Y006861D02*
X017190Y006861D01*
X017116Y006861D02*
X016969Y007008D01*
X017116Y007008D02*
X016969Y006861D01*
X016798Y006731D02*
X016761Y006731D01*
X016429Y006658D02*
X016429Y006438D01*
X016429Y006511D02*
X016319Y006511D01*
X016283Y006548D01*
X016283Y006621D01*
X016319Y006658D01*
X016429Y006658D01*
X017240Y006731D02*
X017387Y006511D01*
X017337Y006861D02*
X017337Y007081D01*
X017190Y007081D01*
X017264Y006971D02*
X017337Y006971D01*
X018123Y005188D02*
X018123Y004414D01*
X020071Y004414D01*
X020071Y005188D01*
X018123Y005188D01*
X018392Y004231D02*
X018392Y004011D01*
X018465Y004011D02*
X018318Y004011D01*
X018465Y004158D02*
X018392Y004231D01*
X018539Y004195D02*
X018539Y004158D01*
X018576Y004121D01*
X018686Y004121D01*
X018760Y004121D02*
X018797Y004085D01*
X018907Y004085D01*
X018834Y004085D02*
X018760Y004011D01*
X018686Y004011D02*
X018576Y004011D01*
X018539Y004048D01*
X018539Y004085D01*
X018576Y004121D01*
X018539Y004195D02*
X018576Y004231D01*
X018686Y004231D01*
X018686Y004011D01*
X018760Y004121D02*
X018760Y004195D01*
X018797Y004231D01*
X018907Y004231D01*
X018907Y004011D01*
X019248Y004048D02*
X019285Y004011D01*
X019358Y004011D01*
X019395Y004048D01*
X019395Y004121D02*
X019322Y004158D01*
X019285Y004158D01*
X019248Y004121D01*
X019248Y004048D01*
X019395Y004121D02*
X019395Y004231D01*
X019248Y004231D01*
X019469Y004158D02*
X019469Y004011D01*
X019469Y004121D02*
X019616Y004121D01*
X019616Y004158D02*
X019543Y004231D01*
X019469Y004158D01*
X019616Y004158D02*
X019616Y004011D01*
X019690Y004011D02*
X019764Y004085D01*
X019727Y004085D02*
X019837Y004085D01*
X019837Y004011D02*
X019837Y004231D01*
X019727Y004231D01*
X019690Y004195D01*
X019690Y004121D01*
X019727Y004085D01*
X019945Y003869D02*
X019897Y003821D01*
X019897Y003724D01*
X019945Y003676D01*
X020042Y003676D02*
X020090Y003772D01*
X020090Y003821D01*
X020042Y003869D01*
X019945Y003869D01*
X020042Y003676D02*
X020187Y003676D01*
X020187Y003869D01*
X019897Y003584D02*
X019897Y003390D01*
X019897Y003487D02*
X020187Y003487D01*
X020090Y003390D01*
X020187Y003298D02*
X020187Y003202D01*
X020187Y003250D02*
X019945Y003250D01*
X019897Y003202D01*
X019897Y003153D01*
X019945Y003105D01*
X019945Y003013D02*
X019897Y002965D01*
X019897Y002868D01*
X019945Y002819D01*
X020042Y002868D02*
X020042Y002965D01*
X019994Y003013D01*
X019945Y003013D01*
X020042Y002868D02*
X020090Y002819D01*
X020139Y002819D01*
X020187Y002868D01*
X020187Y002965D01*
X020139Y003013D01*
X019657Y002908D02*
X019657Y002688D01*
X019657Y002761D02*
X019547Y002761D01*
X019510Y002798D01*
X019510Y002871D01*
X019547Y002908D01*
X019657Y002908D01*
X019436Y002908D02*
X019399Y002908D01*
X019399Y002761D01*
X019363Y002761D02*
X019436Y002761D01*
X019289Y002761D02*
X019289Y002908D01*
X019179Y002908D01*
X019142Y002871D01*
X019142Y002761D01*
X018847Y002761D02*
X018700Y002981D01*
X018626Y002945D02*
X018626Y002908D01*
X018589Y002871D01*
X018516Y002871D01*
X018479Y002835D01*
X018479Y002798D01*
X018516Y002761D01*
X018589Y002761D01*
X018626Y002798D01*
X018626Y002945D02*
X018589Y002981D01*
X018516Y002981D01*
X018479Y002945D01*
X018405Y002945D02*
X018405Y002908D01*
X018368Y002871D01*
X018295Y002871D01*
X018258Y002835D01*
X018258Y002798D01*
X018295Y002761D01*
X018368Y002761D01*
X018405Y002798D01*
X018405Y002945D02*
X018368Y002981D01*
X018295Y002981D01*
X018258Y002945D01*
X019399Y002981D02*
X019399Y003018D01*
X012687Y003031D02*
X012687Y002811D01*
X012540Y002811D01*
X012466Y002811D02*
X012319Y002958D01*
X012245Y002958D02*
X012245Y002738D01*
X012245Y002811D02*
X012135Y002811D01*
X012098Y002848D01*
X012098Y002921D01*
X012135Y002958D01*
X012245Y002958D01*
X012319Y002811D02*
X012466Y002958D01*
X012540Y003031D02*
X012687Y003031D01*
X012687Y002921D02*
X012614Y002921D01*
X012024Y002921D02*
X012024Y002848D01*
X011987Y002811D01*
X011914Y002811D01*
X011877Y002848D01*
X011877Y002921D01*
X011914Y002958D01*
X011987Y002958D01*
X012024Y002921D01*
X011803Y002921D02*
X011766Y002958D01*
X011656Y002958D01*
X011693Y002885D02*
X011766Y002885D01*
X011803Y002921D01*
X011803Y002811D02*
X011693Y002811D01*
X011656Y002848D01*
X011693Y002885D01*
X011582Y002885D02*
X011435Y002885D01*
X011435Y002921D01*
X011472Y002958D01*
X011545Y002958D01*
X011582Y002921D01*
X011582Y002848D01*
X011545Y002811D01*
X011472Y002811D01*
X011361Y002848D02*
X011361Y002921D01*
X011324Y002958D01*
X011214Y002958D01*
X011214Y003031D02*
X011214Y002811D01*
X011324Y002811D01*
X011361Y002848D01*
X010784Y002978D02*
X010010Y002978D01*
X010010Y004925D01*
X010784Y004925D01*
X010784Y002978D01*
X011188Y004411D02*
X011261Y004411D01*
X011298Y004448D01*
X011298Y004521D01*
X011261Y004558D01*
X011188Y004558D01*
X011151Y004521D01*
X011151Y004485D01*
X011298Y004485D01*
X011372Y004558D02*
X011409Y004558D01*
X011482Y004485D01*
X011482Y004558D02*
X011482Y004411D01*
X011556Y004448D02*
X011556Y004521D01*
X011593Y004558D01*
X011666Y004558D01*
X011703Y004521D01*
X011703Y004448D01*
X011666Y004411D01*
X011593Y004411D01*
X011556Y004448D01*
X011777Y004411D02*
X011887Y004411D01*
X011924Y004448D01*
X011924Y004521D01*
X011887Y004558D01*
X011777Y004558D01*
X011998Y004558D02*
X012108Y004558D01*
X012145Y004521D01*
X012145Y004448D01*
X012108Y004411D01*
X011998Y004411D01*
X011998Y004631D01*
X012219Y004631D02*
X012219Y004411D01*
X012329Y004411D01*
X012366Y004448D01*
X012366Y004521D01*
X012329Y004558D01*
X012219Y004558D01*
X012440Y004485D02*
X012440Y004631D01*
X012440Y004485D02*
X012514Y004411D01*
X012587Y004485D01*
X012587Y004631D01*
X003384Y016878D02*
X002610Y016878D01*
X002610Y018825D01*
X003384Y018825D01*
X003384Y016878D01*
D30*
X005297Y007231D03*
X005197Y007211D03*
X005157Y007191D03*
X005137Y007171D03*
X005117Y007171D03*
X005057Y007131D03*
X005017Y007111D03*
X004957Y007071D03*
X004937Y007051D03*
X004817Y006951D03*
X004797Y006931D03*
X004777Y006911D03*
X004757Y006891D03*
X004697Y006851D03*
X004677Y006831D03*
X004657Y006811D03*
X004877Y006571D03*
X004857Y006531D03*
X004957Y006671D03*
X004937Y006251D03*
X004917Y006251D03*
X004797Y006151D03*
X004777Y006131D03*
X004737Y006071D03*
X004697Y006011D03*
X004597Y006111D03*
X004577Y006091D03*
X004617Y006151D03*
X004637Y006191D03*
X004657Y006211D03*
X004677Y006251D03*
X004517Y005991D03*
X004497Y005971D03*
X004777Y005731D03*
X004897Y005731D03*
X004917Y005731D03*
X004977Y005731D03*
X004997Y005731D03*
X004537Y005591D03*
X004517Y005591D03*
X004057Y005591D03*
X004037Y005611D03*
X003877Y005571D03*
X003857Y005591D03*
X003837Y005611D03*
X003817Y005631D03*
X003957Y005451D03*
X004077Y005171D03*
X003937Y005131D03*
X003797Y004951D03*
X003817Y004931D03*
X003837Y004911D03*
X003857Y004891D03*
X003877Y004871D03*
X003917Y004851D03*
X003937Y004831D03*
X004297Y004691D03*
X004537Y004891D03*
X004557Y004951D03*
X004557Y005071D03*
X004737Y004451D03*
X004837Y004311D03*
X005377Y003991D03*
X005397Y003991D03*
X004797Y003611D03*
X004757Y003571D03*
X004737Y003571D03*
X004697Y003511D03*
X004797Y003411D03*
X004097Y003191D03*
X004037Y003091D03*
X003997Y003031D03*
X003977Y002991D03*
X003957Y002951D03*
X004157Y002871D03*
X004177Y002591D03*
X004117Y002551D03*
X004097Y002551D03*
X003877Y002551D03*
X003797Y002611D03*
X003777Y002591D03*
X003737Y002531D03*
X003837Y002451D03*
X003917Y002351D03*
X003897Y002211D03*
X004037Y001931D03*
X004017Y001911D03*
X003997Y001891D03*
X003957Y001871D03*
X003937Y001871D03*
X003897Y001851D03*
X003877Y001851D03*
X003857Y001851D03*
X003837Y001871D03*
X003817Y001871D03*
X004377Y002371D03*
X004357Y002531D03*
X004697Y002351D03*
X004717Y002331D03*
X004757Y002311D03*
X004777Y002291D03*
X004797Y002291D03*
X004497Y001991D03*
X004657Y001811D03*
X004697Y001751D03*
X004737Y001691D03*
X004757Y001651D03*
X005037Y001911D03*
X005057Y001891D03*
X005017Y001931D03*
X004577Y001251D03*
X004597Y001231D03*
X004617Y001211D03*
X004637Y001191D03*
X004657Y001171D03*
X004677Y001171D03*
X004697Y001151D03*
X004717Y001131D03*
X004737Y001111D03*
X004797Y001071D03*
X004817Y001051D03*
X004857Y001031D03*
X004877Y001011D03*
X004977Y000951D03*
X004997Y000931D03*
X005017Y000931D03*
X005037Y000911D03*
X005057Y000891D03*
X005077Y000891D03*
X005097Y000871D03*
X005117Y000871D03*
X005137Y000851D03*
X005157Y000851D03*
X005177Y000851D03*
X005197Y000851D03*
X005217Y000851D03*
X005237Y000851D03*
X005257Y000871D03*
X004517Y001291D03*
X003277Y002431D03*
X003237Y002411D03*
X003217Y002411D03*
X003077Y002391D03*
X002977Y002391D03*
X003817Y002651D03*
X003597Y003411D03*
X003837Y003751D03*
X003937Y003871D03*
X004197Y003971D03*
X003357Y003771D03*
X003317Y003911D03*
X003317Y003991D03*
X003317Y004091D03*
X002917Y004251D03*
X002657Y004591D03*
X003057Y004711D03*
X003077Y004731D03*
X003097Y004731D03*
X003117Y004731D03*
X003377Y004571D03*
X003257Y005651D03*
X003037Y005691D03*
X003817Y006091D03*
X003857Y006111D03*
X003917Y006131D03*
X003937Y006131D03*
X003957Y006131D03*
X005617Y005231D03*
X005657Y005251D03*
X005697Y005271D03*
X005917Y005431D03*
X003377Y003571D03*
X003057Y003311D03*
X003037Y003311D03*
X002677Y003371D03*
X002297Y003911D03*
X001757Y002951D03*
X001737Y002951D03*
X001737Y002771D03*
X001757Y002771D03*
X001717Y002771D03*
X001697Y002771D03*
X001957Y002811D03*
X001857Y005071D03*
X005637Y002711D03*
D31*
X005657Y002701D03*
X005677Y002681D03*
X005617Y002721D03*
X005917Y002461D03*
X005077Y001861D03*
X004797Y001861D03*
X004717Y001721D03*
X004777Y001601D03*
X004497Y001321D03*
X004477Y001341D03*
X004457Y001361D03*
X004537Y001281D03*
X004557Y001261D03*
X004757Y001101D03*
X004777Y001081D03*
X004837Y001041D03*
X004897Y001001D03*
X004917Y000981D03*
X005277Y000881D03*
X005297Y000901D03*
X004477Y002021D03*
X004057Y001961D03*
X003797Y001881D03*
X003777Y001901D03*
X003757Y001921D03*
X003757Y002541D03*
X003897Y002581D03*
X004157Y002601D03*
X003777Y002981D03*
X003757Y002961D03*
X003737Y002941D03*
X003977Y003181D03*
X003997Y003201D03*
X004017Y003221D03*
X004037Y003241D03*
X004057Y003261D03*
X004077Y003281D03*
X004097Y003301D03*
X003937Y003561D03*
X003637Y003441D03*
X003617Y003421D03*
X003617Y003261D03*
X003337Y003761D03*
X003617Y003861D03*
X004077Y004221D03*
X004097Y004221D03*
X004357Y004481D03*
X004557Y004701D03*
X004097Y005121D03*
X004057Y005201D03*
X004157Y005421D03*
X004117Y005481D03*
X003917Y005501D03*
X003777Y004981D03*
X003957Y004821D03*
X003977Y004801D03*
X003997Y004781D03*
X003617Y004621D03*
X003597Y004621D03*
X002977Y004721D03*
X002977Y004321D03*
X002277Y004401D03*
X002177Y005261D03*
X002157Y005261D03*
X002137Y005261D03*
X002117Y005261D03*
X002097Y005261D03*
X002077Y005261D03*
X002057Y005241D03*
X001797Y005221D03*
X003057Y005681D03*
X003077Y005681D03*
X003097Y005681D03*
X003237Y005661D03*
X003277Y005641D03*
X003297Y005621D03*
X003317Y005601D03*
X003097Y005841D03*
X003777Y006061D03*
X003797Y006081D03*
X003977Y006121D03*
X003997Y006101D03*
X004017Y006081D03*
X004037Y006061D03*
X004457Y005941D03*
X004477Y005961D03*
X004677Y005981D03*
X004717Y006041D03*
X004757Y006101D03*
X004817Y005721D03*
X004497Y005621D03*
X005117Y006301D03*
X004717Y006861D03*
X004737Y006881D03*
X004637Y006801D03*
X004617Y006781D03*
X004597Y006761D03*
X004577Y006741D03*
X004557Y006721D03*
X004537Y006701D03*
X004837Y006961D03*
X004857Y006981D03*
X004877Y007001D03*
X004897Y007021D03*
X004917Y007041D03*
X004977Y007081D03*
X004997Y007101D03*
X005037Y007121D03*
X005077Y007141D03*
X005097Y007161D03*
X005317Y007221D03*
X005337Y007221D03*
X005897Y005441D03*
X005857Y005421D03*
X005837Y005401D03*
X005677Y005261D03*
X005637Y005241D03*
X005597Y005221D03*
X004837Y003661D03*
X004857Y003641D03*
X004597Y003481D03*
X004677Y003301D03*
X003357Y002461D03*
X003337Y002461D03*
X003317Y002441D03*
X003297Y002441D03*
X003257Y002421D03*
X003057Y002401D03*
X003037Y002401D03*
X003017Y002401D03*
X002997Y002401D03*
X003077Y002261D03*
X002017Y002801D03*
X001997Y002801D03*
X001977Y002801D03*
X001937Y002821D03*
X001917Y002821D03*
X001797Y002781D03*
X001777Y002781D03*
X001777Y002941D03*
X002317Y003501D03*
X002297Y003521D03*
D32*
X002057Y002791D03*
X002037Y002791D03*
X001797Y002931D03*
X003197Y002371D03*
X003857Y002491D03*
X003917Y002591D03*
X003837Y002671D03*
X003937Y002911D03*
X004057Y002871D03*
X004077Y002931D03*
X004097Y002991D03*
X004137Y003111D03*
X004057Y003111D03*
X003957Y003151D03*
X003937Y003131D03*
X003917Y003111D03*
X003897Y003091D03*
X003877Y003071D03*
X003857Y003051D03*
X003837Y003031D03*
X003817Y003011D03*
X003797Y002991D03*
X003717Y002911D03*
X003697Y002891D03*
X004137Y002591D03*
X004357Y002151D03*
X004377Y002131D03*
X004097Y002011D03*
X004077Y001991D03*
X004757Y001931D03*
X004777Y001891D03*
X004817Y001851D03*
X005097Y001811D03*
X005857Y002511D03*
X005877Y002491D03*
X005597Y002751D03*
X005577Y002751D03*
X005557Y002751D03*
X005537Y002751D03*
X005157Y003471D03*
X004837Y003431D03*
X004417Y003491D03*
X004397Y003491D03*
X004097Y003411D03*
X004057Y003451D03*
X004037Y003471D03*
X003957Y003531D03*
X003657Y003471D03*
X004057Y004551D03*
X004057Y004731D03*
X004037Y004751D03*
X004017Y004771D03*
X004217Y004851D03*
X004197Y004891D03*
X004177Y004951D03*
X004117Y005091D03*
X004237Y004791D03*
X004257Y004751D03*
X004277Y004711D03*
X004337Y004491D03*
X004497Y004511D03*
X004877Y004471D03*
X005577Y005211D03*
X005717Y005311D03*
X005737Y005331D03*
X005877Y005431D03*
X004837Y005731D03*
X004797Y005711D03*
X004537Y006011D03*
X004057Y006031D03*
X003757Y006031D03*
X003337Y005591D03*
X003357Y005571D03*
X003377Y005551D03*
X003897Y005551D03*
X003937Y005471D03*
X004097Y005511D03*
X004137Y005451D03*
X004177Y005391D03*
X002977Y004591D03*
X002037Y005231D03*
X002017Y005211D03*
X001877Y005231D03*
X001857Y005231D03*
X001837Y005231D03*
X001817Y005231D03*
X004457Y006591D03*
X004497Y006651D03*
X004517Y006671D03*
X005037Y006911D03*
X005357Y007211D03*
X004437Y001391D03*
X004937Y000971D03*
X004957Y000971D03*
X005317Y000911D03*
D33*
X005237Y001151D03*
X005217Y001211D03*
X005397Y001151D03*
X005317Y001511D03*
X005277Y001651D03*
X005257Y001711D03*
X005237Y001771D03*
X005217Y001831D03*
X005197Y001891D03*
X004657Y002291D03*
X004877Y002631D03*
X004837Y002731D03*
X005077Y002911D03*
X005017Y002991D03*
X005437Y002791D03*
X005797Y002491D03*
X005177Y003531D03*
X004917Y003591D03*
X003917Y003911D03*
X003897Y003911D03*
X003877Y003911D03*
X004217Y004571D03*
X004577Y005091D03*
X004977Y004951D03*
X005037Y005031D03*
X005057Y005051D03*
X005097Y005071D03*
X005177Y005111D03*
X005237Y005131D03*
X005257Y005131D03*
X005497Y004871D03*
X005797Y005431D03*
X005117Y005791D03*
X005097Y005751D03*
X005137Y005831D03*
X005157Y005871D03*
X005177Y005911D03*
X005217Y006011D03*
X004977Y006071D03*
X005037Y006371D03*
X004157Y005771D03*
X004457Y005551D03*
X004917Y005391D03*
X004937Y005431D03*
X003157Y005751D03*
X003137Y005751D03*
X002257Y005231D03*
X002237Y005231D03*
X001957Y005151D03*
X002337Y004391D03*
X002597Y004531D03*
X002957Y004651D03*
X003057Y004511D03*
X002597Y004071D03*
X002857Y002871D03*
X003437Y002551D03*
X003997Y002651D03*
X004377Y001551D03*
X002177Y002771D03*
X002157Y002771D03*
X002137Y002771D03*
X002117Y002771D03*
X001837Y002851D03*
X001817Y002851D03*
D34*
X001857Y002851D03*
X001957Y003991D03*
X002137Y004271D03*
X002157Y004291D03*
X002217Y004331D03*
X003297Y004051D03*
X003637Y004571D03*
X003957Y004491D03*
X004157Y004631D03*
X004177Y004611D03*
X004197Y004591D03*
X004237Y004531D03*
X004257Y004511D03*
X004517Y004771D03*
X004897Y004431D03*
X004917Y004411D03*
X005417Y005191D03*
X005437Y005191D03*
X005457Y005191D03*
X004697Y005691D03*
X004137Y005851D03*
X003857Y003611D03*
X004117Y003371D03*
X004237Y003411D03*
X004257Y003431D03*
X003977Y002631D03*
X003397Y002531D03*
X003117Y002331D03*
X004317Y001731D03*
X004397Y001491D03*
X005177Y001471D03*
X005177Y001951D03*
X005157Y002011D03*
X005137Y002051D03*
X004977Y002391D03*
X004957Y002431D03*
X004937Y002471D03*
X005477Y002771D03*
X005497Y002771D03*
X005197Y003531D03*
D35*
X005397Y003711D03*
X005417Y003691D03*
X005377Y003751D03*
X005357Y003771D03*
X005457Y003611D03*
X005477Y003191D03*
X004877Y003491D03*
X004697Y003291D03*
X004457Y003471D03*
X004157Y003351D03*
X004137Y003371D03*
X004157Y003191D03*
X003917Y003591D03*
X003877Y004391D03*
X003937Y004451D03*
X004277Y004491D03*
X004557Y004531D03*
X004837Y004511D03*
X005377Y004231D03*
X005457Y004331D03*
X004137Y005071D03*
X004857Y005751D03*
X004117Y005911D03*
X005017Y006871D03*
X002637Y004571D03*
X002317Y004411D03*
X002277Y004251D03*
X002077Y004191D03*
X002657Y004051D03*
X002657Y003871D03*
X002937Y004271D03*
X002217Y005251D03*
X001877Y005071D03*
X001897Y002851D03*
X002077Y002751D03*
X003137Y002331D03*
X003157Y002331D03*
X003697Y002051D03*
X003717Y001991D03*
X003737Y001951D03*
X004117Y002051D03*
X004637Y002331D03*
X005057Y002231D03*
X005517Y002751D03*
X004417Y001431D03*
X004017Y002731D03*
X003657Y002811D03*
D36*
X003377Y002501D03*
X003677Y002121D03*
X004137Y002101D03*
X004157Y002161D03*
X004437Y002021D03*
X004377Y001881D03*
X004697Y002121D03*
X005037Y002261D03*
X005077Y002181D03*
X005097Y002141D03*
X005117Y002101D03*
X004997Y002341D03*
X004617Y002401D03*
X005117Y001761D03*
X005137Y001681D03*
X005157Y001581D03*
X004897Y003521D03*
X005477Y003581D03*
X005357Y003961D03*
X005357Y004181D03*
X005397Y004261D03*
X005417Y004281D03*
X005437Y004301D03*
X005477Y004381D03*
X005117Y004501D03*
X004857Y004501D03*
X003997Y004501D03*
X003857Y004381D03*
X003897Y004141D03*
X003877Y004121D03*
X004217Y003381D03*
X004377Y003461D03*
X003037Y003441D03*
X002637Y004261D03*
X002117Y004241D03*
X002097Y004221D03*
X001977Y005181D03*
X003197Y005721D03*
X004357Y005761D03*
X004437Y005901D03*
X004637Y005901D03*
X004877Y005781D03*
X004957Y006001D03*
X004417Y006501D03*
X005477Y005181D03*
X005497Y005181D03*
X005517Y005181D03*
X005537Y005181D03*
X002097Y002761D03*
X001877Y002861D03*
D37*
X002257Y002781D03*
X002277Y002781D03*
X002917Y002881D03*
X003277Y003001D03*
X003457Y002541D03*
X003477Y002541D03*
X003557Y002561D03*
X004717Y002981D03*
X004817Y003181D03*
X004937Y003081D03*
X004957Y003061D03*
X004997Y003041D03*
X005197Y002901D03*
X005257Y002861D03*
X005297Y002841D03*
X005337Y002841D03*
X005757Y002521D03*
X005777Y002501D03*
X005337Y004221D03*
X004957Y004921D03*
X004797Y005161D03*
X004817Y005201D03*
X004837Y005241D03*
X004577Y004601D03*
X003637Y005421D03*
X003497Y005481D03*
X003477Y005481D03*
X003457Y005481D03*
X002917Y005081D03*
X002877Y005101D03*
X002857Y005121D03*
X002817Y005181D03*
X002397Y004421D03*
X001977Y004001D03*
X001917Y005141D03*
X001897Y005141D03*
X004357Y006281D03*
X005297Y006261D03*
X005397Y006661D03*
D38*
X005377Y006561D03*
X005257Y006121D03*
X005237Y006061D03*
X005777Y005421D03*
X005397Y005181D03*
X005357Y005161D03*
X005337Y005141D03*
X005317Y005141D03*
X005297Y005141D03*
X005277Y005141D03*
X005217Y005121D03*
X005197Y005121D03*
X005157Y005101D03*
X005137Y005101D03*
X005117Y005081D03*
X005077Y005061D03*
X005017Y005021D03*
X004897Y005341D03*
X004597Y005181D03*
X004017Y005361D03*
X003437Y005481D03*
X003117Y005761D03*
X002897Y005081D03*
X003077Y004521D03*
X002577Y004521D03*
X001937Y005141D03*
X002277Y005221D03*
X003577Y004721D03*
X003817Y004381D03*
X004937Y004401D03*
X005217Y003561D03*
X004737Y003281D03*
X005097Y002901D03*
X005117Y002901D03*
X005137Y002901D03*
X005397Y002821D03*
X005417Y002821D03*
X004897Y002161D03*
X004337Y002261D03*
X003957Y002501D03*
X003357Y003001D03*
X003337Y003001D03*
X003317Y003001D03*
X003297Y003001D03*
X002817Y002841D03*
X002797Y002821D03*
X002197Y002781D03*
X004177Y003301D03*
X005297Y001581D03*
D39*
X005117Y001641D03*
X005097Y001721D03*
X004957Y001741D03*
X004897Y001761D03*
X004877Y001761D03*
X004857Y001781D03*
X004837Y001801D03*
X004957Y001901D03*
X004977Y001901D03*
X004997Y001921D03*
X004937Y002081D03*
X004837Y002021D03*
X004637Y002021D03*
X004617Y002021D03*
X004597Y002021D03*
X004577Y002021D03*
X004557Y002021D03*
X004517Y001981D03*
X004537Y001961D03*
X004557Y001941D03*
X004577Y001921D03*
X004597Y001901D03*
X004617Y001861D03*
X004637Y001841D03*
X004677Y001781D03*
X004797Y001581D03*
X004877Y001601D03*
X004897Y001621D03*
X005257Y001241D03*
X004997Y002221D03*
X004977Y002221D03*
X004957Y002241D03*
X004937Y002241D03*
X004877Y002261D03*
X004857Y002281D03*
X004837Y002281D03*
X004817Y002281D03*
X004737Y002321D03*
X004677Y002361D03*
X004757Y002421D03*
X004777Y002421D03*
X004677Y002581D03*
X004777Y002641D03*
X004657Y002841D03*
X004617Y002961D03*
X004577Y003041D03*
X004417Y003101D03*
X004377Y003221D03*
X004397Y003301D03*
X004117Y003221D03*
X004077Y003161D03*
X004017Y003061D03*
X003917Y002941D03*
X003917Y002881D03*
X003897Y002821D03*
X003877Y002781D03*
X003857Y002741D03*
X003937Y002641D03*
X003957Y002661D03*
X004017Y002561D03*
X004037Y002541D03*
X004057Y002541D03*
X004077Y002541D03*
X004037Y002341D03*
X003897Y002321D03*
X003877Y002301D03*
X003857Y002281D03*
X003837Y002261D03*
X003977Y001881D03*
X003917Y001861D03*
X004357Y002361D03*
X004397Y002341D03*
X004437Y002361D03*
X004517Y002381D03*
X004537Y002381D03*
X004557Y002401D03*
X004557Y002221D03*
X004377Y002521D03*
X004117Y002761D03*
X004097Y002821D03*
X004077Y002821D03*
X004177Y003001D03*
X004397Y002801D03*
X004417Y002781D03*
X004657Y003481D03*
X004117Y003501D03*
X004077Y003581D03*
X004037Y003561D03*
X003997Y003641D03*
X004017Y003661D03*
X003997Y003741D03*
X003977Y003821D03*
X004097Y003841D03*
X004097Y003941D03*
X004177Y003981D03*
X004217Y003981D03*
X004217Y003901D03*
X004217Y004101D03*
X004197Y004101D03*
X004177Y004101D03*
X004217Y004181D03*
X004117Y004241D03*
X004137Y004301D03*
X004157Y004301D03*
X004177Y004341D03*
X004157Y004361D03*
X004197Y004401D03*
X004217Y004381D03*
X004337Y004321D03*
X004417Y004381D03*
X004457Y004361D03*
X004577Y004301D03*
X004597Y004301D03*
X004677Y004481D03*
X004697Y004501D03*
X004777Y004401D03*
X004537Y004701D03*
X004237Y004661D03*
X004117Y004541D03*
X004117Y004481D03*
X004057Y004421D03*
X004037Y004421D03*
X004017Y004381D03*
X003997Y004381D03*
X003977Y004321D03*
X003957Y004321D03*
X003957Y004241D03*
X003937Y004241D03*
X003937Y004161D03*
X003957Y004161D03*
X003977Y004161D03*
X003917Y004161D03*
X003917Y004081D03*
X003957Y004061D03*
X003937Y003941D03*
X003817Y004221D03*
X003597Y004181D03*
X003597Y004341D03*
X003637Y004421D03*
X003597Y004761D03*
X003897Y004861D03*
X004037Y005361D03*
X004037Y005481D03*
X004057Y005481D03*
X004017Y005641D03*
X003797Y005661D03*
X003837Y005821D03*
X003917Y005881D03*
X003837Y006101D03*
X003877Y006121D03*
X003897Y006121D03*
X004417Y005621D03*
X004417Y005561D03*
X004537Y005481D03*
X004557Y005601D03*
X004597Y005621D03*
X004617Y005621D03*
X004717Y005641D03*
X004737Y005321D03*
X004617Y005961D03*
X004577Y005981D03*
X004817Y006181D03*
X004837Y006201D03*
X004857Y006221D03*
X004877Y006241D03*
X004897Y006241D03*
X004957Y006281D03*
X004897Y006341D03*
X004737Y006361D03*
X004717Y006321D03*
X004697Y006281D03*
X005037Y006101D03*
X005097Y006261D03*
X005177Y006241D03*
X005177Y006621D03*
X005157Y006621D03*
X005137Y006621D03*
X005117Y006621D03*
X005097Y006621D03*
X005177Y007201D03*
X005217Y007221D03*
X005237Y007221D03*
X005257Y007221D03*
X005277Y007221D03*
X003397Y005421D03*
X003017Y005681D03*
X003377Y004501D03*
X003197Y004301D03*
X003297Y004201D03*
X003337Y003901D03*
X003357Y003661D03*
X003397Y003581D03*
X003577Y003401D03*
X003077Y003321D03*
X002737Y003341D03*
X002697Y003361D03*
X002057Y002701D03*
X001937Y004021D03*
X002437Y004181D03*
X002617Y004161D03*
X002637Y004061D03*
X004877Y003981D03*
X004897Y003981D03*
X004897Y004101D03*
X005437Y003141D03*
D40*
X005457Y003181D03*
X005237Y003521D03*
X005117Y003481D03*
X005437Y003661D03*
X004857Y003461D03*
X004817Y003421D03*
X004677Y003501D03*
X004437Y003481D03*
X004277Y003501D03*
X004077Y003441D03*
X004017Y003481D03*
X003997Y003481D03*
X003977Y003501D03*
X003897Y003581D03*
X003877Y003601D03*
X003717Y003561D03*
X004117Y003041D03*
X004037Y002801D03*
X003937Y002541D03*
X003937Y002401D03*
X003677Y002841D03*
X003177Y002361D03*
X004397Y002101D03*
X004457Y002021D03*
X004397Y001941D03*
X004717Y002041D03*
X004737Y001981D03*
X005697Y002661D03*
X005717Y002641D03*
X005737Y002621D03*
X005817Y002521D03*
X005837Y002521D03*
X005897Y002481D03*
X004417Y003241D03*
X003597Y004081D03*
X003317Y004341D03*
X002957Y004301D03*
X002677Y004321D03*
X002657Y003401D03*
X003897Y004421D03*
X003917Y004441D03*
X004017Y004561D03*
X004037Y004561D03*
X004297Y004481D03*
X004317Y004481D03*
X004517Y004521D03*
X004537Y004521D03*
X004157Y005001D03*
X004037Y005241D03*
X003977Y005401D03*
X004077Y005521D03*
X004317Y005321D03*
X004477Y005601D03*
X004557Y006021D03*
X004917Y005901D03*
X004937Y005941D03*
X004897Y005841D03*
X005137Y006381D03*
X005177Y006521D03*
X004477Y006621D03*
X004437Y006541D03*
X004077Y006001D03*
X004097Y005961D03*
X003737Y006001D03*
X003217Y005701D03*
X003397Y005541D03*
X003757Y005021D03*
X002197Y005241D03*
X001997Y005201D03*
X005477Y004921D03*
X005557Y005201D03*
X005757Y005361D03*
X005377Y007181D03*
X005337Y000941D03*
D41*
X004337Y001711D03*
X003577Y002531D03*
X003157Y002971D03*
X003137Y002971D03*
X003517Y003271D03*
X003837Y003991D03*
X004477Y003351D03*
X004557Y003351D03*
X004637Y003191D03*
X004777Y003271D03*
X005337Y003891D03*
X004957Y004371D03*
X004637Y005471D03*
X003557Y005471D03*
X003297Y005031D03*
X003317Y005011D03*
X003157Y005071D03*
X003057Y005071D03*
X002977Y005071D03*
X002957Y005071D03*
X002777Y005191D03*
X002757Y005191D03*
X002737Y005191D03*
X002697Y005171D03*
X002337Y005231D03*
X002517Y004471D03*
X002757Y004551D03*
X001997Y003991D03*
X002297Y002771D03*
X002317Y002771D03*
D42*
X002337Y002771D03*
X002377Y002771D03*
X002417Y002791D03*
X002457Y002811D03*
X002677Y002811D03*
X003097Y002951D03*
X004317Y002351D03*
X004577Y003331D03*
X005497Y004531D03*
X004857Y004851D03*
X004837Y004811D03*
X004617Y004671D03*
X003397Y004831D03*
X003317Y004631D03*
X003197Y004571D03*
X003157Y004571D03*
X003037Y004571D03*
X002917Y004571D03*
X002897Y004571D03*
X002797Y004551D03*
X003097Y005091D03*
X003117Y005091D03*
X002677Y005171D03*
X002457Y005231D03*
X002437Y005231D03*
X002397Y005251D03*
X002377Y005251D03*
X002357Y005251D03*
X002017Y003991D03*
X005397Y007031D03*
D43*
X005457Y006921D03*
X004237Y005301D03*
X004337Y004861D03*
X004457Y004661D03*
X004397Y004601D03*
X003377Y004861D03*
X002637Y005181D03*
X002617Y005201D03*
X002597Y005201D03*
X002537Y005201D03*
X002517Y005201D03*
X002497Y005201D03*
X002037Y003981D03*
X002077Y003881D03*
X002097Y003861D03*
X002597Y003561D03*
X002617Y002801D03*
X002977Y002901D03*
X002997Y002901D03*
X004357Y001701D03*
D44*
X004477Y002611D03*
X003417Y003231D03*
X002337Y003891D03*
X002197Y003811D03*
X002177Y003831D03*
X002157Y003851D03*
X002057Y003971D03*
X004437Y005391D03*
D45*
X004657Y004761D03*
X005537Y004641D03*
X004997Y006681D03*
X003297Y004501D03*
X002117Y003861D03*
X002577Y002801D03*
X003597Y002521D03*
X004197Y002461D03*
D46*
X003337Y003421D03*
X002937Y003521D03*
X002137Y003861D03*
X004417Y005161D03*
X004697Y004861D03*
X004677Y004821D03*
X005017Y006381D03*
D47*
X005157Y006461D03*
X005197Y005961D03*
X005077Y005701D03*
X005057Y005661D03*
X005037Y005621D03*
X005017Y005581D03*
X004997Y005541D03*
X004977Y005501D03*
X004957Y005461D03*
X004997Y005001D03*
X004497Y004721D03*
X004317Y004761D03*
X004137Y004661D03*
X004117Y004681D03*
X003977Y004481D03*
X003837Y004381D03*
X003837Y003601D03*
X003737Y003541D03*
X003597Y003261D03*
X003577Y003261D03*
X003637Y002741D03*
X003417Y002541D03*
X003097Y002321D03*
X003657Y002181D03*
X004417Y002021D03*
X005017Y002281D03*
X004917Y002521D03*
X004897Y002581D03*
X004857Y002681D03*
X004817Y002781D03*
X004797Y002821D03*
X004777Y002861D03*
X005057Y002921D03*
X005457Y002781D03*
X005537Y003361D03*
X004717Y003301D03*
X004197Y003341D03*
X002997Y004061D03*
X002657Y004281D03*
X002617Y004541D03*
X002197Y004321D03*
X002177Y004301D03*
X002637Y003441D03*
X002877Y002881D03*
X002897Y002881D03*
X002837Y002861D03*
X005197Y001341D03*
X005817Y005441D03*
X004337Y005701D03*
X003997Y005381D03*
X003417Y005481D03*
X003177Y005741D03*
D48*
X004257Y005241D03*
X003717Y004261D03*
X004517Y003241D03*
X003617Y002501D03*
X002357Y003861D03*
X002257Y003801D03*
X002217Y003821D03*
D49*
X002317Y003891D03*
X002257Y004311D03*
X002237Y004311D03*
X002357Y004391D03*
X002377Y004411D03*
X002697Y004531D03*
X002937Y004631D03*
X003097Y004531D03*
X003117Y004551D03*
X003557Y004751D03*
X004097Y004671D03*
X004397Y005131D03*
X004617Y005331D03*
X004857Y005271D03*
X004877Y005311D03*
X004677Y005731D03*
X004177Y005671D03*
X003657Y005411D03*
X003517Y005451D03*
X002837Y005171D03*
X002297Y005231D03*
X003737Y003791D03*
X002617Y003471D03*
X002777Y002811D03*
X002237Y002791D03*
X002217Y002791D03*
X003637Y002271D03*
X004597Y002471D03*
X004677Y002191D03*
X004757Y002891D03*
X004737Y002931D03*
X004977Y003051D03*
X005037Y002971D03*
X005157Y002911D03*
X005177Y002911D03*
X005237Y002871D03*
X005357Y002831D03*
X005377Y002831D03*
X004797Y003211D03*
X004937Y003631D03*
X005217Y004431D03*
X005557Y004671D03*
X005377Y005171D03*
X005277Y006191D03*
X004977Y006691D03*
D50*
X004737Y004891D03*
X003377Y003211D03*
X002237Y003811D03*
D51*
X002277Y003631D03*
X002937Y003991D03*
X002717Y004531D03*
X002457Y004451D03*
X002417Y004431D03*
X002937Y005091D03*
X002797Y005191D03*
X002317Y005231D03*
X003457Y004791D03*
X003537Y004751D03*
X003797Y004351D03*
X004077Y004651D03*
X004317Y005071D03*
X004317Y005591D03*
X003617Y005431D03*
X003537Y005471D03*
X004897Y004891D03*
X004917Y004891D03*
X004937Y004911D03*
X003717Y003791D03*
X003557Y003271D03*
X003537Y003251D03*
X003257Y002991D03*
X003217Y002991D03*
X003197Y002991D03*
X002937Y002891D03*
X002757Y002811D03*
X003497Y002551D03*
X003517Y002551D03*
X003537Y002551D03*
X004617Y003211D03*
X004757Y003291D03*
X004697Y003031D03*
X005217Y002891D03*
X005277Y002851D03*
X005317Y002831D03*
X004937Y001831D03*
X004997Y006211D03*
X005337Y006391D03*
D52*
X004417Y006001D03*
X003737Y005161D03*
X003417Y004801D03*
X003217Y005061D03*
X003197Y005061D03*
X003177Y005061D03*
X003137Y005081D03*
X003077Y005081D03*
X003037Y005081D03*
X003017Y005081D03*
X002997Y005081D03*
X002717Y005181D03*
X002477Y005221D03*
X003017Y004581D03*
X002877Y004561D03*
X002857Y004561D03*
X002837Y004561D03*
X002817Y004561D03*
X002777Y004541D03*
X002557Y004461D03*
X002537Y004461D03*
X003017Y004001D03*
X003017Y003461D03*
X003477Y003281D03*
X003497Y003281D03*
X003117Y002961D03*
X002957Y002921D03*
X002717Y002801D03*
X002697Y002801D03*
X002397Y002781D03*
X002357Y002761D03*
X003857Y004001D03*
X003757Y004401D03*
X004477Y004621D03*
X004777Y004741D03*
X004877Y004861D03*
X004957Y003681D03*
X004357Y003381D03*
X004537Y003001D03*
X005337Y001381D03*
D53*
X004917Y001941D03*
X004217Y002621D03*
X003637Y004061D03*
X003737Y004261D03*
X003357Y004801D03*
X002377Y003841D03*
X005417Y006881D03*
D54*
X004277Y005221D03*
X003337Y004761D03*
X003077Y003841D03*
X002477Y003761D03*
X002397Y003821D03*
X003757Y003821D03*
D55*
X003217Y004561D03*
X003177Y004561D03*
X002657Y005181D03*
X002417Y005241D03*
X004197Y005521D03*
X004357Y004801D03*
X004797Y004741D03*
X004657Y003161D03*
X004577Y002581D03*
X003077Y002941D03*
X003057Y002941D03*
X002657Y002801D03*
X002537Y002781D03*
X002437Y002801D03*
D56*
X002417Y003811D03*
X002737Y003791D03*
X003097Y003811D03*
D57*
X002737Y004541D03*
X002497Y004461D03*
X002477Y004461D03*
X002437Y004441D03*
X002997Y004601D03*
X003137Y004601D03*
X003437Y004801D03*
X003477Y004781D03*
X003497Y004781D03*
X003517Y004761D03*
X003277Y005041D03*
X003257Y005041D03*
X003237Y005041D03*
X003597Y005441D03*
X003577Y005461D03*
X004217Y005461D03*
X004777Y005121D03*
X004597Y004621D03*
X004417Y004621D03*
X003777Y004361D03*
X004537Y003381D03*
X004597Y003261D03*
X004677Y003061D03*
X004837Y003141D03*
X004857Y003121D03*
X004877Y003121D03*
X004897Y003101D03*
X004917Y003101D03*
X004497Y002521D03*
X004177Y002301D03*
X003237Y002981D03*
X003177Y002981D03*
X002737Y002801D03*
X005317Y006341D03*
X005357Y006501D03*
D58*
X003677Y005621D03*
X003777Y003821D03*
X002917Y003641D03*
X002437Y003761D03*
D59*
X002457Y003751D03*
X002717Y003811D03*
X003297Y003571D03*
X004377Y006091D03*
X004397Y006151D03*
D60*
X004637Y004711D03*
X003237Y004551D03*
X002577Y005191D03*
X002557Y005191D03*
X003357Y003391D03*
X003457Y003271D03*
X003037Y002931D03*
X003017Y002911D03*
X002637Y002811D03*
X002517Y002791D03*
X002497Y002791D03*
X002477Y002791D03*
X004557Y002751D03*
X004497Y003331D03*
X005517Y003371D03*
D61*
X005117Y003991D03*
X002537Y003771D03*
X002517Y003771D03*
X002497Y003771D03*
D62*
X002557Y003761D03*
X002577Y003761D03*
X004257Y002881D03*
X004237Y002781D03*
X005317Y004021D03*
D63*
X004817Y004731D03*
X003617Y004151D03*
X003437Y003251D03*
X002597Y002791D03*
X002557Y002791D03*
X004437Y003071D03*
X005377Y001171D03*
D64*
X004337Y003281D03*
X004717Y004881D03*
X002677Y003881D03*
D65*
X002697Y003831D03*
X003817Y003811D03*
X004437Y004771D03*
D66*
X004497Y004971D03*
X004517Y004971D03*
X004617Y005011D03*
X004657Y005131D03*
X004497Y005231D03*
X004457Y005151D03*
X004497Y005371D03*
X004397Y005431D03*
X004357Y005391D03*
X004117Y005371D03*
X004097Y005371D03*
X004117Y005251D03*
X004137Y005251D03*
X003917Y005231D03*
X003837Y005231D03*
X003797Y005251D03*
X003797Y005371D03*
X003897Y005431D03*
X003917Y005431D03*
X003977Y005531D03*
X004077Y005611D03*
X004097Y005611D03*
X003997Y005671D03*
X003997Y005731D03*
X003977Y005731D03*
X004037Y005831D03*
X004037Y005871D03*
X004017Y005891D03*
X004017Y005971D03*
X003957Y005951D03*
X003937Y005991D03*
X003897Y005891D03*
X003837Y005871D03*
X003857Y005811D03*
X003857Y005711D03*
X003777Y005671D03*
X003797Y005571D03*
X003797Y005931D03*
X003777Y005931D03*
X003077Y005851D03*
X002837Y005011D03*
X003397Y004611D03*
X003597Y004811D03*
X003937Y004911D03*
X003957Y004891D03*
X003997Y004931D03*
X004057Y004971D03*
X004097Y004851D03*
X004057Y004811D03*
X003897Y005031D03*
X003837Y005111D03*
X004097Y004491D03*
X004137Y004471D03*
X004177Y004411D03*
X004137Y004371D03*
X004117Y004311D03*
X004077Y004411D03*
X004017Y004431D03*
X003997Y004311D03*
X003937Y004311D03*
X003977Y004251D03*
X003937Y004051D03*
X004117Y003951D03*
X004117Y003851D03*
X004137Y003751D03*
X004157Y003751D03*
X004177Y003651D03*
X004197Y003651D03*
X004177Y003591D03*
X004057Y003571D03*
X004097Y003491D03*
X004037Y003671D03*
X004017Y003751D03*
X003977Y003731D03*
X003957Y003811D03*
X003997Y003831D03*
X003877Y003751D03*
X004237Y003891D03*
X004237Y003971D03*
X004237Y004091D03*
X004237Y004171D03*
X004277Y004251D03*
X004437Y004371D03*
X004657Y004271D03*
X004817Y004171D03*
X004837Y004171D03*
X004857Y004171D03*
X004917Y004111D03*
X004857Y003971D03*
X004837Y003851D03*
X004897Y003651D03*
X004777Y003631D03*
X004397Y003211D03*
X004557Y003131D03*
X004597Y003051D03*
X004597Y002951D03*
X004597Y002911D03*
X004637Y002951D03*
X004677Y002831D03*
X004737Y002771D03*
X004717Y002711D03*
X004737Y002691D03*
X004797Y002611D03*
X004797Y002511D03*
X004817Y002511D03*
X004837Y002451D03*
X004537Y002571D03*
X004517Y002571D03*
X004417Y002351D03*
X004417Y002191D03*
X004437Y002191D03*
X004397Y002191D03*
X004557Y002131D03*
X004657Y002011D03*
X004677Y002011D03*
X004817Y002051D03*
X004817Y002131D03*
X004797Y002131D03*
X004957Y002071D03*
X005017Y002111D03*
X005057Y001991D03*
X004997Y001811D03*
X005017Y001771D03*
X004957Y001631D03*
X004857Y001671D03*
X004757Y001731D03*
X004717Y001831D03*
X004637Y001631D03*
X004557Y001611D03*
X004457Y001691D03*
X004457Y001491D03*
X004557Y001451D03*
X004557Y001391D03*
X004717Y001311D03*
X004777Y001231D03*
X004857Y001291D03*
X004957Y001331D03*
X005057Y001311D03*
X005077Y001311D03*
X005137Y001351D03*
X005117Y001471D03*
X005037Y001511D03*
X005117Y001571D03*
X005117Y001191D03*
X005217Y001031D03*
X005177Y000991D03*
X005237Y000951D03*
X005297Y001071D03*
X004877Y001111D03*
X004837Y001531D03*
X003957Y001971D03*
X003937Y001931D03*
X003897Y001991D03*
X003837Y002031D03*
X003797Y002111D03*
X003757Y002311D03*
X003857Y002411D03*
X003877Y002411D03*
X003777Y002511D03*
X003717Y002531D03*
X003717Y002611D03*
X003777Y002851D03*
X003837Y002911D03*
X004097Y002751D03*
X004117Y002671D03*
X004137Y002671D03*
X004097Y002651D03*
X004037Y002631D03*
X004017Y002631D03*
X004097Y002471D03*
X004097Y002391D03*
X004057Y002271D03*
X004037Y002231D03*
X004017Y002231D03*
X004177Y002851D03*
X004197Y002991D03*
X004197Y003111D03*
X004137Y003251D03*
X004377Y003031D03*
X004397Y003031D03*
X004377Y002991D03*
X004357Y002991D03*
X004397Y002891D03*
X003637Y003251D03*
X003277Y003231D03*
X003097Y003331D03*
X002937Y003091D03*
X002717Y003351D03*
X003337Y003831D03*
X003577Y004111D03*
X003597Y004271D03*
X004757Y004471D03*
X004717Y005371D03*
X004757Y005451D03*
X004777Y005531D03*
X004777Y005611D03*
X004777Y005671D03*
X004897Y005611D03*
X004937Y005731D03*
X004957Y005731D03*
X004777Y005851D03*
X004797Y005951D03*
X004837Y005951D03*
X004897Y006031D03*
X004997Y005991D03*
X005077Y005971D03*
X005137Y006071D03*
X005157Y006231D03*
X005297Y006491D03*
X005257Y006571D03*
X005197Y006631D03*
X005257Y006691D03*
X005257Y006871D03*
X005297Y006891D03*
X005357Y006931D03*
X005357Y007071D03*
X005257Y007031D03*
X005157Y007011D03*
X005157Y007051D03*
X005257Y007151D03*
X004937Y006891D03*
X004897Y006891D03*
X004877Y006771D03*
X004797Y006631D03*
X004837Y006531D03*
X004937Y006471D03*
X004977Y006471D03*
X005077Y006611D03*
X004757Y006391D03*
X004617Y006391D03*
X004597Y006511D03*
X004617Y006551D03*
X004637Y006631D03*
X004497Y006451D03*
X004457Y006311D03*
X004477Y006231D03*
X004557Y006271D03*
X004537Y006131D03*
X004477Y006051D03*
X004597Y005971D03*
X004597Y005831D03*
X004557Y005771D03*
X004497Y005871D03*
X004557Y005651D03*
X004577Y005611D03*
X004817Y005391D03*
X004737Y006231D03*
X003057Y002251D03*
D67*
X002777Y003741D03*
X002757Y003741D03*
X003697Y005581D03*
D68*
X004297Y005231D03*
X005177Y004111D03*
X005197Y004111D03*
X002977Y003711D03*
X002897Y003731D03*
X002877Y003731D03*
X002797Y003731D03*
D69*
X002817Y003751D03*
X002837Y003751D03*
X003137Y003731D03*
X003157Y003731D03*
X004457Y002811D03*
X005297Y004011D03*
X005237Y004071D03*
D70*
X002957Y003721D03*
X002857Y003741D03*
D71*
X002997Y003531D03*
X004377Y004671D03*
X004657Y005751D03*
X005497Y003391D03*
D72*
X005217Y003991D03*
X005517Y004651D03*
X003397Y003211D03*
X003037Y003911D03*
X005357Y001191D03*
X005437Y006891D03*
D73*
X003057Y003871D03*
X003317Y003511D03*
D74*
X003117Y003781D03*
X004317Y003161D03*
D75*
X003197Y003751D03*
X003177Y003751D03*
D76*
X003217Y003791D03*
X005257Y004011D03*
D77*
X005157Y004061D03*
X003657Y004101D03*
X003237Y003801D03*
D78*
X003257Y004021D03*
D79*
X003277Y004011D03*
D80*
X003677Y004001D03*
X004277Y002861D03*
X005037Y004001D03*
D81*
X004977Y004021D03*
X003697Y004021D03*
D82*
X003717Y005531D03*
D83*
X004757Y004901D03*
X003797Y003821D03*
D84*
X004297Y002881D03*
D85*
X004997Y004011D03*
X005017Y004011D03*
D86*
X005057Y004011D03*
X005077Y004011D03*
D87*
X005097Y004001D03*
X005137Y004001D03*
D88*
X005277Y004001D03*
D89*
X019626Y005751D02*
X019628Y005767D01*
X019634Y005783D01*
X019643Y005797D01*
X019655Y005808D01*
X019669Y005816D01*
X019685Y005821D01*
X019701Y005822D01*
X019717Y005819D01*
X019732Y005812D01*
X019746Y005803D01*
X019756Y005790D01*
X019764Y005775D01*
X019768Y005759D01*
X019768Y005743D01*
X019764Y005727D01*
X019756Y005712D01*
X019746Y005699D01*
X019733Y005690D01*
X019717Y005683D01*
X019701Y005680D01*
X019685Y005681D01*
X019669Y005686D01*
X019655Y005694D01*
X019643Y005705D01*
X019634Y005719D01*
X019628Y005735D01*
X019626Y005751D01*
D90*
X017741Y005666D02*
X017741Y005036D01*
X017740Y005036D02*
X017735Y005020D01*
X017727Y005004D01*
X017717Y004990D01*
X017705Y004978D01*
X017690Y004968D01*
X017674Y004961D01*
X017657Y004957D01*
X017640Y004956D01*
X017622Y004958D01*
X017072Y004958D02*
X017052Y004956D01*
X017033Y004958D01*
X017014Y004964D01*
X016997Y004973D01*
X016981Y004985D01*
X016969Y005000D01*
X016960Y005018D01*
X016954Y005036D01*
X016953Y005036D02*
X016953Y005666D01*
X016954Y005666D02*
X016960Y005684D01*
X016969Y005702D01*
X016981Y005717D01*
X016997Y005729D01*
X017014Y005738D01*
X017033Y005744D01*
X017052Y005746D01*
X017072Y005744D01*
X016741Y005666D02*
X016741Y005036D01*
X016740Y005036D02*
X016735Y005020D01*
X016727Y005004D01*
X016717Y004990D01*
X016705Y004978D01*
X016690Y004968D01*
X016674Y004961D01*
X016657Y004957D01*
X016640Y004956D01*
X016622Y004958D01*
X016072Y004958D02*
X016052Y004956D01*
X016033Y004958D01*
X016014Y004964D01*
X015997Y004973D01*
X015981Y004985D01*
X015969Y005000D01*
X015960Y005018D01*
X015954Y005036D01*
X015953Y005036D02*
X015953Y005666D01*
X015954Y005666D02*
X015960Y005684D01*
X015969Y005702D01*
X015981Y005717D01*
X015997Y005729D01*
X016014Y005738D01*
X016033Y005744D01*
X016052Y005746D01*
X016072Y005744D01*
X016622Y005744D02*
X016640Y005746D01*
X016657Y005745D01*
X016674Y005741D01*
X016690Y005734D01*
X016705Y005724D01*
X016717Y005712D01*
X016727Y005698D01*
X016735Y005682D01*
X016740Y005666D01*
X017622Y005744D02*
X017640Y005746D01*
X017657Y005745D01*
X017674Y005741D01*
X017690Y005734D01*
X017705Y005724D01*
X017717Y005712D01*
X017727Y005698D01*
X017735Y005682D01*
X017740Y005666D01*
X014671Y004361D02*
X014671Y003121D01*
X014001Y003121D01*
X013407Y003245D02*
X013407Y004267D01*
X013253Y004361D02*
X012781Y004361D01*
X013253Y004361D01*
X012781Y004361D02*
X012623Y004243D01*
X012623Y003279D01*
X012781Y003141D01*
X013253Y003141D01*
X014001Y004361D02*
X014671Y004361D01*
X014591Y005336D02*
X014591Y005966D01*
X014590Y005966D02*
X014585Y005982D01*
X014577Y005998D01*
X014567Y006012D01*
X014555Y006024D01*
X014540Y006034D01*
X014524Y006041D01*
X014507Y006045D01*
X014490Y006046D01*
X014472Y006044D01*
X013922Y006044D02*
X013902Y006046D01*
X013883Y006044D01*
X013864Y006038D01*
X013847Y006029D01*
X013831Y006017D01*
X013819Y006002D01*
X013810Y005984D01*
X013804Y005966D01*
X013803Y005966D02*
X013803Y005336D01*
X013804Y005336D02*
X013810Y005318D01*
X013819Y005300D01*
X013831Y005285D01*
X013847Y005273D01*
X013864Y005264D01*
X013883Y005258D01*
X013902Y005256D01*
X013922Y005258D01*
X014472Y005258D02*
X014490Y005256D01*
X014507Y005257D01*
X014524Y005261D01*
X014540Y005268D01*
X014555Y005278D01*
X014567Y005290D01*
X014577Y005304D01*
X014585Y005320D01*
X014590Y005336D01*
X012691Y005336D02*
X012691Y005966D01*
X012690Y005966D02*
X012685Y005982D01*
X012677Y005998D01*
X012667Y006012D01*
X012655Y006024D01*
X012640Y006034D01*
X012624Y006041D01*
X012607Y006045D01*
X012590Y006046D01*
X012572Y006044D01*
X012022Y006044D02*
X012002Y006046D01*
X011983Y006044D01*
X011964Y006038D01*
X011947Y006029D01*
X011931Y006017D01*
X011919Y006002D01*
X011910Y005984D01*
X011904Y005966D01*
X011903Y005966D02*
X011903Y005336D01*
X011904Y005336D02*
X011910Y005318D01*
X011919Y005300D01*
X011931Y005285D01*
X011947Y005273D01*
X011964Y005264D01*
X011983Y005258D01*
X012002Y005256D01*
X012022Y005258D01*
X012572Y005258D02*
X012590Y005256D01*
X012607Y005257D01*
X012624Y005261D01*
X012640Y005268D01*
X012655Y005278D01*
X012667Y005290D01*
X012677Y005304D01*
X012685Y005320D01*
X012690Y005336D01*
X006962Y007557D02*
X006332Y007557D01*
X006332Y007558D02*
X006316Y007563D01*
X006300Y007571D01*
X006286Y007581D01*
X006274Y007593D01*
X006264Y007608D01*
X006257Y007624D01*
X006253Y007641D01*
X006252Y007658D01*
X006254Y007676D01*
X005912Y007557D02*
X005282Y007557D01*
X005282Y007558D02*
X005266Y007563D01*
X005250Y007571D01*
X005236Y007581D01*
X005224Y007593D01*
X005214Y007608D01*
X005207Y007624D01*
X005203Y007641D01*
X005202Y007658D01*
X005204Y007676D01*
X004691Y007636D02*
X004691Y008266D01*
X004690Y008266D02*
X004685Y008282D01*
X004677Y008298D01*
X004667Y008312D01*
X004655Y008324D01*
X004640Y008334D01*
X004624Y008341D01*
X004607Y008345D01*
X004590Y008346D01*
X004572Y008344D01*
X004022Y008344D02*
X004002Y008346D01*
X003983Y008344D01*
X003964Y008338D01*
X003947Y008329D01*
X003931Y008317D01*
X003919Y008302D01*
X003910Y008284D01*
X003904Y008266D01*
X003903Y008266D02*
X003903Y007636D01*
X003904Y007636D02*
X003910Y007618D01*
X003919Y007600D01*
X003931Y007585D01*
X003947Y007573D01*
X003964Y007564D01*
X003983Y007558D01*
X004002Y007556D01*
X004022Y007558D01*
X004572Y007558D02*
X004590Y007556D01*
X004607Y007557D01*
X004624Y007561D01*
X004640Y007568D01*
X004655Y007578D01*
X004667Y007590D01*
X004677Y007604D01*
X004685Y007620D01*
X004690Y007636D01*
X005204Y008226D02*
X005202Y008244D01*
X005203Y008261D01*
X005207Y008278D01*
X005214Y008294D01*
X005224Y008309D01*
X005236Y008321D01*
X005250Y008331D01*
X005266Y008339D01*
X005282Y008344D01*
X005282Y008345D02*
X005912Y008345D01*
X005912Y008344D02*
X005928Y008339D01*
X005944Y008331D01*
X005958Y008321D01*
X005970Y008309D01*
X005980Y008294D01*
X005987Y008278D01*
X005991Y008261D01*
X005992Y008244D01*
X005990Y008226D01*
X006332Y008345D02*
X006962Y008345D01*
X006962Y008344D02*
X006978Y008339D01*
X006994Y008331D01*
X007008Y008321D01*
X007020Y008309D01*
X007030Y008294D01*
X007037Y008278D01*
X007041Y008261D01*
X007042Y008244D01*
X007040Y008226D01*
X007040Y007676D02*
X007042Y007658D01*
X007041Y007641D01*
X007037Y007624D01*
X007030Y007608D01*
X007020Y007593D01*
X007008Y007581D01*
X006994Y007571D01*
X006978Y007563D01*
X006962Y007558D01*
X006254Y008226D02*
X006252Y008244D01*
X006253Y008261D01*
X006257Y008278D01*
X006264Y008294D01*
X006274Y008309D01*
X006286Y008321D01*
X006300Y008331D01*
X006316Y008339D01*
X006332Y008344D01*
X005990Y007676D02*
X005992Y007658D01*
X005991Y007641D01*
X005987Y007624D01*
X005980Y007608D01*
X005970Y007593D01*
X005958Y007581D01*
X005944Y007571D01*
X005928Y007563D01*
X005912Y007558D01*
D91*
X005497Y011101D02*
X006497Y011101D01*
X006514Y011103D01*
X006531Y011107D01*
X006547Y011114D01*
X006561Y011124D01*
X006574Y011137D01*
X006584Y011151D01*
X006591Y011167D01*
X006595Y011184D01*
X006597Y011201D01*
X006597Y011801D01*
X006595Y011818D01*
X006591Y011835D01*
X006584Y011851D01*
X006574Y011865D01*
X006561Y011878D01*
X006547Y011888D01*
X006531Y011895D01*
X006514Y011899D01*
X006497Y011901D01*
X005497Y011901D01*
X005480Y011899D01*
X005463Y011895D01*
X005447Y011888D01*
X005433Y011878D01*
X005420Y011865D01*
X005410Y011851D01*
X005403Y011835D01*
X005399Y011818D01*
X005397Y011801D01*
X005397Y011201D01*
X005399Y011184D01*
X005403Y011167D01*
X005410Y011151D01*
X005420Y011137D01*
X005433Y011124D01*
X005447Y011114D01*
X005463Y011107D01*
X005480Y011103D01*
X005497Y011101D01*
X004247Y011201D02*
X004247Y011801D01*
X004245Y011818D01*
X004241Y011835D01*
X004234Y011851D01*
X004224Y011865D01*
X004211Y011878D01*
X004197Y011888D01*
X004181Y011895D01*
X004164Y011899D01*
X004147Y011901D01*
X003147Y011901D01*
X003130Y011899D01*
X003113Y011895D01*
X003097Y011888D01*
X003083Y011878D01*
X003070Y011865D01*
X003060Y011851D01*
X003053Y011835D01*
X003049Y011818D01*
X003047Y011801D01*
X003047Y011201D01*
X003049Y011184D01*
X003053Y011167D01*
X003060Y011151D01*
X003070Y011137D01*
X003083Y011124D01*
X003097Y011114D01*
X003113Y011107D01*
X003130Y011103D01*
X003147Y011101D01*
X004147Y011101D01*
X004164Y011103D01*
X004181Y011107D01*
X004197Y011114D01*
X004211Y011124D01*
X004224Y011137D01*
X004234Y011151D01*
X004241Y011167D01*
X004245Y011184D01*
X004247Y011201D01*
X011597Y004201D02*
X011597Y003201D01*
X011599Y003184D01*
X011603Y003167D01*
X011610Y003151D01*
X011620Y003137D01*
X011633Y003124D01*
X011647Y003114D01*
X011663Y003107D01*
X011680Y003103D01*
X011697Y003101D01*
X012297Y003101D01*
X012314Y003103D01*
X012331Y003107D01*
X012347Y003114D01*
X012361Y003124D01*
X012374Y003137D01*
X012384Y003151D01*
X012391Y003167D01*
X012395Y003184D01*
X012397Y003201D01*
X012397Y004201D01*
X012395Y004218D01*
X012391Y004235D01*
X012384Y004251D01*
X012374Y004265D01*
X012361Y004278D01*
X012347Y004288D01*
X012331Y004295D01*
X012314Y004299D01*
X012297Y004301D01*
X011697Y004301D01*
X011680Y004299D01*
X011663Y004295D01*
X011647Y004288D01*
X011633Y004278D01*
X011620Y004265D01*
X011610Y004251D01*
X011603Y004235D01*
X011599Y004218D01*
X011597Y004201D01*
X018497Y003801D02*
X018497Y003201D01*
X018499Y003184D01*
X018503Y003167D01*
X018510Y003151D01*
X018520Y003137D01*
X018533Y003124D01*
X018547Y003114D01*
X018563Y003107D01*
X018580Y003103D01*
X018597Y003101D01*
X019597Y003101D01*
X019614Y003103D01*
X019631Y003107D01*
X019647Y003114D01*
X019661Y003124D01*
X019674Y003137D01*
X019684Y003151D01*
X019691Y003167D01*
X019695Y003184D01*
X019697Y003201D01*
X019697Y003801D01*
X019695Y003818D01*
X019691Y003835D01*
X019684Y003851D01*
X019674Y003865D01*
X019661Y003878D01*
X019647Y003888D01*
X019631Y003895D01*
X019614Y003899D01*
X019597Y003901D01*
X018597Y003901D01*
X018580Y003899D01*
X018563Y003895D01*
X018547Y003888D01*
X018533Y003878D01*
X018520Y003865D01*
X018510Y003851D01*
X018503Y003835D01*
X018499Y003818D01*
X018497Y003801D01*
D92*
X017755Y005966D02*
X020039Y005966D01*
X020039Y009037D01*
X017755Y009037D01*
X017755Y005966D01*
D93*
X015218Y009926D02*
X015143Y009926D01*
X015068Y010001D01*
X015068Y010377D01*
X015143Y010377D02*
X014993Y010377D01*
X014832Y010226D02*
X014682Y010377D01*
X014682Y009926D01*
X014832Y009926D02*
X014532Y009926D01*
X015218Y009926D02*
X015293Y010001D01*
X013797Y010801D02*
X013797Y011351D01*
X013347Y011351D01*
X013347Y016701D01*
X018847Y016701D01*
X018847Y013971D01*
X018852Y013744D01*
X018868Y013517D01*
X018894Y013291D01*
X018930Y013066D01*
X018976Y012843D01*
X019032Y012623D01*
X019098Y012405D01*
X019175Y012191D01*
X019247Y011798D02*
X019247Y010801D01*
X013797Y010801D01*
X019247Y011798D02*
X019246Y011855D01*
X019241Y011913D01*
X019234Y011970D01*
X019223Y012026D01*
X019210Y012082D01*
X019194Y012137D01*
X019175Y012192D01*
D94*
X016097Y013726D03*
M02*
