%
M48
M72
T01C0.0120
T02C0.0236
T03C0.0315
T04C0.0320
T05C0.0350
T06C0.0360
T07C0.0400
%
T01
X4897Y9651
X17147Y12151
X4397Y17651
X18897Y4151
X5397Y18651
X17047Y11201
X14097Y11251
X13997Y15101
X13297Y6151
X10097Y6601
X7297Y5601
X5847Y3101
X2897Y11151
X7697Y8001
X14947Y16101
X12647Y7051
T02
X6647Y8801
X7797Y12751
X9547Y16276
X8897Y11551
X8797Y12751
X10447Y15351
X11597Y12751
X10797Y11081
X13297Y12371
X14447Y10851
X14947Y10851
X9797Y12751
X11297Y3401
X18147Y2951
X16097Y10851
X15597Y10851
X4947Y7751
X9297Y11151
X6847Y9901
X11097Y8551
X9747Y8801
X10897Y12751
X12097Y12811
X12097Y15751
X10197Y11151
X17197Y7701
X16567Y8431
X12077Y8621
X3017Y19071
X2397Y8251
X3247Y6501
X6506Y2892
X7547Y4751
X18247Y10901
X17597Y13501
X11297Y6351
X16767Y8931
X2547Y3001
X5397Y9501
X14347Y16901
X12847Y16851
X8597Y5251
X5447Y13201
X17427Y8161
X14347Y14151
X6047Y10851
X3797Y17051
X2207Y18401
X2247Y15401
X5797Y14651
X3597Y13451
X4297Y9601
X18297Y9601
T03
X2854Y7113
X3641Y7113
X4429Y7113
X5216Y7113
X6003Y7113
X6791Y7113
X7578Y7113
X8366Y7113
X9153Y7113
X9940Y7113
X9940Y15774
X9153Y15774
X8366Y15774
X7578Y15774
X6791Y15774
X6003Y15774
X5216Y15774
X4429Y15774
X3641Y15774
X2854Y15774
T04
X14147Y6551
X12247Y6551
X17347Y6151
X16347Y6151
T05
X17638Y15675
X17638Y12525
T06
X3597Y3751
X3597Y4751
X3597Y5751
X5297Y5751
X5297Y4751
X5297Y3751
T07
X1647Y18901
X1647Y17901
X1647Y16901
X1647Y15901
X1647Y14901
X1647Y13901
X1647Y7751
X1647Y8751
X1647Y9751
X1647Y10751
X1647Y11751
X1647Y12751
X1697Y6451
X1697Y5451
X6647Y1901
X7647Y1901
X8647Y1901
X9647Y1901
X10647Y1901
X11647Y1901
X12647Y1901
X13647Y1901
X14647Y1901
X15647Y1901
X16647Y1901
X17647Y1901
X18647Y1901
X19647Y1901
X19647Y18901
X18647Y18901
X17647Y18901
X16647Y18901
X15647Y18901
X14647Y18901
X13647Y18901
X12647Y18901
X11647Y18901
X10647Y18901
X9647Y18901
X8647Y18901
X7647Y18901
X6647Y18901
X19647Y17901
X18647Y17901
X17647Y17901
X16647Y17901
X15647Y17901
X14647Y17901
X13647Y17901
X12647Y17901
X11647Y17901
X10647Y17901
X9647Y17901
X8647Y17901
X7647Y17901
X6647Y17901
X6647Y901
X7647Y901
X8647Y901
X9647Y901
X10647Y901
X11647Y901
X12647Y901
X13647Y901
X14647Y901
X15647Y901
X16647Y901
X17647Y901
X18647Y901
X19647Y901
X1647Y901
X2647Y901
X3647Y901
X1647Y1901
X2647Y1901
X3647Y1901
X1747Y4351
X1747Y3201
M30
