G75*
G70*
%OFA0B0*%
%FSLAX24Y24*%
%IPPOS*%
%LPD*%
%AMOC8*
5,1,8,0,0,1.08239X$1,22.5*
%
%ADD10C,0.0000*%
%ADD11R,0.0030X0.0090*%
%ADD12R,0.0030X0.0030*%
%ADD13R,0.0030X0.0060*%
%ADD14R,0.0030X0.0150*%
%ADD15R,0.0030X0.0180*%
%ADD16R,0.0030X0.0210*%
%ADD17R,0.0030X0.0120*%
%ADD18R,0.0030X0.0240*%
%ADD19R,0.0030X0.0390*%
%ADD20R,0.0030X0.0570*%
%ADD21R,0.0030X0.0270*%
%ADD22R,0.0030X0.0330*%
%ADD23R,0.0030X0.0360*%
%ADD24R,0.0030X0.0300*%
%ADD25R,0.0030X0.0540*%
%ADD26R,0.0030X0.0420*%
%ADD27R,0.0030X0.0450*%
%ADD28R,0.0030X0.0480*%
%ADD29R,0.0030X0.0690*%
%ADD30R,0.0030X0.0720*%
%ADD31R,0.0030X0.0960*%
%ADD32R,0.0030X0.0840*%
%ADD33R,0.0030X0.0810*%
%ADD34R,0.0210X0.0030*%
%ADD35R,0.0090X0.0030*%
%ADD36R,0.0060X0.0030*%
%ADD37R,0.0120X0.0030*%
%ADD38R,0.0420X0.0030*%
%ADD39R,0.0300X0.0030*%
%ADD40R,0.0240X0.0030*%
%ADD41R,0.0150X0.0030*%
%ADD42R,0.0180X0.0030*%
%ADD43R,0.0360X0.0030*%
%ADD44R,0.1020X0.0030*%
%ADD45R,0.0390X0.0030*%
%ADD46R,0.0270X0.0030*%
%ADD47R,0.0330X0.0030*%
%ADD48R,0.0480X0.0030*%
%ADD49C,0.0030*%
%ADD50C,0.0040*%
%ADD51C,0.0020*%
%ADD52C,0.0080*%
%ADD53C,0.0060*%
D10*
X000897Y000806D02*
X000897Y020301D01*
X020382Y020291D01*
X020382Y000806D01*
X000897Y000806D01*
X018370Y013790D02*
X018372Y013816D01*
X018378Y013842D01*
X018388Y013867D01*
X018401Y013890D01*
X018417Y013910D01*
X018437Y013928D01*
X018459Y013943D01*
X018482Y013955D01*
X018508Y013963D01*
X018534Y013967D01*
X018560Y013967D01*
X018586Y013963D01*
X018612Y013955D01*
X018636Y013943D01*
X018657Y013928D01*
X018677Y013910D01*
X018693Y013890D01*
X018706Y013867D01*
X018716Y013842D01*
X018722Y013816D01*
X018724Y013790D01*
X018722Y013764D01*
X018716Y013738D01*
X018706Y013713D01*
X018693Y013690D01*
X018677Y013670D01*
X018657Y013652D01*
X018635Y013637D01*
X018612Y013625D01*
X018586Y013617D01*
X018560Y013613D01*
X018534Y013613D01*
X018508Y013617D01*
X018482Y013625D01*
X018458Y013637D01*
X018437Y013652D01*
X018417Y013670D01*
X018401Y013690D01*
X018388Y013713D01*
X018378Y013738D01*
X018372Y013764D01*
X018370Y013790D01*
X018370Y015522D02*
X018372Y015548D01*
X018378Y015574D01*
X018388Y015599D01*
X018401Y015622D01*
X018417Y015642D01*
X018437Y015660D01*
X018459Y015675D01*
X018482Y015687D01*
X018508Y015695D01*
X018534Y015699D01*
X018560Y015699D01*
X018586Y015695D01*
X018612Y015687D01*
X018636Y015675D01*
X018657Y015660D01*
X018677Y015642D01*
X018693Y015622D01*
X018706Y015599D01*
X018716Y015574D01*
X018722Y015548D01*
X018724Y015522D01*
X018722Y015496D01*
X018716Y015470D01*
X018706Y015445D01*
X018693Y015422D01*
X018677Y015402D01*
X018657Y015384D01*
X018635Y015369D01*
X018612Y015357D01*
X018586Y015349D01*
X018560Y015345D01*
X018534Y015345D01*
X018508Y015349D01*
X018482Y015357D01*
X018458Y015369D01*
X018437Y015384D01*
X018417Y015402D01*
X018401Y015422D01*
X018388Y015445D01*
X018378Y015470D01*
X018372Y015496D01*
X018370Y015522D01*
D11*
X010667Y014776D03*
X010067Y014116D03*
X010577Y013636D03*
X010697Y013726D03*
X009317Y014596D03*
X009107Y014626D03*
X009077Y014716D03*
X009047Y014806D03*
X009017Y014956D03*
X009257Y014866D03*
X008987Y014446D03*
X008927Y014236D03*
X008747Y014446D03*
X008267Y014626D03*
X008177Y014506D03*
X008027Y014776D03*
X007997Y014776D03*
X007847Y014746D03*
X007817Y014746D03*
X007697Y014716D03*
X007637Y014686D03*
X007547Y014626D03*
X007817Y013786D03*
X007607Y013726D03*
X007577Y013516D03*
X007547Y013516D03*
X007607Y013486D03*
X007697Y013456D03*
X007727Y013456D03*
X007817Y013426D03*
X007847Y013426D03*
X007907Y013396D03*
X007937Y013396D03*
X008027Y013396D03*
X008177Y013696D03*
X008327Y013486D03*
X008387Y013516D03*
X008627Y013876D03*
X008807Y013726D03*
X008807Y013576D03*
X008747Y013546D03*
X008957Y013786D03*
X008987Y013786D03*
X009137Y012946D03*
X008987Y012916D03*
X007367Y012826D03*
D12*
X007397Y012796D03*
X007427Y012796D03*
X007457Y012826D03*
X007547Y012886D03*
X007577Y012886D03*
X007607Y012916D03*
X007637Y012946D03*
X007667Y012946D03*
X007697Y012976D03*
X007727Y012976D03*
X007757Y012976D03*
X007817Y013006D03*
X007847Y013006D03*
X007877Y013036D03*
X007907Y013036D03*
X007937Y013066D03*
X007967Y013066D03*
X007997Y013096D03*
X008057Y013126D03*
X008117Y013156D03*
X008177Y013186D03*
X008207Y013216D03*
X008237Y013216D03*
X008267Y013246D03*
X008297Y013276D03*
X008327Y013306D03*
X008357Y013306D03*
X008387Y013336D03*
X008417Y013366D03*
X008447Y013366D03*
X008477Y013396D03*
X008507Y013426D03*
X008567Y013456D03*
X008597Y013456D03*
X008837Y013546D03*
X008897Y013576D03*
X008927Y013576D03*
X008897Y013636D03*
X008867Y013636D03*
X008927Y013666D03*
X008957Y013666D03*
X009317Y013696D03*
X009347Y013696D03*
X009377Y013696D03*
X009497Y013666D03*
X009587Y013666D03*
X009617Y013666D03*
X009647Y013666D03*
X009677Y013666D03*
X009737Y013636D03*
X009767Y013606D03*
X009887Y013486D03*
X009917Y013456D03*
X010037Y013456D03*
X010067Y013456D03*
X010097Y013456D03*
X010127Y013456D03*
X010187Y013486D03*
X010217Y013486D03*
X010247Y013516D03*
X010277Y013546D03*
X010307Y013576D03*
X010337Y013576D03*
X010367Y013606D03*
X010397Y013606D03*
X010427Y013606D03*
X010457Y013606D03*
X010487Y013576D03*
X010577Y013456D03*
X010607Y013426D03*
X010607Y013666D03*
X010637Y013666D03*
X010667Y013756D03*
X010457Y013846D03*
X010337Y013876D03*
X010247Y013906D03*
X010217Y013876D03*
X010187Y013846D03*
X010127Y013786D03*
X010097Y013756D03*
X010127Y013696D03*
X010157Y013696D03*
X010187Y013696D03*
X010247Y013726D03*
X010277Y013726D03*
X010307Y013726D03*
X010097Y013666D03*
X010067Y013666D03*
X010007Y013726D03*
X009977Y013726D03*
X009977Y013666D03*
X010157Y014206D03*
X010187Y014206D03*
X010277Y014386D03*
X010307Y014386D03*
X010247Y014416D03*
X010217Y014446D03*
X010157Y014476D03*
X010127Y014506D03*
X010097Y014536D03*
X010067Y014536D03*
X009947Y014536D03*
X009917Y014536D03*
X009887Y014506D03*
X009857Y014506D03*
X009857Y014596D03*
X009887Y014626D03*
X009917Y014656D03*
X009947Y014656D03*
X009977Y014686D03*
X010007Y014686D03*
X010037Y014716D03*
X010097Y014746D03*
X010157Y014776D03*
X010187Y014776D03*
X010217Y014806D03*
X010247Y014836D03*
X010307Y014866D03*
X010337Y014896D03*
X010247Y014986D03*
X010217Y014986D03*
X010157Y014956D03*
X010127Y014956D03*
X010097Y014956D03*
X010067Y014956D03*
X010037Y014926D03*
X010007Y014926D03*
X009947Y014896D03*
X009887Y014866D03*
X009827Y014836D03*
X009797Y014806D03*
X009767Y014776D03*
X009617Y014626D03*
X009587Y014596D03*
X009557Y014566D03*
X009467Y014536D03*
X009437Y014536D03*
X009407Y014536D03*
X009377Y014536D03*
X009347Y014566D03*
X009227Y014506D03*
X009197Y014506D03*
X009077Y014626D03*
X009047Y014626D03*
X009017Y014626D03*
X008987Y014626D03*
X008957Y014626D03*
X008927Y014656D03*
X008897Y014656D03*
X008867Y014656D03*
X008837Y014656D03*
X008807Y014686D03*
X008777Y014686D03*
X008747Y014686D03*
X008717Y014716D03*
X008687Y014746D03*
X008627Y014806D03*
X008567Y014836D03*
X008537Y014836D03*
X008507Y014866D03*
X008477Y014866D03*
X008447Y014896D03*
X008387Y014926D03*
X008327Y014956D03*
X008297Y014956D03*
X008267Y014986D03*
X008237Y014986D03*
X008177Y015016D03*
X008117Y015046D03*
X008087Y015046D03*
X008057Y015046D03*
X007997Y015076D03*
X007967Y015076D03*
X007937Y015076D03*
X007877Y015106D03*
X007847Y015136D03*
X007817Y015166D03*
X007727Y015286D03*
X007817Y014956D03*
X007847Y014926D03*
X007877Y014896D03*
X008057Y014926D03*
X008087Y014926D03*
X008147Y014746D03*
X008177Y014746D03*
X008207Y014746D03*
X008237Y014716D03*
X008267Y014716D03*
X008297Y014716D03*
X008327Y014806D03*
X008357Y014806D03*
X008447Y014776D03*
X008477Y014746D03*
X008207Y014656D03*
X008177Y014656D03*
X008147Y014656D03*
X008057Y014656D03*
X007787Y014476D03*
X007637Y014416D03*
X007607Y014386D03*
X007577Y014356D03*
X007547Y014326D03*
X007517Y014296D03*
X007487Y014266D03*
X007487Y013966D03*
X007517Y013936D03*
X007547Y013906D03*
X007577Y013876D03*
X007607Y013846D03*
X007757Y013786D03*
X007787Y013786D03*
X007877Y013576D03*
X007907Y013306D03*
X007937Y013306D03*
X007877Y013276D03*
X007847Y013276D03*
X007817Y013246D03*
X007787Y013246D03*
X007757Y013216D03*
X007727Y013186D03*
X007667Y013156D03*
X007637Y013126D03*
X007577Y013096D03*
X007547Y013066D03*
X007517Y013036D03*
X008177Y013306D03*
X008207Y013336D03*
X008987Y012736D03*
X009077Y012826D03*
X009647Y014206D03*
X009557Y014356D03*
X009167Y014836D03*
X009167Y015196D03*
X009017Y015496D03*
X008747Y014596D03*
X010277Y015016D03*
X010307Y015046D03*
X010367Y015136D03*
X010397Y015166D03*
X010427Y015166D03*
X010547Y014716D03*
X010487Y014626D03*
X010397Y014506D03*
X010367Y014476D03*
X010457Y014446D03*
X010397Y014356D03*
X006597Y014156D03*
X006597Y014126D03*
X006597Y014036D03*
X006327Y014126D03*
X006207Y014216D03*
X006177Y014276D03*
X006177Y014306D03*
X006177Y014336D03*
X006147Y014366D03*
X006057Y014426D03*
X006057Y014456D03*
X006027Y014486D03*
X005907Y014486D03*
X005997Y014606D03*
X006057Y014636D03*
X005697Y014576D03*
X005667Y014456D03*
X005667Y014426D03*
X005457Y014366D03*
X005427Y014396D03*
X005397Y014456D03*
X005397Y014486D03*
X005397Y014516D03*
X005397Y014546D03*
X005397Y014576D03*
X005247Y014186D03*
X005247Y014066D03*
X005727Y014066D03*
X006567Y015086D03*
D13*
X007727Y015031D03*
X007757Y015001D03*
X007787Y014971D03*
X007907Y014881D03*
X007787Y014731D03*
X007757Y014731D03*
X007727Y014731D03*
X007667Y014701D03*
X007727Y014491D03*
X007757Y014491D03*
X007817Y014461D03*
X008027Y014641D03*
X008057Y014761D03*
X008087Y014761D03*
X008117Y014761D03*
X008237Y014641D03*
X008357Y014941D03*
X008417Y014911D03*
X008597Y014821D03*
X008657Y014791D03*
X008687Y014611D03*
X008717Y014611D03*
X008687Y014491D03*
X008717Y014431D03*
X008807Y014461D03*
X008987Y014551D03*
X009137Y014491D03*
X009167Y014491D03*
X009497Y014551D03*
X009527Y014551D03*
X009647Y014641D03*
X009677Y014671D03*
X009707Y014701D03*
X009737Y014731D03*
X009857Y014851D03*
X009917Y014881D03*
X009977Y014911D03*
X010127Y014761D03*
X010277Y014851D03*
X010367Y014941D03*
X010397Y014971D03*
X010427Y015031D03*
X010457Y015121D03*
X010337Y015091D03*
X010187Y014971D03*
X010577Y014761D03*
X010607Y014791D03*
X010637Y014821D03*
X010637Y014701D03*
X010607Y014671D03*
X010577Y014611D03*
X010547Y014581D03*
X010517Y014521D03*
X010487Y014491D03*
X010427Y014551D03*
X010457Y014581D03*
X010517Y014671D03*
X010427Y014401D03*
X010337Y014431D03*
X010367Y014311D03*
X010337Y014251D03*
X010337Y014041D03*
X010367Y013981D03*
X010397Y013951D03*
X010427Y013891D03*
X010277Y013921D03*
X010157Y014071D03*
X010037Y014101D03*
X009917Y013741D03*
X009887Y013741D03*
X009947Y013711D03*
X010007Y013651D03*
X010037Y013651D03*
X009857Y013501D03*
X009827Y013531D03*
X009797Y013561D03*
X009707Y013651D03*
X009557Y013651D03*
X009527Y013651D03*
X009467Y013681D03*
X009437Y013681D03*
X009407Y013681D03*
X009287Y013681D03*
X008957Y013591D03*
X008867Y013561D03*
X008837Y013621D03*
X008837Y013741D03*
X008867Y013741D03*
X008897Y013741D03*
X008807Y013861D03*
X008777Y013861D03*
X008537Y013441D03*
X008357Y013501D03*
X008297Y013471D03*
X008267Y013471D03*
X008237Y013471D03*
X008207Y013441D03*
X008177Y013441D03*
X008147Y013441D03*
X008117Y013441D03*
X008087Y013411D03*
X008057Y013411D03*
X007877Y013411D03*
X007667Y013471D03*
X007637Y013471D03*
X007457Y013621D03*
X007577Y013711D03*
X007697Y013771D03*
X007727Y013771D03*
X008177Y014011D03*
X008237Y013351D03*
X008147Y013171D03*
X008087Y013141D03*
X008027Y013111D03*
X007697Y013171D03*
X007607Y013111D03*
X007487Y013021D03*
X007457Y012991D03*
X007427Y012961D03*
X007397Y012901D03*
X007487Y012841D03*
X007517Y012871D03*
X008957Y012781D03*
X009047Y012781D03*
X009107Y012871D03*
X009347Y014041D03*
X009797Y014551D03*
X010187Y014461D03*
X010667Y013681D03*
X010607Y013561D03*
X010547Y013501D03*
X010517Y013531D03*
X009227Y014971D03*
X009107Y015481D03*
X008207Y015001D03*
X008147Y015031D03*
X008027Y015061D03*
X007907Y015091D03*
X007787Y015241D03*
X007757Y015271D03*
D14*
X007577Y014626D03*
X007637Y014536D03*
X007877Y014446D03*
X007907Y014446D03*
X008177Y014296D03*
X008387Y014626D03*
X009047Y014476D03*
X009077Y014476D03*
X008807Y014086D03*
X008927Y013786D03*
X008987Y013636D03*
X009227Y013276D03*
X008537Y013576D03*
X008507Y013576D03*
X008177Y013876D03*
X007427Y014116D03*
X009137Y015286D03*
X009647Y014086D03*
D15*
X009707Y014101D03*
X009527Y014161D03*
X009497Y014191D03*
X009017Y014491D03*
X008657Y013561D03*
X007877Y013801D03*
X007577Y014101D03*
X007667Y014491D03*
X007937Y014791D03*
X007487Y013621D03*
X010127Y014131D03*
X010307Y014131D03*
D16*
X009677Y014116D03*
X009467Y014176D03*
X009377Y014116D03*
X008957Y014476D03*
X008927Y014476D03*
X008657Y014536D03*
X008507Y013786D03*
X007937Y013816D03*
X007907Y013816D03*
X007517Y013606D03*
X007607Y014626D03*
X009257Y013546D03*
D17*
X009167Y013561D03*
X009137Y013531D03*
X009047Y013741D03*
X008777Y013741D03*
X008777Y013561D03*
X008417Y013531D03*
X007997Y013381D03*
X007967Y013381D03*
X007787Y013441D03*
X007757Y013471D03*
X007547Y013681D03*
X007637Y013771D03*
X007667Y013771D03*
X007847Y013801D03*
X007787Y014071D03*
X007877Y014161D03*
X007697Y014491D03*
X007877Y014731D03*
X007907Y014731D03*
X007967Y014791D03*
X007547Y014131D03*
X008777Y014461D03*
X009107Y014491D03*
X009197Y015061D03*
X009827Y014551D03*
X009737Y014101D03*
X010097Y014131D03*
X010367Y013801D03*
X010637Y013471D03*
X009197Y013171D03*
X009167Y013051D03*
X009017Y013051D03*
D18*
X009407Y014131D03*
X009437Y014161D03*
X009287Y014731D03*
X007697Y015181D03*
D19*
X008087Y014356D03*
X007817Y014116D03*
X008207Y013846D03*
D20*
X008147Y014266D03*
X008117Y014266D03*
X007847Y014206D03*
X008657Y013966D03*
D21*
X008747Y013786D03*
X008387Y014386D03*
X008027Y014446D03*
X007937Y014476D03*
X007967Y013816D03*
X007997Y013816D03*
D22*
X008357Y013786D03*
X008387Y013786D03*
X008627Y013636D03*
X009017Y013666D03*
X009557Y014116D03*
X008597Y014506D03*
X008267Y014386D03*
X008057Y014416D03*
X007967Y014506D03*
D23*
X007997Y014491D03*
X008567Y014491D03*
X008297Y013831D03*
X008267Y013831D03*
X008237Y013831D03*
X008327Y013801D03*
X009617Y014161D03*
D24*
X008627Y014521D03*
X008237Y014371D03*
X008207Y014371D03*
X008027Y013831D03*
X008117Y013801D03*
X008147Y013801D03*
X008417Y013771D03*
D25*
X008567Y013771D03*
X008057Y013951D03*
D26*
X008087Y013891D03*
X008477Y013711D03*
X008447Y014491D03*
X009587Y014161D03*
D27*
X008837Y014056D03*
X008597Y013726D03*
X008447Y013696D03*
X008297Y014446D03*
X008417Y014476D03*
X008987Y015226D03*
D28*
X008357Y014491D03*
X008327Y014491D03*
D29*
X008477Y014326D03*
D30*
X008507Y014311D03*
D31*
X008537Y014191D03*
D32*
X008687Y013891D03*
D33*
X008717Y013906D03*
X008867Y014206D03*
X008897Y014206D03*
D34*
X006837Y015326D03*
X006417Y014816D03*
X005997Y014816D03*
X005427Y014876D03*
X005067Y014846D03*
X005067Y014816D03*
X004737Y014846D03*
X004497Y014846D03*
X004767Y014336D03*
X005457Y013946D03*
X006507Y014096D03*
D35*
X006057Y014366D03*
X005997Y014516D03*
X005967Y014546D03*
X005847Y014636D03*
X005667Y014966D03*
X005667Y014996D03*
X005667Y015026D03*
X005427Y015206D03*
X005097Y015356D03*
X005067Y015026D03*
X004797Y014546D03*
X004647Y014456D03*
X004647Y014396D03*
X004557Y014366D03*
X004527Y014396D03*
X004617Y014156D03*
X005067Y014366D03*
X005067Y014396D03*
X005037Y014426D03*
X005217Y014336D03*
X005307Y014246D03*
X005637Y013976D03*
X005697Y014006D03*
X006537Y014936D03*
X006507Y014966D03*
X006567Y015116D03*
X006327Y015116D03*
X006837Y015116D03*
X006837Y015086D03*
X006837Y015056D03*
X006837Y015026D03*
X006867Y015356D03*
X007167Y014966D03*
X004197Y014966D03*
X004197Y014936D03*
X004167Y014906D03*
X004197Y014996D03*
X004197Y015026D03*
X004197Y015056D03*
X004167Y015116D03*
X003897Y015086D03*
X003897Y014936D03*
X004137Y014456D03*
X004137Y014396D03*
X004107Y014156D03*
D36*
X004122Y014426D03*
X004272Y014546D03*
X004572Y014336D03*
X004632Y014426D03*
X005082Y014336D03*
X005262Y014216D03*
X005232Y014156D03*
X005232Y014126D03*
X005232Y014096D03*
X005262Y014036D03*
X005292Y014006D03*
X005322Y013976D03*
X005622Y014126D03*
X005622Y014156D03*
X005622Y014186D03*
X005622Y014216D03*
X005622Y014246D03*
X005652Y014366D03*
X005652Y014396D03*
X005682Y014486D03*
X005682Y014516D03*
X005682Y014546D03*
X005442Y014636D03*
X005412Y014606D03*
X005982Y014576D03*
X005982Y014276D03*
X006192Y014246D03*
X006222Y014186D03*
X006462Y014066D03*
X006492Y014036D03*
X006552Y014006D03*
X007152Y014996D03*
D37*
X007152Y014936D03*
X007152Y014906D03*
X007122Y014876D03*
X006882Y014906D03*
X006852Y014936D03*
X006852Y014966D03*
X006852Y014996D03*
X006822Y015146D03*
X006822Y015176D03*
X006552Y014906D03*
X006312Y014936D03*
X006312Y014966D03*
X006312Y015056D03*
X006312Y015086D03*
X006342Y015146D03*
X006012Y015146D03*
X006012Y015116D03*
X006012Y015086D03*
X006012Y015056D03*
X006012Y015026D03*
X006012Y014996D03*
X006012Y014966D03*
X006012Y015176D03*
X006012Y015206D03*
X006012Y015236D03*
X006012Y015266D03*
X006012Y015296D03*
X005682Y015206D03*
X005682Y015146D03*
X005682Y015116D03*
X005682Y015086D03*
X005682Y015056D03*
X005652Y014936D03*
X005652Y014906D03*
X005652Y014876D03*
X005412Y014936D03*
X005412Y014966D03*
X005412Y014996D03*
X005412Y015026D03*
X005412Y015056D03*
X005412Y015086D03*
X005412Y015116D03*
X005442Y015176D03*
X005112Y015176D03*
X005082Y015116D03*
X005082Y015086D03*
X005082Y015056D03*
X005082Y014996D03*
X005082Y014966D03*
X004752Y014966D03*
X004752Y014936D03*
X004752Y014996D03*
X004752Y015026D03*
X004482Y015026D03*
X004482Y014996D03*
X004482Y014966D03*
X004482Y014936D03*
X004482Y015056D03*
X004482Y015086D03*
X004482Y015116D03*
X004182Y015086D03*
X003912Y015116D03*
X003882Y015056D03*
X003882Y015026D03*
X003882Y014996D03*
X003882Y014966D03*
X003912Y014906D03*
X004182Y014366D03*
X004122Y014066D03*
X004482Y014186D03*
X004512Y014216D03*
X004542Y014246D03*
X004512Y014426D03*
X004482Y014456D03*
X004692Y014366D03*
X004992Y014456D03*
X005082Y014246D03*
X005052Y014216D03*
X004992Y014186D03*
X004632Y014066D03*
X005502Y014666D03*
X006012Y014306D03*
X006042Y014336D03*
X006102Y014396D03*
X006522Y014186D03*
X005712Y014036D03*
X005082Y015326D03*
D38*
X004752Y014126D03*
X004242Y014126D03*
X006792Y014066D03*
D39*
X007002Y014846D03*
X005532Y014306D03*
X004692Y014096D03*
X004182Y014096D03*
D40*
X004632Y015206D03*
X005622Y014696D03*
X005562Y014336D03*
X006372Y014156D03*
D41*
X006537Y014876D03*
X006297Y014906D03*
X005997Y014906D03*
X005997Y014876D03*
X005997Y014936D03*
X005697Y015176D03*
X005427Y015146D03*
X005097Y015146D03*
X005067Y014936D03*
X005067Y014906D03*
X005067Y014876D03*
X004737Y014876D03*
X004737Y014906D03*
X004737Y015056D03*
X004737Y015086D03*
X004467Y014906D03*
X004137Y014876D03*
X003957Y014876D03*
X004047Y015206D03*
X004257Y014336D03*
X004947Y014156D03*
X005367Y014276D03*
X005607Y014276D03*
X006537Y015146D03*
X006447Y015206D03*
X006837Y015206D03*
X006837Y015236D03*
X006837Y015266D03*
X006897Y014876D03*
X006027Y015326D03*
X006027Y015356D03*
D42*
X006342Y015026D03*
X006312Y014876D03*
X006012Y014846D03*
X005772Y014666D03*
X005412Y014906D03*
X004722Y015116D03*
X004482Y014876D03*
X004032Y014816D03*
X004422Y014156D03*
X006822Y015296D03*
X007002Y014816D03*
D43*
X006402Y014846D03*
X005052Y014276D03*
X004812Y014486D03*
X004542Y014276D03*
D44*
X004752Y014306D03*
D45*
X004287Y014486D03*
X004647Y015146D03*
X004647Y015176D03*
X005487Y014846D03*
D46*
X004797Y014516D03*
X004287Y014516D03*
X004047Y014846D03*
X006387Y014996D03*
X006447Y015176D03*
D47*
X005457Y014816D03*
X004047Y015146D03*
D48*
X004602Y014816D03*
D49*
X004549Y013942D02*
X004672Y013942D01*
X004734Y013880D01*
X004855Y013818D02*
X004979Y013571D01*
X005102Y013818D01*
X004734Y013571D02*
X004487Y013818D01*
X004487Y013880D01*
X004549Y013942D01*
X004365Y013633D02*
X004304Y013633D01*
X004304Y013571D01*
X004365Y013571D01*
X004365Y013633D01*
X004487Y013571D02*
X004734Y013571D01*
X004181Y013633D02*
X003934Y013880D01*
X003934Y013633D01*
X003996Y013571D01*
X004120Y013571D01*
X004181Y013633D01*
X004181Y013880D01*
X004120Y013942D01*
X003996Y013942D01*
X003934Y013880D01*
X003899Y012962D02*
X003899Y012720D01*
X003948Y012671D01*
X004044Y012671D01*
X004093Y012720D01*
X004093Y012962D01*
X004194Y012913D02*
X004242Y012962D01*
X004339Y012962D01*
X004387Y012913D01*
X004387Y012720D01*
X004339Y012671D01*
X004242Y012671D01*
X004194Y012720D01*
X004194Y012913D01*
X004489Y012913D02*
X004489Y012720D01*
X004537Y012671D01*
X004682Y012671D01*
X004682Y012962D01*
X004537Y012962D01*
X004489Y012913D01*
X003798Y012962D02*
X003605Y012962D01*
X003701Y012962D02*
X003701Y012671D01*
X003512Y012292D02*
X003561Y012243D01*
X003561Y012195D01*
X003512Y012146D01*
X003415Y012146D01*
X003367Y012098D01*
X003367Y012050D01*
X003415Y012001D01*
X003512Y012001D01*
X003561Y012050D01*
X003512Y012292D02*
X003415Y012292D01*
X003367Y012243D01*
X003169Y012292D02*
X003072Y012292D01*
X003121Y012292D02*
X003121Y012050D01*
X003169Y012001D01*
X003218Y012001D01*
X003266Y012050D01*
X002971Y012001D02*
X002778Y012001D01*
X002875Y012001D02*
X002875Y012292D01*
X002971Y012195D01*
X002677Y012195D02*
X002580Y012292D01*
X002580Y012001D01*
X002677Y012001D02*
X002483Y012001D01*
X003444Y011662D02*
X003637Y011371D01*
X003739Y011371D02*
X003835Y011468D01*
X003787Y011468D02*
X003932Y011468D01*
X003932Y011371D02*
X003932Y011662D01*
X003787Y011662D01*
X003739Y011613D01*
X003739Y011516D01*
X003787Y011468D01*
X003637Y011662D02*
X003444Y011371D01*
X004394Y011371D02*
X004587Y011662D01*
X004689Y011662D02*
X004882Y011662D01*
X004785Y011662D02*
X004785Y011371D01*
X004587Y011371D02*
X004394Y011662D01*
X005244Y011662D02*
X005437Y011371D01*
X005244Y011371D02*
X005437Y011662D01*
X005539Y011662D02*
X005732Y011662D01*
X005635Y011662D02*
X005635Y011371D01*
X006146Y010892D02*
X006146Y010521D01*
X006208Y010521D02*
X006084Y010521D01*
X005962Y010583D02*
X005901Y010521D01*
X005777Y010521D01*
X005716Y010583D01*
X005716Y010706D01*
X005777Y010768D01*
X005901Y010768D01*
X005962Y010706D01*
X005962Y010583D01*
X006146Y010892D02*
X006208Y010892D01*
X006391Y010768D02*
X006329Y010706D01*
X006329Y010645D01*
X006576Y010645D01*
X006576Y010706D02*
X006515Y010768D01*
X006391Y010768D01*
X006576Y010706D02*
X006576Y010583D01*
X006515Y010521D01*
X006391Y010521D01*
X006698Y010521D02*
X006945Y010521D01*
X006945Y010892D01*
X007434Y010706D02*
X007434Y010521D01*
X007434Y010706D02*
X007496Y010768D01*
X007681Y010768D01*
X007681Y010521D01*
X007803Y010645D02*
X008049Y010645D01*
X008049Y010706D02*
X007988Y010768D01*
X007864Y010768D01*
X007803Y010706D01*
X007803Y010645D01*
X007864Y010521D02*
X007988Y010521D01*
X008049Y010583D01*
X008049Y010706D01*
X008233Y010768D02*
X008233Y010521D01*
X008172Y010521D02*
X008295Y010521D01*
X008417Y010521D02*
X008479Y010583D01*
X008479Y010830D01*
X008540Y010768D02*
X008417Y010768D01*
X008295Y010768D02*
X008233Y010768D01*
X008233Y010892D02*
X008233Y010953D01*
X008662Y010768D02*
X008847Y010768D01*
X008909Y010706D01*
X008847Y010645D01*
X008724Y010645D01*
X008662Y010583D01*
X008724Y010521D01*
X008909Y010521D01*
X009030Y010521D02*
X009030Y010706D01*
X009092Y010768D01*
X009215Y010768D01*
X009215Y010645D02*
X009030Y010645D01*
X009030Y010521D02*
X009215Y010521D01*
X009277Y010583D01*
X009215Y010645D01*
X009399Y010706D02*
X009460Y010768D01*
X009645Y010768D01*
X009645Y010892D02*
X009645Y010521D01*
X009460Y010521D01*
X009399Y010583D01*
X009399Y010706D01*
X009767Y010706D02*
X009767Y010645D01*
X010014Y010645D01*
X010014Y010706D02*
X009952Y010768D01*
X009829Y010768D01*
X009767Y010706D01*
X009829Y010521D02*
X009952Y010521D01*
X010014Y010583D01*
X010014Y010706D01*
X010135Y010645D02*
X010135Y010583D01*
X010197Y010521D01*
X010320Y010521D01*
X010382Y010583D01*
X010320Y010706D02*
X010197Y010706D01*
X010135Y010645D01*
X010135Y010830D02*
X010197Y010892D01*
X010320Y010892D01*
X010382Y010830D01*
X010382Y010768D01*
X010320Y010706D01*
X010683Y010493D02*
X010732Y010542D01*
X010828Y010542D01*
X010877Y010493D01*
X010683Y010493D02*
X010683Y010445D01*
X010877Y010251D01*
X010683Y010251D01*
X010978Y010251D02*
X011171Y010251D01*
X011075Y010251D02*
X011075Y010542D01*
X011171Y010445D01*
X011272Y010493D02*
X011272Y010396D01*
X011321Y010348D01*
X011466Y010348D01*
X011466Y010251D02*
X011466Y010542D01*
X011321Y010542D01*
X011272Y010493D01*
X011369Y010348D02*
X011272Y010251D01*
X011633Y010251D02*
X011827Y010251D01*
X011730Y010251D02*
X011730Y010542D01*
X011827Y010445D01*
X011928Y010251D02*
X012121Y010251D01*
X012025Y010251D02*
X012025Y010542D01*
X012121Y010445D01*
X012222Y010493D02*
X012222Y010396D01*
X012271Y010348D01*
X012416Y010348D01*
X012416Y010251D02*
X012416Y010542D01*
X012271Y010542D01*
X012222Y010493D01*
X012319Y010348D02*
X012222Y010251D01*
X012683Y010300D02*
X012732Y010251D01*
X012828Y010251D01*
X012877Y010300D01*
X012683Y010493D01*
X012683Y010300D01*
X012683Y010493D02*
X012732Y010542D01*
X012828Y010542D01*
X012877Y010493D01*
X012877Y010300D01*
X012978Y010251D02*
X013171Y010251D01*
X013075Y010251D02*
X013075Y010542D01*
X013171Y010445D01*
X013272Y010493D02*
X013272Y010396D01*
X013321Y010348D01*
X013466Y010348D01*
X013466Y010251D02*
X013466Y010542D01*
X013321Y010542D01*
X013272Y010493D01*
X013369Y010348D02*
X013272Y010251D01*
X013833Y010300D02*
X013882Y010251D01*
X013978Y010251D01*
X014027Y010300D01*
X014128Y010251D02*
X014225Y010348D01*
X014176Y010348D02*
X014321Y010348D01*
X014321Y010251D02*
X014321Y010542D01*
X014176Y010542D01*
X014128Y010493D01*
X014128Y010396D01*
X014176Y010348D01*
X014027Y010493D02*
X013978Y010542D01*
X013882Y010542D01*
X013833Y010493D01*
X013833Y010445D01*
X013882Y010396D01*
X013833Y010348D01*
X013833Y010300D01*
X013882Y010396D02*
X013930Y010396D01*
X014833Y010396D02*
X014978Y010396D01*
X015027Y010445D01*
X015027Y010493D01*
X014978Y010542D01*
X014882Y010542D01*
X014833Y010493D01*
X014833Y010300D01*
X014882Y010251D01*
X014978Y010251D01*
X015027Y010300D01*
X015128Y010251D02*
X015225Y010348D01*
X015176Y010348D02*
X015321Y010348D01*
X015321Y010251D02*
X015321Y010542D01*
X015176Y010542D01*
X015128Y010493D01*
X015128Y010396D01*
X015176Y010348D01*
X015833Y010348D02*
X015833Y010300D01*
X015882Y010251D01*
X015978Y010251D01*
X016027Y010300D01*
X016027Y010348D01*
X015978Y010396D01*
X015882Y010396D01*
X015833Y010348D01*
X015882Y010396D02*
X015833Y010445D01*
X015833Y010493D01*
X015882Y010542D01*
X015978Y010542D01*
X016027Y010493D01*
X016027Y010445D01*
X015978Y010396D01*
X016128Y010396D02*
X016176Y010348D01*
X016321Y010348D01*
X016225Y010348D02*
X016128Y010251D01*
X016128Y010396D02*
X016128Y010493D01*
X016176Y010542D01*
X016321Y010542D01*
X016321Y010251D01*
X016037Y009220D02*
X016037Y009027D01*
X016182Y009172D01*
X015892Y009172D01*
X015940Y008925D02*
X015892Y008877D01*
X015892Y008780D01*
X015940Y008732D01*
X016134Y008732D01*
X016182Y008780D01*
X016182Y008877D01*
X016134Y008925D01*
X016134Y008631D02*
X016037Y008631D01*
X015989Y008582D01*
X015989Y008437D01*
X015892Y008437D02*
X016182Y008437D01*
X016182Y008582D01*
X016134Y008631D01*
X015989Y008534D02*
X015892Y008631D01*
X015182Y008582D02*
X015182Y008437D01*
X014892Y008437D01*
X014989Y008437D02*
X014989Y008582D01*
X015037Y008631D01*
X015134Y008631D01*
X015182Y008582D01*
X015134Y008732D02*
X014940Y008732D01*
X014892Y008780D01*
X014892Y008877D01*
X014940Y008925D01*
X014940Y009027D02*
X014892Y009075D01*
X014892Y009172D01*
X014940Y009220D01*
X015037Y009220D01*
X015085Y009172D01*
X015085Y009123D01*
X015037Y009027D01*
X015182Y009027D01*
X015182Y009220D01*
X015134Y008925D02*
X015182Y008877D01*
X015182Y008780D01*
X015134Y008732D01*
X014989Y008534D02*
X014892Y008631D01*
X014182Y008582D02*
X014182Y008437D01*
X013892Y008437D01*
X013989Y008437D02*
X013989Y008582D01*
X014037Y008631D01*
X014134Y008631D01*
X014182Y008582D01*
X014134Y008732D02*
X013940Y008732D01*
X013892Y008780D01*
X013892Y008877D01*
X013940Y008925D01*
X013940Y009027D02*
X013892Y009075D01*
X013892Y009172D01*
X013940Y009220D01*
X013989Y009220D01*
X014037Y009172D01*
X014037Y009027D01*
X013940Y009027D01*
X014037Y009027D02*
X014134Y009123D01*
X014182Y009220D01*
X014134Y008925D02*
X014182Y008877D01*
X014182Y008780D01*
X014134Y008732D01*
X013989Y008534D02*
X013892Y008631D01*
X013182Y008582D02*
X013182Y008437D01*
X012892Y008437D01*
X012989Y008437D02*
X012989Y008582D01*
X013037Y008631D01*
X013134Y008631D01*
X013182Y008582D01*
X013134Y008732D02*
X012940Y008732D01*
X012892Y008780D01*
X012892Y008877D01*
X012940Y008925D01*
X012940Y009027D02*
X012892Y009027D01*
X012940Y009027D02*
X013134Y009220D01*
X013182Y009220D01*
X013182Y009027D01*
X013134Y008925D02*
X013182Y008877D01*
X013182Y008780D01*
X013134Y008732D01*
X012989Y008534D02*
X012892Y008631D01*
X012182Y008582D02*
X012182Y008437D01*
X011892Y008437D01*
X011989Y008437D02*
X011989Y008582D01*
X012037Y008631D01*
X012134Y008631D01*
X012182Y008582D01*
X012182Y008732D02*
X012182Y008877D01*
X012134Y008925D01*
X012085Y008925D01*
X012037Y008877D01*
X012037Y008732D01*
X011892Y008732D02*
X011892Y008877D01*
X011940Y008925D01*
X011989Y008925D01*
X012037Y008877D01*
X011940Y009027D02*
X012134Y009220D01*
X011940Y009220D01*
X011892Y009172D01*
X011892Y009075D01*
X011940Y009027D01*
X012134Y009027D01*
X012182Y009075D01*
X012182Y009172D01*
X012134Y009220D01*
X012182Y008732D02*
X011892Y008732D01*
X011892Y008631D02*
X011989Y008534D01*
X011182Y008582D02*
X011182Y008437D01*
X010892Y008437D01*
X010989Y008437D02*
X010989Y008582D01*
X011037Y008631D01*
X011134Y008631D01*
X011182Y008582D01*
X011182Y008732D02*
X010892Y008732D01*
X010892Y008877D01*
X010940Y008925D01*
X010989Y008925D01*
X011037Y008877D01*
X011037Y008732D01*
X011037Y008877D02*
X011085Y008925D01*
X011134Y008925D01*
X011182Y008877D01*
X011182Y008732D01*
X010989Y008534D02*
X010892Y008631D01*
X010892Y009027D02*
X010892Y009220D01*
X010892Y009123D02*
X011182Y009123D01*
X011085Y009027D01*
X010382Y009821D02*
X010135Y010068D01*
X010135Y010130D01*
X010197Y010192D01*
X010320Y010192D01*
X010382Y010130D01*
X010382Y009821D02*
X010135Y009821D01*
X010014Y009883D02*
X009767Y010130D01*
X009767Y009883D01*
X009829Y009821D01*
X009952Y009821D01*
X010014Y009883D01*
X010014Y010130D01*
X009952Y010192D01*
X009829Y010192D01*
X009767Y010130D01*
X009645Y010068D02*
X009522Y010192D01*
X009522Y009821D01*
X009645Y009821D02*
X009399Y009821D01*
X009277Y009821D02*
X009030Y009821D01*
X009154Y009821D02*
X009154Y010192D01*
X009277Y010068D01*
X008909Y010006D02*
X008662Y010006D01*
X008540Y009883D02*
X008540Y010130D01*
X008479Y010192D01*
X008355Y010192D01*
X008294Y010130D01*
X008540Y009883D01*
X008479Y009821D01*
X008355Y009821D01*
X008294Y009883D01*
X008294Y010130D01*
X008172Y010006D02*
X007925Y010006D01*
X007804Y010006D02*
X007557Y010006D01*
X007436Y010068D02*
X007312Y010192D01*
X007312Y009821D01*
X007189Y009821D02*
X007436Y009821D01*
X007067Y010006D02*
X006820Y010006D01*
X006882Y009821D02*
X006882Y010192D01*
X007067Y010006D01*
X007987Y009821D02*
X007987Y010192D01*
X008172Y010006D01*
X006682Y011371D02*
X006682Y011662D01*
X006537Y011662D01*
X006489Y011613D01*
X006489Y011516D01*
X006537Y011468D01*
X006682Y011468D01*
X006585Y011468D02*
X006489Y011371D01*
X006387Y011371D02*
X006194Y011662D01*
X006387Y011662D02*
X006194Y011371D01*
X006653Y012021D02*
X006750Y012021D01*
X006798Y012070D01*
X006605Y012263D01*
X006605Y012070D01*
X006653Y012021D01*
X006798Y012070D02*
X006798Y012263D01*
X006750Y012312D01*
X006653Y012312D01*
X006605Y012263D01*
X006996Y012312D02*
X006996Y012021D01*
X007093Y012021D02*
X006899Y012021D01*
X007093Y012215D02*
X006996Y012312D01*
X007194Y012312D02*
X007291Y012312D01*
X007242Y012312D02*
X007242Y012070D01*
X007291Y012021D01*
X007339Y012021D01*
X007387Y012070D01*
X007489Y012070D02*
X007537Y012021D01*
X007634Y012021D01*
X007682Y012070D01*
X007634Y012166D02*
X007682Y012215D01*
X007682Y012263D01*
X007634Y012312D01*
X007537Y012312D01*
X007489Y012263D01*
X007537Y012166D02*
X007489Y012118D01*
X007489Y012070D01*
X007537Y012166D02*
X007634Y012166D01*
X007232Y012637D02*
X007232Y012782D01*
X007184Y012831D01*
X007087Y012831D01*
X007039Y012782D01*
X007039Y012637D01*
X006942Y012637D02*
X007232Y012637D01*
X007039Y012734D02*
X006942Y012831D01*
X006942Y012932D02*
X006942Y013077D01*
X006990Y013125D01*
X007039Y013125D01*
X007087Y013077D01*
X007087Y012932D01*
X006942Y012932D02*
X007232Y012932D01*
X007232Y013077D01*
X007184Y013125D01*
X007135Y013125D01*
X007087Y013077D01*
X006990Y013227D02*
X006942Y013227D01*
X006990Y013227D02*
X007184Y013420D01*
X007232Y013420D01*
X007232Y013227D01*
X008042Y013275D02*
X008042Y013372D01*
X008090Y013420D01*
X008139Y013420D01*
X008187Y013372D01*
X008187Y013227D01*
X008090Y013227D01*
X008042Y013275D01*
X008187Y013227D02*
X008284Y013323D01*
X008332Y013420D01*
X008284Y013125D02*
X008235Y013125D01*
X008187Y013077D01*
X008187Y012932D01*
X008187Y012831D02*
X008139Y012782D01*
X008139Y012637D01*
X008042Y012637D02*
X008332Y012637D01*
X008332Y012782D01*
X008284Y012831D01*
X008187Y012831D01*
X008139Y012734D02*
X008042Y012831D01*
X008042Y012932D02*
X008042Y013077D01*
X008090Y013125D01*
X008139Y013125D01*
X008187Y013077D01*
X008284Y013125D02*
X008332Y013077D01*
X008332Y012932D01*
X008042Y012932D01*
X009042Y012932D02*
X009042Y013077D01*
X009090Y013125D01*
X009139Y013125D01*
X009187Y013077D01*
X009187Y012932D01*
X009187Y012831D02*
X009139Y012782D01*
X009139Y012637D01*
X009042Y012637D02*
X009332Y012637D01*
X009332Y012782D01*
X009284Y012831D01*
X009187Y012831D01*
X009139Y012734D02*
X009042Y012831D01*
X009042Y012932D02*
X009332Y012932D01*
X009332Y013077D01*
X009284Y013125D01*
X009235Y013125D01*
X009187Y013077D01*
X009187Y013227D02*
X009235Y013323D01*
X009235Y013372D01*
X009187Y013420D01*
X009090Y013420D01*
X009042Y013372D01*
X009042Y013275D01*
X009090Y013227D01*
X009187Y013227D02*
X009332Y013227D01*
X009332Y013420D01*
X010042Y013372D02*
X010332Y013372D01*
X010187Y013227D01*
X010187Y013420D01*
X010139Y013125D02*
X010090Y013125D01*
X010042Y013077D01*
X010042Y012932D01*
X010332Y012932D01*
X010332Y013077D01*
X010284Y013125D01*
X010235Y013125D01*
X010187Y013077D01*
X010187Y012932D01*
X010187Y012831D02*
X010139Y012782D01*
X010139Y012637D01*
X010042Y012637D02*
X010332Y012637D01*
X010332Y012782D01*
X010284Y012831D01*
X010187Y012831D01*
X010139Y012734D02*
X010042Y012831D01*
X010187Y013077D02*
X010139Y013125D01*
X011092Y013077D02*
X011092Y012932D01*
X011382Y012932D01*
X011382Y013077D01*
X011334Y013125D01*
X011285Y013125D01*
X011237Y013077D01*
X011237Y012932D01*
X011237Y012831D02*
X011189Y012782D01*
X011189Y012637D01*
X011092Y012637D02*
X011382Y012637D01*
X011382Y012782D01*
X011334Y012831D01*
X011237Y012831D01*
X011189Y012734D02*
X011092Y012831D01*
X011092Y013077D02*
X011140Y013125D01*
X011189Y013125D01*
X011237Y013077D01*
X011140Y013227D02*
X011092Y013275D01*
X011092Y013372D01*
X011140Y013420D01*
X011189Y013420D01*
X011237Y013372D01*
X011237Y013323D01*
X011237Y013372D02*
X011285Y013420D01*
X011334Y013420D01*
X011382Y013372D01*
X011382Y013275D01*
X011334Y013227D01*
X012342Y013277D02*
X012535Y013470D01*
X012584Y013470D01*
X012632Y013422D01*
X012632Y013325D01*
X012584Y013277D01*
X012584Y013175D02*
X012535Y013175D01*
X012487Y013127D01*
X012487Y012982D01*
X012487Y012881D02*
X012439Y012832D01*
X012439Y012687D01*
X012342Y012687D02*
X012632Y012687D01*
X012632Y012832D01*
X012584Y012881D01*
X012487Y012881D01*
X012439Y012784D02*
X012342Y012881D01*
X012342Y012982D02*
X012342Y013127D01*
X012390Y013175D01*
X012439Y013175D01*
X012487Y013127D01*
X012584Y013175D02*
X012632Y013127D01*
X012632Y012982D01*
X012342Y012982D01*
X012342Y013277D02*
X012342Y013470D01*
X012289Y014471D02*
X012385Y014568D01*
X012337Y014568D02*
X012482Y014568D01*
X012482Y014471D02*
X012482Y014762D01*
X012337Y014762D01*
X012289Y014713D01*
X012289Y014616D01*
X012337Y014568D01*
X012187Y014471D02*
X011994Y014471D01*
X012091Y014471D02*
X012091Y014762D01*
X012187Y014665D01*
X011893Y014713D02*
X011844Y014762D01*
X011748Y014762D01*
X011699Y014713D01*
X011699Y014665D01*
X011748Y014616D01*
X011699Y014568D01*
X011699Y014520D01*
X011748Y014471D01*
X011844Y014471D01*
X011893Y014520D01*
X011796Y014616D02*
X011748Y014616D01*
X011482Y014568D02*
X011337Y014568D01*
X011289Y014616D01*
X011289Y014713D01*
X011337Y014762D01*
X011482Y014762D01*
X011482Y014471D01*
X011385Y014568D02*
X011289Y014471D01*
X011187Y014471D02*
X010994Y014471D01*
X011091Y014471D02*
X011091Y014762D01*
X011187Y014665D01*
X010893Y014616D02*
X010699Y014616D01*
X010748Y014471D02*
X010748Y014762D01*
X010893Y014616D01*
X010482Y014568D02*
X010337Y014568D01*
X010289Y014616D01*
X010289Y014713D01*
X010337Y014762D01*
X010482Y014762D01*
X010482Y014471D01*
X010385Y014568D02*
X010289Y014471D01*
X010187Y014471D02*
X009994Y014471D01*
X010091Y014471D02*
X010091Y014762D01*
X010187Y014665D01*
X009893Y014616D02*
X009796Y014665D01*
X009748Y014665D01*
X009699Y014616D01*
X009699Y014520D01*
X009748Y014471D01*
X009844Y014471D01*
X009893Y014520D01*
X009893Y014616D02*
X009893Y014762D01*
X009699Y014762D01*
X009482Y014762D02*
X009482Y014471D01*
X009482Y014568D02*
X009337Y014568D01*
X009289Y014616D01*
X009289Y014713D01*
X009337Y014762D01*
X009482Y014762D01*
X009385Y014568D02*
X009289Y014471D01*
X009187Y014471D02*
X008994Y014471D01*
X009091Y014471D02*
X009091Y014762D01*
X009187Y014665D01*
X008893Y014616D02*
X008893Y014520D01*
X008844Y014471D01*
X008748Y014471D01*
X008699Y014520D01*
X008699Y014568D01*
X008748Y014616D01*
X008893Y014616D01*
X008796Y014713D01*
X008699Y014762D01*
X008482Y014762D02*
X008482Y014471D01*
X008482Y014568D02*
X008337Y014568D01*
X008289Y014616D01*
X008289Y014713D01*
X008337Y014762D01*
X008482Y014762D01*
X008385Y014568D02*
X008289Y014471D01*
X008187Y014471D02*
X007994Y014471D01*
X008091Y014471D02*
X008091Y014762D01*
X008187Y014665D01*
X007893Y014762D02*
X007699Y014762D01*
X007699Y014713D01*
X007893Y014520D01*
X007893Y014471D01*
X007482Y014471D02*
X007482Y014762D01*
X007337Y014762D01*
X007289Y014713D01*
X007289Y014616D01*
X007337Y014568D01*
X007482Y014568D01*
X007385Y014568D02*
X007289Y014471D01*
X007187Y014471D02*
X006994Y014471D01*
X007091Y014471D02*
X007091Y014762D01*
X007187Y014665D01*
X006893Y014665D02*
X006893Y014713D01*
X006844Y014762D01*
X006748Y014762D01*
X006699Y014713D01*
X006699Y014665D01*
X006748Y014616D01*
X006844Y014616D01*
X006893Y014665D01*
X006844Y014616D02*
X006893Y014568D01*
X006893Y014520D01*
X006844Y014471D01*
X006748Y014471D01*
X006699Y014520D01*
X006699Y014568D01*
X006748Y014616D01*
X006382Y012962D02*
X006237Y012962D01*
X006189Y012913D01*
X006189Y012720D01*
X006237Y012671D01*
X006382Y012671D01*
X006382Y012962D01*
X006087Y012962D02*
X005991Y012962D01*
X006039Y012962D02*
X006039Y012671D01*
X006087Y012671D02*
X005991Y012671D01*
X005891Y012671D02*
X005891Y012962D01*
X005697Y012671D01*
X005697Y012962D01*
X005594Y010768D02*
X005409Y010768D01*
X005347Y010706D01*
X005347Y010521D01*
X005226Y010583D02*
X005164Y010521D01*
X004979Y010521D01*
X004979Y010460D02*
X004979Y010768D01*
X005164Y010768D01*
X005226Y010706D01*
X005226Y010583D01*
X005102Y010398D02*
X005041Y010398D01*
X004979Y010460D01*
X005594Y010521D02*
X005594Y010768D01*
X010262Y006456D02*
X010262Y006359D01*
X010310Y006311D01*
X010407Y006311D02*
X010455Y006407D01*
X010455Y006456D01*
X010407Y006504D01*
X010310Y006504D01*
X010262Y006456D01*
X010407Y006311D02*
X010552Y006311D01*
X010552Y006504D01*
X010455Y006209D02*
X010262Y006209D01*
X010407Y006209D02*
X010407Y006016D01*
X010455Y006016D02*
X010262Y006016D01*
X010262Y005915D02*
X010359Y005818D01*
X010359Y005866D02*
X010359Y005721D01*
X010262Y005721D02*
X010552Y005721D01*
X010552Y005866D01*
X010504Y005915D01*
X010407Y005915D01*
X010359Y005866D01*
X010455Y006016D02*
X010552Y006113D01*
X010455Y006209D01*
X011598Y005762D02*
X011598Y005471D01*
X011549Y005616D02*
X011743Y005616D01*
X011598Y005762D01*
X011844Y005762D02*
X011941Y005762D01*
X011892Y005762D02*
X011892Y005520D01*
X011941Y005471D01*
X011989Y005471D01*
X012037Y005520D01*
X012139Y005520D02*
X012187Y005471D01*
X012284Y005471D01*
X012332Y005520D01*
X012284Y005616D02*
X012332Y005665D01*
X012332Y005713D01*
X012284Y005762D01*
X012187Y005762D01*
X012139Y005713D01*
X012187Y005616D02*
X012139Y005568D01*
X012139Y005520D01*
X012187Y005616D02*
X012284Y005616D01*
X012842Y005843D02*
X012890Y005795D01*
X012842Y005843D02*
X012842Y005940D01*
X012890Y005988D01*
X012939Y005988D01*
X012987Y005940D01*
X012987Y005843D01*
X013035Y005795D01*
X013084Y005795D01*
X013132Y005843D01*
X013132Y005940D01*
X013084Y005988D01*
X013132Y006186D02*
X013132Y006283D01*
X013132Y006235D02*
X012890Y006235D01*
X012842Y006186D01*
X012842Y006138D01*
X012890Y006089D01*
X012890Y006384D02*
X012842Y006432D01*
X012842Y006529D01*
X012890Y006578D01*
X012987Y006578D01*
X013035Y006529D01*
X013035Y006481D01*
X012987Y006384D01*
X013132Y006384D01*
X013132Y006578D01*
X013392Y006529D02*
X013440Y006578D01*
X013489Y006578D01*
X013537Y006529D01*
X013537Y006384D01*
X013440Y006384D01*
X013392Y006432D01*
X013392Y006529D01*
X013537Y006384D02*
X013634Y006481D01*
X013682Y006578D01*
X013682Y006283D02*
X013682Y006186D01*
X013682Y006235D02*
X013440Y006235D01*
X013392Y006186D01*
X013392Y006138D01*
X013440Y006089D01*
X013440Y005988D02*
X013392Y005940D01*
X013392Y005843D01*
X013440Y005795D01*
X013537Y005843D02*
X013537Y005940D01*
X013489Y005988D01*
X013440Y005988D01*
X013537Y005843D02*
X013585Y005795D01*
X013634Y005795D01*
X013682Y005843D01*
X013682Y005940D01*
X013634Y005988D01*
X013556Y004955D02*
X013556Y004708D01*
X013556Y004586D02*
X013556Y004340D01*
X013556Y004463D02*
X013926Y004463D01*
X013803Y004340D01*
X013864Y004218D02*
X013926Y004156D01*
X013926Y004033D01*
X013864Y003971D01*
X013617Y003971D01*
X013556Y004033D01*
X013556Y004156D01*
X013617Y004218D01*
X013803Y004708D02*
X013926Y004831D01*
X013556Y004831D01*
X011721Y004495D02*
X011721Y004301D01*
X011721Y004446D02*
X011528Y004446D01*
X011528Y004495D02*
X011528Y004301D01*
X011427Y004446D02*
X011233Y004446D01*
X011282Y004301D02*
X011282Y004592D01*
X011427Y004446D01*
X011528Y004495D02*
X011625Y004592D01*
X011721Y004495D01*
X010782Y004471D02*
X010782Y004762D01*
X010637Y004762D01*
X010589Y004713D01*
X010589Y004616D01*
X010637Y004568D01*
X010782Y004568D01*
X010685Y004568D02*
X010589Y004471D01*
X010487Y004471D02*
X010294Y004471D01*
X010391Y004471D02*
X010391Y004762D01*
X010487Y004665D01*
X010193Y004665D02*
X010144Y004616D01*
X009999Y004616D01*
X009999Y004520D02*
X009999Y004713D01*
X010048Y004762D01*
X010144Y004762D01*
X010193Y004713D01*
X010193Y004665D01*
X010193Y004520D02*
X010144Y004471D01*
X010048Y004471D01*
X009999Y004520D01*
X007832Y004432D02*
X007832Y004185D01*
X007462Y004185D01*
X007647Y004185D02*
X007647Y004308D01*
X007709Y004553D02*
X007832Y004676D01*
X007462Y004676D01*
X007462Y004553D02*
X007462Y004800D01*
X015542Y005543D02*
X015590Y005495D01*
X015542Y005543D02*
X015542Y005640D01*
X015590Y005688D01*
X015639Y005688D01*
X015687Y005640D01*
X015687Y005543D01*
X015735Y005495D01*
X015784Y005495D01*
X015832Y005543D01*
X015832Y005640D01*
X015784Y005688D01*
X015832Y005886D02*
X015832Y005983D01*
X015832Y005935D02*
X015590Y005935D01*
X015542Y005886D01*
X015542Y005838D01*
X015590Y005789D01*
X015590Y006084D02*
X015639Y006084D01*
X015687Y006132D01*
X015687Y006229D01*
X015639Y006278D01*
X015590Y006278D01*
X015542Y006229D01*
X015542Y006132D01*
X015590Y006084D01*
X015687Y006132D02*
X015735Y006084D01*
X015784Y006084D01*
X015832Y006132D01*
X015832Y006229D01*
X015784Y006278D01*
X015735Y006278D01*
X015687Y006229D01*
X017892Y006229D02*
X017940Y006278D01*
X018134Y006278D01*
X018182Y006229D01*
X018182Y006132D01*
X018134Y006084D01*
X018085Y006084D01*
X018037Y006132D01*
X018037Y006278D01*
X017892Y006229D02*
X017892Y006132D01*
X017940Y006084D01*
X017940Y005935D02*
X018182Y005935D01*
X018182Y005983D02*
X018182Y005886D01*
X018134Y005688D02*
X018182Y005640D01*
X018182Y005543D01*
X018134Y005495D01*
X018085Y005495D01*
X018037Y005543D01*
X018037Y005640D01*
X017989Y005688D01*
X017940Y005688D01*
X017892Y005640D01*
X017892Y005543D01*
X017940Y005495D01*
X017940Y005789D02*
X017892Y005838D01*
X017892Y005886D01*
X017940Y005935D01*
D50*
X010377Y011626D02*
X010377Y012087D01*
X010300Y011933D02*
X010147Y011933D01*
X010070Y011856D01*
X010070Y011626D01*
X009840Y011703D02*
X009840Y012010D01*
X009917Y011933D02*
X009763Y011933D01*
X009610Y011933D02*
X009456Y011933D01*
X009533Y012010D02*
X009533Y011703D01*
X009456Y011626D01*
X009303Y011626D02*
X009073Y011626D01*
X008996Y011703D01*
X008996Y011856D01*
X009073Y011933D01*
X009303Y011933D01*
X009303Y011473D01*
X009763Y011626D02*
X009840Y011703D01*
X010300Y011933D02*
X010377Y011856D01*
X008843Y011856D02*
X008843Y011933D01*
X008766Y011933D01*
X008766Y011856D01*
X008843Y011856D01*
X008843Y011703D02*
X008843Y011626D01*
X008766Y011626D01*
X008766Y011703D01*
X008843Y011703D01*
X008612Y011626D02*
X008305Y012087D01*
X007845Y012087D02*
X008152Y011626D01*
X007692Y011473D02*
X007615Y011473D01*
X007538Y011550D01*
X007538Y011933D01*
X007538Y012087D02*
X007538Y012163D01*
X007308Y011933D02*
X007155Y011933D01*
X007078Y011856D01*
X007078Y011626D01*
X007308Y011626D01*
X007385Y011703D01*
X007308Y011780D01*
X007078Y011780D01*
X006924Y011626D02*
X006771Y011626D01*
X006848Y011626D02*
X006848Y012087D01*
X006924Y012087D01*
X006618Y011933D02*
X006618Y011703D01*
X006541Y011626D01*
X006311Y011626D01*
X006311Y011933D01*
X006157Y011933D02*
X006080Y011933D01*
X006080Y011626D01*
X006004Y011626D02*
X006157Y011626D01*
X005850Y011626D02*
X005850Y011933D01*
X005620Y011933D01*
X005543Y011856D01*
X005543Y011626D01*
X005390Y011703D02*
X005390Y011856D01*
X005313Y011933D01*
X005160Y011933D01*
X005083Y011856D01*
X005083Y011703D01*
X005160Y011626D01*
X005313Y011626D01*
X005390Y011703D01*
X004930Y011703D02*
X004853Y011703D01*
X004853Y011626D01*
X004930Y011626D01*
X004930Y011703D01*
X004699Y011703D02*
X004699Y011856D01*
X004623Y011933D01*
X004469Y011933D01*
X004393Y011856D01*
X004393Y011703D01*
X004469Y011626D01*
X004623Y011626D01*
X004699Y011703D01*
X004239Y011780D02*
X004086Y011933D01*
X004009Y011933D01*
X003855Y011856D02*
X003855Y011703D01*
X003779Y011626D01*
X003549Y011626D01*
X003549Y011550D02*
X003549Y011933D01*
X003779Y011933D01*
X003855Y011856D01*
X004239Y011933D02*
X004239Y011626D01*
X003702Y011473D02*
X003625Y011473D01*
X003549Y011550D01*
X006080Y012087D02*
X006080Y012163D01*
X015567Y013876D02*
X016027Y014183D01*
X015951Y014337D02*
X016027Y014413D01*
X016027Y014567D01*
X015951Y014644D01*
X015874Y014644D01*
X015567Y014337D01*
X015567Y014644D01*
X015567Y014183D02*
X016027Y013876D01*
D51*
X016122Y007663D02*
X016085Y007626D01*
X016085Y007590D01*
X016232Y007590D01*
X016232Y007626D02*
X016232Y007553D01*
X016195Y007516D01*
X016122Y007516D01*
X016172Y007423D02*
X016172Y007386D01*
X016172Y007313D02*
X016172Y007166D01*
X016208Y007166D02*
X016135Y007166D01*
X016061Y007166D02*
X016061Y007313D01*
X015951Y007313D01*
X015914Y007276D01*
X015914Y007166D01*
X015840Y007166D02*
X015730Y007166D01*
X015693Y007203D01*
X015730Y007240D01*
X015803Y007240D01*
X015840Y007276D01*
X015803Y007313D01*
X015693Y007313D01*
X016122Y007663D02*
X016195Y007663D01*
X016232Y007626D01*
X016306Y007663D02*
X016416Y007663D01*
X016453Y007626D01*
X016416Y007590D01*
X016343Y007590D01*
X016306Y007553D01*
X016343Y007516D01*
X016453Y007516D01*
X016527Y007553D02*
X016527Y007626D01*
X016564Y007663D01*
X016637Y007663D01*
X016674Y007626D01*
X016674Y007553D01*
X016637Y007516D01*
X016564Y007516D01*
X016527Y007553D01*
X016748Y007553D02*
X016748Y007626D01*
X016785Y007663D01*
X016895Y007663D01*
X016895Y007443D01*
X016895Y007516D02*
X016785Y007516D01*
X016748Y007553D01*
X016761Y007386D02*
X016761Y007166D01*
X016798Y007166D02*
X016724Y007166D01*
X016872Y007166D02*
X016872Y007276D01*
X016909Y007313D01*
X016982Y007313D01*
X016982Y007240D02*
X016872Y007240D01*
X016872Y007166D02*
X016982Y007166D01*
X017019Y007203D01*
X016982Y007240D01*
X017093Y007313D02*
X017166Y007313D01*
X017129Y007350D02*
X017129Y007203D01*
X017093Y007166D01*
X017240Y007166D02*
X017387Y007386D01*
X017337Y007516D02*
X017190Y007516D01*
X017116Y007516D02*
X016969Y007663D01*
X017116Y007663D02*
X016969Y007516D01*
X016798Y007386D02*
X016761Y007386D01*
X016429Y007313D02*
X016429Y007093D01*
X016429Y007166D02*
X016319Y007166D01*
X016283Y007203D01*
X016283Y007276D01*
X016319Y007313D01*
X016429Y007313D01*
X016208Y007313D02*
X016172Y007313D01*
X017190Y007736D02*
X017337Y007736D01*
X017337Y007516D01*
X017337Y007626D02*
X017264Y007626D01*
X017240Y007386D02*
X017387Y007166D01*
X013787Y007166D02*
X013640Y007386D01*
X013566Y007313D02*
X013493Y007313D01*
X013529Y007350D02*
X013529Y007203D01*
X013493Y007166D01*
X013419Y007203D02*
X013382Y007240D01*
X013272Y007240D01*
X013272Y007276D02*
X013272Y007166D01*
X013382Y007166D01*
X013419Y007203D01*
X013382Y007313D02*
X013309Y007313D01*
X013272Y007276D01*
X013198Y007166D02*
X013124Y007166D01*
X013161Y007166D02*
X013161Y007386D01*
X013198Y007386D01*
X013295Y007443D02*
X013295Y007663D01*
X013185Y007663D01*
X013148Y007626D01*
X013148Y007553D01*
X013185Y007516D01*
X013295Y007516D01*
X013369Y007516D02*
X013516Y007663D01*
X013590Y007736D02*
X013737Y007736D01*
X013737Y007516D01*
X013590Y007516D01*
X013516Y007516D02*
X013369Y007663D01*
X013074Y007626D02*
X013074Y007553D01*
X013037Y007516D01*
X012964Y007516D01*
X012927Y007553D01*
X012927Y007626D01*
X012964Y007663D01*
X013037Y007663D01*
X013074Y007626D01*
X012853Y007626D02*
X012816Y007590D01*
X012743Y007590D01*
X012706Y007553D01*
X012743Y007516D01*
X012853Y007516D01*
X012853Y007626D02*
X012816Y007663D01*
X012706Y007663D01*
X012632Y007626D02*
X012595Y007663D01*
X012522Y007663D01*
X012485Y007626D01*
X012485Y007590D01*
X012632Y007590D01*
X012632Y007626D02*
X012632Y007553D01*
X012595Y007516D01*
X012522Y007516D01*
X012572Y007423D02*
X012572Y007386D01*
X012572Y007313D02*
X012572Y007166D01*
X012608Y007166D02*
X012535Y007166D01*
X012461Y007166D02*
X012461Y007313D01*
X012351Y007313D01*
X012314Y007276D01*
X012314Y007166D01*
X012240Y007166D02*
X012130Y007166D01*
X012093Y007203D01*
X012130Y007240D01*
X012203Y007240D01*
X012240Y007276D01*
X012203Y007313D01*
X012093Y007313D01*
X012572Y007313D02*
X012608Y007313D01*
X012683Y007276D02*
X012683Y007203D01*
X012719Y007166D01*
X012829Y007166D01*
X012829Y007093D02*
X012829Y007313D01*
X012719Y007313D01*
X012683Y007276D01*
X013640Y007166D02*
X013787Y007386D01*
X013737Y007626D02*
X013664Y007626D01*
X012587Y005286D02*
X012587Y005140D01*
X012514Y005066D01*
X012440Y005140D01*
X012440Y005286D01*
X012366Y005176D02*
X012329Y005213D01*
X012219Y005213D01*
X012219Y005286D02*
X012219Y005066D01*
X012329Y005066D01*
X012366Y005103D01*
X012366Y005176D01*
X012145Y005176D02*
X012108Y005213D01*
X011998Y005213D01*
X011998Y005286D02*
X011998Y005066D01*
X012108Y005066D01*
X012145Y005103D01*
X012145Y005176D01*
X011924Y005176D02*
X011924Y005103D01*
X011887Y005066D01*
X011777Y005066D01*
X011703Y005103D02*
X011666Y005066D01*
X011593Y005066D01*
X011556Y005103D01*
X011556Y005176D01*
X011593Y005213D01*
X011666Y005213D01*
X011703Y005176D01*
X011703Y005103D01*
X011777Y005213D02*
X011887Y005213D01*
X011924Y005176D01*
X011482Y005140D02*
X011409Y005213D01*
X011372Y005213D01*
X011298Y005176D02*
X011261Y005213D01*
X011188Y005213D01*
X011151Y005176D01*
X011151Y005140D01*
X011298Y005140D01*
X011298Y005176D02*
X011298Y005103D01*
X011261Y005066D01*
X011188Y005066D01*
X011482Y005066D02*
X011482Y005213D01*
X011214Y003686D02*
X011214Y003466D01*
X011324Y003466D01*
X011361Y003503D01*
X011361Y003576D01*
X011324Y003613D01*
X011214Y003613D01*
X011435Y003576D02*
X011435Y003540D01*
X011582Y003540D01*
X011582Y003576D02*
X011545Y003613D01*
X011472Y003613D01*
X011435Y003576D01*
X011472Y003466D02*
X011545Y003466D01*
X011582Y003503D01*
X011582Y003576D01*
X011656Y003613D02*
X011766Y003613D01*
X011803Y003576D01*
X011766Y003540D01*
X011693Y003540D01*
X011656Y003503D01*
X011693Y003466D01*
X011803Y003466D01*
X011877Y003503D02*
X011877Y003576D01*
X011914Y003613D01*
X011987Y003613D01*
X012024Y003576D01*
X012024Y003503D01*
X011987Y003466D01*
X011914Y003466D01*
X011877Y003503D01*
X012098Y003503D02*
X012135Y003466D01*
X012245Y003466D01*
X012245Y003393D02*
X012245Y003613D01*
X012135Y003613D01*
X012098Y003576D01*
X012098Y003503D01*
X012319Y003466D02*
X012466Y003613D01*
X012540Y003686D02*
X012687Y003686D01*
X012687Y003466D01*
X012540Y003466D01*
X012466Y003466D02*
X012319Y003613D01*
X012614Y003576D02*
X012687Y003576D01*
D52*
X012781Y003796D02*
X012623Y003934D01*
X012623Y004898D01*
X012781Y005017D01*
X013253Y005017D01*
X012781Y005017D01*
X013407Y004922D02*
X013407Y003900D01*
X013253Y003796D02*
X012781Y003796D01*
X014001Y003776D02*
X014671Y003776D01*
X014671Y005017D01*
X014001Y005017D01*
X013803Y005991D02*
X013803Y006621D01*
X013804Y006622D02*
X013810Y006640D01*
X013819Y006658D01*
X013831Y006673D01*
X013847Y006685D01*
X013864Y006694D01*
X013883Y006700D01*
X013902Y006702D01*
X013922Y006700D01*
X014472Y006700D02*
X014490Y006702D01*
X014507Y006701D01*
X014524Y006697D01*
X014540Y006690D01*
X014555Y006680D01*
X014567Y006668D01*
X014577Y006654D01*
X014585Y006638D01*
X014590Y006622D01*
X014591Y006621D02*
X014591Y005991D01*
X014590Y005991D02*
X014585Y005975D01*
X014577Y005959D01*
X014567Y005945D01*
X014555Y005933D01*
X014540Y005923D01*
X014524Y005916D01*
X014507Y005912D01*
X014490Y005911D01*
X014472Y005913D01*
X013922Y005913D02*
X013902Y005911D01*
X013883Y005913D01*
X013864Y005919D01*
X013847Y005928D01*
X013831Y005940D01*
X013819Y005955D01*
X013810Y005973D01*
X013804Y005991D01*
X012691Y005991D02*
X012691Y006621D01*
X012690Y006622D02*
X012685Y006638D01*
X012677Y006654D01*
X012667Y006668D01*
X012655Y006680D01*
X012640Y006690D01*
X012624Y006697D01*
X012607Y006701D01*
X012590Y006702D01*
X012572Y006700D01*
X012022Y006700D02*
X012002Y006702D01*
X011983Y006700D01*
X011964Y006694D01*
X011947Y006685D01*
X011931Y006673D01*
X011919Y006658D01*
X011910Y006640D01*
X011904Y006622D01*
X011903Y006621D02*
X011903Y005991D01*
X011904Y005991D02*
X011910Y005973D01*
X011919Y005955D01*
X011931Y005940D01*
X011947Y005928D01*
X011964Y005919D01*
X011983Y005913D01*
X012002Y005911D01*
X012022Y005913D01*
X012572Y005913D02*
X012590Y005911D01*
X012607Y005912D01*
X012624Y005916D01*
X012640Y005923D01*
X012655Y005933D01*
X012667Y005945D01*
X012677Y005959D01*
X012685Y005975D01*
X012690Y005991D01*
X015953Y005691D02*
X015953Y006321D01*
X015954Y006322D02*
X015960Y006340D01*
X015969Y006358D01*
X015981Y006373D01*
X015997Y006385D01*
X016014Y006394D01*
X016033Y006400D01*
X016052Y006402D01*
X016072Y006400D01*
X016622Y006400D02*
X016640Y006402D01*
X016657Y006401D01*
X016674Y006397D01*
X016690Y006390D01*
X016705Y006380D01*
X016717Y006368D01*
X016727Y006354D01*
X016735Y006338D01*
X016740Y006322D01*
X016741Y006321D02*
X016741Y005691D01*
X016740Y005691D02*
X016735Y005675D01*
X016727Y005659D01*
X016717Y005645D01*
X016705Y005633D01*
X016690Y005623D01*
X016674Y005616D01*
X016657Y005612D01*
X016640Y005611D01*
X016622Y005613D01*
X016953Y005691D02*
X016953Y006321D01*
X016954Y006322D02*
X016960Y006340D01*
X016969Y006358D01*
X016981Y006373D01*
X016997Y006385D01*
X017014Y006394D01*
X017033Y006400D01*
X017052Y006402D01*
X017072Y006400D01*
X017622Y006400D02*
X017640Y006402D01*
X017657Y006401D01*
X017674Y006397D01*
X017690Y006390D01*
X017705Y006380D01*
X017717Y006368D01*
X017727Y006354D01*
X017735Y006338D01*
X017740Y006322D01*
X017741Y006321D02*
X017741Y005691D01*
X017740Y005691D02*
X017735Y005675D01*
X017727Y005659D01*
X017717Y005645D01*
X017705Y005633D01*
X017690Y005623D01*
X017674Y005616D01*
X017657Y005612D01*
X017640Y005611D01*
X017622Y005613D01*
X017072Y005613D02*
X017052Y005611D01*
X017033Y005613D01*
X017014Y005619D01*
X016997Y005628D01*
X016981Y005640D01*
X016969Y005655D01*
X016960Y005673D01*
X016954Y005691D01*
X016072Y005613D02*
X016052Y005611D01*
X016033Y005613D01*
X016014Y005619D01*
X015997Y005628D01*
X015981Y005640D01*
X015969Y005655D01*
X015960Y005673D01*
X015954Y005691D01*
X018144Y012144D02*
X012947Y012144D01*
X012947Y014074D01*
X012947Y015137D02*
X012947Y016318D01*
X012947Y017381D02*
X012947Y017656D01*
X017711Y017656D01*
X018301Y017026D02*
X018301Y013719D01*
X018304Y013681D01*
X018310Y013643D01*
X018320Y013606D01*
X018334Y013570D01*
X018350Y013535D01*
X018370Y013503D01*
X018393Y013472D01*
X018419Y013443D01*
X018448Y013417D01*
X018479Y013394D01*
X018511Y013374D01*
X018546Y013358D01*
X018582Y013344D01*
X018619Y013334D01*
X018657Y013328D01*
X018695Y013325D01*
X018695Y013326D02*
X018727Y013327D01*
X018758Y013323D01*
X018789Y013316D01*
X018819Y013305D01*
X018847Y013291D01*
X018873Y013273D01*
X018897Y013252D01*
X018918Y013228D01*
X018936Y013202D01*
X018950Y013174D01*
X018961Y013144D01*
X018968Y013113D01*
X018972Y013082D01*
X018971Y013050D01*
X018971Y012735D01*
D53*
X012297Y004956D02*
X011697Y004956D01*
X011680Y004954D01*
X011663Y004950D01*
X011647Y004943D01*
X011633Y004933D01*
X011620Y004920D01*
X011610Y004906D01*
X011603Y004890D01*
X011599Y004873D01*
X011597Y004856D01*
X011597Y003856D01*
X011599Y003839D01*
X011603Y003822D01*
X011610Y003806D01*
X011620Y003792D01*
X011633Y003779D01*
X011647Y003769D01*
X011663Y003762D01*
X011680Y003758D01*
X011697Y003756D01*
X012297Y003756D01*
X012314Y003758D01*
X012331Y003762D01*
X012347Y003769D01*
X012361Y003779D01*
X012374Y003792D01*
X012384Y003806D01*
X012391Y003822D01*
X012395Y003839D01*
X012397Y003856D01*
X012397Y004856D01*
X012395Y004873D01*
X012391Y004890D01*
X012384Y004906D01*
X012374Y004920D01*
X012361Y004933D01*
X012347Y004943D01*
X012331Y004950D01*
X012314Y004954D01*
X012297Y004956D01*
X006497Y011756D02*
X005497Y011756D01*
X005480Y011758D01*
X005463Y011762D01*
X005447Y011769D01*
X005433Y011779D01*
X005420Y011792D01*
X005410Y011806D01*
X005403Y011822D01*
X005399Y011839D01*
X005397Y011856D01*
X005397Y012456D01*
X005399Y012473D01*
X005403Y012490D01*
X005410Y012506D01*
X005420Y012520D01*
X005433Y012533D01*
X005447Y012543D01*
X005463Y012550D01*
X005480Y012554D01*
X005497Y012556D01*
X006497Y012556D01*
X006514Y012554D01*
X006531Y012550D01*
X006547Y012543D01*
X006561Y012533D01*
X006574Y012520D01*
X006584Y012506D01*
X006591Y012490D01*
X006595Y012473D01*
X006597Y012456D01*
X006597Y011856D01*
X006595Y011839D01*
X006591Y011822D01*
X006584Y011806D01*
X006574Y011792D01*
X006561Y011779D01*
X006547Y011769D01*
X006531Y011762D01*
X006514Y011758D01*
X006497Y011756D01*
X004697Y011856D02*
X004697Y012456D01*
X004695Y012473D01*
X004691Y012490D01*
X004684Y012506D01*
X004674Y012520D01*
X004661Y012533D01*
X004647Y012543D01*
X004631Y012550D01*
X004614Y012554D01*
X004597Y012556D01*
X003597Y012556D01*
X003580Y012554D01*
X003563Y012550D01*
X003547Y012543D01*
X003533Y012533D01*
X003520Y012520D01*
X003510Y012506D01*
X003503Y012490D01*
X003499Y012473D01*
X003497Y012456D01*
X003497Y011856D01*
X003499Y011839D01*
X003503Y011822D01*
X003510Y011806D01*
X003520Y011792D01*
X003533Y011779D01*
X003547Y011769D01*
X003563Y011762D01*
X003580Y011758D01*
X003597Y011756D01*
X004597Y011756D01*
X004614Y011758D01*
X004631Y011762D01*
X004647Y011769D01*
X004661Y011779D01*
X004674Y011792D01*
X004684Y011806D01*
X004691Y011822D01*
X004695Y011839D01*
X004697Y011856D01*
M02*
