G75*
G70*
%OFA0B0*%
%FSLAX24Y24*%
%IPPOS*%
%LPD*%
%AMOC8*
5,1,8,0,0,1.08239X$1,22.5*
%
%ADD10C,0.0000*%
%ADD11R,0.0709X0.0630*%
%ADD12C,0.0740*%
%ADD13C,0.0520*%
%ADD14R,0.0630X0.0709*%
%ADD15R,0.0551X0.0472*%
%ADD16R,0.0300X0.0500*%
%ADD17R,0.0600X0.0300*%
%ADD18C,0.0515*%
%ADD19R,0.0984X0.0472*%
%ADD20R,0.0472X0.0551*%
%ADD21C,0.0560*%
%ADD22R,0.0472X0.0984*%
%ADD23OC8,0.1000*%
%ADD24R,0.0579X0.0500*%
%ADD25R,0.0500X0.0250*%
%ADD26R,0.0250X0.0500*%
%ADD27R,0.0590X0.0790*%
%ADD28R,0.1500X0.0790*%
%ADD29R,0.0709X0.0945*%
%ADD30R,0.0551X0.0138*%
%ADD31R,0.0748X0.0709*%
%ADD32C,0.0100*%
%ADD33C,0.0240*%
%ADD34C,0.0356*%
%ADD35C,0.0120*%
%ADD36C,0.0160*%
D10*
X000897Y000151D02*
X000897Y019646D01*
X020382Y019636D01*
X020382Y000151D01*
X000897Y000151D01*
X017463Y012525D02*
X017465Y012551D01*
X017471Y012577D01*
X017480Y012601D01*
X017493Y012624D01*
X017510Y012644D01*
X017529Y012662D01*
X017551Y012677D01*
X017574Y012688D01*
X017599Y012696D01*
X017625Y012700D01*
X017651Y012700D01*
X017677Y012696D01*
X017702Y012688D01*
X017726Y012677D01*
X017747Y012662D01*
X017766Y012644D01*
X017783Y012624D01*
X017796Y012601D01*
X017805Y012577D01*
X017811Y012551D01*
X017813Y012525D01*
X017811Y012499D01*
X017805Y012473D01*
X017796Y012449D01*
X017783Y012426D01*
X017766Y012406D01*
X017747Y012388D01*
X017725Y012373D01*
X017702Y012362D01*
X017677Y012354D01*
X017651Y012350D01*
X017625Y012350D01*
X017599Y012354D01*
X017574Y012362D01*
X017550Y012373D01*
X017529Y012388D01*
X017510Y012406D01*
X017493Y012426D01*
X017480Y012449D01*
X017471Y012473D01*
X017465Y012499D01*
X017463Y012525D01*
X017463Y015675D02*
X017465Y015701D01*
X017471Y015727D01*
X017480Y015751D01*
X017493Y015774D01*
X017510Y015794D01*
X017529Y015812D01*
X017551Y015827D01*
X017574Y015838D01*
X017599Y015846D01*
X017625Y015850D01*
X017651Y015850D01*
X017677Y015846D01*
X017702Y015838D01*
X017726Y015827D01*
X017747Y015812D01*
X017766Y015794D01*
X017783Y015774D01*
X017796Y015751D01*
X017805Y015727D01*
X017811Y015701D01*
X017813Y015675D01*
X017811Y015649D01*
X017805Y015623D01*
X017796Y015599D01*
X017783Y015576D01*
X017766Y015556D01*
X017747Y015538D01*
X017725Y015523D01*
X017702Y015512D01*
X017677Y015504D01*
X017651Y015500D01*
X017625Y015500D01*
X017599Y015504D01*
X017574Y015512D01*
X017550Y015523D01*
X017529Y015538D01*
X017510Y015556D01*
X017493Y015576D01*
X017480Y015599D01*
X017471Y015623D01*
X017465Y015649D01*
X017463Y015675D01*
D11*
X013737Y014672D03*
X013737Y013570D03*
X008697Y009402D03*
X007697Y009752D03*
X007797Y010700D03*
X007797Y011802D03*
X007697Y008650D03*
X008697Y008300D03*
X009297Y005352D03*
X009297Y004250D03*
X015897Y003740D03*
X015897Y004842D03*
X017817Y004842D03*
X017817Y003740D03*
X019297Y005950D03*
X018247Y005960D03*
X018247Y007062D03*
X019297Y007052D03*
X019597Y010450D03*
X019597Y011552D03*
X002897Y017300D03*
X002897Y018402D03*
D12*
X001647Y018901D03*
X001647Y017901D03*
X001647Y016901D03*
X001647Y015901D03*
X001647Y014901D03*
X001647Y013901D03*
X001647Y012751D03*
X001647Y011751D03*
X001647Y010751D03*
X001647Y009751D03*
X001647Y008751D03*
X001647Y007751D03*
X001697Y006451D03*
X001697Y005451D03*
X001647Y001901D03*
X001647Y000901D03*
X002647Y000901D03*
X003647Y000901D03*
X003647Y001901D03*
X002647Y001901D03*
X006647Y001901D03*
X006647Y000901D03*
X007647Y000901D03*
X008647Y000901D03*
X009647Y000901D03*
X010647Y000901D03*
X011647Y000901D03*
X012647Y000901D03*
X013647Y000901D03*
X014647Y000901D03*
X015647Y000901D03*
X016647Y000901D03*
X017647Y000901D03*
X018647Y000901D03*
X019647Y000901D03*
X019647Y001901D03*
X018647Y001901D03*
X017647Y001901D03*
X016647Y001901D03*
X015647Y001901D03*
X014647Y001901D03*
X013647Y001901D03*
X012647Y001901D03*
X011647Y001901D03*
X010647Y001901D03*
X009647Y001901D03*
X008647Y001901D03*
X007647Y001901D03*
X007647Y017901D03*
X008647Y017901D03*
X009647Y017901D03*
X010647Y017901D03*
X011647Y017901D03*
X012647Y017901D03*
X013647Y017901D03*
X014647Y017901D03*
X015647Y017901D03*
X016647Y017901D03*
X017647Y017901D03*
X018647Y017901D03*
X019647Y017901D03*
X019647Y018901D03*
X018647Y018901D03*
X017647Y018901D03*
X016647Y018901D03*
X015647Y018901D03*
X014647Y018901D03*
X013647Y018901D03*
X012647Y018901D03*
X011647Y018901D03*
X010647Y018901D03*
X009647Y018901D03*
X008647Y018901D03*
X007647Y018901D03*
X006647Y018901D03*
X006647Y017901D03*
D13*
X012247Y006551D03*
X014147Y006551D03*
X016347Y006151D03*
X017347Y006151D03*
D14*
X018646Y008251D03*
X019748Y008251D03*
X014948Y005001D03*
X013846Y005001D03*
X012898Y005001D03*
X011796Y005001D03*
X013096Y016101D03*
X014198Y016101D03*
D15*
X019097Y004842D03*
X019097Y003661D03*
D16*
X016047Y008069D03*
X015547Y008069D03*
X015047Y008069D03*
X014547Y008069D03*
X014047Y008069D03*
X013547Y008069D03*
X013047Y008069D03*
X012547Y008069D03*
X012047Y008069D03*
X011547Y008069D03*
X011047Y008069D03*
X010547Y008069D03*
X010047Y008069D03*
X009547Y008069D03*
X009547Y011833D03*
X010047Y011833D03*
X010547Y011833D03*
X011047Y011833D03*
X011547Y011833D03*
X012047Y011833D03*
X012547Y011833D03*
X013047Y011833D03*
X013547Y011833D03*
X014047Y011833D03*
X014547Y011833D03*
X015047Y011833D03*
X015547Y011833D03*
X016047Y011833D03*
D17*
X005797Y017651D03*
X005797Y019151D03*
X003797Y019151D03*
X003797Y017651D03*
D18*
X003641Y015774D03*
X004429Y015774D03*
X005216Y015774D03*
X006003Y015774D03*
X006791Y015774D03*
X007578Y015774D03*
X008366Y015774D03*
X009153Y015774D03*
X009940Y015774D03*
X002854Y015774D03*
X002854Y007113D03*
X003641Y007113D03*
X004429Y007113D03*
X005216Y007113D03*
X006003Y007113D03*
X006791Y007113D03*
X007578Y007113D03*
X008366Y007113D03*
X009153Y007113D03*
X009940Y007113D03*
D19*
X004147Y008952D03*
X004147Y010251D03*
D20*
X006706Y005401D03*
X007888Y005401D03*
X005788Y016951D03*
X004606Y016951D03*
D21*
X005017Y005751D02*
X005577Y005751D01*
X005577Y004751D02*
X005017Y004751D01*
X005017Y003751D02*
X005577Y003751D01*
X003877Y003751D02*
X003317Y003751D01*
X003317Y004751D02*
X003877Y004751D01*
X003877Y005751D02*
X003317Y005751D01*
D22*
X006997Y003901D03*
X008297Y003901D03*
D23*
X001747Y004351D03*
X001747Y003201D03*
D24*
X005147Y002548D03*
X005147Y000855D03*
D25*
X017497Y008801D03*
X017497Y009151D03*
X017497Y009501D03*
X017497Y010101D03*
X017497Y010451D03*
X017497Y010801D03*
D26*
X017224Y013501D03*
X016870Y013501D03*
X016274Y013651D03*
X015920Y013651D03*
D27*
X005657Y012061D03*
X004757Y012061D03*
X003857Y012061D03*
D28*
X004747Y014541D03*
D29*
X006550Y014601D03*
X008144Y014601D03*
D30*
X018554Y014507D03*
X018554Y014763D03*
X018554Y014251D03*
X018554Y013995D03*
X018554Y013739D03*
D31*
X019597Y012676D03*
X019597Y015826D03*
D32*
X019073Y015820D02*
X017930Y015820D01*
X017914Y015859D02*
X017822Y015950D01*
X017703Y016000D01*
X017574Y016000D01*
X017454Y015950D01*
X017363Y015859D01*
X017313Y015739D01*
X017313Y015610D01*
X017363Y015491D01*
X017454Y015399D01*
X017574Y015350D01*
X017703Y015350D01*
X017822Y015399D01*
X017914Y015491D01*
X017963Y015610D01*
X017963Y015739D01*
X017914Y015859D01*
X017855Y015918D02*
X019073Y015918D01*
X019073Y016017D02*
X017195Y016017D01*
X017097Y015918D02*
X017380Y016201D01*
X017864Y016201D01*
X018030Y016201D01*
X018730Y016901D01*
X018847Y017018D01*
X018847Y017421D01*
X018942Y017460D01*
X019088Y017607D01*
X019147Y017750D01*
X019206Y017607D01*
X019352Y017460D01*
X019544Y017381D01*
X019750Y017381D01*
X019942Y017460D01*
X020088Y017607D01*
X020167Y017798D01*
X020167Y018005D01*
X020088Y018196D01*
X019942Y018342D01*
X019799Y018401D01*
X019942Y018460D01*
X020088Y018607D01*
X020167Y018798D01*
X020167Y019005D01*
X020088Y019196D01*
X019942Y019342D01*
X019750Y019421D01*
X019544Y019421D01*
X019352Y019342D01*
X019206Y019196D01*
X019147Y019053D01*
X019088Y019196D01*
X018942Y019342D01*
X018750Y019421D01*
X018544Y019421D01*
X018352Y019342D01*
X018206Y019196D01*
X018147Y019053D01*
X018088Y019196D01*
X017942Y019342D01*
X017750Y019421D01*
X017544Y019421D01*
X017352Y019342D01*
X017206Y019196D01*
X017147Y019053D01*
X017088Y019196D01*
X016942Y019342D01*
X016750Y019421D01*
X016544Y019421D01*
X016352Y019342D01*
X016206Y019196D01*
X016146Y019049D01*
X016129Y019101D01*
X016092Y019174D01*
X016044Y019240D01*
X015986Y019298D01*
X015920Y019346D01*
X015847Y019383D01*
X015769Y019408D01*
X015697Y019420D01*
X015697Y018951D01*
X015597Y018951D01*
X015597Y019420D01*
X015525Y019408D01*
X015447Y019383D01*
X015374Y019346D01*
X015308Y019298D01*
X015250Y019240D01*
X015202Y019174D01*
X015165Y019101D01*
X015148Y019049D01*
X015088Y019196D01*
X014942Y019342D01*
X014750Y019421D01*
X014544Y019421D01*
X014352Y019342D01*
X014206Y019196D01*
X014147Y019053D01*
X014088Y019196D01*
X013942Y019342D01*
X013750Y019421D01*
X013544Y019421D01*
X013352Y019342D01*
X013206Y019196D01*
X013147Y019053D01*
X013088Y019196D01*
X012942Y019342D01*
X012750Y019421D01*
X012544Y019421D01*
X012352Y019342D01*
X012206Y019196D01*
X012147Y019053D01*
X012088Y019196D01*
X011942Y019342D01*
X011750Y019421D01*
X011544Y019421D01*
X011352Y019342D01*
X011206Y019196D01*
X011147Y019053D01*
X011088Y019196D01*
X010942Y019342D01*
X010750Y019421D01*
X010544Y019421D01*
X010352Y019342D01*
X010206Y019196D01*
X010147Y019053D01*
X010088Y019196D01*
X009942Y019342D01*
X009750Y019421D01*
X009544Y019421D01*
X009352Y019342D01*
X009206Y019196D01*
X009147Y019053D01*
X009088Y019196D01*
X008942Y019342D01*
X008750Y019421D01*
X008544Y019421D01*
X008352Y019342D01*
X008206Y019196D01*
X008147Y019053D01*
X008088Y019196D01*
X007942Y019342D01*
X007750Y019421D01*
X007544Y019421D01*
X007352Y019342D01*
X007206Y019196D01*
X007147Y019053D01*
X007088Y019196D01*
X006942Y019342D01*
X006750Y019421D01*
X006544Y019421D01*
X006352Y019342D01*
X006247Y019236D01*
X006247Y019363D01*
X006159Y019451D01*
X005435Y019451D01*
X005347Y019363D01*
X005347Y019351D01*
X005130Y019351D01*
X004964Y019351D01*
X004247Y019351D01*
X004247Y019363D01*
X004159Y019451D01*
X003435Y019451D01*
X003347Y019363D01*
X003347Y019271D01*
X003281Y019271D01*
X003203Y019349D01*
X003082Y019399D01*
X002952Y019399D01*
X002831Y019349D01*
X002739Y019257D01*
X002689Y019136D01*
X002689Y019056D01*
X002250Y019496D01*
X020232Y019486D01*
X020232Y007549D01*
X020034Y007747D01*
X020125Y007747D01*
X020213Y007835D01*
X020213Y008668D01*
X020125Y008755D01*
X019825Y008755D01*
X019697Y008884D01*
X019580Y009001D01*
X018330Y009001D01*
X018197Y009134D01*
X018197Y009268D01*
X018197Y009287D01*
X018232Y009273D01*
X018362Y009273D01*
X018483Y009323D01*
X018575Y009415D01*
X018625Y009536D01*
X018625Y009604D01*
X018792Y009771D01*
X018927Y009906D01*
X018927Y011322D01*
X019093Y011322D01*
X019093Y011175D01*
X019181Y011087D01*
X020013Y011087D01*
X020101Y011175D01*
X020101Y011929D01*
X020013Y012017D01*
X019181Y012017D01*
X019093Y011929D01*
X019093Y011782D01*
X018927Y011782D01*
X018927Y012206D01*
X018927Y012396D01*
X018277Y013046D01*
X018277Y013356D01*
X020232Y013356D01*
X020232Y013455D02*
X018376Y013455D01*
X018392Y013471D02*
X018420Y013471D01*
X018611Y013471D01*
X018660Y013520D01*
X018891Y013520D01*
X018979Y013608D01*
X018979Y013864D01*
X018979Y014120D01*
X018979Y014376D01*
X018979Y014638D01*
X018972Y014646D01*
X018979Y014674D01*
X018979Y014763D01*
X018979Y014852D01*
X018969Y014890D01*
X018949Y014924D01*
X018921Y014952D01*
X018887Y014972D01*
X018849Y014982D01*
X018554Y014982D01*
X018554Y014763D01*
X018979Y014763D01*
X018554Y014763D01*
X018554Y014763D01*
X018553Y014763D01*
X018553Y014763D01*
X018128Y014763D01*
X018128Y014852D01*
X018138Y014890D01*
X018158Y014924D01*
X018186Y014952D01*
X018220Y014972D01*
X018258Y014982D01*
X018553Y014982D01*
X018553Y014763D01*
X018128Y014763D01*
X018128Y014674D01*
X018136Y014646D01*
X018128Y014638D01*
X018128Y014451D01*
X016614Y014451D01*
X016497Y014334D01*
X016214Y014051D01*
X016120Y014051D01*
X016120Y014141D01*
X016980Y015001D01*
X017097Y015118D01*
X017097Y015918D01*
X017422Y015918D01*
X017347Y015820D02*
X017097Y015820D01*
X017097Y015721D02*
X017313Y015721D01*
X017313Y015622D02*
X017097Y015622D01*
X017097Y015524D02*
X017349Y015524D01*
X017428Y015425D02*
X017097Y015425D01*
X017097Y015327D02*
X019156Y015327D01*
X019161Y015322D02*
X020033Y015322D01*
X020121Y015409D01*
X020121Y016242D01*
X020033Y016330D01*
X019161Y016330D01*
X019073Y016242D01*
X019073Y015409D01*
X019161Y015322D01*
X019073Y015425D02*
X017849Y015425D01*
X017928Y015524D02*
X019073Y015524D01*
X019073Y015622D02*
X017963Y015622D01*
X017963Y015721D02*
X019073Y015721D01*
X019073Y016115D02*
X017294Y016115D01*
X017297Y016401D02*
X017947Y016401D01*
X018647Y017101D01*
X018647Y017901D01*
X019123Y017692D02*
X019171Y017692D01*
X019219Y017593D02*
X019075Y017593D01*
X018976Y017495D02*
X019318Y017495D01*
X019507Y017396D02*
X018847Y017396D01*
X018847Y017298D02*
X020232Y017298D01*
X020232Y017396D02*
X019787Y017396D01*
X019976Y017495D02*
X020232Y017495D01*
X020232Y017593D02*
X020075Y017593D01*
X020123Y017692D02*
X020232Y017692D01*
X020232Y017790D02*
X020164Y017790D01*
X020167Y017889D02*
X020232Y017889D01*
X020232Y017988D02*
X020167Y017988D01*
X020133Y018086D02*
X020232Y018086D01*
X020232Y018185D02*
X020092Y018185D01*
X020000Y018283D02*
X020232Y018283D01*
X020232Y018382D02*
X019846Y018382D01*
X019961Y018480D02*
X020232Y018480D01*
X020232Y018579D02*
X020060Y018579D01*
X020117Y018677D02*
X020232Y018677D01*
X020232Y018776D02*
X020158Y018776D01*
X020167Y018874D02*
X020232Y018874D01*
X020232Y018973D02*
X020167Y018973D01*
X020139Y019071D02*
X020232Y019071D01*
X020232Y019170D02*
X020098Y019170D01*
X020015Y019269D02*
X020232Y019269D01*
X020232Y019367D02*
X019881Y019367D01*
X020232Y019466D02*
X002279Y019466D01*
X002378Y019367D02*
X002874Y019367D01*
X002750Y019269D02*
X002476Y019269D01*
X002575Y019170D02*
X002703Y019170D01*
X002689Y019071D02*
X002674Y019071D01*
X003017Y019071D02*
X003717Y019071D01*
X003797Y019151D01*
X005047Y019151D01*
X005047Y017601D01*
X005097Y017551D01*
X005097Y016351D01*
X005297Y016561D02*
X005297Y017634D01*
X005247Y017684D01*
X005247Y018951D01*
X005347Y018951D01*
X005347Y018939D01*
X005435Y018851D01*
X006127Y018851D01*
X006127Y018798D01*
X006206Y018607D01*
X006352Y018460D01*
X006495Y018401D01*
X006352Y018342D01*
X006206Y018196D01*
X006127Y018005D01*
X006127Y017948D01*
X006117Y017951D01*
X005822Y017951D01*
X005822Y017676D01*
X005772Y017676D01*
X005772Y017626D01*
X005822Y017626D01*
X005822Y017351D01*
X005837Y017351D01*
X005837Y017001D01*
X005738Y017001D01*
X005738Y017351D01*
X005772Y017351D01*
X005772Y017626D01*
X005347Y017626D01*
X005347Y017481D01*
X005357Y017443D01*
X005377Y017409D01*
X005405Y017381D01*
X005439Y017361D01*
X005470Y017353D01*
X005459Y017347D01*
X005431Y017319D01*
X005412Y017285D01*
X005401Y017246D01*
X005401Y017001D01*
X005737Y017001D01*
X005737Y016901D01*
X005401Y016901D01*
X005401Y016656D01*
X005412Y016618D01*
X005431Y016583D01*
X005454Y016561D01*
X005297Y016561D01*
X005297Y016608D02*
X005417Y016608D01*
X005401Y016706D02*
X005297Y016706D01*
X005297Y016805D02*
X005401Y016805D01*
X005297Y016904D02*
X005737Y016904D01*
X005738Y017002D02*
X005837Y017002D01*
X005838Y017001D02*
X006174Y017001D01*
X006174Y017246D01*
X006164Y017285D01*
X006144Y017319D01*
X006116Y017347D01*
X006108Y017351D01*
X006117Y017351D01*
X006155Y017361D01*
X006189Y017381D01*
X006217Y017409D01*
X006237Y017443D01*
X006247Y017481D01*
X006247Y017566D01*
X006352Y017460D01*
X006497Y017400D01*
X006497Y016618D01*
X006554Y016561D01*
X006121Y016561D01*
X006144Y016583D01*
X006164Y016618D01*
X006174Y016656D01*
X006174Y016901D01*
X005838Y016901D01*
X005838Y017001D01*
X005838Y016904D02*
X006497Y016904D01*
X006497Y017002D02*
X006174Y017002D01*
X006174Y017101D02*
X006497Y017101D01*
X006497Y017199D02*
X006174Y017199D01*
X006156Y017298D02*
X006497Y017298D01*
X006497Y017396D02*
X006204Y017396D01*
X006247Y017495D02*
X006318Y017495D01*
X005822Y017495D02*
X005772Y017495D01*
X005772Y017593D02*
X005822Y017593D01*
X005772Y017676D02*
X005347Y017676D01*
X005347Y017821D01*
X005357Y017859D01*
X005377Y017893D01*
X005405Y017921D01*
X005439Y017941D01*
X005477Y017951D01*
X005772Y017951D01*
X005772Y017676D01*
X005772Y017692D02*
X005822Y017692D01*
X005822Y017790D02*
X005772Y017790D01*
X005772Y017889D02*
X005822Y017889D01*
X006127Y017988D02*
X005247Y017988D01*
X005247Y018086D02*
X006161Y018086D01*
X006202Y018185D02*
X005247Y018185D01*
X005247Y018283D02*
X006294Y018283D01*
X006448Y018382D02*
X005247Y018382D01*
X005247Y018480D02*
X006333Y018480D01*
X006234Y018579D02*
X005247Y018579D01*
X005247Y018677D02*
X006177Y018677D01*
X006136Y018776D02*
X005247Y018776D01*
X005247Y018874D02*
X005412Y018874D01*
X005047Y019151D02*
X005797Y019151D01*
X006247Y019269D02*
X006279Y019269D01*
X006243Y019367D02*
X006413Y019367D01*
X006881Y019367D02*
X007413Y019367D01*
X007279Y019269D02*
X007015Y019269D01*
X007098Y019170D02*
X007196Y019170D01*
X007155Y019071D02*
X007139Y019071D01*
X007881Y019367D02*
X008413Y019367D01*
X008279Y019269D02*
X008015Y019269D01*
X008098Y019170D02*
X008196Y019170D01*
X008155Y019071D02*
X008139Y019071D01*
X008881Y019367D02*
X009413Y019367D01*
X009279Y019269D02*
X009015Y019269D01*
X009098Y019170D02*
X009196Y019170D01*
X009155Y019071D02*
X009139Y019071D01*
X009881Y019367D02*
X010413Y019367D01*
X010279Y019269D02*
X010015Y019269D01*
X010098Y019170D02*
X010196Y019170D01*
X010155Y019071D02*
X010139Y019071D01*
X010881Y019367D02*
X011413Y019367D01*
X011279Y019269D02*
X011015Y019269D01*
X011098Y019170D02*
X011196Y019170D01*
X011155Y019071D02*
X011139Y019071D01*
X011881Y019367D02*
X012413Y019367D01*
X012279Y019269D02*
X012015Y019269D01*
X012098Y019170D02*
X012196Y019170D01*
X012155Y019071D02*
X012139Y019071D01*
X012881Y019367D02*
X013413Y019367D01*
X013279Y019269D02*
X013015Y019269D01*
X013098Y019170D02*
X013196Y019170D01*
X013155Y019071D02*
X013139Y019071D01*
X013881Y019367D02*
X014413Y019367D01*
X014279Y019269D02*
X014015Y019269D01*
X014098Y019170D02*
X014196Y019170D01*
X014155Y019071D02*
X014139Y019071D01*
X014881Y019367D02*
X015416Y019367D01*
X015279Y019269D02*
X015015Y019269D01*
X015098Y019170D02*
X015200Y019170D01*
X015156Y019071D02*
X015139Y019071D01*
X015597Y019071D02*
X015697Y019071D01*
X015697Y018973D02*
X015597Y018973D01*
X015597Y018851D02*
X015697Y018851D01*
X015697Y018383D01*
X015697Y017951D01*
X015597Y017951D01*
X015597Y018383D01*
X015597Y018851D01*
X015597Y018776D02*
X015697Y018776D01*
X015697Y018677D02*
X015597Y018677D01*
X015597Y018579D02*
X015697Y018579D01*
X015697Y018480D02*
X015597Y018480D01*
X015597Y018382D02*
X015697Y018382D01*
X015697Y018283D02*
X015597Y018283D01*
X015597Y018185D02*
X015697Y018185D01*
X015697Y018086D02*
X015597Y018086D01*
X015597Y017988D02*
X015697Y017988D01*
X015697Y017851D02*
X015597Y017851D01*
X015597Y017383D01*
X015525Y017394D01*
X015447Y017419D01*
X015374Y017456D01*
X015308Y017505D01*
X015250Y017562D01*
X015202Y017629D01*
X015165Y017702D01*
X015148Y017753D01*
X015088Y017607D01*
X014942Y017460D01*
X014877Y017434D01*
X014877Y017106D01*
X014742Y016971D01*
X014742Y016971D01*
X014675Y016904D01*
X014675Y016836D01*
X014625Y016715D01*
X014533Y016623D01*
X014490Y016605D01*
X014533Y016605D01*
X014571Y016595D01*
X014605Y016576D01*
X014633Y016548D01*
X014653Y016513D01*
X014663Y016475D01*
X014663Y016151D01*
X014248Y016151D01*
X014248Y016587D01*
X014161Y016623D01*
X014069Y016715D01*
X014019Y016836D01*
X014019Y016966D01*
X014069Y017087D01*
X014161Y017179D01*
X014282Y017229D01*
X014350Y017229D01*
X014417Y017296D01*
X014417Y017434D01*
X014352Y017460D01*
X014206Y017607D01*
X014147Y017750D01*
X014088Y017607D01*
X013942Y017460D01*
X013847Y017421D01*
X013847Y016601D01*
X013863Y016605D01*
X014148Y016605D01*
X014148Y016151D01*
X014248Y016151D01*
X014248Y016051D01*
X014248Y015597D01*
X014533Y015597D01*
X014571Y015607D01*
X014605Y015627D01*
X014633Y015655D01*
X014653Y015689D01*
X014663Y015727D01*
X014663Y016051D01*
X014248Y016051D01*
X014148Y016051D01*
X014148Y015597D01*
X013863Y015597D01*
X013834Y015605D01*
X013366Y015137D01*
X013687Y015137D01*
X013687Y014722D01*
X013687Y014622D01*
X013787Y014622D01*
X013787Y014207D01*
X014019Y014207D01*
X014019Y014148D01*
X013906Y014035D01*
X013321Y014035D01*
X013233Y013947D01*
X013097Y013947D01*
X013097Y013849D02*
X013233Y013849D01*
X013233Y013947D02*
X013233Y013193D01*
X013321Y013105D01*
X013567Y013105D01*
X013567Y012565D01*
X013483Y012649D01*
X013362Y012699D01*
X013232Y012699D01*
X013111Y012649D01*
X013097Y012635D01*
X013097Y014868D01*
X013233Y015004D01*
X013233Y014722D01*
X013687Y014722D01*
X013787Y014722D01*
X014241Y014722D01*
X014241Y015007D01*
X014231Y015045D01*
X014211Y015079D01*
X014183Y015107D01*
X014149Y015127D01*
X014111Y015137D01*
X013787Y015137D01*
X013787Y014722D01*
X013787Y014622D01*
X014241Y014622D01*
X014241Y014462D01*
X014282Y014479D01*
X014412Y014479D01*
X014533Y014429D01*
X014625Y014337D01*
X014675Y014216D01*
X014675Y014086D01*
X014625Y013965D01*
X014533Y013873D01*
X014412Y013823D01*
X014344Y013823D01*
X014241Y013720D01*
X014241Y013193D01*
X014153Y013105D01*
X014027Y013105D01*
X014027Y012206D01*
X014022Y012201D01*
X014022Y011858D01*
X014072Y011858D01*
X014072Y012233D01*
X014217Y012233D01*
X014255Y012223D01*
X014289Y012203D01*
X014297Y012195D01*
X014335Y012233D01*
X014347Y012233D01*
X014347Y012284D01*
X014464Y012401D01*
X014464Y012401D01*
X014547Y012484D01*
X014547Y012718D01*
X014547Y012884D01*
X014947Y013284D01*
X014947Y014218D01*
X014947Y014384D01*
X015747Y015184D01*
X015747Y016798D01*
X015747Y016964D01*
X016047Y017264D01*
X016047Y017284D01*
X016164Y017401D01*
X016330Y017401D01*
X016447Y017401D01*
X016447Y017421D01*
X016352Y017460D01*
X016206Y017607D01*
X016146Y017753D01*
X016129Y017702D01*
X016092Y017629D01*
X016044Y017562D01*
X015986Y017505D01*
X015920Y017456D01*
X015847Y017419D01*
X015769Y017394D01*
X015697Y017383D01*
X015697Y017851D01*
X015697Y017790D02*
X015597Y017790D01*
X015597Y017692D02*
X015697Y017692D01*
X015697Y017593D02*
X015597Y017593D01*
X015597Y017495D02*
X015697Y017495D01*
X015697Y017396D02*
X015597Y017396D01*
X015518Y017396D02*
X014877Y017396D01*
X014877Y017298D02*
X016061Y017298D01*
X015982Y017199D02*
X014877Y017199D01*
X014872Y017101D02*
X015884Y017101D01*
X015785Y017002D02*
X014773Y017002D01*
X014675Y016904D02*
X015747Y016904D01*
X015747Y016805D02*
X014662Y016805D01*
X014616Y016706D02*
X015747Y016706D01*
X015747Y016608D02*
X014496Y016608D01*
X014654Y016509D02*
X015747Y016509D01*
X015747Y016411D02*
X014663Y016411D01*
X014663Y016312D02*
X015747Y016312D01*
X015747Y016214D02*
X014663Y016214D01*
X014663Y016017D02*
X015747Y016017D01*
X015747Y016115D02*
X014248Y016115D01*
X014248Y016017D02*
X014148Y016017D01*
X014148Y015918D02*
X014248Y015918D01*
X014248Y015820D02*
X014148Y015820D01*
X014148Y015721D02*
X014248Y015721D01*
X014248Y015622D02*
X014148Y015622D01*
X013753Y015524D02*
X015747Y015524D01*
X015747Y015622D02*
X014598Y015622D01*
X014661Y015721D02*
X015747Y015721D01*
X015747Y015820D02*
X014663Y015820D01*
X014663Y015918D02*
X015747Y015918D01*
X015747Y015425D02*
X013654Y015425D01*
X013555Y015327D02*
X015747Y015327D01*
X015747Y015228D02*
X013457Y015228D01*
X013687Y015130D02*
X013787Y015130D01*
X013787Y015031D02*
X013687Y015031D01*
X013687Y014933D02*
X013787Y014933D01*
X013787Y014834D02*
X013687Y014834D01*
X013687Y014736D02*
X013787Y014736D01*
X013787Y014637D02*
X015200Y014637D01*
X015101Y014539D02*
X014241Y014539D01*
X014241Y014736D02*
X015299Y014736D01*
X015397Y014834D02*
X014241Y014834D01*
X014241Y014933D02*
X015496Y014933D01*
X015594Y015031D02*
X014235Y015031D01*
X014139Y015130D02*
X015693Y015130D01*
X015947Y015101D02*
X015147Y014301D01*
X015147Y013201D01*
X014747Y012801D01*
X014747Y012401D01*
X014547Y012201D01*
X014547Y011833D01*
X014597Y011783D01*
X014597Y011351D01*
X014447Y011201D01*
X014447Y010851D01*
X014221Y011089D02*
X012968Y011089D01*
X012997Y011118D02*
X013297Y011418D01*
X013297Y011471D01*
X013335Y011433D01*
X013759Y011433D01*
X013797Y011471D01*
X013805Y011463D01*
X013839Y011443D01*
X013877Y011433D01*
X014022Y011433D01*
X014022Y011808D01*
X014072Y011808D01*
X014072Y011433D01*
X014217Y011433D01*
X014255Y011443D01*
X014289Y011463D01*
X014297Y011471D01*
X014335Y011433D01*
X014396Y011433D01*
X014247Y011284D01*
X014247Y011118D01*
X014247Y011115D01*
X014169Y011037D01*
X014119Y010916D01*
X014119Y010786D01*
X014169Y010665D01*
X014183Y010651D01*
X012160Y010651D01*
X010980Y010651D01*
X010873Y010758D01*
X010983Y010803D01*
X011075Y010895D01*
X011119Y011001D01*
X012880Y011001D01*
X012997Y011118D01*
X013067Y011188D02*
X014247Y011188D01*
X014250Y011287D02*
X013165Y011287D01*
X013264Y011385D02*
X014348Y011385D01*
X014072Y011484D02*
X014022Y011484D01*
X014022Y011582D02*
X014072Y011582D01*
X014072Y011681D02*
X014022Y011681D01*
X014022Y011779D02*
X014072Y011779D01*
X014072Y011878D02*
X014022Y011878D01*
X014022Y011976D02*
X014072Y011976D01*
X014072Y012075D02*
X014022Y012075D01*
X014022Y012173D02*
X014072Y012173D01*
X014027Y012272D02*
X014347Y012272D01*
X014434Y012371D02*
X014027Y012371D01*
X014027Y012469D02*
X014532Y012469D01*
X014547Y012568D02*
X014027Y012568D01*
X014027Y012666D02*
X014547Y012666D01*
X014547Y012765D02*
X014027Y012765D01*
X014027Y012863D02*
X014547Y012863D01*
X014625Y012962D02*
X014027Y012962D01*
X014027Y013060D02*
X014723Y013060D01*
X014822Y013159D02*
X014207Y013159D01*
X014241Y013257D02*
X014920Y013257D01*
X014947Y013356D02*
X014241Y013356D01*
X014241Y013455D02*
X014947Y013455D01*
X014947Y013553D02*
X014241Y013553D01*
X014241Y013652D02*
X014947Y013652D01*
X014947Y013750D02*
X014271Y013750D01*
X014474Y013849D02*
X014947Y013849D01*
X014947Y013947D02*
X014607Y013947D01*
X014658Y014046D02*
X014947Y014046D01*
X014947Y014144D02*
X014675Y014144D01*
X014664Y014243D02*
X014947Y014243D01*
X014947Y014341D02*
X014621Y014341D01*
X014507Y014440D02*
X015003Y014440D01*
X015397Y014101D02*
X015397Y013051D01*
X015047Y012701D01*
X015047Y011833D01*
X015047Y011101D01*
X014947Y011001D01*
X014947Y010851D01*
X015597Y010851D02*
X015597Y011751D01*
X015547Y011833D01*
X015547Y012651D01*
X016247Y013351D01*
X016247Y013774D01*
X016274Y013651D01*
X016274Y013828D01*
X016697Y014251D01*
X018554Y014251D01*
X018554Y013995D02*
X016991Y013995D01*
X016847Y013851D01*
X016847Y013524D01*
X016870Y013501D01*
X016047Y012678D01*
X016047Y011833D01*
X016097Y011751D01*
X016097Y010851D01*
X016323Y011089D02*
X017971Y011089D01*
X017969Y011087D02*
X017919Y010966D01*
X017919Y010856D01*
X017897Y010834D01*
X017897Y010988D01*
X017809Y011076D01*
X017185Y011076D01*
X017110Y011001D01*
X016764Y011001D01*
X016647Y010884D01*
X016597Y010834D01*
X016597Y010668D01*
X016597Y010651D01*
X016361Y010651D01*
X016375Y010665D01*
X016425Y010786D01*
X016425Y010916D01*
X016375Y011037D01*
X016297Y011115D01*
X016297Y011471D01*
X016347Y011521D01*
X016347Y012145D01*
X016259Y012233D01*
X016247Y012233D01*
X016247Y012595D01*
X016753Y013101D01*
X017037Y013101D01*
X017411Y013101D01*
X017497Y013187D01*
X017532Y013173D01*
X017662Y013173D01*
X017783Y013223D01*
X017817Y013257D01*
X017817Y012856D01*
X017952Y012721D01*
X018467Y012206D01*
X018467Y011648D01*
X018467Y011145D01*
X018433Y011179D01*
X018312Y011229D01*
X018182Y011229D01*
X018061Y011179D01*
X017969Y011087D01*
X017929Y010991D02*
X017894Y010991D01*
X017897Y010892D02*
X017919Y010892D01*
X018247Y010901D02*
X017847Y010501D01*
X017547Y010501D01*
X017497Y010451D01*
X017497Y010101D02*
X013397Y010101D01*
X012547Y009251D01*
X012547Y008069D01*
X012797Y007707D02*
X012805Y007699D01*
X012839Y007680D01*
X012877Y007669D01*
X013022Y007669D01*
X013022Y008044D01*
X013072Y008044D01*
X013072Y007669D01*
X013217Y007669D01*
X013255Y007680D01*
X013289Y007699D01*
X013297Y007707D01*
X013335Y007669D01*
X013347Y007669D01*
X013347Y007334D01*
X012764Y006751D01*
X012608Y006751D01*
X012595Y006783D01*
X012479Y006899D01*
X012329Y006961D01*
X012204Y006961D01*
X012757Y007514D01*
X012757Y007669D01*
X012759Y007669D01*
X012797Y007707D01*
X012757Y007640D02*
X013347Y007640D01*
X013347Y007542D02*
X012757Y007542D01*
X012686Y007443D02*
X013347Y007443D01*
X013347Y007345D02*
X012588Y007345D01*
X012489Y007246D02*
X013259Y007246D01*
X013161Y007148D02*
X012391Y007148D01*
X012292Y007049D02*
X013062Y007049D01*
X012964Y006951D02*
X012354Y006951D01*
X012526Y006852D02*
X012865Y006852D01*
X012767Y006754D02*
X012607Y006754D01*
X012847Y006551D02*
X013547Y007251D01*
X013547Y008069D01*
X013797Y007707D02*
X013835Y007669D01*
X013847Y007669D01*
X013847Y006831D01*
X013799Y006783D01*
X013737Y006633D01*
X013737Y006470D01*
X013799Y006319D01*
X013915Y006204D01*
X013997Y006170D01*
X013997Y005745D01*
X014114Y005628D01*
X014483Y005259D01*
X014483Y004585D01*
X014571Y004497D01*
X015325Y004497D01*
X015393Y004564D01*
X015393Y004465D01*
X015481Y004377D01*
X016313Y004377D01*
X016401Y004465D01*
X016401Y004651D01*
X016430Y004651D01*
X016547Y004768D01*
X016547Y005790D01*
X016579Y005804D01*
X016695Y005919D01*
X016757Y006070D01*
X016757Y006233D01*
X016695Y006383D01*
X016579Y006499D01*
X016547Y006512D01*
X016547Y006718D01*
X016814Y006451D01*
X016980Y006451D01*
X017067Y006451D01*
X016999Y006383D01*
X016937Y006233D01*
X016937Y006070D01*
X016999Y005919D01*
X017115Y005804D01*
X017147Y005790D01*
X017147Y004768D01*
X017264Y004651D01*
X017313Y004651D01*
X017313Y004465D01*
X017401Y004377D01*
X018233Y004377D01*
X018321Y004465D01*
X018321Y005219D01*
X018233Y005307D01*
X017547Y005307D01*
X017547Y005790D01*
X017579Y005804D01*
X017695Y005919D01*
X017743Y006035D01*
X017743Y006010D01*
X018197Y006010D01*
X018197Y005910D01*
X018297Y005910D01*
X018297Y006010D01*
X018751Y006010D01*
X018751Y006295D01*
X018741Y006333D01*
X018730Y006352D01*
X018847Y006468D01*
X018966Y006587D01*
X019479Y006587D01*
X019652Y006415D01*
X018881Y006415D01*
X018793Y006327D01*
X018793Y005573D01*
X018881Y005485D01*
X019097Y005485D01*
X019097Y005228D01*
X018759Y005228D01*
X018671Y005140D01*
X018671Y004543D01*
X018759Y004456D01*
X019435Y004456D01*
X019523Y004543D01*
X019523Y005140D01*
X019497Y005166D01*
X019497Y005485D01*
X019697Y005485D01*
X019697Y003534D01*
X018584Y002421D01*
X018544Y002421D01*
X018352Y002342D01*
X018206Y002196D01*
X018147Y002053D01*
X018088Y002196D01*
X017942Y002342D01*
X017750Y002421D01*
X017544Y002421D01*
X017352Y002342D01*
X017206Y002196D01*
X017147Y002053D01*
X017088Y002196D01*
X016942Y002342D01*
X016750Y002421D01*
X016544Y002421D01*
X016352Y002342D01*
X016206Y002196D01*
X016147Y002053D01*
X016088Y002196D01*
X015942Y002342D01*
X015750Y002421D01*
X015544Y002421D01*
X015352Y002342D01*
X015206Y002196D01*
X015147Y002053D01*
X015088Y002196D01*
X014942Y002342D01*
X014750Y002421D01*
X014544Y002421D01*
X014352Y002342D01*
X014206Y002196D01*
X014146Y002049D01*
X014129Y002101D01*
X014092Y002174D01*
X014044Y002240D01*
X013986Y002298D01*
X013920Y002346D01*
X013847Y002383D01*
X013769Y002408D01*
X013697Y002420D01*
X013697Y001951D01*
X013597Y001951D01*
X013597Y002420D01*
X013525Y002408D01*
X013447Y002383D01*
X013375Y002346D01*
X013780Y002751D01*
X017883Y002751D01*
X017961Y002673D01*
X018082Y002623D01*
X018212Y002623D01*
X018333Y002673D01*
X018425Y002765D01*
X018475Y002886D01*
X018475Y003016D01*
X018425Y003137D01*
X018333Y003229D01*
X018212Y003279D01*
X018207Y003279D01*
X018229Y003285D01*
X018263Y003305D01*
X018291Y003333D01*
X018311Y003367D01*
X018321Y003405D01*
X018321Y003690D01*
X017867Y003690D01*
X017867Y003790D01*
X017767Y003790D01*
X017767Y004205D01*
X017443Y004205D01*
X017405Y004195D01*
X017371Y004175D01*
X017343Y004147D01*
X017323Y004113D01*
X017313Y004075D01*
X017313Y003790D01*
X017767Y003790D01*
X017767Y003690D01*
X017867Y003690D01*
X017867Y003275D01*
X018072Y003275D01*
X017961Y003229D01*
X017883Y003151D01*
X013780Y003151D01*
X013614Y003151D01*
X012845Y002382D01*
X012750Y002421D01*
X012544Y002421D01*
X012507Y002406D01*
X012507Y002538D01*
X011625Y003420D01*
X011625Y003466D01*
X011575Y003587D01*
X011483Y003679D01*
X011407Y003711D01*
X011407Y004509D01*
X011419Y004497D01*
X012173Y004497D01*
X012261Y004585D01*
X012261Y005418D01*
X012179Y005500D01*
X012330Y005651D01*
X012447Y005768D01*
X013997Y005768D01*
X013997Y005867D02*
X012447Y005867D01*
X012447Y005965D02*
X013997Y005965D01*
X013997Y006064D02*
X012447Y006064D01*
X012447Y006162D02*
X013997Y006162D01*
X013857Y006261D02*
X012536Y006261D01*
X012479Y006204D02*
X012595Y006319D01*
X012608Y006351D01*
X012764Y006351D01*
X012930Y006351D01*
X013630Y007051D01*
X013747Y007168D01*
X013747Y007669D01*
X013759Y007669D01*
X013797Y007707D01*
X013747Y007640D02*
X013847Y007640D01*
X013847Y007542D02*
X013747Y007542D01*
X013747Y007443D02*
X013847Y007443D01*
X013847Y007345D02*
X013747Y007345D01*
X013747Y007246D02*
X013847Y007246D01*
X013847Y007148D02*
X013726Y007148D01*
X013628Y007049D02*
X013847Y007049D01*
X013847Y006951D02*
X013529Y006951D01*
X013431Y006852D02*
X013847Y006852D01*
X013787Y006754D02*
X013332Y006754D01*
X013234Y006655D02*
X013746Y006655D01*
X013737Y006556D02*
X013135Y006556D01*
X013037Y006458D02*
X013742Y006458D01*
X013783Y006359D02*
X012938Y006359D01*
X012847Y006551D02*
X012247Y006551D01*
X012247Y005851D01*
X011796Y005400D01*
X011796Y005001D01*
X012261Y004980D02*
X012848Y004980D01*
X012848Y004951D02*
X012848Y005051D01*
X012433Y005051D01*
X012433Y005375D01*
X012443Y005413D01*
X012463Y005448D01*
X012491Y005476D01*
X012525Y005495D01*
X012563Y005505D01*
X012848Y005505D01*
X012848Y005051D01*
X012948Y005051D01*
X012948Y005505D01*
X013233Y005505D01*
X013271Y005495D01*
X013305Y005476D01*
X013333Y005448D01*
X013353Y005413D01*
X013363Y005375D01*
X013363Y005051D01*
X012948Y005051D01*
X012948Y004951D01*
X012948Y004497D01*
X013233Y004497D01*
X013271Y004507D01*
X013305Y004527D01*
X013333Y004555D01*
X013353Y004589D01*
X013363Y004627D01*
X013363Y004951D01*
X012948Y004951D01*
X012848Y004951D01*
X012433Y004951D01*
X012433Y004627D01*
X012443Y004589D01*
X012463Y004555D01*
X012491Y004527D01*
X012525Y004507D01*
X012563Y004497D01*
X012848Y004497D01*
X012848Y004951D01*
X012848Y004881D02*
X012948Y004881D01*
X012948Y004783D02*
X012848Y004783D01*
X012848Y004684D02*
X012948Y004684D01*
X012948Y004586D02*
X012848Y004586D01*
X012445Y004586D02*
X012261Y004586D01*
X012261Y004684D02*
X012433Y004684D01*
X012433Y004783D02*
X012261Y004783D01*
X012261Y004881D02*
X012433Y004881D01*
X012433Y005078D02*
X012261Y005078D01*
X012261Y005177D02*
X012433Y005177D01*
X012433Y005275D02*
X012261Y005275D01*
X012261Y005374D02*
X012433Y005374D01*
X012488Y005473D02*
X012206Y005473D01*
X012250Y005571D02*
X014171Y005571D01*
X014181Y005505D02*
X013896Y005505D01*
X013896Y005051D01*
X014311Y005051D01*
X014311Y005375D01*
X014301Y005413D01*
X014281Y005448D01*
X014253Y005476D01*
X014219Y005495D01*
X014181Y005505D01*
X014256Y005473D02*
X014270Y005473D01*
X014311Y005374D02*
X014369Y005374D01*
X014311Y005275D02*
X014467Y005275D01*
X014483Y005177D02*
X014311Y005177D01*
X014311Y005078D02*
X014483Y005078D01*
X014483Y004980D02*
X013896Y004980D01*
X013896Y004951D02*
X013896Y005051D01*
X013796Y005051D01*
X013796Y004951D01*
X013896Y004951D01*
X014311Y004951D01*
X014311Y004627D01*
X014301Y004589D01*
X014281Y004555D01*
X014253Y004527D01*
X014219Y004507D01*
X014181Y004497D01*
X013896Y004497D01*
X013896Y004951D01*
X013896Y004881D02*
X013796Y004881D01*
X013796Y004951D02*
X013796Y004497D01*
X013511Y004497D01*
X013473Y004507D01*
X013439Y004527D01*
X013411Y004555D01*
X013391Y004589D01*
X013381Y004627D01*
X013381Y004951D01*
X013796Y004951D01*
X013796Y004980D02*
X012948Y004980D01*
X012948Y005078D02*
X012848Y005078D01*
X012848Y005177D02*
X012948Y005177D01*
X012948Y005275D02*
X012848Y005275D01*
X012848Y005374D02*
X012948Y005374D01*
X012948Y005473D02*
X012848Y005473D01*
X013308Y005473D02*
X013436Y005473D01*
X013439Y005476D02*
X013411Y005448D01*
X013391Y005413D01*
X013381Y005375D01*
X013381Y005051D01*
X013796Y005051D01*
X013796Y005505D01*
X013511Y005505D01*
X013473Y005495D01*
X013439Y005476D01*
X013381Y005374D02*
X013363Y005374D01*
X013363Y005275D02*
X013381Y005275D01*
X013381Y005177D02*
X013363Y005177D01*
X013363Y005078D02*
X013381Y005078D01*
X013363Y004881D02*
X013381Y004881D01*
X013381Y004783D02*
X013363Y004783D01*
X013363Y004684D02*
X013381Y004684D01*
X013393Y004586D02*
X013351Y004586D01*
X013796Y004586D02*
X013896Y004586D01*
X013896Y004684D02*
X013796Y004684D01*
X013796Y004783D02*
X013896Y004783D01*
X013896Y005078D02*
X013796Y005078D01*
X013796Y005177D02*
X013896Y005177D01*
X013896Y005275D02*
X013796Y005275D01*
X013796Y005374D02*
X013896Y005374D01*
X013896Y005473D02*
X013796Y005473D01*
X014073Y005670D02*
X012348Y005670D01*
X012447Y005768D02*
X012447Y006190D01*
X012479Y006204D01*
X010947Y007201D02*
X011547Y007801D01*
X011547Y008069D01*
X011597Y008151D01*
X011597Y008751D01*
X011297Y009051D01*
X010247Y009051D01*
X009847Y009451D01*
X009847Y010601D01*
X009297Y011151D01*
X009265Y011551D02*
X008897Y011551D01*
X009265Y011551D02*
X009547Y011833D01*
X009497Y011851D01*
X009197Y011851D01*
X008497Y012551D01*
X008397Y012551D01*
X008397Y013051D01*
X008797Y013451D01*
X008947Y013451D01*
X009547Y014051D01*
X009547Y016276D01*
X009547Y016151D01*
X008997Y016701D01*
X006697Y016701D01*
X006697Y017851D01*
X006647Y017901D01*
X005822Y017396D02*
X005772Y017396D01*
X005738Y017298D02*
X005837Y017298D01*
X005837Y017199D02*
X005738Y017199D01*
X005738Y017101D02*
X005837Y017101D01*
X005401Y017101D02*
X005297Y017101D01*
X005297Y017199D02*
X005401Y017199D01*
X005419Y017298D02*
X005297Y017298D01*
X005297Y017396D02*
X005390Y017396D01*
X005347Y017495D02*
X005297Y017495D01*
X005297Y017593D02*
X005347Y017593D01*
X005347Y017692D02*
X005247Y017692D01*
X005247Y017790D02*
X005347Y017790D01*
X005375Y017889D02*
X005247Y017889D01*
X004847Y017889D02*
X004219Y017889D01*
X004217Y017893D02*
X004189Y017921D01*
X004155Y017941D01*
X004117Y017951D01*
X003822Y017951D01*
X003822Y017676D01*
X004247Y017676D01*
X004247Y017821D01*
X004237Y017859D01*
X004217Y017893D01*
X004247Y017790D02*
X004847Y017790D01*
X004847Y017692D02*
X004247Y017692D01*
X004247Y017626D02*
X003822Y017626D01*
X003822Y017676D01*
X003772Y017676D01*
X003772Y017951D01*
X003477Y017951D01*
X003439Y017941D01*
X003405Y017921D01*
X003377Y017893D01*
X003357Y017859D01*
X003347Y017821D01*
X003347Y017731D01*
X003313Y017765D01*
X002481Y017765D01*
X002407Y017691D01*
X002407Y018011D01*
X002481Y017937D01*
X003313Y017937D01*
X003401Y018025D01*
X003401Y018779D01*
X003313Y018867D01*
X003277Y018867D01*
X003281Y018871D01*
X003415Y018871D01*
X003435Y018851D01*
X004159Y018851D01*
X004247Y018939D01*
X004247Y018951D01*
X004847Y018951D01*
X004847Y017684D01*
X004847Y017518D01*
X004897Y017468D01*
X004897Y017377D01*
X004308Y017377D01*
X004220Y017289D01*
X004220Y017161D01*
X004107Y017161D01*
X004075Y017237D01*
X003983Y017329D01*
X003930Y017351D01*
X004117Y017351D01*
X004155Y017361D01*
X004189Y017381D01*
X004217Y017409D01*
X004237Y017443D01*
X004247Y017481D01*
X004247Y017626D01*
X004247Y017593D02*
X004847Y017593D01*
X004871Y017495D02*
X004247Y017495D01*
X004204Y017396D02*
X004897Y017396D01*
X005297Y017002D02*
X005401Y017002D01*
X006174Y016805D02*
X006497Y016805D01*
X006497Y016706D02*
X006174Y016706D01*
X006158Y016608D02*
X006507Y016608D01*
X006003Y015774D02*
X005997Y015768D01*
X005997Y015451D01*
X005797Y015251D01*
X005797Y014651D01*
X005597Y015048D02*
X005559Y015086D01*
X003935Y015086D01*
X003847Y014998D01*
X003847Y014181D01*
X002302Y014181D01*
X002167Y014046D01*
X002150Y014046D01*
X002167Y014046D02*
X002167Y013856D01*
X002167Y008485D01*
X002119Y008437D01*
X002069Y008316D01*
X002069Y008186D01*
X002119Y008065D01*
X002211Y007973D01*
X002332Y007923D01*
X002462Y007923D01*
X002583Y007973D01*
X002675Y008065D01*
X002725Y008186D01*
X002725Y008316D01*
X002675Y008437D01*
X002627Y008485D01*
X002627Y013721D01*
X003403Y013721D01*
X003319Y013637D01*
X003269Y013516D01*
X003269Y013406D01*
X003147Y013284D01*
X003147Y013118D01*
X003147Y009868D01*
X003264Y009751D01*
X003264Y009751D01*
X003447Y009568D01*
X003564Y009451D01*
X004004Y009451D01*
X004019Y009415D01*
X004096Y009338D01*
X003593Y009338D01*
X003505Y009250D01*
X003505Y009181D01*
X003502Y009181D01*
X003367Y009046D01*
X003317Y008996D01*
X003317Y008806D01*
X003317Y008146D01*
X002762Y007591D01*
X002633Y007463D01*
X002623Y007458D01*
X002508Y007344D01*
X002446Y007194D01*
X002446Y007032D01*
X002508Y006882D01*
X002617Y006773D01*
X002617Y006096D01*
X002552Y006031D01*
X002417Y005896D01*
X002417Y003302D01*
X002397Y003294D01*
X002397Y003470D01*
X002091Y003776D01*
X002397Y004082D01*
X002397Y004620D01*
X002016Y005001D01*
X001969Y005001D01*
X001992Y005010D01*
X002138Y005157D01*
X002217Y005348D01*
X002217Y005555D01*
X002138Y005746D01*
X001992Y005892D01*
X001849Y005951D01*
X001992Y006010D01*
X002138Y006157D01*
X002217Y006348D01*
X002217Y006555D01*
X002138Y006746D01*
X001992Y006892D01*
X001800Y006971D01*
X001594Y006971D01*
X001402Y006892D01*
X001327Y006816D01*
X001327Y007341D01*
X001374Y007306D01*
X001447Y007269D01*
X001525Y007244D01*
X001597Y007233D01*
X001597Y007701D01*
X001697Y007701D01*
X001697Y007233D01*
X001769Y007244D01*
X001847Y007269D01*
X001920Y007306D01*
X001986Y007355D01*
X002044Y007412D01*
X002092Y007479D01*
X002129Y007552D01*
X002154Y007629D01*
X002166Y007701D01*
X001697Y007701D01*
X001697Y007801D01*
X002166Y007801D01*
X002154Y007873D01*
X002129Y007951D01*
X002092Y008024D01*
X002044Y008090D01*
X001986Y008148D01*
X001920Y008196D01*
X001847Y008233D01*
X001795Y008250D01*
X001942Y008310D01*
X002088Y008457D01*
X002167Y008648D01*
X002167Y008855D01*
X002088Y009046D01*
X001942Y009192D01*
X001799Y009251D01*
X001942Y009310D01*
X002088Y009457D01*
X002167Y009648D01*
X002167Y009855D01*
X002088Y010046D01*
X001942Y010192D01*
X001799Y010251D01*
X001942Y010310D01*
X002088Y010457D01*
X002167Y010648D01*
X002167Y010855D01*
X002088Y011046D01*
X001942Y011192D01*
X001799Y011251D01*
X001942Y011310D01*
X002088Y011457D01*
X002167Y011648D01*
X002167Y011855D01*
X002088Y012046D01*
X001942Y012192D01*
X001799Y012251D01*
X001942Y012310D01*
X002088Y012457D01*
X002167Y012648D01*
X002167Y012855D01*
X002088Y013046D01*
X001942Y013192D01*
X001750Y013271D01*
X001724Y013271D01*
X001614Y013381D01*
X001750Y013381D01*
X001942Y013460D01*
X002088Y013607D01*
X002167Y013798D01*
X002167Y014005D01*
X002088Y014196D01*
X001942Y014342D01*
X001799Y014401D01*
X001942Y014460D01*
X002088Y014607D01*
X002167Y014798D01*
X002167Y015005D01*
X002130Y015095D01*
X002182Y015073D01*
X002312Y015073D01*
X002433Y015123D01*
X002525Y015215D01*
X002575Y015336D01*
X002575Y015466D01*
X002568Y015484D01*
X002623Y015429D01*
X002773Y015367D01*
X002935Y015367D01*
X003084Y015429D01*
X003199Y015544D01*
X003247Y015660D01*
X003296Y015544D01*
X003410Y015429D01*
X003560Y015367D01*
X003722Y015367D01*
X003872Y015429D01*
X003986Y015544D01*
X004035Y015660D01*
X004083Y015544D01*
X004198Y015429D01*
X004347Y015367D01*
X004510Y015367D01*
X004659Y015429D01*
X004774Y015544D01*
X004822Y015660D01*
X004870Y015544D01*
X004985Y015429D01*
X005135Y015367D01*
X005297Y015367D01*
X005447Y015429D01*
X005561Y015544D01*
X005610Y015660D01*
X005658Y015544D01*
X005732Y015469D01*
X005714Y015451D01*
X005597Y015334D01*
X005597Y015048D01*
X005597Y015130D02*
X002440Y015130D01*
X002530Y015228D02*
X005597Y015228D01*
X005597Y015327D02*
X002571Y015327D01*
X002575Y015425D02*
X002631Y015425D01*
X002247Y015401D02*
X002207Y015441D01*
X002207Y018401D01*
X002247Y018401D01*
X002257Y018391D01*
X002407Y017988D02*
X002430Y017988D01*
X002407Y017889D02*
X003375Y017889D01*
X003364Y017988D02*
X004847Y017988D01*
X004847Y018086D02*
X003401Y018086D01*
X003401Y018185D02*
X004847Y018185D01*
X004847Y018283D02*
X003401Y018283D01*
X003401Y018382D02*
X004847Y018382D01*
X004847Y018480D02*
X003401Y018480D01*
X003401Y018579D02*
X004847Y018579D01*
X004847Y018677D02*
X003401Y018677D01*
X003401Y018776D02*
X004847Y018776D01*
X004847Y018874D02*
X004182Y018874D01*
X004243Y019367D02*
X005351Y019367D01*
X003822Y017889D02*
X003772Y017889D01*
X003772Y017790D02*
X003822Y017790D01*
X003822Y017692D02*
X003772Y017692D01*
X003347Y017790D02*
X002407Y017790D01*
X002407Y017692D02*
X002408Y017692D01*
X004014Y017298D02*
X004229Y017298D01*
X004220Y017199D02*
X004091Y017199D01*
X004050Y015622D02*
X004019Y015622D01*
X003967Y015524D02*
X004103Y015524D01*
X004206Y015425D02*
X003863Y015425D01*
X003880Y015031D02*
X002156Y015031D01*
X002167Y014933D02*
X003847Y014933D01*
X003847Y014834D02*
X002167Y014834D01*
X002141Y014736D02*
X003847Y014736D01*
X003847Y014637D02*
X002100Y014637D01*
X002020Y014539D02*
X003847Y014539D01*
X003847Y014440D02*
X001892Y014440D01*
X001942Y014341D02*
X003847Y014341D01*
X003847Y014243D02*
X002041Y014243D01*
X002109Y014144D02*
X002265Y014144D01*
X002167Y013947D02*
X002167Y013947D01*
X002167Y013849D02*
X002167Y013849D01*
X002167Y013750D02*
X002147Y013750D01*
X002167Y013652D02*
X002106Y013652D01*
X002167Y013553D02*
X002034Y013553D01*
X001927Y013455D02*
X002167Y013455D01*
X002167Y013356D02*
X001639Y013356D01*
X001784Y013257D02*
X002167Y013257D01*
X002167Y013159D02*
X001975Y013159D01*
X002073Y013060D02*
X002167Y013060D01*
X002167Y012962D02*
X002123Y012962D01*
X002163Y012863D02*
X002167Y012863D01*
X002167Y012765D02*
X002167Y012765D01*
X002167Y012666D02*
X002167Y012666D01*
X002167Y012568D02*
X002134Y012568D01*
X002167Y012469D02*
X002093Y012469D01*
X002167Y012371D02*
X002002Y012371D01*
X001849Y012272D02*
X002167Y012272D01*
X002167Y012173D02*
X001960Y012173D01*
X002059Y012075D02*
X002167Y012075D01*
X002167Y011976D02*
X002117Y011976D01*
X002157Y011878D02*
X002167Y011878D01*
X002167Y011779D02*
X002167Y011779D01*
X002167Y011681D02*
X002167Y011681D01*
X002167Y011582D02*
X002140Y011582D01*
X002167Y011484D02*
X002099Y011484D01*
X002167Y011385D02*
X002016Y011385D01*
X001884Y011287D02*
X002167Y011287D01*
X002167Y011188D02*
X001945Y011188D01*
X002044Y011089D02*
X002167Y011089D01*
X002167Y010991D02*
X002111Y010991D01*
X002151Y010892D02*
X002167Y010892D01*
X002167Y010794D02*
X002167Y010794D01*
X002167Y010695D02*
X002167Y010695D01*
X002167Y010597D02*
X002146Y010597D01*
X002167Y010498D02*
X002105Y010498D01*
X002167Y010400D02*
X002031Y010400D01*
X001919Y010301D02*
X002167Y010301D01*
X002167Y010203D02*
X001916Y010203D01*
X002029Y010104D02*
X002167Y010104D01*
X002167Y010006D02*
X002104Y010006D01*
X002145Y009907D02*
X002167Y009907D01*
X002167Y009808D02*
X002167Y009808D01*
X002167Y009710D02*
X002167Y009710D01*
X002167Y009611D02*
X002152Y009611D01*
X002167Y009513D02*
X002111Y009513D01*
X002167Y009414D02*
X002045Y009414D01*
X001947Y009316D02*
X002167Y009316D01*
X002167Y009217D02*
X001881Y009217D01*
X002015Y009119D02*
X002167Y009119D01*
X002167Y009020D02*
X002098Y009020D01*
X002139Y008922D02*
X002167Y008922D01*
X002167Y008823D02*
X002167Y008823D01*
X002167Y008724D02*
X002167Y008724D01*
X002158Y008626D02*
X002167Y008626D01*
X002167Y008527D02*
X002117Y008527D01*
X002115Y008429D02*
X002060Y008429D01*
X002075Y008330D02*
X001961Y008330D01*
X002069Y008232D02*
X001849Y008232D01*
X002000Y008133D02*
X002091Y008133D01*
X002084Y008035D02*
X002150Y008035D01*
X002134Y007936D02*
X002300Y007936D01*
X002160Y007838D02*
X003008Y007838D01*
X003107Y007936D02*
X002494Y007936D01*
X002644Y008035D02*
X003205Y008035D01*
X003304Y008133D02*
X002703Y008133D01*
X002725Y008232D02*
X003317Y008232D01*
X003317Y008330D02*
X002719Y008330D01*
X002679Y008429D02*
X003317Y008429D01*
X003317Y008527D02*
X002627Y008527D01*
X002627Y008626D02*
X003317Y008626D01*
X003317Y008724D02*
X002627Y008724D01*
X002627Y008823D02*
X003317Y008823D01*
X003317Y008922D02*
X002627Y008922D01*
X002627Y009020D02*
X003341Y009020D01*
X003439Y009119D02*
X002627Y009119D01*
X002627Y009217D02*
X003505Y009217D01*
X003571Y009316D02*
X002627Y009316D01*
X002627Y009414D02*
X004020Y009414D01*
X004247Y009651D02*
X004297Y009601D01*
X004247Y009651D02*
X003647Y009651D01*
X003347Y009951D01*
X003347Y013201D01*
X003597Y013451D01*
X003925Y013455D02*
X005236Y013455D01*
X005261Y013479D02*
X005169Y013387D01*
X005119Y013266D01*
X005119Y013198D01*
X004902Y012981D01*
X004842Y012981D01*
X004652Y012981D01*
X004517Y012846D01*
X004517Y012606D01*
X004400Y012606D01*
X004312Y012518D01*
X004312Y011604D01*
X004400Y011516D01*
X004517Y011516D01*
X004517Y011206D01*
X004652Y011071D01*
X004842Y011071D01*
X005167Y011071D01*
X005167Y009735D01*
X005119Y009687D01*
X005069Y009566D01*
X005069Y009436D01*
X005109Y009339D01*
X004952Y009181D01*
X004789Y009181D01*
X004789Y009250D01*
X004701Y009338D01*
X004498Y009338D01*
X004575Y009415D01*
X004625Y009536D01*
X004625Y009666D01*
X004575Y009787D01*
X004498Y009865D01*
X004659Y009865D01*
X004697Y009875D01*
X004731Y009895D01*
X004759Y009922D01*
X004779Y009957D01*
X004789Y009995D01*
X004789Y010201D01*
X004197Y010201D01*
X004197Y010301D01*
X004097Y010301D01*
X004097Y010637D01*
X003635Y010637D01*
X003597Y010627D01*
X003563Y010607D01*
X003547Y010591D01*
X003547Y011516D01*
X003807Y011516D01*
X003807Y012011D01*
X003907Y012011D01*
X003907Y011516D01*
X004172Y011516D01*
X004210Y011526D01*
X004244Y011546D01*
X004272Y011574D01*
X004292Y011608D01*
X004302Y011646D01*
X004302Y012011D01*
X003907Y012011D01*
X003907Y012111D01*
X004302Y012111D01*
X004302Y012476D01*
X004292Y012514D01*
X004272Y012548D01*
X004244Y012576D01*
X004210Y012596D01*
X004172Y012606D01*
X003907Y012606D01*
X003907Y012111D01*
X003807Y012111D01*
X003807Y012606D01*
X003547Y012606D01*
X003547Y013118D01*
X003552Y013123D01*
X003662Y013123D01*
X003783Y013173D01*
X003875Y013265D01*
X003925Y013386D01*
X003925Y013516D01*
X003875Y013637D01*
X003791Y013721D01*
X006317Y013721D01*
X006317Y013396D01*
X005562Y012641D01*
X005527Y012606D01*
X005300Y012606D01*
X005212Y012518D01*
X005212Y011604D01*
X005285Y011531D01*
X005129Y011531D01*
X005202Y011604D01*
X005202Y012518D01*
X005146Y012575D01*
X005444Y012873D01*
X005512Y012873D01*
X005633Y012923D01*
X005725Y013015D01*
X005775Y013136D01*
X005775Y013266D01*
X005725Y013387D01*
X005633Y013479D01*
X005512Y013529D01*
X005382Y013529D01*
X005261Y013479D01*
X005156Y013356D02*
X003913Y013356D01*
X003867Y013257D02*
X005119Y013257D01*
X005079Y013159D02*
X003749Y013159D01*
X003547Y013060D02*
X004981Y013060D01*
X004632Y012962D02*
X003547Y012962D01*
X003547Y012863D02*
X004534Y012863D01*
X004517Y012765D02*
X003547Y012765D01*
X003547Y012666D02*
X004517Y012666D01*
X004361Y012568D02*
X004253Y012568D01*
X004302Y012469D02*
X004312Y012469D01*
X004302Y012371D02*
X004312Y012371D01*
X004302Y012272D02*
X004312Y012272D01*
X004302Y012173D02*
X004312Y012173D01*
X004312Y012075D02*
X003907Y012075D01*
X003907Y012173D02*
X003807Y012173D01*
X003807Y012272D02*
X003907Y012272D01*
X003907Y012371D02*
X003807Y012371D01*
X003807Y012469D02*
X003907Y012469D01*
X003907Y012568D02*
X003807Y012568D01*
X003807Y011976D02*
X003907Y011976D01*
X003907Y011878D02*
X003807Y011878D01*
X003807Y011779D02*
X003907Y011779D01*
X003907Y011681D02*
X003807Y011681D01*
X003807Y011582D02*
X003907Y011582D01*
X004277Y011582D02*
X004334Y011582D01*
X004312Y011681D02*
X004302Y011681D01*
X004302Y011779D02*
X004312Y011779D01*
X004302Y011878D02*
X004312Y011878D01*
X004302Y011976D02*
X004312Y011976D01*
X004517Y011484D02*
X003547Y011484D01*
X003547Y011385D02*
X004517Y011385D01*
X004517Y011287D02*
X003547Y011287D01*
X003547Y011188D02*
X004535Y011188D01*
X004633Y011089D02*
X003547Y011089D01*
X003547Y010991D02*
X005167Y010991D01*
X005167Y010892D02*
X003547Y010892D01*
X003547Y010794D02*
X005167Y010794D01*
X005167Y010695D02*
X003547Y010695D01*
X003547Y010597D02*
X003553Y010597D01*
X003147Y010597D02*
X002627Y010597D01*
X002627Y010695D02*
X003147Y010695D01*
X003147Y010794D02*
X002627Y010794D01*
X002627Y010892D02*
X003147Y010892D01*
X003147Y010991D02*
X002627Y010991D01*
X002627Y011089D02*
X003147Y011089D01*
X003147Y011188D02*
X002627Y011188D01*
X002627Y011287D02*
X003147Y011287D01*
X003147Y011385D02*
X002627Y011385D01*
X002627Y011484D02*
X003147Y011484D01*
X003147Y011582D02*
X002627Y011582D01*
X002627Y011681D02*
X003147Y011681D01*
X003147Y011779D02*
X002627Y011779D01*
X002627Y011878D02*
X003147Y011878D01*
X003147Y011976D02*
X002627Y011976D01*
X002627Y012075D02*
X003147Y012075D01*
X003147Y012173D02*
X002627Y012173D01*
X002627Y012272D02*
X003147Y012272D01*
X003147Y012371D02*
X002627Y012371D01*
X002627Y012469D02*
X003147Y012469D01*
X003147Y012568D02*
X002627Y012568D01*
X002627Y012666D02*
X003147Y012666D01*
X003147Y012765D02*
X002627Y012765D01*
X002627Y012863D02*
X003147Y012863D01*
X003147Y012962D02*
X002627Y012962D01*
X002627Y013060D02*
X003147Y013060D01*
X003147Y013159D02*
X002627Y013159D01*
X002627Y013257D02*
X003147Y013257D01*
X003219Y013356D02*
X002627Y013356D01*
X002627Y013455D02*
X003269Y013455D01*
X003284Y013553D02*
X002627Y013553D01*
X002627Y013652D02*
X003334Y013652D01*
X003861Y013652D02*
X006317Y013652D01*
X006317Y013553D02*
X003910Y013553D01*
X005153Y012568D02*
X005261Y012568D01*
X005237Y012666D02*
X005587Y012666D01*
X005685Y012765D02*
X005336Y012765D01*
X005434Y012863D02*
X005784Y012863D01*
X005882Y012962D02*
X005672Y012962D01*
X005744Y013060D02*
X005981Y013060D01*
X006080Y013159D02*
X005775Y013159D01*
X005775Y013257D02*
X006178Y013257D01*
X006277Y013356D02*
X005738Y013356D01*
X005658Y013455D02*
X006317Y013455D01*
X005212Y012469D02*
X005202Y012469D01*
X005202Y012371D02*
X005212Y012371D01*
X005202Y012272D02*
X005212Y012272D01*
X005202Y012173D02*
X005212Y012173D01*
X005202Y012075D02*
X005212Y012075D01*
X005202Y011976D02*
X005212Y011976D01*
X005202Y011878D02*
X005212Y011878D01*
X005202Y011779D02*
X005212Y011779D01*
X005202Y011681D02*
X005212Y011681D01*
X005234Y011582D02*
X005180Y011582D01*
X006047Y010851D02*
X005847Y010651D01*
X005847Y009351D01*
X004429Y007933D01*
X004429Y007113D01*
X004947Y007751D02*
X005047Y007751D01*
X006847Y009551D01*
X006847Y009901D01*
X006747Y009801D01*
X006547Y009768D02*
X006547Y009718D01*
X006639Y009626D01*
X005069Y008056D01*
X005012Y008079D01*
X004882Y008079D01*
X004841Y008062D01*
X006047Y009268D01*
X006047Y009434D01*
X006047Y010523D01*
X006112Y010523D01*
X006233Y010573D01*
X006325Y010665D01*
X006375Y010786D01*
X006375Y010916D01*
X006325Y011037D01*
X006291Y011071D01*
X007002Y011071D01*
X007192Y011071D01*
X007327Y011206D01*
X007327Y011391D01*
X007381Y011337D01*
X008213Y011337D01*
X008237Y011361D01*
X008237Y011141D01*
X008213Y011165D01*
X007381Y011165D01*
X007293Y011077D01*
X007293Y010323D01*
X007381Y010235D01*
X007587Y010235D01*
X007587Y010217D01*
X007281Y010217D01*
X007193Y010129D01*
X007193Y009375D01*
X007281Y009287D01*
X008113Y009287D01*
X008193Y009367D01*
X008193Y009025D01*
X008281Y008937D01*
X009087Y008937D01*
X009087Y008765D01*
X008281Y008765D01*
X008193Y008677D01*
X008193Y008600D01*
X007747Y008600D01*
X007747Y008700D01*
X007647Y008700D01*
X007647Y009115D01*
X007323Y009115D01*
X007285Y009105D01*
X007251Y009085D01*
X007223Y009057D01*
X007203Y009023D01*
X007193Y008985D01*
X007193Y008700D01*
X007647Y008700D01*
X007647Y008600D01*
X007747Y008600D01*
X007747Y008185D01*
X008071Y008185D01*
X008109Y008195D01*
X008143Y008215D01*
X008171Y008243D01*
X008191Y008277D01*
X008193Y008283D01*
X008193Y007923D01*
X008281Y007835D01*
X008557Y007835D01*
X008557Y007475D01*
X008447Y007520D01*
X008284Y007520D01*
X008135Y007458D01*
X008020Y007344D01*
X007972Y007227D01*
X007924Y007344D01*
X007809Y007458D01*
X007659Y007520D01*
X007497Y007520D01*
X007347Y007458D01*
X007233Y007344D01*
X007184Y007227D01*
X007136Y007344D01*
X007021Y007458D01*
X006872Y007520D01*
X006710Y007520D01*
X006560Y007458D01*
X006445Y007344D01*
X006397Y007227D01*
X006349Y007344D01*
X006234Y007458D01*
X006084Y007520D01*
X005922Y007520D01*
X005772Y007458D01*
X005658Y007344D01*
X005610Y007227D01*
X005561Y007344D01*
X005447Y007458D01*
X005297Y007520D01*
X005180Y007520D01*
X005225Y007565D01*
X005275Y007686D01*
X005275Y007696D01*
X006930Y009351D01*
X007047Y009468D01*
X007047Y009637D01*
X007125Y009715D01*
X007175Y009836D01*
X007175Y009966D01*
X007125Y010087D01*
X007033Y010179D01*
X006912Y010229D01*
X006782Y010229D01*
X006661Y010179D01*
X006569Y010087D01*
X006519Y009966D01*
X006519Y009836D01*
X006547Y009768D01*
X006530Y009808D02*
X006047Y009808D01*
X006047Y009710D02*
X006555Y009710D01*
X006624Y009611D02*
X006047Y009611D01*
X006047Y009513D02*
X006526Y009513D01*
X006427Y009414D02*
X006047Y009414D01*
X006047Y009316D02*
X006329Y009316D01*
X006230Y009217D02*
X005996Y009217D01*
X005897Y009119D02*
X006132Y009119D01*
X006033Y009020D02*
X005799Y009020D01*
X005700Y008922D02*
X005935Y008922D01*
X005836Y008823D02*
X005602Y008823D01*
X005503Y008724D02*
X005737Y008724D01*
X005639Y008626D02*
X005405Y008626D01*
X005306Y008527D02*
X005540Y008527D01*
X005442Y008429D02*
X005207Y008429D01*
X005109Y008330D02*
X005343Y008330D01*
X005245Y008232D02*
X005010Y008232D01*
X004912Y008133D02*
X005146Y008133D01*
X005416Y007838D02*
X008278Y007838D01*
X008193Y007936D02*
X005515Y007936D01*
X005613Y008035D02*
X008193Y008035D01*
X008193Y008133D02*
X005712Y008133D01*
X005810Y008232D02*
X007234Y008232D01*
X007223Y008243D02*
X007251Y008215D01*
X007285Y008195D01*
X007323Y008185D01*
X007647Y008185D01*
X007647Y008600D01*
X007193Y008600D01*
X007193Y008315D01*
X007203Y008277D01*
X007223Y008243D01*
X007193Y008330D02*
X005909Y008330D01*
X006007Y008429D02*
X007193Y008429D01*
X007193Y008527D02*
X006106Y008527D01*
X006205Y008626D02*
X007647Y008626D01*
X007697Y008650D02*
X007446Y008901D01*
X006747Y008901D01*
X006647Y008801D01*
X006500Y008922D02*
X007193Y008922D01*
X007202Y009020D02*
X006599Y009020D01*
X006697Y009119D02*
X008193Y009119D01*
X008143Y009085D02*
X008109Y009105D01*
X008071Y009115D01*
X007747Y009115D01*
X007747Y008700D01*
X008201Y008700D01*
X008201Y008985D01*
X008191Y009023D01*
X008171Y009057D01*
X008143Y009085D01*
X008192Y009020D02*
X008198Y009020D01*
X008201Y008922D02*
X009087Y008922D01*
X009087Y008823D02*
X008201Y008823D01*
X008201Y008724D02*
X008240Y008724D01*
X008193Y008626D02*
X007747Y008626D01*
X007747Y008724D02*
X007647Y008724D01*
X007647Y008823D02*
X007747Y008823D01*
X007747Y008922D02*
X007647Y008922D01*
X007647Y009020D02*
X007747Y009020D01*
X008193Y009217D02*
X006796Y009217D01*
X006894Y009316D02*
X007252Y009316D01*
X007193Y009414D02*
X006993Y009414D01*
X007047Y009513D02*
X007193Y009513D01*
X007193Y009611D02*
X007047Y009611D01*
X007120Y009710D02*
X007193Y009710D01*
X007193Y009808D02*
X007164Y009808D01*
X007175Y009907D02*
X007193Y009907D01*
X007193Y010006D02*
X007159Y010006D01*
X007193Y010104D02*
X007108Y010104D01*
X006977Y010203D02*
X007266Y010203D01*
X007314Y010301D02*
X006047Y010301D01*
X006047Y010203D02*
X006717Y010203D01*
X006586Y010104D02*
X006047Y010104D01*
X006047Y010006D02*
X006535Y010006D01*
X006519Y009907D02*
X006047Y009907D01*
X006047Y010400D02*
X007293Y010400D01*
X007293Y010498D02*
X006047Y010498D01*
X006257Y010597D02*
X007293Y010597D01*
X007293Y010695D02*
X006338Y010695D01*
X006375Y010794D02*
X007293Y010794D01*
X007293Y010892D02*
X006375Y010892D01*
X006344Y010991D02*
X007293Y010991D01*
X007305Y011089D02*
X007211Y011089D01*
X007309Y011188D02*
X008237Y011188D01*
X008237Y011287D02*
X007327Y011287D01*
X007327Y011385D02*
X007333Y011385D01*
X008297Y012551D02*
X008097Y012751D01*
X007797Y012751D01*
X008297Y012551D02*
X008397Y012551D01*
X008797Y012651D02*
X008797Y012751D01*
X008797Y012651D02*
X009397Y012651D01*
X009397Y012951D01*
X009597Y013151D01*
X009997Y013151D01*
X010397Y013551D01*
X010397Y015351D01*
X010447Y015351D01*
X010397Y015351D02*
X010397Y016351D01*
X009797Y016951D01*
X007697Y016951D01*
X007697Y017851D01*
X007647Y017901D01*
X008647Y017901D02*
X008697Y017851D01*
X008697Y017251D01*
X009897Y017251D01*
X010797Y016351D01*
X010797Y013451D01*
X010497Y013151D01*
X010497Y012351D01*
X010097Y012751D01*
X009797Y012751D01*
X009397Y012651D02*
X010097Y011951D01*
X010097Y011851D01*
X010047Y011833D01*
X010547Y011833D02*
X010597Y011851D01*
X010597Y012251D01*
X010497Y012351D01*
X010897Y012751D02*
X010897Y013151D01*
X011197Y013451D01*
X011197Y016351D01*
X009647Y017901D01*
X010647Y017901D02*
X010697Y017851D01*
X010697Y017351D01*
X011597Y016451D01*
X011597Y012751D01*
X011597Y011851D01*
X011547Y011833D01*
X011097Y011851D02*
X011047Y011833D01*
X011097Y011851D02*
X011097Y012751D01*
X010997Y012851D01*
X011097Y012751D02*
X010897Y012751D01*
X012047Y011833D02*
X012097Y011851D01*
X012097Y012811D01*
X012097Y015751D01*
X012097Y017451D01*
X011647Y017901D01*
X012497Y017751D02*
X012647Y017901D01*
X012497Y017751D02*
X012497Y011851D01*
X012547Y011833D01*
X012597Y011751D01*
X012597Y011551D01*
X012477Y011431D01*
X010477Y011431D01*
X010197Y011151D01*
X010897Y010451D01*
X012077Y010451D01*
X012077Y008621D01*
X012747Y008626D02*
X015847Y008626D01*
X015847Y008724D02*
X012747Y008724D01*
X012747Y008823D02*
X015847Y008823D01*
X015847Y008922D02*
X012747Y008922D01*
X012747Y009020D02*
X015847Y009020D01*
X015847Y009119D02*
X012747Y009119D01*
X012747Y009168D02*
X013480Y009901D01*
X017110Y009901D01*
X017185Y009826D01*
X017809Y009826D01*
X017897Y009914D01*
X017897Y010288D01*
X017897Y010301D01*
X018467Y010301D01*
X018467Y010203D02*
X017897Y010203D01*
X017897Y010301D02*
X017930Y010301D01*
X018202Y010573D01*
X018312Y010573D01*
X018433Y010623D01*
X018467Y010657D01*
X018467Y010096D01*
X018300Y009929D01*
X018232Y009929D01*
X018111Y009879D01*
X018019Y009787D01*
X017969Y009666D01*
X017969Y009662D01*
X017930Y009701D01*
X017884Y009701D01*
X017809Y009776D01*
X017185Y009776D01*
X017097Y009688D01*
X017097Y009544D01*
X017030Y009611D01*
X016864Y009611D01*
X015964Y009611D01*
X015847Y009494D01*
X015847Y009328D01*
X015847Y008469D01*
X015835Y008469D01*
X015797Y008431D01*
X015759Y008469D01*
X015335Y008469D01*
X015297Y008431D01*
X015259Y008469D01*
X014835Y008469D01*
X014797Y008431D01*
X014759Y008469D01*
X014335Y008469D01*
X014297Y008431D01*
X014259Y008469D01*
X013835Y008469D01*
X013797Y008431D01*
X013759Y008469D01*
X013335Y008469D01*
X013297Y008431D01*
X013289Y008439D01*
X013255Y008459D01*
X013217Y008469D01*
X013072Y008469D01*
X013072Y008095D01*
X013022Y008095D01*
X013022Y008469D01*
X012877Y008469D01*
X012839Y008459D01*
X012805Y008439D01*
X012797Y008431D01*
X012759Y008469D01*
X012747Y008469D01*
X012747Y009168D01*
X012796Y009217D02*
X015847Y009217D01*
X015847Y009316D02*
X012894Y009316D01*
X012993Y009414D02*
X015847Y009414D01*
X015866Y009513D02*
X013091Y009513D01*
X013190Y009611D02*
X017097Y009611D01*
X017119Y009710D02*
X013289Y009710D01*
X013387Y009808D02*
X018040Y009808D01*
X017987Y009710D02*
X017875Y009710D01*
X017890Y009907D02*
X018178Y009907D01*
X018376Y010006D02*
X017897Y010006D01*
X017897Y010104D02*
X018467Y010104D01*
X018792Y009771D02*
X018792Y009771D01*
X018829Y009808D02*
X020232Y009808D01*
X020232Y009710D02*
X018731Y009710D01*
X018632Y009611D02*
X020232Y009611D01*
X020232Y009513D02*
X018616Y009513D01*
X018574Y009414D02*
X020232Y009414D01*
X020232Y009316D02*
X018465Y009316D01*
X018197Y009217D02*
X020232Y009217D01*
X020232Y009119D02*
X018212Y009119D01*
X018311Y009020D02*
X020232Y009020D01*
X020232Y008922D02*
X019659Y008922D01*
X019758Y008823D02*
X020232Y008823D01*
X020232Y008724D02*
X020156Y008724D01*
X020213Y008626D02*
X020232Y008626D01*
X020232Y008527D02*
X020213Y008527D01*
X020213Y008429D02*
X020232Y008429D01*
X020232Y008330D02*
X020213Y008330D01*
X020213Y008232D02*
X020232Y008232D01*
X020232Y008133D02*
X020213Y008133D01*
X020213Y008035D02*
X020232Y008035D01*
X020232Y007936D02*
X020213Y007936D01*
X020213Y007838D02*
X020232Y007838D01*
X020232Y007739D02*
X020042Y007739D01*
X020140Y007640D02*
X020232Y007640D01*
X020197Y007301D02*
X019747Y007751D01*
X019747Y008251D01*
X019748Y008251D01*
X019747Y008251D02*
X019747Y008551D01*
X019497Y008801D01*
X018247Y008801D01*
X017997Y009051D01*
X017997Y009351D01*
X017847Y009501D01*
X017497Y009501D01*
X017497Y009151D02*
X017207Y009151D01*
X016947Y009411D01*
X016047Y009411D01*
X016047Y008069D01*
X016079Y008069D01*
X017086Y007062D01*
X018247Y007062D01*
X017847Y006551D02*
X017547Y006851D01*
X016997Y006851D01*
X016297Y007551D01*
X015547Y007551D01*
X015547Y008069D01*
X015047Y008069D02*
X015047Y007351D01*
X016197Y007351D01*
X016897Y006651D01*
X017297Y006651D01*
X017347Y006601D01*
X017347Y006151D01*
X017347Y004851D01*
X017797Y004851D01*
X017817Y004842D01*
X018321Y004881D02*
X018671Y004881D01*
X018671Y004783D02*
X018321Y004783D01*
X018321Y004684D02*
X018671Y004684D01*
X018671Y004586D02*
X018321Y004586D01*
X018321Y004487D02*
X018728Y004487D01*
X018802Y004047D02*
X018764Y004037D01*
X018729Y004017D01*
X018701Y003989D01*
X018682Y003955D01*
X018671Y003917D01*
X018671Y003711D01*
X019047Y003711D01*
X019047Y004047D01*
X018802Y004047D01*
X018707Y003994D02*
X018321Y003994D01*
X018321Y004075D02*
X018311Y004113D01*
X018291Y004147D01*
X018263Y004175D01*
X018229Y004195D01*
X018191Y004205D01*
X017867Y004205D01*
X017867Y003790D01*
X018321Y003790D01*
X018321Y004075D01*
X018316Y004093D02*
X019697Y004093D01*
X019697Y004191D02*
X018235Y004191D01*
X018245Y004389D02*
X019697Y004389D01*
X019697Y004487D02*
X019466Y004487D01*
X019523Y004586D02*
X019697Y004586D01*
X019697Y004684D02*
X019523Y004684D01*
X019523Y004783D02*
X019697Y004783D01*
X019697Y004881D02*
X019523Y004881D01*
X019523Y004980D02*
X019697Y004980D01*
X019697Y005078D02*
X019523Y005078D01*
X019497Y005177D02*
X019697Y005177D01*
X019697Y005275D02*
X019497Y005275D01*
X019497Y005374D02*
X019697Y005374D01*
X019697Y005473D02*
X019497Y005473D01*
X019097Y005473D02*
X017547Y005473D01*
X017547Y005571D02*
X017762Y005571D01*
X017753Y005587D02*
X017773Y005553D01*
X017801Y005525D01*
X017835Y005505D01*
X017873Y005495D01*
X018197Y005495D01*
X018197Y005910D01*
X017743Y005910D01*
X017743Y005625D01*
X017753Y005587D01*
X017743Y005670D02*
X017547Y005670D01*
X017547Y005768D02*
X017743Y005768D01*
X017743Y005867D02*
X017642Y005867D01*
X017714Y005965D02*
X018197Y005965D01*
X018197Y005867D02*
X018297Y005867D01*
X018297Y005910D02*
X018297Y005495D01*
X018621Y005495D01*
X018659Y005505D01*
X018693Y005525D01*
X018721Y005553D01*
X018741Y005587D01*
X018751Y005625D01*
X018751Y005910D01*
X018297Y005910D01*
X018297Y005965D02*
X018793Y005965D01*
X018793Y005867D02*
X018751Y005867D01*
X018751Y005768D02*
X018793Y005768D01*
X018793Y005670D02*
X018751Y005670D01*
X018732Y005571D02*
X018794Y005571D01*
X019097Y005374D02*
X017547Y005374D01*
X017147Y005374D02*
X016547Y005374D01*
X016547Y005473D02*
X017147Y005473D01*
X017147Y005571D02*
X016547Y005571D01*
X016547Y005670D02*
X017147Y005670D01*
X017147Y005768D02*
X016547Y005768D01*
X016642Y005867D02*
X017052Y005867D01*
X016980Y005965D02*
X016714Y005965D01*
X016755Y006064D02*
X016939Y006064D01*
X016937Y006162D02*
X016757Y006162D01*
X016745Y006261D02*
X016949Y006261D01*
X016989Y006359D02*
X016705Y006359D01*
X016620Y006458D02*
X016807Y006458D01*
X016709Y006556D02*
X016547Y006556D01*
X016547Y006655D02*
X016610Y006655D01*
X016347Y006901D02*
X016097Y007151D01*
X014847Y007151D01*
X014847Y007351D01*
X014547Y007651D01*
X014547Y008069D01*
X014047Y008069D02*
X014047Y006651D01*
X014147Y006551D01*
X014197Y006501D01*
X014197Y005828D01*
X014948Y005077D01*
X014948Y005001D01*
X014483Y004881D02*
X014311Y004881D01*
X014311Y004783D02*
X014483Y004783D01*
X014483Y004684D02*
X014311Y004684D01*
X014299Y004586D02*
X014483Y004586D01*
X015393Y004487D02*
X011407Y004487D01*
X011407Y004389D02*
X015469Y004389D01*
X015523Y004205D02*
X015485Y004195D01*
X015451Y004175D01*
X015423Y004147D01*
X015403Y004113D01*
X015393Y004075D01*
X015393Y003790D01*
X015847Y003790D01*
X015847Y004205D01*
X015523Y004205D01*
X015479Y004191D02*
X011407Y004191D01*
X011407Y004093D02*
X015398Y004093D01*
X015393Y003994D02*
X011407Y003994D01*
X011407Y003896D02*
X015393Y003896D01*
X015393Y003797D02*
X011407Y003797D01*
X011436Y003699D02*
X015847Y003699D01*
X015847Y003690D02*
X015393Y003690D01*
X015393Y003405D01*
X015403Y003367D01*
X015423Y003333D01*
X015451Y003305D01*
X015485Y003285D01*
X015523Y003275D01*
X015847Y003275D01*
X015847Y003690D01*
X015947Y003690D01*
X015947Y003790D01*
X015847Y003790D01*
X015847Y003690D01*
X015847Y003600D02*
X015947Y003600D01*
X015947Y003690D02*
X015947Y003275D01*
X016271Y003275D01*
X016309Y003285D01*
X016343Y003305D01*
X016371Y003333D01*
X016391Y003367D01*
X016401Y003405D01*
X016401Y003690D01*
X015947Y003690D01*
X015947Y003699D02*
X017767Y003699D01*
X017767Y003690D02*
X017313Y003690D01*
X017313Y003405D01*
X017323Y003367D01*
X017343Y003333D01*
X017371Y003305D01*
X017405Y003285D01*
X017443Y003275D01*
X017767Y003275D01*
X017767Y003690D01*
X017767Y003600D02*
X017867Y003600D01*
X017867Y003502D02*
X017767Y003502D01*
X017767Y003403D02*
X017867Y003403D01*
X017867Y003305D02*
X017767Y003305D01*
X017938Y003206D02*
X011839Y003206D01*
X011741Y003305D02*
X015451Y003305D01*
X015393Y003403D02*
X011642Y003403D01*
X011611Y003502D02*
X015393Y003502D01*
X015393Y003600D02*
X011562Y003600D01*
X011938Y003107D02*
X013570Y003107D01*
X013472Y003009D02*
X012036Y003009D01*
X012135Y002910D02*
X013373Y002910D01*
X013275Y002812D02*
X012233Y002812D01*
X012332Y002713D02*
X013176Y002713D01*
X013078Y002615D02*
X012430Y002615D01*
X012507Y002516D02*
X012979Y002516D01*
X012881Y002418D02*
X012759Y002418D01*
X012535Y002418D02*
X012507Y002418D01*
X012647Y001901D02*
X013697Y002951D01*
X018147Y002951D01*
X018373Y002713D02*
X018876Y002713D01*
X018778Y002615D02*
X013643Y002615D01*
X013545Y002516D02*
X018679Y002516D01*
X018535Y002418D02*
X017759Y002418D01*
X017535Y002418D02*
X016759Y002418D01*
X016535Y002418D02*
X015759Y002418D01*
X015535Y002418D02*
X014759Y002418D01*
X014535Y002418D02*
X013710Y002418D01*
X013697Y002418D02*
X013597Y002418D01*
X013584Y002418D02*
X013446Y002418D01*
X013597Y002319D02*
X013697Y002319D01*
X013697Y002221D02*
X013597Y002221D01*
X013597Y002122D02*
X013697Y002122D01*
X013697Y002024D02*
X013597Y002024D01*
X013597Y001851D02*
X013697Y001851D01*
X013697Y001420D01*
X013697Y000951D01*
X013597Y000951D01*
X013597Y001420D01*
X013597Y001851D01*
X013597Y001826D02*
X013697Y001826D01*
X013697Y001728D02*
X013597Y001728D01*
X013597Y001629D02*
X013697Y001629D01*
X013697Y001531D02*
X013597Y001531D01*
X013597Y001432D02*
X013697Y001432D01*
X013697Y001334D02*
X013597Y001334D01*
X013597Y001235D02*
X013697Y001235D01*
X013697Y001137D02*
X013597Y001137D01*
X013597Y001038D02*
X013697Y001038D01*
X013697Y000851D02*
X013697Y000383D01*
X013769Y000394D01*
X013847Y000419D01*
X013920Y000456D01*
X013986Y000505D01*
X014044Y000562D01*
X014092Y000629D01*
X014129Y000702D01*
X014146Y000753D01*
X014206Y000607D01*
X014352Y000460D01*
X014544Y000381D01*
X014750Y000381D01*
X014942Y000460D01*
X015088Y000607D01*
X015147Y000750D01*
X015206Y000607D01*
X015352Y000460D01*
X015544Y000381D01*
X015750Y000381D01*
X015942Y000460D01*
X016088Y000607D01*
X016147Y000750D01*
X016206Y000607D01*
X016352Y000460D01*
X016544Y000381D01*
X016750Y000381D01*
X016942Y000460D01*
X017088Y000607D01*
X017147Y000750D01*
X017206Y000607D01*
X017352Y000460D01*
X017544Y000381D01*
X017750Y000381D01*
X017942Y000460D01*
X018088Y000607D01*
X018147Y000750D01*
X018206Y000607D01*
X018352Y000460D01*
X018544Y000381D01*
X018750Y000381D01*
X018942Y000460D01*
X019088Y000607D01*
X019147Y000750D01*
X019206Y000607D01*
X019352Y000460D01*
X019544Y000381D01*
X019750Y000381D01*
X019942Y000460D01*
X020088Y000607D01*
X020167Y000798D01*
X020167Y001005D01*
X020088Y001196D01*
X019942Y001342D01*
X019847Y001381D01*
X019847Y001421D01*
X019942Y001460D01*
X020088Y001607D01*
X020167Y001798D01*
X020167Y002005D01*
X020142Y002064D01*
X020232Y002153D01*
X020232Y000301D01*
X001047Y000301D01*
X001047Y005976D01*
X001267Y005756D01*
X001256Y005746D01*
X001177Y005555D01*
X001177Y005348D01*
X001256Y005157D01*
X001402Y005010D01*
X001462Y004986D01*
X001097Y004620D01*
X001097Y004082D01*
X001403Y003776D01*
X001097Y003470D01*
X001097Y003251D01*
X001697Y003251D01*
X001697Y003151D01*
X001797Y003151D01*
X001797Y002551D01*
X002016Y002551D01*
X002275Y002810D01*
X002361Y002723D01*
X002482Y002673D01*
X002612Y002673D01*
X002733Y002723D01*
X002825Y002815D01*
X002875Y002936D01*
X002875Y003004D01*
X002877Y003006D01*
X002877Y003196D01*
X002877Y005706D01*
X002887Y005716D01*
X002887Y005666D01*
X002952Y005508D01*
X003073Y005387D01*
X003231Y005321D01*
X003963Y005321D01*
X004121Y005387D01*
X004241Y005508D01*
X004307Y005666D01*
X004307Y005837D01*
X004241Y005995D01*
X004121Y006116D01*
X003963Y006181D01*
X003332Y006181D01*
X003433Y006223D01*
X003481Y006271D01*
X004452Y006271D01*
X004690Y006033D01*
X004652Y005995D01*
X004587Y005837D01*
X004587Y005666D01*
X004652Y005508D01*
X004773Y005387D01*
X004931Y005321D01*
X005663Y005321D01*
X005821Y005387D01*
X005941Y005508D01*
X005967Y005569D01*
X005967Y004933D01*
X005941Y004995D01*
X005821Y005116D01*
X005663Y005181D01*
X004931Y005181D01*
X004773Y005116D01*
X004652Y004995D01*
X004587Y004837D01*
X004587Y004666D01*
X004652Y004508D01*
X004773Y004387D01*
X004931Y004321D01*
X005663Y004321D01*
X005821Y004387D01*
X005941Y004508D01*
X005967Y004569D01*
X005967Y004146D01*
X005878Y004058D01*
X005821Y004116D01*
X005663Y004181D01*
X004931Y004181D01*
X004773Y004116D01*
X004652Y003995D01*
X004587Y003837D01*
X004587Y003666D01*
X004652Y003508D01*
X004773Y003387D01*
X004931Y003321D01*
X005663Y003321D01*
X005821Y003387D01*
X005941Y003508D01*
X005947Y003521D01*
X005992Y003521D01*
X006127Y003656D01*
X006427Y003956D01*
X006427Y004146D01*
X006427Y004982D01*
X006450Y004976D01*
X006656Y004976D01*
X006656Y005351D01*
X006756Y005351D01*
X006756Y004976D01*
X006962Y004976D01*
X007001Y004986D01*
X007035Y005006D01*
X007063Y005033D01*
X007082Y005068D01*
X007093Y005106D01*
X007093Y005351D01*
X006757Y005351D01*
X006757Y005451D01*
X007093Y005451D01*
X007093Y005696D01*
X007086Y005721D01*
X007501Y005721D01*
X007501Y005079D01*
X007482Y005079D01*
X007361Y005029D01*
X007269Y004937D01*
X007219Y004816D01*
X007219Y004686D01*
X007269Y004565D01*
X007314Y004520D01*
X007291Y004533D01*
X007253Y004543D01*
X007047Y004543D01*
X007047Y003951D01*
X006947Y003951D01*
X006947Y003851D01*
X006611Y003851D01*
X006611Y003389D01*
X006621Y003351D01*
X006641Y003317D01*
X006669Y003289D01*
X006703Y003269D01*
X006741Y003259D01*
X006947Y003259D01*
X006947Y003851D01*
X007047Y003851D01*
X007047Y003259D01*
X007253Y003259D01*
X007291Y003269D01*
X007326Y003289D01*
X007354Y003317D01*
X007373Y003351D01*
X007384Y003389D01*
X007384Y003851D01*
X007048Y003851D01*
X007048Y003951D01*
X007384Y003951D01*
X007384Y004413D01*
X007373Y004451D01*
X007360Y004474D01*
X007361Y004473D01*
X007482Y004423D01*
X007612Y004423D01*
X007733Y004473D01*
X007781Y004521D01*
X007976Y004521D01*
X007910Y004455D01*
X007910Y003540D01*
X007493Y003122D01*
X006740Y003122D01*
X006692Y003170D01*
X006571Y003220D01*
X006441Y003220D01*
X006320Y003170D01*
X006228Y003078D01*
X006178Y002958D01*
X006178Y002827D01*
X006228Y002706D01*
X006320Y002614D01*
X006441Y002564D01*
X006447Y002564D01*
X006447Y002381D01*
X006352Y002342D01*
X006206Y002196D01*
X006127Y002005D01*
X006127Y001798D01*
X006206Y001607D01*
X006352Y001460D01*
X006495Y001401D01*
X006352Y001342D01*
X006206Y001196D01*
X006127Y001005D01*
X006127Y000798D01*
X006206Y000607D01*
X006352Y000460D01*
X006544Y000381D01*
X006750Y000381D01*
X006942Y000460D01*
X007088Y000607D01*
X007147Y000750D01*
X007206Y000607D01*
X007352Y000460D01*
X007544Y000381D01*
X007750Y000381D01*
X007942Y000460D01*
X008088Y000607D01*
X008147Y000750D01*
X008206Y000607D01*
X008352Y000460D01*
X008544Y000381D01*
X008750Y000381D01*
X008942Y000460D01*
X009088Y000607D01*
X009147Y000750D01*
X009206Y000607D01*
X009352Y000460D01*
X009544Y000381D01*
X009750Y000381D01*
X009942Y000460D01*
X010088Y000607D01*
X010147Y000750D01*
X010206Y000607D01*
X010352Y000460D01*
X010544Y000381D01*
X010750Y000381D01*
X010942Y000460D01*
X011088Y000607D01*
X011147Y000750D01*
X011206Y000607D01*
X011352Y000460D01*
X011544Y000381D01*
X011750Y000381D01*
X011942Y000460D01*
X012088Y000607D01*
X012147Y000750D01*
X012206Y000607D01*
X012352Y000460D01*
X012544Y000381D01*
X012750Y000381D01*
X012942Y000460D01*
X013088Y000607D01*
X013148Y000753D01*
X013165Y000702D01*
X013202Y000629D01*
X013250Y000562D01*
X013308Y000505D01*
X013374Y000456D01*
X013447Y000419D01*
X013525Y000394D01*
X013597Y000383D01*
X013597Y000851D01*
X013697Y000851D01*
X013697Y000841D02*
X013597Y000841D01*
X013597Y000742D02*
X013697Y000742D01*
X013697Y000644D02*
X013597Y000644D01*
X013597Y000545D02*
X013697Y000545D01*
X013697Y000447D02*
X013597Y000447D01*
X013393Y000447D02*
X012909Y000447D01*
X013027Y000545D02*
X013267Y000545D01*
X013194Y000644D02*
X013103Y000644D01*
X013144Y000742D02*
X013152Y000742D01*
X013901Y000447D02*
X014385Y000447D01*
X014267Y000545D02*
X014027Y000545D01*
X014099Y000644D02*
X014191Y000644D01*
X014150Y000742D02*
X014142Y000742D01*
X014909Y000447D02*
X015385Y000447D01*
X015267Y000545D02*
X015027Y000545D01*
X015103Y000644D02*
X015191Y000644D01*
X015150Y000742D02*
X015144Y000742D01*
X015909Y000447D02*
X016385Y000447D01*
X016267Y000545D02*
X016027Y000545D01*
X016103Y000644D02*
X016191Y000644D01*
X016150Y000742D02*
X016144Y000742D01*
X016909Y000447D02*
X017385Y000447D01*
X017267Y000545D02*
X017027Y000545D01*
X017103Y000644D02*
X017191Y000644D01*
X017150Y000742D02*
X017144Y000742D01*
X017909Y000447D02*
X018385Y000447D01*
X018267Y000545D02*
X018027Y000545D01*
X018103Y000644D02*
X018191Y000644D01*
X018150Y000742D02*
X018144Y000742D01*
X018909Y000447D02*
X019385Y000447D01*
X019267Y000545D02*
X019027Y000545D01*
X019103Y000644D02*
X019191Y000644D01*
X019150Y000742D02*
X019144Y000742D01*
X019647Y000901D02*
X019647Y001851D01*
X020197Y002401D01*
X020197Y007301D01*
X019510Y006556D02*
X018935Y006556D01*
X018837Y006458D02*
X019609Y006458D01*
X019897Y006452D02*
X019297Y007052D01*
X019297Y007051D01*
X018847Y007051D01*
X018847Y006751D01*
X018647Y006551D01*
X017847Y006551D01*
X018197Y005768D02*
X018297Y005768D01*
X018297Y005670D02*
X018197Y005670D01*
X018197Y005571D02*
X018297Y005571D01*
X018265Y005275D02*
X019097Y005275D01*
X018708Y005177D02*
X018321Y005177D01*
X018321Y005078D02*
X018671Y005078D01*
X018671Y004980D02*
X018321Y004980D01*
X019097Y004851D02*
X019097Y004842D01*
X019097Y004851D02*
X019297Y004851D01*
X019297Y005950D01*
X018793Y006064D02*
X018751Y006064D01*
X018751Y006162D02*
X018793Y006162D01*
X018793Y006261D02*
X018751Y006261D01*
X018738Y006359D02*
X018825Y006359D01*
X019897Y006452D02*
X019897Y003451D01*
X018647Y002201D01*
X018647Y001901D01*
X018231Y002221D02*
X018063Y002221D01*
X018118Y002122D02*
X018176Y002122D01*
X018330Y002319D02*
X017964Y002319D01*
X017921Y002713D02*
X013742Y002713D01*
X013956Y002319D02*
X014330Y002319D01*
X014231Y002221D02*
X014058Y002221D01*
X014118Y002122D02*
X014176Y002122D01*
X014964Y002319D02*
X015330Y002319D01*
X015231Y002221D02*
X015063Y002221D01*
X015118Y002122D02*
X015176Y002122D01*
X015964Y002319D02*
X016330Y002319D01*
X016231Y002221D02*
X016063Y002221D01*
X016118Y002122D02*
X016176Y002122D01*
X016964Y002319D02*
X017330Y002319D01*
X017231Y002221D02*
X017063Y002221D01*
X017118Y002122D02*
X017176Y002122D01*
X017371Y003305D02*
X016343Y003305D01*
X016401Y003403D02*
X017313Y003403D01*
X017313Y003502D02*
X016401Y003502D01*
X016401Y003600D02*
X017313Y003600D01*
X017313Y003797D02*
X016401Y003797D01*
X016401Y003790D02*
X016401Y004075D01*
X016391Y004113D01*
X016371Y004147D01*
X016343Y004175D01*
X016309Y004195D01*
X016271Y004205D01*
X015947Y004205D01*
X015947Y003790D01*
X016401Y003790D01*
X016401Y003896D02*
X017313Y003896D01*
X017313Y003994D02*
X016401Y003994D01*
X016396Y004093D02*
X017318Y004093D01*
X017399Y004191D02*
X016315Y004191D01*
X016325Y004389D02*
X017389Y004389D01*
X017313Y004487D02*
X016401Y004487D01*
X016401Y004586D02*
X017313Y004586D01*
X017231Y004684D02*
X016463Y004684D01*
X016547Y004783D02*
X017147Y004783D01*
X017147Y004881D02*
X016547Y004881D01*
X016547Y004980D02*
X017147Y004980D01*
X017147Y005078D02*
X016547Y005078D01*
X016547Y005177D02*
X017147Y005177D01*
X017147Y005275D02*
X016547Y005275D01*
X016347Y004851D02*
X016347Y006151D01*
X016347Y006901D01*
X017197Y007701D02*
X016567Y008331D01*
X016567Y008431D01*
X015847Y008527D02*
X012747Y008527D01*
X013022Y008429D02*
X013072Y008429D01*
X013072Y008330D02*
X013022Y008330D01*
X013022Y008232D02*
X013072Y008232D01*
X013072Y008133D02*
X013022Y008133D01*
X013022Y008035D02*
X013072Y008035D01*
X013072Y007936D02*
X013022Y007936D01*
X013022Y007838D02*
X013072Y007838D01*
X013072Y007739D02*
X013022Y007739D01*
X011097Y008151D02*
X011047Y008069D01*
X011047Y007801D01*
X010697Y007451D01*
X010697Y003151D01*
X009647Y002101D01*
X009647Y001901D01*
X009497Y002501D02*
X008997Y002501D01*
X008647Y002151D01*
X008647Y001901D01*
X007847Y002551D02*
X006647Y002551D01*
X006647Y001901D01*
X006282Y001531D02*
X004652Y001531D01*
X004750Y001629D02*
X006197Y001629D01*
X006156Y001728D02*
X004849Y001728D01*
X004947Y001826D02*
X006127Y001826D01*
X006127Y001925D02*
X005046Y001925D01*
X005145Y002024D02*
X006135Y002024D01*
X006176Y002122D02*
X005243Y002122D01*
X005269Y002148D02*
X005499Y002148D01*
X005586Y002235D01*
X005586Y002860D01*
X005499Y002948D01*
X004795Y002948D01*
X004708Y002860D01*
X004708Y002237D01*
X004095Y001625D01*
X004167Y001798D01*
X004167Y002005D01*
X004088Y002196D01*
X003942Y002342D01*
X003877Y002369D01*
X003877Y003321D01*
X003963Y003321D01*
X004121Y003387D01*
X004241Y003508D01*
X004307Y003666D01*
X004307Y003837D01*
X004241Y003995D01*
X004121Y004116D01*
X003963Y004181D01*
X003231Y004181D01*
X003073Y004116D01*
X002952Y003995D01*
X002887Y003837D01*
X002887Y003666D01*
X002952Y003508D01*
X003073Y003387D01*
X003231Y003321D01*
X003417Y003321D01*
X003417Y002369D01*
X003352Y002342D01*
X003206Y002196D01*
X003146Y002049D01*
X003129Y002101D01*
X003092Y002174D01*
X003044Y002240D01*
X002986Y002298D01*
X002920Y002346D01*
X002847Y002383D01*
X002769Y002408D01*
X002697Y002420D01*
X002697Y001951D01*
X002597Y001951D01*
X002597Y002420D01*
X002525Y002408D01*
X002447Y002383D01*
X002374Y002346D01*
X002308Y002298D01*
X002250Y002240D01*
X002202Y002174D01*
X002165Y002101D01*
X002148Y002049D01*
X002088Y002196D01*
X001942Y002342D01*
X001750Y002421D01*
X001544Y002421D01*
X001352Y002342D01*
X001206Y002196D01*
X001127Y002005D01*
X001127Y001798D01*
X001206Y001607D01*
X001352Y001460D01*
X001495Y001401D01*
X001352Y001342D01*
X001206Y001196D01*
X001127Y001005D01*
X001127Y000798D01*
X001206Y000607D01*
X001352Y000460D01*
X001544Y000381D01*
X001750Y000381D01*
X001942Y000460D01*
X002088Y000607D01*
X002148Y000753D01*
X002165Y000702D01*
X002202Y000629D01*
X002250Y000562D01*
X002308Y000505D01*
X002374Y000456D01*
X002447Y000419D01*
X002525Y000394D01*
X002597Y000383D01*
X002597Y000851D01*
X002697Y000851D01*
X002697Y000383D01*
X002769Y000394D01*
X002847Y000419D01*
X002920Y000456D01*
X002986Y000505D01*
X003044Y000562D01*
X003092Y000629D01*
X003129Y000702D01*
X003146Y000753D01*
X003206Y000607D01*
X003352Y000460D01*
X003544Y000381D01*
X003750Y000381D01*
X003942Y000460D01*
X004088Y000607D01*
X004167Y000798D01*
X004167Y001005D01*
X004155Y001034D01*
X005269Y002148D01*
X005571Y002221D02*
X006231Y002221D01*
X006330Y002319D02*
X005586Y002319D01*
X005586Y002418D02*
X006447Y002418D01*
X006447Y002516D02*
X005586Y002516D01*
X005586Y002615D02*
X006319Y002615D01*
X006225Y002713D02*
X005586Y002713D01*
X005586Y002812D02*
X006184Y002812D01*
X006178Y002910D02*
X005536Y002910D01*
X005837Y003403D02*
X006611Y003403D01*
X006611Y003502D02*
X005936Y003502D01*
X006071Y003600D02*
X006611Y003600D01*
X006611Y003699D02*
X006170Y003699D01*
X006268Y003797D02*
X006611Y003797D01*
X006611Y003951D02*
X006947Y003951D01*
X006947Y004543D01*
X006741Y004543D01*
X006703Y004533D01*
X006669Y004513D01*
X006641Y004485D01*
X006621Y004451D01*
X006611Y004413D01*
X006611Y003951D01*
X006611Y003994D02*
X006427Y003994D01*
X006427Y004093D02*
X006611Y004093D01*
X006611Y004191D02*
X006427Y004191D01*
X006427Y004290D02*
X006611Y004290D01*
X006611Y004389D02*
X006427Y004389D01*
X006427Y004487D02*
X006643Y004487D01*
X006427Y004586D02*
X007260Y004586D01*
X007220Y004684D02*
X006427Y004684D01*
X006427Y004783D02*
X007219Y004783D01*
X007246Y004881D02*
X006427Y004881D01*
X006427Y004980D02*
X006435Y004980D01*
X006656Y004980D02*
X006756Y004980D01*
X006756Y005078D02*
X006656Y005078D01*
X006656Y005177D02*
X006756Y005177D01*
X006756Y005275D02*
X006656Y005275D01*
X006757Y005374D02*
X007501Y005374D01*
X007501Y005473D02*
X007093Y005473D01*
X007093Y005571D02*
X007501Y005571D01*
X007501Y005670D02*
X007093Y005670D01*
X007093Y005275D02*
X007501Y005275D01*
X007501Y005177D02*
X007093Y005177D01*
X007085Y005078D02*
X007480Y005078D01*
X007312Y004980D02*
X006978Y004980D01*
X006947Y004487D02*
X007047Y004487D01*
X007047Y004389D02*
X006947Y004389D01*
X006947Y004290D02*
X007047Y004290D01*
X007047Y004191D02*
X006947Y004191D01*
X006947Y004093D02*
X007047Y004093D01*
X007047Y003994D02*
X006947Y003994D01*
X006947Y003896D02*
X006367Y003896D01*
X005967Y004191D02*
X002877Y004191D01*
X002877Y004093D02*
X003051Y004093D01*
X002952Y003994D02*
X002877Y003994D01*
X002877Y003896D02*
X002912Y003896D01*
X002887Y003797D02*
X002877Y003797D01*
X002877Y003699D02*
X002887Y003699D01*
X002877Y003600D02*
X002914Y003600D01*
X002877Y003502D02*
X002958Y003502D01*
X002877Y003403D02*
X003057Y003403D01*
X002877Y003305D02*
X003417Y003305D01*
X003417Y003206D02*
X002877Y003206D01*
X002877Y003107D02*
X003417Y003107D01*
X003417Y003009D02*
X002877Y003009D01*
X002864Y002910D02*
X003417Y002910D01*
X003417Y002812D02*
X002822Y002812D01*
X002709Y002713D02*
X003417Y002713D01*
X003417Y002615D02*
X002080Y002615D01*
X002178Y002713D02*
X002385Y002713D01*
X002584Y002418D02*
X001759Y002418D01*
X001697Y002551D02*
X001697Y003151D01*
X001097Y003151D01*
X001097Y002932D01*
X001478Y002551D01*
X001697Y002551D01*
X001697Y002615D02*
X001797Y002615D01*
X001797Y002713D02*
X001697Y002713D01*
X001697Y002812D02*
X001797Y002812D01*
X001797Y002910D02*
X001697Y002910D01*
X001697Y003009D02*
X001797Y003009D01*
X001797Y003107D02*
X001697Y003107D01*
X001697Y003206D02*
X001047Y003206D01*
X001047Y003107D02*
X001097Y003107D01*
X001097Y003009D02*
X001047Y003009D01*
X001047Y002910D02*
X001119Y002910D01*
X001047Y002812D02*
X001217Y002812D01*
X001316Y002713D02*
X001047Y002713D01*
X001047Y002615D02*
X001414Y002615D01*
X001535Y002418D02*
X001047Y002418D01*
X001047Y002516D02*
X003417Y002516D01*
X003417Y002418D02*
X002710Y002418D01*
X002697Y002418D02*
X002597Y002418D01*
X002597Y002319D02*
X002697Y002319D01*
X002697Y002221D02*
X002597Y002221D01*
X002597Y002122D02*
X002697Y002122D01*
X002697Y002024D02*
X002597Y002024D01*
X002597Y001851D02*
X002697Y001851D01*
X002697Y001383D01*
X002697Y000951D01*
X002597Y000951D01*
X002597Y001383D01*
X002597Y001851D01*
X002597Y001826D02*
X002697Y001826D01*
X002697Y001728D02*
X002597Y001728D01*
X002597Y001629D02*
X002697Y001629D01*
X002697Y001531D02*
X002597Y001531D01*
X002597Y001432D02*
X002697Y001432D01*
X002697Y001334D02*
X002597Y001334D01*
X002597Y001235D02*
X002697Y001235D01*
X002697Y001137D02*
X002597Y001137D01*
X002597Y001038D02*
X002697Y001038D01*
X002697Y000841D02*
X002597Y000841D01*
X002597Y000742D02*
X002697Y000742D01*
X002697Y000644D02*
X002597Y000644D01*
X002597Y000545D02*
X002697Y000545D01*
X002697Y000447D02*
X002597Y000447D01*
X002393Y000447D02*
X001909Y000447D01*
X002027Y000545D02*
X002267Y000545D01*
X002194Y000644D02*
X002103Y000644D01*
X002144Y000742D02*
X002152Y000742D01*
X002901Y000447D02*
X003385Y000447D01*
X003267Y000545D02*
X003027Y000545D01*
X003099Y000644D02*
X003191Y000644D01*
X003150Y000742D02*
X003142Y000742D01*
X003909Y000447D02*
X006385Y000447D01*
X006267Y000545D02*
X005575Y000545D01*
X005576Y000547D02*
X005586Y000585D01*
X005586Y000805D01*
X005197Y000805D01*
X005197Y000905D01*
X005097Y000905D01*
X005097Y001255D01*
X004838Y001255D01*
X004800Y001244D01*
X004766Y001225D01*
X004738Y001197D01*
X004718Y001163D01*
X004708Y001124D01*
X004708Y000905D01*
X005097Y000905D01*
X005097Y000805D01*
X004708Y000805D01*
X004708Y000585D01*
X004718Y000547D01*
X004738Y000513D01*
X004766Y000485D01*
X004800Y000465D01*
X004838Y000455D01*
X005097Y000455D01*
X005097Y000805D01*
X005197Y000805D01*
X005197Y000455D01*
X005456Y000455D01*
X005494Y000465D01*
X005528Y000485D01*
X005556Y000513D01*
X005576Y000547D01*
X005586Y000644D02*
X006191Y000644D01*
X006150Y000742D02*
X005586Y000742D01*
X005586Y000905D02*
X005586Y001124D01*
X005576Y001163D01*
X005556Y001197D01*
X005528Y001225D01*
X005494Y001244D01*
X005456Y001255D01*
X005197Y001255D01*
X005197Y000905D01*
X005586Y000905D01*
X005586Y000940D02*
X006127Y000940D01*
X006127Y000841D02*
X005197Y000841D01*
X005197Y000940D02*
X005097Y000940D01*
X005097Y001038D02*
X005197Y001038D01*
X005197Y001137D02*
X005097Y001137D01*
X005097Y001235D02*
X005197Y001235D01*
X005510Y001235D02*
X006246Y001235D01*
X006182Y001137D02*
X005583Y001137D01*
X005586Y001038D02*
X006141Y001038D01*
X006344Y001334D02*
X004455Y001334D01*
X004553Y001432D02*
X006420Y001432D01*
X007144Y000742D02*
X007150Y000742D01*
X007191Y000644D02*
X007103Y000644D01*
X007027Y000545D02*
X007267Y000545D01*
X007385Y000447D02*
X006909Y000447D01*
X007909Y000447D02*
X008385Y000447D01*
X008267Y000545D02*
X008027Y000545D01*
X008103Y000644D02*
X008191Y000644D01*
X008150Y000742D02*
X008144Y000742D01*
X008909Y000447D02*
X009385Y000447D01*
X009267Y000545D02*
X009027Y000545D01*
X009103Y000644D02*
X009191Y000644D01*
X009150Y000742D02*
X009144Y000742D01*
X009909Y000447D02*
X010385Y000447D01*
X010267Y000545D02*
X010027Y000545D01*
X010103Y000644D02*
X010191Y000644D01*
X010150Y000742D02*
X010144Y000742D01*
X010909Y000447D02*
X011385Y000447D01*
X011267Y000545D02*
X011027Y000545D01*
X011103Y000644D02*
X011191Y000644D01*
X011150Y000742D02*
X011144Y000742D01*
X011909Y000447D02*
X012385Y000447D01*
X012267Y000545D02*
X012027Y000545D01*
X012103Y000644D02*
X012191Y000644D01*
X012150Y000742D02*
X012144Y000742D01*
X010647Y001901D02*
X010647Y002351D01*
X010947Y002651D01*
X010947Y007201D01*
X010247Y007382D02*
X010206Y007424D01*
X010154Y007461D01*
X010097Y007491D01*
X010036Y007510D01*
X009972Y007520D01*
X009969Y007520D01*
X009969Y007142D01*
X009911Y007142D01*
X009911Y007483D01*
X010030Y007601D01*
X010098Y007669D01*
X010247Y007669D01*
X010247Y007382D01*
X010247Y007443D02*
X010179Y007443D01*
X010247Y007542D02*
X009971Y007542D01*
X009969Y007443D02*
X009911Y007443D01*
X009911Y007345D02*
X009969Y007345D01*
X009969Y007246D02*
X009911Y007246D01*
X009911Y007148D02*
X009969Y007148D01*
X009969Y007084D02*
X009911Y007084D01*
X009911Y006706D01*
X009908Y006706D01*
X009845Y006716D01*
X009784Y006735D01*
X009747Y006754D01*
X009747Y006614D01*
X010247Y006114D01*
X010247Y006843D01*
X010206Y006802D01*
X010154Y006764D01*
X010097Y006735D01*
X010036Y006716D01*
X009972Y006706D01*
X009969Y006706D01*
X009969Y007084D01*
X009969Y007049D02*
X009911Y007049D01*
X009911Y006951D02*
X009969Y006951D01*
X009969Y006852D02*
X009911Y006852D01*
X009911Y006754D02*
X009969Y006754D01*
X010132Y006754D02*
X010247Y006754D01*
X010247Y006655D02*
X009747Y006655D01*
X009747Y006754D02*
X009748Y006754D01*
X009804Y006556D02*
X010247Y006556D01*
X010247Y006458D02*
X009903Y006458D01*
X010002Y006359D02*
X010247Y006359D01*
X010247Y006261D02*
X010100Y006261D01*
X010199Y006162D02*
X010247Y006162D01*
X010217Y005861D02*
X009547Y006531D01*
X009547Y007401D01*
X009947Y007801D01*
X009947Y007969D01*
X010047Y007969D01*
X010047Y008069D01*
X010069Y007640D02*
X010247Y007640D01*
X010447Y007869D02*
X010547Y007869D01*
X010547Y008069D01*
X010597Y008151D01*
X010597Y008801D01*
X009747Y008801D01*
X008846Y008151D02*
X008757Y008051D01*
X008757Y006311D01*
X009067Y006001D01*
X009747Y006001D01*
X009997Y005751D01*
X009997Y003851D01*
X009147Y003001D01*
X008297Y003001D01*
X007847Y002551D01*
X007647Y002051D02*
X008397Y002801D01*
X009297Y002801D01*
X010217Y003721D01*
X010217Y005861D01*
X011407Y004290D02*
X019697Y004290D01*
X019697Y003994D02*
X019487Y003994D01*
X019493Y003989D02*
X019465Y004017D01*
X019430Y004037D01*
X019392Y004047D01*
X019147Y004047D01*
X019147Y003711D01*
X019047Y003711D01*
X019047Y003611D01*
X018671Y003611D01*
X018671Y003405D01*
X018682Y003366D01*
X018701Y003332D01*
X018729Y003304D01*
X018764Y003285D01*
X018802Y003274D01*
X019047Y003274D01*
X019047Y003610D01*
X019147Y003610D01*
X019147Y003274D01*
X019392Y003274D01*
X019430Y003285D01*
X019465Y003304D01*
X019493Y003332D01*
X019512Y003366D01*
X019523Y003405D01*
X019523Y003611D01*
X019147Y003611D01*
X019147Y003711D01*
X019523Y003711D01*
X019523Y003917D01*
X019512Y003955D01*
X019493Y003989D01*
X019523Y003896D02*
X019697Y003896D01*
X019697Y003797D02*
X019523Y003797D01*
X019523Y003600D02*
X019697Y003600D01*
X019697Y003699D02*
X019147Y003699D01*
X019147Y003797D02*
X019047Y003797D01*
X019047Y003699D02*
X017867Y003699D01*
X017867Y003797D02*
X017767Y003797D01*
X017767Y003896D02*
X017867Y003896D01*
X017867Y003994D02*
X017767Y003994D01*
X017767Y004093D02*
X017867Y004093D01*
X017867Y004191D02*
X017767Y004191D01*
X018321Y003896D02*
X018671Y003896D01*
X018671Y003797D02*
X018321Y003797D01*
X018321Y003600D02*
X018671Y003600D01*
X018671Y003502D02*
X018321Y003502D01*
X018321Y003403D02*
X018672Y003403D01*
X018729Y003305D02*
X018263Y003305D01*
X018356Y003206D02*
X019369Y003206D01*
X019465Y003305D02*
X019468Y003305D01*
X019522Y003403D02*
X019566Y003403D01*
X019523Y003502D02*
X019665Y003502D01*
X019147Y003502D02*
X019047Y003502D01*
X019047Y003600D02*
X019147Y003600D01*
X019147Y003403D02*
X019047Y003403D01*
X019047Y003305D02*
X019147Y003305D01*
X019270Y003107D02*
X018437Y003107D01*
X018475Y003009D02*
X019172Y003009D01*
X019073Y002910D02*
X018475Y002910D01*
X018444Y002812D02*
X018975Y002812D01*
X019047Y003896D02*
X019147Y003896D01*
X019147Y003994D02*
X019047Y003994D01*
X020201Y002122D02*
X020232Y002122D01*
X020232Y002024D02*
X020159Y002024D01*
X020167Y001925D02*
X020232Y001925D01*
X020232Y001826D02*
X020167Y001826D01*
X020138Y001728D02*
X020232Y001728D01*
X020232Y001629D02*
X020097Y001629D01*
X020012Y001531D02*
X020232Y001531D01*
X020232Y001432D02*
X019874Y001432D01*
X019950Y001334D02*
X020232Y001334D01*
X020232Y001235D02*
X020048Y001235D01*
X020112Y001137D02*
X020232Y001137D01*
X020232Y001038D02*
X020153Y001038D01*
X020167Y000940D02*
X020232Y000940D01*
X020232Y000841D02*
X020167Y000841D01*
X020144Y000742D02*
X020232Y000742D01*
X020232Y000644D02*
X020103Y000644D01*
X020027Y000545D02*
X020232Y000545D01*
X020232Y000447D02*
X019909Y000447D01*
X020232Y000348D02*
X001047Y000348D01*
X001047Y000447D02*
X001385Y000447D01*
X001267Y000545D02*
X001047Y000545D01*
X001047Y000644D02*
X001191Y000644D01*
X001150Y000742D02*
X001047Y000742D01*
X001047Y000841D02*
X001127Y000841D01*
X001127Y000940D02*
X001047Y000940D01*
X001047Y001038D02*
X001141Y001038D01*
X001182Y001137D02*
X001047Y001137D01*
X001047Y001235D02*
X001246Y001235D01*
X001344Y001334D02*
X001047Y001334D01*
X001047Y001432D02*
X001420Y001432D01*
X001282Y001531D02*
X001047Y001531D01*
X001047Y001629D02*
X001197Y001629D01*
X001156Y001728D02*
X001047Y001728D01*
X001047Y001826D02*
X001127Y001826D01*
X001127Y001925D02*
X001047Y001925D01*
X001047Y002024D02*
X001135Y002024D01*
X001176Y002122D02*
X001047Y002122D01*
X001047Y002221D02*
X001231Y002221D01*
X001330Y002319D02*
X001047Y002319D01*
X001964Y002319D02*
X002338Y002319D01*
X002236Y002221D02*
X002063Y002221D01*
X002118Y002122D02*
X002176Y002122D01*
X002956Y002319D02*
X003330Y002319D01*
X003231Y002221D02*
X003058Y002221D01*
X003118Y002122D02*
X003176Y002122D01*
X003877Y002418D02*
X004708Y002418D01*
X004708Y002516D02*
X003877Y002516D01*
X003877Y002615D02*
X004708Y002615D01*
X004708Y002713D02*
X003877Y002713D01*
X003877Y002812D02*
X004708Y002812D01*
X004758Y002910D02*
X003877Y002910D01*
X003877Y003009D02*
X006199Y003009D01*
X006257Y003107D02*
X003877Y003107D01*
X003877Y003206D02*
X006406Y003206D01*
X006606Y003206D02*
X007577Y003206D01*
X007675Y003305D02*
X007341Y003305D01*
X007384Y003403D02*
X007774Y003403D01*
X007872Y003502D02*
X007384Y003502D01*
X007384Y003600D02*
X007910Y003600D01*
X007910Y003699D02*
X007384Y003699D01*
X007384Y003797D02*
X007910Y003797D01*
X007910Y003896D02*
X007048Y003896D01*
X007047Y003797D02*
X006947Y003797D01*
X006947Y003699D02*
X007047Y003699D01*
X007047Y003600D02*
X006947Y003600D01*
X006947Y003502D02*
X007047Y003502D01*
X007047Y003403D02*
X006947Y003403D01*
X006947Y003305D02*
X007047Y003305D01*
X006654Y003305D02*
X003877Y003305D01*
X004137Y003403D02*
X004757Y003403D01*
X004658Y003502D02*
X004236Y003502D01*
X004280Y003600D02*
X004614Y003600D01*
X004587Y003699D02*
X004307Y003699D01*
X004307Y003797D02*
X004587Y003797D01*
X004612Y003896D02*
X004282Y003896D01*
X004242Y003994D02*
X004652Y003994D01*
X004751Y004093D02*
X004143Y004093D01*
X003963Y004321D02*
X004121Y004387D01*
X004241Y004508D01*
X004307Y004666D01*
X004307Y004837D01*
X004241Y004995D01*
X004121Y005116D01*
X003963Y005181D01*
X003231Y005181D01*
X003073Y005116D01*
X002952Y004995D01*
X002887Y004837D01*
X002887Y004666D01*
X002952Y004508D01*
X003073Y004387D01*
X003231Y004321D01*
X003963Y004321D01*
X004122Y004389D02*
X004772Y004389D01*
X004673Y004487D02*
X004221Y004487D01*
X004274Y004586D02*
X004620Y004586D01*
X004587Y004684D02*
X004307Y004684D01*
X004307Y004783D02*
X004587Y004783D01*
X004605Y004881D02*
X004289Y004881D01*
X004248Y004980D02*
X004646Y004980D01*
X004736Y005078D02*
X004158Y005078D01*
X003973Y005177D02*
X004921Y005177D01*
X004804Y005374D02*
X004090Y005374D01*
X004206Y005473D02*
X004688Y005473D01*
X004626Y005571D02*
X004268Y005571D01*
X004307Y005670D02*
X004587Y005670D01*
X004587Y005768D02*
X004307Y005768D01*
X004295Y005867D02*
X004599Y005867D01*
X004640Y005965D02*
X004254Y005965D01*
X004172Y006064D02*
X004659Y006064D01*
X004561Y006162D02*
X004008Y006162D01*
X004462Y006261D02*
X003471Y006261D01*
X002887Y005670D02*
X002877Y005670D01*
X002877Y005571D02*
X002926Y005571D01*
X002877Y005473D02*
X002988Y005473D01*
X002877Y005374D02*
X003104Y005374D01*
X003221Y005177D02*
X002877Y005177D01*
X002877Y005275D02*
X005967Y005275D01*
X005967Y005177D02*
X005673Y005177D01*
X005858Y005078D02*
X005967Y005078D01*
X005967Y004980D02*
X005948Y004980D01*
X005967Y005374D02*
X005790Y005374D01*
X005906Y005473D02*
X005967Y005473D01*
X005967Y004487D02*
X005921Y004487D01*
X005967Y004389D02*
X005822Y004389D01*
X005967Y004290D02*
X002877Y004290D01*
X002877Y004389D02*
X003072Y004389D01*
X002973Y004487D02*
X002877Y004487D01*
X002877Y004586D02*
X002920Y004586D01*
X002887Y004684D02*
X002877Y004684D01*
X002877Y004783D02*
X002887Y004783D01*
X002877Y004881D02*
X002905Y004881D01*
X002877Y004980D02*
X002946Y004980D01*
X002877Y005078D02*
X003036Y005078D01*
X002417Y005078D02*
X002060Y005078D01*
X002038Y004980D02*
X002417Y004980D01*
X002417Y004881D02*
X002136Y004881D01*
X002235Y004783D02*
X002417Y004783D01*
X002417Y004684D02*
X002333Y004684D01*
X002397Y004586D02*
X002417Y004586D01*
X002417Y004487D02*
X002397Y004487D01*
X002397Y004389D02*
X002417Y004389D01*
X002417Y004290D02*
X002397Y004290D01*
X002397Y004191D02*
X002417Y004191D01*
X002417Y004093D02*
X002397Y004093D01*
X002417Y003994D02*
X002309Y003994D01*
X002211Y003896D02*
X002417Y003896D01*
X002417Y003797D02*
X002112Y003797D01*
X002169Y003699D02*
X002417Y003699D01*
X002417Y003600D02*
X002267Y003600D01*
X002366Y003502D02*
X002417Y003502D01*
X002417Y003403D02*
X002397Y003403D01*
X002397Y003305D02*
X002417Y003305D01*
X001382Y003797D02*
X001047Y003797D01*
X001047Y003699D02*
X001325Y003699D01*
X001227Y003600D02*
X001047Y003600D01*
X001047Y003502D02*
X001128Y003502D01*
X001097Y003403D02*
X001047Y003403D01*
X001047Y003305D02*
X001097Y003305D01*
X001047Y003896D02*
X001283Y003896D01*
X001185Y003994D02*
X001047Y003994D01*
X001047Y004093D02*
X001097Y004093D01*
X001097Y004191D02*
X001047Y004191D01*
X001047Y004290D02*
X001097Y004290D01*
X001097Y004389D02*
X001047Y004389D01*
X001047Y004487D02*
X001097Y004487D01*
X001097Y004586D02*
X001047Y004586D01*
X001047Y004684D02*
X001161Y004684D01*
X001259Y004783D02*
X001047Y004783D01*
X001047Y004881D02*
X001358Y004881D01*
X001456Y004980D02*
X001047Y004980D01*
X001047Y005078D02*
X001334Y005078D01*
X001248Y005177D02*
X001047Y005177D01*
X001047Y005275D02*
X001207Y005275D01*
X001177Y005374D02*
X001047Y005374D01*
X001047Y005473D02*
X001177Y005473D01*
X001184Y005571D02*
X001047Y005571D01*
X001047Y005670D02*
X001225Y005670D01*
X001255Y005768D02*
X001047Y005768D01*
X001047Y005867D02*
X001156Y005867D01*
X001058Y005965D02*
X001047Y005965D01*
X001883Y005965D02*
X002486Y005965D01*
X002417Y005867D02*
X002017Y005867D01*
X002115Y005768D02*
X002417Y005768D01*
X002417Y005670D02*
X002169Y005670D01*
X002210Y005571D02*
X002417Y005571D01*
X002417Y005473D02*
X002217Y005473D01*
X002217Y005374D02*
X002417Y005374D01*
X002417Y005275D02*
X002187Y005275D01*
X002146Y005177D02*
X002417Y005177D01*
X002584Y006064D02*
X002045Y006064D01*
X002140Y006162D02*
X002617Y006162D01*
X002617Y006261D02*
X002181Y006261D01*
X002217Y006359D02*
X002617Y006359D01*
X002617Y006458D02*
X002217Y006458D01*
X002216Y006556D02*
X002617Y006556D01*
X002617Y006655D02*
X002175Y006655D01*
X002130Y006754D02*
X002617Y006754D01*
X002538Y006852D02*
X002031Y006852D01*
X001850Y006951D02*
X002480Y006951D01*
X002446Y007049D02*
X001327Y007049D01*
X001327Y006951D02*
X001544Y006951D01*
X001363Y006852D02*
X001327Y006852D01*
X001327Y007148D02*
X002446Y007148D01*
X002468Y007246D02*
X001776Y007246D01*
X001697Y007246D02*
X001597Y007246D01*
X001518Y007246D02*
X001327Y007246D01*
X001597Y007345D02*
X001697Y007345D01*
X001697Y007443D02*
X001597Y007443D01*
X001597Y007542D02*
X001697Y007542D01*
X001697Y007640D02*
X001597Y007640D01*
X001697Y007739D02*
X002910Y007739D01*
X002811Y007640D02*
X002156Y007640D01*
X002124Y007542D02*
X002713Y007542D01*
X002608Y007443D02*
X002066Y007443D01*
X001972Y007345D02*
X002509Y007345D01*
X002627Y009513D02*
X003503Y009513D01*
X003404Y009611D02*
X002627Y009611D01*
X002627Y009710D02*
X003305Y009710D01*
X003207Y009808D02*
X002627Y009808D01*
X002627Y009907D02*
X003147Y009907D01*
X003147Y010006D02*
X002627Y010006D01*
X002627Y010104D02*
X003147Y010104D01*
X003147Y010203D02*
X002627Y010203D01*
X002627Y010301D02*
X003147Y010301D01*
X003147Y010400D02*
X002627Y010400D01*
X002627Y010498D02*
X003147Y010498D01*
X004097Y010498D02*
X004197Y010498D01*
X004197Y010400D02*
X004097Y010400D01*
X004097Y010301D02*
X004197Y010301D01*
X004197Y010637D01*
X004659Y010637D01*
X004697Y010627D01*
X004731Y010607D01*
X004759Y010579D01*
X004779Y010545D01*
X004789Y010507D01*
X004789Y010301D01*
X005167Y010301D01*
X005167Y010203D02*
X004197Y010203D01*
X004197Y010301D02*
X004789Y010301D01*
X004789Y010400D02*
X005167Y010400D01*
X005167Y010498D02*
X004789Y010498D01*
X004741Y010597D02*
X005167Y010597D01*
X005167Y010104D02*
X004789Y010104D01*
X004789Y010006D02*
X005167Y010006D01*
X005167Y009907D02*
X004744Y009907D01*
X004554Y009808D02*
X005167Y009808D01*
X005142Y009710D02*
X004607Y009710D01*
X004625Y009611D02*
X005088Y009611D01*
X005069Y009513D02*
X004616Y009513D01*
X004574Y009414D02*
X005078Y009414D01*
X005086Y009316D02*
X004723Y009316D01*
X004789Y009217D02*
X004988Y009217D01*
X006303Y008724D02*
X007193Y008724D01*
X007193Y008823D02*
X006402Y008823D01*
X005318Y007739D02*
X008557Y007739D01*
X008557Y007640D02*
X005256Y007640D01*
X005202Y007542D02*
X008557Y007542D01*
X008120Y007443D02*
X007824Y007443D01*
X007922Y007345D02*
X008021Y007345D01*
X007980Y007246D02*
X007964Y007246D01*
X007332Y007443D02*
X007036Y007443D01*
X007135Y007345D02*
X007234Y007345D01*
X007192Y007246D02*
X007176Y007246D01*
X006545Y007443D02*
X006249Y007443D01*
X006348Y007345D02*
X006446Y007345D01*
X006405Y007246D02*
X006389Y007246D01*
X005757Y007443D02*
X005462Y007443D01*
X005560Y007345D02*
X005659Y007345D01*
X005617Y007246D02*
X005602Y007246D01*
X007647Y008232D02*
X007747Y008232D01*
X007747Y008330D02*
X007647Y008330D01*
X007647Y008429D02*
X007747Y008429D01*
X007747Y008527D02*
X007647Y008527D01*
X008160Y008232D02*
X008193Y008232D01*
X008193Y009316D02*
X008142Y009316D01*
X010447Y007869D02*
X010447Y003451D01*
X009497Y002501D01*
X007647Y002051D02*
X007647Y001901D01*
X007384Y003994D02*
X007910Y003994D01*
X007910Y004093D02*
X007384Y004093D01*
X007384Y004191D02*
X007910Y004191D01*
X007910Y004290D02*
X007384Y004290D01*
X007384Y004389D02*
X007910Y004389D01*
X007942Y004487D02*
X007747Y004487D01*
X005914Y004093D02*
X005843Y004093D01*
X004708Y002319D02*
X003964Y002319D01*
X004063Y002221D02*
X004691Y002221D01*
X004593Y002122D02*
X004118Y002122D01*
X004159Y002024D02*
X004494Y002024D01*
X004396Y001925D02*
X004167Y001925D01*
X004167Y001826D02*
X004297Y001826D01*
X004198Y001728D02*
X004138Y001728D01*
X004100Y001629D02*
X004097Y001629D01*
X004356Y001235D02*
X004784Y001235D01*
X004711Y001137D02*
X004258Y001137D01*
X004159Y001038D02*
X004708Y001038D01*
X004708Y000940D02*
X004167Y000940D01*
X004167Y000841D02*
X005097Y000841D01*
X005097Y000742D02*
X005197Y000742D01*
X005197Y000644D02*
X005097Y000644D01*
X005097Y000545D02*
X005197Y000545D01*
X004719Y000545D02*
X004027Y000545D01*
X004103Y000644D02*
X004708Y000644D01*
X004708Y000742D02*
X004144Y000742D01*
X011097Y008151D02*
X011097Y008551D01*
X012077Y010451D02*
X016797Y010451D01*
X016797Y010751D01*
X016847Y010801D01*
X017497Y010801D01*
X018028Y010400D02*
X018467Y010400D01*
X018467Y010498D02*
X018127Y010498D01*
X018369Y010597D02*
X018467Y010597D01*
X018927Y010597D02*
X019093Y010597D01*
X019093Y010500D02*
X019547Y010500D01*
X019547Y010915D01*
X019223Y010915D01*
X019185Y010905D01*
X019151Y010885D01*
X019123Y010857D01*
X019103Y010823D01*
X019093Y010785D01*
X019093Y010500D01*
X019093Y010400D02*
X019093Y010115D01*
X019103Y010077D01*
X019123Y010043D01*
X019151Y010015D01*
X019185Y009995D01*
X019223Y009985D01*
X019547Y009985D01*
X019547Y010400D01*
X019647Y010400D01*
X019647Y010500D01*
X019547Y010500D01*
X019547Y010400D01*
X019093Y010400D01*
X018927Y010400D01*
X018927Y010498D02*
X019547Y010498D01*
X019547Y010400D02*
X019647Y010400D01*
X020101Y010400D01*
X020101Y010115D01*
X020091Y010077D01*
X020071Y010043D01*
X020043Y010015D01*
X020009Y009995D01*
X019971Y009985D01*
X019647Y009985D01*
X019647Y010400D01*
X019647Y010498D02*
X020232Y010498D01*
X020232Y010400D02*
X020101Y010400D01*
X020101Y010301D02*
X020232Y010301D01*
X020232Y010203D02*
X020101Y010203D01*
X020098Y010104D02*
X020232Y010104D01*
X020232Y010006D02*
X020027Y010006D01*
X020232Y009907D02*
X018927Y009907D01*
X018927Y010006D02*
X019167Y010006D01*
X019096Y010104D02*
X018927Y010104D01*
X018927Y010203D02*
X019093Y010203D01*
X019093Y010301D02*
X018927Y010301D01*
X018927Y010695D02*
X019093Y010695D01*
X019095Y010794D02*
X018927Y010794D01*
X018927Y010892D02*
X019163Y010892D01*
X019178Y011089D02*
X018927Y011089D01*
X018927Y010991D02*
X020232Y010991D01*
X020232Y011089D02*
X020016Y011089D01*
X020101Y011188D02*
X020232Y011188D01*
X020232Y011287D02*
X020101Y011287D01*
X020101Y011385D02*
X020232Y011385D01*
X020232Y011484D02*
X020101Y011484D01*
X020101Y011582D02*
X020232Y011582D01*
X020232Y011681D02*
X020101Y011681D01*
X020101Y011779D02*
X020232Y011779D01*
X020232Y011878D02*
X020101Y011878D01*
X020054Y011976D02*
X020232Y011976D01*
X020232Y012075D02*
X018927Y012075D01*
X018927Y012173D02*
X019159Y012173D01*
X019161Y012172D02*
X020033Y012172D01*
X020121Y012260D01*
X020121Y013093D01*
X020033Y013181D01*
X019161Y013181D01*
X019073Y013093D01*
X019073Y012260D01*
X019161Y012172D01*
X019073Y012272D02*
X018927Y012272D01*
X018927Y012371D02*
X019073Y012371D01*
X019073Y012469D02*
X018854Y012469D01*
X018756Y012568D02*
X019073Y012568D01*
X019073Y012666D02*
X018657Y012666D01*
X018559Y012765D02*
X019073Y012765D01*
X019073Y012863D02*
X018460Y012863D01*
X018362Y012962D02*
X019073Y012962D01*
X019073Y013060D02*
X018277Y013060D01*
X018277Y013159D02*
X019139Y013159D01*
X018924Y013553D02*
X020232Y013553D01*
X020232Y013652D02*
X018979Y013652D01*
X018979Y013750D02*
X020232Y013750D01*
X020232Y013849D02*
X018979Y013849D01*
X018979Y013947D02*
X020232Y013947D01*
X020232Y014046D02*
X018979Y014046D01*
X018979Y014144D02*
X020232Y014144D01*
X020232Y014243D02*
X018979Y014243D01*
X018979Y014341D02*
X020232Y014341D01*
X020232Y014440D02*
X018979Y014440D01*
X018979Y014539D02*
X020232Y014539D01*
X020232Y014637D02*
X018979Y014637D01*
X018979Y014736D02*
X020232Y014736D01*
X020232Y014834D02*
X018979Y014834D01*
X018941Y014933D02*
X020232Y014933D01*
X020232Y015031D02*
X017010Y015031D01*
X016980Y015001D02*
X016980Y015001D01*
X016911Y014933D02*
X018167Y014933D01*
X018128Y014834D02*
X016813Y014834D01*
X016714Y014736D02*
X018128Y014736D01*
X018128Y014637D02*
X016616Y014637D01*
X016517Y014539D02*
X018128Y014539D01*
X018553Y014834D02*
X018554Y014834D01*
X018553Y014933D02*
X018554Y014933D01*
X018042Y016214D02*
X019073Y016214D01*
X019143Y016312D02*
X018141Y016312D01*
X018239Y016411D02*
X020232Y016411D01*
X020232Y016509D02*
X018338Y016509D01*
X018437Y016608D02*
X020232Y016608D01*
X020232Y016706D02*
X018535Y016706D01*
X018634Y016805D02*
X020232Y016805D01*
X020232Y016904D02*
X018732Y016904D01*
X018831Y017002D02*
X020232Y017002D01*
X020232Y017101D02*
X018847Y017101D01*
X018847Y017199D02*
X020232Y017199D01*
X020232Y016312D02*
X020051Y016312D01*
X020121Y016214D02*
X020232Y016214D01*
X020232Y016115D02*
X020121Y016115D01*
X020121Y016017D02*
X020232Y016017D01*
X020232Y015918D02*
X020121Y015918D01*
X020121Y015820D02*
X020232Y015820D01*
X020232Y015721D02*
X020121Y015721D01*
X020121Y015622D02*
X020232Y015622D01*
X020232Y015524D02*
X020121Y015524D01*
X020121Y015425D02*
X020232Y015425D01*
X020232Y015327D02*
X020038Y015327D01*
X020232Y015228D02*
X017097Y015228D01*
X017097Y015130D02*
X020232Y015130D01*
X018392Y013471D02*
X018277Y013356D01*
X018277Y013257D02*
X020232Y013257D01*
X020232Y013159D02*
X020055Y013159D01*
X020121Y013060D02*
X020232Y013060D01*
X020232Y012962D02*
X020121Y012962D01*
X020121Y012863D02*
X020232Y012863D01*
X020232Y012765D02*
X020121Y012765D01*
X020121Y012666D02*
X020232Y012666D01*
X020232Y012568D02*
X020121Y012568D01*
X020121Y012469D02*
X020232Y012469D01*
X020232Y012371D02*
X020121Y012371D01*
X020121Y012272D02*
X020232Y012272D01*
X020232Y012173D02*
X020035Y012173D01*
X019140Y011976D02*
X018927Y011976D01*
X018927Y011878D02*
X019093Y011878D01*
X019093Y011287D02*
X018927Y011287D01*
X018927Y011188D02*
X019093Y011188D01*
X019547Y010892D02*
X019647Y010892D01*
X019647Y010915D02*
X019647Y010500D01*
X020101Y010500D01*
X020101Y010785D01*
X020091Y010823D01*
X020071Y010857D01*
X020043Y010885D01*
X020009Y010905D01*
X019971Y010915D01*
X019647Y010915D01*
X019647Y010794D02*
X019547Y010794D01*
X019547Y010695D02*
X019647Y010695D01*
X019647Y010597D02*
X019547Y010597D01*
X019547Y010301D02*
X019647Y010301D01*
X019647Y010203D02*
X019547Y010203D01*
X019547Y010104D02*
X019647Y010104D01*
X019647Y010006D02*
X019547Y010006D01*
X020101Y010597D02*
X020232Y010597D01*
X020232Y010695D02*
X020101Y010695D01*
X020099Y010794D02*
X020232Y010794D01*
X020232Y010892D02*
X020031Y010892D01*
X018467Y011188D02*
X018412Y011188D01*
X018467Y011287D02*
X016297Y011287D01*
X016297Y011385D02*
X018467Y011385D01*
X018467Y011484D02*
X016310Y011484D01*
X016347Y011582D02*
X018467Y011582D01*
X018467Y011681D02*
X016347Y011681D01*
X016347Y011779D02*
X018467Y011779D01*
X018467Y011878D02*
X016347Y011878D01*
X016347Y011976D02*
X018467Y011976D01*
X018467Y012075D02*
X016347Y012075D01*
X016319Y012173D02*
X018467Y012173D01*
X018401Y012272D02*
X017845Y012272D01*
X017822Y012250D02*
X017914Y012341D01*
X017963Y012461D01*
X017963Y012590D01*
X017914Y012709D01*
X017822Y012801D01*
X017703Y012850D01*
X017574Y012850D01*
X017454Y012801D01*
X017363Y012709D01*
X017313Y012590D01*
X017313Y012461D01*
X017363Y012341D01*
X017454Y012250D01*
X017574Y012200D01*
X017703Y012200D01*
X017822Y012250D01*
X017926Y012371D02*
X018302Y012371D01*
X018204Y012469D02*
X017963Y012469D01*
X017963Y012568D02*
X018105Y012568D01*
X018007Y012666D02*
X017932Y012666D01*
X017908Y012765D02*
X017858Y012765D01*
X017817Y012863D02*
X016515Y012863D01*
X016416Y012765D02*
X017418Y012765D01*
X017345Y012666D02*
X016318Y012666D01*
X016247Y012568D02*
X017313Y012568D01*
X017313Y012469D02*
X016247Y012469D01*
X016247Y012371D02*
X017351Y012371D01*
X017432Y012272D02*
X016247Y012272D01*
X015547Y011833D02*
X015497Y011701D01*
X016297Y011188D02*
X018082Y011188D01*
X016754Y010991D02*
X016394Y010991D01*
X016425Y010892D02*
X016655Y010892D01*
X016597Y010794D02*
X016425Y010794D01*
X016388Y010695D02*
X016597Y010695D01*
X016613Y012962D02*
X017817Y012962D01*
X017817Y013060D02*
X016712Y013060D01*
X017224Y013501D02*
X017597Y013501D01*
X017469Y013159D02*
X017817Y013159D01*
X016603Y014440D02*
X016419Y014440D01*
X016504Y014341D02*
X016320Y014341D01*
X016406Y014243D02*
X016221Y014243D01*
X016307Y014144D02*
X016123Y014144D01*
X015920Y014224D02*
X016897Y015201D01*
X016897Y016001D01*
X017297Y016401D01*
X017497Y016901D02*
X016397Y016901D01*
X016247Y016751D01*
X016247Y014951D01*
X015397Y014101D01*
X015920Y014224D02*
X015920Y013651D01*
X015947Y015101D02*
X015947Y016881D01*
X016247Y017181D01*
X016247Y017201D01*
X016647Y017201D01*
X016647Y017901D01*
X016171Y017692D02*
X016124Y017692D01*
X016066Y017593D02*
X016219Y017593D01*
X016318Y017495D02*
X015972Y017495D01*
X016159Y017396D02*
X015776Y017396D01*
X015322Y017495D02*
X014976Y017495D01*
X015075Y017593D02*
X015228Y017593D01*
X015170Y017692D02*
X015123Y017692D01*
X014417Y017396D02*
X013847Y017396D01*
X013847Y017298D02*
X014417Y017298D01*
X014318Y017495D02*
X013976Y017495D01*
X014075Y017593D02*
X014219Y017593D01*
X014171Y017692D02*
X014123Y017692D01*
X013647Y017901D02*
X013647Y015701D01*
X012897Y014951D01*
X012897Y012421D01*
X012947Y012371D01*
X013297Y012371D01*
X013152Y012666D02*
X013097Y012666D01*
X013097Y012765D02*
X013567Y012765D01*
X013567Y012863D02*
X013097Y012863D01*
X013097Y012962D02*
X013567Y012962D01*
X013567Y013060D02*
X013097Y013060D01*
X013097Y013159D02*
X013267Y013159D01*
X013233Y013257D02*
X013097Y013257D01*
X013097Y013356D02*
X013233Y013356D01*
X013233Y013455D02*
X013097Y013455D01*
X013097Y013553D02*
X013233Y013553D01*
X013233Y013652D02*
X013097Y013652D01*
X013097Y013750D02*
X013233Y013750D01*
X013097Y014046D02*
X013916Y014046D01*
X014015Y014144D02*
X013097Y014144D01*
X013097Y014243D02*
X013285Y014243D01*
X013291Y014237D02*
X013325Y014218D01*
X013363Y014207D01*
X013687Y014207D01*
X013687Y014622D01*
X013233Y014622D01*
X013233Y014338D01*
X013243Y014299D01*
X013263Y014265D01*
X013291Y014237D01*
X013233Y014341D02*
X013097Y014341D01*
X013097Y014440D02*
X013233Y014440D01*
X013233Y014539D02*
X013097Y014539D01*
X013097Y014637D02*
X013687Y014637D01*
X013687Y014539D02*
X013787Y014539D01*
X013787Y014440D02*
X013687Y014440D01*
X013687Y014341D02*
X013787Y014341D01*
X013787Y014243D02*
X013687Y014243D01*
X013233Y014736D02*
X013097Y014736D01*
X013097Y014834D02*
X013233Y014834D01*
X013233Y014933D02*
X013161Y014933D01*
X013096Y016101D02*
X012997Y016101D01*
X012947Y016151D01*
X013847Y016608D02*
X014198Y016608D01*
X014148Y016509D02*
X014248Y016509D01*
X014248Y016411D02*
X014148Y016411D01*
X014148Y016312D02*
X014248Y016312D01*
X014248Y016214D02*
X014148Y016214D01*
X014078Y016706D02*
X013847Y016706D01*
X013847Y016805D02*
X014032Y016805D01*
X014019Y016904D02*
X013847Y016904D01*
X013847Y017002D02*
X014034Y017002D01*
X014082Y017101D02*
X013847Y017101D01*
X013847Y017199D02*
X014209Y017199D01*
X015597Y019170D02*
X015697Y019170D01*
X015697Y019269D02*
X015597Y019269D01*
X015597Y019367D02*
X015697Y019367D01*
X015878Y019367D02*
X016413Y019367D01*
X016279Y019269D02*
X016015Y019269D01*
X016094Y019170D02*
X016196Y019170D01*
X016155Y019071D02*
X016138Y019071D01*
X016881Y019367D02*
X017413Y019367D01*
X017279Y019269D02*
X017015Y019269D01*
X017098Y019170D02*
X017196Y019170D01*
X017155Y019071D02*
X017139Y019071D01*
X017881Y019367D02*
X018413Y019367D01*
X018279Y019269D02*
X018015Y019269D01*
X018098Y019170D02*
X018196Y019170D01*
X018155Y019071D02*
X018139Y019071D01*
X018881Y019367D02*
X019413Y019367D01*
X019279Y019269D02*
X019015Y019269D01*
X019098Y019170D02*
X019196Y019170D01*
X019155Y019071D02*
X019139Y019071D01*
X017647Y017901D02*
X017647Y017051D01*
X017497Y016901D01*
X013766Y013570D02*
X013737Y013570D01*
X013567Y012666D02*
X013442Y012666D01*
X013564Y012568D02*
X013567Y012568D01*
X012897Y012421D02*
X012897Y012051D01*
X013097Y011851D01*
X013047Y011833D01*
X013097Y011751D01*
X013097Y011501D01*
X012797Y011201D01*
X010917Y011201D01*
X010797Y011081D01*
X011115Y010991D02*
X014150Y010991D01*
X014119Y010892D02*
X011072Y010892D01*
X010961Y010794D02*
X014119Y010794D01*
X014156Y010695D02*
X010936Y010695D01*
X013297Y011471D02*
X013297Y011471D01*
X008757Y013861D02*
X008757Y016051D01*
X005714Y015451D02*
X005714Y015451D01*
X005688Y015425D02*
X005438Y015425D01*
X005542Y015524D02*
X005678Y015524D01*
X005625Y015622D02*
X005594Y015622D01*
X004994Y015425D02*
X004651Y015425D01*
X004754Y015524D02*
X004890Y015524D01*
X004838Y015622D02*
X004807Y015622D01*
X003419Y015425D02*
X003076Y015425D01*
X003179Y015524D02*
X003315Y015524D01*
X003263Y015622D02*
X003232Y015622D01*
X003160Y019367D02*
X003351Y019367D01*
X004097Y010597D02*
X004197Y010597D01*
X015847Y004191D02*
X015947Y004191D01*
X015947Y004093D02*
X015847Y004093D01*
X015847Y003994D02*
X015947Y003994D01*
X015947Y003896D02*
X015847Y003896D01*
X015847Y003797D02*
X015947Y003797D01*
X015947Y003502D02*
X015847Y003502D01*
X015847Y003403D02*
X015947Y003403D01*
X015947Y003305D02*
X015847Y003305D01*
X015897Y004842D02*
X015897Y004851D01*
X016347Y004851D01*
D33*
X018897Y004151D03*
X013297Y006151D03*
X012647Y007051D03*
X010097Y006601D03*
X007697Y008001D03*
X007297Y005601D03*
X005847Y003101D03*
X004897Y009651D03*
X002897Y011151D03*
X004397Y017651D03*
X005397Y018651D03*
X013997Y015101D03*
X014947Y016101D03*
X017147Y012151D03*
X017047Y011201D03*
X014097Y011251D03*
D34*
X014447Y010851D03*
X014947Y010851D03*
X015597Y010851D03*
X016097Y010851D03*
X016767Y008931D03*
X016567Y008431D03*
X017427Y008161D03*
X017197Y007701D03*
X018297Y009601D03*
X018247Y010901D03*
X017597Y013501D03*
X014347Y014151D03*
X013297Y012371D03*
X012097Y012811D03*
X011597Y012751D03*
X010897Y012751D03*
X009797Y012751D03*
X008797Y012751D03*
X007797Y012751D03*
X008897Y011551D03*
X009297Y011151D03*
X010197Y011151D03*
X010797Y011081D03*
X009747Y008801D03*
X011097Y008551D03*
X012077Y008621D03*
X011297Y006351D03*
X008597Y005251D03*
X007547Y004751D03*
X006506Y002892D03*
X002547Y003001D03*
X003247Y006501D03*
X004947Y007751D03*
X005397Y009501D03*
X004297Y009601D03*
X006047Y010851D03*
X006847Y009901D03*
X006647Y008801D03*
X002397Y008251D03*
X005447Y013201D03*
X005797Y014651D03*
X003597Y013451D03*
X002247Y015401D03*
X003797Y017051D03*
X002207Y018401D03*
X003017Y019071D03*
X009547Y016276D03*
X010447Y015351D03*
X012097Y015751D03*
X012847Y016851D03*
X014347Y016901D03*
X011297Y003401D03*
X018147Y002951D03*
D35*
X012647Y001851D02*
X012647Y000901D01*
X012647Y001851D02*
X012297Y002201D01*
X012297Y002451D01*
X011347Y003401D01*
X011297Y003401D01*
X011197Y003501D01*
X011197Y005701D01*
X011697Y006201D01*
X011697Y006751D01*
X012547Y007601D01*
X012547Y008069D01*
X012047Y008069D02*
X012047Y007701D01*
X011297Y006951D01*
X011297Y006351D01*
X009547Y008069D02*
X009497Y008151D01*
X009297Y008351D01*
X009297Y010151D01*
X008847Y010601D01*
X008847Y010651D01*
X008447Y011051D01*
X008447Y012151D01*
X008297Y012301D01*
X007597Y012301D01*
X007397Y012501D01*
X007397Y012901D01*
X007647Y013151D01*
X008047Y013151D01*
X008757Y013861D01*
X008757Y016051D02*
X008457Y016351D01*
X005097Y016351D01*
X002896Y016351D01*
X002897Y017300D01*
X003797Y017051D02*
X003897Y016951D01*
X004606Y016951D01*
X002997Y018351D02*
X002897Y018402D01*
X002997Y018351D02*
X002697Y018351D01*
X002697Y018751D01*
X001997Y019451D01*
X001397Y019451D01*
X001097Y019151D01*
X001097Y013601D01*
X001647Y013051D01*
X001647Y012751D01*
X007797Y010700D02*
X007797Y009852D01*
X007697Y009752D01*
X007798Y009651D01*
X008497Y009651D01*
X008697Y009451D01*
X008697Y009402D01*
X016947Y008751D02*
X016947Y008641D01*
X017427Y008161D01*
D36*
X017447Y008751D02*
X016947Y008751D01*
X016767Y008931D01*
X017447Y008751D02*
X017497Y008801D01*
X018047Y008251D01*
X018646Y008251D01*
X018297Y009601D02*
X018697Y010001D01*
X018697Y011552D01*
X019597Y011552D01*
X018697Y011552D02*
X018697Y012301D01*
X018047Y012951D01*
X018047Y013451D01*
X018297Y013701D01*
X018516Y013701D01*
X018554Y013739D01*
X014647Y017201D02*
X014647Y017901D01*
X014647Y017201D02*
X014347Y016901D01*
X013047Y016201D02*
X012947Y016151D01*
X012847Y016251D01*
X012847Y016851D01*
X014347Y014151D02*
X013766Y013570D01*
X013737Y013570D02*
X013697Y013351D01*
X013797Y013251D01*
X013797Y012301D01*
X013557Y012061D01*
X013557Y011843D01*
X013547Y011833D01*
X009547Y008069D02*
X008928Y008069D01*
X008846Y008151D01*
X008697Y008300D01*
X008597Y005951D02*
X006197Y005951D01*
X006197Y004051D01*
X005897Y003751D01*
X005297Y003751D01*
X006506Y002892D02*
X007588Y002892D01*
X008297Y003601D01*
X008297Y003901D01*
X008297Y003901D01*
X008297Y003951D01*
X008297Y004601D01*
X008147Y004751D01*
X007547Y004751D01*
X007888Y005401D02*
X009039Y004250D01*
X009297Y004250D01*
X009297Y005351D02*
X008597Y005351D01*
X008597Y005251D01*
X008597Y005351D02*
X008597Y005951D01*
X009297Y005351D02*
X009297Y005352D01*
X005297Y005751D02*
X004547Y006501D01*
X003247Y006501D01*
X002847Y006001D02*
X002847Y007106D01*
X002854Y007113D01*
X002857Y007116D01*
X002857Y007361D01*
X003547Y008051D01*
X003547Y008901D01*
X003597Y008951D01*
X004097Y008951D01*
X004147Y008952D01*
X004147Y008951D01*
X005047Y008951D01*
X005447Y009351D01*
X005447Y009501D01*
X005397Y009501D01*
X005397Y011301D01*
X007097Y011301D01*
X007097Y011801D01*
X007098Y011802D01*
X007797Y011802D01*
X007097Y011801D02*
X007097Y013201D01*
X008144Y014248D01*
X008144Y014601D01*
X006550Y014601D02*
X006547Y014601D01*
X006547Y013951D01*
X006547Y013301D01*
X005657Y012411D01*
X005657Y012061D01*
X005647Y012101D01*
X005647Y012401D01*
X004997Y012751D02*
X005447Y013201D01*
X004997Y012751D02*
X004747Y012751D01*
X004747Y012151D01*
X004757Y012061D01*
X004747Y012101D01*
X004757Y012061D02*
X004747Y012051D01*
X004747Y011301D01*
X005397Y011301D01*
X006547Y013951D02*
X002397Y013951D01*
X002397Y008251D01*
X001097Y009251D02*
X001097Y006251D01*
X001697Y005651D01*
X001697Y005451D01*
X002647Y005801D02*
X002647Y003101D01*
X002547Y003001D01*
X003597Y003751D02*
X003647Y003701D01*
X003647Y001901D01*
X003647Y000967D02*
X003767Y000967D01*
X003697Y000901D02*
X003647Y000901D01*
X003647Y000967D01*
X003697Y000901D02*
X005147Y002351D01*
X005147Y002548D01*
X002647Y005801D02*
X002847Y006001D01*
X001097Y009251D02*
X001597Y009751D01*
X001647Y009751D01*
M02*
