G75*
G70*
%OFA0B0*%
%FSLAX24Y24*%
%IPPOS*%
%LPD*%
%AMOC8*
5,1,8,0,0,1.08239X$1,22.5*
%
%ADD10C,0.0000*%
%ADD11C,0.0740*%
%ADD12C,0.0520*%
%ADD13C,0.0515*%
%ADD14R,0.0551X0.0709*%
%ADD15R,0.0748X0.0551*%
%ADD16R,0.0591X0.0315*%
%ADD17C,0.0560*%
%ADD18R,0.0748X0.1339*%
%ADD19OC8,0.1000*%
%ADD20R,0.0472X0.0984*%
%ADD21R,0.0500X0.0250*%
%ADD22R,0.0709X0.0630*%
%ADD23R,0.0250X0.0500*%
%ADD24C,0.0100*%
%ADD25C,0.0160*%
%ADD26C,0.0356*%
%ADD27C,0.0120*%
D10*
X000897Y000806D02*
X000897Y020301D01*
X020382Y020291D01*
X020382Y000806D01*
X000897Y000806D01*
X018370Y013790D02*
X018372Y013816D01*
X018378Y013842D01*
X018388Y013867D01*
X018401Y013890D01*
X018417Y013910D01*
X018437Y013928D01*
X018459Y013943D01*
X018482Y013955D01*
X018508Y013963D01*
X018534Y013967D01*
X018560Y013967D01*
X018586Y013963D01*
X018612Y013955D01*
X018636Y013943D01*
X018657Y013928D01*
X018677Y013910D01*
X018693Y013890D01*
X018706Y013867D01*
X018716Y013842D01*
X018722Y013816D01*
X018724Y013790D01*
X018722Y013764D01*
X018716Y013738D01*
X018706Y013713D01*
X018693Y013690D01*
X018677Y013670D01*
X018657Y013652D01*
X018635Y013637D01*
X018612Y013625D01*
X018586Y013617D01*
X018560Y013613D01*
X018534Y013613D01*
X018508Y013617D01*
X018482Y013625D01*
X018458Y013637D01*
X018437Y013652D01*
X018417Y013670D01*
X018401Y013690D01*
X018388Y013713D01*
X018378Y013738D01*
X018372Y013764D01*
X018370Y013790D01*
X018370Y015522D02*
X018372Y015548D01*
X018378Y015574D01*
X018388Y015599D01*
X018401Y015622D01*
X018417Y015642D01*
X018437Y015660D01*
X018459Y015675D01*
X018482Y015687D01*
X018508Y015695D01*
X018534Y015699D01*
X018560Y015699D01*
X018586Y015695D01*
X018612Y015687D01*
X018636Y015675D01*
X018657Y015660D01*
X018677Y015642D01*
X018693Y015622D01*
X018706Y015599D01*
X018716Y015574D01*
X018722Y015548D01*
X018724Y015522D01*
X018722Y015496D01*
X018716Y015470D01*
X018706Y015445D01*
X018693Y015422D01*
X018677Y015402D01*
X018657Y015384D01*
X018635Y015369D01*
X018612Y015357D01*
X018586Y015349D01*
X018560Y015345D01*
X018534Y015345D01*
X018508Y015349D01*
X018482Y015357D01*
X018458Y015369D01*
X018437Y015384D01*
X018417Y015402D01*
X018401Y015422D01*
X018388Y015445D01*
X018378Y015470D01*
X018372Y015496D01*
X018370Y015522D01*
D11*
X018647Y018556D03*
X017647Y018556D03*
X016647Y018556D03*
X015647Y018556D03*
X014647Y018556D03*
X013647Y018556D03*
X012647Y018556D03*
X011647Y018556D03*
X010647Y018556D03*
X009647Y018556D03*
X008647Y018556D03*
X007647Y018556D03*
X006647Y018556D03*
X006647Y019556D03*
X007647Y019556D03*
X008647Y019556D03*
X009647Y019556D03*
X010647Y019556D03*
X011647Y019556D03*
X012647Y019556D03*
X013647Y019556D03*
X014647Y019556D03*
X015647Y019556D03*
X016647Y019556D03*
X017647Y019556D03*
X018647Y019556D03*
X019647Y019556D03*
X019647Y018556D03*
X019647Y002556D03*
X019647Y001556D03*
X018647Y001556D03*
X017647Y001556D03*
X016647Y001556D03*
X015647Y001556D03*
X014647Y001556D03*
X013647Y001556D03*
X012647Y001556D03*
X011647Y001556D03*
X010647Y001556D03*
X009647Y001556D03*
X008647Y001556D03*
X007647Y001556D03*
X006647Y001556D03*
X006647Y002556D03*
X007647Y002556D03*
X008647Y002556D03*
X009647Y002556D03*
X010647Y002556D03*
X011647Y002556D03*
X012647Y002556D03*
X013647Y002556D03*
X014647Y002556D03*
X015647Y002556D03*
X016647Y002556D03*
X017647Y002556D03*
X018647Y002556D03*
X003647Y002556D03*
X003647Y001556D03*
X002647Y001556D03*
X001647Y001556D03*
X001647Y002556D03*
X002647Y002556D03*
X001697Y006106D03*
X001697Y007106D03*
X001647Y008406D03*
X001647Y009406D03*
X001647Y010406D03*
X001647Y011406D03*
X001647Y012406D03*
X001647Y013406D03*
X001647Y014556D03*
X001647Y015556D03*
X001647Y016556D03*
X001647Y017556D03*
X001647Y018556D03*
X001647Y019556D03*
D12*
X012247Y007206D03*
X014147Y007206D03*
X016347Y006806D03*
X017347Y006806D03*
D13*
X009940Y007768D03*
X009153Y007768D03*
X008366Y007768D03*
X007578Y007768D03*
X006791Y007768D03*
X006003Y007768D03*
X005216Y007768D03*
X004429Y007768D03*
X003641Y007768D03*
X002854Y007768D03*
X002854Y016430D03*
X003641Y016430D03*
X004429Y016430D03*
X005216Y016430D03*
X006003Y016430D03*
X006791Y016430D03*
X007578Y016430D03*
X008366Y016430D03*
X009153Y016430D03*
X009940Y016430D03*
D14*
X013104Y016849D03*
X013104Y014605D03*
D15*
X018282Y017479D03*
X018675Y012302D03*
D16*
X017160Y014137D03*
X017002Y014570D03*
X017160Y015003D03*
X017238Y015436D03*
X017160Y015869D03*
X017238Y016302D03*
X017160Y016735D03*
X017160Y017168D03*
D17*
X005577Y006406D02*
X005017Y006406D01*
X005017Y005406D02*
X005577Y005406D01*
X005577Y004406D02*
X005017Y004406D01*
X003877Y004406D02*
X003317Y004406D01*
X003317Y005406D02*
X003877Y005406D01*
X003877Y006406D02*
X003317Y006406D01*
D18*
X006879Y004556D03*
X008415Y004556D03*
D19*
X001747Y005006D03*
X001747Y003856D03*
D20*
X012997Y004406D03*
X014297Y004406D03*
D21*
X014197Y006129D03*
X014197Y006483D03*
X012297Y006483D03*
X012297Y006129D03*
X011997Y004706D03*
X011997Y004356D03*
X011997Y004006D03*
X016347Y005829D03*
X016347Y006183D03*
X017347Y006183D03*
X017347Y005829D03*
D22*
X015997Y009855D03*
X014997Y009855D03*
X013997Y009855D03*
X012997Y009855D03*
X011997Y009855D03*
X010997Y009855D03*
X010997Y010957D03*
X011997Y010957D03*
X012997Y010957D03*
X013997Y010957D03*
X014997Y010957D03*
X015997Y010957D03*
X012097Y014055D03*
X011097Y014055D03*
X010097Y014055D03*
X009097Y014055D03*
X008097Y014055D03*
X007097Y014055D03*
X007097Y015157D03*
X008097Y015157D03*
X009097Y015157D03*
X010097Y015157D03*
X011097Y015157D03*
X012097Y015157D03*
X010397Y005157D03*
X010397Y004055D03*
D23*
X006347Y012156D03*
X005997Y012156D03*
X005647Y012156D03*
X004447Y012156D03*
X004097Y012156D03*
X003747Y012156D03*
D24*
X002997Y011406D01*
X002897Y011406D01*
X001647Y011406D01*
X001443Y011906D02*
X001341Y011864D01*
X001189Y011712D01*
X001107Y011514D01*
X001107Y011299D01*
X001189Y011100D01*
X001341Y010949D01*
X001443Y010906D01*
X001341Y010864D01*
X001189Y010712D01*
X001107Y010514D01*
X001107Y010299D01*
X001189Y010100D01*
X001341Y009949D01*
X001443Y009906D01*
X001341Y009864D01*
X001189Y009712D01*
X001107Y009514D01*
X001107Y009299D01*
X001189Y009100D01*
X001341Y008949D01*
X001470Y008895D01*
X001447Y008888D01*
X001374Y008851D01*
X001308Y008803D01*
X001250Y008745D01*
X001202Y008679D01*
X001165Y008606D01*
X001140Y008528D01*
X001128Y008456D01*
X001597Y008456D01*
X001597Y008356D01*
X001697Y008356D01*
X001697Y007888D01*
X001769Y007899D01*
X001847Y007924D01*
X001920Y007962D01*
X001986Y008010D01*
X002044Y008068D01*
X002092Y008134D01*
X002129Y008207D01*
X002147Y008263D01*
X002147Y007456D01*
X002147Y007420D01*
X002003Y007564D01*
X001804Y007646D01*
X001590Y007646D01*
X001391Y007564D01*
X001239Y007412D01*
X001157Y007214D01*
X001157Y006999D01*
X001239Y006800D01*
X001391Y006649D01*
X001493Y006606D01*
X001391Y006564D01*
X001239Y006412D01*
X001157Y006214D01*
X001157Y005999D01*
X001239Y005800D01*
X001391Y005649D01*
X001427Y005634D01*
X001077Y005284D01*
X001077Y004729D01*
X001389Y004417D01*
X001097Y004126D01*
X001097Y003906D01*
X001697Y003906D01*
X001697Y003806D01*
X001797Y003806D01*
X001797Y003206D01*
X001844Y003206D01*
X001734Y003096D01*
X001540Y003096D01*
X001341Y003014D01*
X001189Y002862D01*
X001107Y002664D01*
X001107Y002449D01*
X001189Y002250D01*
X001341Y002099D01*
X001397Y002075D01*
X001397Y002037D01*
X001341Y002014D01*
X001189Y001862D01*
X001107Y001664D01*
X001107Y001449D01*
X001189Y001250D01*
X001341Y001099D01*
X001540Y001016D01*
X001754Y001016D01*
X001953Y001099D01*
X002105Y001250D01*
X002158Y001379D01*
X002165Y001357D01*
X002202Y001284D01*
X002250Y001218D01*
X002308Y001160D01*
X002374Y001112D01*
X002447Y001074D01*
X002525Y001049D01*
X002597Y001038D01*
X002597Y001506D01*
X002697Y001506D01*
X002697Y001038D01*
X002769Y001049D01*
X002847Y001074D01*
X002920Y001112D01*
X002986Y001160D01*
X003044Y001218D01*
X003092Y001284D01*
X003129Y001357D01*
X003136Y001379D01*
X003189Y001250D01*
X003341Y001099D01*
X003540Y001016D01*
X003754Y001016D01*
X003953Y001099D01*
X004105Y001250D01*
X004187Y001449D01*
X004187Y001664D01*
X004105Y001862D01*
X003953Y002014D01*
X003897Y002037D01*
X003897Y002075D01*
X003953Y002099D01*
X004105Y002250D01*
X004128Y002306D01*
X005465Y002306D01*
X005564Y002306D01*
X005656Y002344D01*
X006511Y003199D01*
X006575Y003199D01*
X006703Y003252D01*
X006801Y003350D01*
X006854Y003478D01*
X006854Y003617D01*
X006812Y003717D01*
X007324Y003717D01*
X007423Y003817D01*
X007423Y005081D01*
X007478Y005058D01*
X007616Y005058D01*
X007744Y005111D01*
X007789Y005156D01*
X007871Y005156D01*
X007871Y003817D01*
X007970Y003717D01*
X008859Y003717D01*
X008959Y003817D01*
X008959Y005191D01*
X009135Y005015D01*
X009205Y004944D01*
X009297Y004906D01*
X009873Y004906D01*
X009873Y004772D01*
X009972Y004673D01*
X010822Y004673D01*
X010921Y004772D01*
X010921Y005543D01*
X010822Y005642D01*
X009972Y005642D01*
X009873Y005543D01*
X009873Y005406D01*
X009451Y005406D01*
X008945Y005912D01*
X008945Y005976D01*
X008892Y006103D01*
X008794Y006201D01*
X008666Y006254D01*
X008528Y006254D01*
X008400Y006201D01*
X008302Y006103D01*
X008249Y005976D01*
X008249Y005837D01*
X008302Y005709D01*
X008400Y005611D01*
X008528Y005558D01*
X008592Y005558D01*
X008754Y005396D01*
X008461Y005396D01*
X008239Y005618D01*
X008147Y005656D01*
X008047Y005656D01*
X007789Y005656D01*
X007744Y005701D01*
X007616Y005754D01*
X007478Y005754D01*
X007350Y005701D01*
X007305Y005656D01*
X005960Y005656D01*
X005958Y005661D01*
X005832Y005788D01*
X005666Y005856D01*
X004927Y005856D01*
X004762Y005788D01*
X004636Y005661D01*
X004567Y005496D01*
X004567Y005440D01*
X004389Y005618D01*
X004297Y005656D01*
X004260Y005656D01*
X004258Y005661D01*
X004132Y005788D01*
X003966Y005856D01*
X003227Y005856D01*
X003062Y005788D01*
X002981Y005706D01*
X002651Y005706D01*
X002597Y005760D01*
X002597Y006706D01*
X002559Y006798D01*
X002489Y006868D01*
X002237Y007120D01*
X002237Y007213D01*
X002435Y007015D01*
X002505Y006944D01*
X002597Y006906D01*
X003005Y006906D01*
X003050Y006861D01*
X003145Y006822D01*
X003062Y006788D01*
X002936Y006661D01*
X002867Y006496D01*
X002867Y006317D01*
X002936Y006151D01*
X003062Y006025D01*
X003227Y005956D01*
X003966Y005956D01*
X004132Y006025D01*
X004258Y006151D01*
X004327Y006317D01*
X004327Y006496D01*
X004260Y006656D01*
X004634Y006656D01*
X004567Y006496D01*
X004567Y006317D01*
X004636Y006151D01*
X004762Y006025D01*
X004927Y005956D01*
X005666Y005956D01*
X005832Y006025D01*
X005958Y006151D01*
X006027Y006317D01*
X006027Y006496D01*
X005960Y006656D01*
X010447Y006656D01*
X010539Y006694D01*
X010609Y006765D01*
X010970Y007125D01*
X010949Y007076D01*
X010949Y006937D01*
X011002Y006809D01*
X011067Y006744D01*
X011067Y004752D01*
X011067Y004561D01*
X011225Y004403D01*
X011100Y004351D01*
X011035Y004286D01*
X010921Y004286D01*
X010921Y004440D01*
X010822Y004540D01*
X009972Y004540D01*
X009873Y004440D01*
X009873Y003670D01*
X009972Y003570D01*
X010822Y003570D01*
X010921Y003670D01*
X010921Y003826D01*
X011035Y003826D01*
X011100Y003761D01*
X011228Y003708D01*
X011366Y003708D01*
X011494Y003761D01*
X011577Y003844D01*
X011577Y003811D01*
X011677Y003711D01*
X011767Y003711D01*
X011767Y003091D01*
X011754Y003096D01*
X011540Y003096D01*
X011341Y003014D01*
X011189Y002862D01*
X011147Y002760D01*
X011105Y002862D01*
X010953Y003014D01*
X010754Y003096D01*
X010540Y003096D01*
X010341Y003014D01*
X010189Y002862D01*
X010147Y002760D01*
X010105Y002862D01*
X009953Y003014D01*
X009754Y003096D01*
X009540Y003096D01*
X009341Y003014D01*
X009189Y002862D01*
X009147Y002760D01*
X009105Y002862D01*
X008953Y003014D01*
X008754Y003096D01*
X008540Y003096D01*
X008341Y003014D01*
X008189Y002862D01*
X008147Y002760D01*
X008105Y002862D01*
X007953Y003014D01*
X007754Y003096D01*
X007540Y003096D01*
X007341Y003014D01*
X007189Y002862D01*
X007147Y002760D01*
X007105Y002862D01*
X006953Y003014D01*
X006754Y003096D01*
X006540Y003096D01*
X006341Y003014D01*
X006189Y002862D01*
X006107Y002664D01*
X006107Y002449D01*
X006189Y002250D01*
X006341Y002099D01*
X006397Y002075D01*
X006397Y002037D01*
X006341Y002014D01*
X006189Y001862D01*
X006107Y001664D01*
X006107Y001449D01*
X006189Y001250D01*
X006341Y001099D01*
X006540Y001016D01*
X006754Y001016D01*
X006953Y001099D01*
X007105Y001250D01*
X007147Y001352D01*
X007189Y001250D01*
X007341Y001099D01*
X007540Y001016D01*
X007754Y001016D01*
X007953Y001099D01*
X008105Y001250D01*
X008147Y001352D01*
X008189Y001250D01*
X008341Y001099D01*
X008540Y001016D01*
X008754Y001016D01*
X008953Y001099D01*
X009105Y001250D01*
X009147Y001352D01*
X009189Y001250D01*
X009341Y001099D01*
X009540Y001016D01*
X009754Y001016D01*
X009953Y001099D01*
X010105Y001250D01*
X010147Y001352D01*
X010189Y001250D01*
X010341Y001099D01*
X010540Y001016D01*
X010754Y001016D01*
X010953Y001099D01*
X011105Y001250D01*
X011147Y001352D01*
X011189Y001250D01*
X011341Y001099D01*
X011540Y001016D01*
X011754Y001016D01*
X011953Y001099D01*
X012105Y001250D01*
X012147Y001352D01*
X012189Y001250D01*
X012341Y001099D01*
X012540Y001016D01*
X012754Y001016D01*
X012953Y001099D01*
X013105Y001250D01*
X013158Y001379D01*
X013165Y001357D01*
X013202Y001284D01*
X013250Y001218D01*
X013308Y001160D01*
X013374Y001112D01*
X013447Y001074D01*
X013525Y001049D01*
X013597Y001038D01*
X013597Y001506D01*
X013697Y001506D01*
X013697Y001038D01*
X013769Y001049D01*
X013847Y001074D01*
X013920Y001112D01*
X013986Y001160D01*
X014044Y001218D01*
X014092Y001284D01*
X014129Y001357D01*
X014136Y001379D01*
X014189Y001250D01*
X014341Y001099D01*
X014540Y001016D01*
X014754Y001016D01*
X014953Y001099D01*
X015105Y001250D01*
X015147Y001352D01*
X015189Y001250D01*
X015341Y001099D01*
X015540Y001016D01*
X015754Y001016D01*
X015953Y001099D01*
X016105Y001250D01*
X016147Y001352D01*
X016189Y001250D01*
X016341Y001099D01*
X016540Y001016D01*
X016754Y001016D01*
X016953Y001099D01*
X017105Y001250D01*
X017147Y001352D01*
X017189Y001250D01*
X017341Y001099D01*
X017540Y001016D01*
X017754Y001016D01*
X017953Y001099D01*
X018105Y001250D01*
X018147Y001352D01*
X018189Y001250D01*
X018341Y001099D01*
X018540Y001016D01*
X018754Y001016D01*
X018953Y001099D01*
X019105Y001250D01*
X019147Y001352D01*
X019189Y001250D01*
X019341Y001099D01*
X019540Y001016D01*
X019754Y001016D01*
X019953Y001099D01*
X020105Y001250D01*
X020187Y001449D01*
X020187Y001664D01*
X020105Y001862D01*
X019953Y002014D01*
X019897Y002037D01*
X019897Y002075D01*
X019953Y002099D01*
X020105Y002250D01*
X020187Y002449D01*
X020187Y002664D01*
X020105Y002862D01*
X019953Y003014D01*
X019754Y003096D01*
X019540Y003096D01*
X019341Y003014D01*
X019189Y002862D01*
X019147Y002760D01*
X019105Y002862D01*
X018953Y003014D01*
X018754Y003096D01*
X018540Y003096D01*
X018341Y003014D01*
X018189Y002862D01*
X018147Y002760D01*
X018105Y002862D01*
X017953Y003014D01*
X017754Y003096D01*
X017567Y003096D01*
X017567Y005534D01*
X017667Y005534D01*
X017767Y005634D01*
X017767Y006025D01*
X017767Y006379D01*
X017667Y006478D01*
X017627Y006478D01*
X017711Y006563D01*
X017777Y006721D01*
X017777Y006892D01*
X017711Y007050D01*
X017591Y007171D01*
X017433Y007236D01*
X017261Y007236D01*
X017103Y007171D01*
X016982Y007050D01*
X016917Y006892D01*
X016917Y006721D01*
X016982Y006563D01*
X017067Y006478D01*
X017027Y006478D01*
X016927Y006379D01*
X016927Y006025D01*
X016927Y005634D01*
X017027Y005534D01*
X017127Y005534D01*
X017127Y002947D01*
X017127Y002808D01*
X017105Y002862D01*
X016953Y003014D01*
X016817Y003070D01*
X016817Y005597D01*
X016767Y005647D01*
X016767Y006025D01*
X016767Y006379D01*
X016667Y006478D01*
X016627Y006478D01*
X016711Y006563D01*
X016777Y006721D01*
X016777Y006892D01*
X016711Y007050D01*
X016591Y007171D01*
X016433Y007236D01*
X016261Y007236D01*
X016103Y007171D01*
X015982Y007050D01*
X015917Y006892D01*
X015917Y006721D01*
X015982Y006563D01*
X016067Y006478D01*
X016027Y006478D01*
X015927Y006379D01*
X015927Y006025D01*
X015927Y005634D01*
X016027Y005534D01*
X016258Y005534D01*
X016377Y005415D01*
X016377Y003029D01*
X016341Y003014D01*
X016189Y002862D01*
X016147Y002760D01*
X016105Y002862D01*
X015953Y003014D01*
X015867Y003050D01*
X015867Y003365D01*
X015867Y003547D01*
X015217Y004197D01*
X015217Y005197D01*
X015088Y005326D01*
X014549Y005866D01*
X014617Y005934D01*
X014617Y006325D01*
X015927Y006325D01*
X015927Y006226D02*
X014617Y006226D01*
X014617Y006128D02*
X015927Y006128D01*
X015927Y006029D02*
X014617Y006029D01*
X014614Y005931D02*
X015927Y005931D01*
X015927Y005832D02*
X014582Y005832D01*
X014681Y005733D02*
X015927Y005733D01*
X015927Y005635D02*
X014779Y005635D01*
X014878Y005536D02*
X016024Y005536D01*
X016354Y005438D02*
X014977Y005438D01*
X015075Y005339D02*
X016377Y005339D01*
X016377Y005241D02*
X015174Y005241D01*
X015217Y005142D02*
X016377Y005142D01*
X016377Y005044D02*
X015217Y005044D01*
X015217Y004945D02*
X016377Y004945D01*
X016377Y004847D02*
X015217Y004847D01*
X015217Y004748D02*
X016377Y004748D01*
X016377Y004649D02*
X015217Y004649D01*
X015217Y004551D02*
X016377Y004551D01*
X016377Y004452D02*
X015217Y004452D01*
X015217Y004354D02*
X016377Y004354D01*
X016377Y004255D02*
X015217Y004255D01*
X015258Y004157D02*
X016377Y004157D01*
X016377Y004058D02*
X015356Y004058D01*
X015455Y003960D02*
X016377Y003960D01*
X016377Y003861D02*
X015553Y003861D01*
X015652Y003763D02*
X016377Y003763D01*
X016377Y003664D02*
X015750Y003664D01*
X015849Y003566D02*
X016377Y003566D01*
X016377Y003467D02*
X015867Y003467D01*
X015867Y003368D02*
X016377Y003368D01*
X016377Y003270D02*
X015867Y003270D01*
X015867Y003171D02*
X016377Y003171D01*
X016377Y003073D02*
X015867Y003073D01*
X015993Y002974D02*
X016301Y002974D01*
X016203Y002876D02*
X016091Y002876D01*
X016140Y002777D02*
X016154Y002777D01*
X016597Y002606D02*
X016647Y002556D01*
X016597Y002606D02*
X016597Y005506D01*
X016347Y005756D01*
X016347Y005829D01*
X016347Y006183D02*
X016347Y006806D01*
X016046Y007113D02*
X014574Y007113D01*
X014577Y007121D02*
X014577Y007292D01*
X014511Y007450D01*
X014391Y007571D01*
X014233Y007636D01*
X014061Y007636D01*
X013903Y007571D01*
X013782Y007450D01*
X013717Y007292D01*
X013717Y007121D01*
X013782Y006963D01*
X013903Y006842D01*
X013927Y006832D01*
X013927Y006778D01*
X013877Y006778D01*
X013777Y006679D01*
X013777Y006325D01*
X012717Y006325D01*
X012717Y006679D01*
X012617Y006778D01*
X012467Y006778D01*
X012467Y006832D01*
X012491Y006842D01*
X012611Y006963D01*
X012677Y007121D01*
X012677Y007292D01*
X012611Y007450D01*
X012491Y007571D01*
X012333Y007636D01*
X012161Y007636D01*
X012003Y007571D01*
X011882Y007450D01*
X011817Y007292D01*
X011817Y007121D01*
X011882Y006963D01*
X012003Y006842D01*
X012027Y006832D01*
X012027Y006778D01*
X011977Y006778D01*
X011877Y006679D01*
X011877Y006325D01*
X011527Y006325D01*
X011527Y006423D02*
X011877Y006423D01*
X011877Y006325D02*
X011877Y005934D01*
X011977Y005834D01*
X012358Y005834D01*
X013124Y005068D01*
X012691Y005068D01*
X012591Y004969D01*
X012591Y004936D01*
X012382Y004936D01*
X012317Y005001D01*
X011677Y005001D01*
X011577Y004902D01*
X011577Y004701D01*
X011527Y004752D01*
X011527Y006744D01*
X011592Y006809D01*
X011645Y006937D01*
X011645Y007076D01*
X011592Y007203D01*
X011494Y007301D01*
X011366Y007354D01*
X011228Y007354D01*
X011178Y007334D01*
X011750Y007906D01*
X016247Y007906D01*
X016339Y007944D01*
X016409Y008015D01*
X016701Y008306D01*
X017547Y008306D01*
X017647Y008306D01*
X017739Y008344D01*
X018289Y008894D01*
X018359Y008965D01*
X018397Y009057D01*
X018397Y010453D01*
X018702Y010758D01*
X018766Y010758D01*
X018894Y010811D01*
X018992Y010909D01*
X019045Y011037D01*
X019045Y011176D01*
X018992Y011303D01*
X018894Y011401D01*
X018766Y011454D01*
X018628Y011454D01*
X018500Y011401D01*
X018402Y011303D01*
X018349Y011176D01*
X018349Y011112D01*
X017935Y010698D01*
X017897Y010606D01*
X017897Y010507D01*
X017897Y009210D01*
X017493Y008806D01*
X016647Y008806D01*
X016547Y008806D01*
X016455Y008768D01*
X016093Y008406D01*
X011597Y008406D01*
X011505Y008368D01*
X011435Y008298D01*
X011435Y008298D01*
X010294Y007156D01*
X004147Y007156D01*
X004047Y007156D01*
X003955Y007118D01*
X003694Y006856D01*
X003432Y006856D01*
X003444Y006861D01*
X003542Y006959D01*
X003595Y007087D01*
X003595Y007226D01*
X003546Y007345D01*
X003556Y007341D01*
X003726Y007341D01*
X003883Y007406D01*
X004003Y007526D01*
X004035Y007602D01*
X004066Y007526D01*
X004186Y007406D01*
X004343Y007341D01*
X004514Y007341D01*
X004671Y007406D01*
X004791Y007526D01*
X004822Y007602D01*
X004854Y007526D01*
X004974Y007406D01*
X005131Y007341D01*
X005301Y007341D01*
X005458Y007406D01*
X005578Y007526D01*
X005610Y007602D01*
X005641Y007526D01*
X005761Y007406D01*
X005918Y007341D01*
X006088Y007341D01*
X006245Y007406D01*
X006366Y007526D01*
X006397Y007602D01*
X006428Y007526D01*
X006549Y007406D01*
X006706Y007341D01*
X006876Y007341D01*
X007033Y007406D01*
X007153Y007526D01*
X007184Y007602D01*
X007216Y007526D01*
X007336Y007406D01*
X007493Y007341D01*
X007663Y007341D01*
X007820Y007406D01*
X007940Y007526D01*
X007972Y007602D01*
X008003Y007526D01*
X008123Y007406D01*
X008280Y007341D01*
X008451Y007341D01*
X008608Y007406D01*
X008728Y007526D01*
X008759Y007602D01*
X008791Y007526D01*
X008911Y007406D01*
X009068Y007341D01*
X009238Y007341D01*
X009395Y007406D01*
X009515Y007526D01*
X009557Y007628D01*
X009563Y007612D01*
X009592Y007555D01*
X009629Y007503D01*
X009675Y007457D01*
X009727Y007420D01*
X009784Y007390D01*
X009845Y007371D01*
X009908Y007361D01*
X009911Y007361D01*
X009911Y007739D01*
X009969Y007739D01*
X009969Y007361D01*
X009972Y007361D01*
X010036Y007371D01*
X010097Y007390D01*
X010154Y007420D01*
X010206Y007457D01*
X010251Y007503D01*
X010289Y007555D01*
X010318Y007612D01*
X010338Y007673D01*
X010348Y007736D01*
X010348Y007739D01*
X009969Y007739D01*
X009969Y007797D01*
X009911Y007797D01*
X009911Y008176D01*
X009908Y008176D01*
X009845Y008166D01*
X009784Y008146D01*
X009727Y008117D01*
X009675Y008079D01*
X009629Y008034D01*
X009592Y007982D01*
X009563Y007925D01*
X009557Y007908D01*
X009515Y008010D01*
X009395Y008130D01*
X009238Y008196D01*
X009068Y008196D01*
X008911Y008130D01*
X008791Y008010D01*
X008759Y007935D01*
X008728Y008010D01*
X008608Y008130D01*
X008451Y008196D01*
X008280Y008196D01*
X008123Y008130D01*
X008003Y008010D01*
X007972Y007935D01*
X007940Y008010D01*
X007820Y008130D01*
X007663Y008196D01*
X007493Y008196D01*
X007336Y008130D01*
X007216Y008010D01*
X007184Y007935D01*
X007153Y008010D01*
X007033Y008130D01*
X006876Y008196D01*
X006706Y008196D01*
X006549Y008130D01*
X006428Y008010D01*
X006397Y007935D01*
X006366Y008010D01*
X006245Y008130D01*
X006088Y008196D01*
X005918Y008196D01*
X005761Y008130D01*
X005641Y008010D01*
X005610Y007935D01*
X005578Y008010D01*
X005458Y008130D01*
X005301Y008196D01*
X005131Y008196D01*
X004974Y008130D01*
X004854Y008010D01*
X004822Y007935D01*
X004791Y008010D01*
X004671Y008130D01*
X004648Y008140D01*
X004648Y009697D01*
X005049Y010097D01*
X005049Y010087D01*
X005102Y009959D01*
X005200Y009861D01*
X005328Y009808D01*
X005442Y009808D01*
X005535Y009715D01*
X005605Y009644D01*
X005697Y009606D01*
X010473Y009606D01*
X010473Y009470D01*
X010572Y009370D01*
X011422Y009370D01*
X011497Y009445D01*
X011572Y009370D01*
X012422Y009370D01*
X012497Y009445D01*
X012572Y009370D01*
X013422Y009370D01*
X013497Y009445D01*
X013572Y009370D01*
X014422Y009370D01*
X014497Y009445D01*
X014572Y009370D01*
X015422Y009370D01*
X015497Y009445D01*
X015572Y009370D01*
X016299Y009370D01*
X016299Y009337D01*
X016352Y009209D01*
X016450Y009111D01*
X016578Y009058D01*
X016716Y009058D01*
X016844Y009111D01*
X016942Y009209D01*
X016995Y009337D01*
X016995Y009476D01*
X016942Y009603D01*
X016844Y009701D01*
X016716Y009754D01*
X016652Y009754D01*
X016521Y009885D01*
X016521Y010240D01*
X016422Y010340D01*
X015572Y010340D01*
X015497Y010265D01*
X015422Y010340D01*
X014572Y010340D01*
X014497Y010265D01*
X014422Y010340D01*
X013572Y010340D01*
X013497Y010265D01*
X013422Y010340D01*
X012572Y010340D01*
X012497Y010265D01*
X012422Y010340D01*
X011572Y010340D01*
X011497Y010265D01*
X011422Y010340D01*
X010572Y010340D01*
X010473Y010240D01*
X010473Y010106D01*
X005851Y010106D01*
X005745Y010212D01*
X005745Y010226D01*
X005692Y010353D01*
X005594Y010451D01*
X005466Y010504D01*
X005456Y010504D01*
X006088Y011136D01*
X006217Y011265D01*
X006217Y011736D01*
X006542Y011736D01*
X006642Y011836D01*
X006642Y011936D01*
X011335Y011936D01*
X011302Y011903D01*
X011249Y011776D01*
X011249Y011669D01*
X011022Y011442D01*
X010572Y011442D01*
X010473Y011343D01*
X010473Y010572D01*
X010572Y010473D01*
X011422Y010473D01*
X011497Y010548D01*
X011572Y010473D01*
X012422Y010473D01*
X012497Y010548D01*
X012572Y010473D01*
X013422Y010473D01*
X013497Y010548D01*
X013572Y010473D01*
X014422Y010473D01*
X014497Y010548D01*
X014572Y010473D01*
X015422Y010473D01*
X015497Y010548D01*
X015572Y010473D01*
X016422Y010473D01*
X016521Y010572D01*
X016521Y011343D01*
X016422Y011442D01*
X016325Y011442D01*
X016392Y011509D01*
X016445Y011637D01*
X016445Y011776D01*
X016392Y011903D01*
X016294Y012001D01*
X016166Y012054D01*
X016028Y012054D01*
X015900Y012001D01*
X015847Y011949D01*
X015794Y012001D01*
X015666Y012054D01*
X015528Y012054D01*
X015400Y012001D01*
X015302Y011903D01*
X015297Y011892D01*
X015292Y011903D01*
X015194Y012001D01*
X015066Y012054D01*
X014928Y012054D01*
X014800Y012001D01*
X014702Y011903D01*
X014682Y011856D01*
X014642Y011953D01*
X014544Y012051D01*
X014416Y012104D01*
X014278Y012104D01*
X014150Y012051D01*
X014052Y011953D01*
X013999Y011826D01*
X013999Y011726D01*
X013388Y011726D01*
X012738Y012376D01*
X012556Y012376D01*
X006642Y012376D01*
X006642Y012477D01*
X006542Y012576D01*
X006488Y012576D01*
X006438Y012626D01*
X006228Y012836D01*
X014775Y012836D01*
X014850Y012761D01*
X014978Y012708D01*
X015116Y012708D01*
X015244Y012761D01*
X015342Y012859D01*
X015395Y012987D01*
X015395Y013126D01*
X015342Y013253D01*
X015244Y013351D01*
X015116Y013404D01*
X014978Y013404D01*
X014850Y013351D01*
X014775Y013276D01*
X014470Y013276D01*
X014789Y013594D01*
X014859Y013665D01*
X014897Y013757D01*
X014897Y015306D01*
X015432Y015306D01*
X015452Y015259D01*
X015550Y015161D01*
X015678Y015108D01*
X015816Y015108D01*
X015944Y015161D01*
X016042Y015259D01*
X016069Y015323D01*
X016477Y014915D01*
X016566Y014826D01*
X016537Y014798D01*
X016537Y014342D01*
X016636Y014242D01*
X016694Y014242D01*
X016694Y013909D01*
X016701Y013902D01*
X016700Y013901D01*
X016602Y013803D01*
X016549Y013676D01*
X016549Y013537D01*
X016602Y013409D01*
X016700Y013311D01*
X016828Y013258D01*
X016966Y013258D01*
X017094Y013311D01*
X017169Y013386D01*
X017606Y013386D01*
X017627Y013365D01*
X017756Y013236D01*
X018416Y013236D01*
X018377Y013197D01*
X017777Y012597D01*
X017777Y012429D01*
X017702Y012353D01*
X017649Y012226D01*
X017649Y012087D01*
X017702Y011959D01*
X017800Y011861D01*
X017928Y011808D01*
X018066Y011808D01*
X018194Y011861D01*
X018228Y011895D01*
X018243Y011887D01*
X018282Y011876D01*
X018625Y011876D01*
X018625Y012252D01*
X018725Y012252D01*
X018725Y011876D01*
X019069Y011876D01*
X019107Y011887D01*
X019141Y011906D01*
X019169Y011934D01*
X019189Y011968D01*
X019199Y012007D01*
X019199Y012252D01*
X018725Y012252D01*
X018725Y012352D01*
X018625Y012352D01*
X018625Y012728D01*
X018529Y012728D01*
X018688Y012886D01*
X019138Y012886D01*
X019267Y013015D01*
X019267Y013015D01*
X019338Y013086D01*
X019467Y013215D01*
X019467Y013394D01*
X019500Y013361D01*
X019628Y013308D01*
X019766Y013308D01*
X019894Y013361D01*
X019992Y013459D01*
X020045Y013587D01*
X020045Y013726D01*
X019992Y013853D01*
X019917Y013929D01*
X019917Y018084D01*
X019953Y018099D01*
X020105Y018250D01*
X020187Y018449D01*
X020187Y018664D01*
X020105Y018862D01*
X019953Y019014D01*
X019897Y019037D01*
X019897Y019075D01*
X019953Y019099D01*
X020105Y019250D01*
X020187Y019449D01*
X020187Y019664D01*
X020105Y019862D01*
X019953Y020014D01*
X019754Y020096D01*
X019540Y020096D01*
X019341Y020014D01*
X019189Y019862D01*
X019147Y019760D01*
X019105Y019862D01*
X018953Y020014D01*
X018754Y020096D01*
X018540Y020096D01*
X018341Y020014D01*
X018189Y019862D01*
X018147Y019760D01*
X018105Y019862D01*
X017953Y020014D01*
X017754Y020096D01*
X017540Y020096D01*
X017341Y020014D01*
X017189Y019862D01*
X017147Y019760D01*
X017105Y019862D01*
X016953Y020014D01*
X016754Y020096D01*
X016540Y020096D01*
X016341Y020014D01*
X016189Y019862D01*
X016136Y019734D01*
X016129Y019756D01*
X016092Y019829D01*
X016044Y019895D01*
X015986Y019953D01*
X015920Y020001D01*
X015847Y020038D01*
X015769Y020063D01*
X015697Y020075D01*
X015697Y019606D01*
X015597Y019606D01*
X015597Y020075D01*
X015525Y020063D01*
X015447Y020038D01*
X015374Y020001D01*
X015308Y019953D01*
X015250Y019895D01*
X015202Y019829D01*
X015165Y019756D01*
X015158Y019734D01*
X015105Y019862D01*
X014953Y020014D01*
X014754Y020096D01*
X014540Y020096D01*
X014341Y020014D01*
X014189Y019862D01*
X014147Y019760D01*
X014105Y019862D01*
X013953Y020014D01*
X013754Y020096D01*
X013540Y020096D01*
X013341Y020014D01*
X013189Y019862D01*
X013147Y019760D01*
X013105Y019862D01*
X012953Y020014D01*
X012754Y020096D01*
X012540Y020096D01*
X012341Y020014D01*
X012189Y019862D01*
X012147Y019760D01*
X012105Y019862D01*
X011953Y020014D01*
X011754Y020096D01*
X011540Y020096D01*
X011341Y020014D01*
X011189Y019862D01*
X011147Y019760D01*
X011105Y019862D01*
X010953Y020014D01*
X010754Y020096D01*
X010540Y020096D01*
X010341Y020014D01*
X010189Y019862D01*
X010147Y019760D01*
X010105Y019862D01*
X009953Y020014D01*
X009754Y020096D01*
X009540Y020096D01*
X009341Y020014D01*
X009189Y019862D01*
X009147Y019760D01*
X009105Y019862D01*
X008953Y020014D01*
X008754Y020096D01*
X008540Y020096D01*
X008341Y020014D01*
X008189Y019862D01*
X008147Y019760D01*
X008105Y019862D01*
X007953Y020014D01*
X007754Y020096D01*
X007540Y020096D01*
X007341Y020014D01*
X007189Y019862D01*
X007147Y019760D01*
X007105Y019862D01*
X006953Y020014D01*
X006754Y020096D01*
X006540Y020096D01*
X006341Y020014D01*
X006189Y019862D01*
X006107Y019664D01*
X006107Y019449D01*
X006189Y019250D01*
X006341Y019099D01*
X006397Y019075D01*
X006397Y019037D01*
X006341Y019014D01*
X006189Y018862D01*
X006107Y018664D01*
X006107Y018449D01*
X006189Y018250D01*
X006341Y018099D01*
X006540Y018016D01*
X006754Y018016D01*
X006953Y018099D01*
X007105Y018250D01*
X007147Y018352D01*
X007189Y018250D01*
X007341Y018099D01*
X007540Y018016D01*
X007754Y018016D01*
X007953Y018099D01*
X008105Y018250D01*
X008147Y018352D01*
X008189Y018250D01*
X008341Y018099D01*
X008540Y018016D01*
X008754Y018016D01*
X008953Y018099D01*
X009105Y018250D01*
X009147Y018352D01*
X009189Y018250D01*
X009341Y018099D01*
X009540Y018016D01*
X009754Y018016D01*
X009953Y018099D01*
X010105Y018250D01*
X010147Y018352D01*
X010189Y018250D01*
X010341Y018099D01*
X010540Y018016D01*
X010754Y018016D01*
X010953Y018099D01*
X011105Y018250D01*
X011147Y018352D01*
X011189Y018250D01*
X011341Y018099D01*
X011540Y018016D01*
X011754Y018016D01*
X011953Y018099D01*
X012105Y018250D01*
X012147Y018352D01*
X012189Y018250D01*
X012341Y018099D01*
X012540Y018016D01*
X012754Y018016D01*
X012953Y018099D01*
X013105Y018250D01*
X013147Y018352D01*
X013189Y018250D01*
X013341Y018099D01*
X013540Y018016D01*
X013754Y018016D01*
X013953Y018099D01*
X013998Y018144D01*
X014627Y017515D01*
X014756Y017386D01*
X016694Y017386D01*
X016694Y016940D01*
X016694Y016926D01*
X016388Y016926D01*
X016206Y016926D01*
X015606Y016326D01*
X012488Y016326D01*
X012445Y016369D01*
X012445Y016476D01*
X012392Y016603D01*
X012294Y016701D01*
X012166Y016754D01*
X012028Y016754D01*
X011900Y016701D01*
X011802Y016603D01*
X011749Y016476D01*
X011749Y016337D01*
X011757Y016317D01*
X011666Y016354D01*
X011528Y016354D01*
X011400Y016301D01*
X011347Y016249D01*
X011347Y016353D01*
X012251Y017256D01*
X012688Y017256D01*
X012679Y017223D01*
X012679Y016899D01*
X013054Y016899D01*
X013054Y016799D01*
X012679Y016799D01*
X012679Y016475D01*
X012689Y016437D01*
X012709Y016403D01*
X012737Y016375D01*
X012771Y016355D01*
X012809Y016345D01*
X013055Y016345D01*
X013055Y016799D01*
X013154Y016799D01*
X013154Y016345D01*
X013400Y016345D01*
X013438Y016355D01*
X013472Y016375D01*
X013500Y016403D01*
X013520Y016437D01*
X013530Y016475D01*
X013530Y016799D01*
X013155Y016799D01*
X013155Y016899D01*
X013530Y016899D01*
X013530Y017223D01*
X013521Y017256D01*
X013855Y017256D01*
X013900Y017211D01*
X014028Y017158D01*
X014166Y017158D01*
X014294Y017211D01*
X014392Y017309D01*
X014445Y017437D01*
X014445Y017576D01*
X014392Y017703D01*
X014294Y017801D01*
X014166Y017854D01*
X014028Y017854D01*
X013900Y017801D01*
X013855Y017756D01*
X013339Y017756D01*
X013244Y017851D01*
X013116Y017904D01*
X012978Y017904D01*
X012850Y017851D01*
X012755Y017756D01*
X012197Y017756D01*
X012097Y017756D01*
X012005Y017718D01*
X011097Y016810D01*
X010739Y017168D01*
X010647Y017206D01*
X010547Y017206D01*
X002801Y017206D01*
X002547Y017460D01*
X011747Y017460D01*
X011649Y017362D02*
X002645Y017362D01*
X002547Y017460D02*
X002547Y017857D01*
X002547Y017956D01*
X002509Y018048D01*
X002164Y018393D01*
X002187Y018449D01*
X002187Y018664D01*
X002105Y018862D01*
X001953Y019014D01*
X001851Y019056D01*
X001953Y019099D01*
X002105Y019250D01*
X002187Y019449D01*
X002187Y019664D01*
X002105Y019862D01*
X001953Y020014D01*
X001754Y020096D01*
X001540Y020096D01*
X001341Y020014D01*
X001189Y019862D01*
X001107Y019664D01*
X001107Y019449D01*
X001189Y019250D01*
X001341Y019099D01*
X001443Y019056D01*
X001341Y019014D01*
X001189Y018862D01*
X001107Y018664D01*
X001107Y018449D01*
X001189Y018250D01*
X001341Y018099D01*
X001470Y018045D01*
X001447Y018038D01*
X001374Y018001D01*
X001308Y017953D01*
X001067Y017953D01*
X001067Y018051D02*
X001455Y018051D01*
X001308Y017953D02*
X001250Y017895D01*
X001202Y017829D01*
X001165Y017756D01*
X001140Y017678D01*
X001128Y017606D01*
X001597Y017606D01*
X001597Y017506D01*
X001128Y017506D01*
X001140Y017434D01*
X001165Y017357D01*
X001202Y017284D01*
X001250Y017218D01*
X001308Y017160D01*
X001374Y017112D01*
X001447Y017074D01*
X001470Y017067D01*
X001341Y017014D01*
X001189Y016862D01*
X001107Y016664D01*
X001107Y016449D01*
X001189Y016250D01*
X001341Y016099D01*
X001443Y016056D01*
X001341Y016014D01*
X001189Y015862D01*
X001107Y015664D01*
X001107Y015449D01*
X001189Y015250D01*
X001341Y015099D01*
X001443Y015056D01*
X001341Y015014D01*
X001189Y014862D01*
X001107Y014664D01*
X001107Y014449D01*
X001189Y014250D01*
X001341Y014099D01*
X001540Y014016D01*
X001754Y014016D01*
X001953Y014099D01*
X002105Y014250D01*
X002187Y014449D01*
X002187Y014664D01*
X002105Y014862D01*
X001953Y015014D01*
X001851Y015056D01*
X001953Y015099D01*
X002105Y015250D01*
X002140Y015336D01*
X002293Y015336D01*
X002380Y015333D01*
X002384Y015336D01*
X002388Y015336D01*
X002450Y015398D01*
X002534Y015476D01*
X006573Y015482D01*
X006573Y015406D01*
X006097Y015406D01*
X005997Y015406D01*
X005905Y015368D01*
X005835Y015298D01*
X005797Y015206D01*
X005797Y014516D01*
X005457Y014204D01*
X005378Y014204D01*
X005250Y014151D01*
X005152Y014053D01*
X005099Y013926D01*
X005099Y013787D01*
X005152Y013659D01*
X005250Y013561D01*
X005378Y013508D01*
X005516Y013508D01*
X005644Y013561D01*
X005742Y013659D01*
X005795Y013787D01*
X005795Y013836D01*
X006183Y014192D01*
X006189Y014194D01*
X006219Y014225D01*
X006253Y014256D01*
X006255Y014261D01*
X006259Y014265D01*
X006276Y014306D01*
X006295Y014346D01*
X006295Y014351D01*
X006297Y014357D01*
X006297Y014401D01*
X006299Y014445D01*
X006297Y014450D01*
X006297Y014906D01*
X006573Y014906D01*
X006573Y014772D01*
X006672Y014673D01*
X007522Y014673D01*
X007597Y014748D01*
X007672Y014673D01*
X008522Y014673D01*
X008597Y014748D01*
X008672Y014673D01*
X009522Y014673D01*
X009597Y014748D01*
X009672Y014673D01*
X010522Y014673D01*
X010597Y014748D01*
X010672Y014673D01*
X011522Y014673D01*
X011597Y014748D01*
X011672Y014673D01*
X012522Y014673D01*
X012621Y014772D01*
X012621Y014937D01*
X012639Y014944D01*
X012681Y014987D01*
X012679Y014979D01*
X012679Y014655D01*
X013054Y014655D01*
X013054Y014555D01*
X012679Y014555D01*
X012679Y014231D01*
X012689Y014193D01*
X012709Y014159D01*
X012737Y014131D01*
X012771Y014111D01*
X012803Y014103D01*
X012800Y014101D01*
X012702Y014003D01*
X012649Y013876D01*
X012649Y013737D01*
X012702Y013609D01*
X012800Y013511D01*
X012928Y013458D01*
X013066Y013458D01*
X013194Y013511D01*
X013292Y013609D01*
X013345Y013737D01*
X013345Y013876D01*
X013292Y014003D01*
X013195Y014101D01*
X013400Y014101D01*
X013438Y014111D01*
X013472Y014131D01*
X013500Y014159D01*
X013520Y014193D01*
X013530Y014231D01*
X013530Y014555D01*
X013155Y014555D01*
X013155Y014655D01*
X013530Y014655D01*
X013530Y014979D01*
X013520Y015017D01*
X013500Y015052D01*
X013472Y015079D01*
X013438Y015099D01*
X013400Y015109D01*
X013154Y015109D01*
X013154Y014655D01*
X013055Y014655D01*
X013055Y015109D01*
X012809Y015109D01*
X012802Y015107D01*
X013001Y015306D01*
X014397Y015306D01*
X014397Y013910D01*
X014166Y013679D01*
X014144Y013701D01*
X014016Y013754D01*
X013878Y013754D01*
X013750Y013701D01*
X013652Y013603D01*
X013599Y013476D01*
X013599Y013337D01*
X013624Y013276D01*
X012420Y013276D01*
X012445Y013337D01*
X012445Y013476D01*
X012406Y013570D01*
X012522Y013570D01*
X012621Y013670D01*
X012621Y014440D01*
X012522Y014540D01*
X011672Y014540D01*
X011597Y014465D01*
X011522Y014540D01*
X010672Y014540D01*
X010597Y014465D01*
X010522Y014540D01*
X009672Y014540D01*
X009597Y014465D01*
X009522Y014540D01*
X008672Y014540D01*
X008597Y014465D01*
X008522Y014540D01*
X007672Y014540D01*
X007597Y014465D01*
X007522Y014540D01*
X006672Y014540D01*
X006573Y014440D01*
X006573Y013670D01*
X006672Y013570D01*
X007322Y013570D01*
X007449Y013443D01*
X007449Y013337D01*
X007474Y013276D01*
X004788Y013276D01*
X004467Y013597D01*
X004338Y013726D01*
X002638Y013726D01*
X002456Y013726D01*
X002327Y013597D01*
X002327Y012897D01*
X002116Y012686D01*
X002105Y012712D01*
X001953Y012864D01*
X001851Y012906D01*
X001953Y012949D01*
X002105Y013100D01*
X002187Y013299D01*
X002187Y013514D01*
X002105Y013712D01*
X001953Y013864D01*
X001754Y013946D01*
X001540Y013946D01*
X001341Y013864D01*
X001189Y013712D01*
X001107Y013514D01*
X001107Y013299D01*
X001189Y013100D01*
X001341Y012949D01*
X001443Y012906D01*
X001341Y012864D01*
X001189Y012712D01*
X001107Y012514D01*
X001107Y012299D01*
X001189Y012100D01*
X001341Y011949D01*
X001443Y011906D01*
X001358Y011942D02*
X001067Y011942D01*
X001067Y012040D02*
X001249Y012040D01*
X001173Y012139D02*
X001067Y012139D01*
X001067Y012237D02*
X001132Y012237D01*
X001107Y012336D02*
X001067Y012336D01*
X001067Y012434D02*
X001107Y012434D01*
X001115Y012533D02*
X001067Y012533D01*
X001067Y012631D02*
X001156Y012631D01*
X001207Y012730D02*
X001067Y012730D01*
X001067Y012829D02*
X001306Y012829D01*
X001393Y012927D02*
X001067Y012927D01*
X001067Y013026D02*
X001264Y013026D01*
X001179Y013124D02*
X001067Y013124D01*
X001067Y013223D02*
X001139Y013223D01*
X001107Y013321D02*
X001067Y013321D01*
X001067Y013420D02*
X001107Y013420D01*
X001109Y013518D02*
X001067Y013518D01*
X001067Y013617D02*
X001150Y013617D01*
X001193Y013715D02*
X001067Y013715D01*
X001067Y013814D02*
X001291Y013814D01*
X001458Y013913D02*
X001067Y013913D01*
X001067Y014011D02*
X005134Y014011D01*
X005099Y013913D02*
X001836Y013913D01*
X002003Y013814D02*
X005099Y013814D01*
X005129Y013715D02*
X004349Y013715D01*
X004447Y013617D02*
X005194Y013617D01*
X005353Y013518D02*
X004546Y013518D01*
X004645Y013420D02*
X007449Y013420D01*
X007455Y013321D02*
X004743Y013321D01*
X004697Y013056D02*
X004247Y013506D01*
X002547Y013506D01*
X002547Y012806D01*
X004347Y012806D01*
X004447Y012706D01*
X004447Y012156D01*
X005647Y012156D01*
X005997Y012156D02*
X005997Y011356D01*
X004429Y009788D01*
X004429Y007768D01*
X004085Y007507D02*
X003985Y007507D01*
X003886Y007409D02*
X004183Y007409D01*
X003950Y007113D02*
X003595Y007113D01*
X003595Y007212D02*
X010349Y007212D01*
X010447Y007310D02*
X003560Y007310D01*
X003565Y007015D02*
X003852Y007015D01*
X003753Y006916D02*
X003499Y006916D01*
X003134Y006817D02*
X002539Y006817D01*
X002574Y006916D02*
X002441Y006916D01*
X002435Y007015D02*
X002342Y007015D01*
X002337Y007113D02*
X002244Y007113D01*
X002237Y007212D02*
X002238Y007212D01*
X002147Y007507D02*
X002060Y007507D01*
X002147Y007606D02*
X001902Y007606D01*
X001776Y007901D02*
X002147Y007901D01*
X002147Y007803D02*
X001067Y007803D01*
X001067Y007901D02*
X001518Y007901D01*
X001525Y007899D02*
X001597Y007888D01*
X001597Y008356D01*
X001128Y008356D01*
X001140Y008284D01*
X001165Y008207D01*
X001202Y008134D01*
X001250Y008068D01*
X001308Y008010D01*
X001374Y007962D01*
X001447Y007924D01*
X001525Y007899D01*
X001597Y007901D02*
X001697Y007901D01*
X001697Y008000D02*
X001597Y008000D01*
X001597Y008099D02*
X001697Y008099D01*
X001697Y008197D02*
X001597Y008197D01*
X001597Y008296D02*
X001697Y008296D01*
X001597Y008394D02*
X001067Y008394D01*
X001067Y008296D02*
X001138Y008296D01*
X001170Y008197D02*
X001067Y008197D01*
X001067Y008099D02*
X001228Y008099D01*
X001322Y008000D02*
X001067Y008000D01*
X001067Y007704D02*
X002147Y007704D01*
X002147Y008000D02*
X001972Y008000D01*
X002066Y008099D02*
X002147Y008099D01*
X002147Y008197D02*
X002124Y008197D01*
X001492Y007606D02*
X001067Y007606D01*
X001067Y007507D02*
X001334Y007507D01*
X001238Y007409D02*
X001067Y007409D01*
X001067Y007310D02*
X001197Y007310D01*
X001157Y007212D02*
X001067Y007212D01*
X001067Y007113D02*
X001157Y007113D01*
X001157Y007015D02*
X001067Y007015D01*
X001067Y006916D02*
X001191Y006916D01*
X001232Y006817D02*
X001067Y006817D01*
X001067Y006719D02*
X001321Y006719D01*
X001459Y006620D02*
X001067Y006620D01*
X001067Y006522D02*
X001349Y006522D01*
X001250Y006423D02*
X001067Y006423D01*
X001067Y006325D02*
X001203Y006325D01*
X001162Y006226D02*
X001067Y006226D01*
X001067Y006128D02*
X001157Y006128D01*
X001157Y006029D02*
X001067Y006029D01*
X001067Y005931D02*
X001185Y005931D01*
X001226Y005832D02*
X001067Y005832D01*
X001067Y005733D02*
X001306Y005733D01*
X001424Y005635D02*
X001067Y005635D01*
X001067Y005536D02*
X001330Y005536D01*
X001231Y005438D02*
X001067Y005438D01*
X001067Y005339D02*
X001133Y005339D01*
X001077Y005241D02*
X001067Y005241D01*
X001067Y005142D02*
X001077Y005142D01*
X001067Y005044D02*
X001077Y005044D01*
X001067Y004945D02*
X001077Y004945D01*
X001067Y004847D02*
X001077Y004847D01*
X001067Y004748D02*
X001077Y004748D01*
X001067Y004649D02*
X001156Y004649D01*
X001067Y004551D02*
X001255Y004551D01*
X001353Y004452D02*
X001067Y004452D01*
X001067Y004354D02*
X001325Y004354D01*
X001227Y004255D02*
X001067Y004255D01*
X001067Y004157D02*
X001128Y004157D01*
X001097Y004058D02*
X001067Y004058D01*
X001067Y003960D02*
X001097Y003960D01*
X001067Y003861D02*
X001697Y003861D01*
X001697Y003806D02*
X001097Y003806D01*
X001097Y003587D01*
X001478Y003206D01*
X001697Y003206D01*
X001697Y003806D01*
X001697Y003763D02*
X001797Y003763D01*
X001797Y003664D02*
X001697Y003664D01*
X001697Y003566D02*
X001797Y003566D01*
X001797Y003467D02*
X001697Y003467D01*
X001697Y003368D02*
X001797Y003368D01*
X001797Y003270D02*
X001697Y003270D01*
X001809Y003171D02*
X001067Y003171D01*
X001067Y003073D02*
X001483Y003073D01*
X001301Y002974D02*
X001067Y002974D01*
X001067Y002876D02*
X001203Y002876D01*
X001154Y002777D02*
X001067Y002777D01*
X001067Y002679D02*
X001113Y002679D01*
X001107Y002580D02*
X001067Y002580D01*
X001067Y002482D02*
X001107Y002482D01*
X001134Y002383D02*
X001067Y002383D01*
X001067Y002284D02*
X001175Y002284D01*
X001254Y002186D02*
X001067Y002186D01*
X001067Y002087D02*
X001368Y002087D01*
X001316Y001989D02*
X001067Y001989D01*
X001067Y001890D02*
X001217Y001890D01*
X001160Y001792D02*
X001067Y001792D01*
X001067Y001693D02*
X001119Y001693D01*
X001107Y001595D02*
X001067Y001595D01*
X001067Y001496D02*
X001107Y001496D01*
X001128Y001398D02*
X001067Y001398D01*
X001067Y001299D02*
X001169Y001299D01*
X001239Y001200D02*
X001067Y001200D01*
X001067Y001102D02*
X001338Y001102D01*
X001067Y001003D02*
X020212Y001003D01*
X020212Y000976D02*
X001067Y000976D01*
X001067Y020131D01*
X020212Y020121D01*
X001067Y020121D01*
X001067Y020022D02*
X001361Y020022D01*
X001251Y019924D02*
X001067Y019924D01*
X001067Y019825D02*
X001174Y019825D01*
X001133Y019727D02*
X001067Y019727D01*
X001067Y019628D02*
X001107Y019628D01*
X001107Y019530D02*
X001067Y019530D01*
X001067Y019431D02*
X001114Y019431D01*
X001155Y019332D02*
X001067Y019332D01*
X001067Y019234D02*
X001206Y019234D01*
X001304Y019135D02*
X001067Y019135D01*
X001067Y019037D02*
X001396Y019037D01*
X001265Y018938D02*
X001067Y018938D01*
X001067Y018840D02*
X001180Y018840D01*
X001139Y018741D02*
X001067Y018741D01*
X001067Y018643D02*
X001107Y018643D01*
X001107Y018544D02*
X001067Y018544D01*
X001067Y018446D02*
X001108Y018446D01*
X001067Y018347D02*
X001149Y018347D01*
X001191Y018248D02*
X001067Y018248D01*
X001067Y018150D02*
X001290Y018150D01*
X001221Y017854D02*
X001067Y017854D01*
X001067Y017756D02*
X001165Y017756D01*
X001137Y017657D02*
X001067Y017657D01*
X001067Y017559D02*
X001597Y017559D01*
X001136Y017460D02*
X001067Y017460D01*
X001067Y017362D02*
X001164Y017362D01*
X001217Y017263D02*
X001067Y017263D01*
X001067Y017164D02*
X001303Y017164D01*
X001466Y017066D02*
X001067Y017066D01*
X001067Y016967D02*
X001294Y016967D01*
X001196Y016869D02*
X001067Y016869D01*
X001067Y016770D02*
X001151Y016770D01*
X001110Y016672D02*
X001067Y016672D01*
X001067Y016573D02*
X001107Y016573D01*
X001107Y016475D02*
X001067Y016475D01*
X001067Y016376D02*
X001137Y016376D01*
X001178Y016278D02*
X001067Y016278D01*
X001067Y016179D02*
X001261Y016179D01*
X001385Y016081D02*
X001067Y016081D01*
X001067Y015982D02*
X001309Y015982D01*
X001210Y015883D02*
X001067Y015883D01*
X001067Y015785D02*
X001157Y015785D01*
X001116Y015686D02*
X001067Y015686D01*
X001067Y015588D02*
X001107Y015588D01*
X001107Y015489D02*
X001067Y015489D01*
X001067Y015391D02*
X001131Y015391D01*
X001172Y015292D02*
X001067Y015292D01*
X001067Y015194D02*
X001246Y015194D01*
X001349Y015095D02*
X001067Y015095D01*
X001067Y014997D02*
X001324Y014997D01*
X001225Y014898D02*
X001067Y014898D01*
X001067Y014799D02*
X001163Y014799D01*
X001122Y014701D02*
X001067Y014701D01*
X001067Y014602D02*
X001107Y014602D01*
X001107Y014504D02*
X001067Y014504D01*
X001067Y014405D02*
X001125Y014405D01*
X001166Y014307D02*
X001067Y014307D01*
X001067Y014208D02*
X001231Y014208D01*
X001330Y014110D02*
X001067Y014110D01*
X001964Y014110D02*
X005208Y014110D01*
X005461Y014208D02*
X002063Y014208D01*
X002128Y014307D02*
X005568Y014307D01*
X005676Y014405D02*
X002169Y014405D01*
X002187Y014504D02*
X005783Y014504D01*
X005797Y014602D02*
X002187Y014602D01*
X002172Y014701D02*
X005797Y014701D01*
X005797Y014799D02*
X002131Y014799D01*
X002069Y014898D02*
X005797Y014898D01*
X005797Y014997D02*
X001970Y014997D01*
X001945Y015095D02*
X005797Y015095D01*
X005797Y015194D02*
X002048Y015194D01*
X002122Y015292D02*
X005833Y015292D01*
X005960Y015391D02*
X002442Y015391D01*
X002297Y015556D02*
X001647Y015556D01*
X002297Y015556D02*
X002447Y015696D01*
X009247Y015706D01*
X009307Y015646D01*
X010047Y015646D01*
X010397Y016006D01*
X010447Y016006D01*
X011347Y016278D02*
X011376Y016278D01*
X011370Y016376D02*
X011749Y016376D01*
X011749Y016475D02*
X011469Y016475D01*
X011567Y016573D02*
X011789Y016573D01*
X011870Y016672D02*
X011666Y016672D01*
X011764Y016770D02*
X012679Y016770D01*
X012679Y016672D02*
X012324Y016672D01*
X012405Y016573D02*
X012679Y016573D01*
X012679Y016475D02*
X012445Y016475D01*
X012445Y016376D02*
X012735Y016376D01*
X012397Y016106D02*
X015697Y016106D01*
X016297Y016706D01*
X017097Y016706D01*
X017160Y016735D01*
X017209Y016331D02*
X016793Y016331D01*
X016793Y016408D01*
X016715Y016486D01*
X016388Y016486D01*
X015928Y016026D01*
X015988Y016026D01*
X016225Y015789D01*
X016252Y015853D01*
X016350Y015951D01*
X016478Y016004D01*
X016616Y016004D01*
X016694Y015972D01*
X016694Y016097D01*
X016793Y016196D01*
X016793Y016273D01*
X017209Y016273D01*
X017209Y016331D01*
X017209Y016278D02*
X016179Y016278D01*
X016278Y016376D02*
X016793Y016376D01*
X016727Y016475D02*
X016376Y016475D01*
X016148Y016869D02*
X013155Y016869D01*
X013154Y016899D02*
X013154Y017224D01*
X013116Y017208D01*
X013055Y017208D01*
X013055Y016899D01*
X013154Y016899D01*
X013154Y016967D02*
X013055Y016967D01*
X013054Y016869D02*
X011863Y016869D01*
X011962Y016967D02*
X012679Y016967D01*
X012679Y017066D02*
X012060Y017066D01*
X012159Y017164D02*
X012679Y017164D01*
X013055Y017164D02*
X013154Y017164D01*
X013154Y017066D02*
X013055Y017066D01*
X013055Y016770D02*
X013154Y016770D01*
X013154Y016672D02*
X013055Y016672D01*
X013055Y016573D02*
X013154Y016573D01*
X013154Y016475D02*
X013055Y016475D01*
X013055Y016376D02*
X013154Y016376D01*
X013473Y016376D02*
X015656Y016376D01*
X015754Y016475D02*
X013530Y016475D01*
X013530Y016573D02*
X015853Y016573D01*
X015951Y016672D02*
X013530Y016672D01*
X013530Y016770D02*
X016050Y016770D01*
X016081Y016179D02*
X016777Y016179D01*
X016694Y016081D02*
X015982Y016081D01*
X016032Y015982D02*
X016424Y015982D01*
X016282Y015883D02*
X016131Y015883D01*
X015897Y015806D02*
X016697Y015006D01*
X017097Y015006D01*
X017160Y015003D01*
X016997Y014606D02*
X017002Y014570D01*
X017097Y014556D01*
X018297Y014556D01*
X018497Y014756D01*
X019117Y014799D02*
X019477Y014799D01*
X019477Y014701D02*
X019117Y014701D01*
X019117Y014602D02*
X019477Y014602D01*
X019477Y014504D02*
X019117Y014504D01*
X019117Y014405D02*
X019477Y014405D01*
X019477Y014307D02*
X019117Y014307D01*
X019117Y014208D02*
X019477Y014208D01*
X019477Y014110D02*
X019155Y014110D01*
X019117Y014147D02*
X019117Y015765D01*
X019117Y015947D01*
X018988Y016076D01*
X017667Y016076D01*
X017673Y016087D01*
X017684Y016125D01*
X017684Y016273D01*
X017267Y016273D01*
X017267Y016331D01*
X017684Y016331D01*
X017684Y016479D01*
X017673Y016517D01*
X017654Y016552D01*
X017626Y016579D01*
X017625Y016580D01*
X017625Y016917D01*
X017777Y016765D01*
X017906Y016636D01*
X018125Y016636D01*
X018200Y016561D01*
X018328Y016508D01*
X018466Y016508D01*
X018594Y016561D01*
X018692Y016659D01*
X018745Y016787D01*
X018745Y016926D01*
X018692Y017053D01*
X018688Y017057D01*
X018714Y017064D01*
X018748Y017084D01*
X018776Y017111D01*
X018795Y017146D01*
X018806Y017184D01*
X018806Y017429D01*
X018332Y017429D01*
X018332Y017529D01*
X018806Y017529D01*
X018806Y017774D01*
X018795Y017813D01*
X018776Y017847D01*
X018748Y017875D01*
X018714Y017894D01*
X018675Y017905D01*
X018332Y017905D01*
X018332Y017529D01*
X018232Y017529D01*
X018232Y017905D01*
X017888Y017905D01*
X017850Y017894D01*
X017816Y017875D01*
X017788Y017847D01*
X017768Y017813D01*
X017758Y017774D01*
X017758Y017557D01*
X017488Y017826D01*
X017306Y017826D01*
X014938Y017826D01*
X014748Y018016D01*
X014754Y018016D01*
X014953Y018099D01*
X015105Y018250D01*
X015158Y018379D01*
X015165Y018357D01*
X015202Y018284D01*
X015250Y018218D01*
X015308Y018160D01*
X015374Y018112D01*
X015447Y018074D01*
X015525Y018049D01*
X015597Y018038D01*
X015597Y018506D01*
X015697Y018506D01*
X015697Y018038D01*
X015769Y018049D01*
X015847Y018074D01*
X015920Y018112D01*
X015986Y018160D01*
X016044Y018218D01*
X016092Y018284D01*
X016129Y018357D01*
X016136Y018379D01*
X016189Y018250D01*
X016341Y018099D01*
X016540Y018016D01*
X016754Y018016D01*
X016953Y018099D01*
X017105Y018250D01*
X017147Y018352D01*
X017189Y018250D01*
X017341Y018099D01*
X017540Y018016D01*
X017754Y018016D01*
X017953Y018099D01*
X018105Y018250D01*
X018147Y018352D01*
X018189Y018250D01*
X018341Y018099D01*
X018540Y018016D01*
X018754Y018016D01*
X018953Y018099D01*
X019105Y018250D01*
X019147Y018352D01*
X019189Y018250D01*
X019341Y018099D01*
X019477Y018042D01*
X019477Y013929D01*
X019406Y013858D01*
X019117Y014147D01*
X019253Y014011D02*
X019477Y014011D01*
X019461Y013913D02*
X019352Y013913D01*
X019247Y013706D02*
X018897Y014056D01*
X018897Y015856D01*
X017197Y015856D01*
X017160Y015869D01*
X017267Y016278D02*
X019477Y016278D01*
X019477Y016376D02*
X017684Y016376D01*
X017684Y016475D02*
X019477Y016475D01*
X019477Y016573D02*
X018606Y016573D01*
X018697Y016672D02*
X019477Y016672D01*
X019477Y016770D02*
X018738Y016770D01*
X018745Y016869D02*
X019477Y016869D01*
X019477Y016967D02*
X018728Y016967D01*
X018717Y017066D02*
X019477Y017066D01*
X019477Y017164D02*
X018800Y017164D01*
X018806Y017263D02*
X019477Y017263D01*
X019477Y017362D02*
X018806Y017362D01*
X018806Y017559D02*
X019477Y017559D01*
X019477Y017657D02*
X018806Y017657D01*
X018806Y017756D02*
X019477Y017756D01*
X019477Y017854D02*
X018768Y017854D01*
X018839Y018051D02*
X019455Y018051D01*
X019477Y017953D02*
X014812Y017953D01*
X014839Y018051D02*
X015518Y018051D01*
X015597Y018051D02*
X015697Y018051D01*
X015776Y018051D02*
X016455Y018051D01*
X016290Y018150D02*
X015972Y018150D01*
X016066Y018248D02*
X016191Y018248D01*
X016149Y018347D02*
X016124Y018347D01*
X015697Y018347D02*
X015597Y018347D01*
X015597Y018248D02*
X015697Y018248D01*
X015697Y018150D02*
X015597Y018150D01*
X015322Y018150D02*
X015004Y018150D01*
X015103Y018248D02*
X015228Y018248D01*
X015170Y018347D02*
X015145Y018347D01*
X015597Y018446D02*
X015697Y018446D01*
X015697Y018606D02*
X015597Y018606D01*
X015597Y019075D01*
X015597Y019506D01*
X015697Y019506D01*
X015697Y019075D01*
X015697Y018606D01*
X015697Y018643D02*
X015597Y018643D01*
X015597Y018741D02*
X015697Y018741D01*
X015697Y018840D02*
X015597Y018840D01*
X015597Y018938D02*
X015697Y018938D01*
X015697Y019037D02*
X015597Y019037D01*
X015597Y019135D02*
X015697Y019135D01*
X015697Y019234D02*
X015597Y019234D01*
X015597Y019332D02*
X015697Y019332D01*
X015697Y019431D02*
X015597Y019431D01*
X015597Y019628D02*
X015697Y019628D01*
X015697Y019727D02*
X015597Y019727D01*
X015597Y019825D02*
X015697Y019825D01*
X015697Y019924D02*
X015597Y019924D01*
X015597Y020022D02*
X015697Y020022D01*
X015878Y020022D02*
X016361Y020022D01*
X016251Y019924D02*
X016015Y019924D01*
X016094Y019825D02*
X016174Y019825D01*
X016933Y020022D02*
X017361Y020022D01*
X017251Y019924D02*
X017043Y019924D01*
X017120Y019825D02*
X017174Y019825D01*
X017933Y020022D02*
X018361Y020022D01*
X018251Y019924D02*
X018043Y019924D01*
X018120Y019825D02*
X018174Y019825D01*
X018933Y020022D02*
X019361Y020022D01*
X019251Y019924D02*
X019043Y019924D01*
X019120Y019825D02*
X019174Y019825D01*
X019933Y020022D02*
X020212Y020022D01*
X020212Y019924D02*
X020043Y019924D01*
X020120Y019825D02*
X020212Y019825D01*
X020212Y019727D02*
X020161Y019727D01*
X020187Y019628D02*
X020212Y019628D01*
X020212Y019530D02*
X020187Y019530D01*
X020180Y019431D02*
X020212Y019431D01*
X020212Y019332D02*
X020139Y019332D01*
X020088Y019234D02*
X020212Y019234D01*
X020212Y019135D02*
X019990Y019135D01*
X019898Y019037D02*
X020212Y019037D01*
X020212Y018938D02*
X020029Y018938D01*
X020114Y018840D02*
X020212Y018840D01*
X020212Y018741D02*
X020155Y018741D01*
X020187Y018643D02*
X020212Y018643D01*
X020212Y018544D02*
X020187Y018544D01*
X020186Y018446D02*
X020212Y018446D01*
X020212Y018347D02*
X020145Y018347D01*
X020103Y018248D02*
X020212Y018248D01*
X020212Y018150D02*
X020004Y018150D01*
X019917Y018051D02*
X020212Y018051D01*
X020212Y017953D02*
X019917Y017953D01*
X019917Y017854D02*
X020212Y017854D01*
X020212Y017756D02*
X019917Y017756D01*
X019917Y017657D02*
X020212Y017657D01*
X020212Y017559D02*
X019917Y017559D01*
X019917Y017460D02*
X020212Y017460D01*
X020212Y017362D02*
X019917Y017362D01*
X019917Y017263D02*
X020212Y017263D01*
X020212Y017164D02*
X019917Y017164D01*
X019917Y017066D02*
X020212Y017066D01*
X020212Y016967D02*
X019917Y016967D01*
X019917Y016869D02*
X020212Y016869D01*
X020212Y016770D02*
X019917Y016770D01*
X019917Y016672D02*
X020212Y016672D01*
X020212Y016573D02*
X019917Y016573D01*
X019917Y016475D02*
X020212Y016475D01*
X020212Y016376D02*
X019917Y016376D01*
X019917Y016278D02*
X020212Y016278D01*
X020212Y016179D02*
X019917Y016179D01*
X019917Y016081D02*
X020212Y016081D01*
X020212Y015982D02*
X019917Y015982D01*
X019917Y015883D02*
X020212Y015883D01*
X020212Y015785D02*
X019917Y015785D01*
X019917Y015686D02*
X020212Y015686D01*
X020212Y015588D02*
X019917Y015588D01*
X019917Y015489D02*
X020212Y015489D01*
X020212Y015391D02*
X019917Y015391D01*
X019917Y015292D02*
X020212Y015292D01*
X020212Y015194D02*
X019917Y015194D01*
X019917Y015095D02*
X020212Y015095D01*
X020212Y014997D02*
X019917Y014997D01*
X019917Y014898D02*
X020212Y014898D01*
X020212Y014799D02*
X019917Y014799D01*
X019917Y014701D02*
X020212Y014701D01*
X020212Y014602D02*
X019917Y014602D01*
X019917Y014504D02*
X020212Y014504D01*
X020212Y014405D02*
X019917Y014405D01*
X019917Y014307D02*
X020212Y014307D01*
X020212Y014208D02*
X019917Y014208D01*
X019917Y014110D02*
X020212Y014110D01*
X020212Y014011D02*
X019917Y014011D01*
X019933Y013913D02*
X020212Y013913D01*
X020212Y013814D02*
X020008Y013814D01*
X020045Y013715D02*
X020212Y013715D01*
X020212Y013617D02*
X020045Y013617D01*
X020017Y013518D02*
X020212Y013518D01*
X020212Y013420D02*
X019953Y013420D01*
X019798Y013321D02*
X020212Y013321D01*
X020212Y013223D02*
X019467Y013223D01*
X019467Y013321D02*
X019596Y013321D01*
X019376Y013124D02*
X020212Y013124D01*
X020212Y013026D02*
X019277Y013026D01*
X019338Y013086D02*
X019338Y013086D01*
X019179Y012927D02*
X020212Y012927D01*
X020212Y012829D02*
X018630Y012829D01*
X018725Y012728D02*
X018725Y012352D01*
X019199Y012352D01*
X019199Y012597D01*
X019189Y012635D01*
X019169Y012670D01*
X019141Y012698D01*
X019107Y012717D01*
X019069Y012728D01*
X018725Y012728D01*
X018725Y012631D02*
X018625Y012631D01*
X018625Y012533D02*
X018725Y012533D01*
X018725Y012434D02*
X018625Y012434D01*
X018725Y012336D02*
X020212Y012336D01*
X020212Y012434D02*
X019199Y012434D01*
X019199Y012533D02*
X020212Y012533D01*
X020212Y012631D02*
X019190Y012631D01*
X019199Y012237D02*
X020212Y012237D01*
X020212Y012139D02*
X019199Y012139D01*
X019199Y012040D02*
X020212Y012040D01*
X020212Y011942D02*
X019174Y011942D01*
X018725Y011942D02*
X018625Y011942D01*
X018625Y012040D02*
X018725Y012040D01*
X018725Y012139D02*
X018625Y012139D01*
X018625Y012237D02*
X018725Y012237D01*
X018532Y012730D02*
X020212Y012730D01*
X020212Y011843D02*
X018151Y011843D01*
X017997Y012156D02*
X017997Y012506D01*
X018597Y013106D01*
X019047Y013106D01*
X019247Y013306D01*
X019247Y013706D01*
X018897Y013456D02*
X017847Y013456D01*
X017697Y013606D01*
X016897Y013606D01*
X017104Y013321D02*
X017671Y013321D01*
X018107Y012927D02*
X015370Y012927D01*
X015395Y013026D02*
X018205Y013026D01*
X018304Y013124D02*
X015395Y013124D01*
X015355Y013223D02*
X018402Y013223D01*
X018008Y012829D02*
X015312Y012829D01*
X015169Y012730D02*
X017910Y012730D01*
X017811Y012631D02*
X006433Y012631D01*
X006334Y012730D02*
X014925Y012730D01*
X014782Y012829D02*
X006236Y012829D01*
X005897Y012856D02*
X006347Y012406D01*
X006347Y012156D01*
X012647Y012156D01*
X013297Y011506D01*
X012947Y011156D01*
X012947Y011007D01*
X012997Y010957D01*
X012997Y011006D01*
X013297Y011506D02*
X014097Y011506D01*
X014347Y011756D01*
X014047Y011942D02*
X013173Y011942D01*
X013271Y011843D02*
X014006Y011843D01*
X013999Y011745D02*
X013370Y011745D01*
X013074Y012040D02*
X014139Y012040D01*
X014555Y012040D02*
X014894Y012040D01*
X014740Y011942D02*
X014647Y011942D01*
X014997Y011706D02*
X014747Y011456D01*
X014546Y011456D01*
X014546Y011455D01*
X014297Y011206D01*
X013997Y010957D01*
X013499Y010266D02*
X013495Y010266D01*
X013431Y009380D02*
X013563Y009380D01*
X014431Y009380D02*
X014563Y009380D01*
X015431Y009380D02*
X015563Y009380D01*
X016322Y009281D02*
X004648Y009281D01*
X004648Y009182D02*
X016379Y009182D01*
X016516Y009084D02*
X004648Y009084D01*
X004648Y008985D02*
X017673Y008985D01*
X017771Y009084D02*
X016778Y009084D01*
X016915Y009182D02*
X017870Y009182D01*
X017897Y009281D02*
X016972Y009281D01*
X016995Y009380D02*
X017897Y009380D01*
X017897Y009478D02*
X016994Y009478D01*
X016953Y009577D02*
X017897Y009577D01*
X017897Y009675D02*
X016870Y009675D01*
X016633Y009774D02*
X017897Y009774D01*
X017897Y009872D02*
X016534Y009872D01*
X016521Y009971D02*
X017897Y009971D01*
X017897Y010069D02*
X016521Y010069D01*
X016521Y010168D02*
X017897Y010168D01*
X017897Y010266D02*
X016495Y010266D01*
X016511Y010562D02*
X017897Y010562D01*
X017897Y010464D02*
X005565Y010464D01*
X005514Y010562D02*
X010483Y010562D01*
X010473Y010661D02*
X005612Y010661D01*
X005711Y010759D02*
X010473Y010759D01*
X010473Y010858D02*
X005809Y010858D01*
X005908Y010956D02*
X010473Y010956D01*
X010473Y011055D02*
X006007Y011055D01*
X006105Y011153D02*
X010473Y011153D01*
X010473Y011252D02*
X006204Y011252D01*
X006217Y011350D02*
X010480Y011350D01*
X010997Y011206D02*
X010997Y010957D01*
X010997Y011206D02*
X011097Y011206D01*
X011597Y011706D01*
X011277Y011843D02*
X006642Y011843D01*
X006551Y011745D02*
X011249Y011745D01*
X011226Y011646D02*
X006217Y011646D01*
X006217Y011548D02*
X011127Y011548D01*
X011029Y011449D02*
X006217Y011449D01*
X006642Y012434D02*
X017777Y012434D01*
X017777Y012533D02*
X006586Y012533D01*
X005897Y012856D02*
X004597Y012856D01*
X004447Y013006D01*
X003047Y013006D01*
X002897Y013156D01*
X002547Y012806D02*
X002147Y012406D01*
X001647Y012406D01*
X001988Y012829D02*
X002258Y012829D01*
X002327Y012927D02*
X001901Y012927D01*
X002030Y013026D02*
X002327Y013026D01*
X002327Y013124D02*
X002115Y013124D01*
X002155Y013223D02*
X002327Y013223D01*
X002327Y013321D02*
X002187Y013321D01*
X002187Y013420D02*
X002327Y013420D01*
X002327Y013518D02*
X002185Y013518D01*
X002144Y013617D02*
X002347Y013617D01*
X002445Y013715D02*
X002101Y013715D01*
X002087Y012730D02*
X002160Y012730D01*
X001320Y011843D02*
X001067Y011843D01*
X001067Y011745D02*
X001222Y011745D01*
X001162Y011646D02*
X001067Y011646D01*
X001067Y011548D02*
X001121Y011548D01*
X001107Y011449D02*
X001067Y011449D01*
X001067Y011350D02*
X001107Y011350D01*
X001126Y011252D02*
X001067Y011252D01*
X001067Y011153D02*
X001167Y011153D01*
X001235Y011055D02*
X001067Y011055D01*
X001067Y010956D02*
X001333Y010956D01*
X001335Y010858D02*
X001067Y010858D01*
X001067Y010759D02*
X001236Y010759D01*
X001168Y010661D02*
X001067Y010661D01*
X001067Y010562D02*
X001127Y010562D01*
X001107Y010464D02*
X001067Y010464D01*
X001067Y010365D02*
X001107Y010365D01*
X001120Y010266D02*
X001067Y010266D01*
X001067Y010168D02*
X001161Y010168D01*
X001220Y010069D02*
X001067Y010069D01*
X001067Y009971D02*
X001319Y009971D01*
X001361Y009872D02*
X001067Y009872D01*
X001067Y009774D02*
X001251Y009774D01*
X001174Y009675D02*
X001067Y009675D01*
X001067Y009577D02*
X001133Y009577D01*
X001107Y009478D02*
X001067Y009478D01*
X001067Y009380D02*
X001107Y009380D01*
X001114Y009281D02*
X001067Y009281D01*
X001067Y009182D02*
X001155Y009182D01*
X001206Y009084D02*
X001067Y009084D01*
X001067Y008985D02*
X001304Y008985D01*
X001445Y008887D02*
X001067Y008887D01*
X001067Y008788D02*
X001294Y008788D01*
X001210Y008690D02*
X001067Y008690D01*
X001067Y008591D02*
X001160Y008591D01*
X001134Y008493D02*
X001067Y008493D01*
X002592Y006719D02*
X002993Y006719D01*
X002919Y006620D02*
X002597Y006620D01*
X002597Y006522D02*
X002878Y006522D01*
X002867Y006423D02*
X002597Y006423D01*
X002597Y006325D02*
X002867Y006325D01*
X002905Y006226D02*
X002597Y006226D01*
X002597Y006128D02*
X002959Y006128D01*
X003058Y006029D02*
X002597Y006029D01*
X002597Y005931D02*
X008249Y005931D01*
X008251Y005832D02*
X005725Y005832D01*
X005886Y005733D02*
X007427Y005733D01*
X007667Y005733D02*
X008292Y005733D01*
X008376Y005635D02*
X008198Y005635D01*
X008320Y005536D02*
X008613Y005536D01*
X008712Y005438D02*
X008419Y005438D01*
X007871Y005142D02*
X007775Y005142D01*
X007871Y005044D02*
X007423Y005044D01*
X007423Y004945D02*
X007871Y004945D01*
X007871Y004847D02*
X007423Y004847D01*
X007423Y004748D02*
X007871Y004748D01*
X007871Y004649D02*
X007423Y004649D01*
X007423Y004551D02*
X007871Y004551D01*
X007871Y004452D02*
X007423Y004452D01*
X007423Y004354D02*
X007871Y004354D01*
X007871Y004255D02*
X007423Y004255D01*
X007423Y004157D02*
X007871Y004157D01*
X007871Y004058D02*
X007423Y004058D01*
X007423Y003960D02*
X007871Y003960D01*
X007871Y003861D02*
X007423Y003861D01*
X007369Y003763D02*
X007925Y003763D01*
X007811Y003073D02*
X008483Y003073D01*
X008301Y002974D02*
X007993Y002974D01*
X008091Y002876D02*
X008203Y002876D01*
X008154Y002777D02*
X008140Y002777D01*
X007483Y003073D02*
X006811Y003073D01*
X006993Y002974D02*
X007301Y002974D01*
X007203Y002876D02*
X007091Y002876D01*
X007140Y002777D02*
X007154Y002777D01*
X006721Y003270D02*
X011767Y003270D01*
X011767Y003368D02*
X006808Y003368D01*
X006849Y003467D02*
X011767Y003467D01*
X011767Y003566D02*
X006854Y003566D01*
X006834Y003664D02*
X009878Y003664D01*
X009873Y003763D02*
X008905Y003763D01*
X008959Y003861D02*
X009873Y003861D01*
X009873Y003960D02*
X008959Y003960D01*
X008959Y004058D02*
X009873Y004058D01*
X009873Y004157D02*
X008959Y004157D01*
X008959Y004255D02*
X009873Y004255D01*
X009873Y004354D02*
X008959Y004354D01*
X008959Y004452D02*
X009885Y004452D01*
X009897Y004748D02*
X008959Y004748D01*
X008959Y004649D02*
X011067Y004649D01*
X011077Y004551D02*
X008959Y004551D01*
X008959Y004847D02*
X009873Y004847D01*
X009873Y005438D02*
X009419Y005438D01*
X009320Y005536D02*
X009873Y005536D01*
X009965Y005635D02*
X009222Y005635D01*
X009123Y005733D02*
X011067Y005733D01*
X011067Y005635D02*
X010829Y005635D01*
X010921Y005536D02*
X011067Y005536D01*
X011067Y005438D02*
X010921Y005438D01*
X010921Y005339D02*
X011067Y005339D01*
X011067Y005241D02*
X010921Y005241D01*
X010921Y005142D02*
X011067Y005142D01*
X011067Y005044D02*
X010921Y005044D01*
X010921Y004945D02*
X011067Y004945D01*
X011067Y004847D02*
X010921Y004847D01*
X010897Y004748D02*
X011067Y004748D01*
X011176Y004452D02*
X010909Y004452D01*
X010921Y004354D02*
X011106Y004354D01*
X011530Y004748D02*
X011577Y004748D01*
X011577Y004847D02*
X011527Y004847D01*
X011527Y004945D02*
X011620Y004945D01*
X011527Y005044D02*
X012666Y005044D01*
X012591Y004945D02*
X012374Y004945D01*
X012417Y004476D02*
X012591Y004476D01*
X012591Y003844D01*
X012691Y003744D01*
X013304Y003744D01*
X013404Y003844D01*
X013404Y004789D01*
X013477Y004715D01*
X013477Y003597D01*
X013477Y003415D01*
X013862Y003030D01*
X013847Y003038D01*
X013769Y003063D01*
X013697Y003075D01*
X013697Y002606D01*
X013597Y002606D01*
X013597Y003075D01*
X013525Y003063D01*
X013447Y003038D01*
X013374Y003001D01*
X013308Y002953D01*
X013250Y002895D01*
X013202Y002829D01*
X013165Y002756D01*
X013158Y002734D01*
X013105Y002862D01*
X012953Y003014D01*
X012754Y003096D01*
X012540Y003096D01*
X012341Y003014D01*
X012227Y002900D01*
X012227Y003002D01*
X012227Y003711D01*
X012317Y003711D01*
X012417Y003811D01*
X012417Y004202D01*
X012417Y004476D01*
X012417Y004452D02*
X012591Y004452D01*
X012591Y004354D02*
X012417Y004354D01*
X012417Y004255D02*
X012591Y004255D01*
X012591Y004157D02*
X012417Y004157D01*
X012417Y004058D02*
X012591Y004058D01*
X012591Y003960D02*
X012417Y003960D01*
X012417Y003861D02*
X012591Y003861D01*
X012672Y003763D02*
X012369Y003763D01*
X012227Y003664D02*
X013477Y003664D01*
X013477Y003566D02*
X012227Y003566D01*
X012227Y003467D02*
X013477Y003467D01*
X013524Y003368D02*
X012227Y003368D01*
X012227Y003270D02*
X013622Y003270D01*
X013721Y003171D02*
X012227Y003171D01*
X012227Y003073D02*
X012483Y003073D01*
X012301Y002974D02*
X012227Y002974D01*
X011767Y003171D02*
X006483Y003171D01*
X006483Y003073D02*
X006385Y003073D01*
X006301Y002974D02*
X006286Y002974D01*
X006203Y002876D02*
X006188Y002876D01*
X006154Y002777D02*
X006089Y002777D01*
X006113Y002679D02*
X005991Y002679D01*
X005892Y002580D02*
X006107Y002580D01*
X006107Y002482D02*
X005793Y002482D01*
X005695Y002383D02*
X006134Y002383D01*
X006175Y002284D02*
X004119Y002284D01*
X004040Y002186D02*
X006254Y002186D01*
X006368Y002087D02*
X003926Y002087D01*
X003978Y001989D02*
X006316Y001989D01*
X006217Y001890D02*
X004077Y001890D01*
X004134Y001792D02*
X006160Y001792D01*
X006119Y001693D02*
X004175Y001693D01*
X004187Y001595D02*
X006107Y001595D01*
X006107Y001496D02*
X004187Y001496D01*
X004166Y001398D02*
X006128Y001398D01*
X006169Y001299D02*
X004125Y001299D01*
X004055Y001200D02*
X006239Y001200D01*
X006338Y001102D02*
X003956Y001102D01*
X003338Y001102D02*
X002901Y001102D01*
X003027Y001200D02*
X003239Y001200D01*
X003169Y001299D02*
X003099Y001299D01*
X002697Y001299D02*
X002597Y001299D01*
X002597Y001398D02*
X002697Y001398D01*
X002697Y001496D02*
X002597Y001496D01*
X002597Y001606D02*
X002597Y002038D01*
X002597Y002506D01*
X002697Y002506D01*
X002697Y002038D01*
X002697Y001606D01*
X002597Y001606D01*
X002597Y001693D02*
X002697Y001693D01*
X002697Y001792D02*
X002597Y001792D01*
X002597Y001890D02*
X002697Y001890D01*
X002697Y001989D02*
X002597Y001989D01*
X002597Y002087D02*
X002697Y002087D01*
X002697Y002186D02*
X002597Y002186D01*
X002597Y002284D02*
X002697Y002284D01*
X002697Y002383D02*
X002597Y002383D01*
X002597Y002482D02*
X002697Y002482D01*
X002697Y002606D02*
X002597Y002606D01*
X002597Y003075D01*
X002525Y003063D01*
X002447Y003038D01*
X002374Y003001D01*
X002308Y002953D01*
X002250Y002895D01*
X002202Y002829D01*
X002165Y002756D01*
X002158Y002734D01*
X002134Y002790D01*
X002678Y003334D01*
X002744Y003361D01*
X002842Y003459D01*
X002870Y003525D01*
X002900Y003556D01*
X004647Y003556D01*
X004747Y003556D01*
X004839Y003594D01*
X005201Y003956D01*
X005666Y003956D01*
X005832Y004025D01*
X005958Y004151D01*
X006027Y004317D01*
X006027Y004496D01*
X005960Y004656D01*
X006335Y004656D01*
X006335Y003854D01*
X006309Y003843D01*
X006211Y003745D01*
X006158Y003617D01*
X006158Y003553D01*
X005411Y002806D01*
X004128Y002806D01*
X004105Y002862D01*
X003953Y003014D01*
X003754Y003096D01*
X003540Y003096D01*
X003341Y003014D01*
X003189Y002862D01*
X003136Y002734D01*
X003129Y002756D01*
X003092Y002829D01*
X003044Y002895D01*
X002986Y002953D01*
X002920Y003001D01*
X002847Y003038D01*
X002769Y003063D01*
X002697Y003075D01*
X002697Y002606D01*
X002697Y002679D02*
X002597Y002679D01*
X002597Y002777D02*
X002697Y002777D01*
X002697Y002876D02*
X002597Y002876D01*
X002597Y002974D02*
X002697Y002974D01*
X002697Y003073D02*
X002597Y003073D01*
X002584Y003073D02*
X002417Y003073D01*
X002338Y002974D02*
X002318Y002974D01*
X002236Y002876D02*
X002220Y002876D01*
X002176Y002777D02*
X002140Y002777D01*
X002516Y003171D02*
X005776Y003171D01*
X005678Y003073D02*
X003811Y003073D01*
X003993Y002974D02*
X005579Y002974D01*
X005481Y002876D02*
X004091Y002876D01*
X003483Y003073D02*
X002710Y003073D01*
X002614Y003270D02*
X005875Y003270D01*
X005973Y003368D02*
X002751Y003368D01*
X002845Y003467D02*
X006072Y003467D01*
X006158Y003566D02*
X004769Y003566D01*
X004908Y003664D02*
X006177Y003664D01*
X006229Y003763D02*
X005007Y003763D01*
X005105Y003861D02*
X006335Y003861D01*
X006335Y003960D02*
X005675Y003960D01*
X005865Y004058D02*
X006335Y004058D01*
X006335Y004157D02*
X005961Y004157D01*
X006001Y004255D02*
X006335Y004255D01*
X006335Y004354D02*
X006027Y004354D01*
X006027Y004452D02*
X006335Y004452D01*
X006335Y004551D02*
X006004Y004551D01*
X005963Y004649D02*
X006335Y004649D01*
X005836Y006029D02*
X008271Y006029D01*
X008326Y006128D02*
X005935Y006128D01*
X005989Y006226D02*
X008460Y006226D01*
X008734Y006226D02*
X011067Y006226D01*
X011067Y006128D02*
X008868Y006128D01*
X008923Y006029D02*
X011067Y006029D01*
X011067Y005931D02*
X008945Y005931D01*
X009025Y005832D02*
X011067Y005832D01*
X011527Y005832D02*
X012360Y005832D01*
X012459Y005733D02*
X011527Y005733D01*
X011527Y005635D02*
X012557Y005635D01*
X012656Y005536D02*
X011527Y005536D01*
X011527Y005438D02*
X012754Y005438D01*
X012853Y005339D02*
X011527Y005339D01*
X011527Y005241D02*
X012951Y005241D01*
X013050Y005142D02*
X011527Y005142D01*
X011527Y005931D02*
X011880Y005931D01*
X011877Y006029D02*
X011527Y006029D01*
X011527Y006128D02*
X011877Y006128D01*
X011877Y006226D02*
X011527Y006226D01*
X011527Y006522D02*
X011877Y006522D01*
X011877Y006620D02*
X011527Y006620D01*
X011527Y006719D02*
X011917Y006719D01*
X012027Y006817D02*
X011596Y006817D01*
X011636Y006916D02*
X011929Y006916D01*
X011861Y007015D02*
X011645Y007015D01*
X011630Y007113D02*
X011820Y007113D01*
X011817Y007212D02*
X011584Y007212D01*
X011473Y007310D02*
X011825Y007310D01*
X011865Y007409D02*
X011253Y007409D01*
X011351Y007507D02*
X011940Y007507D01*
X012088Y007606D02*
X011450Y007606D01*
X011549Y007704D02*
X020212Y007704D01*
X020212Y007606D02*
X014306Y007606D01*
X014454Y007507D02*
X020212Y007507D01*
X020212Y007409D02*
X014529Y007409D01*
X014569Y007310D02*
X020212Y007310D01*
X020212Y007212D02*
X017492Y007212D01*
X017648Y007113D02*
X020212Y007113D01*
X020212Y007015D02*
X017726Y007015D01*
X017767Y006916D02*
X020212Y006916D01*
X020212Y006817D02*
X017777Y006817D01*
X017776Y006719D02*
X020212Y006719D01*
X020212Y006620D02*
X017735Y006620D01*
X017671Y006522D02*
X020212Y006522D01*
X020212Y006423D02*
X017723Y006423D01*
X017767Y006325D02*
X020212Y006325D01*
X020212Y006226D02*
X017767Y006226D01*
X017767Y006128D02*
X020212Y006128D01*
X020212Y006029D02*
X017767Y006029D01*
X017767Y005931D02*
X020212Y005931D01*
X020212Y005832D02*
X017767Y005832D01*
X017767Y005733D02*
X020212Y005733D01*
X020212Y005635D02*
X017767Y005635D01*
X017670Y005536D02*
X020212Y005536D01*
X020212Y005438D02*
X017567Y005438D01*
X017567Y005339D02*
X020212Y005339D01*
X020212Y005241D02*
X017567Y005241D01*
X017567Y005142D02*
X020212Y005142D01*
X020212Y005044D02*
X017567Y005044D01*
X017567Y004945D02*
X020212Y004945D01*
X020212Y004847D02*
X017567Y004847D01*
X017567Y004748D02*
X020212Y004748D01*
X020212Y004649D02*
X017567Y004649D01*
X017567Y004551D02*
X020212Y004551D01*
X020212Y004452D02*
X017567Y004452D01*
X017567Y004354D02*
X020212Y004354D01*
X020212Y004255D02*
X017567Y004255D01*
X017567Y004157D02*
X020212Y004157D01*
X020212Y004058D02*
X017567Y004058D01*
X017567Y003960D02*
X020212Y003960D01*
X020212Y003861D02*
X017567Y003861D01*
X017567Y003763D02*
X020212Y003763D01*
X020212Y003664D02*
X017567Y003664D01*
X017567Y003566D02*
X020212Y003566D01*
X020212Y003467D02*
X017567Y003467D01*
X017567Y003368D02*
X020212Y003368D01*
X020212Y003270D02*
X017567Y003270D01*
X017567Y003171D02*
X020212Y003171D01*
X020212Y003073D02*
X019811Y003073D01*
X019993Y002974D02*
X020212Y002974D01*
X020212Y002876D02*
X020091Y002876D01*
X020140Y002777D02*
X020212Y002777D01*
X020212Y002679D02*
X020181Y002679D01*
X020187Y002580D02*
X020212Y002580D01*
X020212Y002482D02*
X020187Y002482D01*
X020160Y002383D02*
X020212Y002383D01*
X020212Y002284D02*
X020119Y002284D01*
X020040Y002186D02*
X020212Y002186D01*
X020212Y002087D02*
X019926Y002087D01*
X019978Y001989D02*
X020212Y001989D01*
X020212Y001890D02*
X020077Y001890D01*
X020134Y001792D02*
X020212Y001792D01*
X020212Y001693D02*
X020175Y001693D01*
X020187Y001595D02*
X020212Y001595D01*
X020212Y001496D02*
X020187Y001496D01*
X020166Y001398D02*
X020212Y001398D01*
X020212Y001299D02*
X020125Y001299D01*
X020055Y001200D02*
X020212Y001200D01*
X020212Y001102D02*
X019956Y001102D01*
X020212Y000976D02*
X020212Y020121D01*
X019647Y018556D02*
X019697Y018506D01*
X019697Y013656D01*
X019477Y014898D02*
X019117Y014898D01*
X019117Y014997D02*
X019477Y014997D01*
X019477Y015095D02*
X019117Y015095D01*
X019117Y015194D02*
X019477Y015194D01*
X019477Y015292D02*
X019117Y015292D01*
X019117Y015391D02*
X019477Y015391D01*
X019477Y015489D02*
X019117Y015489D01*
X019117Y015588D02*
X019477Y015588D01*
X019477Y015686D02*
X019117Y015686D01*
X019117Y015785D02*
X019477Y015785D01*
X019477Y015883D02*
X019117Y015883D01*
X019082Y015982D02*
X019477Y015982D01*
X019477Y016081D02*
X017670Y016081D01*
X017684Y016179D02*
X019477Y016179D01*
X018397Y016856D02*
X017997Y016856D01*
X017697Y017156D01*
X017697Y017306D01*
X017397Y017606D01*
X014847Y017606D01*
X013897Y018556D01*
X013647Y018556D01*
X013455Y018051D02*
X012839Y018051D01*
X013004Y018150D02*
X013290Y018150D01*
X013191Y018248D02*
X013103Y018248D01*
X013145Y018347D02*
X013149Y018347D01*
X013237Y017854D02*
X014028Y017854D01*
X014166Y017854D02*
X014288Y017854D01*
X014340Y017756D02*
X014386Y017756D01*
X014411Y017657D02*
X014485Y017657D01*
X014445Y017559D02*
X014584Y017559D01*
X014682Y017460D02*
X014445Y017460D01*
X014414Y017362D02*
X016694Y017362D01*
X016694Y017263D02*
X014346Y017263D01*
X014181Y017164D02*
X016694Y017164D01*
X016694Y017066D02*
X013530Y017066D01*
X013530Y017164D02*
X014012Y017164D01*
X013530Y016967D02*
X016694Y016967D01*
X017625Y016869D02*
X017673Y016869D01*
X017625Y016770D02*
X017772Y016770D01*
X017870Y016672D02*
X017625Y016672D01*
X017632Y016573D02*
X018188Y016573D01*
X018332Y017460D02*
X019477Y017460D01*
X019290Y018150D02*
X019004Y018150D01*
X019103Y018248D02*
X019191Y018248D01*
X019149Y018347D02*
X019145Y018347D01*
X018455Y018051D02*
X017839Y018051D01*
X018004Y018150D02*
X018290Y018150D01*
X018191Y018248D02*
X018103Y018248D01*
X018145Y018347D02*
X018149Y018347D01*
X018232Y017854D02*
X018332Y017854D01*
X018332Y017756D02*
X018232Y017756D01*
X018232Y017657D02*
X018332Y017657D01*
X018332Y017559D02*
X018232Y017559D01*
X017758Y017559D02*
X017756Y017559D01*
X017758Y017657D02*
X017657Y017657D01*
X017559Y017756D02*
X017758Y017756D01*
X017795Y017854D02*
X014910Y017854D01*
X014189Y017953D02*
X002547Y017953D01*
X002547Y017854D02*
X012857Y017854D01*
X012455Y018051D02*
X011839Y018051D01*
X012004Y018150D02*
X012290Y018150D01*
X012191Y018248D02*
X012103Y018248D01*
X012145Y018347D02*
X012149Y018347D01*
X012096Y017756D02*
X002547Y017756D01*
X002547Y017657D02*
X011944Y017657D01*
X011846Y017559D02*
X002547Y017559D01*
X002744Y017263D02*
X011550Y017263D01*
X011452Y017164D02*
X010742Y017164D01*
X010841Y017066D02*
X011353Y017066D01*
X011255Y016967D02*
X010939Y016967D01*
X011038Y016869D02*
X011156Y016869D01*
X011597Y016006D02*
X011597Y015906D01*
X011697Y015806D01*
X015897Y015806D01*
X016056Y015292D02*
X016100Y015292D01*
X016199Y015194D02*
X015977Y015194D01*
X016297Y015095D02*
X014897Y015095D01*
X014897Y014997D02*
X016396Y014997D01*
X016494Y014898D02*
X014897Y014898D01*
X014897Y014799D02*
X016539Y014799D01*
X016537Y014701D02*
X014897Y014701D01*
X014897Y014602D02*
X016537Y014602D01*
X016537Y014504D02*
X014897Y014504D01*
X014897Y014405D02*
X016537Y014405D01*
X016572Y014307D02*
X014897Y014307D01*
X014897Y014208D02*
X016694Y014208D01*
X016694Y014110D02*
X014897Y014110D01*
X014897Y014011D02*
X016694Y014011D01*
X016694Y013913D02*
X014897Y013913D01*
X014897Y013814D02*
X016612Y013814D01*
X016565Y013715D02*
X014880Y013715D01*
X014811Y013617D02*
X016549Y013617D01*
X016557Y013518D02*
X014713Y013518D01*
X014614Y013420D02*
X016597Y013420D01*
X016690Y013321D02*
X015274Y013321D01*
X015047Y013056D02*
X015047Y012956D01*
X014947Y013056D01*
X004697Y013056D01*
X005541Y013518D02*
X007374Y013518D01*
X007797Y013406D02*
X007197Y014006D01*
X007097Y014006D01*
X007097Y014055D01*
X006636Y014504D02*
X006297Y014504D01*
X006297Y014602D02*
X013054Y014602D01*
X013055Y014701D02*
X013154Y014701D01*
X013154Y014799D02*
X013055Y014799D01*
X013055Y014898D02*
X013154Y014898D01*
X013154Y014997D02*
X013055Y014997D01*
X013055Y015095D02*
X013154Y015095D01*
X012986Y015292D02*
X014397Y015292D01*
X014397Y015194D02*
X012888Y015194D01*
X012679Y014898D02*
X012621Y014898D01*
X012621Y014799D02*
X012679Y014799D01*
X012679Y014701D02*
X012550Y014701D01*
X012558Y014504D02*
X012679Y014504D01*
X012679Y014405D02*
X012621Y014405D01*
X012621Y014307D02*
X012679Y014307D01*
X012685Y014208D02*
X012621Y014208D01*
X012621Y014110D02*
X012776Y014110D01*
X012710Y014011D02*
X012621Y014011D01*
X012621Y013913D02*
X012664Y013913D01*
X012649Y013814D02*
X012621Y013814D01*
X012621Y013715D02*
X012658Y013715D01*
X012699Y013617D02*
X012569Y013617D01*
X012427Y013518D02*
X012793Y013518D01*
X012997Y013806D02*
X012997Y013906D01*
X013284Y014011D02*
X014397Y014011D01*
X014397Y013913D02*
X013330Y013913D01*
X013345Y013814D02*
X014301Y013814D01*
X014203Y013715D02*
X014110Y013715D01*
X013784Y013715D02*
X013336Y013715D01*
X013295Y013617D02*
X013665Y013617D01*
X013617Y013518D02*
X013201Y013518D01*
X013599Y013420D02*
X012445Y013420D01*
X012439Y013321D02*
X013605Y013321D01*
X013433Y014110D02*
X014397Y014110D01*
X014397Y014208D02*
X013524Y014208D01*
X013530Y014307D02*
X014397Y014307D01*
X014397Y014405D02*
X013530Y014405D01*
X013530Y014504D02*
X014397Y014504D01*
X014397Y014602D02*
X013155Y014602D01*
X013530Y014701D02*
X014397Y014701D01*
X014397Y014799D02*
X013530Y014799D01*
X013530Y014898D02*
X014397Y014898D01*
X014397Y014997D02*
X013525Y014997D01*
X013445Y015095D02*
X014397Y015095D01*
X014897Y015194D02*
X015517Y015194D01*
X015438Y015292D02*
X014897Y015292D01*
X016670Y015982D02*
X016694Y015982D01*
X017002Y014570D02*
X017047Y014556D01*
X017695Y012336D02*
X012779Y012336D01*
X012877Y012237D02*
X017654Y012237D01*
X017649Y012139D02*
X012976Y012139D01*
X012247Y011706D02*
X012247Y011356D01*
X012097Y011206D01*
X011997Y011206D01*
X011997Y010957D01*
X011499Y010266D02*
X011495Y010266D01*
X011431Y009380D02*
X011563Y009380D01*
X012431Y009380D02*
X012563Y009380D01*
X012495Y010266D02*
X012499Y010266D01*
X010499Y010266D02*
X005728Y010266D01*
X005681Y010365D02*
X017897Y010365D01*
X017920Y010661D02*
X016521Y010661D01*
X016521Y010759D02*
X017996Y010759D01*
X018095Y010858D02*
X016521Y010858D01*
X016521Y010956D02*
X018193Y010956D01*
X018292Y011055D02*
X016521Y011055D01*
X016521Y011153D02*
X018349Y011153D01*
X018381Y011252D02*
X016521Y011252D01*
X016514Y011350D02*
X018449Y011350D01*
X018615Y011449D02*
X016332Y011449D01*
X016408Y011548D02*
X020212Y011548D01*
X020212Y011646D02*
X016445Y011646D01*
X016445Y011745D02*
X020212Y011745D01*
X020212Y011449D02*
X018779Y011449D01*
X018945Y011350D02*
X020212Y011350D01*
X020212Y011252D02*
X019013Y011252D01*
X019045Y011153D02*
X020212Y011153D01*
X020212Y011055D02*
X019045Y011055D01*
X019012Y010956D02*
X020212Y010956D01*
X020212Y010858D02*
X018941Y010858D01*
X018769Y010759D02*
X020212Y010759D01*
X020212Y010661D02*
X018605Y010661D01*
X018506Y010562D02*
X020212Y010562D01*
X020212Y010464D02*
X018408Y010464D01*
X018397Y010365D02*
X020212Y010365D01*
X020212Y010266D02*
X018397Y010266D01*
X018397Y010168D02*
X020212Y010168D01*
X020212Y010069D02*
X018397Y010069D01*
X018397Y009971D02*
X020212Y009971D01*
X020212Y009872D02*
X018397Y009872D01*
X018397Y009774D02*
X020212Y009774D01*
X020212Y009675D02*
X018397Y009675D01*
X018397Y009577D02*
X020212Y009577D01*
X020212Y009478D02*
X018397Y009478D01*
X018397Y009380D02*
X020212Y009380D01*
X020212Y009281D02*
X018397Y009281D01*
X018397Y009182D02*
X020212Y009182D01*
X020212Y009084D02*
X018397Y009084D01*
X018367Y008985D02*
X020212Y008985D01*
X020212Y008887D02*
X018281Y008887D01*
X018183Y008788D02*
X020212Y008788D01*
X020212Y008690D02*
X018084Y008690D01*
X017985Y008591D02*
X020212Y008591D01*
X020212Y008493D02*
X017887Y008493D01*
X017788Y008394D02*
X020212Y008394D01*
X020212Y008296D02*
X016690Y008296D01*
X016591Y008197D02*
X020212Y008197D01*
X020212Y008099D02*
X016493Y008099D01*
X016394Y008000D02*
X020212Y008000D01*
X020212Y007901D02*
X011746Y007901D01*
X011647Y007803D02*
X020212Y007803D01*
X017574Y008887D02*
X004648Y008887D01*
X004648Y008788D02*
X016504Y008788D01*
X016377Y008690D02*
X004648Y008690D01*
X004648Y008591D02*
X016278Y008591D01*
X016180Y008493D02*
X004648Y008493D01*
X004648Y008394D02*
X011568Y008394D01*
X011433Y008296D02*
X004648Y008296D01*
X004648Y008197D02*
X011334Y008197D01*
X011236Y008099D02*
X010179Y008099D01*
X010154Y008117D02*
X010097Y008146D01*
X010036Y008166D01*
X009972Y008176D01*
X009969Y008176D01*
X009969Y007797D01*
X010348Y007797D01*
X010348Y007800D01*
X010338Y007864D01*
X010318Y007925D01*
X010289Y007982D01*
X010251Y008034D01*
X010206Y008079D01*
X010154Y008117D01*
X010276Y008000D02*
X011137Y008000D01*
X011039Y007901D02*
X010325Y007901D01*
X010347Y007803D02*
X010940Y007803D01*
X010842Y007704D02*
X010343Y007704D01*
X010315Y007606D02*
X010743Y007606D01*
X010644Y007507D02*
X010254Y007507D01*
X010132Y007409D02*
X010546Y007409D01*
X010859Y007015D02*
X010949Y007015D01*
X010957Y007113D02*
X010964Y007113D01*
X010958Y006916D02*
X010760Y006916D01*
X010662Y006817D02*
X010998Y006817D01*
X011067Y006719D02*
X010563Y006719D01*
X010609Y006765D02*
X010609Y006765D01*
X011067Y006620D02*
X005975Y006620D01*
X006016Y006522D02*
X011067Y006522D01*
X011067Y006423D02*
X006027Y006423D01*
X006027Y006325D02*
X011067Y006325D01*
X012247Y006533D02*
X012247Y007206D01*
X012677Y007212D02*
X013717Y007212D01*
X013725Y007310D02*
X012669Y007310D01*
X012629Y007409D02*
X013765Y007409D01*
X013840Y007507D02*
X012554Y007507D01*
X012406Y007606D02*
X013988Y007606D01*
X014147Y007206D02*
X014147Y006533D01*
X014197Y006483D01*
X014197Y006129D02*
X014197Y005906D01*
X014997Y005106D01*
X014997Y004106D01*
X015647Y003456D01*
X015647Y001556D01*
X016055Y001200D02*
X016239Y001200D01*
X016169Y001299D02*
X016125Y001299D01*
X015956Y001102D02*
X016338Y001102D01*
X016956Y001102D02*
X017338Y001102D01*
X017239Y001200D02*
X017055Y001200D01*
X017125Y001299D02*
X017169Y001299D01*
X017956Y001102D02*
X018338Y001102D01*
X018239Y001200D02*
X018055Y001200D01*
X018125Y001299D02*
X018169Y001299D01*
X018956Y001102D02*
X019338Y001102D01*
X019239Y001200D02*
X019055Y001200D01*
X019125Y001299D02*
X019169Y001299D01*
X019140Y002777D02*
X019154Y002777D01*
X019203Y002876D02*
X019091Y002876D01*
X018993Y002974D02*
X019301Y002974D01*
X019483Y003073D02*
X018811Y003073D01*
X018483Y003073D02*
X017811Y003073D01*
X017993Y002974D02*
X018301Y002974D01*
X018203Y002876D02*
X018091Y002876D01*
X018140Y002777D02*
X018154Y002777D01*
X017647Y002556D02*
X017347Y002856D01*
X017347Y005829D01*
X017024Y005536D02*
X016817Y005536D01*
X016817Y005438D02*
X017127Y005438D01*
X017127Y005339D02*
X016817Y005339D01*
X016817Y005241D02*
X017127Y005241D01*
X017127Y005142D02*
X016817Y005142D01*
X016817Y005044D02*
X017127Y005044D01*
X017127Y004945D02*
X016817Y004945D01*
X016817Y004847D02*
X017127Y004847D01*
X017127Y004748D02*
X016817Y004748D01*
X016817Y004649D02*
X017127Y004649D01*
X017127Y004551D02*
X016817Y004551D01*
X016817Y004452D02*
X017127Y004452D01*
X017127Y004354D02*
X016817Y004354D01*
X016817Y004255D02*
X017127Y004255D01*
X017127Y004157D02*
X016817Y004157D01*
X016817Y004058D02*
X017127Y004058D01*
X017127Y003960D02*
X016817Y003960D01*
X016817Y003861D02*
X017127Y003861D01*
X017127Y003763D02*
X016817Y003763D01*
X016817Y003664D02*
X017127Y003664D01*
X017127Y003566D02*
X016817Y003566D01*
X016817Y003467D02*
X017127Y003467D01*
X017127Y003368D02*
X016817Y003368D01*
X016817Y003270D02*
X017127Y003270D01*
X017127Y003171D02*
X016817Y003171D01*
X016817Y003073D02*
X017127Y003073D01*
X017127Y002974D02*
X016993Y002974D01*
X017091Y002876D02*
X017127Y002876D01*
X015427Y003050D02*
X015341Y003014D01*
X015189Y002862D01*
X015147Y002760D01*
X015105Y002862D01*
X014953Y003014D01*
X014754Y003096D01*
X014540Y003096D01*
X014454Y003061D01*
X013917Y003597D01*
X013917Y003870D01*
X013921Y003856D01*
X013940Y003822D01*
X013968Y003794D01*
X014002Y003774D01*
X014041Y003764D01*
X014247Y003764D01*
X014247Y004356D01*
X014346Y004356D01*
X014346Y003764D01*
X014553Y003764D01*
X014591Y003774D01*
X014625Y003794D01*
X014653Y003822D01*
X014673Y003856D01*
X014683Y003894D01*
X014683Y004356D01*
X014347Y004356D01*
X014347Y004456D01*
X014683Y004456D01*
X014683Y004918D01*
X014673Y004956D01*
X014653Y004991D01*
X014625Y005018D01*
X014591Y005038D01*
X014553Y005048D01*
X014346Y005048D01*
X014346Y004456D01*
X014247Y004456D01*
X014247Y005048D01*
X014041Y005048D01*
X014002Y005038D01*
X013968Y005018D01*
X013940Y004991D01*
X013921Y004956D01*
X013910Y004918D01*
X013910Y004904D01*
X013788Y005026D01*
X012717Y006097D01*
X012717Y006325D01*
X012717Y006423D02*
X013777Y006423D01*
X013777Y006325D02*
X013777Y005934D01*
X013877Y005834D01*
X013977Y005834D01*
X013977Y005815D01*
X014777Y005015D01*
X014777Y004197D01*
X014777Y004015D01*
X015427Y003365D01*
X015427Y003050D01*
X015427Y003073D02*
X014811Y003073D01*
X014993Y002974D02*
X015301Y002974D01*
X015203Y002876D02*
X015091Y002876D01*
X015140Y002777D02*
X015154Y002777D01*
X015427Y003171D02*
X014343Y003171D01*
X014442Y003073D02*
X014483Y003073D01*
X014244Y003270D02*
X015427Y003270D01*
X015424Y003368D02*
X014146Y003368D01*
X014047Y003467D02*
X015325Y003467D01*
X015227Y003566D02*
X013949Y003566D01*
X013917Y003664D02*
X015128Y003664D01*
X015030Y003763D02*
X013917Y003763D01*
X013917Y003861D02*
X013919Y003861D01*
X014247Y003861D02*
X014346Y003861D01*
X014346Y003960D02*
X014247Y003960D01*
X014247Y004058D02*
X014346Y004058D01*
X014346Y004157D02*
X014247Y004157D01*
X014247Y004255D02*
X014346Y004255D01*
X014346Y004354D02*
X014247Y004354D01*
X014347Y004452D02*
X014777Y004452D01*
X014777Y004354D02*
X014683Y004354D01*
X014683Y004255D02*
X014777Y004255D01*
X014777Y004157D02*
X014683Y004157D01*
X014683Y004058D02*
X014777Y004058D01*
X014832Y003960D02*
X014683Y003960D01*
X014674Y003861D02*
X014931Y003861D01*
X014777Y004551D02*
X014683Y004551D01*
X014683Y004649D02*
X014777Y004649D01*
X014777Y004748D02*
X014683Y004748D01*
X014683Y004847D02*
X014777Y004847D01*
X014777Y004945D02*
X014676Y004945D01*
X014749Y005044D02*
X014570Y005044D01*
X014650Y005142D02*
X013672Y005142D01*
X013771Y005044D02*
X014023Y005044D01*
X013918Y004945D02*
X013869Y004945D01*
X013697Y004806D02*
X013697Y003506D01*
X014647Y002556D01*
X013819Y003073D02*
X013710Y003073D01*
X013697Y003073D02*
X013597Y003073D01*
X013584Y003073D02*
X012811Y003073D01*
X012993Y002974D02*
X013338Y002974D01*
X013236Y002876D02*
X013091Y002876D01*
X013140Y002777D02*
X013176Y002777D01*
X013597Y002777D02*
X013697Y002777D01*
X013697Y002679D02*
X013597Y002679D01*
X013597Y002506D02*
X013697Y002506D01*
X013697Y002038D01*
X013697Y001606D01*
X013597Y001606D01*
X013597Y002038D01*
X013597Y002506D01*
X013597Y002482D02*
X013697Y002482D01*
X013697Y002383D02*
X013597Y002383D01*
X013597Y002284D02*
X013697Y002284D01*
X013697Y002186D02*
X013597Y002186D01*
X013597Y002087D02*
X013697Y002087D01*
X013697Y001989D02*
X013597Y001989D01*
X013597Y001890D02*
X013697Y001890D01*
X013697Y001792D02*
X013597Y001792D01*
X013597Y001693D02*
X013697Y001693D01*
X013697Y001496D02*
X013597Y001496D01*
X013597Y001398D02*
X013697Y001398D01*
X013697Y001299D02*
X013597Y001299D01*
X013597Y001200D02*
X013697Y001200D01*
X013697Y001102D02*
X013597Y001102D01*
X013393Y001102D02*
X012956Y001102D01*
X013055Y001200D02*
X013267Y001200D01*
X013194Y001299D02*
X013125Y001299D01*
X012338Y001102D02*
X011956Y001102D01*
X012055Y001200D02*
X012239Y001200D01*
X012169Y001299D02*
X012125Y001299D01*
X011338Y001102D02*
X010956Y001102D01*
X011055Y001200D02*
X011239Y001200D01*
X011169Y001299D02*
X011125Y001299D01*
X010338Y001102D02*
X009956Y001102D01*
X010055Y001200D02*
X010239Y001200D01*
X010169Y001299D02*
X010125Y001299D01*
X009338Y001102D02*
X008956Y001102D01*
X009055Y001200D02*
X009239Y001200D01*
X009169Y001299D02*
X009125Y001299D01*
X008338Y001102D02*
X007956Y001102D01*
X008055Y001200D02*
X008239Y001200D01*
X008169Y001299D02*
X008125Y001299D01*
X007338Y001102D02*
X006956Y001102D01*
X007055Y001200D02*
X007239Y001200D01*
X007169Y001299D02*
X007125Y001299D01*
X008811Y003073D02*
X009483Y003073D01*
X009301Y002974D02*
X008993Y002974D01*
X009091Y002876D02*
X009203Y002876D01*
X009154Y002777D02*
X009140Y002777D01*
X009811Y003073D02*
X010483Y003073D01*
X010301Y002974D02*
X009993Y002974D01*
X010091Y002876D02*
X010203Y002876D01*
X010154Y002777D02*
X010140Y002777D01*
X010811Y003073D02*
X011483Y003073D01*
X011301Y002974D02*
X010993Y002974D01*
X011091Y002876D02*
X011203Y002876D01*
X011154Y002777D02*
X011140Y002777D01*
X010916Y003664D02*
X011767Y003664D01*
X011625Y003763D02*
X011496Y003763D01*
X011098Y003763D02*
X010921Y003763D01*
X009205Y004945D02*
X008959Y004945D01*
X008959Y005044D02*
X009106Y005044D01*
X009008Y005142D02*
X008959Y005142D01*
X008908Y007409D02*
X008611Y007409D01*
X008709Y007507D02*
X008809Y007507D01*
X008786Y008000D02*
X008732Y008000D01*
X008640Y008099D02*
X008879Y008099D01*
X009427Y008099D02*
X009702Y008099D01*
X009605Y008000D02*
X009520Y008000D01*
X009548Y007606D02*
X009566Y007606D01*
X009626Y007507D02*
X009497Y007507D01*
X009398Y007409D02*
X009748Y007409D01*
X009911Y007409D02*
X009969Y007409D01*
X009969Y007507D02*
X009911Y007507D01*
X009911Y007606D02*
X009969Y007606D01*
X009969Y007704D02*
X009911Y007704D01*
X009911Y007803D02*
X009969Y007803D01*
X009969Y007901D02*
X009911Y007901D01*
X009911Y008000D02*
X009969Y008000D01*
X009969Y008099D02*
X009911Y008099D01*
X010563Y009380D02*
X004648Y009380D01*
X004648Y009478D02*
X010473Y009478D01*
X010473Y009577D02*
X004648Y009577D01*
X004648Y009675D02*
X005575Y009675D01*
X005476Y009774D02*
X004726Y009774D01*
X004824Y009872D02*
X005189Y009872D01*
X005097Y009971D02*
X004923Y009971D01*
X005021Y010069D02*
X005056Y010069D01*
X005789Y010168D02*
X010473Y010168D01*
X008091Y008099D02*
X007852Y008099D01*
X007945Y008000D02*
X007999Y008000D01*
X008022Y007507D02*
X007922Y007507D01*
X007823Y007409D02*
X008120Y007409D01*
X007333Y007409D02*
X007036Y007409D01*
X007134Y007507D02*
X007234Y007507D01*
X007211Y008000D02*
X007157Y008000D01*
X007065Y008099D02*
X007304Y008099D01*
X006517Y008099D02*
X006277Y008099D01*
X006370Y008000D02*
X006424Y008000D01*
X006447Y007507D02*
X006347Y007507D01*
X006248Y007409D02*
X006546Y007409D01*
X005758Y007409D02*
X005461Y007409D01*
X005560Y007507D02*
X005660Y007507D01*
X005637Y008000D02*
X005583Y008000D01*
X005490Y008099D02*
X005729Y008099D01*
X004942Y008099D02*
X004703Y008099D01*
X004795Y008000D02*
X004849Y008000D01*
X004872Y007507D02*
X004772Y007507D01*
X004674Y007409D02*
X004971Y007409D01*
X004619Y006620D02*
X004275Y006620D01*
X004316Y006522D02*
X004578Y006522D01*
X004567Y006423D02*
X004327Y006423D01*
X004327Y006325D02*
X004567Y006325D01*
X004605Y006226D02*
X004289Y006226D01*
X004235Y006128D02*
X004659Y006128D01*
X004758Y006029D02*
X004136Y006029D01*
X004025Y005832D02*
X004869Y005832D01*
X004708Y005733D02*
X004186Y005733D01*
X004348Y005635D02*
X004625Y005635D01*
X004584Y005536D02*
X004470Y005536D01*
X003169Y005832D02*
X002597Y005832D01*
X002623Y005733D02*
X003008Y005733D01*
X003641Y007768D02*
X003641Y011000D01*
X004097Y011456D01*
X004097Y012156D01*
X005700Y013617D02*
X006625Y013617D01*
X006573Y013715D02*
X005765Y013715D01*
X005795Y013814D02*
X006573Y013814D01*
X006573Y013913D02*
X005878Y013913D01*
X005986Y014011D02*
X006573Y014011D01*
X006573Y014110D02*
X006093Y014110D01*
X006202Y014208D02*
X006573Y014208D01*
X006573Y014307D02*
X006276Y014307D01*
X006297Y014405D02*
X006573Y014405D01*
X006644Y014701D02*
X006297Y014701D01*
X006297Y014799D02*
X006573Y014799D01*
X006573Y014898D02*
X006297Y014898D01*
X007550Y014701D02*
X007644Y014701D01*
X007636Y014504D02*
X007558Y014504D01*
X008097Y014055D02*
X008097Y014006D01*
X008197Y014006D01*
X008797Y013406D01*
X009097Y014006D02*
X009097Y014055D01*
X009097Y014006D02*
X009197Y014006D01*
X009797Y013406D01*
X010097Y014006D02*
X010097Y014055D01*
X010097Y014006D02*
X010197Y014006D01*
X010797Y013406D01*
X010897Y013406D01*
X011197Y013806D02*
X011197Y014006D01*
X011097Y014006D01*
X011097Y014055D01*
X011197Y013806D02*
X011597Y013406D01*
X012097Y013406D02*
X012097Y014055D01*
X011636Y014504D02*
X011558Y014504D01*
X011550Y014701D02*
X011644Y014701D01*
X010644Y014701D02*
X010550Y014701D01*
X010558Y014504D02*
X010636Y014504D01*
X009636Y014504D02*
X009558Y014504D01*
X009550Y014701D02*
X009644Y014701D01*
X008644Y014701D02*
X008550Y014701D01*
X008558Y014504D02*
X008636Y014504D01*
X009547Y016006D02*
X009547Y016031D01*
X009547Y016006D02*
X002197Y016006D01*
X001647Y016556D01*
X002505Y018051D02*
X006455Y018051D01*
X006290Y018150D02*
X002407Y018150D01*
X002308Y018248D02*
X006191Y018248D01*
X006149Y018347D02*
X002210Y018347D01*
X002186Y018446D02*
X006108Y018446D01*
X006107Y018544D02*
X002187Y018544D01*
X002187Y018643D02*
X006107Y018643D01*
X006139Y018741D02*
X002155Y018741D01*
X002114Y018840D02*
X006180Y018840D01*
X006265Y018938D02*
X002029Y018938D01*
X001898Y019037D02*
X006396Y019037D01*
X006304Y019135D02*
X001990Y019135D01*
X002088Y019234D02*
X006206Y019234D01*
X006155Y019332D02*
X002139Y019332D01*
X002180Y019431D02*
X006114Y019431D01*
X006107Y019530D02*
X002187Y019530D01*
X002187Y019628D02*
X006107Y019628D01*
X006133Y019727D02*
X002161Y019727D01*
X002120Y019825D02*
X006174Y019825D01*
X006251Y019924D02*
X002043Y019924D01*
X001933Y020022D02*
X006361Y020022D01*
X006933Y020022D02*
X007361Y020022D01*
X007251Y019924D02*
X007043Y019924D01*
X007120Y019825D02*
X007174Y019825D01*
X007933Y020022D02*
X008361Y020022D01*
X008251Y019924D02*
X008043Y019924D01*
X008120Y019825D02*
X008174Y019825D01*
X008933Y020022D02*
X009361Y020022D01*
X009251Y019924D02*
X009043Y019924D01*
X009120Y019825D02*
X009174Y019825D01*
X009933Y020022D02*
X010361Y020022D01*
X010251Y019924D02*
X010043Y019924D01*
X010120Y019825D02*
X010174Y019825D01*
X010933Y020022D02*
X011361Y020022D01*
X011251Y019924D02*
X011043Y019924D01*
X011120Y019825D02*
X011174Y019825D01*
X011933Y020022D02*
X012361Y020022D01*
X012251Y019924D02*
X012043Y019924D01*
X012120Y019825D02*
X012174Y019825D01*
X012933Y020022D02*
X013361Y020022D01*
X013251Y019924D02*
X013043Y019924D01*
X013120Y019825D02*
X013174Y019825D01*
X013933Y020022D02*
X014361Y020022D01*
X014251Y019924D02*
X014043Y019924D01*
X014120Y019825D02*
X014174Y019825D01*
X014933Y020022D02*
X015416Y020022D01*
X015279Y019924D02*
X015043Y019924D01*
X015120Y019825D02*
X015200Y019825D01*
X014091Y018051D02*
X013839Y018051D01*
X012097Y016406D02*
X012397Y016106D01*
X011455Y018051D02*
X010839Y018051D01*
X011004Y018150D02*
X011290Y018150D01*
X011191Y018248D02*
X011103Y018248D01*
X011145Y018347D02*
X011149Y018347D01*
X010455Y018051D02*
X009839Y018051D01*
X010004Y018150D02*
X010290Y018150D01*
X010191Y018248D02*
X010103Y018248D01*
X010145Y018347D02*
X010149Y018347D01*
X009455Y018051D02*
X008839Y018051D01*
X009004Y018150D02*
X009290Y018150D01*
X009191Y018248D02*
X009103Y018248D01*
X009145Y018347D02*
X009149Y018347D01*
X008455Y018051D02*
X007839Y018051D01*
X008004Y018150D02*
X008290Y018150D01*
X008191Y018248D02*
X008103Y018248D01*
X008145Y018347D02*
X008149Y018347D01*
X007455Y018051D02*
X006839Y018051D01*
X007004Y018150D02*
X007290Y018150D01*
X007191Y018248D02*
X007103Y018248D01*
X007145Y018347D02*
X007149Y018347D01*
X014515Y013321D02*
X014820Y013321D01*
X015100Y012040D02*
X015494Y012040D01*
X015340Y011942D02*
X015254Y011942D01*
X015597Y011706D02*
X015197Y011306D01*
X015197Y011106D01*
X015097Y011006D01*
X014997Y011006D01*
X014997Y010957D01*
X015495Y010266D02*
X015499Y010266D01*
X015997Y010957D02*
X015997Y011006D01*
X016097Y011006D01*
X016097Y011706D01*
X016354Y011942D02*
X017719Y011942D01*
X017668Y012040D02*
X016200Y012040D01*
X015994Y012040D02*
X015700Y012040D01*
X016417Y011843D02*
X017843Y011843D01*
X014499Y010266D02*
X014495Y010266D01*
X014577Y007212D02*
X016202Y007212D01*
X016492Y007212D02*
X017202Y007212D01*
X017046Y007113D02*
X016648Y007113D01*
X016726Y007015D02*
X016968Y007015D01*
X016927Y006916D02*
X016767Y006916D01*
X016777Y006817D02*
X016917Y006817D01*
X016918Y006719D02*
X016776Y006719D01*
X016735Y006620D02*
X016959Y006620D01*
X017023Y006522D02*
X016671Y006522D01*
X016723Y006423D02*
X016971Y006423D01*
X016927Y006325D02*
X016767Y006325D01*
X016767Y006226D02*
X016927Y006226D01*
X016927Y006128D02*
X016767Y006128D01*
X016767Y006029D02*
X016927Y006029D01*
X016927Y005931D02*
X016767Y005931D01*
X016767Y005832D02*
X016927Y005832D01*
X016927Y005733D02*
X016767Y005733D01*
X016779Y005635D02*
X016927Y005635D01*
X017347Y006183D02*
X017347Y006806D01*
X016023Y006522D02*
X014617Y006522D01*
X014617Y006620D02*
X015959Y006620D01*
X015918Y006719D02*
X014577Y006719D01*
X014617Y006679D02*
X014517Y006778D01*
X014367Y006778D01*
X014367Y006832D01*
X014391Y006842D01*
X014511Y006963D01*
X014577Y007121D01*
X014533Y007015D02*
X015968Y007015D01*
X015927Y006916D02*
X014465Y006916D01*
X014367Y006817D02*
X015917Y006817D01*
X015971Y006423D02*
X014617Y006423D01*
X014617Y006325D02*
X014617Y006679D01*
X013927Y006817D02*
X012467Y006817D01*
X012565Y006916D02*
X013829Y006916D01*
X013761Y007015D02*
X012633Y007015D01*
X012674Y007113D02*
X013720Y007113D01*
X013817Y006719D02*
X012677Y006719D01*
X012717Y006620D02*
X013777Y006620D01*
X013777Y006522D02*
X012717Y006522D01*
X012717Y006226D02*
X013777Y006226D01*
X013777Y006128D02*
X012717Y006128D01*
X012785Y006029D02*
X013777Y006029D01*
X013780Y005931D02*
X012884Y005931D01*
X012982Y005832D02*
X013977Y005832D01*
X014059Y005733D02*
X013081Y005733D01*
X013179Y005635D02*
X014157Y005635D01*
X014256Y005536D02*
X013278Y005536D01*
X013377Y005438D02*
X014354Y005438D01*
X014453Y005339D02*
X013475Y005339D01*
X013574Y005241D02*
X014551Y005241D01*
X014346Y005044D02*
X014247Y005044D01*
X014247Y004945D02*
X014346Y004945D01*
X014346Y004847D02*
X014247Y004847D01*
X014247Y004748D02*
X014346Y004748D01*
X014346Y004649D02*
X014247Y004649D01*
X014247Y004551D02*
X014346Y004551D01*
X013697Y004806D02*
X012374Y006129D01*
X012297Y006129D01*
X012297Y006483D02*
X012247Y006533D01*
X013404Y004748D02*
X013444Y004748D01*
X013477Y004649D02*
X013404Y004649D01*
X013404Y004551D02*
X013477Y004551D01*
X013477Y004452D02*
X013404Y004452D01*
X013404Y004354D02*
X013477Y004354D01*
X013477Y004255D02*
X013404Y004255D01*
X013404Y004157D02*
X013477Y004157D01*
X013477Y004058D02*
X013404Y004058D01*
X013404Y003960D02*
X013477Y003960D01*
X013477Y003861D02*
X013404Y003861D01*
X013477Y003763D02*
X013322Y003763D01*
X013597Y002974D02*
X013697Y002974D01*
X013697Y002876D02*
X013597Y002876D01*
X014099Y001299D02*
X014169Y001299D01*
X014239Y001200D02*
X014027Y001200D01*
X013901Y001102D02*
X014338Y001102D01*
X014956Y001102D02*
X015338Y001102D01*
X015239Y001200D02*
X015055Y001200D01*
X015125Y001299D02*
X015169Y001299D01*
X003301Y002974D02*
X002956Y002974D01*
X003058Y002876D02*
X003203Y002876D01*
X003154Y002777D02*
X003118Y002777D01*
X002194Y001299D02*
X002125Y001299D01*
X002055Y001200D02*
X002267Y001200D01*
X002393Y001102D02*
X001956Y001102D01*
X002597Y001102D02*
X002697Y001102D01*
X002697Y001200D02*
X002597Y001200D01*
X001414Y003270D02*
X001067Y003270D01*
X001067Y003368D02*
X001316Y003368D01*
X001217Y003467D02*
X001067Y003467D01*
X001067Y003566D02*
X001119Y003566D01*
X001097Y003664D02*
X001067Y003664D01*
X001067Y003763D02*
X001097Y003763D01*
X016839Y018051D02*
X017455Y018051D01*
X017290Y018150D02*
X017004Y018150D01*
X017103Y018248D02*
X017191Y018248D01*
X017149Y018347D02*
X017145Y018347D01*
D25*
X016647Y018556D02*
X016647Y019556D01*
X017647Y019556D02*
X017647Y018556D01*
X018647Y018556D02*
X018647Y019556D01*
X019647Y019556D02*
X019647Y018556D01*
X017238Y015436D02*
X017197Y015456D01*
X016747Y015456D01*
X016547Y015656D01*
X015747Y015456D02*
X015647Y015556D01*
X014647Y015556D01*
X014647Y013806D01*
X014247Y013406D01*
X013947Y013406D01*
X012497Y015156D02*
X012147Y015156D01*
X012097Y015157D01*
X012097Y015206D01*
X011097Y015206D01*
X011097Y015157D01*
X011097Y016456D01*
X012147Y017506D01*
X013047Y017506D01*
X013047Y017556D01*
X013047Y017506D02*
X014097Y017506D01*
X013147Y017056D02*
X013097Y017006D01*
X013097Y016856D01*
X013104Y016849D01*
X012897Y015556D02*
X012497Y015156D01*
X012897Y015556D02*
X014647Y015556D01*
X014647Y018556D02*
X014647Y019556D01*
X013647Y019556D02*
X013647Y018556D01*
X012647Y018556D02*
X012647Y019556D01*
X011647Y019556D02*
X011647Y018556D01*
X010647Y018556D02*
X010647Y019556D01*
X009647Y019556D02*
X009647Y018556D01*
X008647Y018556D02*
X008647Y019556D01*
X007647Y019556D02*
X007647Y018556D01*
X006647Y018556D02*
X006647Y019556D01*
X010597Y016956D02*
X011097Y016456D01*
X010597Y016956D02*
X002697Y016956D01*
X002297Y017356D01*
X002297Y017906D01*
X001647Y018556D01*
X006047Y015156D02*
X006047Y014406D01*
X005447Y013856D01*
X006047Y015156D02*
X007047Y015156D01*
X007097Y015157D01*
X007097Y015206D01*
X008097Y015206D01*
X008097Y015157D01*
X008097Y015206D02*
X009097Y015206D01*
X009097Y015157D01*
X009097Y015206D02*
X010097Y015206D01*
X010097Y015157D01*
X010097Y015206D02*
X011097Y015206D01*
X010997Y009855D02*
X010897Y009856D01*
X005747Y009856D01*
X005447Y010156D01*
X005397Y010156D01*
X002397Y008906D02*
X002397Y007406D01*
X002647Y007156D01*
X003247Y007156D01*
X003597Y006406D02*
X004097Y006906D01*
X010397Y006906D01*
X011647Y008156D01*
X016197Y008156D01*
X016597Y008556D01*
X017597Y008556D01*
X018147Y009106D01*
X018147Y010556D01*
X018697Y011106D01*
X016647Y009406D02*
X016198Y009855D01*
X015997Y009855D01*
X014997Y009855D01*
X013997Y009855D01*
X012997Y009855D01*
X011997Y009855D01*
X010997Y009855D01*
X010947Y009856D01*
X008597Y005906D02*
X009347Y005156D01*
X010397Y005156D01*
X010397Y005157D01*
X008397Y005106D02*
X008397Y004574D01*
X008415Y004556D01*
X008397Y005106D02*
X008097Y005406D01*
X007547Y005406D01*
X005297Y005406D01*
X004747Y004906D02*
X006529Y004906D01*
X006879Y004556D01*
X006506Y003547D02*
X005515Y002556D01*
X003647Y002556D01*
X003647Y001556D01*
X002647Y001556D02*
X002647Y002556D01*
X001697Y002606D02*
X001647Y002556D01*
X001647Y001556D01*
X001697Y002606D02*
X001697Y002706D01*
X002597Y003606D01*
X002547Y003656D01*
X002597Y003606D02*
X002797Y003806D01*
X004697Y003806D01*
X005297Y004406D01*
X004747Y004906D02*
X004247Y005406D01*
X003597Y005406D01*
X003547Y005456D01*
X002547Y005456D01*
X002347Y005656D01*
X002347Y006656D01*
X001897Y007106D01*
X001697Y007106D01*
X001747Y005056D02*
X001747Y005006D01*
X002197Y005006D01*
X002747Y004456D01*
X003547Y004456D01*
X003597Y004406D01*
X006647Y002556D02*
X006647Y001556D01*
X007647Y001556D02*
X007647Y002556D01*
X008647Y002556D02*
X008647Y001556D01*
X009647Y001556D02*
X009647Y002556D01*
X010647Y002556D02*
X010647Y001556D01*
X011647Y001556D02*
X011647Y002556D01*
X012647Y002556D02*
X012647Y001556D01*
X014647Y001556D02*
X014647Y002556D01*
X015647Y002556D02*
X015647Y001556D01*
X016647Y001556D02*
X016647Y002556D01*
X017647Y002556D02*
X017647Y001556D01*
X018647Y001556D02*
X018647Y002556D01*
X019647Y002556D02*
X019647Y001556D01*
D26*
X016647Y009406D03*
X018697Y011106D03*
X019697Y012006D03*
X018897Y013456D03*
X019697Y013656D03*
X018497Y014756D03*
X016897Y013606D03*
X016647Y012556D03*
X016097Y011706D03*
X015597Y011706D03*
X014997Y011706D03*
X014347Y011756D03*
X013697Y011906D03*
X015047Y013056D03*
X013947Y013406D03*
X012997Y013806D03*
X012097Y013406D03*
X011597Y013406D03*
X010897Y013406D03*
X009797Y013406D03*
X008797Y013406D03*
X007797Y013406D03*
X009847Y011406D03*
X011597Y011706D03*
X012247Y011706D03*
X015747Y015456D03*
X016547Y015656D03*
X018397Y016856D03*
X014097Y017506D03*
X013047Y017556D03*
X012097Y016406D03*
X011597Y016006D03*
X010447Y016006D03*
X009547Y016031D03*
X005447Y013856D03*
X004197Y014106D03*
X002897Y013156D03*
X002897Y011406D03*
X002397Y008906D03*
X003247Y007156D03*
X005397Y010156D03*
X006597Y009156D03*
X008597Y005906D03*
X007547Y005406D03*
X006506Y003547D03*
X002547Y003656D03*
X011297Y004056D03*
X011297Y007006D03*
X017997Y012156D03*
D27*
X011297Y007006D02*
X011297Y004656D01*
X011597Y004356D01*
X011997Y004356D01*
X011997Y004006D02*
X011997Y002906D01*
X011647Y002556D01*
X011297Y004056D02*
X010397Y004056D01*
X010397Y004055D01*
X011997Y004706D02*
X012697Y004706D01*
X012997Y004406D01*
M02*
