%
M48
M72
T01C0.0197
T02C0.0236
T03C0.0315
T04C0.0320
T05C0.0354
T06C0.0360
T07C0.0400
%
T01
X17279Y3656
T02
X11479Y6856
X14079Y6806
X20029Y12006
X19329Y5056
X18329Y3856
X18729Y16156
X13729Y9556
X10179Y11456
X16179Y10106
X15729Y10906
X10729Y11756
X11729Y14606
X13279Y13406
X15779Y9256
X18929Y4006
X3529Y8356
X6079Y9556
X7529Y9756
X7629Y8856
X8929Y13006
X10779Y13006
X12879Y4756
X12879Y9256
X10429Y10906
X9829Y10206
X12079Y15656
X12729Y13006
X16029Y11206
X9429Y11656
X9429Y8756
X7329Y11506
X5579Y11506
X13179Y14906
X11879Y4906
X12429Y9256
X4029Y11806
X5629Y12056
X17779Y13606
X6738Y3547
X19229Y12306
T03
X2678Y7768
X3465Y7768
X4253Y7768
X5040Y7768
X5828Y7768
X6615Y7768
X7402Y7768
X8190Y7768
X8977Y7768
X9765Y7768
X9765Y16430
X8977Y16430
X8190Y16430
X7402Y16430
X6615Y16430
X5828Y16430
X5040Y16430
X4253Y16430
X3465Y16430
X2678Y16430
T04
X13879Y6106
X11979Y6106
X17579Y7506
X16579Y7506
T05
X18779Y13790
X18779Y15522
T06
X3429Y4456
X3429Y5456
X3429Y6456
X4879Y6456
X4879Y5456
X4879Y4456
T07
X19879Y4556
X19879Y5556
X19879Y6556
X19879Y7556
X19879Y8556
X19879Y9556
X1879Y9606
X1879Y10606
X1879Y11606
X1879Y12606
X1879Y13606
X1879Y14606
X1929Y7106
X1929Y6106
X6879Y2556
X7879Y2556
X8879Y2556
X9879Y2556
X10879Y2556
X11879Y2556
X12879Y2556
X13879Y2556
X14879Y2556
X15879Y2556
X16879Y2556
X17879Y2556
X18879Y2556
X19879Y2556
X19879Y19556
X18879Y19556
X17879Y19556
X16879Y19556
X15879Y19556
X14879Y19556
X13879Y19556
X12879Y19556
X11879Y19556
X10879Y19556
X9879Y19556
X8879Y19556
X7879Y19556
X6879Y19556
X19879Y18556
X18879Y18556
X17879Y18556
X16879Y18556
X15879Y18556
X14879Y18556
X13879Y18556
X12879Y18556
X11879Y18556
X10879Y18556
X9879Y18556
X8879Y18556
X7879Y18556
X6879Y18556
X6879Y1556
X7879Y1556
X8879Y1556
X9879Y1556
X10879Y1556
X11879Y1556
X12879Y1556
X13879Y1556
X14879Y1556
X15879Y1556
X16879Y1556
X17879Y1556
X18879Y1556
X19879Y1556
X1879Y1556
X2879Y1556
X3879Y1556
X1879Y2556
X2879Y2556
X3879Y2556
X1979Y5006
X1979Y3856
M30
