G75*
G70*
%OFA0B0*%
%FSLAX24Y24*%
%IPPOS*%
%LPD*%
%AMOC8*
5,1,8,0,0,1.08239X$1,22.5*
%
%ADD10C,0.0000*%
%ADD11C,0.0780*%
%ADD12C,0.0560*%
%ADD13C,0.0555*%
%ADD14C,0.0600*%
%ADD15R,0.0788X0.1379*%
%ADD16OC8,0.1040*%
%ADD17R,0.0512X0.1024*%
%ADD18R,0.0540X0.0290*%
%ADD19R,0.0670X0.0749*%
%ADD20R,0.0749X0.0670*%
%ADD21R,0.0290X0.0540*%
%ADD22R,0.0276X0.0906*%
%ADD23R,0.0749X0.0355*%
%ADD24R,0.0827X0.0591*%
%ADD25R,0.0906X0.0591*%
%ADD26C,0.0355*%
D10*
X000897Y000151D02*
X000897Y019646D01*
X020382Y019636D01*
X020382Y000151D01*
X000897Y000151D01*
X017363Y012619D02*
X017365Y012644D01*
X017371Y012668D01*
X017380Y012690D01*
X017393Y012711D01*
X017409Y012730D01*
X017428Y012746D01*
X017449Y012759D01*
X017471Y012768D01*
X017495Y012774D01*
X017520Y012776D01*
X017545Y012774D01*
X017569Y012768D01*
X017591Y012759D01*
X017612Y012746D01*
X017631Y012730D01*
X017647Y012711D01*
X017660Y012690D01*
X017669Y012668D01*
X017675Y012644D01*
X017677Y012619D01*
X017675Y012594D01*
X017669Y012570D01*
X017660Y012548D01*
X017647Y012527D01*
X017631Y012508D01*
X017612Y012492D01*
X017591Y012479D01*
X017569Y012470D01*
X017545Y012464D01*
X017520Y012462D01*
X017495Y012464D01*
X017471Y012470D01*
X017449Y012479D01*
X017428Y012492D01*
X017409Y012508D01*
X017393Y012527D01*
X017380Y012548D01*
X017371Y012570D01*
X017365Y012594D01*
X017363Y012619D01*
X017363Y015769D02*
X017365Y015794D01*
X017371Y015818D01*
X017380Y015840D01*
X017393Y015861D01*
X017409Y015880D01*
X017428Y015896D01*
X017449Y015909D01*
X017471Y015918D01*
X017495Y015924D01*
X017520Y015926D01*
X017545Y015924D01*
X017569Y015918D01*
X017591Y015909D01*
X017612Y015896D01*
X017631Y015880D01*
X017647Y015861D01*
X017660Y015840D01*
X017669Y015818D01*
X017675Y015794D01*
X017677Y015769D01*
X017675Y015744D01*
X017669Y015720D01*
X017660Y015698D01*
X017647Y015677D01*
X017631Y015658D01*
X017612Y015642D01*
X017591Y015629D01*
X017569Y015620D01*
X017545Y015614D01*
X017520Y015612D01*
X017495Y015614D01*
X017471Y015620D01*
X017449Y015629D01*
X017428Y015642D01*
X017409Y015658D01*
X017393Y015677D01*
X017380Y015698D01*
X017371Y015720D01*
X017365Y015744D01*
X017363Y015769D01*
D11*
X017647Y017901D03*
X016647Y017901D03*
X015647Y017901D03*
X014647Y017901D03*
X013647Y017901D03*
X012647Y017901D03*
X011647Y017901D03*
X010647Y017901D03*
X009647Y017901D03*
X008647Y017901D03*
X007647Y017901D03*
X006647Y017901D03*
X006647Y018901D03*
X007647Y018901D03*
X008647Y018901D03*
X009647Y018901D03*
X010647Y018901D03*
X011647Y018901D03*
X012647Y018901D03*
X013647Y018901D03*
X014647Y018901D03*
X015647Y018901D03*
X016647Y018901D03*
X017647Y018901D03*
X018647Y018901D03*
X019647Y018901D03*
X019647Y017901D03*
X018647Y017901D03*
X001697Y006451D03*
X001697Y005451D03*
X001647Y007751D03*
X001647Y008751D03*
X001647Y009751D03*
X001647Y010751D03*
X001647Y011751D03*
X001647Y012751D03*
X001647Y013901D03*
X001647Y014901D03*
X001647Y015901D03*
X001647Y016901D03*
X001647Y017901D03*
X001647Y018901D03*
X001647Y001901D03*
X001647Y000901D03*
X002647Y000901D03*
X003647Y000901D03*
X003647Y001901D03*
X002647Y001901D03*
X006647Y001901D03*
X006647Y000901D03*
X007647Y000901D03*
X008647Y000901D03*
X009647Y000901D03*
X010647Y000901D03*
X011647Y000901D03*
X012647Y000901D03*
X013647Y000901D03*
X014647Y000901D03*
X015647Y000901D03*
X016647Y000901D03*
X017647Y000901D03*
X018647Y000901D03*
X019647Y000901D03*
X019647Y001901D03*
X018647Y001901D03*
X017647Y001901D03*
X016647Y001901D03*
X015647Y001901D03*
X014647Y001901D03*
X013647Y001901D03*
X012647Y001901D03*
X011647Y001901D03*
X010647Y001901D03*
X009647Y001901D03*
X008647Y001901D03*
X007647Y001901D03*
D12*
X012247Y006551D03*
X014147Y006551D03*
X016347Y006151D03*
X017347Y006151D03*
D13*
X009940Y007113D03*
X009153Y007113D03*
X008366Y007113D03*
X007578Y007113D03*
X006791Y007113D03*
X006003Y007113D03*
X005216Y007113D03*
X004429Y007113D03*
X003641Y007113D03*
X002854Y007113D03*
X002854Y015774D03*
X003641Y015774D03*
X004429Y015774D03*
X005216Y015774D03*
X006003Y015774D03*
X006791Y015774D03*
X007578Y015774D03*
X008366Y015774D03*
X009153Y015774D03*
X009940Y015774D03*
D14*
X005577Y005751D02*
X005017Y005751D01*
X005017Y004751D02*
X005577Y004751D01*
X005577Y003751D02*
X005017Y003751D01*
X003877Y003751D02*
X003317Y003751D01*
X003317Y004751D02*
X003877Y004751D01*
X003877Y005751D02*
X003317Y005751D01*
D15*
X006879Y003901D03*
X008415Y003901D03*
D16*
X001747Y004351D03*
X001747Y003201D03*
D17*
X012997Y003751D03*
X014297Y003751D03*
D18*
X014197Y005474D03*
X014197Y005828D03*
X012297Y005828D03*
X012297Y005474D03*
X011997Y004051D03*
X011997Y003701D03*
X011997Y003351D03*
X016347Y005174D03*
X016347Y005528D03*
X017347Y005528D03*
X017347Y005174D03*
X004297Y007774D03*
X004297Y008128D03*
D19*
X013446Y009551D03*
X014548Y009551D03*
X015446Y009551D03*
X016548Y009551D03*
X013544Y011005D03*
X018546Y004801D03*
X019648Y004801D03*
D20*
X012397Y009400D03*
X011297Y009400D03*
X010247Y009390D03*
X009197Y009400D03*
X009197Y010502D03*
X010247Y010492D03*
X011297Y010502D03*
X012397Y010502D03*
X012097Y013400D03*
X011097Y013400D03*
X010097Y013400D03*
X009097Y013400D03*
X008097Y013400D03*
X007097Y013400D03*
X007097Y014502D03*
X008097Y014502D03*
X009097Y014502D03*
X010097Y014502D03*
X011097Y014502D03*
X012097Y014502D03*
X002997Y017300D03*
X002997Y018402D03*
X010397Y004502D03*
X010397Y003400D03*
D21*
X006824Y007951D03*
X006470Y007951D03*
X005774Y007951D03*
X005420Y007951D03*
X005647Y011501D03*
X005997Y011501D03*
X006347Y011501D03*
X003997Y011501D03*
X003647Y011501D03*
X003297Y011501D03*
X018747Y003501D03*
X019097Y003501D03*
X019447Y003501D03*
D22*
X019647Y006478D03*
X019147Y006478D03*
X018647Y006478D03*
X018147Y006478D03*
X018147Y008525D03*
X018647Y008525D03*
X019147Y008525D03*
X019647Y008525D03*
D23*
X013347Y012835D03*
X013347Y013269D03*
X013347Y013702D03*
X013347Y014135D03*
X013347Y014568D03*
X013347Y015001D03*
X013347Y015434D03*
X013347Y015867D03*
X013347Y016300D03*
D24*
X013583Y016871D03*
D25*
X017461Y016930D03*
X017461Y010513D03*
D26*
X017520Y012619D03*
X017520Y015769D03*
M02*
