G75*
G70*
%OFA0B0*%
%FSLAX24Y24*%
%IPPOS*%
%LPD*%
%AMOC8*
5,1,8,0,0,1.08239X$1,22.5*
%
%ADD10C,0.0000*%
%ADD11R,0.0210X0.0030*%
%ADD12R,0.0090X0.0030*%
%ADD13R,0.0060X0.0030*%
%ADD14R,0.0030X0.0030*%
%ADD15R,0.0120X0.0030*%
%ADD16R,0.0420X0.0030*%
%ADD17R,0.0300X0.0030*%
%ADD18R,0.0240X0.0030*%
%ADD19R,0.0150X0.0030*%
%ADD20R,0.0180X0.0030*%
%ADD21R,0.0360X0.0030*%
%ADD22R,0.1020X0.0030*%
%ADD23R,0.0390X0.0030*%
%ADD24R,0.0270X0.0030*%
%ADD25R,0.0330X0.0030*%
%ADD26R,0.0480X0.0030*%
%ADD27C,0.0030*%
%ADD28C,0.0050*%
%ADD29C,0.0020*%
%ADD30R,0.0020X0.0060*%
%ADD31R,0.0020X0.0080*%
%ADD32R,0.0020X0.0100*%
%ADD33R,0.0020X0.0220*%
%ADD34R,0.0020X0.0180*%
%ADD35R,0.0020X0.0140*%
%ADD36R,0.0020X0.0160*%
%ADD37R,0.0020X0.0280*%
%ADD38R,0.0020X0.0240*%
%ADD39R,0.0020X0.0040*%
%ADD40R,0.0020X0.0120*%
%ADD41R,0.0020X0.0340*%
%ADD42R,0.0020X0.0380*%
%ADD43R,0.0020X0.0440*%
%ADD44R,0.0020X0.0540*%
%ADD45R,0.0020X0.0480*%
%ADD46R,0.0020X0.0520*%
%ADD47R,0.0020X0.0200*%
%ADD48R,0.0020X0.0600*%
%ADD49R,0.0020X0.0260*%
%ADD50R,0.0020X0.0620*%
%ADD51R,0.0020X0.0300*%
%ADD52R,0.0020X0.0360*%
%ADD53R,0.0020X0.0640*%
%ADD54R,0.0020X0.0760*%
%ADD55R,0.0020X0.0400*%
%ADD56R,0.0020X0.0780*%
%ADD57R,0.0020X0.0320*%
%ADD58R,0.0020X0.0720*%
%ADD59R,0.0020X0.0740*%
%ADD60R,0.0020X0.0420*%
%ADD61R,0.0020X0.0820*%
%ADD62R,0.0020X0.0840*%
%ADD63R,0.0020X0.0460*%
%ADD64R,0.0020X0.0560*%
%ADD65R,0.0020X0.0660*%
%ADD66R,0.0020X0.0020*%
%ADD67R,0.0020X0.0880*%
%ADD68R,0.0020X0.0900*%
%ADD69R,0.0020X0.0940*%
%ADD70R,0.0020X0.0920*%
%ADD71R,0.0020X0.0500*%
%ADD72R,0.0020X0.0580*%
%ADD73R,0.0020X0.0700*%
%ADD74R,0.0020X0.0800*%
%ADD75R,0.0020X0.0980*%
%ADD76R,0.0020X0.1060*%
%ADD77R,0.0020X0.1040*%
%ADD78R,0.0020X0.1480*%
%ADD79R,0.0020X0.1460*%
%ADD80R,0.0020X0.1120*%
%ADD81R,0.0020X0.1080*%
%ADD82R,0.0020X0.1020*%
%ADD83R,0.0020X0.0680*%
%ADD84R,0.0020X0.1360*%
%ADD85R,0.0020X0.1100*%
%ADD86R,0.0020X0.1140*%
%ADD87R,0.0020X0.1160*%
%ADD88R,0.0020X0.1000*%
%ADD89C,0.0080*%
%ADD90C,0.0040*%
%ADD91C,0.0060*%
D10*
X000897Y000806D02*
X000897Y020301D01*
X020382Y020291D01*
X020382Y000806D01*
X000897Y000806D01*
X018370Y013790D02*
X018372Y013816D01*
X018378Y013842D01*
X018388Y013867D01*
X018401Y013890D01*
X018417Y013910D01*
X018437Y013928D01*
X018459Y013943D01*
X018482Y013955D01*
X018508Y013963D01*
X018534Y013967D01*
X018560Y013967D01*
X018586Y013963D01*
X018612Y013955D01*
X018636Y013943D01*
X018657Y013928D01*
X018677Y013910D01*
X018693Y013890D01*
X018706Y013867D01*
X018716Y013842D01*
X018722Y013816D01*
X018724Y013790D01*
X018722Y013764D01*
X018716Y013738D01*
X018706Y013713D01*
X018693Y013690D01*
X018677Y013670D01*
X018657Y013652D01*
X018635Y013637D01*
X018612Y013625D01*
X018586Y013617D01*
X018560Y013613D01*
X018534Y013613D01*
X018508Y013617D01*
X018482Y013625D01*
X018458Y013637D01*
X018437Y013652D01*
X018417Y013670D01*
X018401Y013690D01*
X018388Y013713D01*
X018378Y013738D01*
X018372Y013764D01*
X018370Y013790D01*
X018370Y015522D02*
X018372Y015548D01*
X018378Y015574D01*
X018388Y015599D01*
X018401Y015622D01*
X018417Y015642D01*
X018437Y015660D01*
X018459Y015675D01*
X018482Y015687D01*
X018508Y015695D01*
X018534Y015699D01*
X018560Y015699D01*
X018586Y015695D01*
X018612Y015687D01*
X018636Y015675D01*
X018657Y015660D01*
X018677Y015642D01*
X018693Y015622D01*
X018706Y015599D01*
X018716Y015574D01*
X018722Y015548D01*
X018724Y015522D01*
X018722Y015496D01*
X018716Y015470D01*
X018706Y015445D01*
X018693Y015422D01*
X018677Y015402D01*
X018657Y015384D01*
X018635Y015369D01*
X018612Y015357D01*
X018586Y015349D01*
X018560Y015345D01*
X018534Y015345D01*
X018508Y015349D01*
X018482Y015357D01*
X018458Y015369D01*
X018437Y015384D01*
X018417Y015402D01*
X018401Y015422D01*
X018388Y015445D01*
X018378Y015470D01*
X018372Y015496D01*
X018370Y015522D01*
D11*
X005123Y011082D03*
X004703Y010572D03*
X004283Y010572D03*
X003713Y010632D03*
X003353Y010602D03*
X003353Y010572D03*
X003023Y010602D03*
X002783Y010602D03*
X003102Y009646D03*
X003792Y009256D03*
X004842Y009406D03*
D12*
X004392Y009676D03*
X004332Y009826D03*
X004302Y009856D03*
X004182Y009946D03*
X003642Y009556D03*
X003552Y009646D03*
X003402Y009676D03*
X003402Y009706D03*
X003372Y009736D03*
X003132Y009856D03*
X002982Y009766D03*
X002982Y009706D03*
X002892Y009676D03*
X002862Y009706D03*
X002952Y009466D03*
X002442Y009466D03*
X002472Y009706D03*
X002472Y009766D03*
X002453Y010662D03*
X002483Y010692D03*
X002483Y010722D03*
X002483Y010752D03*
X002483Y010782D03*
X002483Y010812D03*
X002453Y010872D03*
X002183Y010842D03*
X002183Y010692D03*
X003353Y010782D03*
X003383Y011112D03*
X003713Y010962D03*
X003953Y010782D03*
X003953Y010752D03*
X003953Y010722D03*
X004613Y010872D03*
X004793Y010722D03*
X004823Y010692D03*
X004853Y010872D03*
X005123Y010872D03*
X005123Y010842D03*
X005123Y010812D03*
X005123Y010782D03*
X005153Y011112D03*
X005453Y010722D03*
X004032Y009316D03*
X003972Y009286D03*
D13*
X003957Y009436D03*
X003957Y009466D03*
X003957Y009496D03*
X003957Y009526D03*
X003957Y009556D03*
X003987Y009676D03*
X003987Y009706D03*
X004017Y009796D03*
X004017Y009826D03*
X004017Y009856D03*
X003777Y009946D03*
X003747Y009916D03*
X003597Y009526D03*
X003567Y009466D03*
X003567Y009436D03*
X003567Y009406D03*
X003597Y009346D03*
X003627Y009316D03*
X003657Y009286D03*
X003417Y009646D03*
X002967Y009736D03*
X002907Y009646D03*
X002607Y009856D03*
X002457Y009736D03*
X004317Y009586D03*
X004527Y009556D03*
X004557Y009496D03*
X004797Y009376D03*
X004827Y009346D03*
X004887Y009316D03*
X004317Y009886D03*
X005438Y010752D03*
D14*
X004853Y010842D03*
X004392Y009946D03*
X004332Y009916D03*
X004362Y009796D03*
X004392Y009766D03*
X004392Y009736D03*
X004482Y009676D03*
X004512Y009646D03*
X004512Y009616D03*
X004512Y009586D03*
X004542Y009526D03*
X004662Y009436D03*
X004932Y009436D03*
X004932Y009466D03*
X004932Y009346D03*
X004242Y009796D03*
X004032Y009886D03*
X004002Y009766D03*
X004002Y009736D03*
X003792Y009676D03*
X003762Y009706D03*
X003732Y009766D03*
X003732Y009796D03*
X003732Y009826D03*
X003732Y009856D03*
X003732Y009886D03*
X003582Y009496D03*
X003582Y009376D03*
X004062Y009376D03*
D15*
X004047Y009346D03*
X004347Y009616D03*
X004377Y009646D03*
X004437Y009706D03*
X004857Y009496D03*
X003837Y009976D03*
X003417Y009556D03*
X003387Y009526D03*
X003327Y009496D03*
X003027Y009676D03*
X002847Y009736D03*
X002817Y009766D03*
X002877Y009556D03*
X002847Y009526D03*
X002817Y009496D03*
X002967Y009376D03*
X002457Y009376D03*
X002517Y009676D03*
X003327Y009766D03*
X003368Y010722D03*
X003368Y010752D03*
X003368Y010812D03*
X003368Y010842D03*
X003368Y010872D03*
X003398Y010932D03*
X003368Y011082D03*
X003038Y010782D03*
X003038Y010752D03*
X003038Y010722D03*
X003038Y010692D03*
X002768Y010692D03*
X002768Y010722D03*
X002768Y010752D03*
X002768Y010782D03*
X002768Y010812D03*
X002768Y010842D03*
X002768Y010872D03*
X002468Y010842D03*
X002198Y010872D03*
X002168Y010812D03*
X002168Y010782D03*
X002168Y010752D03*
X002168Y010722D03*
X002198Y010662D03*
X003698Y010692D03*
X003698Y010722D03*
X003698Y010752D03*
X003698Y010782D03*
X003698Y010812D03*
X003698Y010842D03*
X003698Y010872D03*
X003728Y010932D03*
X003968Y010902D03*
X003968Y010872D03*
X003968Y010842D03*
X003968Y010812D03*
X003938Y010692D03*
X003938Y010662D03*
X003938Y010632D03*
X003968Y010962D03*
X004298Y010962D03*
X004298Y010932D03*
X004298Y010902D03*
X004298Y010872D03*
X004298Y010842D03*
X004298Y010812D03*
X004298Y010782D03*
X004298Y010752D03*
X004298Y010722D03*
X004598Y010722D03*
X004598Y010692D03*
X004598Y010812D03*
X004598Y010842D03*
X004628Y010902D03*
X004838Y010662D03*
X005138Y010692D03*
X005138Y010722D03*
X005138Y010752D03*
X005168Y010662D03*
X005408Y010632D03*
X005438Y010662D03*
X005438Y010692D03*
X005108Y010902D03*
X005108Y010932D03*
X004298Y010992D03*
X004298Y011022D03*
X004298Y011052D03*
D16*
X005127Y009376D03*
X003087Y009436D03*
X002577Y009436D03*
D17*
X002517Y009406D03*
X003027Y009406D03*
X003867Y009616D03*
X005288Y010602D03*
D18*
X004707Y009466D03*
X003897Y009646D03*
X003957Y010006D03*
X002918Y010962D03*
D19*
X003023Y010842D03*
X003023Y010812D03*
X003023Y010662D03*
X003023Y010632D03*
X003353Y010632D03*
X003353Y010662D03*
X003353Y010692D03*
X003383Y010902D03*
X003713Y010902D03*
X003983Y010932D03*
X004313Y011082D03*
X004313Y011112D03*
X004283Y010692D03*
X004283Y010662D03*
X004283Y010632D03*
X004583Y010662D03*
X004823Y010632D03*
X004823Y010902D03*
X004733Y010962D03*
X005123Y010962D03*
X005123Y010992D03*
X005123Y011022D03*
X005183Y010632D03*
X003942Y009586D03*
X003702Y009586D03*
X003282Y009466D03*
X002592Y009646D03*
X002423Y010632D03*
X002243Y010632D03*
X002333Y010962D03*
X002753Y010662D03*
D20*
X002768Y010632D03*
X003008Y010872D03*
X003698Y010662D03*
X004298Y010602D03*
X004598Y010632D03*
X004628Y010782D03*
X005108Y011052D03*
X005288Y010572D03*
X004107Y009976D03*
X002757Y009466D03*
X002318Y010572D03*
D21*
X003147Y009796D03*
X003387Y009586D03*
X002877Y009586D03*
X004688Y010602D03*
D22*
X003087Y009616D03*
D23*
X002622Y009796D03*
X002933Y010902D03*
X002933Y010932D03*
X003773Y010602D03*
D24*
X004673Y010752D03*
X004733Y010932D03*
X003132Y009826D03*
X002622Y009826D03*
X002333Y010602D03*
D25*
X002333Y010902D03*
X003743Y010572D03*
D26*
X002888Y010572D03*
D27*
X003444Y011371D02*
X003637Y011662D01*
X003739Y011613D02*
X003739Y011516D01*
X003787Y011468D01*
X003932Y011468D01*
X003932Y011371D02*
X003932Y011662D01*
X003787Y011662D01*
X003739Y011613D01*
X003835Y011468D02*
X003739Y011371D01*
X003637Y011371D02*
X003444Y011662D01*
X003415Y012001D02*
X003512Y012001D01*
X003561Y012050D01*
X003512Y012146D02*
X003415Y012146D01*
X003367Y012098D01*
X003367Y012050D01*
X003415Y012001D01*
X003266Y012050D02*
X003218Y012001D01*
X003169Y012001D01*
X003121Y012050D01*
X003121Y012292D01*
X003169Y012292D02*
X003072Y012292D01*
X002971Y012195D02*
X002875Y012292D01*
X002875Y012001D01*
X002971Y012001D02*
X002778Y012001D01*
X002677Y012001D02*
X002483Y012001D01*
X002580Y012001D02*
X002580Y012292D01*
X002677Y012195D01*
X003367Y012243D02*
X003415Y012292D01*
X003512Y012292D01*
X003561Y012243D01*
X003561Y012195D01*
X003512Y012146D01*
X003701Y012671D02*
X003701Y012962D01*
X003605Y012962D02*
X003798Y012962D01*
X003899Y012962D02*
X003899Y012720D01*
X003948Y012671D01*
X004044Y012671D01*
X004093Y012720D01*
X004093Y012962D01*
X004194Y012913D02*
X004242Y012962D01*
X004339Y012962D01*
X004387Y012913D01*
X004387Y012720D01*
X004339Y012671D01*
X004242Y012671D01*
X004194Y012720D01*
X004194Y012913D01*
X004489Y012913D02*
X004489Y012720D01*
X004537Y012671D01*
X004682Y012671D01*
X004682Y012962D01*
X004537Y012962D01*
X004489Y012913D01*
X005697Y012962D02*
X005697Y012671D01*
X005891Y012962D01*
X005891Y012671D01*
X005991Y012671D02*
X006087Y012671D01*
X006039Y012671D02*
X006039Y012962D01*
X006087Y012962D02*
X005991Y012962D01*
X006189Y012913D02*
X006189Y012720D01*
X006237Y012671D01*
X006382Y012671D01*
X006382Y012962D01*
X006237Y012962D01*
X006189Y012913D01*
X006942Y012932D02*
X006942Y013077D01*
X006990Y013125D01*
X007039Y013125D01*
X007087Y013077D01*
X007087Y012932D01*
X007087Y012831D02*
X007039Y012782D01*
X007039Y012637D01*
X006942Y012637D02*
X007232Y012637D01*
X007232Y012782D01*
X007184Y012831D01*
X007087Y012831D01*
X007039Y012734D02*
X006942Y012831D01*
X006942Y012932D02*
X007232Y012932D01*
X007232Y013077D01*
X007184Y013125D01*
X007135Y013125D01*
X007087Y013077D01*
X006990Y013227D02*
X006942Y013227D01*
X006990Y013227D02*
X007184Y013420D01*
X007232Y013420D01*
X007232Y013227D01*
X008042Y013275D02*
X008042Y013372D01*
X008090Y013420D01*
X008139Y013420D01*
X008187Y013372D01*
X008187Y013227D01*
X008090Y013227D01*
X008042Y013275D01*
X008187Y013227D02*
X008284Y013323D01*
X008332Y013420D01*
X008284Y013125D02*
X008235Y013125D01*
X008187Y013077D01*
X008187Y012932D01*
X008187Y012831D02*
X008139Y012782D01*
X008139Y012637D01*
X008042Y012637D02*
X008332Y012637D01*
X008332Y012782D01*
X008284Y012831D01*
X008187Y012831D01*
X008139Y012734D02*
X008042Y012831D01*
X008042Y012932D02*
X008042Y013077D01*
X008090Y013125D01*
X008139Y013125D01*
X008187Y013077D01*
X008284Y013125D02*
X008332Y013077D01*
X008332Y012932D01*
X008042Y012932D01*
X007634Y012312D02*
X007682Y012263D01*
X007682Y012215D01*
X007634Y012166D01*
X007537Y012166D01*
X007489Y012118D01*
X007489Y012070D01*
X007537Y012021D01*
X007634Y012021D01*
X007682Y012070D01*
X007634Y012312D02*
X007537Y012312D01*
X007489Y012263D01*
X007291Y012312D02*
X007194Y012312D01*
X007242Y012312D02*
X007242Y012070D01*
X007291Y012021D01*
X007339Y012021D01*
X007387Y012070D01*
X007093Y012021D02*
X006899Y012021D01*
X006996Y012021D02*
X006996Y012312D01*
X007093Y012215D01*
X006798Y012263D02*
X006798Y012070D01*
X006605Y012263D01*
X006605Y012070D01*
X006653Y012021D01*
X006750Y012021D01*
X006798Y012070D01*
X006798Y012263D02*
X006750Y012312D01*
X006653Y012312D01*
X006605Y012263D01*
X006537Y011662D02*
X006489Y011613D01*
X006489Y011516D01*
X006537Y011468D01*
X006682Y011468D01*
X006682Y011371D02*
X006682Y011662D01*
X006537Y011662D01*
X006387Y011662D02*
X006194Y011371D01*
X006387Y011371D02*
X006194Y011662D01*
X006489Y011371D02*
X006585Y011468D01*
X005732Y011662D02*
X005539Y011662D01*
X005635Y011662D02*
X005635Y011371D01*
X005437Y011371D02*
X005244Y011662D01*
X005437Y011662D02*
X005244Y011371D01*
X004785Y011371D02*
X004785Y011662D01*
X004689Y011662D02*
X004882Y011662D01*
X004587Y011662D02*
X004394Y011371D01*
X004587Y011371D02*
X004394Y011662D01*
X005178Y009512D02*
X005274Y009512D01*
X005323Y009463D01*
X005323Y009415D01*
X005274Y009366D01*
X005178Y009366D01*
X005129Y009318D01*
X005129Y009270D01*
X005178Y009221D01*
X005274Y009221D01*
X005323Y009270D01*
X005521Y009221D02*
X005521Y009512D01*
X005617Y009512D02*
X005424Y009512D01*
X005178Y009512D02*
X005129Y009463D01*
X005719Y009463D02*
X005719Y009366D01*
X005767Y009318D01*
X005912Y009318D01*
X005912Y009221D02*
X005912Y009512D01*
X005767Y009512D01*
X005719Y009463D01*
X005815Y009318D02*
X005719Y009221D01*
X006460Y009412D02*
X006653Y009412D01*
X006557Y009412D02*
X006557Y009121D01*
X006755Y009121D02*
X006948Y009121D01*
X006948Y009412D01*
X006755Y009412D01*
X006851Y009266D02*
X006948Y009266D01*
X007049Y009218D02*
X007049Y009170D01*
X007098Y009121D01*
X007194Y009121D01*
X007243Y009170D01*
X007194Y009266D02*
X007243Y009315D01*
X007243Y009363D01*
X007194Y009412D01*
X007098Y009412D01*
X007049Y009363D01*
X007098Y009266D02*
X007049Y009218D01*
X007098Y009266D02*
X007194Y009266D01*
X007344Y009121D02*
X007537Y009121D01*
X007537Y009412D01*
X007344Y009412D01*
X007441Y009266D02*
X007537Y009266D01*
X007639Y009266D02*
X007687Y009218D01*
X007832Y009218D01*
X007832Y009121D02*
X007832Y009412D01*
X007687Y009412D01*
X007639Y009363D01*
X007639Y009266D01*
X007735Y009218D02*
X007639Y009121D01*
X008010Y009266D02*
X008058Y009218D01*
X008203Y009218D01*
X008203Y009121D02*
X008203Y009412D01*
X008058Y009412D01*
X008010Y009363D01*
X008010Y009266D01*
X008305Y009121D02*
X008498Y009121D01*
X008498Y009412D01*
X008305Y009412D01*
X008401Y009266D02*
X008498Y009266D01*
X008599Y009121D02*
X008793Y009121D01*
X008793Y009412D01*
X008599Y009412D01*
X008696Y009266D02*
X008793Y009266D01*
X008894Y009121D02*
X009087Y009121D01*
X009087Y009412D01*
X009189Y009363D02*
X009237Y009412D01*
X009334Y009412D01*
X009382Y009363D01*
X009382Y009315D01*
X009334Y009266D01*
X009237Y009266D01*
X009189Y009218D01*
X009189Y009170D01*
X009237Y009121D01*
X009334Y009121D01*
X009382Y009170D01*
X010683Y010251D02*
X010877Y010251D01*
X010683Y010445D01*
X010683Y010493D01*
X010732Y010542D01*
X010828Y010542D01*
X010877Y010493D01*
X011075Y010542D02*
X011075Y010251D01*
X011171Y010251D02*
X010978Y010251D01*
X011171Y010445D02*
X011075Y010542D01*
X011272Y010493D02*
X011272Y010396D01*
X011321Y010348D01*
X011466Y010348D01*
X011466Y010251D02*
X011466Y010542D01*
X011321Y010542D01*
X011272Y010493D01*
X011369Y010348D02*
X011272Y010251D01*
X011633Y010251D02*
X011827Y010251D01*
X011730Y010251D02*
X011730Y010542D01*
X011827Y010445D01*
X011928Y010251D02*
X012121Y010251D01*
X012025Y010251D02*
X012025Y010542D01*
X012121Y010445D01*
X012222Y010493D02*
X012222Y010396D01*
X012271Y010348D01*
X012416Y010348D01*
X012416Y010251D02*
X012416Y010542D01*
X012271Y010542D01*
X012222Y010493D01*
X012319Y010348D02*
X012222Y010251D01*
X012683Y010300D02*
X012732Y010251D01*
X012828Y010251D01*
X012877Y010300D01*
X012683Y010493D01*
X012683Y010300D01*
X012683Y010493D02*
X012732Y010542D01*
X012828Y010542D01*
X012877Y010493D01*
X012877Y010300D01*
X012978Y010251D02*
X013171Y010251D01*
X013075Y010251D02*
X013075Y010542D01*
X013171Y010445D01*
X013272Y010493D02*
X013272Y010396D01*
X013321Y010348D01*
X013466Y010348D01*
X013466Y010251D02*
X013466Y010542D01*
X013321Y010542D01*
X013272Y010493D01*
X013369Y010348D02*
X013272Y010251D01*
X013833Y010300D02*
X013882Y010251D01*
X013978Y010251D01*
X014027Y010300D01*
X014128Y010251D02*
X014225Y010348D01*
X014176Y010348D02*
X014321Y010348D01*
X014321Y010251D02*
X014321Y010542D01*
X014176Y010542D01*
X014128Y010493D01*
X014128Y010396D01*
X014176Y010348D01*
X014027Y010493D02*
X013978Y010542D01*
X013882Y010542D01*
X013833Y010493D01*
X013833Y010445D01*
X013882Y010396D01*
X013833Y010348D01*
X013833Y010300D01*
X013882Y010396D02*
X013930Y010396D01*
X014833Y010396D02*
X014978Y010396D01*
X015027Y010445D01*
X015027Y010493D01*
X014978Y010542D01*
X014882Y010542D01*
X014833Y010493D01*
X014833Y010300D01*
X014882Y010251D01*
X014978Y010251D01*
X015027Y010300D01*
X015128Y010251D02*
X015225Y010348D01*
X015176Y010348D02*
X015321Y010348D01*
X015321Y010251D02*
X015321Y010542D01*
X015176Y010542D01*
X015128Y010493D01*
X015128Y010396D01*
X015176Y010348D01*
X015833Y010348D02*
X015833Y010300D01*
X015882Y010251D01*
X015978Y010251D01*
X016027Y010300D01*
X016027Y010348D01*
X015978Y010396D01*
X015882Y010396D01*
X015833Y010348D01*
X015882Y010396D02*
X015833Y010445D01*
X015833Y010493D01*
X015882Y010542D01*
X015978Y010542D01*
X016027Y010493D01*
X016027Y010445D01*
X015978Y010396D01*
X016128Y010396D02*
X016176Y010348D01*
X016321Y010348D01*
X016225Y010348D02*
X016128Y010251D01*
X016128Y010396D02*
X016128Y010493D01*
X016176Y010542D01*
X016321Y010542D01*
X016321Y010251D01*
X016037Y009220D02*
X016037Y009027D01*
X016182Y009172D01*
X015892Y009172D01*
X015940Y008925D02*
X015892Y008877D01*
X015892Y008780D01*
X015940Y008732D01*
X016134Y008732D01*
X016182Y008780D01*
X016182Y008877D01*
X016134Y008925D01*
X016134Y008631D02*
X016037Y008631D01*
X015989Y008582D01*
X015989Y008437D01*
X015892Y008437D02*
X016182Y008437D01*
X016182Y008582D01*
X016134Y008631D01*
X015989Y008534D02*
X015892Y008631D01*
X015182Y008582D02*
X015182Y008437D01*
X014892Y008437D01*
X014989Y008437D02*
X014989Y008582D01*
X015037Y008631D01*
X015134Y008631D01*
X015182Y008582D01*
X015134Y008732D02*
X014940Y008732D01*
X014892Y008780D01*
X014892Y008877D01*
X014940Y008925D01*
X014940Y009027D02*
X014892Y009075D01*
X014892Y009172D01*
X014940Y009220D01*
X015037Y009220D01*
X015085Y009172D01*
X015085Y009123D01*
X015037Y009027D01*
X015182Y009027D01*
X015182Y009220D01*
X015134Y008925D02*
X015182Y008877D01*
X015182Y008780D01*
X015134Y008732D01*
X014989Y008534D02*
X014892Y008631D01*
X014182Y008582D02*
X014182Y008437D01*
X013892Y008437D01*
X013989Y008437D02*
X013989Y008582D01*
X014037Y008631D01*
X014134Y008631D01*
X014182Y008582D01*
X014134Y008732D02*
X013940Y008732D01*
X013892Y008780D01*
X013892Y008877D01*
X013940Y008925D01*
X013940Y009027D02*
X013892Y009075D01*
X013892Y009172D01*
X013940Y009220D01*
X013989Y009220D01*
X014037Y009172D01*
X014037Y009027D01*
X013940Y009027D01*
X014037Y009027D02*
X014134Y009123D01*
X014182Y009220D01*
X014134Y008925D02*
X014182Y008877D01*
X014182Y008780D01*
X014134Y008732D01*
X013989Y008534D02*
X013892Y008631D01*
X013182Y008582D02*
X013182Y008437D01*
X012892Y008437D01*
X012989Y008437D02*
X012989Y008582D01*
X013037Y008631D01*
X013134Y008631D01*
X013182Y008582D01*
X013134Y008732D02*
X012940Y008732D01*
X012892Y008780D01*
X012892Y008877D01*
X012940Y008925D01*
X012940Y009027D02*
X012892Y009027D01*
X012940Y009027D02*
X013134Y009220D01*
X013182Y009220D01*
X013182Y009027D01*
X013134Y008925D02*
X013182Y008877D01*
X013182Y008780D01*
X013134Y008732D01*
X012989Y008534D02*
X012892Y008631D01*
X012182Y008582D02*
X012182Y008437D01*
X011892Y008437D01*
X011989Y008437D02*
X011989Y008582D01*
X012037Y008631D01*
X012134Y008631D01*
X012182Y008582D01*
X012182Y008732D02*
X012182Y008877D01*
X012134Y008925D01*
X012085Y008925D01*
X012037Y008877D01*
X012037Y008732D01*
X011892Y008732D02*
X011892Y008877D01*
X011940Y008925D01*
X011989Y008925D01*
X012037Y008877D01*
X011940Y009027D02*
X012134Y009220D01*
X011940Y009220D01*
X011892Y009172D01*
X011892Y009075D01*
X011940Y009027D01*
X012134Y009027D01*
X012182Y009075D01*
X012182Y009172D01*
X012134Y009220D01*
X012182Y008732D02*
X011892Y008732D01*
X011892Y008631D02*
X011989Y008534D01*
X011182Y008582D02*
X011182Y008437D01*
X010892Y008437D01*
X010989Y008437D02*
X010989Y008582D01*
X011037Y008631D01*
X011134Y008631D01*
X011182Y008582D01*
X011182Y008732D02*
X010892Y008732D01*
X010892Y008877D01*
X010940Y008925D01*
X010989Y008925D01*
X011037Y008877D01*
X011037Y008732D01*
X011037Y008877D02*
X011085Y008925D01*
X011134Y008925D01*
X011182Y008877D01*
X011182Y008732D01*
X010989Y008534D02*
X010892Y008631D01*
X010892Y009027D02*
X010892Y009220D01*
X010892Y009123D02*
X011182Y009123D01*
X011085Y009027D01*
X012890Y006578D02*
X012842Y006529D01*
X012842Y006432D01*
X012890Y006384D01*
X012987Y006384D02*
X013035Y006481D01*
X013035Y006529D01*
X012987Y006578D01*
X012890Y006578D01*
X012987Y006384D02*
X013132Y006384D01*
X013132Y006578D01*
X013392Y006529D02*
X013440Y006578D01*
X013489Y006578D01*
X013537Y006529D01*
X013537Y006384D01*
X013440Y006384D01*
X013392Y006432D01*
X013392Y006529D01*
X013537Y006384D02*
X013634Y006481D01*
X013682Y006578D01*
X013682Y006283D02*
X013682Y006186D01*
X013682Y006235D02*
X013440Y006235D01*
X013392Y006186D01*
X013392Y006138D01*
X013440Y006089D01*
X013440Y005988D02*
X013392Y005940D01*
X013392Y005843D01*
X013440Y005795D01*
X013537Y005843D02*
X013537Y005940D01*
X013489Y005988D01*
X013440Y005988D01*
X013537Y005843D02*
X013585Y005795D01*
X013634Y005795D01*
X013682Y005843D01*
X013682Y005940D01*
X013634Y005988D01*
X013132Y005940D02*
X013132Y005843D01*
X013084Y005795D01*
X013035Y005795D01*
X012987Y005843D01*
X012987Y005940D01*
X012939Y005988D01*
X012890Y005988D01*
X012842Y005940D01*
X012842Y005843D01*
X012890Y005795D01*
X013084Y005988D02*
X013132Y005940D01*
X013132Y006186D02*
X013132Y006283D01*
X013132Y006235D02*
X012890Y006235D01*
X012842Y006186D01*
X012842Y006138D01*
X012890Y006089D01*
X012332Y005713D02*
X012332Y005665D01*
X012284Y005616D01*
X012187Y005616D01*
X012139Y005568D01*
X012139Y005520D01*
X012187Y005471D01*
X012284Y005471D01*
X012332Y005520D01*
X012332Y005713D02*
X012284Y005762D01*
X012187Y005762D01*
X012139Y005713D01*
X011941Y005762D02*
X011844Y005762D01*
X011892Y005762D02*
X011892Y005520D01*
X011941Y005471D01*
X011989Y005471D01*
X012037Y005520D01*
X011743Y005616D02*
X011549Y005616D01*
X011598Y005471D02*
X011598Y005762D01*
X011743Y005616D01*
X011625Y004592D02*
X011528Y004495D01*
X011528Y004301D01*
X011528Y004446D02*
X011721Y004446D01*
X011721Y004495D02*
X011625Y004592D01*
X011721Y004495D02*
X011721Y004301D01*
X011427Y004446D02*
X011233Y004446D01*
X011282Y004301D02*
X011282Y004592D01*
X011427Y004446D01*
X010782Y004471D02*
X010782Y004762D01*
X010637Y004762D01*
X010589Y004713D01*
X010589Y004616D01*
X010637Y004568D01*
X010782Y004568D01*
X010685Y004568D02*
X010589Y004471D01*
X010487Y004471D02*
X010294Y004471D01*
X010391Y004471D02*
X010391Y004762D01*
X010487Y004665D01*
X010193Y004665D02*
X010144Y004616D01*
X009999Y004616D01*
X009999Y004520D02*
X009999Y004713D01*
X010048Y004762D01*
X010144Y004762D01*
X010193Y004713D01*
X010193Y004665D01*
X010193Y004520D02*
X010144Y004471D01*
X010048Y004471D01*
X009999Y004520D01*
X010262Y005721D02*
X010552Y005721D01*
X010552Y005866D01*
X010504Y005915D01*
X010407Y005915D01*
X010359Y005866D01*
X010359Y005721D01*
X010359Y005818D02*
X010262Y005915D01*
X010262Y006016D02*
X010455Y006016D01*
X010552Y006113D01*
X010455Y006209D01*
X010262Y006209D01*
X010310Y006311D02*
X010262Y006359D01*
X010262Y006456D01*
X010310Y006504D01*
X010407Y006504D01*
X010455Y006456D01*
X010455Y006407D01*
X010407Y006311D01*
X010552Y006311D01*
X010552Y006504D01*
X010407Y006209D02*
X010407Y006016D01*
X007832Y004676D02*
X007709Y004553D01*
X007832Y004432D02*
X007832Y004185D01*
X007462Y004185D01*
X007647Y004185D02*
X007647Y004308D01*
X007462Y004553D02*
X007462Y004800D01*
X007462Y004676D02*
X007832Y004676D01*
X003851Y008500D02*
X003727Y008747D01*
X003606Y008809D02*
X003544Y008871D01*
X003421Y008871D01*
X003359Y008809D01*
X003359Y008747D01*
X003606Y008500D01*
X003359Y008500D01*
X003237Y008500D02*
X003176Y008500D01*
X003176Y008562D01*
X003237Y008562D01*
X003237Y008500D01*
X003053Y008562D02*
X003053Y008809D01*
X002992Y008871D01*
X002868Y008871D01*
X002806Y008809D01*
X003053Y008562D01*
X002992Y008500D01*
X002868Y008500D01*
X002806Y008562D01*
X002806Y008809D01*
X003851Y008500D02*
X003974Y008747D01*
X009042Y012637D02*
X009332Y012637D01*
X009332Y012782D01*
X009284Y012831D01*
X009187Y012831D01*
X009139Y012782D01*
X009139Y012637D01*
X009139Y012734D02*
X009042Y012831D01*
X009042Y012932D02*
X009042Y013077D01*
X009090Y013125D01*
X009139Y013125D01*
X009187Y013077D01*
X009187Y012932D01*
X009042Y012932D02*
X009332Y012932D01*
X009332Y013077D01*
X009284Y013125D01*
X009235Y013125D01*
X009187Y013077D01*
X009187Y013227D02*
X009235Y013323D01*
X009235Y013372D01*
X009187Y013420D01*
X009090Y013420D01*
X009042Y013372D01*
X009042Y013275D01*
X009090Y013227D01*
X009187Y013227D02*
X009332Y013227D01*
X009332Y013420D01*
X010042Y013372D02*
X010332Y013372D01*
X010187Y013227D01*
X010187Y013420D01*
X010139Y013125D02*
X010090Y013125D01*
X010042Y013077D01*
X010042Y012932D01*
X010332Y012932D01*
X010332Y013077D01*
X010284Y013125D01*
X010235Y013125D01*
X010187Y013077D01*
X010187Y012932D01*
X010187Y012831D02*
X010139Y012782D01*
X010139Y012637D01*
X010042Y012637D02*
X010332Y012637D01*
X010332Y012782D01*
X010284Y012831D01*
X010187Y012831D01*
X010139Y012734D02*
X010042Y012831D01*
X010187Y013077D02*
X010139Y013125D01*
X011092Y013077D02*
X011092Y012932D01*
X011382Y012932D01*
X011382Y013077D01*
X011334Y013125D01*
X011285Y013125D01*
X011237Y013077D01*
X011237Y012932D01*
X011237Y012831D02*
X011189Y012782D01*
X011189Y012637D01*
X011092Y012637D02*
X011382Y012637D01*
X011382Y012782D01*
X011334Y012831D01*
X011237Y012831D01*
X011189Y012734D02*
X011092Y012831D01*
X011092Y013077D02*
X011140Y013125D01*
X011189Y013125D01*
X011237Y013077D01*
X011140Y013227D02*
X011092Y013275D01*
X011092Y013372D01*
X011140Y013420D01*
X011189Y013420D01*
X011237Y013372D01*
X011237Y013323D01*
X011237Y013372D02*
X011285Y013420D01*
X011334Y013420D01*
X011382Y013372D01*
X011382Y013275D01*
X011334Y013227D01*
X012342Y013277D02*
X012535Y013470D01*
X012584Y013470D01*
X012632Y013422D01*
X012632Y013325D01*
X012584Y013277D01*
X012584Y013175D02*
X012535Y013175D01*
X012487Y013127D01*
X012487Y012982D01*
X012487Y012881D02*
X012439Y012832D01*
X012439Y012687D01*
X012342Y012687D02*
X012632Y012687D01*
X012632Y012832D01*
X012584Y012881D01*
X012487Y012881D01*
X012439Y012784D02*
X012342Y012881D01*
X012342Y012982D02*
X012342Y013127D01*
X012390Y013175D01*
X012439Y013175D01*
X012487Y013127D01*
X012584Y013175D02*
X012632Y013127D01*
X012632Y012982D01*
X012342Y012982D01*
X012342Y013277D02*
X012342Y013470D01*
X012289Y014471D02*
X012385Y014568D01*
X012337Y014568D02*
X012482Y014568D01*
X012482Y014471D02*
X012482Y014762D01*
X012337Y014762D01*
X012289Y014713D01*
X012289Y014616D01*
X012337Y014568D01*
X012187Y014471D02*
X011994Y014471D01*
X012091Y014471D02*
X012091Y014762D01*
X012187Y014665D01*
X011893Y014713D02*
X011844Y014762D01*
X011748Y014762D01*
X011699Y014713D01*
X011699Y014665D01*
X011748Y014616D01*
X011699Y014568D01*
X011699Y014520D01*
X011748Y014471D01*
X011844Y014471D01*
X011893Y014520D01*
X011796Y014616D02*
X011748Y014616D01*
X011482Y014568D02*
X011337Y014568D01*
X011289Y014616D01*
X011289Y014713D01*
X011337Y014762D01*
X011482Y014762D01*
X011482Y014471D01*
X011385Y014568D02*
X011289Y014471D01*
X011187Y014471D02*
X010994Y014471D01*
X011091Y014471D02*
X011091Y014762D01*
X011187Y014665D01*
X010893Y014616D02*
X010699Y014616D01*
X010748Y014471D02*
X010748Y014762D01*
X010893Y014616D01*
X010482Y014568D02*
X010337Y014568D01*
X010289Y014616D01*
X010289Y014713D01*
X010337Y014762D01*
X010482Y014762D01*
X010482Y014471D01*
X010385Y014568D02*
X010289Y014471D01*
X010187Y014471D02*
X009994Y014471D01*
X010091Y014471D02*
X010091Y014762D01*
X010187Y014665D01*
X009893Y014616D02*
X009796Y014665D01*
X009748Y014665D01*
X009699Y014616D01*
X009699Y014520D01*
X009748Y014471D01*
X009844Y014471D01*
X009893Y014520D01*
X009893Y014616D02*
X009893Y014762D01*
X009699Y014762D01*
X009482Y014762D02*
X009482Y014471D01*
X009482Y014568D02*
X009337Y014568D01*
X009289Y014616D01*
X009289Y014713D01*
X009337Y014762D01*
X009482Y014762D01*
X009385Y014568D02*
X009289Y014471D01*
X009187Y014471D02*
X008994Y014471D01*
X009091Y014471D02*
X009091Y014762D01*
X009187Y014665D01*
X008893Y014616D02*
X008893Y014520D01*
X008844Y014471D01*
X008748Y014471D01*
X008699Y014520D01*
X008699Y014568D01*
X008748Y014616D01*
X008893Y014616D01*
X008796Y014713D01*
X008699Y014762D01*
X008482Y014762D02*
X008482Y014471D01*
X008482Y014568D02*
X008337Y014568D01*
X008289Y014616D01*
X008289Y014713D01*
X008337Y014762D01*
X008482Y014762D01*
X008385Y014568D02*
X008289Y014471D01*
X008187Y014471D02*
X007994Y014471D01*
X008091Y014471D02*
X008091Y014762D01*
X008187Y014665D01*
X007893Y014762D02*
X007699Y014762D01*
X007699Y014713D01*
X007893Y014520D01*
X007893Y014471D01*
X007482Y014471D02*
X007482Y014762D01*
X007337Y014762D01*
X007289Y014713D01*
X007289Y014616D01*
X007337Y014568D01*
X007482Y014568D01*
X007385Y014568D02*
X007289Y014471D01*
X007187Y014471D02*
X006994Y014471D01*
X007091Y014471D02*
X007091Y014762D01*
X007187Y014665D01*
X006893Y014665D02*
X006893Y014713D01*
X006844Y014762D01*
X006748Y014762D01*
X006699Y014713D01*
X006699Y014665D01*
X006748Y014616D01*
X006844Y014616D01*
X006893Y014665D01*
X006844Y014616D02*
X006893Y014568D01*
X006893Y014520D01*
X006844Y014471D01*
X006748Y014471D01*
X006699Y014520D01*
X006699Y014568D01*
X006748Y014616D01*
X003382Y018371D02*
X003382Y018662D01*
X003237Y018662D01*
X003189Y018613D01*
X003189Y018516D01*
X003237Y018468D01*
X003382Y018468D01*
X003285Y018468D02*
X003189Y018371D01*
X003087Y018371D02*
X002894Y018565D01*
X002894Y018613D01*
X002942Y018662D01*
X003039Y018662D01*
X003087Y018613D01*
X003087Y018371D02*
X002894Y018371D01*
X002793Y018420D02*
X002599Y018613D01*
X002599Y018420D01*
X002648Y018371D01*
X002744Y018371D01*
X002793Y018420D01*
X002793Y018613D01*
X002744Y018662D01*
X002648Y018662D01*
X002599Y018613D01*
X015542Y006229D02*
X015542Y006132D01*
X015590Y006084D01*
X015639Y006084D01*
X015687Y006132D01*
X015687Y006229D01*
X015639Y006278D01*
X015590Y006278D01*
X015542Y006229D01*
X015687Y006229D02*
X015735Y006278D01*
X015784Y006278D01*
X015832Y006229D01*
X015832Y006132D01*
X015784Y006084D01*
X015735Y006084D01*
X015687Y006132D01*
X015832Y005983D02*
X015832Y005886D01*
X015832Y005935D02*
X015590Y005935D01*
X015542Y005886D01*
X015542Y005838D01*
X015590Y005789D01*
X015590Y005688D02*
X015542Y005640D01*
X015542Y005543D01*
X015590Y005495D01*
X015687Y005543D02*
X015687Y005640D01*
X015639Y005688D01*
X015590Y005688D01*
X015687Y005543D02*
X015735Y005495D01*
X015784Y005495D01*
X015832Y005543D01*
X015832Y005640D01*
X015784Y005688D01*
X013926Y004831D02*
X013556Y004831D01*
X013556Y004708D02*
X013556Y004955D01*
X013803Y004708D02*
X013926Y004831D01*
X013926Y004463D02*
X013556Y004463D01*
X013556Y004340D02*
X013556Y004586D01*
X013803Y004340D02*
X013926Y004463D01*
X013864Y004218D02*
X013926Y004156D01*
X013926Y004033D01*
X013864Y003971D01*
X013617Y003971D01*
X013556Y004033D01*
X013556Y004156D01*
X013617Y004218D01*
X017892Y005543D02*
X017940Y005495D01*
X017892Y005543D02*
X017892Y005640D01*
X017940Y005688D01*
X017989Y005688D01*
X018037Y005640D01*
X018037Y005543D01*
X018085Y005495D01*
X018134Y005495D01*
X018182Y005543D01*
X018182Y005640D01*
X018134Y005688D01*
X018182Y005886D02*
X018182Y005983D01*
X018182Y005935D02*
X017940Y005935D01*
X017892Y005886D01*
X017892Y005838D01*
X017940Y005789D01*
X017940Y006084D02*
X017892Y006132D01*
X017892Y006229D01*
X017940Y006278D01*
X018134Y006278D01*
X018182Y006229D01*
X018182Y006132D01*
X018134Y006084D01*
X018085Y006084D01*
X018037Y006132D01*
X018037Y006278D01*
X018402Y006329D02*
X018772Y006329D01*
X018649Y006206D01*
X018587Y006084D02*
X018587Y005837D01*
X018587Y005716D02*
X018587Y005469D01*
X018772Y005654D01*
X018402Y005654D01*
X018464Y005348D02*
X018402Y005286D01*
X018402Y005162D01*
X018464Y005101D01*
X018711Y005348D01*
X018464Y005348D01*
X018464Y005101D02*
X018711Y005101D01*
X018772Y005162D01*
X018772Y005286D01*
X018711Y005348D01*
X019063Y005362D02*
X019063Y005486D01*
X019063Y005424D02*
X019310Y005424D01*
X019310Y005362D01*
X019310Y005240D02*
X019310Y005117D01*
X019372Y005178D02*
X019125Y005178D01*
X019063Y005240D01*
X019125Y004995D02*
X019063Y004934D01*
X019063Y004748D01*
X019063Y004627D02*
X019063Y004442D01*
X019125Y004380D01*
X019186Y004442D01*
X019186Y004627D01*
X019248Y004627D02*
X019063Y004627D01*
X019248Y004627D02*
X019310Y004565D01*
X019310Y004442D01*
X019248Y004259D02*
X019310Y004197D01*
X019310Y004012D01*
X019433Y004012D02*
X019063Y004012D01*
X019063Y004197D01*
X019125Y004259D01*
X019248Y004259D01*
X019248Y003890D02*
X019186Y003890D01*
X019186Y003644D01*
X019125Y003644D02*
X019248Y003644D01*
X019310Y003705D01*
X019310Y003829D01*
X019248Y003890D01*
X019063Y003829D02*
X019063Y003705D01*
X019125Y003644D01*
X019125Y003522D02*
X019063Y003460D01*
X019063Y003337D01*
X019125Y003275D01*
X019248Y003337D02*
X019248Y003460D01*
X019186Y003522D01*
X019125Y003522D01*
X019248Y003337D02*
X019310Y003275D01*
X019372Y003275D01*
X019433Y003337D01*
X019433Y003460D01*
X019372Y003522D01*
X019735Y003420D02*
X019735Y003358D01*
X019797Y003296D01*
X019735Y003420D02*
X019797Y003481D01*
X020105Y003481D01*
X020105Y003420D02*
X020105Y003543D01*
X019982Y003726D02*
X019982Y003850D01*
X019920Y003911D01*
X019735Y003911D01*
X019735Y003726D01*
X019797Y003665D01*
X019858Y003726D01*
X019858Y003911D01*
X019735Y004033D02*
X019735Y004156D01*
X019735Y004095D02*
X020105Y004095D01*
X020105Y004033D01*
X019982Y004278D02*
X019797Y004278D01*
X019735Y004340D01*
X019735Y004525D01*
X019982Y004525D01*
X019982Y004647D02*
X019982Y004708D01*
X019735Y004708D01*
X019735Y004647D02*
X019735Y004770D01*
X019735Y004892D02*
X019982Y004892D01*
X019982Y005077D01*
X019920Y005139D01*
X019735Y005139D01*
X019797Y005261D02*
X019735Y005322D01*
X019735Y005446D01*
X019797Y005507D01*
X019920Y005507D01*
X019982Y005446D01*
X019982Y005322D01*
X019920Y005261D01*
X019797Y005261D01*
X019495Y005424D02*
X019433Y005424D01*
X019248Y005608D02*
X019310Y005669D01*
X019310Y005793D01*
X019248Y005855D01*
X019186Y005855D01*
X019186Y005608D01*
X019125Y005608D02*
X019248Y005608D01*
X019125Y005608D02*
X019063Y005669D01*
X019063Y005793D01*
X019063Y005976D02*
X019310Y005976D01*
X019310Y006161D01*
X019248Y006223D01*
X019063Y006223D01*
X019063Y006713D02*
X019063Y006960D01*
X019125Y007081D02*
X019063Y007143D01*
X019063Y007266D01*
X019186Y007328D02*
X019186Y007081D01*
X019125Y007081D02*
X019248Y007081D01*
X019310Y007143D01*
X019310Y007266D01*
X019248Y007328D01*
X019186Y007328D01*
X019063Y007449D02*
X019063Y007573D01*
X019063Y007511D02*
X019433Y007511D01*
X019433Y007449D01*
X019612Y007409D02*
X019982Y007409D01*
X019982Y007594D01*
X019920Y007656D01*
X019797Y007656D01*
X019735Y007594D01*
X019735Y007409D01*
X019735Y007288D02*
X019982Y007288D01*
X019982Y007041D02*
X019797Y007041D01*
X019735Y007102D01*
X019735Y007288D01*
X019797Y006919D02*
X019735Y006858D01*
X019735Y006734D01*
X019797Y006672D01*
X019920Y006672D01*
X019982Y006734D01*
X019982Y006858D01*
X019920Y006919D01*
X019797Y006919D01*
X019982Y006551D02*
X019982Y006489D01*
X019858Y006365D01*
X019735Y006365D02*
X019982Y006365D01*
X019982Y006244D02*
X019982Y006059D01*
X019920Y005997D01*
X019797Y005997D01*
X019735Y006059D01*
X019735Y006244D01*
X019673Y006244D02*
X019982Y006244D01*
X019673Y006244D02*
X019612Y006182D01*
X019612Y006121D01*
X019433Y006713D02*
X019063Y006713D01*
X018772Y006759D02*
X018587Y006574D01*
X018587Y006821D01*
X018402Y006759D02*
X018772Y006759D01*
X018402Y006453D02*
X018402Y006206D01*
X018587Y004979D02*
X018587Y004732D01*
X018402Y004611D02*
X018402Y004364D01*
X018402Y004243D02*
X018402Y003996D01*
X018402Y004119D02*
X018772Y004119D01*
X018649Y003996D01*
X018711Y003874D02*
X018464Y003628D01*
X018402Y003689D01*
X018402Y003813D01*
X018464Y003874D01*
X018711Y003874D01*
X018772Y003813D01*
X018772Y003689D01*
X018711Y003628D01*
X018464Y003628D01*
X018402Y003506D02*
X018402Y003259D01*
X018649Y003506D01*
X018711Y003506D01*
X018772Y003444D01*
X018772Y003321D01*
X018711Y003259D01*
X018649Y004364D02*
X018772Y004488D01*
X018402Y004488D01*
X019186Y004810D02*
X019248Y004748D01*
X019310Y004810D01*
X019310Y004995D01*
X019186Y004934D02*
X019186Y004810D01*
X019186Y004934D02*
X019125Y004995D01*
X020105Y004708D02*
X020167Y004708D01*
X019248Y007695D02*
X019125Y007695D01*
X019063Y007756D01*
X019063Y007880D01*
X019125Y007942D01*
X019248Y007942D01*
X019310Y007880D01*
X019310Y007756D01*
X019248Y007695D01*
X019310Y008063D02*
X019063Y008063D01*
X019310Y008063D02*
X019310Y008248D01*
X019248Y008310D01*
X019063Y008310D01*
X019125Y008431D02*
X019063Y008493D01*
X019063Y008678D01*
X019001Y008678D02*
X019310Y008678D01*
X019310Y008493D01*
X019248Y008431D01*
X019125Y008431D01*
X018940Y008555D02*
X018940Y008617D01*
X019001Y008678D01*
D28*
X012204Y017041D02*
X012204Y017652D01*
X012102Y017448D02*
X011899Y017448D01*
X011797Y017347D01*
X011797Y017041D01*
X011495Y017143D02*
X011393Y017041D01*
X011495Y017143D02*
X011495Y017550D01*
X011596Y017448D02*
X011393Y017448D01*
X011191Y017448D02*
X010988Y017448D01*
X011089Y017550D02*
X011089Y017143D01*
X010988Y017041D01*
X010786Y017041D02*
X010481Y017041D01*
X010379Y017143D01*
X010379Y017347D01*
X010481Y017448D01*
X010786Y017448D01*
X010786Y016838D01*
X010178Y017041D02*
X010178Y017143D01*
X010077Y017143D01*
X010077Y017041D01*
X010178Y017041D01*
X009874Y017041D02*
X009467Y017652D01*
X008860Y017652D02*
X009267Y017041D01*
X008659Y016838D02*
X008557Y016838D01*
X008456Y016940D01*
X008456Y017448D01*
X008456Y017652D02*
X008456Y017754D01*
X008152Y017448D02*
X007949Y017448D01*
X007847Y017347D01*
X007847Y017041D01*
X008152Y017041D01*
X008254Y017143D01*
X008152Y017245D01*
X007847Y017245D01*
X007646Y017041D02*
X007443Y017041D01*
X007544Y017041D02*
X007544Y017652D01*
X007646Y017652D01*
X007241Y017448D02*
X007241Y017143D01*
X007139Y017041D01*
X006834Y017041D01*
X006834Y017448D01*
X006633Y017448D02*
X006532Y017448D01*
X006532Y017041D01*
X006633Y017041D02*
X006430Y017041D01*
X006228Y017041D02*
X006228Y017448D01*
X005923Y017448D01*
X005821Y017347D01*
X005821Y017041D01*
X005621Y017143D02*
X005519Y017041D01*
X005315Y017041D01*
X005214Y017143D01*
X005214Y017347D01*
X005315Y017448D01*
X005519Y017448D01*
X005621Y017347D01*
X005621Y017143D01*
X005013Y017143D02*
X005013Y017041D01*
X004911Y017041D01*
X004911Y017143D01*
X005013Y017143D01*
X004709Y017143D02*
X004709Y017347D01*
X004607Y017448D01*
X004404Y017448D01*
X004302Y017347D01*
X004302Y017143D01*
X004404Y017041D01*
X004607Y017041D01*
X004709Y017143D01*
X004101Y017041D02*
X004101Y017448D01*
X004101Y017245D02*
X003898Y017448D01*
X003796Y017448D01*
X003595Y017347D02*
X003595Y017143D01*
X003493Y017041D01*
X003188Y017041D01*
X003188Y016940D02*
X003188Y017448D01*
X003493Y017448D01*
X003595Y017347D01*
X003188Y016940D02*
X003290Y016838D01*
X003391Y016838D01*
X006532Y017652D02*
X006532Y017754D01*
X010077Y017448D02*
X010077Y017347D01*
X010178Y017347D01*
X010178Y017448D01*
X010077Y017448D01*
X012102Y017448D02*
X012204Y017347D01*
D29*
X006247Y009112D02*
X006027Y009112D01*
X006137Y009149D02*
X006137Y009002D01*
X006247Y009112D01*
X006027Y008928D02*
X006027Y008781D01*
X006027Y008854D02*
X006247Y008854D01*
X006174Y008781D01*
X006247Y008707D02*
X006247Y008633D01*
X006247Y008670D02*
X006064Y008670D01*
X006027Y008633D01*
X006027Y008596D01*
X006064Y008560D01*
X006064Y008486D02*
X006027Y008449D01*
X006027Y008376D01*
X006064Y008339D01*
X006137Y008376D02*
X006137Y008449D01*
X006100Y008486D01*
X006064Y008486D01*
X006137Y008376D02*
X006174Y008339D01*
X006210Y008339D01*
X006247Y008376D01*
X006247Y008449D01*
X006210Y008486D01*
X006467Y008532D02*
X006467Y008679D01*
X006467Y008753D02*
X006614Y008900D01*
X006650Y008900D01*
X006687Y008863D01*
X006687Y008789D01*
X006650Y008753D01*
X006687Y008605D02*
X006467Y008605D01*
X006467Y008753D02*
X006467Y008900D01*
X006687Y008605D02*
X006614Y008532D01*
X006687Y008458D02*
X006687Y008384D01*
X006687Y008421D02*
X006504Y008421D01*
X006467Y008384D01*
X006467Y008348D01*
X006504Y008311D01*
X006504Y008237D02*
X006467Y008200D01*
X006467Y008127D01*
X006504Y008090D01*
X006577Y008127D02*
X006577Y008200D01*
X006540Y008237D01*
X006504Y008237D01*
X006577Y008127D02*
X006614Y008090D01*
X006650Y008090D01*
X006687Y008127D01*
X006687Y008200D01*
X006650Y008237D01*
X008917Y008200D02*
X008917Y008127D01*
X008954Y008090D01*
X009027Y008127D02*
X009027Y008200D01*
X008990Y008237D01*
X008954Y008237D01*
X008917Y008200D01*
X008954Y008311D02*
X008917Y008348D01*
X008917Y008384D01*
X008954Y008421D01*
X009137Y008421D01*
X009137Y008384D02*
X009137Y008458D01*
X009064Y008532D02*
X009137Y008605D01*
X008917Y008605D01*
X008917Y008532D02*
X008917Y008679D01*
X008954Y008753D02*
X008917Y008789D01*
X008917Y008863D01*
X008954Y008900D01*
X008990Y008900D01*
X009027Y008863D01*
X009027Y008826D01*
X009027Y008863D02*
X009064Y008900D01*
X009100Y008900D01*
X009137Y008863D01*
X009137Y008789D01*
X009100Y008753D01*
X009100Y008237D02*
X009137Y008200D01*
X009137Y008127D01*
X009100Y008090D01*
X009064Y008090D01*
X009027Y008127D01*
X012093Y007313D02*
X012203Y007313D01*
X012240Y007276D01*
X012203Y007240D01*
X012130Y007240D01*
X012093Y007203D01*
X012130Y007166D01*
X012240Y007166D01*
X012314Y007166D02*
X012314Y007276D01*
X012351Y007313D01*
X012461Y007313D01*
X012461Y007166D01*
X012535Y007166D02*
X012608Y007166D01*
X012572Y007166D02*
X012572Y007313D01*
X012608Y007313D01*
X012572Y007386D02*
X012572Y007423D01*
X012595Y007516D02*
X012632Y007553D01*
X012632Y007626D01*
X012595Y007663D01*
X012522Y007663D01*
X012485Y007626D01*
X012485Y007590D01*
X012632Y007590D01*
X012595Y007516D02*
X012522Y007516D01*
X012706Y007553D02*
X012743Y007590D01*
X012816Y007590D01*
X012853Y007626D01*
X012816Y007663D01*
X012706Y007663D01*
X012706Y007553D02*
X012743Y007516D01*
X012853Y007516D01*
X012927Y007553D02*
X012927Y007626D01*
X012964Y007663D01*
X013037Y007663D01*
X013074Y007626D01*
X013074Y007553D01*
X013037Y007516D01*
X012964Y007516D01*
X012927Y007553D01*
X013148Y007553D02*
X013148Y007626D01*
X013185Y007663D01*
X013295Y007663D01*
X013295Y007443D01*
X013295Y007516D02*
X013185Y007516D01*
X013148Y007553D01*
X013161Y007386D02*
X013161Y007166D01*
X013198Y007166D02*
X013124Y007166D01*
X013272Y007166D02*
X013272Y007276D01*
X013309Y007313D01*
X013382Y007313D01*
X013382Y007240D02*
X013272Y007240D01*
X013272Y007166D02*
X013382Y007166D01*
X013419Y007203D01*
X013382Y007240D01*
X013493Y007313D02*
X013566Y007313D01*
X013529Y007350D02*
X013529Y007203D01*
X013493Y007166D01*
X013640Y007166D02*
X013787Y007386D01*
X013737Y007516D02*
X013590Y007516D01*
X013516Y007516D02*
X013369Y007663D01*
X013516Y007663D02*
X013369Y007516D01*
X013198Y007386D02*
X013161Y007386D01*
X012829Y007313D02*
X012829Y007093D01*
X012829Y007166D02*
X012719Y007166D01*
X012683Y007203D01*
X012683Y007276D01*
X012719Y007313D01*
X012829Y007313D01*
X013590Y007736D02*
X013737Y007736D01*
X013737Y007516D01*
X013737Y007626D02*
X013664Y007626D01*
X013640Y007386D02*
X013787Y007166D01*
X012587Y005286D02*
X012587Y005140D01*
X012514Y005066D01*
X012440Y005140D01*
X012440Y005286D01*
X012366Y005176D02*
X012329Y005213D01*
X012219Y005213D01*
X012219Y005286D02*
X012219Y005066D01*
X012329Y005066D01*
X012366Y005103D01*
X012366Y005176D01*
X012145Y005176D02*
X012108Y005213D01*
X011998Y005213D01*
X011998Y005286D02*
X011998Y005066D01*
X012108Y005066D01*
X012145Y005103D01*
X012145Y005176D01*
X011924Y005176D02*
X011924Y005103D01*
X011887Y005066D01*
X011777Y005066D01*
X011703Y005103D02*
X011666Y005066D01*
X011593Y005066D01*
X011556Y005103D01*
X011556Y005176D01*
X011593Y005213D01*
X011666Y005213D01*
X011703Y005176D01*
X011703Y005103D01*
X011777Y005213D02*
X011887Y005213D01*
X011924Y005176D01*
X011482Y005140D02*
X011409Y005213D01*
X011372Y005213D01*
X011298Y005176D02*
X011261Y005213D01*
X011188Y005213D01*
X011151Y005176D01*
X011151Y005140D01*
X011298Y005140D01*
X011298Y005176D02*
X011298Y005103D01*
X011261Y005066D01*
X011188Y005066D01*
X011482Y005066D02*
X011482Y005213D01*
X011214Y003686D02*
X011214Y003466D01*
X011324Y003466D01*
X011361Y003503D01*
X011361Y003576D01*
X011324Y003613D01*
X011214Y003613D01*
X011435Y003576D02*
X011435Y003540D01*
X011582Y003540D01*
X011582Y003576D02*
X011545Y003613D01*
X011472Y003613D01*
X011435Y003576D01*
X011472Y003466D02*
X011545Y003466D01*
X011582Y003503D01*
X011582Y003576D01*
X011656Y003613D02*
X011766Y003613D01*
X011803Y003576D01*
X011766Y003540D01*
X011693Y003540D01*
X011656Y003503D01*
X011693Y003466D01*
X011803Y003466D01*
X011877Y003503D02*
X011877Y003576D01*
X011914Y003613D01*
X011987Y003613D01*
X012024Y003576D01*
X012024Y003503D01*
X011987Y003466D01*
X011914Y003466D01*
X011877Y003503D01*
X012098Y003503D02*
X012135Y003466D01*
X012245Y003466D01*
X012245Y003393D02*
X012245Y003613D01*
X012135Y003613D01*
X012098Y003576D01*
X012098Y003503D01*
X012319Y003466D02*
X012466Y003613D01*
X012540Y003686D02*
X012687Y003686D01*
X012687Y003466D01*
X012540Y003466D01*
X012466Y003466D02*
X012319Y003613D01*
X012614Y003576D02*
X012687Y003576D01*
X015730Y007166D02*
X015693Y007203D01*
X015730Y007240D01*
X015803Y007240D01*
X015840Y007276D01*
X015803Y007313D01*
X015693Y007313D01*
X015730Y007166D02*
X015840Y007166D01*
X015914Y007166D02*
X015914Y007276D01*
X015951Y007313D01*
X016061Y007313D01*
X016061Y007166D01*
X016135Y007166D02*
X016208Y007166D01*
X016172Y007166D02*
X016172Y007313D01*
X016208Y007313D01*
X016172Y007386D02*
X016172Y007423D01*
X016195Y007516D02*
X016232Y007553D01*
X016232Y007626D01*
X016195Y007663D01*
X016122Y007663D01*
X016085Y007626D01*
X016085Y007590D01*
X016232Y007590D01*
X016195Y007516D02*
X016122Y007516D01*
X016306Y007553D02*
X016343Y007590D01*
X016416Y007590D01*
X016453Y007626D01*
X016416Y007663D01*
X016306Y007663D01*
X016306Y007553D02*
X016343Y007516D01*
X016453Y007516D01*
X016527Y007553D02*
X016527Y007626D01*
X016564Y007663D01*
X016637Y007663D01*
X016674Y007626D01*
X016674Y007553D01*
X016637Y007516D01*
X016564Y007516D01*
X016527Y007553D01*
X016748Y007553D02*
X016748Y007626D01*
X016785Y007663D01*
X016895Y007663D01*
X016895Y007443D01*
X016895Y007516D02*
X016785Y007516D01*
X016748Y007553D01*
X016761Y007386D02*
X016761Y007166D01*
X016798Y007166D02*
X016724Y007166D01*
X016872Y007166D02*
X016872Y007276D01*
X016909Y007313D01*
X016982Y007313D01*
X016982Y007240D02*
X016872Y007240D01*
X016872Y007166D02*
X016982Y007166D01*
X017019Y007203D01*
X016982Y007240D01*
X017093Y007313D02*
X017166Y007313D01*
X017129Y007350D02*
X017129Y007203D01*
X017093Y007166D01*
X017240Y007166D02*
X017387Y007386D01*
X017337Y007516D02*
X017190Y007516D01*
X017116Y007516D02*
X016969Y007663D01*
X017116Y007663D02*
X016969Y007516D01*
X016798Y007386D02*
X016761Y007386D01*
X016429Y007313D02*
X016429Y007093D01*
X016429Y007166D02*
X016319Y007166D01*
X016283Y007203D01*
X016283Y007276D01*
X016319Y007313D01*
X016429Y007313D01*
X017190Y007736D02*
X017337Y007736D01*
X017337Y007516D01*
X017337Y007626D02*
X017264Y007626D01*
X017240Y007386D02*
X017387Y007166D01*
D30*
X005917Y006086D03*
X005697Y005926D03*
X005657Y005906D03*
X005617Y005886D03*
X004997Y006386D03*
X004977Y006386D03*
X004917Y006386D03*
X004897Y006386D03*
X004777Y006386D03*
X004537Y006246D03*
X004517Y006246D03*
X004497Y006626D03*
X004517Y006646D03*
X004577Y006746D03*
X004597Y006766D03*
X004617Y006806D03*
X004637Y006846D03*
X004657Y006866D03*
X004677Y006906D03*
X004777Y006786D03*
X004797Y006806D03*
X004737Y006726D03*
X004697Y006666D03*
X004917Y006906D03*
X004937Y006906D03*
X004857Y007186D03*
X004877Y007226D03*
X004957Y007326D03*
X004757Y007546D03*
X004777Y007566D03*
X004797Y007586D03*
X004817Y007606D03*
X004697Y007506D03*
X004677Y007486D03*
X004657Y007466D03*
X004937Y007706D03*
X004957Y007726D03*
X005017Y007766D03*
X005057Y007786D03*
X005117Y007826D03*
X005137Y007826D03*
X005157Y007846D03*
X005197Y007866D03*
X005297Y007886D03*
X003957Y006786D03*
X003937Y006786D03*
X003917Y006786D03*
X003857Y006766D03*
X003817Y006746D03*
X003817Y006286D03*
X003837Y006266D03*
X003857Y006246D03*
X003877Y006226D03*
X003957Y006106D03*
X004057Y006246D03*
X004037Y006266D03*
X004077Y005826D03*
X003937Y005786D03*
X003797Y005606D03*
X003817Y005586D03*
X003837Y005566D03*
X003857Y005546D03*
X003877Y005526D03*
X003917Y005506D03*
X003937Y005486D03*
X004297Y005346D03*
X004537Y005546D03*
X004557Y005606D03*
X004557Y005726D03*
X004737Y005106D03*
X004837Y004966D03*
X005377Y004646D03*
X005397Y004646D03*
X004797Y004266D03*
X004757Y004226D03*
X004737Y004226D03*
X004697Y004166D03*
X004797Y004066D03*
X004097Y003846D03*
X004037Y003746D03*
X003997Y003686D03*
X003977Y003646D03*
X003957Y003606D03*
X004157Y003526D03*
X004177Y003246D03*
X004117Y003206D03*
X004097Y003206D03*
X003877Y003206D03*
X003797Y003266D03*
X003777Y003246D03*
X003737Y003186D03*
X003837Y003106D03*
X003917Y003006D03*
X003897Y002866D03*
X004037Y002586D03*
X004017Y002566D03*
X003997Y002546D03*
X003957Y002526D03*
X003937Y002526D03*
X003897Y002506D03*
X003877Y002506D03*
X003857Y002506D03*
X003837Y002526D03*
X003817Y002526D03*
X004377Y003026D03*
X004357Y003186D03*
X004697Y003006D03*
X004717Y002986D03*
X004757Y002966D03*
X004777Y002946D03*
X004797Y002946D03*
X005017Y002586D03*
X005037Y002566D03*
X005057Y002546D03*
X004737Y002346D03*
X004757Y002306D03*
X004697Y002406D03*
X004657Y002466D03*
X004497Y002646D03*
X004517Y001946D03*
X004577Y001906D03*
X004597Y001886D03*
X004617Y001866D03*
X004637Y001846D03*
X004657Y001826D03*
X004677Y001826D03*
X004697Y001806D03*
X004717Y001786D03*
X004737Y001766D03*
X004797Y001726D03*
X004817Y001706D03*
X004857Y001686D03*
X004877Y001666D03*
X004977Y001606D03*
X004997Y001586D03*
X005017Y001586D03*
X005037Y001566D03*
X005057Y001546D03*
X005077Y001546D03*
X005097Y001526D03*
X005117Y001526D03*
X005137Y001506D03*
X005157Y001506D03*
X005177Y001506D03*
X005197Y001506D03*
X005217Y001506D03*
X005237Y001506D03*
X005257Y001526D03*
X005637Y003366D03*
X004197Y004626D03*
X003937Y004526D03*
X003837Y004406D03*
X003597Y004066D03*
X003377Y004226D03*
X003357Y004426D03*
X003317Y004566D03*
X003317Y004646D03*
X003317Y004746D03*
X002917Y004906D03*
X002657Y005246D03*
X003057Y005366D03*
X003077Y005386D03*
X003097Y005386D03*
X003117Y005386D03*
X003377Y005226D03*
X003257Y006306D03*
X003037Y006346D03*
X001857Y005726D03*
X002297Y004566D03*
X002677Y004026D03*
X003037Y003966D03*
X003057Y003966D03*
X003817Y003306D03*
X003277Y003086D03*
X003237Y003066D03*
X003217Y003066D03*
X003077Y003046D03*
X002977Y003046D03*
X001957Y003466D03*
X001757Y003426D03*
X001737Y003426D03*
X001717Y003426D03*
X001697Y003426D03*
X001737Y003606D03*
X001757Y003606D03*
D31*
X001777Y003596D03*
X001777Y003436D03*
X001797Y003436D03*
X001917Y003476D03*
X001937Y003476D03*
X001977Y003456D03*
X001997Y003456D03*
X002017Y003456D03*
X002317Y004156D03*
X002297Y004176D03*
X002277Y005056D03*
X002977Y004976D03*
X002977Y005376D03*
X003597Y005276D03*
X003617Y005276D03*
X003957Y005476D03*
X003977Y005456D03*
X003997Y005436D03*
X003777Y005636D03*
X004097Y005776D03*
X004057Y005856D03*
X004157Y006076D03*
X004117Y006136D03*
X003917Y006156D03*
X004037Y006716D03*
X004017Y006736D03*
X003997Y006756D03*
X003977Y006776D03*
X003797Y006736D03*
X003777Y006716D03*
X003317Y006256D03*
X003297Y006276D03*
X003277Y006296D03*
X003237Y006316D03*
X003097Y006336D03*
X003077Y006336D03*
X003057Y006336D03*
X003097Y006496D03*
X002177Y005916D03*
X002157Y005916D03*
X002137Y005916D03*
X002117Y005916D03*
X002097Y005916D03*
X002077Y005916D03*
X002057Y005896D03*
X001797Y005876D03*
X003337Y004416D03*
X003617Y004516D03*
X003637Y004096D03*
X003617Y004076D03*
X003617Y003916D03*
X003777Y003636D03*
X003757Y003616D03*
X003737Y003596D03*
X003977Y003836D03*
X003997Y003856D03*
X004017Y003876D03*
X004037Y003896D03*
X004057Y003916D03*
X004077Y003936D03*
X004097Y003956D03*
X003937Y004216D03*
X004597Y004136D03*
X004677Y003956D03*
X004857Y004296D03*
X004837Y004316D03*
X004097Y004876D03*
X004077Y004876D03*
X004357Y005136D03*
X004557Y005356D03*
X004497Y006276D03*
X004817Y006376D03*
X004677Y006636D03*
X004717Y006696D03*
X004757Y006756D03*
X004477Y006616D03*
X004457Y006596D03*
X004537Y007356D03*
X004557Y007376D03*
X004577Y007396D03*
X004597Y007416D03*
X004617Y007436D03*
X004637Y007456D03*
X004717Y007516D03*
X004737Y007536D03*
X004837Y007616D03*
X004857Y007636D03*
X004877Y007656D03*
X004897Y007676D03*
X004917Y007696D03*
X004977Y007736D03*
X004997Y007756D03*
X005037Y007776D03*
X005077Y007796D03*
X005097Y007816D03*
X005317Y007876D03*
X005337Y007876D03*
X005117Y006956D03*
X005857Y006076D03*
X005837Y006056D03*
X005897Y006096D03*
X005677Y005916D03*
X005637Y005896D03*
X005597Y005876D03*
X005617Y003376D03*
X005657Y003356D03*
X005677Y003336D03*
X005917Y003116D03*
X005077Y002516D03*
X004797Y002516D03*
X004717Y002376D03*
X004777Y002256D03*
X004497Y001976D03*
X004477Y001996D03*
X004457Y002016D03*
X004537Y001936D03*
X004557Y001916D03*
X004757Y001756D03*
X004777Y001736D03*
X004837Y001696D03*
X004897Y001656D03*
X004917Y001636D03*
X005277Y001536D03*
X005297Y001556D03*
X004477Y002676D03*
X004057Y002616D03*
X003797Y002536D03*
X003777Y002556D03*
X003757Y002576D03*
X003357Y003116D03*
X003337Y003116D03*
X003317Y003096D03*
X003297Y003096D03*
X003257Y003076D03*
X003057Y003056D03*
X003037Y003056D03*
X003017Y003056D03*
X002997Y003056D03*
X003077Y002916D03*
X003757Y003196D03*
X003897Y003236D03*
X004157Y003256D03*
D32*
X004137Y003246D03*
X003917Y003246D03*
X003837Y003326D03*
X003857Y003146D03*
X003937Y003566D03*
X004057Y003526D03*
X004077Y003586D03*
X004097Y003646D03*
X004137Y003766D03*
X004057Y003766D03*
X003957Y003806D03*
X003937Y003786D03*
X003917Y003766D03*
X003897Y003746D03*
X003877Y003726D03*
X003857Y003706D03*
X003837Y003686D03*
X003817Y003666D03*
X003797Y003646D03*
X003717Y003566D03*
X003697Y003546D03*
X003197Y003026D03*
X004077Y002646D03*
X004097Y002666D03*
X004357Y002806D03*
X004377Y002786D03*
X004757Y002586D03*
X004777Y002546D03*
X004817Y002506D03*
X005097Y002466D03*
X004437Y002046D03*
X004937Y001626D03*
X004957Y001626D03*
X005317Y001566D03*
X005877Y003146D03*
X005857Y003166D03*
X005597Y003406D03*
X005577Y003406D03*
X005557Y003406D03*
X005537Y003406D03*
X005157Y004126D03*
X004837Y004086D03*
X004417Y004146D03*
X004397Y004146D03*
X004097Y004066D03*
X004057Y004106D03*
X004037Y004126D03*
X003957Y004186D03*
X003657Y004126D03*
X004057Y005206D03*
X004057Y005386D03*
X004037Y005406D03*
X004017Y005426D03*
X004217Y005506D03*
X004197Y005546D03*
X004177Y005606D03*
X004117Y005746D03*
X004177Y006046D03*
X004137Y006106D03*
X004097Y006166D03*
X003937Y006126D03*
X003897Y006206D03*
X003757Y006686D03*
X004057Y006686D03*
X004537Y006666D03*
X004797Y006366D03*
X004837Y006386D03*
X005577Y005866D03*
X005717Y005966D03*
X005737Y005986D03*
X005877Y006086D03*
X004877Y005126D03*
X004497Y005166D03*
X004337Y005146D03*
X004277Y005366D03*
X004257Y005406D03*
X004237Y005446D03*
X003377Y006206D03*
X003357Y006226D03*
X003337Y006246D03*
X002977Y005246D03*
X002037Y005886D03*
X002017Y005866D03*
X001877Y005886D03*
X001857Y005886D03*
X001837Y005886D03*
X001817Y005886D03*
X001797Y003586D03*
X002037Y003446D03*
X002057Y003446D03*
X004457Y007246D03*
X004497Y007306D03*
X004517Y007326D03*
X005037Y007566D03*
X005357Y007866D03*
D33*
X005037Y007026D03*
X004977Y006726D03*
X005217Y006666D03*
X005177Y006566D03*
X005157Y006526D03*
X005137Y006486D03*
X005117Y006446D03*
X005097Y006406D03*
X004937Y006086D03*
X004917Y006046D03*
X005097Y005726D03*
X005057Y005706D03*
X005037Y005686D03*
X004977Y005606D03*
X005177Y005766D03*
X005237Y005786D03*
X005257Y005786D03*
X005497Y005526D03*
X005797Y006086D03*
X004577Y005746D03*
X004457Y006206D03*
X004157Y006426D03*
X003157Y006406D03*
X003137Y006406D03*
X002257Y005886D03*
X002237Y005886D03*
X001957Y005806D03*
X002597Y005186D03*
X002337Y005046D03*
X002597Y004726D03*
X003057Y005166D03*
X002957Y005306D03*
X003877Y004566D03*
X003897Y004566D03*
X003917Y004566D03*
X004217Y005226D03*
X004917Y004246D03*
X005177Y004186D03*
X005017Y003646D03*
X005077Y003566D03*
X004837Y003386D03*
X004877Y003286D03*
X004657Y002946D03*
X005197Y002546D03*
X005217Y002486D03*
X005237Y002426D03*
X005257Y002366D03*
X005277Y002306D03*
X005317Y002166D03*
X005217Y001866D03*
X005237Y001806D03*
X005397Y001806D03*
X004377Y002206D03*
X003997Y003306D03*
X003437Y003206D03*
X002857Y003526D03*
X002177Y003426D03*
X002157Y003426D03*
X002137Y003426D03*
X002117Y003426D03*
X001837Y003506D03*
X001817Y003506D03*
X005437Y003446D03*
X005797Y003146D03*
D34*
X005497Y003426D03*
X005477Y003426D03*
X004937Y003126D03*
X004957Y003086D03*
X004977Y003046D03*
X005137Y002706D03*
X005157Y002666D03*
X005177Y002606D03*
X005177Y002126D03*
X004397Y002146D03*
X004317Y002386D03*
X003977Y003286D03*
X003397Y003186D03*
X003117Y002986D03*
X004117Y004026D03*
X004237Y004066D03*
X004257Y004086D03*
X003857Y004266D03*
X003297Y004706D03*
X003637Y005226D03*
X003957Y005146D03*
X004157Y005286D03*
X004177Y005266D03*
X004197Y005246D03*
X004237Y005186D03*
X004257Y005166D03*
X004517Y005426D03*
X004897Y005086D03*
X004917Y005066D03*
X005197Y004186D03*
X005417Y005846D03*
X005437Y005846D03*
X005457Y005846D03*
X004697Y006346D03*
X004137Y006506D03*
X002217Y004986D03*
X002157Y004946D03*
X002137Y004926D03*
X001957Y004646D03*
X001857Y003506D03*
D35*
X001897Y003506D03*
X002077Y003406D03*
X003137Y002986D03*
X003157Y002986D03*
X003697Y002706D03*
X003717Y002646D03*
X003737Y002606D03*
X004117Y002706D03*
X004637Y002986D03*
X005057Y002886D03*
X005517Y003406D03*
X005477Y003846D03*
X005457Y004266D03*
X005417Y004346D03*
X005397Y004366D03*
X005377Y004406D03*
X005357Y004426D03*
X005377Y004886D03*
X005457Y004986D03*
X004837Y005166D03*
X004557Y005186D03*
X004277Y005146D03*
X003937Y005106D03*
X003877Y005046D03*
X003917Y004246D03*
X004137Y004026D03*
X004157Y004006D03*
X004157Y003846D03*
X004457Y004126D03*
X004697Y003946D03*
X004877Y004146D03*
X004017Y003386D03*
X003657Y003466D03*
X002657Y004526D03*
X002657Y004706D03*
X002937Y004926D03*
X002637Y005226D03*
X002317Y005066D03*
X002277Y004906D03*
X002077Y004846D03*
X001877Y005726D03*
X002217Y005906D03*
X004137Y005726D03*
X004857Y006406D03*
X004117Y006566D03*
X005017Y007526D03*
X004417Y002086D03*
D36*
X004377Y002536D03*
X004437Y002676D03*
X004137Y002756D03*
X004157Y002816D03*
X003677Y002776D03*
X003377Y003156D03*
X003037Y004096D03*
X002637Y004916D03*
X002117Y004896D03*
X002097Y004876D03*
X001977Y005836D03*
X003197Y006376D03*
X004357Y006416D03*
X004437Y006556D03*
X004637Y006556D03*
X004877Y006436D03*
X004957Y006656D03*
X004417Y007156D03*
X005477Y005836D03*
X005497Y005836D03*
X005517Y005836D03*
X005537Y005836D03*
X005117Y005156D03*
X005397Y004916D03*
X005417Y004936D03*
X005437Y004956D03*
X005477Y005036D03*
X005357Y004836D03*
X005357Y004616D03*
X005477Y004236D03*
X004897Y004176D03*
X004377Y004116D03*
X004217Y004036D03*
X003877Y004776D03*
X003897Y004796D03*
X003857Y005036D03*
X003997Y005156D03*
X004857Y005156D03*
X004617Y003056D03*
X004697Y002776D03*
X005037Y002916D03*
X005077Y002836D03*
X005097Y002796D03*
X005117Y002756D03*
X004997Y002996D03*
X005117Y002416D03*
X005137Y002336D03*
X005157Y002236D03*
X002097Y003416D03*
X001877Y003516D03*
D37*
X002257Y003436D03*
X002277Y003436D03*
X002917Y003536D03*
X003277Y003656D03*
X003457Y003196D03*
X003477Y003196D03*
X003557Y003216D03*
X004717Y003636D03*
X004817Y003836D03*
X004937Y003736D03*
X004957Y003716D03*
X004997Y003696D03*
X005197Y003556D03*
X005257Y003516D03*
X005297Y003496D03*
X005337Y003496D03*
X005757Y003176D03*
X005777Y003156D03*
X005337Y004876D03*
X004957Y005576D03*
X004797Y005816D03*
X004817Y005856D03*
X004837Y005896D03*
X004577Y005256D03*
X003637Y006076D03*
X003497Y006136D03*
X003477Y006136D03*
X003457Y006136D03*
X002917Y005736D03*
X002877Y005756D03*
X002857Y005776D03*
X002817Y005836D03*
X002397Y005076D03*
X001977Y004656D03*
X001917Y005796D03*
X001897Y005796D03*
X004357Y006936D03*
X005297Y006916D03*
X005397Y007316D03*
D38*
X005377Y007216D03*
X005257Y006776D03*
X005237Y006716D03*
X004897Y005996D03*
X005077Y005716D03*
X005117Y005736D03*
X005137Y005756D03*
X005157Y005756D03*
X005197Y005776D03*
X005217Y005776D03*
X005277Y005796D03*
X005297Y005796D03*
X005317Y005796D03*
X005337Y005796D03*
X005357Y005816D03*
X005397Y005836D03*
X005017Y005676D03*
X004597Y005836D03*
X004017Y006016D03*
X003437Y006136D03*
X003117Y006416D03*
X002897Y005736D03*
X003077Y005176D03*
X002577Y005176D03*
X002277Y005876D03*
X001937Y005796D03*
X003577Y005376D03*
X003817Y005036D03*
X004177Y003956D03*
X004737Y003936D03*
X005097Y003556D03*
X005117Y003556D03*
X005137Y003556D03*
X005397Y003476D03*
X005417Y003476D03*
X005217Y004216D03*
X004937Y005056D03*
X005777Y006076D03*
X003357Y003656D03*
X003337Y003656D03*
X003317Y003656D03*
X003297Y003656D03*
X002817Y003496D03*
X002797Y003476D03*
X002197Y003436D03*
X003957Y003156D03*
X004337Y002916D03*
X004897Y002816D03*
X005297Y002236D03*
D39*
X005117Y002296D03*
X005097Y002376D03*
X004957Y002396D03*
X004897Y002416D03*
X004877Y002416D03*
X004857Y002436D03*
X004837Y002456D03*
X004957Y002556D03*
X004977Y002556D03*
X004997Y002576D03*
X004937Y002736D03*
X004837Y002676D03*
X004637Y002676D03*
X004617Y002676D03*
X004597Y002676D03*
X004577Y002676D03*
X004557Y002676D03*
X004517Y002636D03*
X004537Y002616D03*
X004557Y002596D03*
X004577Y002576D03*
X004597Y002556D03*
X004617Y002516D03*
X004637Y002496D03*
X004677Y002436D03*
X004797Y002236D03*
X004877Y002256D03*
X004897Y002276D03*
X005257Y001896D03*
X004997Y002876D03*
X004977Y002876D03*
X004957Y002896D03*
X004937Y002896D03*
X004877Y002916D03*
X004857Y002936D03*
X004837Y002936D03*
X004817Y002936D03*
X004737Y002976D03*
X004677Y003016D03*
X004757Y003076D03*
X004777Y003076D03*
X004677Y003236D03*
X004777Y003296D03*
X004657Y003496D03*
X004617Y003616D03*
X004577Y003696D03*
X004417Y003756D03*
X004377Y003876D03*
X004397Y003956D03*
X004117Y003876D03*
X004077Y003816D03*
X004017Y003716D03*
X003917Y003596D03*
X003917Y003536D03*
X003897Y003476D03*
X003877Y003436D03*
X003857Y003396D03*
X003937Y003296D03*
X003957Y003316D03*
X004017Y003216D03*
X004037Y003196D03*
X004057Y003196D03*
X004077Y003196D03*
X004037Y002996D03*
X003897Y002976D03*
X003877Y002956D03*
X003857Y002936D03*
X003837Y002916D03*
X003977Y002536D03*
X003917Y002516D03*
X004357Y003016D03*
X004397Y002996D03*
X004437Y003016D03*
X004517Y003036D03*
X004537Y003036D03*
X004557Y003056D03*
X004557Y002876D03*
X004377Y003176D03*
X004417Y003436D03*
X004397Y003456D03*
X004117Y003416D03*
X004097Y003476D03*
X004077Y003476D03*
X004177Y003656D03*
X004117Y004156D03*
X004077Y004236D03*
X004037Y004216D03*
X003997Y004296D03*
X004017Y004316D03*
X003997Y004396D03*
X003977Y004476D03*
X004097Y004496D03*
X004097Y004596D03*
X004177Y004636D03*
X004217Y004636D03*
X004217Y004556D03*
X004217Y004756D03*
X004197Y004756D03*
X004177Y004756D03*
X004217Y004836D03*
X004117Y004896D03*
X004137Y004956D03*
X004157Y004956D03*
X004177Y004996D03*
X004157Y005016D03*
X004197Y005056D03*
X004217Y005036D03*
X004337Y004976D03*
X004417Y005036D03*
X004457Y005016D03*
X004577Y004956D03*
X004597Y004956D03*
X004677Y005136D03*
X004697Y005156D03*
X004777Y005056D03*
X004897Y004756D03*
X004897Y004636D03*
X004877Y004636D03*
X004657Y004136D03*
X003937Y004596D03*
X003957Y004716D03*
X003917Y004736D03*
X003917Y004816D03*
X003937Y004816D03*
X003957Y004816D03*
X003977Y004816D03*
X003957Y004896D03*
X003937Y004896D03*
X003957Y004976D03*
X003977Y004976D03*
X003997Y005036D03*
X004017Y005036D03*
X004037Y005076D03*
X004057Y005076D03*
X004117Y005136D03*
X004117Y005196D03*
X004237Y005316D03*
X003897Y005516D03*
X003597Y005416D03*
X003377Y005156D03*
X003197Y004956D03*
X003297Y004856D03*
X003597Y004836D03*
X003597Y004996D03*
X003637Y005076D03*
X003817Y004876D03*
X003337Y004556D03*
X003357Y004316D03*
X003397Y004236D03*
X003577Y004056D03*
X003077Y003976D03*
X002737Y003996D03*
X002697Y004016D03*
X002637Y004716D03*
X002617Y004816D03*
X002437Y004836D03*
X001937Y004676D03*
X003397Y006076D03*
X003017Y006336D03*
X003797Y006316D03*
X003837Y006476D03*
X003917Y006536D03*
X003837Y006756D03*
X003877Y006776D03*
X003897Y006776D03*
X004017Y006296D03*
X004037Y006136D03*
X004057Y006136D03*
X004037Y006016D03*
X004417Y006216D03*
X004417Y006276D03*
X004557Y006256D03*
X004597Y006276D03*
X004617Y006276D03*
X004717Y006296D03*
X004537Y006136D03*
X004737Y005976D03*
X004537Y005356D03*
X004617Y006616D03*
X004577Y006636D03*
X004817Y006836D03*
X004837Y006856D03*
X004857Y006876D03*
X004877Y006896D03*
X004897Y006896D03*
X004957Y006936D03*
X004897Y006996D03*
X004737Y007016D03*
X004717Y006976D03*
X004697Y006936D03*
X005037Y006756D03*
X005097Y006916D03*
X005177Y006896D03*
X005177Y007276D03*
X005157Y007276D03*
X005137Y007276D03*
X005117Y007276D03*
X005097Y007276D03*
X005177Y007856D03*
X005217Y007876D03*
X005237Y007876D03*
X005257Y007876D03*
X005277Y007876D03*
X005437Y003796D03*
X002057Y003356D03*
D40*
X002657Y004056D03*
X002677Y004976D03*
X002957Y004956D03*
X003317Y004996D03*
X003597Y004736D03*
X003897Y005076D03*
X003917Y005096D03*
X004017Y005216D03*
X004037Y005216D03*
X004297Y005136D03*
X004317Y005136D03*
X004517Y005176D03*
X004537Y005176D03*
X004157Y005656D03*
X004037Y005896D03*
X003977Y006056D03*
X004077Y006176D03*
X004317Y005976D03*
X004477Y006256D03*
X004557Y006676D03*
X004917Y006556D03*
X004937Y006596D03*
X004897Y006496D03*
X005137Y007036D03*
X005177Y007176D03*
X004477Y007276D03*
X004437Y007196D03*
X004077Y006656D03*
X004097Y006616D03*
X003737Y006656D03*
X003397Y006196D03*
X003217Y006356D03*
X003757Y005676D03*
X003877Y004256D03*
X003897Y004236D03*
X003977Y004156D03*
X003997Y004136D03*
X004017Y004136D03*
X004077Y004096D03*
X004277Y004156D03*
X004437Y004136D03*
X004417Y003896D03*
X004117Y003696D03*
X004037Y003456D03*
X003937Y003196D03*
X003937Y003056D03*
X003677Y003496D03*
X003177Y003016D03*
X003717Y004216D03*
X004677Y004156D03*
X004817Y004076D03*
X004857Y004116D03*
X005117Y004136D03*
X005237Y004176D03*
X005437Y004316D03*
X005457Y003836D03*
X005697Y003316D03*
X005717Y003296D03*
X005737Y003276D03*
X005817Y003176D03*
X005837Y003176D03*
X005897Y003136D03*
X004717Y002696D03*
X004737Y002636D03*
X004457Y002676D03*
X004397Y002596D03*
X004397Y002756D03*
X005337Y001596D03*
X005477Y005576D03*
X005557Y005856D03*
X005757Y006016D03*
X005377Y007836D03*
X002197Y005896D03*
X001997Y005856D03*
D41*
X002337Y005886D03*
X002697Y005826D03*
X002737Y005846D03*
X002757Y005846D03*
X002777Y005846D03*
X002957Y005726D03*
X002977Y005726D03*
X003057Y005726D03*
X003157Y005726D03*
X003297Y005686D03*
X003317Y005666D03*
X003557Y006126D03*
X004637Y006126D03*
X004957Y005026D03*
X005337Y004546D03*
X004777Y003926D03*
X004637Y003846D03*
X004557Y004006D03*
X004477Y004006D03*
X003837Y004646D03*
X003517Y003926D03*
X003157Y003626D03*
X003137Y003626D03*
X003577Y003186D03*
X004337Y002366D03*
X002317Y003426D03*
X002297Y003426D03*
X001997Y004646D03*
X002517Y005126D03*
X002757Y005206D03*
D42*
X002797Y005206D03*
X002897Y005226D03*
X002917Y005226D03*
X003037Y005226D03*
X003157Y005226D03*
X003197Y005226D03*
X003317Y005286D03*
X003397Y005486D03*
X003117Y005746D03*
X003097Y005746D03*
X002677Y005826D03*
X002457Y005886D03*
X002437Y005886D03*
X002397Y005906D03*
X002377Y005906D03*
X002357Y005906D03*
X002017Y004646D03*
X003097Y003606D03*
X002677Y003466D03*
X002457Y003466D03*
X002417Y003446D03*
X002377Y003426D03*
X002337Y003426D03*
X004317Y003006D03*
X004577Y003986D03*
X005497Y005186D03*
X004857Y005506D03*
X004837Y005466D03*
X004617Y005326D03*
X005397Y007686D03*
D43*
X005457Y007576D03*
X004237Y005956D03*
X004337Y005516D03*
X004457Y005316D03*
X004397Y005256D03*
X003377Y005516D03*
X002637Y005836D03*
X002617Y005856D03*
X002597Y005856D03*
X002537Y005856D03*
X002517Y005856D03*
X002497Y005856D03*
X002037Y004636D03*
X002077Y004536D03*
X002097Y004516D03*
X002597Y004216D03*
X002617Y003456D03*
X002977Y003556D03*
X002997Y003556D03*
X004357Y002356D03*
D44*
X004477Y003266D03*
X003417Y003886D03*
X002337Y004546D03*
X002197Y004466D03*
X002177Y004486D03*
X002157Y004506D03*
X002057Y004626D03*
X004437Y006046D03*
D45*
X004657Y005416D03*
X005537Y005296D03*
X004997Y007336D03*
X003297Y005156D03*
X002117Y004516D03*
X002577Y003456D03*
X003597Y003176D03*
X004197Y003116D03*
D46*
X003337Y004076D03*
X002937Y004176D03*
X002137Y004516D03*
X004417Y005816D03*
X004697Y005516D03*
X004677Y005476D03*
X005017Y007036D03*
D47*
X005157Y007116D03*
X005197Y006616D03*
X005077Y006356D03*
X005057Y006316D03*
X005037Y006276D03*
X005017Y006236D03*
X004997Y006196D03*
X004977Y006156D03*
X004957Y006116D03*
X004997Y005656D03*
X004497Y005376D03*
X004317Y005416D03*
X004137Y005316D03*
X004117Y005336D03*
X003977Y005136D03*
X003837Y005036D03*
X003837Y004256D03*
X003737Y004196D03*
X003597Y003916D03*
X003577Y003916D03*
X003637Y003396D03*
X003417Y003196D03*
X003097Y002976D03*
X002897Y003536D03*
X002877Y003536D03*
X002837Y003516D03*
X002637Y004096D03*
X002997Y004716D03*
X002657Y004936D03*
X002617Y005196D03*
X002197Y004976D03*
X002177Y004956D03*
X003417Y006136D03*
X003177Y006396D03*
X003997Y006036D03*
X004337Y006356D03*
X005817Y006096D03*
X005537Y004016D03*
X005457Y003436D03*
X005057Y003576D03*
X004817Y003436D03*
X004797Y003476D03*
X004777Y003516D03*
X004857Y003336D03*
X004897Y003236D03*
X004917Y003176D03*
X005017Y002936D03*
X004417Y002676D03*
X003657Y002836D03*
X004197Y003996D03*
X004717Y003956D03*
X005197Y001996D03*
D48*
X003617Y003156D03*
X004517Y003896D03*
X003717Y004916D03*
X004257Y005896D03*
X002357Y004516D03*
X002257Y004456D03*
X002217Y004476D03*
D49*
X002317Y004546D03*
X002257Y004966D03*
X002237Y004966D03*
X002357Y005046D03*
X002377Y005066D03*
X002697Y005186D03*
X002937Y005286D03*
X003097Y005186D03*
X003117Y005206D03*
X003557Y005406D03*
X004097Y005326D03*
X004397Y005786D03*
X004617Y005986D03*
X004857Y005926D03*
X004877Y005966D03*
X004677Y006386D03*
X005277Y006846D03*
X004977Y007346D03*
X004177Y006326D03*
X003657Y006066D03*
X003517Y006106D03*
X002837Y005826D03*
X002297Y005886D03*
X003737Y004446D03*
X002617Y004126D03*
X002777Y003466D03*
X002237Y003446D03*
X002217Y003446D03*
X003637Y002926D03*
X004597Y003126D03*
X004677Y002846D03*
X004757Y003546D03*
X004737Y003586D03*
X004977Y003706D03*
X005037Y003626D03*
X005157Y003566D03*
X005177Y003566D03*
X005237Y003526D03*
X005357Y003486D03*
X005377Y003486D03*
X004797Y003866D03*
X004937Y004286D03*
X005217Y005086D03*
X005557Y005326D03*
X005377Y005826D03*
D50*
X004737Y005546D03*
X003377Y003866D03*
X002237Y004466D03*
D51*
X002277Y004286D03*
X002937Y004646D03*
X002717Y005186D03*
X002457Y005106D03*
X002417Y005086D03*
X002317Y005886D03*
X002797Y005846D03*
X002937Y005746D03*
X003457Y005446D03*
X003537Y005406D03*
X003797Y005006D03*
X004077Y005306D03*
X004317Y005726D03*
X004317Y006246D03*
X003617Y006086D03*
X003537Y006126D03*
X004897Y005546D03*
X004917Y005546D03*
X004937Y005566D03*
X004997Y006866D03*
X005337Y007046D03*
X003717Y004446D03*
X003557Y003926D03*
X003537Y003906D03*
X003257Y003646D03*
X003217Y003646D03*
X003197Y003646D03*
X002937Y003546D03*
X002757Y003466D03*
X003497Y003206D03*
X003517Y003206D03*
X003537Y003206D03*
X004617Y003866D03*
X004757Y003946D03*
X004697Y003686D03*
X005217Y003546D03*
X005277Y003506D03*
X005317Y003486D03*
X004937Y002486D03*
D52*
X005337Y002036D03*
X004537Y003656D03*
X004357Y004036D03*
X004957Y004336D03*
X004477Y005276D03*
X004777Y005396D03*
X004877Y005516D03*
X003857Y004656D03*
X003757Y005056D03*
X003417Y005456D03*
X003217Y005716D03*
X003197Y005716D03*
X003177Y005716D03*
X003137Y005736D03*
X003077Y005736D03*
X003037Y005736D03*
X003017Y005736D03*
X002997Y005736D03*
X002717Y005836D03*
X002477Y005876D03*
X002817Y005216D03*
X002837Y005216D03*
X002857Y005216D03*
X002877Y005216D03*
X002777Y005196D03*
X002557Y005116D03*
X002537Y005116D03*
X003017Y005236D03*
X003017Y004656D03*
X003017Y004116D03*
X003477Y003936D03*
X003497Y003936D03*
X003117Y003616D03*
X002957Y003576D03*
X002717Y003456D03*
X002697Y003456D03*
X002397Y003436D03*
X002357Y003416D03*
X003737Y005816D03*
X004417Y006656D03*
D53*
X005417Y007536D03*
X003357Y005456D03*
X003737Y004916D03*
X003637Y004716D03*
X002377Y004496D03*
X004217Y003276D03*
X004917Y002596D03*
D54*
X003757Y004476D03*
X003077Y004496D03*
X002477Y004416D03*
X002397Y004476D03*
X003337Y005416D03*
X004277Y005876D03*
D55*
X004197Y006176D03*
X004357Y005456D03*
X004797Y005396D03*
X004657Y003816D03*
X004577Y003236D03*
X003077Y003596D03*
X003057Y003596D03*
X002657Y003456D03*
X002537Y003436D03*
X002437Y003456D03*
X003177Y005216D03*
X003217Y005216D03*
X002657Y005836D03*
X002417Y005896D03*
D56*
X002417Y004466D03*
X002737Y004446D03*
X003097Y004466D03*
D57*
X003137Y005256D03*
X002997Y005256D03*
X002737Y005196D03*
X002497Y005116D03*
X002477Y005116D03*
X002437Y005096D03*
X003237Y005696D03*
X003257Y005696D03*
X003277Y005696D03*
X003437Y005456D03*
X003477Y005436D03*
X003497Y005436D03*
X003517Y005416D03*
X003777Y005016D03*
X004417Y005276D03*
X004597Y005276D03*
X004777Y005776D03*
X004217Y006116D03*
X003597Y006096D03*
X003577Y006116D03*
X005317Y006996D03*
X005357Y007156D03*
X004537Y004036D03*
X004597Y003916D03*
X004677Y003716D03*
X004837Y003796D03*
X004857Y003776D03*
X004877Y003776D03*
X004897Y003756D03*
X004917Y003756D03*
X004497Y003176D03*
X004177Y002956D03*
X003237Y003636D03*
X003177Y003636D03*
X002737Y003456D03*
D58*
X002917Y004296D03*
X002437Y004416D03*
X003777Y004476D03*
X003677Y006276D03*
D59*
X004377Y006746D03*
X004397Y006806D03*
X002717Y004466D03*
X002457Y004406D03*
X003297Y004226D03*
D60*
X003357Y004046D03*
X003457Y003926D03*
X003037Y003586D03*
X003017Y003566D03*
X002637Y003466D03*
X002517Y003446D03*
X002497Y003446D03*
X002477Y003446D03*
X003237Y005206D03*
X002577Y005846D03*
X002557Y005846D03*
X004637Y005366D03*
X005517Y004026D03*
X004497Y003986D03*
X004557Y003406D03*
D61*
X005117Y004646D03*
X002537Y004426D03*
X002517Y004426D03*
X002497Y004426D03*
D62*
X002557Y004416D03*
X002577Y004416D03*
X004237Y003436D03*
X004257Y003536D03*
X005317Y004676D03*
D63*
X004817Y005386D03*
X003617Y004806D03*
X003437Y003906D03*
X002597Y003446D03*
X002557Y003446D03*
X004437Y003726D03*
X005377Y001826D03*
D64*
X004337Y003936D03*
X004717Y005536D03*
X002677Y004536D03*
D65*
X002697Y004486D03*
X003817Y004466D03*
X004437Y005426D03*
D66*
X004497Y005626D03*
X004517Y005626D03*
X004617Y005666D03*
X004657Y005786D03*
X004497Y005886D03*
X004457Y005806D03*
X004497Y006026D03*
X004397Y006086D03*
X004357Y006046D03*
X004117Y006026D03*
X004097Y006026D03*
X004117Y005906D03*
X004137Y005906D03*
X003917Y005886D03*
X003837Y005886D03*
X003797Y005906D03*
X003797Y006026D03*
X003897Y006086D03*
X003917Y006086D03*
X003977Y006186D03*
X004077Y006266D03*
X004097Y006266D03*
X003997Y006326D03*
X003997Y006386D03*
X003977Y006386D03*
X004037Y006486D03*
X004037Y006526D03*
X004017Y006546D03*
X004017Y006626D03*
X003957Y006606D03*
X003937Y006646D03*
X003897Y006546D03*
X003837Y006526D03*
X003857Y006466D03*
X003857Y006366D03*
X003777Y006326D03*
X003797Y006226D03*
X003797Y006586D03*
X003777Y006586D03*
X003077Y006506D03*
X002837Y005666D03*
X003397Y005266D03*
X003597Y005466D03*
X003937Y005566D03*
X003957Y005546D03*
X003997Y005586D03*
X004057Y005626D03*
X004097Y005506D03*
X004057Y005466D03*
X003897Y005686D03*
X003837Y005766D03*
X004097Y005146D03*
X004137Y005126D03*
X004177Y005066D03*
X004137Y005026D03*
X004117Y004966D03*
X004077Y005066D03*
X004017Y005086D03*
X003997Y004966D03*
X003937Y004966D03*
X003977Y004906D03*
X003937Y004706D03*
X004117Y004606D03*
X004117Y004506D03*
X004137Y004406D03*
X004157Y004406D03*
X004177Y004306D03*
X004197Y004306D03*
X004177Y004246D03*
X004057Y004226D03*
X004097Y004146D03*
X004037Y004326D03*
X004017Y004406D03*
X003977Y004386D03*
X003957Y004466D03*
X003997Y004486D03*
X003877Y004406D03*
X004237Y004546D03*
X004237Y004626D03*
X004237Y004746D03*
X004237Y004826D03*
X004277Y004906D03*
X004437Y005026D03*
X004657Y004926D03*
X004817Y004826D03*
X004837Y004826D03*
X004857Y004826D03*
X004917Y004766D03*
X004857Y004626D03*
X004837Y004506D03*
X004897Y004306D03*
X004777Y004286D03*
X004397Y003866D03*
X004557Y003786D03*
X004597Y003706D03*
X004597Y003606D03*
X004597Y003566D03*
X004637Y003606D03*
X004677Y003486D03*
X004737Y003426D03*
X004717Y003366D03*
X004737Y003346D03*
X004797Y003266D03*
X004797Y003166D03*
X004817Y003166D03*
X004837Y003106D03*
X004817Y002786D03*
X004797Y002786D03*
X004817Y002706D03*
X004957Y002726D03*
X005017Y002766D03*
X005057Y002646D03*
X004997Y002466D03*
X005017Y002426D03*
X004957Y002286D03*
X004857Y002326D03*
X004757Y002386D03*
X004717Y002486D03*
X004677Y002666D03*
X004657Y002666D03*
X004557Y002786D03*
X004437Y002846D03*
X004417Y002846D03*
X004397Y002846D03*
X004417Y003006D03*
X004517Y003226D03*
X004537Y003226D03*
X004397Y003546D03*
X004377Y003646D03*
X004357Y003646D03*
X004377Y003686D03*
X004397Y003686D03*
X004197Y003646D03*
X004197Y003766D03*
X004137Y003906D03*
X004177Y003506D03*
X004097Y003406D03*
X004117Y003326D03*
X004137Y003326D03*
X004097Y003306D03*
X004037Y003286D03*
X004017Y003286D03*
X004097Y003126D03*
X004097Y003046D03*
X004057Y002926D03*
X004037Y002886D03*
X004017Y002886D03*
X003877Y003066D03*
X003857Y003066D03*
X003777Y003166D03*
X003717Y003186D03*
X003717Y003266D03*
X003777Y003506D03*
X003837Y003566D03*
X003637Y003906D03*
X003277Y003886D03*
X003097Y003986D03*
X002937Y003746D03*
X002717Y004006D03*
X003337Y004486D03*
X003577Y004766D03*
X003597Y004926D03*
X004757Y005126D03*
X004717Y006026D03*
X004757Y006106D03*
X004777Y006186D03*
X004777Y006266D03*
X004777Y006326D03*
X004897Y006266D03*
X004937Y006386D03*
X004957Y006386D03*
X004777Y006506D03*
X004797Y006606D03*
X004837Y006606D03*
X004897Y006686D03*
X004997Y006646D03*
X005077Y006626D03*
X005137Y006726D03*
X005157Y006886D03*
X005297Y007146D03*
X005257Y007226D03*
X005197Y007286D03*
X005257Y007346D03*
X005257Y007526D03*
X005297Y007546D03*
X005357Y007586D03*
X005357Y007726D03*
X005257Y007686D03*
X005157Y007666D03*
X005157Y007706D03*
X005257Y007806D03*
X004937Y007546D03*
X004897Y007546D03*
X004877Y007426D03*
X004797Y007286D03*
X004837Y007186D03*
X004937Y007126D03*
X004977Y007126D03*
X005077Y007266D03*
X004757Y007046D03*
X004617Y007046D03*
X004597Y007166D03*
X004617Y007206D03*
X004637Y007286D03*
X004497Y007106D03*
X004457Y006966D03*
X004477Y006886D03*
X004557Y006926D03*
X004537Y006786D03*
X004477Y006706D03*
X004597Y006626D03*
X004597Y006486D03*
X004557Y006426D03*
X004497Y006526D03*
X004557Y006306D03*
X004577Y006266D03*
X004817Y006046D03*
X004737Y006886D03*
X003757Y002966D03*
X003797Y002766D03*
X003837Y002686D03*
X003897Y002646D03*
X003957Y002626D03*
X003937Y002586D03*
X004457Y002346D03*
X004557Y002266D03*
X004637Y002286D03*
X004557Y002106D03*
X004557Y002046D03*
X004457Y002146D03*
X004717Y001966D03*
X004777Y001886D03*
X004857Y001946D03*
X004957Y001986D03*
X005057Y001966D03*
X005077Y001966D03*
X005137Y002006D03*
X005117Y002126D03*
X005037Y002166D03*
X005117Y002226D03*
X004837Y002186D03*
X004877Y001766D03*
X005117Y001846D03*
X005217Y001686D03*
X005177Y001646D03*
X005237Y001606D03*
X005297Y001726D03*
X003057Y002906D03*
D67*
X002777Y004396D03*
X002757Y004396D03*
X003697Y006236D03*
D68*
X004297Y005886D03*
X005177Y004766D03*
X005197Y004766D03*
X002977Y004366D03*
X002897Y004386D03*
X002877Y004386D03*
X002797Y004386D03*
D69*
X002817Y004406D03*
X002837Y004406D03*
X003137Y004386D03*
X003157Y004386D03*
X004457Y003466D03*
X005297Y004666D03*
X005237Y004726D03*
D70*
X002957Y004376D03*
X002857Y004396D03*
D71*
X002997Y004186D03*
X004377Y005326D03*
X004657Y006406D03*
X005497Y004046D03*
D72*
X005217Y004646D03*
X005517Y005306D03*
X005437Y007546D03*
X003037Y004566D03*
X003397Y003866D03*
X005357Y001846D03*
D73*
X003317Y004166D03*
X003057Y004526D03*
D74*
X003117Y004436D03*
X004317Y003816D03*
D75*
X003197Y004406D03*
X003177Y004406D03*
D76*
X003217Y004446D03*
X005257Y004666D03*
D77*
X005157Y004716D03*
X003657Y004756D03*
X003237Y004456D03*
D78*
X003257Y004676D03*
D79*
X003277Y004666D03*
D80*
X003677Y004656D03*
X004277Y003516D03*
X005037Y004656D03*
D81*
X004977Y004676D03*
X003697Y004676D03*
D82*
X003717Y006186D03*
D83*
X004757Y005556D03*
X003797Y004476D03*
D84*
X004297Y003536D03*
D85*
X004997Y004666D03*
X005017Y004666D03*
D86*
X005057Y004666D03*
X005077Y004666D03*
D87*
X005097Y004656D03*
X005137Y004656D03*
D88*
X005277Y004656D03*
D89*
X006882Y008213D02*
X007512Y008213D01*
X007528Y008218D01*
X007544Y008226D01*
X007558Y008236D01*
X007570Y008248D01*
X007580Y008263D01*
X007587Y008279D01*
X007591Y008296D01*
X007592Y008313D01*
X007590Y008331D01*
X008082Y008213D02*
X008712Y008213D01*
X008728Y008218D01*
X008744Y008226D01*
X008758Y008236D01*
X008770Y008248D01*
X008780Y008263D01*
X008787Y008279D01*
X008791Y008296D01*
X008792Y008313D01*
X008790Y008331D01*
X008790Y008882D02*
X008792Y008900D01*
X008791Y008917D01*
X008787Y008934D01*
X008780Y008950D01*
X008770Y008965D01*
X008758Y008977D01*
X008744Y008987D01*
X008728Y008995D01*
X008712Y009000D01*
X008082Y009000D01*
X008066Y008995D01*
X008050Y008987D01*
X008036Y008977D01*
X008024Y008965D01*
X008014Y008950D01*
X008007Y008934D01*
X008003Y008917D01*
X008002Y008900D01*
X008004Y008882D01*
X007512Y009000D02*
X006882Y009000D01*
X006866Y008995D01*
X006850Y008987D01*
X006836Y008977D01*
X006824Y008965D01*
X006814Y008950D01*
X006807Y008934D01*
X006803Y008917D01*
X006802Y008900D01*
X006804Y008882D01*
X006804Y008331D02*
X006802Y008313D01*
X006803Y008296D01*
X006807Y008279D01*
X006814Y008263D01*
X006824Y008248D01*
X006836Y008236D01*
X006850Y008226D01*
X006866Y008218D01*
X006882Y008213D01*
X007590Y008882D02*
X007592Y008900D01*
X007591Y008917D01*
X007587Y008934D01*
X007580Y008950D01*
X007570Y008965D01*
X007558Y008977D01*
X007544Y008987D01*
X007528Y008995D01*
X007512Y009000D01*
X008004Y008331D02*
X008002Y008313D01*
X008003Y008296D01*
X008007Y008279D01*
X008014Y008263D01*
X008024Y008248D01*
X008036Y008236D01*
X008050Y008226D01*
X008066Y008218D01*
X008082Y008213D01*
X005891Y008391D02*
X005891Y009021D01*
X005890Y009022D02*
X005885Y009038D01*
X005877Y009054D01*
X005867Y009068D01*
X005855Y009080D01*
X005840Y009090D01*
X005824Y009097D01*
X005807Y009101D01*
X005790Y009102D01*
X005772Y009100D01*
X005222Y009100D02*
X005202Y009102D01*
X005183Y009100D01*
X005164Y009094D01*
X005147Y009085D01*
X005131Y009073D01*
X005119Y009058D01*
X005110Y009040D01*
X005104Y009022D01*
X005103Y009021D02*
X005103Y008391D01*
X005104Y008391D02*
X005110Y008373D01*
X005119Y008355D01*
X005131Y008340D01*
X005147Y008328D01*
X005164Y008319D01*
X005183Y008313D01*
X005202Y008311D01*
X005222Y008313D01*
X005772Y008313D02*
X005790Y008311D01*
X005807Y008312D01*
X005824Y008316D01*
X005840Y008323D01*
X005855Y008333D01*
X005867Y008345D01*
X005877Y008359D01*
X005885Y008375D01*
X005890Y008391D01*
X011903Y006621D02*
X011903Y005991D01*
X011904Y005991D02*
X011910Y005973D01*
X011919Y005955D01*
X011931Y005940D01*
X011947Y005928D01*
X011964Y005919D01*
X011983Y005913D01*
X012002Y005911D01*
X012022Y005913D01*
X012572Y005913D02*
X012590Y005911D01*
X012607Y005912D01*
X012624Y005916D01*
X012640Y005923D01*
X012655Y005933D01*
X012667Y005945D01*
X012677Y005959D01*
X012685Y005975D01*
X012690Y005991D01*
X012691Y005991D02*
X012691Y006621D01*
X012690Y006622D02*
X012685Y006638D01*
X012677Y006654D01*
X012667Y006668D01*
X012655Y006680D01*
X012640Y006690D01*
X012624Y006697D01*
X012607Y006701D01*
X012590Y006702D01*
X012572Y006700D01*
X012022Y006700D02*
X012002Y006702D01*
X011983Y006700D01*
X011964Y006694D01*
X011947Y006685D01*
X011931Y006673D01*
X011919Y006658D01*
X011910Y006640D01*
X011904Y006622D01*
X012781Y005017D02*
X012623Y004898D01*
X012623Y003934D01*
X012781Y003796D01*
X013253Y003796D01*
X013407Y003900D02*
X013407Y004922D01*
X013253Y005017D02*
X012781Y005017D01*
X013253Y005017D01*
X014001Y005017D02*
X014671Y005017D01*
X014671Y003776D01*
X014001Y003776D01*
X015953Y005691D02*
X015953Y006321D01*
X015954Y006322D02*
X015960Y006340D01*
X015969Y006358D01*
X015981Y006373D01*
X015997Y006385D01*
X016014Y006394D01*
X016033Y006400D01*
X016052Y006402D01*
X016072Y006400D01*
X016622Y006400D02*
X016640Y006402D01*
X016657Y006401D01*
X016674Y006397D01*
X016690Y006390D01*
X016705Y006380D01*
X016717Y006368D01*
X016727Y006354D01*
X016735Y006338D01*
X016740Y006322D01*
X016741Y006321D02*
X016741Y005691D01*
X016740Y005691D02*
X016735Y005675D01*
X016727Y005659D01*
X016717Y005645D01*
X016705Y005633D01*
X016690Y005623D01*
X016674Y005616D01*
X016657Y005612D01*
X016640Y005611D01*
X016622Y005613D01*
X016953Y005691D02*
X016953Y006321D01*
X016954Y006322D02*
X016960Y006340D01*
X016969Y006358D01*
X016981Y006373D01*
X016997Y006385D01*
X017014Y006394D01*
X017033Y006400D01*
X017052Y006402D01*
X017072Y006400D01*
X017622Y006400D02*
X017640Y006402D01*
X017657Y006401D01*
X017674Y006397D01*
X017690Y006390D01*
X017705Y006380D01*
X017717Y006368D01*
X017727Y006354D01*
X017735Y006338D01*
X017740Y006322D01*
X017741Y006321D02*
X017741Y005691D01*
X017740Y005691D02*
X017735Y005675D01*
X017727Y005659D01*
X017717Y005645D01*
X017705Y005633D01*
X017690Y005623D01*
X017674Y005616D01*
X017657Y005612D01*
X017640Y005611D01*
X017622Y005613D01*
X017072Y005613D02*
X017052Y005611D01*
X017033Y005613D01*
X017014Y005619D01*
X016997Y005628D01*
X016981Y005640D01*
X016969Y005655D01*
X016960Y005673D01*
X016954Y005691D01*
X016072Y005613D02*
X016052Y005611D01*
X016033Y005613D01*
X016014Y005619D01*
X015997Y005628D01*
X015981Y005640D01*
X015969Y005655D01*
X015960Y005673D01*
X015954Y005691D01*
X014591Y005991D02*
X014591Y006621D01*
X014590Y006622D02*
X014585Y006638D01*
X014577Y006654D01*
X014567Y006668D01*
X014555Y006680D01*
X014540Y006690D01*
X014524Y006697D01*
X014507Y006701D01*
X014490Y006702D01*
X014472Y006700D01*
X013922Y006700D02*
X013902Y006702D01*
X013883Y006700D01*
X013864Y006694D01*
X013847Y006685D01*
X013831Y006673D01*
X013819Y006658D01*
X013810Y006640D01*
X013804Y006622D01*
X013803Y006621D02*
X013803Y005991D01*
X013804Y005991D02*
X013810Y005973D01*
X013819Y005955D01*
X013831Y005940D01*
X013847Y005928D01*
X013864Y005919D01*
X013883Y005913D01*
X013902Y005911D01*
X013922Y005913D01*
X014472Y005913D02*
X014490Y005911D01*
X014507Y005912D01*
X014524Y005916D01*
X014540Y005923D01*
X014555Y005933D01*
X014567Y005945D01*
X014577Y005959D01*
X014585Y005975D01*
X014590Y005991D01*
X012947Y012144D02*
X012947Y014074D01*
X012947Y015137D02*
X012947Y016318D01*
X012947Y017381D02*
X012947Y017656D01*
X017711Y017656D01*
X018301Y017026D02*
X018301Y013719D01*
X018304Y013681D01*
X018310Y013643D01*
X018320Y013606D01*
X018334Y013570D01*
X018350Y013535D01*
X018370Y013503D01*
X018393Y013472D01*
X018419Y013443D01*
X018448Y013417D01*
X018479Y013394D01*
X018511Y013374D01*
X018546Y013358D01*
X018582Y013344D01*
X018619Y013334D01*
X018657Y013328D01*
X018695Y013325D01*
X018695Y013326D02*
X018727Y013327D01*
X018758Y013323D01*
X018789Y013316D01*
X018819Y013305D01*
X018847Y013291D01*
X018873Y013273D01*
X018897Y013252D01*
X018918Y013228D01*
X018936Y013202D01*
X018950Y013174D01*
X018961Y013144D01*
X018968Y013113D01*
X018972Y013082D01*
X018971Y013050D01*
X018971Y012735D01*
X018144Y012144D02*
X012947Y012144D01*
D90*
X015567Y013876D02*
X016027Y014183D01*
X015951Y014337D02*
X016027Y014413D01*
X016027Y014567D01*
X015951Y014644D01*
X015874Y014644D01*
X015567Y014337D01*
X015567Y014644D01*
X015567Y014183D02*
X016027Y013876D01*
D91*
X012297Y004956D02*
X011697Y004956D01*
X011680Y004954D01*
X011663Y004950D01*
X011647Y004943D01*
X011633Y004933D01*
X011620Y004920D01*
X011610Y004906D01*
X011603Y004890D01*
X011599Y004873D01*
X011597Y004856D01*
X011597Y003856D01*
X011599Y003839D01*
X011603Y003822D01*
X011610Y003806D01*
X011620Y003792D01*
X011633Y003779D01*
X011647Y003769D01*
X011663Y003762D01*
X011680Y003758D01*
X011697Y003756D01*
X012297Y003756D01*
X012314Y003758D01*
X012331Y003762D01*
X012347Y003769D01*
X012361Y003779D01*
X012374Y003792D01*
X012384Y003806D01*
X012391Y003822D01*
X012395Y003839D01*
X012397Y003856D01*
X012397Y004856D01*
X012395Y004873D01*
X012391Y004890D01*
X012384Y004906D01*
X012374Y004920D01*
X012361Y004933D01*
X012347Y004943D01*
X012331Y004950D01*
X012314Y004954D01*
X012297Y004956D01*
X006497Y011756D02*
X005497Y011756D01*
X005480Y011758D01*
X005463Y011762D01*
X005447Y011769D01*
X005433Y011779D01*
X005420Y011792D01*
X005410Y011806D01*
X005403Y011822D01*
X005399Y011839D01*
X005397Y011856D01*
X005397Y012456D01*
X005399Y012473D01*
X005403Y012490D01*
X005410Y012506D01*
X005420Y012520D01*
X005433Y012533D01*
X005447Y012543D01*
X005463Y012550D01*
X005480Y012554D01*
X005497Y012556D01*
X006497Y012556D01*
X006514Y012554D01*
X006531Y012550D01*
X006547Y012543D01*
X006561Y012533D01*
X006574Y012520D01*
X006584Y012506D01*
X006591Y012490D01*
X006595Y012473D01*
X006597Y012456D01*
X006597Y011856D01*
X006595Y011839D01*
X006591Y011822D01*
X006584Y011806D01*
X006574Y011792D01*
X006561Y011779D01*
X006547Y011769D01*
X006531Y011762D01*
X006514Y011758D01*
X006497Y011756D01*
X004697Y011856D02*
X004697Y012456D01*
X004695Y012473D01*
X004691Y012490D01*
X004684Y012506D01*
X004674Y012520D01*
X004661Y012533D01*
X004647Y012543D01*
X004631Y012550D01*
X004614Y012554D01*
X004597Y012556D01*
X003597Y012556D01*
X003580Y012554D01*
X003563Y012550D01*
X003547Y012543D01*
X003533Y012533D01*
X003520Y012520D01*
X003510Y012506D01*
X003503Y012490D01*
X003499Y012473D01*
X003497Y012456D01*
X003497Y011856D01*
X003499Y011839D01*
X003503Y011822D01*
X003510Y011806D01*
X003520Y011792D01*
X003533Y011779D01*
X003547Y011769D01*
X003563Y011762D01*
X003580Y011758D01*
X003597Y011756D01*
X004597Y011756D01*
X004614Y011758D01*
X004631Y011762D01*
X004647Y011769D01*
X004661Y011779D01*
X004674Y011792D01*
X004684Y011806D01*
X004691Y011822D01*
X004695Y011839D01*
X004697Y011856D01*
M02*
