G75*
G70*
%OFA0B0*%
%FSLAX24Y24*%
%IPPOS*%
%LPD*%
%AMOC8*
5,1,8,0,0,1.08239X$1,22.5*
%
%ADD10C,0.0000*%
%ADD11C,0.0740*%
%ADD12C,0.0520*%
%ADD13C,0.0515*%
%ADD14C,0.0560*%
%ADD15R,0.0748X0.1339*%
%ADD16OC8,0.1000*%
%ADD17R,0.0472X0.0984*%
%ADD18R,0.0500X0.0250*%
%ADD19R,0.0630X0.0709*%
%ADD20R,0.0709X0.0630*%
%ADD21R,0.0250X0.0500*%
%ADD22R,0.0236X0.0866*%
%ADD23R,0.0600X0.0300*%
%ADD24R,0.0600X0.0400*%
%ADD25R,0.0800X0.0600*%
%ADD26R,0.0600X0.0600*%
%ADD27C,0.0100*%
%ADD28C,0.0240*%
%ADD29C,0.0356*%
%ADD30C,0.0160*%
%ADD31C,0.0120*%
D10*
X000897Y000151D02*
X000897Y019646D01*
X020382Y019636D01*
X020382Y000151D01*
X000897Y000151D01*
X017463Y012525D02*
X017465Y012551D01*
X017471Y012577D01*
X017480Y012601D01*
X017493Y012624D01*
X017510Y012644D01*
X017529Y012662D01*
X017551Y012677D01*
X017574Y012688D01*
X017599Y012696D01*
X017625Y012700D01*
X017651Y012700D01*
X017677Y012696D01*
X017702Y012688D01*
X017726Y012677D01*
X017747Y012662D01*
X017766Y012644D01*
X017783Y012624D01*
X017796Y012601D01*
X017805Y012577D01*
X017811Y012551D01*
X017813Y012525D01*
X017811Y012499D01*
X017805Y012473D01*
X017796Y012449D01*
X017783Y012426D01*
X017766Y012406D01*
X017747Y012388D01*
X017725Y012373D01*
X017702Y012362D01*
X017677Y012354D01*
X017651Y012350D01*
X017625Y012350D01*
X017599Y012354D01*
X017574Y012362D01*
X017550Y012373D01*
X017529Y012388D01*
X017510Y012406D01*
X017493Y012426D01*
X017480Y012449D01*
X017471Y012473D01*
X017465Y012499D01*
X017463Y012525D01*
X017463Y015675D02*
X017465Y015701D01*
X017471Y015727D01*
X017480Y015751D01*
X017493Y015774D01*
X017510Y015794D01*
X017529Y015812D01*
X017551Y015827D01*
X017574Y015838D01*
X017599Y015846D01*
X017625Y015850D01*
X017651Y015850D01*
X017677Y015846D01*
X017702Y015838D01*
X017726Y015827D01*
X017747Y015812D01*
X017766Y015794D01*
X017783Y015774D01*
X017796Y015751D01*
X017805Y015727D01*
X017811Y015701D01*
X017813Y015675D01*
X017811Y015649D01*
X017805Y015623D01*
X017796Y015599D01*
X017783Y015576D01*
X017766Y015556D01*
X017747Y015538D01*
X017725Y015523D01*
X017702Y015512D01*
X017677Y015504D01*
X017651Y015500D01*
X017625Y015500D01*
X017599Y015504D01*
X017574Y015512D01*
X017550Y015523D01*
X017529Y015538D01*
X017510Y015556D01*
X017493Y015576D01*
X017480Y015599D01*
X017471Y015623D01*
X017465Y015649D01*
X017463Y015675D01*
D11*
X017647Y017901D03*
X016647Y017901D03*
X015647Y017901D03*
X014647Y017901D03*
X013647Y017901D03*
X012647Y017901D03*
X011647Y017901D03*
X010647Y017901D03*
X009647Y017901D03*
X008647Y017901D03*
X007647Y017901D03*
X006647Y017901D03*
X006647Y018901D03*
X007647Y018901D03*
X008647Y018901D03*
X009647Y018901D03*
X010647Y018901D03*
X011647Y018901D03*
X012647Y018901D03*
X013647Y018901D03*
X014647Y018901D03*
X015647Y018901D03*
X016647Y018901D03*
X017647Y018901D03*
X018647Y018901D03*
X019647Y018901D03*
X019647Y017901D03*
X018647Y017901D03*
X001697Y006451D03*
X001697Y005451D03*
X001647Y007751D03*
X001647Y008751D03*
X001647Y009751D03*
X001647Y010751D03*
X001647Y011751D03*
X001647Y012751D03*
X001647Y013901D03*
X001647Y014901D03*
X001647Y015901D03*
X001647Y016901D03*
X001647Y017901D03*
X001647Y018901D03*
X001647Y001901D03*
X001647Y000901D03*
X002647Y000901D03*
X003647Y000901D03*
X003647Y001901D03*
X002647Y001901D03*
X006647Y001901D03*
X006647Y000901D03*
X007647Y000901D03*
X008647Y000901D03*
X009647Y000901D03*
X010647Y000901D03*
X011647Y000901D03*
X012647Y000901D03*
X013647Y000901D03*
X014647Y000901D03*
X015647Y000901D03*
X016647Y000901D03*
X017647Y000901D03*
X018647Y000901D03*
X019647Y000901D03*
X019647Y001901D03*
X018647Y001901D03*
X017647Y001901D03*
X016647Y001901D03*
X015647Y001901D03*
X014647Y001901D03*
X013647Y001901D03*
X012647Y001901D03*
X011647Y001901D03*
X010647Y001901D03*
X009647Y001901D03*
X008647Y001901D03*
X007647Y001901D03*
D12*
X012247Y006551D03*
X014147Y006551D03*
X016347Y006151D03*
X017347Y006151D03*
D13*
X009940Y007113D03*
X009153Y007113D03*
X008366Y007113D03*
X007578Y007113D03*
X006791Y007113D03*
X006003Y007113D03*
X005216Y007113D03*
X004429Y007113D03*
X003641Y007113D03*
X002854Y007113D03*
X002854Y015774D03*
X003641Y015774D03*
X004429Y015774D03*
X005216Y015774D03*
X006003Y015774D03*
X006791Y015774D03*
X007578Y015774D03*
X008366Y015774D03*
X009153Y015774D03*
X009940Y015774D03*
D14*
X005577Y005751D02*
X005017Y005751D01*
X005017Y004751D02*
X005577Y004751D01*
X005577Y003751D02*
X005017Y003751D01*
X003877Y003751D02*
X003317Y003751D01*
X003317Y004751D02*
X003877Y004751D01*
X003877Y005751D02*
X003317Y005751D01*
D15*
X006879Y003901D03*
X008415Y003901D03*
D16*
X001747Y004351D03*
X001747Y003201D03*
D17*
X012997Y003751D03*
X014297Y003751D03*
D18*
X014197Y005474D03*
X014197Y005828D03*
X012297Y005828D03*
X012297Y005474D03*
X011997Y004051D03*
X011997Y003701D03*
X011997Y003351D03*
X016347Y005174D03*
X016347Y005528D03*
X017347Y005528D03*
X017347Y005174D03*
X004297Y007774D03*
X004297Y008128D03*
D19*
X013446Y009551D03*
X014548Y009551D03*
X015446Y009551D03*
X016548Y009551D03*
X018546Y004801D03*
X019648Y004801D03*
D20*
X012397Y009400D03*
X011297Y009400D03*
X010247Y009390D03*
X009197Y009400D03*
X009197Y010502D03*
X010247Y010492D03*
X011297Y010502D03*
X012397Y010502D03*
X012097Y013400D03*
X011097Y013400D03*
X010097Y013400D03*
X009097Y013400D03*
X008097Y013400D03*
X007097Y013400D03*
X007097Y014502D03*
X008097Y014502D03*
X009097Y014502D03*
X010097Y014502D03*
X011097Y014502D03*
X012097Y014502D03*
X002997Y017300D03*
X002997Y018402D03*
X010397Y004502D03*
X010397Y003400D03*
D21*
X006824Y007951D03*
X006470Y007951D03*
X005774Y007951D03*
X005420Y007951D03*
X005647Y011501D03*
X005997Y011501D03*
X006347Y011501D03*
X003997Y011501D03*
X003647Y011501D03*
X003297Y011501D03*
X018747Y003501D03*
X019097Y003501D03*
X019447Y003501D03*
D22*
X019647Y006478D03*
X019147Y006478D03*
X018647Y006478D03*
X018147Y006478D03*
X018147Y008525D03*
X018647Y008525D03*
X019147Y008525D03*
X019647Y008525D03*
D23*
X013347Y012919D03*
X013347Y013352D03*
X013347Y013785D03*
X013347Y014218D03*
X013347Y014651D03*
X013347Y015084D03*
X013347Y015517D03*
X013347Y015950D03*
X013347Y016383D03*
D24*
X013583Y016913D03*
D25*
X017431Y016777D03*
X017431Y010714D03*
D26*
X013501Y011037D03*
D27*
X013551Y010991D02*
X014150Y010991D01*
X014169Y011037D02*
X014119Y010916D01*
X014119Y010786D01*
X014162Y010681D01*
X013942Y010681D01*
X013951Y010717D01*
X013951Y010987D01*
X013551Y010987D01*
X013551Y011086D01*
X013951Y011086D01*
X013951Y011356D01*
X013941Y011394D01*
X013921Y011429D01*
X013893Y011457D01*
X013859Y011476D01*
X013821Y011487D01*
X013551Y011487D01*
X013551Y011087D01*
X013451Y011087D01*
X013451Y011487D01*
X013182Y011487D01*
X013143Y011476D01*
X013109Y011457D01*
X013081Y011429D01*
X013062Y011394D01*
X013051Y011356D01*
X013051Y011130D01*
X012980Y011201D01*
X012814Y011201D01*
X011880Y011201D01*
X011714Y011201D01*
X011713Y011201D01*
X011596Y011084D01*
X011479Y010967D01*
X011105Y010967D01*
X011125Y011016D01*
X011125Y011146D01*
X011075Y011267D01*
X010983Y011359D01*
X010862Y011409D01*
X010732Y011409D01*
X010611Y011359D01*
X010519Y011267D01*
X010511Y011249D01*
X010475Y011337D01*
X010383Y011429D01*
X010262Y011479D01*
X010132Y011479D01*
X010011Y011429D01*
X009933Y011351D01*
X009929Y011351D01*
X009763Y011351D01*
X009625Y011213D01*
X009625Y011216D01*
X009575Y011337D01*
X009483Y011429D01*
X009362Y011479D01*
X009232Y011479D01*
X009220Y011475D01*
X009225Y011486D01*
X009225Y011616D01*
X009175Y011737D01*
X009083Y011829D01*
X008962Y011879D01*
X008958Y011879D01*
X009130Y012051D01*
X011564Y012051D01*
X011947Y011668D01*
X012064Y011551D01*
X013964Y011551D01*
X014349Y011166D01*
X014261Y011129D01*
X014169Y011037D01*
X014221Y011089D02*
X013951Y011089D01*
X013951Y011188D02*
X014327Y011188D01*
X014229Y011287D02*
X013951Y011287D01*
X013944Y011385D02*
X014130Y011385D01*
X014032Y011484D02*
X013832Y011484D01*
X013551Y011484D02*
X013451Y011484D01*
X013451Y011385D02*
X013551Y011385D01*
X013551Y011287D02*
X013451Y011287D01*
X013451Y011188D02*
X013551Y011188D01*
X013551Y011089D02*
X013451Y011089D01*
X013051Y011188D02*
X012993Y011188D01*
X013051Y011287D02*
X011056Y011287D01*
X011108Y011188D02*
X011700Y011188D01*
X011601Y011089D02*
X011125Y011089D01*
X011115Y010991D02*
X011503Y010991D01*
X011796Y011001D02*
X011797Y011001D01*
X011347Y010551D01*
X011347Y010051D01*
X011247Y009951D01*
X007497Y009951D01*
X007097Y009551D01*
X005847Y009551D01*
X005197Y010201D01*
X004147Y010201D01*
X003297Y011051D01*
X003297Y011501D01*
X003022Y011484D02*
X002962Y011484D01*
X002930Y011451D02*
X003022Y011543D01*
X003022Y011189D01*
X003097Y011114D01*
X003097Y010968D01*
X003214Y010851D01*
X004064Y010001D01*
X004230Y010001D01*
X005114Y010001D01*
X005299Y009816D01*
X005211Y009779D01*
X005119Y009687D01*
X005069Y009566D01*
X005069Y009436D01*
X005119Y009315D01*
X005211Y009223D01*
X005332Y009173D01*
X005450Y009173D01*
X005517Y009106D01*
X005652Y008971D01*
X007434Y008971D01*
X007314Y008851D01*
X007014Y008851D01*
X006897Y008734D01*
X006764Y008601D01*
X006164Y008601D01*
X006047Y008484D01*
X005914Y008351D01*
X005607Y008351D01*
X005233Y008351D01*
X005145Y008263D01*
X005145Y008017D01*
X005133Y008029D01*
X005012Y008079D01*
X004882Y008079D01*
X004761Y008029D01*
X004697Y007965D01*
X004697Y008315D01*
X004609Y008403D01*
X004497Y008403D01*
X004497Y009034D01*
X004430Y009101D01*
X004497Y009168D01*
X004497Y009334D01*
X004497Y009337D01*
X004575Y009415D01*
X004625Y009536D01*
X004625Y009666D01*
X004575Y009787D01*
X004483Y009879D01*
X004362Y009929D01*
X004232Y009929D01*
X004111Y009879D01*
X004019Y009787D01*
X003969Y009666D01*
X003969Y009536D01*
X004019Y009415D01*
X004097Y009337D01*
X004097Y009334D01*
X003997Y009234D01*
X003997Y009134D01*
X003997Y008968D01*
X004097Y008868D01*
X004097Y008403D01*
X003985Y008403D01*
X003897Y008315D01*
X003897Y007941D01*
X003897Y007587D01*
X003985Y007499D01*
X004296Y007499D01*
X004198Y007458D01*
X004083Y007344D01*
X004035Y007227D01*
X003986Y007344D01*
X003872Y007458D01*
X003841Y007471D01*
X003841Y008674D01*
X003841Y008840D01*
X002128Y010553D01*
X002167Y010648D01*
X002167Y010855D01*
X002128Y010949D01*
X002630Y011451D01*
X002930Y011451D01*
X003022Y011385D02*
X002564Y011385D01*
X002465Y011287D02*
X003022Y011287D01*
X003023Y011188D02*
X002367Y011188D01*
X002268Y011089D02*
X003097Y011089D01*
X003097Y010991D02*
X002170Y010991D01*
X002151Y010892D02*
X003173Y010892D01*
X003271Y010794D02*
X002167Y010794D01*
X002167Y010695D02*
X003370Y010695D01*
X003469Y010597D02*
X002146Y010597D01*
X002183Y010498D02*
X003567Y010498D01*
X003666Y010400D02*
X002281Y010400D01*
X002380Y010301D02*
X003764Y010301D01*
X003863Y010203D02*
X002478Y010203D01*
X002577Y010104D02*
X003961Y010104D01*
X004060Y010006D02*
X002675Y010006D01*
X002774Y009907D02*
X004178Y009907D01*
X004040Y009808D02*
X002873Y009808D01*
X002971Y009710D02*
X003987Y009710D01*
X003969Y009611D02*
X003070Y009611D01*
X003168Y009513D02*
X003978Y009513D01*
X004020Y009414D02*
X003267Y009414D01*
X003365Y009316D02*
X004079Y009316D01*
X003997Y009217D02*
X003464Y009217D01*
X003562Y009119D02*
X003997Y009119D01*
X003997Y009020D02*
X003661Y009020D01*
X003759Y008922D02*
X004044Y008922D01*
X004097Y008823D02*
X003841Y008823D01*
X003841Y008724D02*
X004097Y008724D01*
X004097Y008626D02*
X003841Y008626D01*
X003841Y008527D02*
X004097Y008527D01*
X004097Y008429D02*
X003841Y008429D01*
X003841Y008330D02*
X003912Y008330D01*
X003897Y008232D02*
X003841Y008232D01*
X003841Y008133D02*
X003897Y008133D01*
X003897Y008035D02*
X003841Y008035D01*
X003841Y007936D02*
X003897Y007936D01*
X003897Y007838D02*
X003841Y007838D01*
X003841Y007739D02*
X003897Y007739D01*
X003897Y007640D02*
X003841Y007640D01*
X003841Y007542D02*
X003942Y007542D01*
X003887Y007443D02*
X004183Y007443D01*
X004084Y007345D02*
X003985Y007345D01*
X004027Y007246D02*
X004043Y007246D01*
X004035Y006999D02*
X004083Y006882D01*
X004198Y006768D01*
X004347Y006706D01*
X004510Y006706D01*
X004659Y006768D01*
X004774Y006882D01*
X004822Y006999D01*
X004870Y006882D01*
X004985Y006768D01*
X005135Y006706D01*
X005297Y006706D01*
X005447Y006768D01*
X005561Y006882D01*
X005610Y006999D01*
X005658Y006882D01*
X005772Y006768D01*
X005922Y006706D01*
X006084Y006706D01*
X006234Y006768D01*
X006349Y006882D01*
X006397Y006999D01*
X006445Y006882D01*
X006560Y006768D01*
X006710Y006706D01*
X006872Y006706D01*
X007021Y006768D01*
X007136Y006882D01*
X007184Y006999D01*
X007233Y006882D01*
X007347Y006768D01*
X007497Y006706D01*
X007659Y006706D01*
X007809Y006768D01*
X007924Y006882D01*
X007972Y006999D01*
X008020Y006882D01*
X008135Y006768D01*
X008284Y006706D01*
X008447Y006706D01*
X008596Y006768D01*
X008711Y006882D01*
X008759Y006999D01*
X008807Y006882D01*
X008922Y006768D01*
X009072Y006706D01*
X009234Y006706D01*
X009384Y006768D01*
X009498Y006882D01*
X009548Y007002D01*
X009563Y006957D01*
X009592Y006899D01*
X009629Y006848D01*
X009675Y006802D01*
X009727Y006764D01*
X009784Y006735D01*
X009845Y006716D01*
X009908Y006706D01*
X009911Y006706D01*
X009911Y007084D01*
X009969Y007084D01*
X009969Y006706D01*
X009972Y006706D01*
X010036Y006716D01*
X010097Y006735D01*
X010154Y006764D01*
X010206Y006802D01*
X010251Y006848D01*
X010289Y006899D01*
X010318Y006957D01*
X010338Y007018D01*
X010348Y007081D01*
X010348Y007084D01*
X009969Y007084D01*
X009969Y007142D01*
X009911Y007142D01*
X009911Y007520D01*
X009908Y007520D01*
X009845Y007510D01*
X009784Y007491D01*
X009727Y007461D01*
X009675Y007424D01*
X009629Y007378D01*
X009592Y007327D01*
X009563Y007269D01*
X009548Y007224D01*
X009498Y007344D01*
X009384Y007458D01*
X009234Y007520D01*
X009161Y007520D01*
X008930Y007751D01*
X008764Y007751D01*
X007099Y007751D01*
X007099Y007943D01*
X007407Y008251D01*
X010880Y008251D01*
X010906Y008278D01*
X010911Y008273D01*
X011032Y008223D01*
X011162Y008223D01*
X011283Y008273D01*
X011375Y008365D01*
X011425Y008486D01*
X011425Y008616D01*
X011375Y008737D01*
X011283Y008829D01*
X011162Y008879D01*
X011032Y008879D01*
X010911Y008829D01*
X010833Y008751D01*
X010814Y008751D01*
X010714Y008651D01*
X010040Y008651D01*
X010075Y008736D01*
X010075Y008866D01*
X010051Y008925D01*
X010663Y008925D01*
X010751Y009013D01*
X010751Y009160D01*
X010793Y009160D01*
X010793Y009023D01*
X010881Y008935D01*
X011713Y008935D01*
X011801Y009023D01*
X011801Y009170D01*
X011893Y009170D01*
X011893Y009023D01*
X011980Y008936D01*
X011891Y008899D01*
X011799Y008807D01*
X011749Y008686D01*
X011749Y008556D01*
X011799Y008435D01*
X011891Y008343D01*
X012012Y008293D01*
X012142Y008293D01*
X012263Y008343D01*
X012321Y008401D01*
X016239Y008401D01*
X016239Y008366D01*
X016289Y008245D01*
X016381Y008153D01*
X016482Y008111D01*
X016102Y007731D01*
X011742Y007731D01*
X011552Y007731D01*
X010302Y006481D01*
X004192Y006481D01*
X004002Y006481D01*
X003702Y006181D01*
X003332Y006181D01*
X003433Y006223D01*
X003525Y006315D01*
X003575Y006436D01*
X003575Y006566D01*
X003525Y006687D01*
X003469Y006743D01*
X003560Y006706D01*
X003722Y006706D01*
X003872Y006768D01*
X003986Y006882D01*
X004035Y006999D01*
X004015Y006951D02*
X004055Y006951D01*
X004113Y006852D02*
X003956Y006852D01*
X003838Y006754D02*
X004231Y006754D01*
X004626Y006754D02*
X005019Y006754D01*
X004901Y006852D02*
X004744Y006852D01*
X004802Y006951D02*
X004842Y006951D01*
X005413Y006754D02*
X005806Y006754D01*
X005688Y006852D02*
X005531Y006852D01*
X005590Y006951D02*
X005629Y006951D01*
X005935Y007113D02*
X006003Y007113D01*
X005935Y007113D02*
X005497Y007551D01*
X005497Y007874D01*
X005420Y007951D01*
X005145Y008035D02*
X005120Y008035D01*
X005145Y008133D02*
X004697Y008133D01*
X004697Y008035D02*
X004774Y008035D01*
X004697Y008232D02*
X005145Y008232D01*
X005212Y008330D02*
X004682Y008330D01*
X004497Y008429D02*
X005992Y008429D01*
X006090Y008527D02*
X004497Y008527D01*
X004497Y008626D02*
X006789Y008626D01*
X006887Y008724D02*
X004497Y008724D01*
X004497Y008823D02*
X006986Y008823D01*
X007097Y008651D02*
X007397Y008651D01*
X007647Y008901D01*
X009647Y008901D01*
X009747Y008801D01*
X010052Y008922D02*
X011945Y008922D01*
X011895Y009020D02*
X011799Y009020D01*
X011801Y009119D02*
X011893Y009119D01*
X011815Y008823D02*
X011289Y008823D01*
X011380Y008724D02*
X011765Y008724D01*
X011749Y008626D02*
X011421Y008626D01*
X011425Y008527D02*
X011761Y008527D01*
X011805Y008429D02*
X011401Y008429D01*
X011340Y008330D02*
X011922Y008330D01*
X012232Y008330D02*
X016254Y008330D01*
X016302Y008232D02*
X011183Y008232D01*
X011011Y008232D02*
X007388Y008232D01*
X007289Y008133D02*
X016429Y008133D01*
X016405Y008035D02*
X007190Y008035D01*
X007099Y007936D02*
X016307Y007936D01*
X016208Y007838D02*
X007099Y007838D01*
X006824Y007951D02*
X007324Y008451D01*
X010797Y008451D01*
X010897Y008551D01*
X011097Y008551D01*
X010905Y008823D02*
X010075Y008823D01*
X010070Y008724D02*
X010787Y008724D01*
X010795Y009020D02*
X010751Y009020D01*
X010751Y009119D02*
X010793Y009119D01*
X012077Y008621D02*
X012097Y008601D01*
X016397Y008601D01*
X016567Y008431D01*
X017056Y008035D02*
X017124Y008035D01*
X017127Y008027D02*
X017011Y007979D01*
X016919Y007887D01*
X016869Y007766D01*
X016869Y007636D01*
X016919Y007515D01*
X016997Y007437D01*
X016997Y007294D01*
X016997Y007128D01*
X017637Y006488D01*
X017637Y006441D01*
X017579Y006499D01*
X017429Y006561D01*
X017265Y006561D01*
X017115Y006499D01*
X016999Y006383D01*
X016937Y006233D01*
X016937Y006070D01*
X016999Y005919D01*
X017115Y005804D01*
X017116Y005803D01*
X017035Y005803D01*
X016947Y005715D01*
X016947Y005361D01*
X016947Y004987D01*
X017035Y004899D01*
X017147Y004899D01*
X017147Y002284D01*
X017147Y002118D01*
X017166Y002099D01*
X017147Y002053D01*
X017088Y002196D01*
X016942Y002342D01*
X016797Y002402D01*
X016797Y004934D01*
X016746Y004985D01*
X016747Y004987D01*
X016747Y005361D01*
X016747Y005715D01*
X016659Y005803D01*
X016578Y005803D01*
X016579Y005804D01*
X016695Y005919D01*
X016757Y006070D01*
X016757Y006233D01*
X016695Y006383D01*
X016579Y006499D01*
X016429Y006561D01*
X016265Y006561D01*
X016115Y006499D01*
X015999Y006383D01*
X015937Y006233D01*
X015937Y006070D01*
X015999Y005919D01*
X016115Y005804D01*
X016116Y005803D01*
X016035Y005803D01*
X015947Y005715D01*
X015947Y005361D01*
X015947Y004987D01*
X016035Y004899D01*
X016266Y004899D01*
X016397Y004768D01*
X016397Y002360D01*
X016352Y002342D01*
X016206Y002196D01*
X016147Y002053D01*
X016088Y002196D01*
X015942Y002342D01*
X015847Y002381D01*
X015847Y002718D01*
X015847Y002884D01*
X015197Y003534D01*
X015197Y004534D01*
X015080Y004651D01*
X014521Y005210D01*
X014597Y005287D01*
X014597Y005661D01*
X014597Y006015D01*
X014509Y006103D01*
X014347Y006103D01*
X014347Y006190D01*
X014379Y006204D01*
X014495Y006319D01*
X014557Y006470D01*
X014557Y006633D01*
X014495Y006783D01*
X014379Y006899D01*
X014229Y006961D01*
X014065Y006961D01*
X013915Y006899D01*
X013799Y006783D01*
X013737Y006633D01*
X013737Y006470D01*
X013799Y006319D01*
X013915Y006204D01*
X013947Y006190D01*
X013947Y006103D01*
X013885Y006103D01*
X013797Y006015D01*
X013797Y005661D01*
X013797Y005287D01*
X013885Y005199D01*
X013997Y005199D01*
X013997Y005168D01*
X014797Y004368D01*
X014797Y003534D01*
X014797Y003368D01*
X015447Y002718D01*
X015447Y002381D01*
X015352Y002342D01*
X015206Y002196D01*
X015147Y002053D01*
X015088Y002196D01*
X014942Y002342D01*
X014750Y002421D01*
X014544Y002421D01*
X014449Y002382D01*
X013897Y002934D01*
X013897Y004234D01*
X013780Y004351D01*
X012697Y005434D01*
X012697Y005661D01*
X012697Y006015D01*
X012609Y006103D01*
X012447Y006103D01*
X012447Y006190D01*
X012479Y006204D01*
X012595Y006319D01*
X012657Y006470D01*
X012657Y006633D01*
X012595Y006783D01*
X012479Y006899D01*
X012329Y006961D01*
X012165Y006961D01*
X012015Y006899D01*
X011899Y006783D01*
X011837Y006633D01*
X011837Y006470D01*
X011899Y006319D01*
X012015Y006204D01*
X012047Y006190D01*
X012047Y006103D01*
X011985Y006103D01*
X011897Y006015D01*
X011897Y005661D01*
X011897Y005287D01*
X011985Y005199D01*
X012366Y005199D01*
X013172Y004393D01*
X012699Y004393D01*
X012611Y004305D01*
X012611Y004261D01*
X012610Y004261D01*
X012374Y004261D01*
X012309Y004326D01*
X011685Y004326D01*
X011597Y004238D01*
X011597Y003998D01*
X011507Y004088D01*
X011507Y006097D01*
X011575Y006165D01*
X011625Y006286D01*
X011625Y006416D01*
X011575Y006537D01*
X011483Y006629D01*
X011362Y006679D01*
X011232Y006679D01*
X011111Y006629D01*
X011019Y006537D01*
X010969Y006416D01*
X010969Y006286D01*
X011019Y006165D01*
X011087Y006097D01*
X011087Y004088D01*
X011087Y003914D01*
X011272Y003729D01*
X011232Y003729D01*
X011111Y003679D01*
X011043Y003611D01*
X010901Y003611D01*
X010901Y003777D01*
X010813Y003865D01*
X009981Y003865D01*
X009893Y003777D01*
X009893Y003023D01*
X009981Y002935D01*
X010813Y002935D01*
X010901Y003023D01*
X010901Y003191D01*
X011043Y003191D01*
X011111Y003123D01*
X011232Y003073D01*
X011362Y003073D01*
X011483Y003123D01*
X011575Y003215D01*
X011597Y003268D01*
X011597Y003164D01*
X011685Y003076D01*
X011787Y003076D01*
X011787Y002406D01*
X011750Y002421D01*
X011544Y002421D01*
X011352Y002342D01*
X011206Y002196D01*
X011147Y002053D01*
X011088Y002196D01*
X010942Y002342D01*
X010750Y002421D01*
X010544Y002421D01*
X010352Y002342D01*
X010206Y002196D01*
X010147Y002053D01*
X010088Y002196D01*
X009942Y002342D01*
X009750Y002421D01*
X009544Y002421D01*
X009352Y002342D01*
X009206Y002196D01*
X009147Y002053D01*
X009088Y002196D01*
X008942Y002342D01*
X008750Y002421D01*
X008544Y002421D01*
X008352Y002342D01*
X008206Y002196D01*
X008147Y002053D01*
X008088Y002196D01*
X007942Y002342D01*
X007750Y002421D01*
X007544Y002421D01*
X007352Y002342D01*
X007206Y002196D01*
X007147Y002053D01*
X007088Y002196D01*
X006942Y002342D01*
X006750Y002421D01*
X006544Y002421D01*
X006352Y002342D01*
X006206Y002196D01*
X006127Y002005D01*
X006127Y001798D01*
X006206Y001607D01*
X006352Y001460D01*
X006417Y001434D01*
X006417Y001369D01*
X006352Y001342D01*
X006206Y001196D01*
X006127Y001005D01*
X006127Y000798D01*
X006206Y000607D01*
X006352Y000460D01*
X006544Y000381D01*
X006750Y000381D01*
X006942Y000460D01*
X007088Y000607D01*
X007147Y000750D01*
X007206Y000607D01*
X007352Y000460D01*
X007544Y000381D01*
X007750Y000381D01*
X007942Y000460D01*
X008088Y000607D01*
X008147Y000750D01*
X008206Y000607D01*
X008352Y000460D01*
X008544Y000381D01*
X008750Y000381D01*
X008942Y000460D01*
X009088Y000607D01*
X009147Y000750D01*
X009206Y000607D01*
X009352Y000460D01*
X009544Y000381D01*
X009750Y000381D01*
X009942Y000460D01*
X010088Y000607D01*
X010147Y000750D01*
X010206Y000607D01*
X010352Y000460D01*
X010544Y000381D01*
X010750Y000381D01*
X010942Y000460D01*
X011088Y000607D01*
X011147Y000750D01*
X011206Y000607D01*
X011352Y000460D01*
X011544Y000381D01*
X011750Y000381D01*
X011942Y000460D01*
X012088Y000607D01*
X012147Y000750D01*
X012206Y000607D01*
X012352Y000460D01*
X012544Y000381D01*
X012750Y000381D01*
X012942Y000460D01*
X013088Y000607D01*
X013148Y000753D01*
X013165Y000702D01*
X013202Y000629D01*
X013250Y000562D01*
X013308Y000505D01*
X013374Y000456D01*
X013447Y000419D01*
X013525Y000394D01*
X013597Y000383D01*
X013597Y000851D01*
X013697Y000851D01*
X013697Y000383D01*
X013769Y000394D01*
X013847Y000419D01*
X013920Y000456D01*
X013986Y000505D01*
X014044Y000562D01*
X014092Y000629D01*
X014129Y000702D01*
X014146Y000753D01*
X014206Y000607D01*
X014352Y000460D01*
X014544Y000381D01*
X014750Y000381D01*
X014942Y000460D01*
X015088Y000607D01*
X015147Y000750D01*
X015206Y000607D01*
X015352Y000460D01*
X015544Y000381D01*
X015750Y000381D01*
X015942Y000460D01*
X016088Y000607D01*
X016147Y000750D01*
X016206Y000607D01*
X016352Y000460D01*
X016544Y000381D01*
X016750Y000381D01*
X016942Y000460D01*
X017088Y000607D01*
X017147Y000750D01*
X017206Y000607D01*
X017352Y000460D01*
X017544Y000381D01*
X017750Y000381D01*
X017942Y000460D01*
X018088Y000607D01*
X018147Y000750D01*
X018206Y000607D01*
X018352Y000460D01*
X018544Y000381D01*
X018750Y000381D01*
X018942Y000460D01*
X019088Y000607D01*
X019147Y000750D01*
X019206Y000607D01*
X019352Y000460D01*
X019544Y000381D01*
X019750Y000381D01*
X019942Y000460D01*
X020088Y000607D01*
X020167Y000798D01*
X020167Y001005D01*
X020088Y001196D01*
X019942Y001342D01*
X019877Y001369D01*
X019877Y001434D01*
X019942Y001460D01*
X020088Y001607D01*
X020167Y001798D01*
X020167Y002005D01*
X020088Y002196D01*
X019942Y002342D01*
X019750Y002421D01*
X019544Y002421D01*
X019352Y002342D01*
X019206Y002196D01*
X019147Y002053D01*
X019088Y002196D01*
X018942Y002342D01*
X018750Y002421D01*
X018544Y002421D01*
X018352Y002342D01*
X018206Y002196D01*
X018147Y002053D01*
X018088Y002196D01*
X017942Y002342D01*
X017750Y002421D01*
X017547Y002421D01*
X017547Y004899D01*
X017659Y004899D01*
X017747Y004987D01*
X017747Y005361D01*
X017747Y005578D01*
X017837Y005488D01*
X017837Y004494D01*
X017837Y004328D01*
X018472Y003693D01*
X018472Y003189D01*
X018510Y003151D01*
X018411Y003151D01*
X018333Y003229D01*
X018212Y003279D01*
X018082Y003279D01*
X017961Y003229D01*
X017869Y003137D01*
X017819Y003016D01*
X017819Y002886D01*
X017869Y002765D01*
X017961Y002673D01*
X018082Y002623D01*
X018212Y002623D01*
X018333Y002673D01*
X018411Y002751D01*
X019064Y002751D01*
X019230Y002751D01*
X019520Y003041D01*
X019534Y003041D01*
X019594Y003101D01*
X019634Y003101D01*
X019722Y003189D01*
X019722Y003813D01*
X019634Y003901D01*
X019530Y003901D01*
X019630Y004001D01*
X019864Y004001D01*
X020030Y004001D01*
X020232Y004203D01*
X020232Y000301D01*
X001047Y000301D01*
X001047Y019496D01*
X020232Y019486D01*
X020232Y009799D01*
X018130Y011901D01*
X017964Y011901D01*
X017080Y011901D01*
X016530Y012451D01*
X016364Y012451D01*
X015480Y012451D01*
X015447Y012484D01*
X015447Y014318D01*
X015447Y014484D01*
X014347Y015584D01*
X014230Y015701D01*
X013797Y015701D01*
X013797Y015729D01*
X013793Y015734D01*
X013797Y015738D01*
X013797Y016163D01*
X013793Y016167D01*
X013797Y016171D01*
X013797Y016563D01*
X013903Y016563D01*
X013941Y016574D01*
X013975Y016593D01*
X014003Y016621D01*
X014023Y016655D01*
X014033Y016694D01*
X014033Y016801D01*
X014069Y016715D01*
X014161Y016623D01*
X014282Y016573D01*
X014412Y016573D01*
X014533Y016623D01*
X014625Y016715D01*
X014675Y016836D01*
X014675Y016966D01*
X014625Y017087D01*
X014577Y017135D01*
X014577Y017146D01*
X014277Y017446D01*
X014142Y017581D01*
X014062Y017581D01*
X014088Y017607D01*
X014147Y017750D01*
X014206Y017607D01*
X014352Y017460D01*
X014544Y017381D01*
X014750Y017381D01*
X014942Y017460D01*
X015088Y017607D01*
X015148Y017753D01*
X015165Y017702D01*
X015202Y017629D01*
X015250Y017562D01*
X015308Y017505D01*
X015374Y017456D01*
X015447Y017419D01*
X015525Y017394D01*
X015597Y017383D01*
X015597Y017851D01*
X015697Y017851D01*
X015697Y017383D01*
X015769Y017394D01*
X015847Y017419D01*
X015920Y017456D01*
X015986Y017505D01*
X016044Y017562D01*
X016092Y017629D01*
X016129Y017702D01*
X016146Y017753D01*
X016206Y017607D01*
X016352Y017460D01*
X016544Y017381D01*
X016750Y017381D01*
X016942Y017460D01*
X017088Y017607D01*
X017147Y017750D01*
X017206Y017607D01*
X017352Y017460D01*
X017544Y017381D01*
X017750Y017381D01*
X017942Y017460D01*
X018088Y017607D01*
X018147Y017750D01*
X018206Y017607D01*
X018352Y017460D01*
X018544Y017381D01*
X018750Y017381D01*
X018942Y017460D01*
X019088Y017607D01*
X019147Y017750D01*
X019206Y017607D01*
X019352Y017460D01*
X019447Y017421D01*
X019447Y017084D01*
X018564Y016201D01*
X018447Y016084D01*
X018447Y015634D01*
X017464Y014651D01*
X017347Y014534D01*
X017347Y013715D01*
X017319Y013687D01*
X017269Y013566D01*
X017269Y013436D01*
X017319Y013315D01*
X017411Y013223D01*
X017532Y013173D01*
X017662Y013173D01*
X017783Y013223D01*
X017875Y013315D01*
X017925Y013436D01*
X017925Y013566D01*
X017875Y013687D01*
X017783Y013779D01*
X017747Y013794D01*
X017747Y014368D01*
X018847Y015468D01*
X018847Y015634D01*
X018847Y015918D01*
X020232Y015918D01*
X020232Y015820D02*
X018847Y015820D01*
X018847Y015918D02*
X019847Y016918D01*
X019847Y017084D01*
X019847Y017421D01*
X019942Y017460D01*
X020088Y017607D01*
X020167Y017798D01*
X020167Y018005D01*
X020088Y018196D01*
X019942Y018342D01*
X019877Y018369D01*
X019877Y018434D01*
X019942Y018460D01*
X020088Y018607D01*
X020167Y018798D01*
X020167Y019005D01*
X020088Y019196D01*
X019942Y019342D01*
X019750Y019421D01*
X019544Y019421D01*
X019352Y019342D01*
X019206Y019196D01*
X019147Y019053D01*
X019088Y019196D01*
X018942Y019342D01*
X018750Y019421D01*
X018544Y019421D01*
X018352Y019342D01*
X018206Y019196D01*
X018147Y019053D01*
X018088Y019196D01*
X017942Y019342D01*
X017750Y019421D01*
X017544Y019421D01*
X017352Y019342D01*
X017206Y019196D01*
X017147Y019053D01*
X017088Y019196D01*
X016942Y019342D01*
X016750Y019421D01*
X016544Y019421D01*
X016352Y019342D01*
X016206Y019196D01*
X016146Y019049D01*
X016129Y019101D01*
X016092Y019174D01*
X016044Y019240D01*
X015986Y019298D01*
X015920Y019346D01*
X015847Y019383D01*
X015769Y019408D01*
X015697Y019420D01*
X015697Y018951D01*
X015597Y018951D01*
X015597Y019420D01*
X015525Y019408D01*
X015447Y019383D01*
X015374Y019346D01*
X015308Y019298D01*
X015250Y019240D01*
X015202Y019174D01*
X015165Y019101D01*
X015148Y019049D01*
X015088Y019196D01*
X014942Y019342D01*
X014750Y019421D01*
X014544Y019421D01*
X014352Y019342D01*
X014206Y019196D01*
X014147Y019053D01*
X014088Y019196D01*
X013942Y019342D01*
X013750Y019421D01*
X013544Y019421D01*
X013352Y019342D01*
X013206Y019196D01*
X013147Y019053D01*
X013088Y019196D01*
X012942Y019342D01*
X012750Y019421D01*
X012544Y019421D01*
X012352Y019342D01*
X012206Y019196D01*
X012147Y019053D01*
X012088Y019196D01*
X011942Y019342D01*
X011750Y019421D01*
X011544Y019421D01*
X011352Y019342D01*
X011206Y019196D01*
X011147Y019053D01*
X011088Y019196D01*
X010942Y019342D01*
X010750Y019421D01*
X010544Y019421D01*
X010352Y019342D01*
X010206Y019196D01*
X010147Y019053D01*
X010088Y019196D01*
X009942Y019342D01*
X009750Y019421D01*
X009544Y019421D01*
X009352Y019342D01*
X009206Y019196D01*
X009147Y019053D01*
X009088Y019196D01*
X008942Y019342D01*
X008750Y019421D01*
X008544Y019421D01*
X008352Y019342D01*
X008206Y019196D01*
X008147Y019053D01*
X008088Y019196D01*
X007942Y019342D01*
X007750Y019421D01*
X007544Y019421D01*
X007352Y019342D01*
X007206Y019196D01*
X007147Y019053D01*
X007088Y019196D01*
X006942Y019342D01*
X006750Y019421D01*
X006544Y019421D01*
X006352Y019342D01*
X006206Y019196D01*
X006127Y019005D01*
X006127Y018798D01*
X006206Y018607D01*
X006352Y018460D01*
X006417Y018434D01*
X006417Y018369D01*
X006352Y018342D01*
X006206Y018196D01*
X006127Y018005D01*
X006127Y017798D01*
X006206Y017607D01*
X006352Y017460D01*
X006544Y017381D01*
X006750Y017381D01*
X006942Y017460D01*
X007088Y017607D01*
X007147Y017750D01*
X007206Y017607D01*
X007352Y017460D01*
X007544Y017381D01*
X007750Y017381D01*
X007942Y017460D01*
X008088Y017607D01*
X008147Y017750D01*
X008206Y017607D01*
X008352Y017460D01*
X008544Y017381D01*
X008750Y017381D01*
X008942Y017460D01*
X009088Y017607D01*
X009147Y017750D01*
X009206Y017607D01*
X009352Y017460D01*
X009544Y017381D01*
X009750Y017381D01*
X009942Y017460D01*
X010088Y017607D01*
X010147Y017750D01*
X010206Y017607D01*
X010352Y017460D01*
X010544Y017381D01*
X010750Y017381D01*
X010942Y017460D01*
X011088Y017607D01*
X011147Y017750D01*
X011206Y017607D01*
X011352Y017460D01*
X011544Y017381D01*
X011750Y017381D01*
X011942Y017460D01*
X012088Y017607D01*
X012147Y017750D01*
X012206Y017607D01*
X012352Y017460D01*
X012544Y017381D01*
X012750Y017381D01*
X012753Y017382D01*
X012752Y017381D01*
X012617Y017246D01*
X012617Y017085D01*
X012613Y017081D01*
X012242Y017081D01*
X012052Y017081D01*
X011097Y016126D01*
X010292Y016931D01*
X010102Y016931D01*
X009092Y016931D01*
X008902Y016931D01*
X008802Y016831D01*
X004041Y016831D01*
X004075Y016865D01*
X004125Y016986D01*
X004125Y017116D01*
X004075Y017237D01*
X003983Y017329D01*
X003862Y017379D01*
X003732Y017379D01*
X003611Y017329D01*
X003519Y017237D01*
X003501Y017195D01*
X003501Y017677D01*
X003413Y017765D01*
X002581Y017765D01*
X002493Y017677D01*
X002493Y017381D01*
X002140Y017733D01*
X002167Y017798D01*
X002167Y018005D01*
X002138Y018075D01*
X002142Y018073D01*
X002272Y018073D01*
X002393Y018123D01*
X002471Y018201D01*
X002493Y018201D01*
X002493Y018025D01*
X002581Y017937D01*
X003413Y017937D01*
X003501Y018025D01*
X003501Y018779D01*
X003413Y018867D01*
X003277Y018867D01*
X003295Y018885D01*
X003345Y019006D01*
X003345Y019136D01*
X003295Y019257D01*
X003203Y019349D01*
X003082Y019399D01*
X002952Y019399D01*
X002831Y019349D01*
X002739Y019257D01*
X002695Y019151D01*
X002106Y019151D01*
X002088Y019196D01*
X001942Y019342D01*
X001750Y019421D01*
X001544Y019421D01*
X001352Y019342D01*
X001206Y019196D01*
X001127Y019005D01*
X001127Y018798D01*
X001206Y018607D01*
X001352Y018460D01*
X001495Y018401D01*
X001352Y018342D01*
X001206Y018196D01*
X001127Y018005D01*
X001127Y017798D01*
X001206Y017607D01*
X001352Y017460D01*
X001499Y017400D01*
X001447Y017383D01*
X001374Y017346D01*
X001308Y017298D01*
X001250Y017240D01*
X001202Y017174D01*
X001165Y017101D01*
X001140Y017023D01*
X001128Y016951D01*
X001597Y016951D01*
X001597Y016851D01*
X001128Y016851D01*
X001140Y016779D01*
X001165Y016702D01*
X001202Y016629D01*
X001250Y016562D01*
X001308Y016505D01*
X001374Y016456D01*
X001447Y016419D01*
X001499Y016403D01*
X001352Y016342D01*
X001206Y016196D01*
X001127Y016005D01*
X001127Y015798D01*
X001206Y015607D01*
X001352Y015460D01*
X001495Y015401D01*
X001352Y015342D01*
X001206Y015196D01*
X001127Y015005D01*
X001127Y014798D01*
X001206Y014607D01*
X001352Y014460D01*
X001495Y014401D01*
X001352Y014342D01*
X001206Y014196D01*
X001127Y014005D01*
X001127Y013798D01*
X001206Y013607D01*
X001352Y013460D01*
X001544Y013381D01*
X001750Y013381D01*
X001942Y013460D01*
X002088Y013607D01*
X002167Y013798D01*
X002167Y014005D01*
X002088Y014196D01*
X001942Y014342D01*
X001799Y014401D01*
X001942Y014460D01*
X002088Y014607D01*
X002127Y014701D01*
X002214Y014701D01*
X002380Y014701D01*
X002530Y014851D01*
X005533Y014851D01*
X005519Y014837D01*
X005469Y014716D01*
X005469Y014606D01*
X004764Y013901D01*
X004214Y013901D01*
X004097Y013784D01*
X003964Y013651D01*
X003861Y013651D01*
X003783Y013729D01*
X003662Y013779D01*
X003532Y013779D01*
X003411Y013729D01*
X003319Y013637D01*
X003269Y013516D01*
X003269Y013386D01*
X003304Y013301D01*
X003080Y013301D01*
X002914Y013301D01*
X002101Y012488D01*
X002167Y012648D01*
X002167Y012855D01*
X002088Y013046D01*
X001942Y013192D01*
X001750Y013271D01*
X001544Y013271D01*
X001352Y013192D01*
X001206Y013046D01*
X001127Y012855D01*
X001127Y012648D01*
X001206Y012457D01*
X001352Y012310D01*
X001495Y012251D01*
X001352Y012192D01*
X001206Y012046D01*
X001127Y011855D01*
X001127Y011648D01*
X001206Y011457D01*
X001352Y011310D01*
X001495Y011251D01*
X001352Y011192D01*
X001206Y011046D01*
X001127Y010855D01*
X001127Y010648D01*
X001206Y010457D01*
X001352Y010310D01*
X001495Y010251D01*
X001352Y010192D01*
X001206Y010046D01*
X001127Y009855D01*
X001127Y009648D01*
X001206Y009457D01*
X001352Y009310D01*
X001495Y009251D01*
X001352Y009192D01*
X001206Y009046D01*
X001127Y008855D01*
X001127Y008648D01*
X001206Y008457D01*
X001352Y008310D01*
X001499Y008250D01*
X001447Y008233D01*
X001374Y008196D01*
X001308Y008148D01*
X001250Y008090D01*
X001202Y008024D01*
X001165Y007951D01*
X001140Y007873D01*
X001128Y007801D01*
X001597Y007801D01*
X001597Y007701D01*
X001697Y007701D01*
X001697Y007233D01*
X001769Y007244D01*
X001847Y007269D01*
X001920Y007306D01*
X001986Y007355D01*
X002044Y007412D01*
X002092Y007479D01*
X002129Y007552D01*
X002154Y007629D01*
X002166Y007701D01*
X001697Y007701D01*
X001697Y007801D01*
X002166Y007801D01*
X002154Y007873D01*
X002129Y007951D01*
X002092Y008024D01*
X002044Y008090D01*
X001986Y008148D01*
X001920Y008196D01*
X001847Y008233D01*
X001795Y008250D01*
X001942Y008310D01*
X002088Y008457D01*
X002167Y008648D01*
X002167Y008855D01*
X002088Y009046D01*
X001942Y009192D01*
X001799Y009251D01*
X001942Y009310D01*
X002088Y009457D01*
X002167Y009648D01*
X002167Y009855D01*
X002101Y010015D01*
X003441Y008674D01*
X003441Y007471D01*
X003410Y007458D01*
X003296Y007344D01*
X003247Y007227D01*
X003199Y007344D01*
X003084Y007458D01*
X002935Y007520D01*
X002773Y007520D01*
X002627Y007460D01*
X002627Y008017D01*
X002675Y008065D01*
X002725Y008186D01*
X002725Y008316D01*
X002675Y008437D01*
X002583Y008529D01*
X002462Y008579D01*
X002332Y008579D01*
X002211Y008529D01*
X002119Y008437D01*
X002069Y008316D01*
X002069Y008186D01*
X002119Y008065D01*
X002167Y008017D01*
X002167Y006846D01*
X002167Y006675D01*
X002138Y006746D01*
X001992Y006892D01*
X001800Y006971D01*
X001594Y006971D01*
X001402Y006892D01*
X001256Y006746D01*
X001177Y006555D01*
X001177Y006348D01*
X001256Y006157D01*
X001402Y006010D01*
X001545Y005951D01*
X001402Y005892D01*
X001256Y005746D01*
X001177Y005555D01*
X001177Y005348D01*
X001256Y005157D01*
X001402Y005010D01*
X001462Y004986D01*
X001097Y004620D01*
X001097Y004082D01*
X001403Y003776D01*
X001097Y003470D01*
X001097Y003251D01*
X001697Y003251D01*
X001697Y003151D01*
X001797Y003151D01*
X001797Y002551D01*
X001872Y002551D01*
X001742Y002421D01*
X001544Y002421D01*
X001352Y002342D01*
X001206Y002196D01*
X001127Y002005D01*
X001127Y001798D01*
X001206Y001607D01*
X001352Y001460D01*
X001417Y001434D01*
X001417Y001369D01*
X001352Y001342D01*
X001206Y001196D01*
X001127Y001005D01*
X001127Y000798D01*
X001206Y000607D01*
X001352Y000460D01*
X001544Y000381D01*
X001750Y000381D01*
X001942Y000460D01*
X002088Y000607D01*
X002148Y000753D01*
X002165Y000702D01*
X002202Y000629D01*
X002250Y000562D01*
X002308Y000505D01*
X002374Y000456D01*
X002447Y000419D01*
X002525Y000394D01*
X002597Y000383D01*
X002597Y000851D01*
X002697Y000851D01*
X002697Y000383D01*
X002769Y000394D01*
X002847Y000419D01*
X002920Y000456D01*
X002986Y000505D01*
X003044Y000562D01*
X003092Y000629D01*
X003129Y000702D01*
X003146Y000753D01*
X003206Y000607D01*
X003352Y000460D01*
X003544Y000381D01*
X003750Y000381D01*
X003942Y000460D01*
X004088Y000607D01*
X004167Y000798D01*
X004167Y001005D01*
X004088Y001196D01*
X003942Y001342D01*
X003877Y001369D01*
X003877Y001434D01*
X003942Y001460D01*
X004088Y001607D01*
X004115Y001671D01*
X005419Y001671D01*
X005610Y001671D01*
X006503Y002564D01*
X006571Y002564D01*
X006692Y002614D01*
X006784Y002706D01*
X006834Y002827D01*
X006834Y002958D01*
X006784Y003078D01*
X006780Y003082D01*
X007315Y003082D01*
X007403Y003170D01*
X007403Y004456D01*
X007482Y004423D01*
X007612Y004423D01*
X007733Y004473D01*
X007781Y004521D01*
X007891Y004521D01*
X007891Y003170D01*
X007979Y003082D01*
X008851Y003082D01*
X008939Y003170D01*
X008939Y004584D01*
X009117Y004406D01*
X009252Y004271D01*
X009893Y004271D01*
X009893Y004125D01*
X009981Y004037D01*
X010813Y004037D01*
X010901Y004125D01*
X010901Y004879D01*
X010813Y004967D01*
X009981Y004967D01*
X009893Y004879D01*
X009893Y004731D01*
X009442Y004731D01*
X008925Y005248D01*
X008925Y005316D01*
X008875Y005437D01*
X008783Y005529D01*
X008662Y005579D01*
X008532Y005579D01*
X008411Y005529D01*
X008319Y005437D01*
X008269Y005316D01*
X008269Y005186D01*
X008319Y005065D01*
X008411Y004973D01*
X008532Y004923D01*
X008600Y004923D01*
X008803Y004720D01*
X008453Y004720D01*
X008192Y004981D01*
X008002Y004981D01*
X007781Y004981D01*
X007733Y005029D01*
X007612Y005079D01*
X007482Y005079D01*
X007361Y005029D01*
X007313Y004981D01*
X005947Y004981D01*
X005941Y004995D01*
X005821Y005116D01*
X005663Y005181D01*
X004931Y005181D01*
X004773Y005116D01*
X004652Y004995D01*
X004587Y004837D01*
X004587Y004736D01*
X004342Y004981D01*
X004247Y004981D01*
X004241Y004995D01*
X004121Y005116D01*
X003963Y005181D01*
X003231Y005181D01*
X003073Y005116D01*
X002989Y005031D01*
X002642Y005031D01*
X002577Y005096D01*
X002577Y006096D01*
X002442Y006231D01*
X002217Y006456D01*
X002217Y006555D01*
X002181Y006642D01*
X002417Y006406D01*
X002552Y006271D01*
X003013Y006271D01*
X003061Y006223D01*
X003182Y006173D01*
X003212Y006173D01*
X003073Y006116D01*
X002952Y005995D01*
X002887Y005837D01*
X002887Y005666D01*
X002952Y005508D01*
X003073Y005387D01*
X003231Y005321D01*
X003963Y005321D01*
X004121Y005387D01*
X004241Y005508D01*
X004307Y005666D01*
X004307Y005837D01*
X004241Y005995D01*
X004215Y006021D01*
X004679Y006021D01*
X004652Y005995D01*
X004587Y005837D01*
X004587Y005666D01*
X004652Y005508D01*
X004773Y005387D01*
X004931Y005321D01*
X005663Y005321D01*
X005821Y005387D01*
X005941Y005508D01*
X006007Y005666D01*
X006007Y005837D01*
X005941Y005995D01*
X005915Y006021D01*
X010492Y006021D01*
X010627Y006156D01*
X011742Y007271D01*
X016102Y007271D01*
X016292Y007271D01*
X017104Y008083D01*
X017127Y008027D01*
X016968Y007936D02*
X016957Y007936D01*
X016898Y007838D02*
X016859Y007838D01*
X016869Y007739D02*
X016760Y007739D01*
X016661Y007640D02*
X016869Y007640D01*
X016908Y007542D02*
X016563Y007542D01*
X016464Y007443D02*
X016991Y007443D01*
X016997Y007345D02*
X016366Y007345D01*
X016110Y007739D02*
X008942Y007739D01*
X009041Y007640D02*
X011461Y007640D01*
X011363Y007542D02*
X009139Y007542D01*
X009399Y007443D02*
X009702Y007443D01*
X009605Y007345D02*
X009497Y007345D01*
X009539Y007246D02*
X009555Y007246D01*
X009566Y006951D02*
X009527Y006951D01*
X009468Y006852D02*
X009626Y006852D01*
X009748Y006754D02*
X009350Y006754D01*
X009153Y007113D02*
X009153Y007245D01*
X008847Y007551D01*
X006497Y007551D01*
X006497Y007924D01*
X006470Y007951D01*
X006247Y008401D02*
X006847Y008401D01*
X007097Y008651D01*
X007385Y008922D02*
X004497Y008922D01*
X004497Y009020D02*
X005603Y009020D01*
X005647Y008901D02*
X005397Y009151D01*
X004897Y009151D01*
X004897Y009651D01*
X005088Y009611D02*
X004625Y009611D01*
X004616Y009513D02*
X005069Y009513D01*
X005078Y009414D02*
X004574Y009414D01*
X004497Y009316D02*
X005119Y009316D01*
X005225Y009217D02*
X004497Y009217D01*
X004447Y009119D02*
X005504Y009119D01*
X005647Y008901D02*
X006547Y008901D01*
X006647Y008801D01*
X006247Y008401D02*
X005797Y007951D01*
X005774Y007951D01*
X004947Y007751D02*
X004320Y007751D01*
X004297Y007774D01*
X004297Y008128D02*
X004297Y008951D01*
X004197Y009051D01*
X004197Y009151D01*
X004297Y009251D01*
X004297Y009601D01*
X004416Y009907D02*
X005208Y009907D01*
X005282Y009808D02*
X004554Y009808D01*
X004607Y009710D02*
X005142Y009710D01*
X005897Y010001D02*
X006397Y010001D01*
X007697Y011301D01*
X008647Y011301D01*
X008897Y011551D01*
X009198Y011681D02*
X011935Y011681D01*
X012033Y011582D02*
X009225Y011582D01*
X009224Y011484D02*
X013171Y011484D01*
X013059Y011385D02*
X010921Y011385D01*
X010673Y011385D02*
X010427Y011385D01*
X010496Y011287D02*
X010538Y011287D01*
X010697Y011081D02*
X010797Y011081D01*
X010697Y011081D02*
X010247Y010631D01*
X010247Y010492D01*
X010197Y011151D02*
X009846Y011151D01*
X009197Y010502D01*
X008547Y010351D02*
X008547Y010851D01*
X008847Y011151D01*
X009297Y011151D01*
X009527Y011385D02*
X009967Y011385D01*
X009698Y011287D02*
X009596Y011287D01*
X009133Y011779D02*
X011836Y011779D01*
X011737Y011878D02*
X008966Y011878D01*
X009055Y011976D02*
X011639Y011976D01*
X011647Y012251D02*
X009047Y012251D01*
X008397Y011601D01*
X007297Y011601D01*
X006197Y010501D01*
X005797Y010501D01*
X005647Y010651D01*
X005647Y011501D01*
X005997Y011501D02*
X005997Y010901D01*
X006047Y010851D01*
X005997Y011501D02*
X005997Y011951D01*
X005497Y012451D01*
X005497Y012601D01*
X005097Y013001D01*
X004947Y013001D01*
X004597Y013351D01*
X004297Y013351D01*
X004047Y013101D01*
X002997Y013101D01*
X001647Y011751D01*
X001278Y011385D02*
X001047Y011385D01*
X001047Y011287D02*
X001410Y011287D01*
X001349Y011188D02*
X001047Y011188D01*
X001047Y011089D02*
X001250Y011089D01*
X001184Y010991D02*
X001047Y010991D01*
X001047Y010892D02*
X001143Y010892D01*
X001127Y010794D02*
X001047Y010794D01*
X001047Y010695D02*
X001127Y010695D01*
X001148Y010597D02*
X001047Y010597D01*
X001047Y010498D02*
X001189Y010498D01*
X001263Y010400D02*
X001047Y010400D01*
X001047Y010301D02*
X001375Y010301D01*
X001378Y010203D02*
X001047Y010203D01*
X001047Y010104D02*
X001265Y010104D01*
X001190Y010006D02*
X001047Y010006D01*
X001047Y009907D02*
X001149Y009907D01*
X001127Y009808D02*
X001047Y009808D01*
X001047Y009710D02*
X001127Y009710D01*
X001142Y009611D02*
X001047Y009611D01*
X001047Y009513D02*
X001183Y009513D01*
X001249Y009414D02*
X001047Y009414D01*
X001047Y009316D02*
X001347Y009316D01*
X001413Y009217D02*
X001047Y009217D01*
X001047Y009119D02*
X001279Y009119D01*
X001196Y009020D02*
X001047Y009020D01*
X001047Y008922D02*
X001155Y008922D01*
X001127Y008823D02*
X001047Y008823D01*
X001047Y008724D02*
X001127Y008724D01*
X001136Y008626D02*
X001047Y008626D01*
X001047Y008527D02*
X001177Y008527D01*
X001234Y008429D02*
X001047Y008429D01*
X001047Y008330D02*
X001333Y008330D01*
X001445Y008232D02*
X001047Y008232D01*
X001047Y008133D02*
X001294Y008133D01*
X001210Y008035D02*
X001047Y008035D01*
X001047Y007936D02*
X001160Y007936D01*
X001134Y007838D02*
X001047Y007838D01*
X001047Y007739D02*
X001597Y007739D01*
X001597Y007701D02*
X001128Y007701D01*
X001140Y007629D01*
X001165Y007552D01*
X001202Y007479D01*
X001250Y007412D01*
X001308Y007355D01*
X001374Y007306D01*
X001447Y007269D01*
X001525Y007244D01*
X001597Y007233D01*
X001597Y007701D01*
X001597Y007640D02*
X001697Y007640D01*
X001697Y007542D02*
X001597Y007542D01*
X001597Y007443D02*
X001697Y007443D01*
X001697Y007345D02*
X001597Y007345D01*
X001597Y007246D02*
X001697Y007246D01*
X001776Y007246D02*
X002167Y007246D01*
X002167Y007148D02*
X001047Y007148D01*
X001047Y007246D02*
X001518Y007246D01*
X001322Y007345D02*
X001047Y007345D01*
X001047Y007443D02*
X001228Y007443D01*
X001170Y007542D02*
X001047Y007542D01*
X001047Y007640D02*
X001138Y007640D01*
X001697Y007739D02*
X002167Y007739D01*
X002160Y007838D02*
X002167Y007838D01*
X002167Y007936D02*
X002134Y007936D01*
X002150Y008035D02*
X002084Y008035D01*
X002091Y008133D02*
X002000Y008133D01*
X002069Y008232D02*
X001849Y008232D01*
X001961Y008330D02*
X002075Y008330D01*
X002060Y008429D02*
X002115Y008429D01*
X002117Y008527D02*
X002209Y008527D01*
X002158Y008626D02*
X003441Y008626D01*
X003441Y008527D02*
X002585Y008527D01*
X002679Y008429D02*
X003441Y008429D01*
X003441Y008330D02*
X002719Y008330D01*
X002725Y008232D02*
X003441Y008232D01*
X003441Y008133D02*
X002703Y008133D01*
X002644Y008035D02*
X003441Y008035D01*
X003441Y007936D02*
X002627Y007936D01*
X002627Y007838D02*
X003441Y007838D01*
X003441Y007739D02*
X002627Y007739D01*
X002627Y007640D02*
X003441Y007640D01*
X003441Y007542D02*
X002627Y007542D01*
X002167Y007542D02*
X002124Y007542D01*
X002156Y007640D02*
X002167Y007640D01*
X002167Y007443D02*
X002066Y007443D01*
X001972Y007345D02*
X002167Y007345D01*
X002167Y007049D02*
X001047Y007049D01*
X001047Y006951D02*
X001544Y006951D01*
X001363Y006852D02*
X001047Y006852D01*
X001047Y006754D02*
X001264Y006754D01*
X001219Y006655D02*
X001047Y006655D01*
X001047Y006556D02*
X001178Y006556D01*
X001177Y006458D02*
X001047Y006458D01*
X001047Y006359D02*
X001177Y006359D01*
X001213Y006261D02*
X001047Y006261D01*
X001047Y006162D02*
X001254Y006162D01*
X001349Y006064D02*
X001047Y006064D01*
X001047Y005965D02*
X001511Y005965D01*
X001377Y005867D02*
X001047Y005867D01*
X001047Y005768D02*
X001279Y005768D01*
X001225Y005670D02*
X001047Y005670D01*
X001047Y005571D02*
X001184Y005571D01*
X001177Y005473D02*
X001047Y005473D01*
X001047Y005374D02*
X001177Y005374D01*
X001207Y005275D02*
X001047Y005275D01*
X001047Y005177D02*
X001248Y005177D01*
X001334Y005078D02*
X001047Y005078D01*
X001047Y004980D02*
X001456Y004980D01*
X001358Y004881D02*
X001047Y004881D01*
X001047Y004783D02*
X001259Y004783D01*
X001161Y004684D02*
X001047Y004684D01*
X001047Y004586D02*
X001097Y004586D01*
X001097Y004487D02*
X001047Y004487D01*
X001047Y004389D02*
X001097Y004389D01*
X001097Y004290D02*
X001047Y004290D01*
X001047Y004191D02*
X001097Y004191D01*
X001097Y004093D02*
X001047Y004093D01*
X001047Y003994D02*
X001185Y003994D01*
X001283Y003896D02*
X001047Y003896D01*
X001047Y003797D02*
X001382Y003797D01*
X001325Y003699D02*
X001047Y003699D01*
X001047Y003600D02*
X001227Y003600D01*
X001128Y003502D02*
X001047Y003502D01*
X001047Y003403D02*
X001097Y003403D01*
X001097Y003305D02*
X001047Y003305D01*
X001047Y003206D02*
X001697Y003206D01*
X001697Y003151D02*
X001097Y003151D01*
X001097Y002932D01*
X001478Y002551D01*
X001697Y002551D01*
X001697Y003151D01*
X001697Y003107D02*
X001797Y003107D01*
X001797Y003009D02*
X001697Y003009D01*
X001697Y002910D02*
X001797Y002910D01*
X001797Y002812D02*
X001697Y002812D01*
X001697Y002713D02*
X001797Y002713D01*
X001797Y002615D02*
X001697Y002615D01*
X001837Y002516D02*
X001047Y002516D01*
X001047Y002418D02*
X001535Y002418D01*
X001330Y002319D02*
X001047Y002319D01*
X001047Y002221D02*
X001231Y002221D01*
X001176Y002122D02*
X001047Y002122D01*
X001047Y002024D02*
X001135Y002024D01*
X001127Y001925D02*
X001047Y001925D01*
X001047Y001826D02*
X001127Y001826D01*
X001156Y001728D02*
X001047Y001728D01*
X001047Y001629D02*
X001197Y001629D01*
X001282Y001531D02*
X001047Y001531D01*
X001047Y001432D02*
X001417Y001432D01*
X001344Y001334D02*
X001047Y001334D01*
X001047Y001235D02*
X001246Y001235D01*
X001182Y001137D02*
X001047Y001137D01*
X001047Y001038D02*
X001141Y001038D01*
X001127Y000940D02*
X001047Y000940D01*
X001047Y000841D02*
X001127Y000841D01*
X001150Y000742D02*
X001047Y000742D01*
X001047Y000644D02*
X001191Y000644D01*
X001267Y000545D02*
X001047Y000545D01*
X001047Y000447D02*
X001385Y000447D01*
X001047Y000348D02*
X020232Y000348D01*
X020232Y000447D02*
X019909Y000447D01*
X020027Y000545D02*
X020232Y000545D01*
X020232Y000644D02*
X020103Y000644D01*
X020144Y000742D02*
X020232Y000742D01*
X020232Y000841D02*
X020167Y000841D01*
X020167Y000940D02*
X020232Y000940D01*
X020232Y001038D02*
X020153Y001038D01*
X020112Y001137D02*
X020232Y001137D01*
X020232Y001235D02*
X020048Y001235D01*
X019950Y001334D02*
X020232Y001334D01*
X020232Y001432D02*
X019877Y001432D01*
X020012Y001531D02*
X020232Y001531D01*
X020232Y001629D02*
X020097Y001629D01*
X020138Y001728D02*
X020232Y001728D01*
X020232Y001826D02*
X020167Y001826D01*
X020167Y001925D02*
X020232Y001925D01*
X020232Y002024D02*
X020159Y002024D01*
X020118Y002122D02*
X020232Y002122D01*
X020232Y002221D02*
X020063Y002221D01*
X019964Y002319D02*
X020232Y002319D01*
X020232Y002418D02*
X019759Y002418D01*
X019535Y002418D02*
X018759Y002418D01*
X018535Y002418D02*
X017759Y002418D01*
X017964Y002319D02*
X018330Y002319D01*
X018231Y002221D02*
X018063Y002221D01*
X018118Y002122D02*
X018176Y002122D01*
X017647Y001901D02*
X017347Y002201D01*
X017347Y005174D01*
X017347Y005528D02*
X017347Y006151D01*
X017052Y005867D02*
X016642Y005867D01*
X016694Y005768D02*
X017000Y005768D01*
X016947Y005670D02*
X016747Y005670D01*
X016747Y005571D02*
X016947Y005571D01*
X016947Y005473D02*
X016747Y005473D01*
X016747Y005374D02*
X016947Y005374D01*
X016947Y005275D02*
X016747Y005275D01*
X016747Y005177D02*
X016947Y005177D01*
X016947Y005078D02*
X016747Y005078D01*
X016751Y004980D02*
X016954Y004980D01*
X016797Y004881D02*
X017147Y004881D01*
X017147Y004783D02*
X016797Y004783D01*
X016797Y004684D02*
X017147Y004684D01*
X017147Y004586D02*
X016797Y004586D01*
X016797Y004487D02*
X017147Y004487D01*
X017147Y004389D02*
X016797Y004389D01*
X016797Y004290D02*
X017147Y004290D01*
X017147Y004191D02*
X016797Y004191D01*
X016797Y004093D02*
X017147Y004093D01*
X017147Y003994D02*
X016797Y003994D01*
X016797Y003896D02*
X017147Y003896D01*
X017147Y003797D02*
X016797Y003797D01*
X016797Y003699D02*
X017147Y003699D01*
X017147Y003600D02*
X016797Y003600D01*
X016797Y003502D02*
X017147Y003502D01*
X017147Y003403D02*
X016797Y003403D01*
X016797Y003305D02*
X017147Y003305D01*
X017147Y003206D02*
X016797Y003206D01*
X016797Y003107D02*
X017147Y003107D01*
X017147Y003009D02*
X016797Y003009D01*
X016797Y002910D02*
X017147Y002910D01*
X017147Y002812D02*
X016797Y002812D01*
X016797Y002713D02*
X017147Y002713D01*
X017147Y002615D02*
X016797Y002615D01*
X016797Y002516D02*
X017147Y002516D01*
X017147Y002418D02*
X016797Y002418D01*
X016964Y002319D02*
X017147Y002319D01*
X017147Y002221D02*
X017063Y002221D01*
X017118Y002122D02*
X017147Y002122D01*
X017547Y002516D02*
X020232Y002516D01*
X020232Y002615D02*
X017547Y002615D01*
X017547Y002713D02*
X017921Y002713D01*
X017850Y002812D02*
X017547Y002812D01*
X017547Y002910D02*
X017819Y002910D01*
X017819Y003009D02*
X017547Y003009D01*
X017547Y003107D02*
X017857Y003107D01*
X017938Y003206D02*
X017547Y003206D01*
X017547Y003305D02*
X018472Y003305D01*
X018472Y003403D02*
X017547Y003403D01*
X017547Y003502D02*
X018472Y003502D01*
X018472Y003600D02*
X017547Y003600D01*
X017547Y003699D02*
X018467Y003699D01*
X018368Y003797D02*
X017547Y003797D01*
X017547Y003896D02*
X018269Y003896D01*
X018171Y003994D02*
X017547Y003994D01*
X017547Y004093D02*
X018072Y004093D01*
X017974Y004191D02*
X017547Y004191D01*
X017547Y004290D02*
X017875Y004290D01*
X017837Y004389D02*
X017547Y004389D01*
X017547Y004487D02*
X017837Y004487D01*
X017837Y004586D02*
X017547Y004586D01*
X017547Y004684D02*
X017837Y004684D01*
X017837Y004783D02*
X017547Y004783D01*
X017547Y004881D02*
X017837Y004881D01*
X017837Y004980D02*
X017740Y004980D01*
X017747Y005078D02*
X017837Y005078D01*
X017837Y005177D02*
X017747Y005177D01*
X017747Y005275D02*
X017837Y005275D01*
X017837Y005374D02*
X017747Y005374D01*
X017747Y005473D02*
X017837Y005473D01*
X017754Y005571D02*
X017747Y005571D01*
X017837Y005771D02*
X018037Y005571D01*
X018037Y004411D01*
X018717Y003731D01*
X018737Y003731D01*
X018757Y003711D01*
X018757Y003531D01*
X018747Y003501D01*
X018472Y003206D02*
X018356Y003206D01*
X018147Y002951D02*
X019147Y002951D01*
X019447Y003251D01*
X019640Y003107D02*
X020232Y003107D01*
X020232Y003009D02*
X019488Y003009D01*
X019389Y002910D02*
X020232Y002910D01*
X020232Y002812D02*
X019291Y002812D01*
X019722Y003206D02*
X020232Y003206D01*
X020232Y003305D02*
X019722Y003305D01*
X019722Y003403D02*
X020232Y003403D01*
X020232Y003502D02*
X019722Y003502D01*
X019722Y003600D02*
X020232Y003600D01*
X020232Y003699D02*
X019722Y003699D01*
X019722Y003797D02*
X020232Y003797D01*
X020232Y003896D02*
X019639Y003896D01*
X019623Y003994D02*
X020232Y003994D01*
X020232Y004093D02*
X020122Y004093D01*
X020220Y004191D02*
X020232Y004191D01*
X020197Y004451D02*
X020197Y005401D01*
X019647Y005951D01*
X019647Y006478D01*
X018647Y006478D02*
X018647Y005802D01*
X019648Y004801D01*
X019183Y004783D02*
X018596Y004783D01*
X018596Y004751D02*
X018596Y004851D01*
X019011Y004851D01*
X019011Y005156D01*
X019183Y004983D01*
X019183Y004385D01*
X019271Y004297D01*
X019360Y004297D01*
X019347Y004284D01*
X018964Y003901D01*
X018934Y003901D01*
X018850Y003901D01*
X018840Y003911D01*
X018820Y003931D01*
X018800Y003931D01*
X018434Y004297D01*
X018496Y004297D01*
X018496Y004751D01*
X018596Y004751D01*
X019011Y004751D01*
X019011Y004427D01*
X019001Y004389D01*
X018981Y004355D01*
X018953Y004327D01*
X018919Y004307D01*
X018881Y004297D01*
X018596Y004297D01*
X018596Y004751D01*
X018596Y004684D02*
X018496Y004684D01*
X018496Y004586D02*
X018596Y004586D01*
X018596Y004487D02*
X018496Y004487D01*
X018496Y004389D02*
X018596Y004389D01*
X018441Y004290D02*
X019353Y004290D01*
X019254Y004191D02*
X018539Y004191D01*
X018638Y004093D02*
X019156Y004093D01*
X019057Y003994D02*
X018737Y003994D01*
X019097Y003751D02*
X019547Y004201D01*
X019947Y004201D01*
X020197Y004451D01*
X019183Y004487D02*
X019011Y004487D01*
X019011Y004586D02*
X019183Y004586D01*
X019183Y004684D02*
X019011Y004684D01*
X019011Y004881D02*
X019183Y004881D01*
X019183Y004980D02*
X019011Y004980D01*
X019011Y005078D02*
X019088Y005078D01*
X018861Y005305D02*
X018596Y005305D01*
X018596Y004851D01*
X018496Y004851D01*
X018496Y005305D01*
X018237Y005305D01*
X018237Y005488D01*
X018237Y005654D01*
X018037Y005854D01*
X018037Y005894D01*
X018138Y005894D01*
X018138Y006468D01*
X018156Y006468D01*
X018156Y005894D01*
X018285Y005894D01*
X018323Y005905D01*
X018357Y005924D01*
X018385Y005952D01*
X018394Y005967D01*
X018447Y005914D01*
X018447Y005885D01*
X018447Y005719D01*
X018861Y005305D01*
X018793Y005374D02*
X018237Y005374D01*
X018237Y005473D02*
X018694Y005473D01*
X018595Y005571D02*
X018237Y005571D01*
X018221Y005670D02*
X018497Y005670D01*
X018447Y005768D02*
X018123Y005768D01*
X018037Y005867D02*
X018447Y005867D01*
X018396Y005965D02*
X018392Y005965D01*
X018156Y005965D02*
X018138Y005965D01*
X018138Y006064D02*
X018156Y006064D01*
X018156Y006162D02*
X018138Y006162D01*
X018138Y006261D02*
X018156Y006261D01*
X018156Y006359D02*
X018138Y006359D01*
X018138Y006458D02*
X018156Y006458D01*
X018156Y006487D02*
X018138Y006487D01*
X018138Y007061D01*
X018009Y007061D01*
X017971Y007050D01*
X017937Y007031D01*
X017909Y007003D01*
X017889Y006969D01*
X017879Y006930D01*
X017879Y006812D01*
X017397Y007294D01*
X017397Y007437D01*
X017475Y007515D01*
X017525Y007636D01*
X017525Y007766D01*
X017527Y007764D01*
X017650Y007641D01*
X018437Y007641D01*
X018437Y007031D01*
X018394Y006988D01*
X018385Y007003D01*
X018357Y007031D01*
X018323Y007050D01*
X018285Y007061D01*
X018156Y007061D01*
X018156Y006487D01*
X018156Y006556D02*
X018138Y006556D01*
X018138Y006655D02*
X018156Y006655D01*
X018156Y006754D02*
X018138Y006754D01*
X018138Y006852D02*
X018156Y006852D01*
X018156Y006951D02*
X018138Y006951D01*
X018138Y007049D02*
X018156Y007049D01*
X018325Y007049D02*
X018437Y007049D01*
X018437Y007148D02*
X017543Y007148D01*
X017445Y007246D02*
X018437Y007246D01*
X018437Y007345D02*
X017397Y007345D01*
X017403Y007443D02*
X018437Y007443D01*
X018437Y007542D02*
X017486Y007542D01*
X017525Y007640D02*
X018437Y007640D01*
X017969Y007049D02*
X017642Y007049D01*
X017740Y006951D02*
X017884Y006951D01*
X017879Y006852D02*
X017839Y006852D01*
X017837Y006571D02*
X017837Y005771D01*
X017637Y006458D02*
X017620Y006458D01*
X017569Y006556D02*
X017440Y006556D01*
X017470Y006655D02*
X014548Y006655D01*
X014557Y006556D02*
X016254Y006556D01*
X016440Y006556D02*
X017254Y006556D01*
X017074Y006458D02*
X016620Y006458D01*
X016705Y006359D02*
X016989Y006359D01*
X016949Y006261D02*
X016745Y006261D01*
X016757Y006162D02*
X016937Y006162D01*
X016939Y006064D02*
X016755Y006064D01*
X016714Y005965D02*
X016980Y005965D01*
X016347Y006151D02*
X016347Y005528D01*
X016347Y005174D02*
X016347Y005101D01*
X016597Y004851D01*
X016597Y001951D01*
X016647Y001901D01*
X016176Y002122D02*
X016118Y002122D01*
X016063Y002221D02*
X016231Y002221D01*
X016330Y002319D02*
X015964Y002319D01*
X015847Y002418D02*
X016397Y002418D01*
X016397Y002516D02*
X015847Y002516D01*
X015847Y002615D02*
X016397Y002615D01*
X016397Y002713D02*
X015847Y002713D01*
X015847Y002812D02*
X016397Y002812D01*
X016397Y002910D02*
X015821Y002910D01*
X015722Y003009D02*
X016397Y003009D01*
X016397Y003107D02*
X015624Y003107D01*
X015525Y003206D02*
X016397Y003206D01*
X016397Y003305D02*
X015426Y003305D01*
X015328Y003403D02*
X016397Y003403D01*
X016397Y003502D02*
X015229Y003502D01*
X015197Y003600D02*
X016397Y003600D01*
X016397Y003699D02*
X015197Y003699D01*
X015197Y003797D02*
X016397Y003797D01*
X016397Y003896D02*
X015197Y003896D01*
X015197Y003994D02*
X016397Y003994D01*
X016397Y004093D02*
X015197Y004093D01*
X015197Y004191D02*
X016397Y004191D01*
X016397Y004290D02*
X015197Y004290D01*
X015197Y004389D02*
X016397Y004389D01*
X016397Y004487D02*
X015197Y004487D01*
X015145Y004586D02*
X016397Y004586D01*
X016397Y004684D02*
X015047Y004684D01*
X014948Y004783D02*
X016383Y004783D01*
X016284Y004881D02*
X014850Y004881D01*
X014751Y004980D02*
X015954Y004980D01*
X015947Y005078D02*
X014653Y005078D01*
X014554Y005177D02*
X015947Y005177D01*
X015947Y005275D02*
X014586Y005275D01*
X014597Y005374D02*
X015947Y005374D01*
X015947Y005473D02*
X014597Y005473D01*
X014597Y005571D02*
X015947Y005571D01*
X015947Y005670D02*
X014597Y005670D01*
X014597Y005768D02*
X016000Y005768D01*
X016052Y005867D02*
X014597Y005867D01*
X014597Y005965D02*
X015980Y005965D01*
X015939Y006064D02*
X014549Y006064D01*
X014347Y006162D02*
X015937Y006162D01*
X015949Y006261D02*
X014436Y006261D01*
X014511Y006359D02*
X015989Y006359D01*
X016074Y006458D02*
X014552Y006458D01*
X014507Y006754D02*
X017372Y006754D01*
X017273Y006852D02*
X014426Y006852D01*
X014254Y006951D02*
X017175Y006951D01*
X017076Y007049D02*
X011520Y007049D01*
X011422Y006951D02*
X012140Y006951D01*
X011968Y006852D02*
X011323Y006852D01*
X011225Y006754D02*
X011887Y006754D01*
X011846Y006655D02*
X011421Y006655D01*
X011556Y006556D02*
X011837Y006556D01*
X011842Y006458D02*
X011608Y006458D01*
X011625Y006359D02*
X011883Y006359D01*
X011957Y006261D02*
X011615Y006261D01*
X011572Y006162D02*
X012047Y006162D01*
X011945Y006064D02*
X011507Y006064D01*
X011507Y005965D02*
X011897Y005965D01*
X011897Y005867D02*
X011507Y005867D01*
X011507Y005768D02*
X011897Y005768D01*
X011897Y005670D02*
X011507Y005670D01*
X011507Y005571D02*
X011897Y005571D01*
X011897Y005473D02*
X011507Y005473D01*
X011507Y005374D02*
X011897Y005374D01*
X011908Y005275D02*
X011507Y005275D01*
X011507Y005177D02*
X012388Y005177D01*
X012487Y005078D02*
X011507Y005078D01*
X011507Y004980D02*
X012586Y004980D01*
X012684Y004881D02*
X011507Y004881D01*
X011507Y004783D02*
X012783Y004783D01*
X012881Y004684D02*
X011507Y004684D01*
X011507Y004586D02*
X012980Y004586D01*
X013078Y004487D02*
X011507Y004487D01*
X011507Y004389D02*
X012694Y004389D01*
X012611Y004290D02*
X012345Y004290D01*
X012397Y003841D02*
X012610Y003841D01*
X012611Y003840D01*
X012611Y003197D01*
X012699Y003109D01*
X013296Y003109D01*
X013384Y003197D01*
X013384Y004182D01*
X013497Y004068D01*
X013497Y002934D01*
X013497Y002768D01*
X013919Y002346D01*
X013847Y002383D01*
X013769Y002408D01*
X013697Y002420D01*
X013697Y001951D01*
X013597Y001951D01*
X013597Y002420D01*
X013525Y002408D01*
X013447Y002383D01*
X013374Y002346D01*
X013308Y002298D01*
X013250Y002240D01*
X013202Y002174D01*
X013165Y002101D01*
X013148Y002049D01*
X013088Y002196D01*
X012942Y002342D01*
X012750Y002421D01*
X012544Y002421D01*
X012352Y002342D01*
X012207Y002196D01*
X012207Y002338D01*
X012207Y003076D01*
X012309Y003076D01*
X012397Y003164D01*
X012397Y003538D01*
X012397Y003841D01*
X012397Y003797D02*
X012611Y003797D01*
X012611Y003699D02*
X012397Y003699D01*
X012397Y003600D02*
X012611Y003600D01*
X012611Y003502D02*
X012397Y003502D01*
X012397Y003403D02*
X012611Y003403D01*
X012611Y003305D02*
X012397Y003305D01*
X012397Y003206D02*
X012611Y003206D01*
X012340Y003107D02*
X013497Y003107D01*
X013497Y003009D02*
X012207Y003009D01*
X012207Y002910D02*
X013497Y002910D01*
X013497Y002812D02*
X012207Y002812D01*
X012207Y002713D02*
X013552Y002713D01*
X013651Y002615D02*
X012207Y002615D01*
X012207Y002516D02*
X013749Y002516D01*
X013710Y002418D02*
X013848Y002418D01*
X013697Y002418D02*
X013597Y002418D01*
X013584Y002418D02*
X012759Y002418D01*
X012535Y002418D02*
X012207Y002418D01*
X012207Y002319D02*
X012330Y002319D01*
X012231Y002221D02*
X012207Y002221D01*
X011787Y002418D02*
X011759Y002418D01*
X011787Y002516D02*
X006455Y002516D01*
X006535Y002418D02*
X006356Y002418D01*
X006330Y002319D02*
X006258Y002319D01*
X006231Y002221D02*
X006159Y002221D01*
X006176Y002122D02*
X006061Y002122D01*
X006135Y002024D02*
X005962Y002024D01*
X005864Y001925D02*
X006127Y001925D01*
X006127Y001826D02*
X005765Y001826D01*
X005667Y001728D02*
X006156Y001728D01*
X006197Y001629D02*
X004097Y001629D01*
X004012Y001531D02*
X006282Y001531D01*
X006417Y001432D02*
X003877Y001432D01*
X003950Y001334D02*
X006344Y001334D01*
X006246Y001235D02*
X004048Y001235D01*
X004112Y001137D02*
X006182Y001137D01*
X006141Y001038D02*
X004153Y001038D01*
X004167Y000940D02*
X006127Y000940D01*
X006127Y000841D02*
X004167Y000841D01*
X004144Y000742D02*
X006150Y000742D01*
X006191Y000644D02*
X004103Y000644D01*
X004027Y000545D02*
X006267Y000545D01*
X006385Y000447D02*
X003909Y000447D01*
X003385Y000447D02*
X002901Y000447D01*
X003027Y000545D02*
X003267Y000545D01*
X003191Y000644D02*
X003099Y000644D01*
X003142Y000742D02*
X003150Y000742D01*
X002697Y000742D02*
X002597Y000742D01*
X002597Y000644D02*
X002697Y000644D01*
X002697Y000545D02*
X002597Y000545D01*
X002597Y000447D02*
X002697Y000447D01*
X002393Y000447D02*
X001909Y000447D01*
X002027Y000545D02*
X002267Y000545D01*
X002194Y000644D02*
X002103Y000644D01*
X002144Y000742D02*
X002152Y000742D01*
X002597Y000841D02*
X002697Y000841D01*
X002697Y000951D02*
X002597Y000951D01*
X002597Y001383D01*
X002597Y001851D01*
X002697Y001851D01*
X002697Y001383D01*
X002697Y000951D01*
X002697Y001038D02*
X002597Y001038D01*
X002597Y001137D02*
X002697Y001137D01*
X002697Y001235D02*
X002597Y001235D01*
X002597Y001334D02*
X002697Y001334D01*
X002697Y001432D02*
X002597Y001432D01*
X002597Y001531D02*
X002697Y001531D01*
X002697Y001629D02*
X002597Y001629D01*
X002597Y001728D02*
X002697Y001728D01*
X002697Y001826D02*
X002597Y001826D01*
X002597Y001951D02*
X002597Y002420D01*
X002525Y002408D01*
X002447Y002383D01*
X002374Y002346D01*
X002308Y002298D01*
X002250Y002240D01*
X002202Y002174D01*
X002165Y002101D01*
X002148Y002049D01*
X002111Y002140D01*
X002667Y002696D01*
X002733Y002723D01*
X002825Y002815D01*
X002853Y002881D01*
X002892Y002921D01*
X004602Y002921D01*
X004792Y002921D01*
X005192Y003321D01*
X005663Y003321D01*
X005821Y003387D01*
X005941Y003508D01*
X006007Y003666D01*
X006007Y003837D01*
X005941Y003995D01*
X005915Y004021D01*
X006355Y004021D01*
X006355Y003185D01*
X006320Y003170D01*
X006228Y003078D01*
X006178Y002958D01*
X006178Y002889D01*
X005419Y002131D01*
X004115Y002131D01*
X004088Y002196D01*
X003942Y002342D01*
X003750Y002421D01*
X003544Y002421D01*
X003352Y002342D01*
X003206Y002196D01*
X003146Y002049D01*
X003129Y002101D01*
X003092Y002174D01*
X003044Y002240D01*
X002986Y002298D01*
X002920Y002346D01*
X002847Y002383D01*
X002769Y002408D01*
X002697Y002420D01*
X002697Y001951D01*
X002597Y001951D01*
X002597Y002024D02*
X002697Y002024D01*
X002697Y002122D02*
X002597Y002122D01*
X002597Y002221D02*
X002697Y002221D01*
X002697Y002319D02*
X002597Y002319D01*
X002597Y002418D02*
X002697Y002418D01*
X002710Y002418D02*
X003535Y002418D01*
X003759Y002418D02*
X005706Y002418D01*
X005805Y002516D02*
X002487Y002516D01*
X002584Y002418D02*
X002389Y002418D01*
X002338Y002319D02*
X002290Y002319D01*
X002236Y002221D02*
X002192Y002221D01*
X002176Y002122D02*
X002118Y002122D01*
X002586Y002615D02*
X005903Y002615D01*
X006002Y002713D02*
X002709Y002713D01*
X002822Y002812D02*
X006100Y002812D01*
X006178Y002910D02*
X002881Y002910D01*
X002956Y002319D02*
X003330Y002319D01*
X003231Y002221D02*
X003058Y002221D01*
X003118Y002122D02*
X003176Y002122D01*
X003964Y002319D02*
X005607Y002319D01*
X005509Y002221D02*
X004063Y002221D01*
X004880Y003009D02*
X006199Y003009D01*
X006257Y003107D02*
X004979Y003107D01*
X005077Y003206D02*
X006355Y003206D01*
X006355Y003305D02*
X005176Y003305D01*
X005837Y003403D02*
X006355Y003403D01*
X006355Y003502D02*
X005936Y003502D01*
X005980Y003600D02*
X006355Y003600D01*
X006355Y003699D02*
X006007Y003699D01*
X006007Y003797D02*
X006355Y003797D01*
X006355Y003896D02*
X005982Y003896D01*
X005942Y003994D02*
X006355Y003994D01*
X007403Y003994D02*
X007891Y003994D01*
X007891Y003896D02*
X007403Y003896D01*
X007403Y003797D02*
X007891Y003797D01*
X007891Y003699D02*
X007403Y003699D01*
X007403Y003600D02*
X007891Y003600D01*
X007891Y003502D02*
X007403Y003502D01*
X007403Y003403D02*
X007891Y003403D01*
X007891Y003305D02*
X007403Y003305D01*
X007403Y003206D02*
X007891Y003206D01*
X007953Y003107D02*
X007341Y003107D01*
X006813Y003009D02*
X009907Y003009D01*
X009893Y003107D02*
X008876Y003107D01*
X008939Y003206D02*
X009893Y003206D01*
X009893Y003305D02*
X008939Y003305D01*
X008939Y003403D02*
X009893Y003403D01*
X009893Y003502D02*
X008939Y003502D01*
X008939Y003600D02*
X009893Y003600D01*
X009893Y003699D02*
X008939Y003699D01*
X008939Y003797D02*
X009913Y003797D01*
X009925Y004093D02*
X008939Y004093D01*
X008939Y004191D02*
X009893Y004191D01*
X009893Y004783D02*
X009391Y004783D01*
X009292Y004881D02*
X009894Y004881D01*
X009194Y004980D02*
X011087Y004980D01*
X011087Y005078D02*
X009095Y005078D01*
X008996Y005177D02*
X011087Y005177D01*
X011087Y005275D02*
X008925Y005275D01*
X008901Y005374D02*
X011087Y005374D01*
X011087Y005473D02*
X008840Y005473D01*
X008682Y005571D02*
X011087Y005571D01*
X011087Y005670D02*
X006007Y005670D01*
X006007Y005768D02*
X011087Y005768D01*
X011087Y005867D02*
X005995Y005867D01*
X005954Y005965D02*
X011087Y005965D01*
X011087Y006064D02*
X010535Y006064D01*
X010627Y006156D02*
X010627Y006156D01*
X010633Y006162D02*
X011022Y006162D01*
X010979Y006261D02*
X010732Y006261D01*
X010830Y006359D02*
X010969Y006359D01*
X010986Y006458D02*
X010929Y006458D01*
X011028Y006556D02*
X011038Y006556D01*
X011126Y006655D02*
X011173Y006655D01*
X010870Y007049D02*
X010343Y007049D01*
X010348Y007142D02*
X010348Y007145D01*
X010338Y007208D01*
X010318Y007269D01*
X010289Y007327D01*
X010251Y007378D01*
X010206Y007424D01*
X010154Y007461D01*
X010097Y007491D01*
X010036Y007510D01*
X009972Y007520D01*
X009969Y007520D01*
X009969Y007142D01*
X010348Y007142D01*
X010347Y007148D02*
X010968Y007148D01*
X011067Y007246D02*
X010325Y007246D01*
X010276Y007345D02*
X011165Y007345D01*
X011264Y007443D02*
X010179Y007443D01*
X009969Y007443D02*
X009911Y007443D01*
X009911Y007345D02*
X009969Y007345D01*
X009969Y007246D02*
X009911Y007246D01*
X009911Y007148D02*
X009969Y007148D01*
X009969Y007049D02*
X009911Y007049D01*
X009911Y006951D02*
X009969Y006951D01*
X009969Y006852D02*
X009911Y006852D01*
X009911Y006754D02*
X009969Y006754D01*
X010132Y006754D02*
X010574Y006754D01*
X010673Y006852D02*
X010254Y006852D01*
X010315Y006951D02*
X010771Y006951D01*
X010476Y006655D02*
X003538Y006655D01*
X003575Y006556D02*
X010377Y006556D01*
X011619Y007148D02*
X016997Y007148D01*
X016997Y007246D02*
X011717Y007246D01*
X012354Y006951D02*
X014040Y006951D01*
X013868Y006852D02*
X012526Y006852D01*
X012607Y006754D02*
X013787Y006754D01*
X013746Y006655D02*
X012648Y006655D01*
X012657Y006556D02*
X013737Y006556D01*
X013742Y006458D02*
X012652Y006458D01*
X012611Y006359D02*
X013783Y006359D01*
X013857Y006261D02*
X012536Y006261D01*
X012447Y006162D02*
X013947Y006162D01*
X013845Y006064D02*
X012649Y006064D01*
X012697Y005965D02*
X013797Y005965D01*
X013797Y005867D02*
X012697Y005867D01*
X012697Y005768D02*
X013797Y005768D01*
X013797Y005670D02*
X012697Y005670D01*
X012697Y005571D02*
X013797Y005571D01*
X013797Y005473D02*
X012697Y005473D01*
X012757Y005374D02*
X013797Y005374D01*
X013808Y005275D02*
X012856Y005275D01*
X012954Y005177D02*
X013997Y005177D01*
X014087Y005078D02*
X013053Y005078D01*
X013151Y004980D02*
X014186Y004980D01*
X014284Y004881D02*
X013250Y004881D01*
X013348Y004783D02*
X014383Y004783D01*
X014481Y004684D02*
X013447Y004684D01*
X013545Y004586D02*
X014580Y004586D01*
X014678Y004487D02*
X013644Y004487D01*
X013742Y004389D02*
X014023Y004389D01*
X014041Y004393D02*
X014002Y004383D01*
X013968Y004363D01*
X013940Y004335D01*
X013921Y004301D01*
X013910Y004263D01*
X013910Y003801D01*
X014246Y003801D01*
X014246Y003701D01*
X013910Y003701D01*
X013910Y003239D01*
X013921Y003201D01*
X013940Y003167D01*
X013968Y003139D01*
X014002Y003119D01*
X014041Y003109D01*
X014247Y003109D01*
X014247Y003701D01*
X014346Y003701D01*
X014346Y003109D01*
X014553Y003109D01*
X014591Y003119D01*
X014625Y003139D01*
X014653Y003167D01*
X014673Y003201D01*
X014683Y003239D01*
X014683Y003701D01*
X014347Y003701D01*
X014347Y003801D01*
X014683Y003801D01*
X014683Y004263D01*
X014673Y004301D01*
X014653Y004335D01*
X014625Y004363D01*
X014591Y004383D01*
X014553Y004393D01*
X014346Y004393D01*
X014346Y003801D01*
X014247Y003801D01*
X014247Y004393D01*
X014041Y004393D01*
X013918Y004290D02*
X013841Y004290D01*
X013897Y004191D02*
X013910Y004191D01*
X013897Y004093D02*
X013910Y004093D01*
X013897Y003994D02*
X013910Y003994D01*
X013897Y003896D02*
X013910Y003896D01*
X013897Y003797D02*
X014246Y003797D01*
X014247Y003699D02*
X014346Y003699D01*
X014347Y003797D02*
X014797Y003797D01*
X014797Y003699D02*
X014683Y003699D01*
X014683Y003600D02*
X014797Y003600D01*
X014797Y003502D02*
X014683Y003502D01*
X014683Y003403D02*
X014797Y003403D01*
X014861Y003305D02*
X014683Y003305D01*
X014674Y003206D02*
X014959Y003206D01*
X015058Y003107D02*
X013897Y003107D01*
X013897Y003009D02*
X015156Y003009D01*
X015255Y002910D02*
X013921Y002910D01*
X014019Y002812D02*
X015353Y002812D01*
X015447Y002713D02*
X014118Y002713D01*
X014216Y002615D02*
X015447Y002615D01*
X015447Y002516D02*
X014315Y002516D01*
X014413Y002418D02*
X014535Y002418D01*
X014759Y002418D02*
X015447Y002418D01*
X015330Y002319D02*
X014964Y002319D01*
X015063Y002221D02*
X015231Y002221D01*
X015176Y002122D02*
X015118Y002122D01*
X014647Y001901D02*
X013697Y002851D01*
X013697Y004151D01*
X012374Y005474D01*
X012297Y005474D01*
X012297Y005828D02*
X012247Y005878D01*
X012247Y006551D01*
X014147Y006551D02*
X014147Y005878D01*
X014197Y005828D01*
X014197Y005474D02*
X014197Y005251D01*
X014997Y004451D01*
X014997Y003451D01*
X015647Y002801D01*
X015647Y000901D01*
X016027Y000545D02*
X016267Y000545D01*
X016191Y000644D02*
X016103Y000644D01*
X016144Y000742D02*
X016150Y000742D01*
X016385Y000447D02*
X015909Y000447D01*
X015385Y000447D02*
X014909Y000447D01*
X015027Y000545D02*
X015267Y000545D01*
X015191Y000644D02*
X015103Y000644D01*
X015144Y000742D02*
X015150Y000742D01*
X014385Y000447D02*
X013901Y000447D01*
X014027Y000545D02*
X014267Y000545D01*
X014191Y000644D02*
X014099Y000644D01*
X014142Y000742D02*
X014150Y000742D01*
X013697Y000742D02*
X013597Y000742D01*
X013597Y000644D02*
X013697Y000644D01*
X013697Y000545D02*
X013597Y000545D01*
X013597Y000447D02*
X013697Y000447D01*
X013393Y000447D02*
X012909Y000447D01*
X013027Y000545D02*
X013267Y000545D01*
X013194Y000644D02*
X013103Y000644D01*
X013144Y000742D02*
X013152Y000742D01*
X013597Y000841D02*
X013697Y000841D01*
X013697Y000951D02*
X013597Y000951D01*
X013597Y001383D01*
X013597Y001851D01*
X013697Y001851D01*
X013697Y001383D01*
X013697Y000951D01*
X013697Y001038D02*
X013597Y001038D01*
X013597Y001137D02*
X013697Y001137D01*
X013697Y001235D02*
X013597Y001235D01*
X013597Y001334D02*
X013697Y001334D01*
X013697Y001432D02*
X013597Y001432D01*
X013597Y001531D02*
X013697Y001531D01*
X013697Y001629D02*
X013597Y001629D01*
X013597Y001728D02*
X013697Y001728D01*
X013697Y001826D02*
X013597Y001826D01*
X013597Y002024D02*
X013697Y002024D01*
X013697Y002122D02*
X013597Y002122D01*
X013597Y002221D02*
X013697Y002221D01*
X013697Y002319D02*
X013597Y002319D01*
X013338Y002319D02*
X012964Y002319D01*
X013063Y002221D02*
X013236Y002221D01*
X013176Y002122D02*
X013118Y002122D01*
X013384Y003206D02*
X013497Y003206D01*
X013497Y003305D02*
X013384Y003305D01*
X013384Y003403D02*
X013497Y003403D01*
X013497Y003502D02*
X013384Y003502D01*
X013384Y003600D02*
X013497Y003600D01*
X013497Y003699D02*
X013384Y003699D01*
X013384Y003797D02*
X013497Y003797D01*
X013497Y003896D02*
X013384Y003896D01*
X013384Y003994D02*
X013497Y003994D01*
X013472Y004093D02*
X013384Y004093D01*
X013897Y003699D02*
X013910Y003699D01*
X013897Y003600D02*
X013910Y003600D01*
X013897Y003502D02*
X013910Y003502D01*
X013897Y003403D02*
X013910Y003403D01*
X013897Y003305D02*
X013910Y003305D01*
X013897Y003206D02*
X013919Y003206D01*
X014247Y003206D02*
X014346Y003206D01*
X014346Y003305D02*
X014247Y003305D01*
X014247Y003403D02*
X014346Y003403D01*
X014346Y003502D02*
X014247Y003502D01*
X014247Y003600D02*
X014346Y003600D01*
X014346Y003896D02*
X014247Y003896D01*
X014247Y003994D02*
X014346Y003994D01*
X014346Y004093D02*
X014247Y004093D01*
X014247Y004191D02*
X014346Y004191D01*
X014346Y004290D02*
X014247Y004290D01*
X014247Y004389D02*
X014346Y004389D01*
X014570Y004389D02*
X014777Y004389D01*
X014797Y004290D02*
X014676Y004290D01*
X014683Y004191D02*
X014797Y004191D01*
X014797Y004093D02*
X014683Y004093D01*
X014683Y003994D02*
X014797Y003994D01*
X014797Y003896D02*
X014683Y003896D01*
X011787Y003009D02*
X010887Y003009D01*
X010901Y003107D02*
X011149Y003107D01*
X011445Y003107D02*
X011654Y003107D01*
X011597Y003206D02*
X011566Y003206D01*
X011787Y002910D02*
X006834Y002910D01*
X006828Y002812D02*
X011787Y002812D01*
X011787Y002713D02*
X006787Y002713D01*
X006692Y002615D02*
X011787Y002615D01*
X011535Y002418D02*
X010759Y002418D01*
X010535Y002418D02*
X009759Y002418D01*
X009535Y002418D02*
X008759Y002418D01*
X008535Y002418D02*
X007759Y002418D01*
X007535Y002418D02*
X006759Y002418D01*
X006964Y002319D02*
X007330Y002319D01*
X007231Y002221D02*
X007063Y002221D01*
X007118Y002122D02*
X007176Y002122D01*
X007964Y002319D02*
X008330Y002319D01*
X008231Y002221D02*
X008063Y002221D01*
X008118Y002122D02*
X008176Y002122D01*
X008964Y002319D02*
X009330Y002319D01*
X009231Y002221D02*
X009063Y002221D01*
X009118Y002122D02*
X009176Y002122D01*
X009964Y002319D02*
X010330Y002319D01*
X010231Y002221D02*
X010063Y002221D01*
X010118Y002122D02*
X010176Y002122D01*
X010964Y002319D02*
X011330Y002319D01*
X011231Y002221D02*
X011063Y002221D01*
X011118Y002122D02*
X011176Y002122D01*
X011144Y000742D02*
X011150Y000742D01*
X011191Y000644D02*
X011103Y000644D01*
X011027Y000545D02*
X011267Y000545D01*
X011385Y000447D02*
X010909Y000447D01*
X010385Y000447D02*
X009909Y000447D01*
X010027Y000545D02*
X010267Y000545D01*
X010191Y000644D02*
X010103Y000644D01*
X010144Y000742D02*
X010150Y000742D01*
X009385Y000447D02*
X008909Y000447D01*
X009027Y000545D02*
X009267Y000545D01*
X009191Y000644D02*
X009103Y000644D01*
X009144Y000742D02*
X009150Y000742D01*
X008385Y000447D02*
X007909Y000447D01*
X008027Y000545D02*
X008267Y000545D01*
X008191Y000644D02*
X008103Y000644D01*
X008144Y000742D02*
X008150Y000742D01*
X007385Y000447D02*
X006909Y000447D01*
X007027Y000545D02*
X007267Y000545D01*
X007191Y000644D02*
X007103Y000644D01*
X007144Y000742D02*
X007150Y000742D01*
X008939Y003896D02*
X011105Y003896D01*
X011087Y003994D02*
X008939Y003994D01*
X008939Y004290D02*
X009233Y004290D01*
X009134Y004389D02*
X008939Y004389D01*
X008939Y004487D02*
X009036Y004487D01*
X008740Y004783D02*
X008391Y004783D01*
X008292Y004881D02*
X008642Y004881D01*
X008404Y004980D02*
X008194Y004980D01*
X008313Y005078D02*
X007614Y005078D01*
X007480Y005078D02*
X005858Y005078D01*
X005673Y005177D02*
X008273Y005177D01*
X008269Y005275D02*
X002577Y005275D01*
X002577Y005177D02*
X003221Y005177D01*
X003036Y005078D02*
X002595Y005078D01*
X002577Y005374D02*
X003104Y005374D01*
X002988Y005473D02*
X002577Y005473D01*
X002577Y005571D02*
X002926Y005571D01*
X002887Y005670D02*
X002577Y005670D01*
X002577Y005768D02*
X002887Y005768D01*
X002899Y005867D02*
X002577Y005867D01*
X002577Y005965D02*
X002940Y005965D01*
X003022Y006064D02*
X002577Y006064D01*
X002511Y006162D02*
X003186Y006162D01*
X003023Y006261D02*
X002413Y006261D01*
X002464Y006359D02*
X002314Y006359D01*
X002365Y006458D02*
X002217Y006458D01*
X002216Y006556D02*
X002266Y006556D01*
X002167Y006754D02*
X002130Y006754D01*
X002167Y006852D02*
X002031Y006852D01*
X002167Y006951D02*
X001850Y006951D01*
X003099Y007443D02*
X003395Y007443D01*
X003297Y007345D02*
X003198Y007345D01*
X003239Y007246D02*
X003255Y007246D01*
X003641Y007113D02*
X003641Y008757D01*
X001647Y010751D01*
X002547Y011651D01*
X002847Y011651D01*
X003147Y011951D01*
X003547Y011951D01*
X003647Y011851D01*
X003647Y011501D01*
X003997Y011501D02*
X004397Y011501D01*
X005897Y010001D01*
X006847Y009901D02*
X007147Y010201D01*
X008397Y010201D01*
X008547Y010351D01*
X008347Y012301D02*
X006947Y012301D01*
X006347Y011701D01*
X006347Y011501D01*
X007797Y012751D02*
X007197Y013351D01*
X007097Y013351D01*
X007097Y013400D01*
X008097Y013400D02*
X008097Y013351D01*
X008197Y013351D01*
X008797Y012751D01*
X008347Y012301D01*
X009097Y013351D02*
X009097Y013400D01*
X009097Y013351D02*
X009197Y013351D01*
X009797Y012751D01*
X010097Y013351D02*
X010097Y013400D01*
X010097Y013351D02*
X010197Y013351D01*
X010797Y012751D01*
X010897Y012751D01*
X011197Y013151D02*
X011197Y013351D01*
X011097Y013351D01*
X011097Y013400D01*
X011197Y013151D02*
X011597Y012751D01*
X011897Y012451D01*
X012347Y012451D01*
X012697Y012801D01*
X012697Y013501D01*
X012981Y013785D01*
X013347Y013785D01*
X013347Y013785D01*
X013347Y013701D01*
X013797Y013701D01*
X014347Y013151D01*
X014347Y012051D01*
X015047Y011351D01*
X016247Y011351D01*
X016597Y011001D01*
X016597Y010401D01*
X016997Y010001D01*
X018497Y010001D01*
X018797Y009701D01*
X018797Y009601D01*
X018297Y009101D01*
X018297Y009051D01*
X018147Y008901D01*
X018097Y008901D01*
X018147Y008901D02*
X018147Y008525D01*
X018647Y008525D02*
X018647Y009101D01*
X019097Y009551D01*
X019097Y010051D01*
X018247Y010901D01*
X017647Y011501D01*
X016747Y011501D01*
X016397Y011851D01*
X015247Y011851D01*
X014847Y012251D01*
X014847Y014301D01*
X014497Y014651D01*
X013347Y014651D01*
X013322Y015059D02*
X012897Y015059D01*
X012897Y014914D01*
X012907Y014876D01*
X012908Y014875D01*
X012897Y014863D01*
X012897Y014448D01*
X012634Y014711D01*
X012612Y014711D01*
X012601Y014722D01*
X012601Y014879D01*
X012513Y014967D01*
X011681Y014967D01*
X011597Y014884D01*
X011513Y014967D01*
X011327Y014967D01*
X011327Y015706D01*
X012242Y016621D01*
X012613Y016621D01*
X012661Y016573D01*
X012782Y016523D01*
X012897Y016523D01*
X012897Y016171D01*
X012901Y016167D01*
X012897Y016163D01*
X012897Y015738D01*
X012901Y015734D01*
X012897Y015729D01*
X012897Y015651D01*
X012480Y015651D01*
X012425Y015706D01*
X012425Y015816D01*
X012375Y015937D01*
X012283Y016029D01*
X012162Y016079D01*
X012032Y016079D01*
X011911Y016029D01*
X011819Y015937D01*
X011769Y015816D01*
X011769Y015686D01*
X011819Y015565D01*
X011911Y015473D01*
X012032Y015423D01*
X012142Y015423D01*
X012197Y015368D01*
X012314Y015251D01*
X012897Y015251D01*
X012897Y015109D01*
X013322Y015109D01*
X013322Y015059D01*
X013372Y015059D02*
X013372Y015109D01*
X013797Y015109D01*
X013797Y015254D01*
X013787Y015292D01*
X013786Y015294D01*
X013793Y015301D01*
X014064Y015301D01*
X014514Y014851D01*
X013797Y014851D01*
X013797Y014863D01*
X013786Y014875D01*
X013787Y014876D01*
X013797Y014914D01*
X013797Y015059D01*
X013372Y015059D01*
X013281Y015451D02*
X013347Y015517D01*
X013363Y015501D01*
X014147Y015501D01*
X015247Y014401D01*
X015247Y012401D01*
X015397Y012251D01*
X016447Y012251D01*
X016997Y011701D01*
X018047Y011701D01*
X020197Y009551D01*
X020197Y008051D01*
X020223Y009808D02*
X020232Y009808D01*
X020232Y009907D02*
X020124Y009907D01*
X020025Y010006D02*
X020232Y010006D01*
X020232Y010104D02*
X019927Y010104D01*
X019828Y010203D02*
X020232Y010203D01*
X020232Y010301D02*
X019730Y010301D01*
X019631Y010400D02*
X020232Y010400D01*
X020232Y010498D02*
X019533Y010498D01*
X019434Y010597D02*
X020232Y010597D01*
X020232Y010695D02*
X019336Y010695D01*
X019237Y010794D02*
X020232Y010794D01*
X020232Y010892D02*
X019139Y010892D01*
X019040Y010991D02*
X020232Y010991D01*
X020232Y011089D02*
X018941Y011089D01*
X018843Y011188D02*
X020232Y011188D01*
X020232Y011287D02*
X018744Y011287D01*
X018646Y011385D02*
X020232Y011385D01*
X020232Y011484D02*
X018547Y011484D01*
X018449Y011582D02*
X020232Y011582D01*
X020232Y011681D02*
X018350Y011681D01*
X018252Y011779D02*
X020232Y011779D01*
X020232Y011878D02*
X018153Y011878D01*
X017822Y012250D02*
X017703Y012200D01*
X017574Y012200D01*
X017454Y012250D01*
X017363Y012341D01*
X017313Y012461D01*
X017313Y012590D01*
X017363Y012709D01*
X017454Y012801D01*
X017574Y012850D01*
X017703Y012850D01*
X017822Y012801D01*
X017914Y012709D01*
X017963Y012590D01*
X017963Y012461D01*
X017914Y012341D01*
X017822Y012250D01*
X017845Y012272D02*
X020232Y012272D01*
X020232Y012173D02*
X016808Y012173D01*
X016906Y012075D02*
X020232Y012075D01*
X020232Y011976D02*
X017005Y011976D01*
X016709Y012272D02*
X017432Y012272D01*
X017351Y012371D02*
X016610Y012371D01*
X017313Y012469D02*
X015462Y012469D01*
X015447Y012568D02*
X017313Y012568D01*
X017345Y012666D02*
X015447Y012666D01*
X015447Y012765D02*
X017418Y012765D01*
X017858Y012765D02*
X020232Y012765D01*
X020232Y012863D02*
X015447Y012863D01*
X015447Y012962D02*
X020232Y012962D01*
X020232Y013060D02*
X015447Y013060D01*
X015447Y013159D02*
X020232Y013159D01*
X020232Y013257D02*
X017817Y013257D01*
X017892Y013356D02*
X020232Y013356D01*
X020232Y013455D02*
X017925Y013455D01*
X017925Y013553D02*
X020232Y013553D01*
X020232Y013652D02*
X017890Y013652D01*
X017812Y013750D02*
X020232Y013750D01*
X020232Y013849D02*
X017747Y013849D01*
X017747Y013947D02*
X020232Y013947D01*
X020232Y014046D02*
X017747Y014046D01*
X017747Y014144D02*
X020232Y014144D01*
X020232Y014243D02*
X017747Y014243D01*
X017747Y014341D02*
X020232Y014341D01*
X020232Y014440D02*
X017819Y014440D01*
X017917Y014539D02*
X020232Y014539D01*
X020232Y014637D02*
X018016Y014637D01*
X018114Y014736D02*
X020232Y014736D01*
X020232Y014834D02*
X018213Y014834D01*
X018311Y014933D02*
X020232Y014933D01*
X020232Y015031D02*
X018410Y015031D01*
X018508Y015130D02*
X020232Y015130D01*
X020232Y015228D02*
X018607Y015228D01*
X018706Y015327D02*
X020232Y015327D01*
X020232Y015425D02*
X018804Y015425D01*
X018847Y015524D02*
X020232Y015524D01*
X020232Y015622D02*
X018847Y015622D01*
X018847Y015721D02*
X020232Y015721D01*
X020232Y016017D02*
X018945Y016017D01*
X019044Y016115D02*
X020232Y016115D01*
X020232Y016214D02*
X019142Y016214D01*
X019241Y016312D02*
X020232Y016312D01*
X020232Y016411D02*
X019339Y016411D01*
X019438Y016509D02*
X020232Y016509D01*
X020232Y016608D02*
X019537Y016608D01*
X019635Y016706D02*
X020232Y016706D01*
X020232Y016805D02*
X019734Y016805D01*
X019832Y016904D02*
X020232Y016904D01*
X020232Y017002D02*
X019847Y017002D01*
X019847Y017101D02*
X020232Y017101D01*
X020232Y017199D02*
X019847Y017199D01*
X019847Y017298D02*
X020232Y017298D01*
X020232Y017396D02*
X019847Y017396D01*
X019976Y017495D02*
X020232Y017495D01*
X020232Y017593D02*
X020075Y017593D01*
X020123Y017692D02*
X020232Y017692D01*
X020232Y017790D02*
X020164Y017790D01*
X020167Y017889D02*
X020232Y017889D01*
X020232Y017988D02*
X020167Y017988D01*
X020133Y018086D02*
X020232Y018086D01*
X020232Y018185D02*
X020092Y018185D01*
X020000Y018283D02*
X020232Y018283D01*
X020232Y018382D02*
X019877Y018382D01*
X019961Y018480D02*
X020232Y018480D01*
X020232Y018579D02*
X020060Y018579D01*
X020117Y018677D02*
X020232Y018677D01*
X020232Y018776D02*
X020158Y018776D01*
X020167Y018874D02*
X020232Y018874D01*
X020232Y018973D02*
X020167Y018973D01*
X020139Y019071D02*
X020232Y019071D01*
X020232Y019170D02*
X020098Y019170D01*
X020015Y019269D02*
X020232Y019269D01*
X020232Y019367D02*
X019881Y019367D01*
X020232Y019466D02*
X001047Y019466D01*
X001047Y019367D02*
X001413Y019367D01*
X001279Y019269D02*
X001047Y019269D01*
X001047Y019170D02*
X001196Y019170D01*
X001155Y019071D02*
X001047Y019071D01*
X001047Y018973D02*
X001127Y018973D01*
X001127Y018874D02*
X001047Y018874D01*
X001047Y018776D02*
X001136Y018776D01*
X001177Y018677D02*
X001047Y018677D01*
X001047Y018579D02*
X001234Y018579D01*
X001333Y018480D02*
X001047Y018480D01*
X001047Y018382D02*
X001448Y018382D01*
X001294Y018283D02*
X001047Y018283D01*
X001047Y018185D02*
X001202Y018185D01*
X001161Y018086D02*
X001047Y018086D01*
X001047Y017988D02*
X001127Y017988D01*
X001127Y017889D02*
X001047Y017889D01*
X001047Y017790D02*
X001130Y017790D01*
X001171Y017692D02*
X001047Y017692D01*
X001047Y017593D02*
X001219Y017593D01*
X001318Y017495D02*
X001047Y017495D01*
X001047Y017396D02*
X001488Y017396D01*
X001308Y017298D02*
X001047Y017298D01*
X001047Y017199D02*
X001221Y017199D01*
X001165Y017101D02*
X001047Y017101D01*
X001047Y017002D02*
X001137Y017002D01*
X001047Y016904D02*
X001597Y016904D01*
X001136Y016805D02*
X001047Y016805D01*
X001047Y016706D02*
X001164Y016706D01*
X001217Y016608D02*
X001047Y016608D01*
X001047Y016509D02*
X001303Y016509D01*
X001473Y016411D02*
X001047Y016411D01*
X001047Y016312D02*
X001323Y016312D01*
X001224Y016214D02*
X001047Y016214D01*
X001047Y016115D02*
X001173Y016115D01*
X001132Y016017D02*
X001047Y016017D01*
X001047Y015918D02*
X001127Y015918D01*
X001127Y015820D02*
X001047Y015820D01*
X001047Y015721D02*
X001159Y015721D01*
X001200Y015622D02*
X001047Y015622D01*
X001047Y015524D02*
X001289Y015524D01*
X001437Y015425D02*
X001047Y015425D01*
X001047Y015327D02*
X001337Y015327D01*
X001239Y015228D02*
X001047Y015228D01*
X001047Y015130D02*
X001179Y015130D01*
X001138Y015031D02*
X001047Y015031D01*
X001047Y014933D02*
X001127Y014933D01*
X001127Y014834D02*
X001047Y014834D01*
X001047Y014736D02*
X001153Y014736D01*
X001194Y014637D02*
X001047Y014637D01*
X001047Y014539D02*
X001274Y014539D01*
X001402Y014440D02*
X001047Y014440D01*
X001047Y014341D02*
X001352Y014341D01*
X001253Y014243D02*
X001047Y014243D01*
X001047Y014144D02*
X001185Y014144D01*
X001144Y014046D02*
X001047Y014046D01*
X001047Y013947D02*
X001127Y013947D01*
X001127Y013849D02*
X001047Y013849D01*
X001047Y013750D02*
X001147Y013750D01*
X001188Y013652D02*
X001047Y013652D01*
X001047Y013553D02*
X001260Y013553D01*
X001366Y013455D02*
X001047Y013455D01*
X001047Y013356D02*
X003281Y013356D01*
X003269Y013455D02*
X001927Y013455D01*
X002034Y013553D02*
X003284Y013553D01*
X003333Y013652D02*
X002106Y013652D01*
X002147Y013750D02*
X003461Y013750D01*
X003733Y013750D02*
X004063Y013750D01*
X003965Y013652D02*
X003861Y013652D01*
X004047Y013451D02*
X003597Y013451D01*
X004047Y013451D02*
X004297Y013701D01*
X004847Y013701D01*
X005797Y014651D01*
X005518Y014834D02*
X002513Y014834D01*
X002414Y014736D02*
X005477Y014736D01*
X005469Y014637D02*
X002100Y014637D01*
X002020Y014539D02*
X005402Y014539D01*
X005303Y014440D02*
X001892Y014440D01*
X001942Y014341D02*
X005204Y014341D01*
X005106Y014243D02*
X002041Y014243D01*
X002109Y014144D02*
X005007Y014144D01*
X004909Y014046D02*
X002150Y014046D01*
X002167Y013947D02*
X004810Y013947D01*
X004162Y013849D02*
X002167Y013849D01*
X001784Y013257D02*
X002870Y013257D01*
X002772Y013159D02*
X001975Y013159D01*
X002073Y013060D02*
X002673Y013060D01*
X002575Y012962D02*
X002123Y012962D01*
X002163Y012863D02*
X002476Y012863D01*
X002378Y012765D02*
X002167Y012765D01*
X002167Y012666D02*
X002279Y012666D01*
X002181Y012568D02*
X002134Y012568D01*
X001511Y013257D02*
X001047Y013257D01*
X001047Y013159D02*
X001319Y013159D01*
X001221Y013060D02*
X001047Y013060D01*
X001047Y012962D02*
X001171Y012962D01*
X001131Y012863D02*
X001047Y012863D01*
X001047Y012765D02*
X001127Y012765D01*
X001127Y012666D02*
X001047Y012666D01*
X001047Y012568D02*
X001160Y012568D01*
X001201Y012469D02*
X001047Y012469D01*
X001047Y012371D02*
X001292Y012371D01*
X001445Y012272D02*
X001047Y012272D01*
X001047Y012173D02*
X001334Y012173D01*
X001235Y012075D02*
X001047Y012075D01*
X001047Y011976D02*
X001177Y011976D01*
X001137Y011878D02*
X001047Y011878D01*
X001047Y011779D02*
X001127Y011779D01*
X001127Y011681D02*
X001047Y011681D01*
X001047Y011582D02*
X001154Y011582D01*
X001195Y011484D02*
X001047Y011484D01*
X002104Y010006D02*
X002110Y010006D01*
X002145Y009907D02*
X002208Y009907D01*
X002167Y009808D02*
X002307Y009808D01*
X002405Y009710D02*
X002167Y009710D01*
X002152Y009611D02*
X002504Y009611D01*
X002603Y009513D02*
X002111Y009513D01*
X002045Y009414D02*
X002701Y009414D01*
X002800Y009316D02*
X001947Y009316D01*
X001881Y009217D02*
X002898Y009217D01*
X002997Y009119D02*
X002015Y009119D01*
X002098Y009020D02*
X003095Y009020D01*
X003194Y008922D02*
X002139Y008922D01*
X002167Y008823D02*
X003292Y008823D01*
X003391Y008724D02*
X002167Y008724D01*
X003575Y006458D02*
X003979Y006458D01*
X003880Y006359D02*
X003543Y006359D01*
X003471Y006261D02*
X003781Y006261D01*
X004254Y005965D02*
X004640Y005965D01*
X004599Y005867D02*
X004295Y005867D01*
X004307Y005768D02*
X004587Y005768D01*
X004587Y005670D02*
X004307Y005670D01*
X004268Y005571D02*
X004626Y005571D01*
X004688Y005473D02*
X004206Y005473D01*
X004090Y005374D02*
X004804Y005374D01*
X004921Y005177D02*
X003973Y005177D01*
X004158Y005078D02*
X004736Y005078D01*
X004646Y004980D02*
X004344Y004980D01*
X004442Y004881D02*
X004605Y004881D01*
X004587Y004783D02*
X004541Y004783D01*
X005790Y005374D02*
X008293Y005374D01*
X008354Y005473D02*
X005906Y005473D01*
X005968Y005571D02*
X008512Y005571D01*
X008563Y006754D02*
X008956Y006754D01*
X008838Y006852D02*
X008681Y006852D01*
X008739Y006951D02*
X008779Y006951D01*
X008168Y006754D02*
X007775Y006754D01*
X007893Y006852D02*
X008050Y006852D01*
X007992Y006951D02*
X007952Y006951D01*
X007381Y006754D02*
X006988Y006754D01*
X007106Y006852D02*
X007263Y006852D01*
X007204Y006951D02*
X007164Y006951D01*
X006594Y006754D02*
X006200Y006754D01*
X006319Y006852D02*
X006475Y006852D01*
X006417Y006951D02*
X006377Y006951D01*
X007403Y004389D02*
X007891Y004389D01*
X007891Y004487D02*
X007747Y004487D01*
X007891Y004290D02*
X007403Y004290D01*
X007403Y004191D02*
X007891Y004191D01*
X007891Y004093D02*
X007403Y004093D01*
X010869Y004093D02*
X011087Y004093D01*
X011087Y004191D02*
X010901Y004191D01*
X010901Y004290D02*
X011087Y004290D01*
X011087Y004389D02*
X010901Y004389D01*
X010901Y004487D02*
X011087Y004487D01*
X011087Y004586D02*
X010901Y004586D01*
X010901Y004684D02*
X011087Y004684D01*
X011087Y004783D02*
X010901Y004783D01*
X010899Y004881D02*
X011087Y004881D01*
X011507Y004290D02*
X011649Y004290D01*
X011597Y004191D02*
X011507Y004191D01*
X011507Y004093D02*
X011597Y004093D01*
X011204Y003797D02*
X010881Y003797D01*
X010901Y003699D02*
X011158Y003699D01*
X012144Y000742D02*
X012150Y000742D01*
X012191Y000644D02*
X012103Y000644D01*
X012027Y000545D02*
X012267Y000545D01*
X012385Y000447D02*
X011909Y000447D01*
X016909Y000447D02*
X017385Y000447D01*
X017267Y000545D02*
X017027Y000545D01*
X017103Y000644D02*
X017191Y000644D01*
X017150Y000742D02*
X017144Y000742D01*
X017909Y000447D02*
X018385Y000447D01*
X018267Y000545D02*
X018027Y000545D01*
X018103Y000644D02*
X018191Y000644D01*
X018150Y000742D02*
X018144Y000742D01*
X018909Y000447D02*
X019385Y000447D01*
X019267Y000545D02*
X019027Y000545D01*
X019103Y000644D02*
X019191Y000644D01*
X019150Y000742D02*
X019144Y000742D01*
X019118Y002122D02*
X019176Y002122D01*
X019231Y002221D02*
X019063Y002221D01*
X018964Y002319D02*
X019330Y002319D01*
X020232Y002713D02*
X018373Y002713D01*
X019097Y003501D02*
X019097Y003751D01*
X019183Y004389D02*
X019000Y004389D01*
X018596Y004881D02*
X018496Y004881D01*
X018496Y004980D02*
X018596Y004980D01*
X018596Y005078D02*
X018496Y005078D01*
X018496Y005177D02*
X018596Y005177D01*
X018596Y005275D02*
X018496Y005275D01*
X017837Y006571D02*
X017197Y007211D01*
X017197Y007701D01*
X017525Y007739D02*
X017552Y007739D01*
X015446Y009551D02*
X016097Y010202D01*
X016097Y010851D01*
X016594Y011287D02*
X017579Y011287D01*
X017564Y011301D02*
X017701Y011164D01*
X017481Y011164D01*
X017481Y010764D01*
X017949Y010764D01*
X017969Y010715D01*
X018061Y010623D01*
X018182Y010573D01*
X018292Y010573D01*
X018897Y009968D01*
X018897Y009884D01*
X018880Y009901D01*
X018580Y010201D01*
X018414Y010201D01*
X017080Y010201D01*
X017017Y010264D01*
X017381Y010264D01*
X017381Y010664D01*
X017481Y010664D01*
X017481Y010764D01*
X017381Y010764D01*
X017381Y010664D01*
X016881Y010664D01*
X016881Y010400D01*
X016797Y010484D01*
X016797Y010918D01*
X016797Y011084D01*
X016447Y011434D01*
X016330Y011551D01*
X015130Y011551D01*
X014547Y012134D01*
X014547Y013234D01*
X014430Y013351D01*
X014430Y013351D01*
X013880Y013901D01*
X013797Y013901D01*
X013797Y013997D01*
X013793Y014002D01*
X013797Y014006D01*
X013797Y014008D01*
X014051Y014008D01*
X014069Y013965D01*
X014161Y013873D01*
X014282Y013823D01*
X014412Y013823D01*
X014533Y013873D01*
X014625Y013965D01*
X014647Y014018D01*
X014647Y012334D01*
X014647Y012168D01*
X015047Y011768D01*
X015164Y011651D01*
X016314Y011651D01*
X016547Y011418D01*
X016664Y011301D01*
X017564Y011301D01*
X017677Y011188D02*
X016693Y011188D01*
X016791Y011089D02*
X016901Y011089D01*
X016891Y011072D02*
X016881Y011034D01*
X016881Y010764D01*
X017381Y010764D01*
X017381Y011164D01*
X017011Y011164D01*
X016973Y011154D01*
X016939Y011134D01*
X016911Y011106D01*
X016891Y011072D01*
X016881Y010991D02*
X016797Y010991D01*
X016797Y010892D02*
X016881Y010892D01*
X016881Y010794D02*
X016797Y010794D01*
X016797Y010695D02*
X017381Y010695D01*
X017381Y010597D02*
X017481Y010597D01*
X017481Y010664D02*
X017481Y010264D01*
X017851Y010264D01*
X017889Y010274D01*
X017923Y010294D01*
X017951Y010322D01*
X017971Y010356D01*
X017981Y010394D01*
X017981Y010664D01*
X017481Y010664D01*
X017481Y010695D02*
X017989Y010695D01*
X017981Y010597D02*
X018124Y010597D01*
X017981Y010498D02*
X018367Y010498D01*
X018466Y010400D02*
X017981Y010400D01*
X017930Y010301D02*
X018564Y010301D01*
X018663Y010203D02*
X017078Y010203D01*
X016881Y010498D02*
X016797Y010498D01*
X016797Y010597D02*
X016881Y010597D01*
X017381Y010498D02*
X017481Y010498D01*
X017481Y010400D02*
X017381Y010400D01*
X017381Y010301D02*
X017481Y010301D01*
X017481Y010794D02*
X017381Y010794D01*
X017381Y010892D02*
X017481Y010892D01*
X017481Y010991D02*
X017381Y010991D01*
X017381Y011089D02*
X017481Y011089D01*
X016580Y011385D02*
X016496Y011385D01*
X016482Y011484D02*
X016397Y011484D01*
X016383Y011582D02*
X015099Y011582D01*
X015135Y011681D02*
X015000Y011681D01*
X015036Y011779D02*
X014902Y011779D01*
X014937Y011878D02*
X014803Y011878D01*
X014839Y011976D02*
X014705Y011976D01*
X014740Y012075D02*
X014606Y012075D01*
X014647Y012173D02*
X014547Y012173D01*
X014547Y012272D02*
X014647Y012272D01*
X014647Y012371D02*
X014547Y012371D01*
X014547Y012469D02*
X014647Y012469D01*
X014647Y012568D02*
X014547Y012568D01*
X014547Y012666D02*
X014647Y012666D01*
X014647Y012765D02*
X014547Y012765D01*
X014547Y012863D02*
X014647Y012863D01*
X014647Y012962D02*
X014547Y012962D01*
X014547Y013060D02*
X014647Y013060D01*
X014647Y013159D02*
X014547Y013159D01*
X014524Y013257D02*
X014647Y013257D01*
X014647Y013356D02*
X014425Y013356D01*
X014326Y013455D02*
X014647Y013455D01*
X014647Y013553D02*
X014228Y013553D01*
X014129Y013652D02*
X014647Y013652D01*
X014647Y013750D02*
X014031Y013750D01*
X013932Y013849D02*
X014220Y013849D01*
X014087Y013947D02*
X013797Y013947D01*
X013364Y014151D02*
X013347Y014151D01*
X013147Y014151D01*
X012897Y014539D02*
X012807Y014539D01*
X012897Y014637D02*
X012708Y014637D01*
X012601Y014736D02*
X012897Y014736D01*
X012897Y014834D02*
X012601Y014834D01*
X012548Y014933D02*
X012897Y014933D01*
X012897Y015031D02*
X011327Y015031D01*
X011327Y015130D02*
X012897Y015130D01*
X012897Y015228D02*
X011327Y015228D01*
X011327Y015327D02*
X012238Y015327D01*
X012197Y015368D02*
X012197Y015368D01*
X012026Y015425D02*
X011327Y015425D01*
X011327Y015524D02*
X011860Y015524D01*
X011795Y015622D02*
X011327Y015622D01*
X011342Y015721D02*
X011769Y015721D01*
X011770Y015820D02*
X011441Y015820D01*
X011539Y015918D02*
X011811Y015918D01*
X011899Y016017D02*
X011638Y016017D01*
X011736Y016115D02*
X012897Y016115D01*
X012897Y016017D02*
X012295Y016017D01*
X012383Y015918D02*
X012897Y015918D01*
X012897Y015820D02*
X012424Y015820D01*
X012425Y015721D02*
X012897Y015721D01*
X013281Y015451D02*
X012397Y015451D01*
X012097Y015751D01*
X011835Y016214D02*
X012897Y016214D01*
X012897Y016312D02*
X011933Y016312D01*
X012032Y016411D02*
X012897Y016411D01*
X012897Y016509D02*
X012130Y016509D01*
X012229Y016608D02*
X012626Y016608D01*
X012617Y017101D02*
X004125Y017101D01*
X004125Y017002D02*
X011973Y017002D01*
X011874Y016904D02*
X010320Y016904D01*
X010418Y016805D02*
X011776Y016805D01*
X011677Y016706D02*
X010517Y016706D01*
X010615Y016608D02*
X011579Y016608D01*
X011480Y016509D02*
X010714Y016509D01*
X010813Y016411D02*
X011381Y016411D01*
X011283Y016312D02*
X010911Y016312D01*
X011010Y016214D02*
X011184Y016214D01*
X010447Y015351D02*
X010397Y015351D01*
X010037Y014991D01*
X009307Y014991D01*
X009247Y015051D01*
X002447Y015051D01*
X002297Y014901D01*
X001647Y014901D01*
X002247Y015401D02*
X002397Y015251D01*
X007647Y015251D01*
X008147Y015751D01*
X008342Y015751D01*
X008366Y015774D01*
X008874Y016904D02*
X004091Y016904D01*
X004091Y017199D02*
X012617Y017199D01*
X012668Y017298D02*
X004014Y017298D01*
X003580Y017298D02*
X003501Y017298D01*
X003501Y017396D02*
X006507Y017396D01*
X006318Y017495D02*
X003501Y017495D01*
X003501Y017593D02*
X006219Y017593D01*
X006171Y017692D02*
X003486Y017692D01*
X003464Y017988D02*
X006127Y017988D01*
X006127Y017889D02*
X002167Y017889D01*
X002167Y017988D02*
X002530Y017988D01*
X002493Y018086D02*
X002304Y018086D01*
X002454Y018185D02*
X002493Y018185D01*
X002207Y018401D02*
X002997Y018401D01*
X002997Y018402D01*
X003501Y018382D02*
X006417Y018382D01*
X006333Y018480D02*
X003501Y018480D01*
X003501Y018579D02*
X006234Y018579D01*
X006177Y018677D02*
X003501Y018677D01*
X003501Y018776D02*
X006136Y018776D01*
X006127Y018874D02*
X003284Y018874D01*
X003331Y018973D02*
X006127Y018973D01*
X006155Y019071D02*
X003345Y019071D01*
X003331Y019170D02*
X006196Y019170D01*
X006279Y019269D02*
X003284Y019269D01*
X003160Y019367D02*
X006413Y019367D01*
X006881Y019367D02*
X007413Y019367D01*
X007279Y019269D02*
X007015Y019269D01*
X007098Y019170D02*
X007196Y019170D01*
X007155Y019071D02*
X007139Y019071D01*
X007881Y019367D02*
X008413Y019367D01*
X008279Y019269D02*
X008015Y019269D01*
X008098Y019170D02*
X008196Y019170D01*
X008155Y019071D02*
X008139Y019071D01*
X008881Y019367D02*
X009413Y019367D01*
X009279Y019269D02*
X009015Y019269D01*
X009098Y019170D02*
X009196Y019170D01*
X009155Y019071D02*
X009139Y019071D01*
X009881Y019367D02*
X010413Y019367D01*
X010279Y019269D02*
X010015Y019269D01*
X010098Y019170D02*
X010196Y019170D01*
X010155Y019071D02*
X010139Y019071D01*
X010881Y019367D02*
X011413Y019367D01*
X011279Y019269D02*
X011015Y019269D01*
X011098Y019170D02*
X011196Y019170D01*
X011155Y019071D02*
X011139Y019071D01*
X011881Y019367D02*
X012413Y019367D01*
X012279Y019269D02*
X012015Y019269D01*
X012098Y019170D02*
X012196Y019170D01*
X012155Y019071D02*
X012139Y019071D01*
X012881Y019367D02*
X013413Y019367D01*
X013279Y019269D02*
X013015Y019269D01*
X013098Y019170D02*
X013196Y019170D01*
X013155Y019071D02*
X013139Y019071D01*
X013881Y019367D02*
X014413Y019367D01*
X014279Y019269D02*
X014015Y019269D01*
X014098Y019170D02*
X014196Y019170D01*
X014155Y019071D02*
X014139Y019071D01*
X014881Y019367D02*
X015416Y019367D01*
X015279Y019269D02*
X015015Y019269D01*
X015098Y019170D02*
X015200Y019170D01*
X015156Y019071D02*
X015139Y019071D01*
X015597Y019071D02*
X015697Y019071D01*
X015697Y018973D02*
X015597Y018973D01*
X015597Y018851D02*
X015697Y018851D01*
X015697Y018420D01*
X015697Y017951D01*
X015597Y017951D01*
X015597Y018420D01*
X015597Y018851D01*
X015597Y018776D02*
X015697Y018776D01*
X015697Y018677D02*
X015597Y018677D01*
X015597Y018579D02*
X015697Y018579D01*
X015697Y018480D02*
X015597Y018480D01*
X015597Y018382D02*
X015697Y018382D01*
X015697Y018283D02*
X015597Y018283D01*
X015597Y018185D02*
X015697Y018185D01*
X015697Y018086D02*
X015597Y018086D01*
X015597Y017988D02*
X015697Y017988D01*
X015697Y017790D02*
X015597Y017790D01*
X015597Y017692D02*
X015697Y017692D01*
X015697Y017593D02*
X015597Y017593D01*
X015597Y017495D02*
X015697Y017495D01*
X015697Y017396D02*
X015597Y017396D01*
X015518Y017396D02*
X014787Y017396D01*
X014976Y017495D02*
X015322Y017495D01*
X015228Y017593D02*
X015075Y017593D01*
X015123Y017692D02*
X015170Y017692D01*
X015776Y017396D02*
X016507Y017396D01*
X016318Y017495D02*
X015972Y017495D01*
X016066Y017593D02*
X016219Y017593D01*
X016171Y017692D02*
X016124Y017692D01*
X016787Y017396D02*
X017507Y017396D01*
X017481Y017227D02*
X017851Y017227D01*
X017889Y017217D01*
X017923Y017197D01*
X017951Y017169D01*
X017971Y017135D01*
X017981Y017097D01*
X017981Y016827D01*
X017481Y016827D01*
X017481Y016727D01*
X017981Y016727D01*
X017981Y016457D01*
X017971Y016419D01*
X017951Y016385D01*
X017923Y016357D01*
X017889Y016337D01*
X017851Y016327D01*
X017481Y016327D01*
X017481Y016727D01*
X017381Y016727D01*
X017381Y016327D01*
X017011Y016327D01*
X016973Y016337D01*
X016939Y016357D01*
X016911Y016385D01*
X016891Y016419D01*
X016881Y016457D01*
X016881Y016727D01*
X017381Y016727D01*
X017381Y016827D01*
X016881Y016827D01*
X016881Y017097D01*
X016891Y017135D01*
X016911Y017169D01*
X016939Y017197D01*
X016973Y017217D01*
X017011Y017227D01*
X017381Y017227D01*
X017381Y016827D01*
X017481Y016827D01*
X017481Y017227D01*
X017481Y017199D02*
X017381Y017199D01*
X017381Y017101D02*
X017481Y017101D01*
X017481Y017002D02*
X017381Y017002D01*
X017381Y016904D02*
X017481Y016904D01*
X017481Y016805D02*
X019168Y016805D01*
X019069Y016706D02*
X017981Y016706D01*
X017981Y016608D02*
X018971Y016608D01*
X018872Y016509D02*
X017981Y016509D01*
X017966Y016411D02*
X018774Y016411D01*
X018675Y016312D02*
X013797Y016312D01*
X013797Y016214D02*
X018577Y016214D01*
X018478Y016115D02*
X013797Y016115D01*
X013797Y016017D02*
X018447Y016017D01*
X018447Y015918D02*
X017855Y015918D01*
X017822Y015950D02*
X017703Y016000D01*
X017574Y016000D01*
X017454Y015950D01*
X017363Y015859D01*
X017313Y015739D01*
X017313Y015610D01*
X017363Y015491D01*
X017454Y015399D01*
X017574Y015350D01*
X017703Y015350D01*
X017822Y015399D01*
X017914Y015491D01*
X017963Y015610D01*
X017963Y015739D01*
X017914Y015859D01*
X017822Y015950D01*
X017930Y015820D02*
X018447Y015820D01*
X018447Y015721D02*
X017963Y015721D01*
X017963Y015622D02*
X018435Y015622D01*
X018337Y015524D02*
X017928Y015524D01*
X017849Y015425D02*
X018238Y015425D01*
X018140Y015327D02*
X014604Y015327D01*
X014506Y015425D02*
X017428Y015425D01*
X017349Y015524D02*
X014407Y015524D01*
X014309Y015622D02*
X017313Y015622D01*
X017313Y015721D02*
X013797Y015721D01*
X013797Y015820D02*
X017347Y015820D01*
X017422Y015918D02*
X013797Y015918D01*
X014147Y016152D02*
X014198Y016101D01*
X014947Y016101D01*
X014496Y016608D02*
X016881Y016608D01*
X016881Y016706D02*
X014616Y016706D01*
X014662Y016805D02*
X017381Y016805D01*
X017381Y016706D02*
X017481Y016706D01*
X017481Y016608D02*
X017381Y016608D01*
X017381Y016509D02*
X017481Y016509D01*
X017481Y016411D02*
X017381Y016411D01*
X016896Y016411D02*
X013797Y016411D01*
X013797Y016509D02*
X016881Y016509D01*
X016881Y016904D02*
X014675Y016904D01*
X014660Y017002D02*
X016881Y017002D01*
X016882Y017101D02*
X014611Y017101D01*
X014524Y017199D02*
X016942Y017199D01*
X016976Y017495D02*
X017318Y017495D01*
X017219Y017593D02*
X017075Y017593D01*
X017123Y017692D02*
X017171Y017692D01*
X017787Y017396D02*
X018507Y017396D01*
X018318Y017495D02*
X017976Y017495D01*
X018075Y017593D02*
X018219Y017593D01*
X018171Y017692D02*
X018123Y017692D01*
X017919Y017199D02*
X019447Y017199D01*
X019447Y017101D02*
X017980Y017101D01*
X017981Y017002D02*
X019365Y017002D01*
X019267Y016904D02*
X017981Y016904D01*
X018787Y017396D02*
X019447Y017396D01*
X019447Y017298D02*
X014426Y017298D01*
X014507Y017396D02*
X014327Y017396D01*
X014318Y017495D02*
X014229Y017495D01*
X014219Y017593D02*
X014074Y017593D01*
X014123Y017692D02*
X014171Y017692D01*
X013585Y016913D02*
X014147Y016351D01*
X014147Y016152D01*
X014198Y016608D02*
X013990Y016608D01*
X014033Y016706D02*
X014078Y016706D01*
X013585Y016913D02*
X013583Y016913D01*
X012507Y017396D02*
X011787Y017396D01*
X011976Y017495D02*
X012318Y017495D01*
X012219Y017593D02*
X012075Y017593D01*
X012123Y017692D02*
X012171Y017692D01*
X011507Y017396D02*
X010787Y017396D01*
X010976Y017495D02*
X011318Y017495D01*
X011219Y017593D02*
X011075Y017593D01*
X011123Y017692D02*
X011171Y017692D01*
X010507Y017396D02*
X009787Y017396D01*
X009976Y017495D02*
X010318Y017495D01*
X010219Y017593D02*
X010075Y017593D01*
X010123Y017692D02*
X010171Y017692D01*
X009507Y017396D02*
X008787Y017396D01*
X008976Y017495D02*
X009318Y017495D01*
X009219Y017593D02*
X009075Y017593D01*
X009123Y017692D02*
X009171Y017692D01*
X008507Y017396D02*
X007787Y017396D01*
X007976Y017495D02*
X008318Y017495D01*
X008219Y017593D02*
X008075Y017593D01*
X008123Y017692D02*
X008171Y017692D01*
X007507Y017396D02*
X006787Y017396D01*
X006976Y017495D02*
X007318Y017495D01*
X007219Y017593D02*
X007075Y017593D01*
X007123Y017692D02*
X007171Y017692D01*
X006294Y018283D02*
X003501Y018283D01*
X003501Y018185D02*
X006202Y018185D01*
X006161Y018086D02*
X003501Y018086D01*
X002897Y018951D02*
X003017Y019071D01*
X002897Y018951D02*
X001697Y018951D01*
X002098Y019170D02*
X002703Y019170D01*
X002750Y019269D02*
X002015Y019269D01*
X001881Y019367D02*
X002874Y019367D01*
X002507Y017692D02*
X002181Y017692D01*
X002164Y017790D02*
X006130Y017790D01*
X003503Y017199D02*
X003501Y017199D01*
X002493Y017396D02*
X002477Y017396D01*
X002493Y017495D02*
X002379Y017495D01*
X002280Y017593D02*
X002493Y017593D01*
X001997Y016251D02*
X001647Y015901D01*
X001997Y016251D02*
X009547Y016251D01*
X009547Y016276D01*
X011548Y014933D02*
X011646Y014933D01*
X012497Y014501D02*
X012547Y014501D01*
X012097Y013400D02*
X012097Y012811D01*
X011647Y012251D02*
X012147Y011751D01*
X014047Y011751D01*
X014947Y010851D01*
X014947Y010271D01*
X012497Y010271D01*
X012397Y010502D01*
X012997Y010481D02*
X014447Y010481D01*
X014447Y010851D01*
X014156Y010695D02*
X013945Y010695D01*
X013951Y010794D02*
X014119Y010794D01*
X014119Y010892D02*
X013951Y010892D01*
X013957Y010061D02*
X013447Y009551D01*
X013446Y009551D01*
X013957Y010061D02*
X015407Y010061D01*
X015597Y010251D01*
X015597Y010851D01*
X013997Y012601D02*
X013767Y012371D01*
X013297Y012371D01*
X013997Y012601D02*
X013997Y013101D01*
X013747Y013351D01*
X013348Y013351D01*
X013347Y013352D01*
X014474Y013849D02*
X014647Y013849D01*
X014647Y013947D02*
X014607Y013947D01*
X015294Y014637D02*
X017450Y014637D01*
X017351Y014539D02*
X015392Y014539D01*
X015447Y014440D02*
X017347Y014440D01*
X017347Y014341D02*
X015447Y014341D01*
X015447Y014243D02*
X017347Y014243D01*
X017347Y014144D02*
X015447Y014144D01*
X015447Y014046D02*
X017347Y014046D01*
X017347Y013947D02*
X015447Y013947D01*
X015447Y013849D02*
X017347Y013849D01*
X017347Y013750D02*
X015447Y013750D01*
X015447Y013652D02*
X017304Y013652D01*
X017269Y013553D02*
X015447Y013553D01*
X015447Y013455D02*
X017269Y013455D01*
X017302Y013356D02*
X015447Y013356D01*
X015447Y013257D02*
X017377Y013257D01*
X017597Y013501D02*
X017547Y013551D01*
X017547Y014451D01*
X018647Y015551D01*
X018647Y016001D01*
X019647Y017001D01*
X019647Y017901D01*
X019171Y017692D02*
X019123Y017692D01*
X019075Y017593D02*
X019219Y017593D01*
X019318Y017495D02*
X018976Y017495D01*
X019139Y019071D02*
X019155Y019071D01*
X019196Y019170D02*
X019098Y019170D01*
X019015Y019269D02*
X019279Y019269D01*
X019413Y019367D02*
X018881Y019367D01*
X018413Y019367D02*
X017881Y019367D01*
X018015Y019269D02*
X018279Y019269D01*
X018196Y019170D02*
X018098Y019170D01*
X018139Y019071D02*
X018155Y019071D01*
X017413Y019367D02*
X016881Y019367D01*
X017015Y019269D02*
X017279Y019269D01*
X017196Y019170D02*
X017098Y019170D01*
X017139Y019071D02*
X017155Y019071D01*
X016413Y019367D02*
X015878Y019367D01*
X016015Y019269D02*
X016279Y019269D01*
X016196Y019170D02*
X016094Y019170D01*
X016138Y019071D02*
X016155Y019071D01*
X015697Y019170D02*
X015597Y019170D01*
X015597Y019269D02*
X015697Y019269D01*
X015697Y019367D02*
X015597Y019367D01*
X014703Y015228D02*
X018041Y015228D01*
X017943Y015130D02*
X014801Y015130D01*
X014900Y015031D02*
X017844Y015031D01*
X017746Y014933D02*
X014998Y014933D01*
X015097Y014834D02*
X017647Y014834D01*
X017549Y014736D02*
X015195Y014736D01*
X014433Y014933D02*
X013797Y014933D01*
X013797Y015031D02*
X014334Y015031D01*
X014236Y015130D02*
X013797Y015130D01*
X013797Y015228D02*
X014137Y015228D01*
X017932Y012666D02*
X020232Y012666D01*
X020232Y012568D02*
X017963Y012568D01*
X017963Y012469D02*
X020232Y012469D01*
X020232Y012371D02*
X017926Y012371D01*
X018677Y010104D02*
X018761Y010104D01*
X018775Y010006D02*
X018860Y010006D01*
X018874Y009907D02*
X018897Y009907D01*
X012997Y010481D02*
X012997Y010901D01*
X012897Y011001D01*
X011797Y011001D01*
X011796Y011001D02*
X011297Y010502D01*
X011298Y010502D01*
X011347Y010551D01*
X001414Y002615D02*
X001047Y002615D01*
X001047Y002713D02*
X001316Y002713D01*
X001217Y002812D02*
X001047Y002812D01*
X001047Y002910D02*
X001119Y002910D01*
X001097Y003009D02*
X001047Y003009D01*
X001047Y003107D02*
X001097Y003107D01*
D28*
X005847Y003101D03*
X007297Y005601D03*
X007697Y008001D03*
X010097Y006601D03*
X012647Y007051D03*
X013297Y006151D03*
X014097Y011251D03*
X017047Y011201D03*
X017147Y012151D03*
X013997Y015101D03*
X014947Y016101D03*
X005397Y018651D03*
X004397Y017651D03*
X002897Y011151D03*
X004897Y009651D03*
X018897Y004151D03*
D29*
X018147Y002951D03*
X017197Y007701D03*
X017427Y008161D03*
X016567Y008431D03*
X016767Y008931D03*
X018297Y009601D03*
X018247Y010901D03*
X016097Y010851D03*
X015597Y010851D03*
X014947Y010851D03*
X014447Y010851D03*
X013297Y012371D03*
X012097Y012811D03*
X011597Y012751D03*
X010897Y012751D03*
X009797Y012751D03*
X008797Y012751D03*
X007797Y012751D03*
X008897Y011551D03*
X009297Y011151D03*
X010197Y011151D03*
X010797Y011081D03*
X009747Y008801D03*
X011097Y008551D03*
X012077Y008621D03*
X011297Y006351D03*
X008597Y005251D03*
X007547Y004751D03*
X006506Y002892D03*
X002547Y003001D03*
X003247Y006501D03*
X004947Y007751D03*
X005397Y009501D03*
X004297Y009601D03*
X006047Y010851D03*
X006847Y009901D03*
X006647Y008801D03*
X002397Y008251D03*
X005447Y013201D03*
X005797Y014651D03*
X003597Y013451D03*
X002247Y015401D03*
X003797Y017051D03*
X002207Y018401D03*
X003017Y019071D03*
X009547Y016276D03*
X010447Y015351D03*
X012097Y015751D03*
X012847Y016851D03*
X014347Y016901D03*
X014347Y014151D03*
X017597Y013501D03*
X011297Y003401D03*
D30*
X010397Y004501D02*
X010397Y004502D01*
X010397Y004501D02*
X009347Y004501D01*
X008597Y005251D01*
X008097Y004751D02*
X008397Y004451D01*
X008397Y003919D01*
X008415Y003901D01*
X008097Y004751D02*
X007547Y004751D01*
X005297Y004751D01*
X004747Y004251D02*
X006529Y004251D01*
X006879Y003901D01*
X006506Y002892D02*
X005515Y001901D01*
X003647Y001901D01*
X003647Y000901D01*
X001697Y001951D02*
X001647Y001901D01*
X001647Y000901D01*
X001697Y001951D02*
X001697Y002051D01*
X002597Y002951D01*
X002547Y003001D01*
X002597Y002951D02*
X002797Y003151D01*
X004697Y003151D01*
X005297Y003751D01*
X004747Y004251D02*
X004247Y004751D01*
X003597Y004751D01*
X003547Y004801D01*
X002547Y004801D01*
X002347Y005001D01*
X002347Y006001D01*
X001897Y006451D01*
X001697Y006451D01*
X002397Y006751D02*
X002647Y006501D01*
X003247Y006501D01*
X003597Y005751D02*
X004097Y006251D01*
X010397Y006251D01*
X011647Y007501D01*
X016197Y007501D01*
X018297Y009601D01*
X016767Y008931D02*
X016697Y008951D01*
X016697Y009700D01*
X016548Y009551D01*
X016697Y009702D01*
X016697Y008951D02*
X014547Y008951D01*
X014547Y009251D01*
X014548Y009252D01*
X014548Y009551D01*
X014547Y009700D01*
X014547Y009251D01*
X014547Y008951D02*
X012597Y008951D01*
X012597Y009401D01*
X012397Y009401D01*
X012397Y009400D01*
X011297Y009400D01*
X011287Y009390D01*
X010247Y009390D01*
X010237Y009400D01*
X009197Y009400D01*
X009197Y009201D01*
X005747Y009201D01*
X005447Y009501D01*
X005397Y009501D01*
X002397Y008251D02*
X002397Y006751D01*
X001747Y004401D02*
X001747Y004351D01*
X002197Y004351D01*
X002747Y003801D01*
X003547Y003801D01*
X003597Y003751D01*
X006647Y001901D02*
X006647Y000901D01*
X007647Y000901D02*
X007647Y001901D01*
X008647Y001901D02*
X008647Y000901D01*
X009647Y000901D02*
X009647Y001901D01*
X010647Y001901D02*
X010647Y000901D01*
X011647Y000901D02*
X011647Y001901D01*
X012647Y001901D02*
X012647Y000901D01*
X014647Y000901D02*
X014647Y001901D01*
X015647Y001901D02*
X015647Y000901D01*
X016647Y000901D02*
X016647Y001901D01*
X017647Y001901D02*
X017647Y000901D01*
X018647Y000901D02*
X018647Y001901D01*
X019647Y001901D02*
X019647Y000901D01*
X013330Y014151D02*
X013147Y014151D01*
X012497Y014501D02*
X012147Y014501D01*
X012097Y014502D01*
X012097Y014551D01*
X011097Y014551D01*
X011097Y014502D01*
X011097Y015801D01*
X012147Y016851D01*
X012847Y016851D01*
X012847Y017151D01*
X013047Y017351D01*
X014047Y017351D01*
X014347Y017051D01*
X014347Y016901D01*
X014647Y017901D02*
X014647Y018901D01*
X013647Y018901D02*
X013647Y017901D01*
X012647Y017901D02*
X012647Y018901D01*
X011647Y018901D02*
X011647Y017901D01*
X010647Y017901D02*
X010647Y018901D01*
X009647Y018901D02*
X009647Y017901D01*
X008647Y017901D02*
X008647Y018901D01*
X007647Y018901D02*
X007647Y017901D01*
X006647Y017901D02*
X006647Y018901D01*
X008897Y016601D02*
X008997Y016701D01*
X010197Y016701D01*
X011097Y015801D01*
X011097Y014551D02*
X010097Y014551D01*
X010097Y014502D01*
X010097Y014551D02*
X009097Y014551D01*
X009097Y014502D01*
X009097Y014551D02*
X008097Y014551D01*
X008097Y014502D01*
X008097Y014551D02*
X007097Y014551D01*
X007097Y014502D01*
X007047Y014501D01*
X006747Y014501D01*
X005447Y013201D01*
X002697Y016601D02*
X008897Y016601D01*
X002697Y016601D02*
X002297Y017001D01*
X002297Y017251D01*
X001647Y017901D01*
X016647Y017901D02*
X016647Y018901D01*
X017647Y018901D02*
X017647Y017901D01*
X018647Y017901D02*
X018647Y018901D01*
X019647Y018901D02*
X019647Y017901D01*
D31*
X014347Y014151D02*
X014280Y014218D01*
X013347Y014218D01*
X013347Y014151D01*
X013147Y014151D02*
X012897Y014151D01*
X012547Y014501D01*
X019147Y008525D02*
X019147Y007851D01*
X018647Y007851D01*
X017737Y007851D01*
X017427Y008161D01*
X018647Y007851D02*
X018647Y006478D01*
X019147Y006478D02*
X019147Y007001D01*
X020197Y008051D01*
X019647Y008525D02*
X019147Y008525D01*
X019447Y003501D02*
X019447Y003251D01*
X012997Y003751D02*
X012697Y004051D01*
X011997Y004051D01*
X011997Y003701D02*
X011597Y003701D01*
X011297Y004001D01*
X011297Y006351D01*
X011297Y003401D02*
X010397Y003401D01*
X010397Y003400D01*
X011997Y003351D02*
X011997Y002251D01*
X011647Y001901D01*
X003697Y016951D02*
X002997Y016951D01*
X002997Y017300D01*
X003697Y016951D02*
X003797Y017051D01*
X001697Y018951D02*
X001647Y018901D01*
M02*
