G75*
G70*
%OFA0B0*%
%FSLAX24Y24*%
%IPPOS*%
%LPD*%
%AMOC8*
5,1,8,0,0,1.08239X$1,22.5*
%
%ADD10C,0.0000*%
%ADD11R,0.0749X0.0670*%
%ADD12C,0.0780*%
%ADD13C,0.0560*%
%ADD14R,0.0670X0.0749*%
%ADD15R,0.0591X0.0512*%
%ADD16R,0.0340X0.0540*%
%ADD17R,0.0640X0.0340*%
%ADD18C,0.0555*%
%ADD19R,0.1024X0.0512*%
%ADD20R,0.0512X0.0591*%
%ADD21C,0.0600*%
%ADD22R,0.0512X0.1024*%
%ADD23OC8,0.1040*%
%ADD24R,0.0619X0.0540*%
%ADD25R,0.0540X0.0290*%
%ADD26R,0.0290X0.0540*%
%ADD27R,0.0630X0.0830*%
%ADD28R,0.1540X0.0830*%
%ADD29R,0.0749X0.0985*%
%ADD30C,0.0355*%
%ADD31R,0.0591X0.0178*%
%ADD32R,0.0788X0.0749*%
D10*
X000897Y000151D02*
X000897Y019646D01*
X020382Y019636D01*
X020382Y000151D01*
X000897Y000151D01*
X017363Y012619D02*
X017365Y012644D01*
X017371Y012668D01*
X017380Y012690D01*
X017393Y012711D01*
X017409Y012730D01*
X017428Y012746D01*
X017449Y012759D01*
X017471Y012768D01*
X017495Y012774D01*
X017520Y012776D01*
X017545Y012774D01*
X017569Y012768D01*
X017591Y012759D01*
X017612Y012746D01*
X017631Y012730D01*
X017647Y012711D01*
X017660Y012690D01*
X017669Y012668D01*
X017675Y012644D01*
X017677Y012619D01*
X017675Y012594D01*
X017669Y012570D01*
X017660Y012548D01*
X017647Y012527D01*
X017631Y012508D01*
X017612Y012492D01*
X017591Y012479D01*
X017569Y012470D01*
X017545Y012464D01*
X017520Y012462D01*
X017495Y012464D01*
X017471Y012470D01*
X017449Y012479D01*
X017428Y012492D01*
X017409Y012508D01*
X017393Y012527D01*
X017380Y012548D01*
X017371Y012570D01*
X017365Y012594D01*
X017363Y012619D01*
X017363Y015769D02*
X017365Y015794D01*
X017371Y015818D01*
X017380Y015840D01*
X017393Y015861D01*
X017409Y015880D01*
X017428Y015896D01*
X017449Y015909D01*
X017471Y015918D01*
X017495Y015924D01*
X017520Y015926D01*
X017545Y015924D01*
X017569Y015918D01*
X017591Y015909D01*
X017612Y015896D01*
X017631Y015880D01*
X017647Y015861D01*
X017660Y015840D01*
X017669Y015818D01*
X017675Y015794D01*
X017677Y015769D01*
X017675Y015744D01*
X017669Y015720D01*
X017660Y015698D01*
X017647Y015677D01*
X017631Y015658D01*
X017612Y015642D01*
X017591Y015629D01*
X017569Y015620D01*
X017545Y015614D01*
X017520Y015612D01*
X017495Y015614D01*
X017471Y015620D01*
X017449Y015629D01*
X017428Y015642D01*
X017409Y015658D01*
X017393Y015677D01*
X017380Y015698D01*
X017371Y015720D01*
X017365Y015744D01*
X017363Y015769D01*
D11*
X013737Y014672D03*
X013737Y013570D03*
X008697Y009402D03*
X007697Y009752D03*
X007797Y010700D03*
X007797Y011802D03*
X007697Y008650D03*
X008697Y008300D03*
X009297Y005352D03*
X009297Y004250D03*
X015897Y003740D03*
X015897Y004842D03*
X017817Y004842D03*
X017817Y003740D03*
X019297Y005950D03*
X018247Y005960D03*
X018247Y007062D03*
X019297Y007052D03*
X019597Y010450D03*
X019597Y011552D03*
X002897Y017300D03*
X002897Y018402D03*
D12*
X001647Y018901D03*
X001647Y017901D03*
X001647Y016901D03*
X001647Y015901D03*
X001647Y014901D03*
X001647Y013901D03*
X001647Y012751D03*
X001647Y011751D03*
X001647Y010751D03*
X001647Y009751D03*
X001647Y008751D03*
X001647Y007751D03*
X001697Y006451D03*
X001697Y005451D03*
X001647Y001901D03*
X001647Y000901D03*
X002647Y000901D03*
X003647Y000901D03*
X003647Y001901D03*
X002647Y001901D03*
X006647Y001901D03*
X006647Y000901D03*
X007647Y000901D03*
X008647Y000901D03*
X009647Y000901D03*
X010647Y000901D03*
X011647Y000901D03*
X012647Y000901D03*
X013647Y000901D03*
X014647Y000901D03*
X015647Y000901D03*
X016647Y000901D03*
X017647Y000901D03*
X018647Y000901D03*
X019647Y000901D03*
X019647Y001901D03*
X018647Y001901D03*
X017647Y001901D03*
X016647Y001901D03*
X015647Y001901D03*
X014647Y001901D03*
X013647Y001901D03*
X012647Y001901D03*
X011647Y001901D03*
X010647Y001901D03*
X009647Y001901D03*
X008647Y001901D03*
X007647Y001901D03*
X007647Y017901D03*
X008647Y017901D03*
X009647Y017901D03*
X010647Y017901D03*
X011647Y017901D03*
X012647Y017901D03*
X013647Y017901D03*
X014647Y017901D03*
X015647Y017901D03*
X016647Y017901D03*
X017647Y017901D03*
X018647Y017901D03*
X019647Y017901D03*
X019647Y018901D03*
X018647Y018901D03*
X017647Y018901D03*
X016647Y018901D03*
X015647Y018901D03*
X014647Y018901D03*
X013647Y018901D03*
X012647Y018901D03*
X011647Y018901D03*
X010647Y018901D03*
X009647Y018901D03*
X008647Y018901D03*
X007647Y018901D03*
X006647Y018901D03*
X006647Y017901D03*
D13*
X012247Y006551D03*
X014147Y006551D03*
X016347Y006151D03*
X017347Y006151D03*
D14*
X018646Y008251D03*
X019748Y008251D03*
X014948Y005001D03*
X013846Y005001D03*
X012898Y005001D03*
X011796Y005001D03*
X013096Y016101D03*
X014198Y016101D03*
D15*
X019097Y004842D03*
X019097Y003661D03*
D16*
X016047Y008069D03*
X015547Y008069D03*
X015047Y008069D03*
X014547Y008069D03*
X014047Y008069D03*
X013547Y008069D03*
X013047Y008069D03*
X012547Y008069D03*
X012047Y008069D03*
X011547Y008069D03*
X011047Y008069D03*
X010547Y008069D03*
X010047Y008069D03*
X009547Y008069D03*
X009547Y011833D03*
X010047Y011833D03*
X010547Y011833D03*
X011047Y011833D03*
X011547Y011833D03*
X012047Y011833D03*
X012547Y011833D03*
X013047Y011833D03*
X013547Y011833D03*
X014047Y011833D03*
X014547Y011833D03*
X015047Y011833D03*
X015547Y011833D03*
X016047Y011833D03*
D17*
X005797Y017651D03*
X005797Y019151D03*
X003797Y019151D03*
X003797Y017651D03*
D18*
X003641Y015774D03*
X004429Y015774D03*
X005216Y015774D03*
X006003Y015774D03*
X006791Y015774D03*
X007578Y015774D03*
X008366Y015774D03*
X009153Y015774D03*
X009940Y015774D03*
X002854Y015774D03*
X002854Y007113D03*
X003641Y007113D03*
X004429Y007113D03*
X005216Y007113D03*
X006003Y007113D03*
X006791Y007113D03*
X007578Y007113D03*
X008366Y007113D03*
X009153Y007113D03*
X009940Y007113D03*
D19*
X004147Y008952D03*
X004147Y010251D03*
D20*
X006706Y005401D03*
X007888Y005401D03*
X005788Y016951D03*
X004606Y016951D03*
D21*
X005017Y005751D02*
X005577Y005751D01*
X005577Y004751D02*
X005017Y004751D01*
X005017Y003751D02*
X005577Y003751D01*
X003877Y003751D02*
X003317Y003751D01*
X003317Y004751D02*
X003877Y004751D01*
X003877Y005751D02*
X003317Y005751D01*
D22*
X006997Y003901D03*
X008297Y003901D03*
D23*
X001747Y004351D03*
X001747Y003201D03*
D24*
X005147Y002548D03*
X005147Y000855D03*
D25*
X017497Y008801D03*
X017497Y009151D03*
X017497Y009501D03*
X017497Y010101D03*
X017497Y010451D03*
X017497Y010801D03*
D26*
X017224Y013501D03*
X016870Y013501D03*
X016274Y013651D03*
X015920Y013651D03*
D27*
X005657Y012061D03*
X004757Y012061D03*
X003857Y012061D03*
D28*
X004747Y014541D03*
D29*
X006550Y014601D03*
X008144Y014601D03*
D30*
X017520Y015769D03*
X017520Y012619D03*
D31*
X018554Y013739D03*
X018554Y013995D03*
X018554Y014251D03*
X018554Y014507D03*
X018554Y014763D03*
D32*
X019597Y015826D03*
X019597Y012676D03*
M02*
