G75*
G70*
%OFA0B0*%
%FSLAX24Y24*%
%IPPOS*%
%LPD*%
%AMOC8*
5,1,8,0,0,1.08239X$1,22.5*
%
%ADD10C,0.0000*%
%ADD11C,0.0780*%
%ADD12C,0.0560*%
%ADD13C,0.0555*%
%ADD14C,0.0394*%
%ADD15R,0.0591X0.0749*%
%ADD16R,0.0788X0.0591*%
%ADD17R,0.0631X0.0355*%
%ADD18C,0.0600*%
%ADD19R,0.0788X0.1379*%
%ADD20OC8,0.1040*%
%ADD21R,0.0512X0.1024*%
%ADD22R,0.0540X0.0290*%
%ADD23R,0.0749X0.0670*%
%ADD24R,0.0290X0.0540*%
D10*
X000897Y000806D02*
X000897Y020301D01*
X020382Y020291D01*
X020382Y000806D01*
X000897Y000806D01*
X018370Y013790D02*
X018372Y013816D01*
X018378Y013842D01*
X018388Y013867D01*
X018401Y013890D01*
X018417Y013910D01*
X018437Y013928D01*
X018459Y013943D01*
X018482Y013955D01*
X018508Y013963D01*
X018534Y013967D01*
X018560Y013967D01*
X018586Y013963D01*
X018612Y013955D01*
X018636Y013943D01*
X018657Y013928D01*
X018677Y013910D01*
X018693Y013890D01*
X018706Y013867D01*
X018716Y013842D01*
X018722Y013816D01*
X018724Y013790D01*
X018722Y013764D01*
X018716Y013738D01*
X018706Y013713D01*
X018693Y013690D01*
X018677Y013670D01*
X018657Y013652D01*
X018635Y013637D01*
X018612Y013625D01*
X018586Y013617D01*
X018560Y013613D01*
X018534Y013613D01*
X018508Y013617D01*
X018482Y013625D01*
X018458Y013637D01*
X018437Y013652D01*
X018417Y013670D01*
X018401Y013690D01*
X018388Y013713D01*
X018378Y013738D01*
X018372Y013764D01*
X018370Y013790D01*
X018370Y015522D02*
X018372Y015548D01*
X018378Y015574D01*
X018388Y015599D01*
X018401Y015622D01*
X018417Y015642D01*
X018437Y015660D01*
X018459Y015675D01*
X018482Y015687D01*
X018508Y015695D01*
X018534Y015699D01*
X018560Y015699D01*
X018586Y015695D01*
X018612Y015687D01*
X018636Y015675D01*
X018657Y015660D01*
X018677Y015642D01*
X018693Y015622D01*
X018706Y015599D01*
X018716Y015574D01*
X018722Y015548D01*
X018724Y015522D01*
X018722Y015496D01*
X018716Y015470D01*
X018706Y015445D01*
X018693Y015422D01*
X018677Y015402D01*
X018657Y015384D01*
X018635Y015369D01*
X018612Y015357D01*
X018586Y015349D01*
X018560Y015345D01*
X018534Y015345D01*
X018508Y015349D01*
X018482Y015357D01*
X018458Y015369D01*
X018437Y015384D01*
X018417Y015402D01*
X018401Y015422D01*
X018388Y015445D01*
X018378Y015470D01*
X018372Y015496D01*
X018370Y015522D01*
D11*
X018647Y018556D03*
X017647Y018556D03*
X016647Y018556D03*
X015647Y018556D03*
X014647Y018556D03*
X013647Y018556D03*
X012647Y018556D03*
X011647Y018556D03*
X010647Y018556D03*
X009647Y018556D03*
X008647Y018556D03*
X007647Y018556D03*
X006647Y018556D03*
X006647Y019556D03*
X007647Y019556D03*
X008647Y019556D03*
X009647Y019556D03*
X010647Y019556D03*
X011647Y019556D03*
X012647Y019556D03*
X013647Y019556D03*
X014647Y019556D03*
X015647Y019556D03*
X016647Y019556D03*
X017647Y019556D03*
X018647Y019556D03*
X019647Y019556D03*
X019647Y018556D03*
X019647Y002556D03*
X019647Y001556D03*
X018647Y001556D03*
X017647Y001556D03*
X016647Y001556D03*
X015647Y001556D03*
X014647Y001556D03*
X013647Y001556D03*
X012647Y001556D03*
X011647Y001556D03*
X010647Y001556D03*
X009647Y001556D03*
X008647Y001556D03*
X007647Y001556D03*
X006647Y001556D03*
X006647Y002556D03*
X007647Y002556D03*
X008647Y002556D03*
X009647Y002556D03*
X010647Y002556D03*
X011647Y002556D03*
X012647Y002556D03*
X013647Y002556D03*
X014647Y002556D03*
X015647Y002556D03*
X016647Y002556D03*
X017647Y002556D03*
X018647Y002556D03*
X003647Y002556D03*
X003647Y001556D03*
X002647Y001556D03*
X001647Y001556D03*
X001647Y002556D03*
X002647Y002556D03*
X001697Y006106D03*
X001697Y007106D03*
X001647Y008406D03*
X001647Y009406D03*
X001647Y010406D03*
X001647Y011406D03*
X001647Y012406D03*
X001647Y013406D03*
X001647Y014556D03*
X001647Y015556D03*
X001647Y016556D03*
X001647Y017556D03*
X001647Y018556D03*
X001647Y019556D03*
D12*
X012247Y007206D03*
X014147Y007206D03*
X016347Y006806D03*
X017347Y006806D03*
D13*
X009940Y007768D03*
X009153Y007768D03*
X008366Y007768D03*
X007578Y007768D03*
X006791Y007768D03*
X006003Y007768D03*
X005216Y007768D03*
X004429Y007768D03*
X003641Y007768D03*
X002854Y007768D03*
X002854Y016430D03*
X003641Y016430D03*
X004429Y016430D03*
X005216Y016430D03*
X006003Y016430D03*
X006791Y016430D03*
X007578Y016430D03*
X008366Y016430D03*
X009153Y016430D03*
X009940Y016430D03*
D14*
X018547Y015522D03*
X018547Y013790D03*
D15*
X013104Y014605D03*
X013104Y016849D03*
D16*
X018282Y017479D03*
X018675Y012302D03*
D17*
X017160Y014137D03*
X017002Y014570D03*
X017160Y015003D03*
X017238Y015436D03*
X017160Y015869D03*
X017238Y016302D03*
X017160Y016735D03*
X017160Y017168D03*
D18*
X005577Y006406D02*
X005017Y006406D01*
X005017Y005406D02*
X005577Y005406D01*
X005577Y004406D02*
X005017Y004406D01*
X003877Y004406D02*
X003317Y004406D01*
X003317Y005406D02*
X003877Y005406D01*
X003877Y006406D02*
X003317Y006406D01*
D19*
X006879Y004556D03*
X008415Y004556D03*
D20*
X001747Y005006D03*
X001747Y003856D03*
D21*
X012997Y004406D03*
X014297Y004406D03*
D22*
X014197Y006129D03*
X014197Y006483D03*
X012297Y006483D03*
X012297Y006129D03*
X011997Y004706D03*
X011997Y004356D03*
X011997Y004006D03*
X016347Y005829D03*
X016347Y006183D03*
X017347Y006183D03*
X017347Y005829D03*
D23*
X015997Y009855D03*
X014997Y009855D03*
X013997Y009855D03*
X012997Y009855D03*
X011997Y009855D03*
X010997Y009855D03*
X010997Y010957D03*
X011997Y010957D03*
X012997Y010957D03*
X013997Y010957D03*
X014997Y010957D03*
X015997Y010957D03*
X012097Y014055D03*
X011097Y014055D03*
X010097Y014055D03*
X009097Y014055D03*
X008097Y014055D03*
X007097Y014055D03*
X007097Y015157D03*
X008097Y015157D03*
X009097Y015157D03*
X010097Y015157D03*
X011097Y015157D03*
X012097Y015157D03*
X010397Y005157D03*
X010397Y004055D03*
D24*
X006347Y012156D03*
X005997Y012156D03*
X005647Y012156D03*
X004447Y012156D03*
X004097Y012156D03*
X003747Y012156D03*
M02*
