G75*
G70*
%OFA0B0*%
%FSLAX24Y24*%
%IPPOS*%
%LPD*%
%AMOC8*
5,1,8,0,0,1.08239X$1,22.5*
%
%ADD10C,0.0000*%
%ADD11R,0.0709X0.0630*%
%ADD12C,0.0740*%
%ADD13C,0.0520*%
%ADD14R,0.0630X0.0709*%
%ADD15R,0.0551X0.0472*%
%ADD16R,0.0300X0.0500*%
%ADD17R,0.0600X0.0300*%
%ADD18C,0.0515*%
%ADD19R,0.0984X0.0197*%
%ADD20R,0.0984X0.0787*%
%ADD21R,0.0984X0.0472*%
%ADD22R,0.0472X0.0551*%
%ADD23C,0.0560*%
%ADD24R,0.0472X0.0984*%
%ADD25OC8,0.1000*%
%ADD26R,0.0579X0.0500*%
%ADD27R,0.0500X0.0250*%
%ADD28R,0.0250X0.0500*%
%ADD29R,0.0590X0.0790*%
%ADD30R,0.1500X0.0790*%
%ADD31R,0.0709X0.0945*%
%ADD32C,0.0100*%
%ADD33C,0.0160*%
%ADD34C,0.0396*%
%ADD35C,0.0120*%
D10*
X000897Y000806D02*
X000897Y020301D01*
X020382Y020291D01*
X020382Y000806D01*
X000897Y000806D01*
X018370Y013790D02*
X018372Y013816D01*
X018378Y013842D01*
X018388Y013867D01*
X018401Y013890D01*
X018417Y013910D01*
X018437Y013928D01*
X018459Y013943D01*
X018482Y013955D01*
X018508Y013963D01*
X018534Y013967D01*
X018560Y013967D01*
X018586Y013963D01*
X018612Y013955D01*
X018636Y013943D01*
X018657Y013928D01*
X018677Y013910D01*
X018693Y013890D01*
X018706Y013867D01*
X018716Y013842D01*
X018722Y013816D01*
X018724Y013790D01*
X018722Y013764D01*
X018716Y013738D01*
X018706Y013713D01*
X018693Y013690D01*
X018677Y013670D01*
X018657Y013652D01*
X018635Y013637D01*
X018612Y013625D01*
X018586Y013617D01*
X018560Y013613D01*
X018534Y013613D01*
X018508Y013617D01*
X018482Y013625D01*
X018458Y013637D01*
X018437Y013652D01*
X018417Y013670D01*
X018401Y013690D01*
X018388Y013713D01*
X018378Y013738D01*
X018372Y013764D01*
X018370Y013790D01*
X018370Y015522D02*
X018372Y015548D01*
X018378Y015574D01*
X018388Y015599D01*
X018401Y015622D01*
X018417Y015642D01*
X018437Y015660D01*
X018459Y015675D01*
X018482Y015687D01*
X018508Y015695D01*
X018534Y015699D01*
X018560Y015699D01*
X018586Y015695D01*
X018612Y015687D01*
X018636Y015675D01*
X018657Y015660D01*
X018677Y015642D01*
X018693Y015622D01*
X018706Y015599D01*
X018716Y015574D01*
X018722Y015548D01*
X018724Y015522D01*
X018722Y015496D01*
X018716Y015470D01*
X018706Y015445D01*
X018693Y015422D01*
X018677Y015402D01*
X018657Y015384D01*
X018635Y015369D01*
X018612Y015357D01*
X018586Y015349D01*
X018560Y015345D01*
X018534Y015345D01*
X018508Y015349D01*
X018482Y015357D01*
X018458Y015369D01*
X018437Y015384D01*
X018417Y015402D01*
X018401Y015422D01*
X018388Y015445D01*
X018378Y015470D01*
X018372Y015496D01*
X018370Y015522D01*
D11*
X013697Y015107D03*
X013697Y014005D03*
X008697Y010057D03*
X007697Y010057D03*
X007947Y011005D03*
X007947Y012107D03*
X007697Y008955D03*
X008697Y008955D03*
X009297Y006007D03*
X009297Y004905D03*
X015897Y004395D03*
X015897Y005497D03*
X017817Y005497D03*
X018247Y006615D03*
X019297Y006605D03*
X019297Y007707D03*
X018247Y007717D03*
X017817Y004395D03*
X002897Y017955D03*
X002897Y019057D03*
D12*
X001647Y019556D03*
X001647Y018556D03*
X001647Y017556D03*
X001647Y016556D03*
X001647Y015556D03*
X001647Y014556D03*
X001647Y013406D03*
X001647Y012406D03*
X001647Y011406D03*
X001647Y010406D03*
X001647Y009406D03*
X001647Y008406D03*
X001697Y007106D03*
X001697Y006106D03*
X001647Y002556D03*
X001647Y001556D03*
X002647Y001556D03*
X003647Y001556D03*
X003647Y002556D03*
X002647Y002556D03*
X006647Y002556D03*
X007647Y002556D03*
X007647Y001556D03*
X006647Y001556D03*
X008647Y001556D03*
X009647Y001556D03*
X010647Y001556D03*
X011647Y001556D03*
X012647Y001556D03*
X013647Y001556D03*
X014647Y001556D03*
X015647Y001556D03*
X016647Y001556D03*
X017647Y001556D03*
X018647Y001556D03*
X019647Y001556D03*
X019647Y002556D03*
X018647Y002556D03*
X017647Y002556D03*
X016647Y002556D03*
X015647Y002556D03*
X014647Y002556D03*
X013647Y002556D03*
X012647Y002556D03*
X011647Y002556D03*
X010647Y002556D03*
X009647Y002556D03*
X008647Y002556D03*
X008647Y018556D03*
X007647Y018556D03*
X006647Y018556D03*
X006647Y019556D03*
X007647Y019556D03*
X008647Y019556D03*
X009647Y019556D03*
X009647Y018556D03*
X010647Y018556D03*
X011647Y018556D03*
X012647Y018556D03*
X013647Y018556D03*
X014647Y018556D03*
X015647Y018556D03*
X016647Y018556D03*
X017647Y018556D03*
X018647Y018556D03*
X019647Y018556D03*
X019647Y019556D03*
X018647Y019556D03*
X017647Y019556D03*
X016647Y019556D03*
X015647Y019556D03*
X014647Y019556D03*
X013647Y019556D03*
X012647Y019556D03*
X011647Y019556D03*
X010647Y019556D03*
D13*
X012247Y007206D03*
X014147Y007206D03*
X016347Y006806D03*
X017347Y006806D03*
D14*
X018646Y008906D03*
X019748Y008906D03*
X014948Y005656D03*
X013846Y005656D03*
X012898Y005656D03*
X011796Y005656D03*
X013046Y016756D03*
X014148Y016756D03*
D15*
X019097Y005497D03*
X019097Y004316D03*
D16*
X016047Y008724D03*
X015547Y008724D03*
X015047Y008724D03*
X014547Y008724D03*
X014047Y008724D03*
X013547Y008724D03*
X013047Y008724D03*
X012547Y008724D03*
X012047Y008724D03*
X011547Y008724D03*
X011047Y008724D03*
X010547Y008724D03*
X010047Y008724D03*
X009547Y008724D03*
X009547Y012488D03*
X010047Y012488D03*
X010547Y012488D03*
X011047Y012488D03*
X011547Y012488D03*
X012047Y012488D03*
X012547Y012488D03*
X013047Y012488D03*
X013547Y012488D03*
X014047Y012488D03*
X014547Y012488D03*
X015047Y012488D03*
X015547Y012488D03*
X016047Y012488D03*
D17*
X005797Y018306D03*
X005797Y019806D03*
X003797Y019806D03*
X003797Y018306D03*
D18*
X003641Y016430D03*
X004429Y016430D03*
X005216Y016430D03*
X006003Y016430D03*
X006791Y016430D03*
X007578Y016430D03*
X008366Y016430D03*
X009153Y016430D03*
X009940Y016430D03*
X002854Y016430D03*
X002854Y007768D03*
X003641Y007768D03*
X004429Y007768D03*
X005216Y007768D03*
X006003Y007768D03*
X006791Y007768D03*
X007578Y007768D03*
X008366Y007768D03*
X009153Y007768D03*
X009940Y007768D03*
D19*
X017563Y014026D03*
X017563Y014341D03*
X017563Y014656D03*
X017563Y014971D03*
X017563Y015286D03*
D20*
X017563Y016428D03*
X019728Y016428D03*
X019728Y012885D03*
X017563Y012885D03*
D21*
X019497Y011206D03*
X019497Y009907D03*
X004147Y009607D03*
X004147Y010906D03*
D22*
X006706Y006056D03*
X007888Y006056D03*
X005788Y017606D03*
X004606Y017606D03*
D23*
X005017Y006406D02*
X005577Y006406D01*
X005577Y005406D02*
X005017Y005406D01*
X005017Y004406D02*
X005577Y004406D01*
X003877Y004406D02*
X003317Y004406D01*
X003317Y005406D02*
X003877Y005406D01*
X003877Y006406D02*
X003317Y006406D01*
D24*
X006997Y004556D03*
X008297Y004556D03*
D25*
X001747Y005006D03*
X001747Y003856D03*
D26*
X005347Y003203D03*
X005347Y001510D03*
D27*
X017497Y009456D03*
X017497Y009806D03*
X017497Y010156D03*
X017497Y010756D03*
X017497Y011106D03*
X017497Y011456D03*
D28*
X016474Y013406D03*
X016120Y013406D03*
X015524Y014156D03*
X015170Y014156D03*
D29*
X005657Y012716D03*
X004757Y012716D03*
X003857Y012716D03*
D30*
X004747Y015196D03*
D31*
X006550Y015256D03*
X008144Y015256D03*
D32*
X008757Y014506D02*
X008757Y016706D01*
X008997Y017356D02*
X006697Y017356D01*
X006697Y018506D01*
X006647Y018556D01*
X006455Y018051D02*
X006204Y018051D01*
X006247Y018094D02*
X006247Y018193D01*
X006341Y018099D01*
X006477Y018042D01*
X006477Y017265D01*
X006506Y017236D01*
X006141Y017236D01*
X006174Y017269D01*
X006174Y017556D01*
X005838Y017556D01*
X005838Y017656D01*
X006174Y017656D01*
X006174Y017944D01*
X006111Y018006D01*
X006159Y018006D01*
X006247Y018094D01*
X006247Y018150D02*
X006290Y018150D01*
X006165Y017953D02*
X006477Y017953D01*
X006477Y017854D02*
X006174Y017854D01*
X006174Y017756D02*
X006477Y017756D01*
X006477Y017657D02*
X006174Y017657D01*
X006174Y017460D02*
X006477Y017460D01*
X006477Y017362D02*
X006174Y017362D01*
X006168Y017263D02*
X006479Y017263D01*
X006477Y017559D02*
X005838Y017559D01*
X005837Y017656D02*
X005738Y017656D01*
X005738Y018006D01*
X005772Y018006D01*
X005772Y018281D01*
X005822Y018281D01*
X005822Y018006D01*
X005837Y018006D01*
X005837Y017656D01*
X005837Y017657D02*
X005738Y017657D01*
X005737Y017656D02*
X005737Y017556D01*
X005401Y017556D01*
X005401Y017269D01*
X005434Y017236D01*
X005317Y017236D01*
X005317Y018297D01*
X005267Y018347D01*
X005347Y018347D01*
X005347Y018331D02*
X005772Y018331D01*
X005772Y018281D01*
X005347Y018281D01*
X005347Y018094D01*
X005435Y018006D01*
X005464Y018006D01*
X005401Y017944D01*
X005401Y017656D01*
X005737Y017656D01*
X005737Y017559D02*
X005317Y017559D01*
X005317Y017657D02*
X005401Y017657D01*
X005401Y017756D02*
X005317Y017756D01*
X005317Y017854D02*
X005401Y017854D01*
X005410Y017953D02*
X005317Y017953D01*
X005317Y018051D02*
X005390Y018051D01*
X005347Y018150D02*
X005317Y018150D01*
X005317Y018248D02*
X005347Y018248D01*
X005347Y018331D02*
X005347Y018518D01*
X005435Y018606D01*
X005772Y018606D01*
X005772Y018332D01*
X005822Y018332D01*
X005822Y018606D01*
X006107Y018606D01*
X006107Y018664D01*
X006189Y018862D01*
X006341Y019014D01*
X006443Y019056D01*
X006341Y019099D01*
X006189Y019250D01*
X006107Y019449D01*
X006107Y019486D01*
X005427Y019486D01*
X005327Y019586D01*
X005327Y019586D01*
X005267Y019586D01*
X005267Y018347D01*
X005267Y018446D02*
X005347Y018446D01*
X005373Y018544D02*
X005267Y018544D01*
X005267Y018643D02*
X006107Y018643D01*
X006139Y018741D02*
X005267Y018741D01*
X005267Y018840D02*
X006180Y018840D01*
X006265Y018938D02*
X005267Y018938D01*
X005267Y019037D02*
X006396Y019037D01*
X006304Y019135D02*
X005267Y019135D01*
X005267Y019234D02*
X006206Y019234D01*
X006155Y019332D02*
X005267Y019332D01*
X005267Y019431D02*
X006114Y019431D01*
X005797Y019806D02*
X005047Y019806D01*
X005047Y018256D01*
X005097Y018206D01*
X005097Y017006D01*
X005317Y017263D02*
X005407Y017263D01*
X005401Y017362D02*
X005317Y017362D01*
X005317Y017460D02*
X005401Y017460D01*
X005738Y017756D02*
X005837Y017756D01*
X005837Y017854D02*
X005738Y017854D01*
X005738Y017953D02*
X005837Y017953D01*
X005822Y018051D02*
X005772Y018051D01*
X005772Y018150D02*
X005822Y018150D01*
X005822Y018248D02*
X005772Y018248D01*
X005772Y018347D02*
X005822Y018347D01*
X005822Y018446D02*
X005772Y018446D01*
X005772Y018544D02*
X005822Y018544D01*
X004827Y018544D02*
X004221Y018544D01*
X004247Y018518D02*
X004159Y018606D01*
X003822Y018606D01*
X003822Y018332D01*
X003772Y018332D01*
X003772Y018606D01*
X003435Y018606D01*
X003347Y018518D01*
X003347Y018415D01*
X003322Y018440D01*
X002472Y018440D01*
X002467Y018435D01*
X002467Y018578D01*
X002472Y018573D01*
X003322Y018573D01*
X003421Y018672D01*
X003421Y019443D01*
X003338Y019526D01*
X003362Y019551D01*
X003427Y019486D01*
X004167Y019486D01*
X004267Y019586D01*
X004267Y019586D01*
X004827Y019586D01*
X004827Y018347D01*
X004247Y018347D01*
X004247Y018331D02*
X004247Y018518D01*
X004247Y018446D02*
X004827Y018446D01*
X004827Y018347D02*
X004827Y018165D01*
X004877Y018115D01*
X004877Y018052D01*
X004300Y018052D01*
X004200Y017952D01*
X004200Y017836D01*
X004142Y017836D01*
X004109Y017915D01*
X004018Y018006D01*
X004159Y018006D01*
X004247Y018094D01*
X004247Y018281D01*
X003822Y018281D01*
X003822Y018331D01*
X004247Y018331D01*
X004247Y018248D02*
X004827Y018248D01*
X004842Y018150D02*
X004247Y018150D01*
X004204Y018051D02*
X004299Y018051D01*
X004201Y017953D02*
X004071Y017953D01*
X004134Y017854D02*
X004200Y017854D01*
X003822Y018347D02*
X003772Y018347D01*
X003772Y018446D02*
X003822Y018446D01*
X003822Y018544D02*
X003772Y018544D01*
X003421Y018741D02*
X004827Y018741D01*
X004827Y018643D02*
X003392Y018643D01*
X003373Y018544D02*
X002467Y018544D01*
X002467Y018446D02*
X003347Y018446D01*
X003421Y018840D02*
X004827Y018840D01*
X004827Y018938D02*
X003421Y018938D01*
X003421Y019037D02*
X004827Y019037D01*
X004827Y019135D02*
X003421Y019135D01*
X003421Y019234D02*
X004827Y019234D01*
X004827Y019332D02*
X003421Y019332D01*
X003421Y019431D02*
X004827Y019431D01*
X004827Y019530D02*
X004211Y019530D01*
X003797Y019806D02*
X005047Y019806D01*
X004956Y020026D02*
X004267Y020026D01*
X004267Y020027D01*
X004167Y020126D01*
X003427Y020126D01*
X003362Y020062D01*
X003306Y020118D01*
X003277Y020130D01*
X020212Y020121D01*
X006173Y020121D01*
X006167Y020126D02*
X005427Y020126D01*
X005327Y020027D01*
X005327Y020026D01*
X004956Y020026D01*
X005421Y020121D02*
X004173Y020121D01*
X003421Y020121D02*
X003300Y020121D01*
X003341Y019530D02*
X003383Y019530D01*
X002247Y019056D02*
X002247Y016056D01*
X003868Y014356D02*
X006297Y014356D01*
X006297Y014060D01*
X005529Y013292D01*
X005516Y013281D01*
X005292Y013281D01*
X005207Y013197D01*
X005174Y013230D01*
X005432Y013488D01*
X005520Y013488D01*
X005656Y013544D01*
X005759Y013648D01*
X005815Y013783D01*
X005815Y013930D01*
X005759Y014065D01*
X005656Y014168D01*
X005520Y014224D01*
X005374Y014224D01*
X005238Y014168D01*
X005135Y014065D01*
X005079Y013930D01*
X005079Y013842D01*
X004893Y013656D01*
X004797Y013656D01*
X004697Y013656D01*
X004605Y013618D01*
X004535Y013548D01*
X004497Y013456D01*
X004497Y013281D01*
X004392Y013281D01*
X004293Y013183D01*
X004214Y013261D01*
X003907Y013261D01*
X003907Y012766D01*
X003807Y012766D01*
X003807Y013261D01*
X003567Y013261D01*
X003567Y013738D01*
X003670Y013738D01*
X003806Y013794D01*
X003909Y013898D01*
X003965Y014033D01*
X003965Y014180D01*
X003909Y014315D01*
X003868Y014356D01*
X003912Y014307D02*
X006297Y014307D01*
X006297Y014208D02*
X005559Y014208D01*
X005714Y014110D02*
X006297Y014110D01*
X006248Y014011D02*
X005781Y014011D01*
X005815Y013913D02*
X006150Y013913D01*
X006051Y013814D02*
X005815Y013814D01*
X005787Y013715D02*
X005953Y013715D01*
X005854Y013617D02*
X005728Y013617D01*
X005756Y013518D02*
X005593Y013518D01*
X005657Y013420D02*
X005364Y013420D01*
X005265Y013321D02*
X005559Y013321D01*
X005233Y013223D02*
X005181Y013223D01*
X004953Y013715D02*
X003567Y013715D01*
X003567Y013617D02*
X004604Y013617D01*
X004523Y013518D02*
X003567Y013518D01*
X003567Y013420D02*
X004497Y013420D01*
X004497Y013321D02*
X003567Y013321D01*
X003807Y013223D02*
X003907Y013223D01*
X003907Y013124D02*
X003807Y013124D01*
X003807Y013026D02*
X003907Y013026D01*
X003907Y012927D02*
X003807Y012927D01*
X003807Y012829D02*
X003907Y012829D01*
X003907Y012666D02*
X003807Y012666D01*
X003807Y012171D01*
X003567Y012171D01*
X003567Y011266D01*
X003593Y011292D01*
X004097Y011292D01*
X004097Y010956D01*
X004197Y010956D01*
X004197Y011292D01*
X004701Y011292D01*
X004789Y011204D01*
X004789Y010956D01*
X004197Y010956D01*
X004197Y010856D01*
X004789Y010856D01*
X004789Y010608D01*
X004701Y010520D01*
X004554Y010520D01*
X004609Y010465D01*
X004665Y010330D01*
X004665Y010183D01*
X004609Y010048D01*
X004574Y010013D01*
X004710Y010013D01*
X004809Y009913D01*
X004809Y009856D01*
X004943Y009856D01*
X005070Y009983D01*
X005029Y010083D01*
X005029Y010230D01*
X005085Y010365D01*
X004650Y010365D01*
X004665Y010266D02*
X005044Y010266D01*
X005029Y010168D02*
X004659Y010168D01*
X004618Y010069D02*
X005035Y010069D01*
X005058Y009971D02*
X004752Y009971D01*
X004809Y009872D02*
X004960Y009872D01*
X005085Y010365D02*
X005188Y010468D01*
X005197Y010472D01*
X005197Y011303D01*
X005185Y011315D01*
X005185Y011315D01*
X004535Y011965D01*
X004497Y012057D01*
X004497Y012151D01*
X004392Y012151D01*
X004293Y012250D01*
X004214Y012171D01*
X003907Y012171D01*
X003907Y012666D01*
X003907Y012631D02*
X003807Y012631D01*
X003807Y012533D02*
X003907Y012533D01*
X003907Y012434D02*
X003807Y012434D01*
X003807Y012336D02*
X003907Y012336D01*
X003907Y012237D02*
X003807Y012237D01*
X003567Y012139D02*
X004497Y012139D01*
X004504Y012040D02*
X003567Y012040D01*
X003567Y011942D02*
X004558Y011942D01*
X004657Y011843D02*
X003567Y011843D01*
X003567Y011745D02*
X004755Y011745D01*
X004854Y011646D02*
X003567Y011646D01*
X003567Y011548D02*
X004952Y011548D01*
X005051Y011449D02*
X003567Y011449D01*
X003567Y011350D02*
X005149Y011350D01*
X005197Y011252D02*
X004741Y011252D01*
X004789Y011153D02*
X005197Y011153D01*
X005197Y011055D02*
X004789Y011055D01*
X004789Y010956D02*
X005197Y010956D01*
X005197Y010858D02*
X004197Y010858D01*
X004197Y010956D02*
X004097Y010956D01*
X003567Y010956D01*
X003567Y010856D01*
X004097Y010856D01*
X004097Y010956D01*
X004097Y010858D02*
X003567Y010858D01*
X003347Y010606D02*
X003347Y013856D01*
X003597Y014106D01*
X003965Y014110D02*
X005180Y014110D01*
X005113Y014011D02*
X003956Y014011D01*
X003915Y013913D02*
X005079Y013913D01*
X005051Y013814D02*
X003825Y013814D01*
X003953Y014208D02*
X005335Y014208D01*
X005797Y015306D02*
X005797Y015906D01*
X005997Y016106D01*
X005997Y016406D01*
X006003Y016430D01*
X007697Y017606D02*
X007697Y018506D01*
X007647Y018556D01*
X007697Y017606D02*
X009797Y017606D01*
X010397Y017006D01*
X010397Y016006D01*
X010447Y016006D01*
X010397Y016006D02*
X010397Y014206D01*
X009997Y013806D01*
X009597Y013806D01*
X009397Y013606D01*
X009397Y013306D01*
X008797Y013306D01*
X008797Y013406D01*
X008497Y013206D02*
X009197Y012506D01*
X009497Y012506D01*
X009547Y012488D01*
X009227Y012286D02*
X009227Y012168D01*
X009327Y012068D01*
X009767Y012068D01*
X009797Y012098D01*
X009827Y012068D01*
X010267Y012068D01*
X010297Y012098D01*
X010327Y012068D01*
X010767Y012068D01*
X010797Y012098D01*
X010827Y012068D01*
X011267Y012068D01*
X011297Y012098D01*
X011327Y012068D01*
X011509Y012068D01*
X011388Y012018D01*
X011285Y011915D01*
X011229Y011780D01*
X011229Y011633D01*
X011285Y011498D01*
X011388Y011394D01*
X011524Y011338D01*
X011654Y011338D01*
X011856Y011136D01*
X012038Y011136D01*
X016706Y011136D01*
X016888Y011136D01*
X016988Y011236D01*
X017077Y011236D01*
X017077Y010976D01*
X013306Y010976D01*
X013177Y010847D01*
X012327Y009997D01*
X012327Y009815D01*
X012327Y009144D01*
X012327Y009144D01*
X012297Y009115D01*
X012267Y009144D01*
X012117Y009144D01*
X012117Y009297D01*
X012117Y010397D01*
X011988Y010526D01*
X011806Y010526D01*
X010498Y010526D01*
X010406Y010618D01*
X010270Y010674D01*
X010124Y010674D01*
X009988Y010618D01*
X009885Y010515D01*
X009829Y010380D01*
X009829Y010233D01*
X009885Y010098D01*
X009988Y009994D01*
X010124Y009938D01*
X010270Y009938D01*
X010406Y009994D01*
X010498Y010086D01*
X011677Y010086D01*
X011677Y009297D01*
X011524Y009144D01*
X011465Y009144D01*
X011465Y009280D01*
X011409Y009415D01*
X011306Y009518D01*
X011170Y009574D01*
X011024Y009574D01*
X010888Y009518D01*
X010785Y009415D01*
X010731Y009284D01*
X010688Y009326D01*
X010615Y009399D01*
X010615Y009530D01*
X010559Y009665D01*
X010456Y009768D01*
X010320Y009824D01*
X010174Y009824D01*
X010038Y009768D01*
X009935Y009665D01*
X009879Y009530D01*
X009879Y009383D01*
X009935Y009248D01*
X010038Y009144D01*
X009827Y009144D01*
X009797Y009115D01*
X009767Y009144D01*
X009627Y009144D01*
X009627Y010802D01*
X009492Y010936D01*
X009077Y011352D01*
X009077Y012315D01*
X009106Y012286D01*
X009227Y012286D01*
X009227Y012237D02*
X009077Y012237D01*
X009077Y012139D02*
X009256Y012139D01*
X009077Y012040D02*
X011441Y012040D01*
X011312Y011942D02*
X009077Y011942D01*
X009077Y011843D02*
X011255Y011843D01*
X011229Y011745D02*
X009077Y011745D01*
X009077Y011646D02*
X011229Y011646D01*
X011264Y011548D02*
X009077Y011548D01*
X009077Y011449D02*
X011334Y011449D01*
X011494Y011350D02*
X009078Y011350D01*
X009177Y011252D02*
X011740Y011252D01*
X011839Y011153D02*
X009275Y011153D01*
X009374Y011055D02*
X017077Y011055D01*
X017077Y011153D02*
X016905Y011153D01*
X016797Y011356D02*
X011947Y011356D01*
X011597Y011706D01*
X011947Y012056D01*
X012447Y012056D01*
X012597Y012206D01*
X012597Y012406D01*
X012547Y012488D01*
X012497Y012506D01*
X012497Y018456D01*
X012647Y018556D01*
X012097Y018106D02*
X011647Y018556D01*
X012097Y018106D02*
X012097Y016406D01*
X012097Y013406D01*
X012097Y012506D01*
X012047Y012488D01*
X011597Y012506D02*
X011597Y013406D01*
X011597Y016006D01*
X011597Y017106D01*
X010697Y018006D01*
X010697Y018506D01*
X010647Y018556D01*
X009897Y017906D02*
X008697Y017906D01*
X008697Y018506D01*
X008647Y018556D01*
X009647Y018556D02*
X011197Y017006D01*
X011197Y014106D01*
X010897Y013806D01*
X010897Y013406D01*
X011097Y013406D01*
X010997Y013506D01*
X011097Y013406D02*
X011097Y012506D01*
X011047Y012488D01*
X011547Y012488D02*
X011597Y012506D01*
X012247Y011706D02*
X012397Y011856D01*
X012797Y011856D01*
X013097Y012156D01*
X013097Y012406D01*
X013047Y012488D01*
X013097Y012506D01*
X013097Y013306D01*
X012997Y013406D01*
X012997Y013806D01*
X012997Y015706D01*
X013647Y016356D01*
X013647Y018556D01*
X014601Y017657D02*
X015737Y017657D01*
X015638Y017559D02*
X014503Y017559D01*
X014465Y017521D02*
X014789Y017844D01*
X014859Y017915D01*
X014897Y018007D01*
X014897Y018075D01*
X014953Y018099D01*
X015105Y018250D01*
X015158Y018379D01*
X015206Y018262D01*
X015352Y018115D01*
X015544Y018036D01*
X015597Y018036D01*
X015597Y018506D01*
X015697Y018506D01*
X015697Y018036D01*
X015750Y018036D01*
X015942Y018115D01*
X016088Y018262D01*
X016136Y018379D01*
X016189Y018250D01*
X016341Y018099D01*
X016395Y018076D01*
X016156Y018076D01*
X016027Y017947D01*
X014613Y016533D01*
X014613Y016706D01*
X014198Y016706D01*
X014198Y016252D01*
X014332Y016252D01*
X014127Y016047D01*
X014127Y015865D01*
X014127Y015559D01*
X014113Y015572D01*
X013747Y015572D01*
X013747Y015158D01*
X013647Y015158D01*
X013647Y015572D01*
X013281Y015572D01*
X013217Y015509D01*
X013217Y015615D01*
X013738Y016136D01*
X013854Y016252D01*
X014098Y016252D01*
X014098Y016706D01*
X014198Y016706D01*
X014198Y016806D01*
X014613Y016806D01*
X014613Y017173D01*
X014525Y017261D01*
X014372Y017261D01*
X014409Y017298D01*
X014465Y017433D01*
X014465Y017521D01*
X014465Y017460D02*
X015540Y017460D01*
X015441Y017362D02*
X014435Y017362D01*
X014374Y017263D02*
X015343Y017263D01*
X015244Y017164D02*
X014613Y017164D01*
X014613Y017066D02*
X015146Y017066D01*
X015047Y016967D02*
X014613Y016967D01*
X014613Y016869D02*
X014949Y016869D01*
X014850Y016770D02*
X014198Y016770D01*
X014198Y016672D02*
X014098Y016672D01*
X014098Y016573D02*
X014198Y016573D01*
X014198Y016475D02*
X014098Y016475D01*
X014098Y016376D02*
X014198Y016376D01*
X014198Y016278D02*
X014098Y016278D01*
X014259Y016179D02*
X013781Y016179D01*
X013738Y016136D02*
X013738Y016136D01*
X013682Y016081D02*
X014160Y016081D01*
X014127Y015982D02*
X013584Y015982D01*
X013485Y015883D02*
X014127Y015883D01*
X014127Y015785D02*
X013387Y015785D01*
X013288Y015686D02*
X014127Y015686D01*
X014127Y015588D02*
X013217Y015588D01*
X013647Y015489D02*
X013747Y015489D01*
X013747Y015391D02*
X013647Y015391D01*
X013647Y015292D02*
X013747Y015292D01*
X013747Y015194D02*
X013647Y015194D01*
X013647Y015057D02*
X013747Y015057D01*
X013747Y014643D01*
X014113Y014643D01*
X014127Y014656D01*
X014127Y014485D01*
X014122Y014490D01*
X013272Y014490D01*
X013217Y014435D01*
X013217Y014706D01*
X013281Y014643D01*
X013647Y014643D01*
X013647Y015057D01*
X013647Y014997D02*
X013747Y014997D01*
X013747Y014898D02*
X013647Y014898D01*
X013647Y014799D02*
X013747Y014799D01*
X013747Y014701D02*
X013647Y014701D01*
X013222Y014701D02*
X013217Y014701D01*
X013217Y014602D02*
X014127Y014602D01*
X014127Y014504D02*
X013217Y014504D01*
X014347Y013188D02*
X014347Y015956D01*
X016247Y017856D01*
X016647Y017856D01*
X016647Y018556D01*
X016149Y018347D02*
X016123Y018347D01*
X016075Y018248D02*
X016191Y018248D01*
X016290Y018150D02*
X015976Y018150D01*
X016131Y018051D02*
X015787Y018051D01*
X015697Y018051D02*
X015597Y018051D01*
X015507Y018051D02*
X014897Y018051D01*
X014875Y017953D02*
X016032Y017953D01*
X015934Y017854D02*
X014799Y017854D01*
X014700Y017756D02*
X015835Y017756D01*
X015697Y018150D02*
X015597Y018150D01*
X015597Y018248D02*
X015697Y018248D01*
X015697Y018347D02*
X015597Y018347D01*
X015597Y018446D02*
X015697Y018446D01*
X015697Y018606D02*
X015597Y018606D01*
X015597Y019036D01*
X015597Y019506D01*
X015697Y019506D01*
X015697Y019036D01*
X015697Y018606D01*
X015697Y018643D02*
X015597Y018643D01*
X015597Y018741D02*
X015697Y018741D01*
X015697Y018840D02*
X015597Y018840D01*
X015597Y018938D02*
X015697Y018938D01*
X015697Y019037D02*
X015597Y019037D01*
X015597Y019135D02*
X015697Y019135D01*
X015697Y019234D02*
X015597Y019234D01*
X015597Y019332D02*
X015697Y019332D01*
X015697Y019431D02*
X015597Y019431D01*
X015597Y019606D02*
X015597Y020076D01*
X015544Y020076D01*
X015352Y019997D01*
X015206Y019851D01*
X015158Y019734D01*
X015105Y019862D01*
X014953Y020014D01*
X014754Y020096D01*
X014540Y020096D01*
X014341Y020014D01*
X014189Y019862D01*
X014147Y019760D01*
X014105Y019862D01*
X013953Y020014D01*
X013754Y020096D01*
X013540Y020096D01*
X013341Y020014D01*
X013189Y019862D01*
X013147Y019760D01*
X013105Y019862D01*
X012953Y020014D01*
X012754Y020096D01*
X012540Y020096D01*
X012341Y020014D01*
X012189Y019862D01*
X012147Y019760D01*
X012105Y019862D01*
X011953Y020014D01*
X011754Y020096D01*
X011540Y020096D01*
X011341Y020014D01*
X011189Y019862D01*
X011147Y019760D01*
X011105Y019862D01*
X010953Y020014D01*
X010754Y020096D01*
X010540Y020096D01*
X010341Y020014D01*
X010189Y019862D01*
X010147Y019760D01*
X010105Y019862D01*
X009953Y020014D01*
X009754Y020096D01*
X009540Y020096D01*
X009341Y020014D01*
X009189Y019862D01*
X009147Y019760D01*
X009105Y019862D01*
X008953Y020014D01*
X008754Y020096D01*
X008540Y020096D01*
X008341Y020014D01*
X008189Y019862D01*
X008147Y019760D01*
X008105Y019862D01*
X007953Y020014D01*
X007754Y020096D01*
X007540Y020096D01*
X007341Y020014D01*
X007189Y019862D01*
X007147Y019760D01*
X007105Y019862D01*
X006953Y020014D01*
X006754Y020096D01*
X006540Y020096D01*
X006341Y020014D01*
X006267Y019940D01*
X006267Y020027D01*
X006167Y020126D01*
X006267Y020022D02*
X006361Y020022D01*
X006933Y020022D02*
X007361Y020022D01*
X007251Y019924D02*
X007043Y019924D01*
X007120Y019825D02*
X007174Y019825D01*
X007933Y020022D02*
X008361Y020022D01*
X008251Y019924D02*
X008043Y019924D01*
X008120Y019825D02*
X008174Y019825D01*
X008933Y020022D02*
X009361Y020022D01*
X009251Y019924D02*
X009043Y019924D01*
X009120Y019825D02*
X009174Y019825D01*
X009933Y020022D02*
X010361Y020022D01*
X010251Y019924D02*
X010043Y019924D01*
X010120Y019825D02*
X010174Y019825D01*
X010933Y020022D02*
X011361Y020022D01*
X011251Y019924D02*
X011043Y019924D01*
X011120Y019825D02*
X011174Y019825D01*
X011933Y020022D02*
X012361Y020022D01*
X012251Y019924D02*
X012043Y019924D01*
X012120Y019825D02*
X012174Y019825D01*
X012933Y020022D02*
X013361Y020022D01*
X013251Y019924D02*
X013043Y019924D01*
X013120Y019825D02*
X013174Y019825D01*
X013933Y020022D02*
X014361Y020022D01*
X014251Y019924D02*
X014043Y019924D01*
X014120Y019825D02*
X014174Y019825D01*
X014933Y020022D02*
X015413Y020022D01*
X015279Y019924D02*
X015043Y019924D01*
X015120Y019825D02*
X015196Y019825D01*
X015597Y019825D02*
X015697Y019825D01*
X015697Y019727D02*
X015597Y019727D01*
X015597Y019628D02*
X015697Y019628D01*
X015697Y019606D02*
X015597Y019606D01*
X015697Y019606D02*
X015697Y020076D01*
X015750Y020076D01*
X015942Y019997D01*
X016088Y019851D01*
X016136Y019734D01*
X016189Y019862D01*
X016341Y020014D01*
X016540Y020096D01*
X016754Y020096D01*
X016953Y020014D01*
X017105Y019862D01*
X017147Y019760D01*
X017189Y019862D01*
X017341Y020014D01*
X017540Y020096D01*
X017754Y020096D01*
X017953Y020014D01*
X018105Y019862D01*
X018147Y019760D01*
X018189Y019862D01*
X018341Y020014D01*
X018540Y020096D01*
X018754Y020096D01*
X018953Y020014D01*
X019105Y019862D01*
X019147Y019760D01*
X019189Y019862D01*
X019341Y020014D01*
X019540Y020096D01*
X019754Y020096D01*
X019953Y020014D01*
X020105Y019862D01*
X020187Y019664D01*
X020187Y019449D01*
X020105Y019250D01*
X019953Y019099D01*
X019851Y019056D01*
X019953Y019014D01*
X020105Y018862D01*
X020187Y018664D01*
X020187Y018449D01*
X020105Y018250D01*
X019953Y018099D01*
X019754Y018016D01*
X019540Y018016D01*
X019341Y018099D01*
X019189Y018250D01*
X019147Y018352D01*
X019105Y018250D01*
X018953Y018099D01*
X018863Y018061D01*
X018738Y017936D01*
X017838Y017036D01*
X017656Y017036D01*
X016688Y017036D01*
X015342Y015690D01*
X015342Y014576D01*
X015365Y014576D01*
X015720Y014576D01*
X015806Y014490D01*
X016202Y014886D01*
X016393Y014886D01*
X016901Y014886D01*
X016901Y015140D01*
X016921Y015160D01*
X016921Y015286D01*
X017562Y015286D01*
X017562Y015286D01*
X016921Y015286D01*
X016921Y015447D01*
X017008Y015535D01*
X017563Y015535D01*
X017563Y015287D01*
X017563Y015287D01*
X017563Y015535D01*
X017997Y015535D01*
X017997Y015620D01*
X017994Y015624D01*
X017997Y015711D01*
X017997Y015797D01*
X018001Y015801D01*
X018001Y015806D01*
X018065Y015865D01*
X018084Y015884D01*
X017613Y015884D01*
X017613Y016378D01*
X017513Y016378D01*
X017513Y015884D01*
X017008Y015884D01*
X016921Y015972D01*
X016921Y016378D01*
X017513Y016378D01*
X017513Y016478D01*
X017513Y016972D01*
X017008Y016972D01*
X016921Y016884D01*
X016921Y016478D01*
X017513Y016478D01*
X017613Y016478D01*
X017613Y016972D01*
X018046Y016972D01*
X018085Y017065D01*
X018188Y017168D01*
X018324Y017224D01*
X018470Y017224D01*
X018606Y017168D01*
X018709Y017065D01*
X018765Y016930D01*
X018765Y016783D01*
X018709Y016648D01*
X018606Y016544D01*
X018567Y016528D01*
X018567Y015912D01*
X018570Y015909D01*
X018569Y015870D01*
X018616Y015870D01*
X018744Y015817D01*
X018841Y015719D01*
X018894Y015591D01*
X018894Y015453D01*
X018841Y015326D01*
X018744Y015228D01*
X018616Y015175D01*
X018517Y015175D01*
X018517Y015124D01*
X018570Y015124D01*
X018706Y015068D01*
X018809Y014965D01*
X018865Y014830D01*
X018865Y014683D01*
X018809Y014548D01*
X018706Y014444D01*
X018570Y014388D01*
X018424Y014388D01*
X018288Y014444D01*
X018225Y014508D01*
X018225Y014182D01*
X018259Y014148D01*
X018297Y014056D01*
X018297Y014031D01*
X018350Y014084D01*
X018478Y014137D01*
X018616Y014137D01*
X018744Y014084D01*
X018841Y013987D01*
X018894Y013859D01*
X018894Y013824D01*
X018970Y013824D01*
X019086Y013776D01*
X019348Y013776D01*
X019385Y013865D01*
X019488Y013968D01*
X019624Y014024D01*
X019770Y014024D01*
X019906Y013968D01*
X020009Y013865D01*
X020065Y013730D01*
X020065Y013583D01*
X020009Y013448D01*
X019990Y013428D01*
X020212Y013428D01*
X020212Y015884D01*
X019778Y015884D01*
X019778Y016378D01*
X019678Y016378D01*
X019086Y016378D01*
X019086Y015972D01*
X019174Y015884D01*
X019678Y015884D01*
X019678Y016378D01*
X019678Y016478D01*
X019086Y016478D01*
X019086Y016884D01*
X019174Y016972D01*
X019678Y016972D01*
X019678Y016478D01*
X019778Y016478D01*
X019778Y016972D01*
X020212Y016972D01*
X020212Y020121D01*
X020212Y020022D02*
X019933Y020022D01*
X020043Y019924D02*
X020212Y019924D01*
X020212Y019825D02*
X020120Y019825D01*
X020161Y019727D02*
X020212Y019727D01*
X020212Y019628D02*
X020187Y019628D01*
X020187Y019530D02*
X020212Y019530D01*
X020212Y019431D02*
X020180Y019431D01*
X020212Y019332D02*
X020139Y019332D01*
X020088Y019234D02*
X020212Y019234D01*
X020212Y019135D02*
X019990Y019135D01*
X019898Y019037D02*
X020212Y019037D01*
X020212Y018938D02*
X020029Y018938D01*
X020114Y018840D02*
X020212Y018840D01*
X020212Y018741D02*
X020155Y018741D01*
X020187Y018643D02*
X020212Y018643D01*
X020212Y018544D02*
X020187Y018544D01*
X020186Y018446D02*
X020212Y018446D01*
X020212Y018347D02*
X020145Y018347D01*
X020103Y018248D02*
X020212Y018248D01*
X020212Y018150D02*
X020004Y018150D01*
X019839Y018051D02*
X020212Y018051D01*
X020212Y017953D02*
X018755Y017953D01*
X018853Y018051D02*
X019455Y018051D01*
X019290Y018150D02*
X019004Y018150D01*
X019103Y018248D02*
X019191Y018248D01*
X019149Y018347D02*
X019145Y018347D01*
X018647Y018156D02*
X018647Y018556D01*
X018647Y018156D02*
X017747Y017256D01*
X016597Y017256D01*
X015122Y015781D01*
X015122Y014204D01*
X015170Y014156D01*
X015524Y014156D02*
X015547Y013906D01*
X015792Y014504D02*
X015820Y014504D01*
X015918Y014602D02*
X015342Y014602D01*
X015342Y014701D02*
X016017Y014701D01*
X016115Y014799D02*
X015342Y014799D01*
X015342Y014898D02*
X016901Y014898D01*
X016901Y014997D02*
X015342Y014997D01*
X015342Y015095D02*
X015657Y015095D01*
X015674Y015088D02*
X015820Y015088D01*
X015956Y015144D01*
X016018Y015206D01*
X016365Y015206D01*
X016383Y015202D01*
X016415Y015206D01*
X016447Y015206D01*
X016463Y015213D01*
X016482Y015216D01*
X016509Y015232D01*
X016539Y015244D01*
X016551Y015257D01*
X016567Y015266D01*
X016583Y015288D01*
X016620Y015288D01*
X016756Y015344D01*
X016859Y015448D01*
X016915Y015583D01*
X016915Y015730D01*
X016859Y015865D01*
X016756Y015968D01*
X016620Y016024D01*
X016474Y016024D01*
X016338Y015968D01*
X016235Y015865D01*
X016179Y015730D01*
X016179Y015706D01*
X016018Y015706D01*
X015956Y015768D01*
X015820Y015824D01*
X015674Y015824D01*
X015538Y015768D01*
X015435Y015665D01*
X015379Y015530D01*
X015379Y015383D01*
X015435Y015248D01*
X015538Y015144D01*
X015674Y015088D01*
X015837Y015095D02*
X016901Y015095D01*
X016921Y015194D02*
X016005Y015194D01*
X015489Y015194D02*
X015342Y015194D01*
X015342Y015292D02*
X015416Y015292D01*
X015379Y015391D02*
X015342Y015391D01*
X015342Y015489D02*
X015379Y015489D01*
X015403Y015588D02*
X015342Y015588D01*
X015342Y015686D02*
X015456Y015686D01*
X015437Y015785D02*
X015578Y015785D01*
X015535Y015883D02*
X016254Y015883D01*
X016202Y015785D02*
X015916Y015785D01*
X015634Y015982D02*
X016371Y015982D01*
X016723Y015982D02*
X016921Y015982D01*
X016921Y016081D02*
X015732Y016081D01*
X015831Y016179D02*
X016921Y016179D01*
X016921Y016278D02*
X015929Y016278D01*
X016028Y016376D02*
X016921Y016376D01*
X016921Y016573D02*
X016225Y016573D01*
X016126Y016475D02*
X017513Y016475D01*
X017513Y016573D02*
X017613Y016573D01*
X017613Y016672D02*
X017513Y016672D01*
X017513Y016770D02*
X017613Y016770D01*
X017613Y016869D02*
X017513Y016869D01*
X017513Y016967D02*
X017613Y016967D01*
X017868Y017066D02*
X018086Y017066D01*
X018185Y017164D02*
X017966Y017164D01*
X018065Y017263D02*
X020212Y017263D01*
X020212Y017164D02*
X018609Y017164D01*
X018708Y017066D02*
X020212Y017066D01*
X020212Y017362D02*
X018163Y017362D01*
X018262Y017460D02*
X020212Y017460D01*
X020212Y017559D02*
X018360Y017559D01*
X018459Y017657D02*
X020212Y017657D01*
X020212Y017756D02*
X018558Y017756D01*
X018656Y017854D02*
X020212Y017854D01*
X019778Y016967D02*
X019678Y016967D01*
X019678Y016869D02*
X019778Y016869D01*
X019778Y016770D02*
X019678Y016770D01*
X019678Y016672D02*
X019778Y016672D01*
X019778Y016573D02*
X019678Y016573D01*
X019678Y016475D02*
X018567Y016475D01*
X018567Y016376D02*
X019086Y016376D01*
X019086Y016278D02*
X018567Y016278D01*
X018567Y016179D02*
X019086Y016179D01*
X019086Y016081D02*
X018567Y016081D01*
X018567Y015982D02*
X019086Y015982D01*
X018775Y015785D02*
X020212Y015785D01*
X020212Y015883D02*
X018569Y015883D01*
X018347Y015826D02*
X018347Y016806D01*
X018397Y016856D01*
X018635Y016573D02*
X019086Y016573D01*
X019086Y016672D02*
X018719Y016672D01*
X018760Y016770D02*
X019086Y016770D01*
X019086Y016869D02*
X018765Y016869D01*
X018749Y016967D02*
X019170Y016967D01*
X019678Y016376D02*
X019778Y016376D01*
X019778Y016278D02*
X019678Y016278D01*
X019678Y016179D02*
X019778Y016179D01*
X019778Y016081D02*
X019678Y016081D01*
X019678Y015982D02*
X019778Y015982D01*
X020212Y015686D02*
X018855Y015686D01*
X018894Y015588D02*
X020212Y015588D01*
X020212Y015489D02*
X018894Y015489D01*
X018868Y015391D02*
X020212Y015391D01*
X020212Y015292D02*
X018808Y015292D01*
X018660Y015194D02*
X020212Y015194D01*
X020212Y015095D02*
X018641Y015095D01*
X018777Y014997D02*
X020212Y014997D01*
X020212Y014898D02*
X018837Y014898D01*
X018865Y014799D02*
X020212Y014799D01*
X020212Y014701D02*
X018865Y014701D01*
X018832Y014602D02*
X020212Y014602D01*
X020212Y014504D02*
X018765Y014504D01*
X018611Y014405D02*
X020212Y014405D01*
X020212Y014307D02*
X018225Y014307D01*
X018225Y014405D02*
X018382Y014405D01*
X018229Y014504D02*
X018225Y014504D01*
X018225Y014208D02*
X020212Y014208D01*
X020212Y014110D02*
X018683Y014110D01*
X018817Y014011D02*
X019592Y014011D01*
X019433Y013913D02*
X018872Y013913D01*
X018995Y013814D02*
X019364Y013814D01*
X019597Y013556D02*
X019697Y013656D01*
X019597Y013556D02*
X018997Y013556D01*
X018897Y013456D01*
X019057Y013124D02*
X019086Y013124D01*
X019086Y013136D02*
X019086Y012935D01*
X019678Y012935D01*
X019678Y012835D01*
X019086Y012835D01*
X019086Y012429D01*
X019174Y012341D01*
X019678Y012341D01*
X019678Y012834D01*
X019778Y012834D01*
X019778Y012341D01*
X020212Y012341D01*
X020212Y009352D01*
X020134Y009431D01*
X019834Y009431D01*
X019744Y009520D01*
X020051Y009520D01*
X020139Y009608D01*
X020139Y009857D01*
X019547Y009857D01*
X019547Y009957D01*
X019447Y009957D01*
X019447Y010293D01*
X018943Y010293D01*
X018855Y010205D01*
X018855Y009957D01*
X019447Y009957D01*
X019447Y009857D01*
X018855Y009857D01*
X018855Y009759D01*
X018367Y010247D01*
X018238Y010376D01*
X017892Y010376D01*
X017817Y010451D01*
X017177Y010451D01*
X017077Y010352D01*
X017077Y010026D01*
X016356Y010026D01*
X016227Y009897D01*
X015827Y009497D01*
X015827Y009315D01*
X015827Y009144D01*
X015827Y009144D01*
X015797Y009115D01*
X015767Y009144D01*
X015327Y009144D01*
X015297Y009115D01*
X015267Y009144D01*
X014827Y009144D01*
X014797Y009115D01*
X014767Y009144D01*
X014327Y009144D01*
X014297Y009115D01*
X014267Y009144D01*
X013827Y009144D01*
X013797Y009115D01*
X013767Y009144D01*
X013327Y009144D01*
X013283Y009101D01*
X013259Y009124D01*
X013072Y009124D01*
X013072Y008750D01*
X013022Y008750D01*
X013022Y009124D01*
X012835Y009124D01*
X012811Y009101D01*
X012767Y009144D01*
X012767Y009815D01*
X013488Y010536D01*
X017102Y010536D01*
X017177Y010461D01*
X017817Y010461D01*
X017917Y010561D01*
X017917Y010886D01*
X018188Y010886D01*
X018238Y010936D01*
X018331Y011029D01*
X018385Y010898D01*
X018488Y010794D01*
X018624Y010738D01*
X018770Y010738D01*
X018906Y010794D01*
X018923Y010811D01*
X018934Y010800D01*
X020060Y010800D01*
X020159Y010899D01*
X020159Y011513D01*
X020060Y011612D01*
X018947Y011612D01*
X018947Y013056D01*
X018934Y013088D01*
X018970Y013088D01*
X019086Y013136D01*
X019086Y013026D02*
X018947Y013026D01*
X018947Y012927D02*
X019678Y012927D01*
X019678Y012829D02*
X019778Y012829D01*
X019778Y012730D02*
X019678Y012730D01*
X019678Y012631D02*
X019778Y012631D01*
X019778Y012533D02*
X019678Y012533D01*
X019678Y012434D02*
X019778Y012434D01*
X020212Y012336D02*
X018947Y012336D01*
X018947Y012434D02*
X019086Y012434D01*
X019086Y012533D02*
X018947Y012533D01*
X018947Y012631D02*
X019086Y012631D01*
X019086Y012730D02*
X018947Y012730D01*
X018947Y012829D02*
X019086Y012829D01*
X018947Y012237D02*
X020212Y012237D01*
X020212Y012139D02*
X018947Y012139D01*
X018947Y012040D02*
X020212Y012040D01*
X020212Y011942D02*
X018947Y011942D01*
X018947Y011843D02*
X020212Y011843D01*
X020212Y011745D02*
X018947Y011745D01*
X018947Y011646D02*
X020212Y011646D01*
X020212Y011548D02*
X020124Y011548D01*
X020159Y011449D02*
X020212Y011449D01*
X020212Y011350D02*
X020159Y011350D01*
X020159Y011252D02*
X020212Y011252D01*
X020212Y011153D02*
X020159Y011153D01*
X020159Y011055D02*
X020212Y011055D01*
X020212Y010956D02*
X020159Y010956D01*
X020118Y010858D02*
X020212Y010858D01*
X020212Y010759D02*
X018821Y010759D01*
X018573Y010759D02*
X017917Y010759D01*
X017917Y010661D02*
X020212Y010661D01*
X020212Y010562D02*
X017917Y010562D01*
X017820Y010464D02*
X020212Y010464D01*
X020212Y010365D02*
X018249Y010365D01*
X018348Y010266D02*
X018916Y010266D01*
X018855Y010168D02*
X018446Y010168D01*
X018545Y010069D02*
X018855Y010069D01*
X018855Y009971D02*
X018644Y009971D01*
X018742Y009872D02*
X019447Y009872D01*
X019447Y009971D02*
X019547Y009971D01*
X019547Y009957D02*
X019547Y010293D01*
X020051Y010293D01*
X020139Y010205D01*
X020139Y009957D01*
X019547Y009957D01*
X019547Y009872D02*
X020212Y009872D01*
X020212Y009774D02*
X020139Y009774D01*
X020139Y009675D02*
X020212Y009675D01*
X020212Y009577D02*
X020107Y009577D01*
X020212Y009478D02*
X019786Y009478D01*
X019747Y009206D02*
X019497Y009456D01*
X018847Y009456D01*
X018147Y010156D01*
X017497Y010156D01*
X017497Y009806D02*
X016447Y009806D01*
X016047Y009406D01*
X016047Y008724D01*
X016079Y008724D01*
X016247Y008556D01*
X017104Y007717D01*
X018247Y007717D01*
X017847Y007206D02*
X017547Y007506D01*
X016997Y007506D01*
X016297Y008206D01*
X015547Y008206D01*
X015547Y008724D01*
X015827Y009182D02*
X012767Y009182D01*
X012767Y009144D02*
X012767Y009144D01*
X012767Y009281D02*
X015827Y009281D01*
X015827Y009380D02*
X012767Y009380D01*
X012767Y009478D02*
X015827Y009478D01*
X015906Y009577D02*
X012767Y009577D01*
X012767Y009675D02*
X016005Y009675D01*
X016103Y009774D02*
X012767Y009774D01*
X012824Y009872D02*
X016202Y009872D01*
X016300Y009971D02*
X012923Y009971D01*
X013021Y010069D02*
X017077Y010069D01*
X017077Y010168D02*
X013120Y010168D01*
X013218Y010266D02*
X017077Y010266D01*
X017090Y010365D02*
X013317Y010365D01*
X013415Y010464D02*
X017174Y010464D01*
X017497Y010756D02*
X013397Y010756D01*
X012547Y009906D01*
X012547Y008724D01*
X012811Y008348D02*
X012835Y008324D01*
X013022Y008324D01*
X013022Y008699D01*
X013072Y008699D01*
X013072Y008324D01*
X013259Y008324D01*
X013283Y008348D01*
X013327Y008304D01*
X013327Y007997D01*
X012756Y007426D01*
X012621Y007426D01*
X012611Y007450D01*
X012491Y007571D01*
X012333Y007636D01*
X012252Y007636D01*
X012642Y008026D01*
X012642Y008026D01*
X012777Y008161D01*
X012777Y008314D01*
X012811Y008348D01*
X012777Y008296D02*
X013327Y008296D01*
X013327Y008304D02*
X013327Y008304D01*
X013327Y008197D02*
X012777Y008197D01*
X012714Y008099D02*
X013327Y008099D01*
X013327Y008000D02*
X012616Y008000D01*
X012517Y007901D02*
X013231Y007901D01*
X013132Y007803D02*
X012419Y007803D01*
X012320Y007704D02*
X013034Y007704D01*
X012935Y007606D02*
X012406Y007606D01*
X012554Y007507D02*
X012837Y007507D01*
X012847Y007206D02*
X013547Y007906D01*
X013547Y008724D01*
X013797Y008334D02*
X013827Y008304D01*
X013827Y007494D01*
X013782Y007450D01*
X013717Y007292D01*
X013717Y007121D01*
X013782Y006963D01*
X013903Y006842D01*
X013977Y006811D01*
X013977Y006392D01*
X014106Y006263D01*
X014209Y006161D01*
X013896Y006161D01*
X013896Y005706D01*
X014311Y005706D01*
X014311Y006059D01*
X014463Y005906D01*
X014463Y005232D01*
X014563Y005132D01*
X015334Y005132D01*
X015373Y005171D01*
X015373Y005112D01*
X015472Y005013D01*
X016322Y005013D01*
X016421Y005112D01*
X016421Y005286D01*
X016438Y005286D01*
X016567Y005415D01*
X016567Y006432D01*
X016591Y006442D01*
X016711Y006563D01*
X016777Y006721D01*
X016777Y006892D01*
X016711Y007050D01*
X016591Y007171D01*
X016567Y007181D01*
X016567Y007325D01*
X016806Y007086D01*
X016988Y007086D01*
X017019Y007086D01*
X016982Y007050D01*
X016917Y006892D01*
X016917Y006721D01*
X016982Y006563D01*
X017103Y006442D01*
X017127Y006432D01*
X017127Y005415D01*
X017256Y005286D01*
X017293Y005286D01*
X017293Y005112D01*
X017392Y005013D01*
X018242Y005013D01*
X018341Y005112D01*
X018341Y005883D01*
X018242Y005982D01*
X017567Y005982D01*
X017567Y006432D01*
X017591Y006442D01*
X017711Y006563D01*
X017754Y006665D01*
X018197Y006665D01*
X018197Y006565D01*
X018297Y006565D01*
X018297Y006150D01*
X018663Y006150D01*
X018751Y006238D01*
X018751Y006565D01*
X018297Y006565D01*
X018297Y006665D01*
X018751Y006665D01*
X018751Y006992D01*
X018748Y006996D01*
X018867Y007115D01*
X018867Y007115D01*
X018938Y007186D01*
X018974Y007223D01*
X019471Y007223D01*
X019603Y007090D01*
X018872Y007090D01*
X018773Y006990D01*
X018773Y006220D01*
X018872Y006120D01*
X019077Y006120D01*
X019077Y005903D01*
X018751Y005903D01*
X018651Y005803D01*
X018651Y005190D01*
X018751Y005091D01*
X019443Y005091D01*
X019543Y005190D01*
X019543Y005803D01*
X019517Y005829D01*
X019517Y006120D01*
X019677Y006120D01*
X019677Y004197D01*
X019523Y004043D01*
X019523Y004266D01*
X019147Y004266D01*
X019147Y004366D01*
X019047Y004366D01*
X019047Y004702D01*
X018759Y004702D01*
X018671Y004614D01*
X018671Y004366D01*
X019047Y004366D01*
X019047Y004266D01*
X018671Y004266D01*
X018671Y004017D01*
X018759Y003930D01*
X019047Y003930D01*
X019047Y004266D01*
X019147Y004266D01*
X019147Y003930D01*
X019409Y003930D01*
X018576Y003096D01*
X018540Y003096D01*
X018341Y003014D01*
X018189Y002862D01*
X018147Y002760D01*
X018105Y002862D01*
X017953Y003014D01*
X017754Y003096D01*
X017540Y003096D01*
X017341Y003014D01*
X017189Y002862D01*
X017147Y002760D01*
X017105Y002862D01*
X016953Y003014D01*
X016754Y003096D01*
X016540Y003096D01*
X016341Y003014D01*
X016189Y002862D01*
X016147Y002760D01*
X016105Y002862D01*
X015953Y003014D01*
X015754Y003096D01*
X015540Y003096D01*
X015341Y003014D01*
X015189Y002862D01*
X015147Y002760D01*
X015105Y002862D01*
X014953Y003014D01*
X014754Y003096D01*
X014540Y003096D01*
X014341Y003014D01*
X014189Y002862D01*
X014136Y002734D01*
X014088Y002851D01*
X013942Y002997D01*
X013750Y003076D01*
X013697Y003076D01*
X013697Y002606D01*
X013597Y002606D01*
X013597Y003076D01*
X013544Y003076D01*
X013352Y002997D01*
X013206Y002851D01*
X013158Y002734D01*
X013105Y002862D01*
X012953Y003014D01*
X012754Y003096D01*
X012540Y003096D01*
X012527Y003091D01*
X012527Y003202D01*
X011665Y004063D01*
X011665Y004130D01*
X011609Y004265D01*
X011506Y004368D01*
X011427Y004401D01*
X011427Y005132D01*
X012181Y005132D01*
X012281Y005232D01*
X012281Y006081D01*
X012207Y006155D01*
X012338Y006286D01*
X012467Y006415D01*
X012467Y006832D01*
X012491Y006842D01*
X012611Y006963D01*
X012621Y006986D01*
X012756Y006986D01*
X012938Y006986D01*
X013638Y007686D01*
X013767Y007815D01*
X013767Y008304D01*
X013767Y008304D01*
X013797Y008334D01*
X013827Y008304D02*
X013827Y008304D01*
X013827Y008296D02*
X013767Y008296D01*
X013767Y008197D02*
X013827Y008197D01*
X013827Y008099D02*
X013767Y008099D01*
X013767Y008000D02*
X013827Y008000D01*
X013827Y007901D02*
X013767Y007901D01*
X013755Y007803D02*
X013827Y007803D01*
X013827Y007704D02*
X013656Y007704D01*
X013558Y007606D02*
X013827Y007606D01*
X013827Y007507D02*
X013459Y007507D01*
X013361Y007409D02*
X013765Y007409D01*
X013725Y007310D02*
X013262Y007310D01*
X013163Y007212D02*
X013717Y007212D01*
X013720Y007113D02*
X013065Y007113D01*
X012966Y007015D02*
X013761Y007015D01*
X013829Y006916D02*
X012565Y006916D01*
X012467Y006817D02*
X013962Y006817D01*
X013977Y006719D02*
X012467Y006719D01*
X012467Y006620D02*
X013977Y006620D01*
X013977Y006522D02*
X012467Y006522D01*
X012467Y006423D02*
X013977Y006423D01*
X014045Y006325D02*
X012377Y006325D01*
X012278Y006226D02*
X014143Y006226D01*
X014311Y006029D02*
X014340Y006029D01*
X014311Y005931D02*
X014439Y005931D01*
X014463Y005832D02*
X014311Y005832D01*
X014311Y005733D02*
X014463Y005733D01*
X014463Y005635D02*
X013896Y005635D01*
X013896Y005606D02*
X013896Y005706D01*
X013796Y005706D01*
X013796Y005606D01*
X013896Y005606D01*
X013896Y005152D01*
X014223Y005152D01*
X014311Y005240D01*
X014311Y005606D01*
X013896Y005606D01*
X013896Y005536D02*
X013796Y005536D01*
X013796Y005606D02*
X013796Y005152D01*
X013469Y005152D01*
X013381Y005240D01*
X013381Y005606D01*
X013796Y005606D01*
X013796Y005635D02*
X012948Y005635D01*
X012948Y005606D02*
X012948Y005706D01*
X013363Y005706D01*
X013363Y006073D01*
X013275Y006161D01*
X012948Y006161D01*
X012948Y005706D01*
X012848Y005706D01*
X012848Y005606D01*
X012948Y005606D01*
X012948Y005152D01*
X013275Y005152D01*
X013363Y005240D01*
X013363Y005606D01*
X012948Y005606D01*
X012948Y005536D02*
X012848Y005536D01*
X012848Y005606D02*
X012848Y005152D01*
X012521Y005152D01*
X012433Y005240D01*
X012433Y005606D01*
X012848Y005606D01*
X012848Y005635D02*
X012281Y005635D01*
X012281Y005733D02*
X012433Y005733D01*
X012433Y005706D02*
X012848Y005706D01*
X012848Y006161D01*
X012521Y006161D01*
X012433Y006073D01*
X012433Y005706D01*
X012433Y005832D02*
X012281Y005832D01*
X012281Y005931D02*
X012433Y005931D01*
X012433Y006029D02*
X012281Y006029D01*
X012234Y006128D02*
X012488Y006128D01*
X012247Y006506D02*
X012247Y007206D01*
X012847Y007206D01*
X012247Y006506D02*
X011796Y006055D01*
X011796Y005656D01*
X012281Y005536D02*
X012433Y005536D01*
X012433Y005438D02*
X012281Y005438D01*
X012281Y005339D02*
X012433Y005339D01*
X012433Y005241D02*
X012281Y005241D01*
X012191Y005142D02*
X014553Y005142D01*
X014463Y005241D02*
X014311Y005241D01*
X014311Y005339D02*
X014463Y005339D01*
X014463Y005438D02*
X014311Y005438D01*
X014311Y005536D02*
X014463Y005536D01*
X014948Y005656D02*
X014948Y005732D01*
X014197Y006483D01*
X014197Y007156D01*
X014147Y007206D01*
X014047Y007306D01*
X014047Y008724D01*
X014547Y008724D02*
X014547Y008306D01*
X014847Y008006D01*
X014847Y007806D01*
X016097Y007806D01*
X016347Y007556D01*
X016347Y006806D01*
X016347Y005506D01*
X015897Y005506D01*
X015897Y005497D01*
X015373Y005142D02*
X015344Y005142D01*
X015441Y005044D02*
X011427Y005044D01*
X011427Y004945D02*
X019677Y004945D01*
X019677Y004847D02*
X018247Y004847D01*
X018233Y004860D02*
X017867Y004860D01*
X017867Y004445D01*
X018321Y004445D01*
X018321Y004772D01*
X018233Y004860D01*
X018321Y004748D02*
X019677Y004748D01*
X019677Y004649D02*
X019487Y004649D01*
X019523Y004614D02*
X019435Y004702D01*
X019147Y004702D01*
X019147Y004366D01*
X019523Y004366D01*
X019523Y004614D01*
X019523Y004551D02*
X019677Y004551D01*
X019677Y004452D02*
X019523Y004452D01*
X019677Y004354D02*
X019147Y004354D01*
X019147Y004452D02*
X019047Y004452D01*
X019047Y004354D02*
X017867Y004354D01*
X017867Y004345D02*
X017867Y004445D01*
X017767Y004445D01*
X017767Y004345D01*
X017867Y004345D01*
X017867Y003930D01*
X018233Y003930D01*
X018321Y004018D01*
X018321Y004345D01*
X017867Y004345D01*
X017867Y004255D02*
X017767Y004255D01*
X017767Y004345D02*
X017767Y003930D01*
X017401Y003930D01*
X017313Y004018D01*
X017313Y004345D01*
X017767Y004345D01*
X017767Y004354D02*
X015947Y004354D01*
X015947Y004345D02*
X015947Y004445D01*
X016401Y004445D01*
X016401Y004772D01*
X016313Y004860D01*
X015947Y004860D01*
X015947Y004445D01*
X015847Y004445D01*
X015847Y004345D01*
X015947Y004345D01*
X015947Y003930D01*
X016313Y003930D01*
X016401Y004018D01*
X016401Y004345D01*
X015947Y004345D01*
X015947Y004255D02*
X015847Y004255D01*
X015847Y004345D02*
X015847Y003930D01*
X015481Y003930D01*
X015393Y004018D01*
X015393Y004345D01*
X015847Y004345D01*
X015847Y004354D02*
X011520Y004354D01*
X011427Y004452D02*
X015393Y004452D01*
X015393Y004445D02*
X015393Y004772D01*
X015481Y004860D01*
X015847Y004860D01*
X015847Y004445D01*
X015393Y004445D01*
X015393Y004551D02*
X011427Y004551D01*
X011427Y004649D02*
X015393Y004649D01*
X015393Y004748D02*
X011427Y004748D01*
X011427Y004847D02*
X015467Y004847D01*
X015847Y004847D02*
X015947Y004847D01*
X015947Y004748D02*
X015847Y004748D01*
X015847Y004649D02*
X015947Y004649D01*
X015947Y004551D02*
X015847Y004551D01*
X015847Y004452D02*
X015947Y004452D01*
X016327Y004847D02*
X017387Y004847D01*
X017401Y004860D02*
X017313Y004772D01*
X017313Y004445D01*
X017767Y004445D01*
X017767Y004860D01*
X017401Y004860D01*
X017313Y004748D02*
X016401Y004748D01*
X016401Y004649D02*
X017313Y004649D01*
X017313Y004551D02*
X016401Y004551D01*
X016401Y004452D02*
X017313Y004452D01*
X017313Y004255D02*
X016401Y004255D01*
X016401Y004157D02*
X017313Y004157D01*
X017313Y004058D02*
X016401Y004058D01*
X016343Y003960D02*
X017371Y003960D01*
X017767Y003960D02*
X017867Y003960D01*
X017867Y004058D02*
X017767Y004058D01*
X017767Y004157D02*
X017867Y004157D01*
X018263Y003960D02*
X018729Y003960D01*
X018671Y004058D02*
X018321Y004058D01*
X018321Y004157D02*
X018671Y004157D01*
X018671Y004255D02*
X018321Y004255D01*
X018321Y004452D02*
X018671Y004452D01*
X018671Y004551D02*
X018321Y004551D01*
X018321Y004649D02*
X018707Y004649D01*
X019047Y004649D02*
X019147Y004649D01*
X019147Y004551D02*
X019047Y004551D01*
X019047Y004255D02*
X019147Y004255D01*
X019147Y004157D02*
X019047Y004157D01*
X019047Y004058D02*
X019147Y004058D01*
X019147Y003960D02*
X019047Y003960D01*
X019242Y003763D02*
X011966Y003763D01*
X011867Y003861D02*
X019341Y003861D01*
X019523Y004058D02*
X019538Y004058D01*
X019523Y004157D02*
X019636Y004157D01*
X019677Y004255D02*
X019523Y004255D01*
X019897Y004106D02*
X019897Y007107D01*
X019297Y007707D01*
X019297Y007706D01*
X018847Y007706D01*
X018847Y007406D01*
X018647Y007206D01*
X017847Y007206D01*
X017347Y007256D02*
X017347Y006806D01*
X017347Y005506D01*
X017797Y005506D01*
X017817Y005497D01*
X017293Y005241D02*
X016421Y005241D01*
X016421Y005142D02*
X017293Y005142D01*
X017361Y005044D02*
X016353Y005044D01*
X016491Y005339D02*
X017203Y005339D01*
X017127Y005438D02*
X016567Y005438D01*
X016567Y005536D02*
X017127Y005536D01*
X017127Y005635D02*
X016567Y005635D01*
X016567Y005733D02*
X017127Y005733D01*
X017127Y005832D02*
X016567Y005832D01*
X016567Y005931D02*
X017127Y005931D01*
X017127Y006029D02*
X016567Y006029D01*
X016567Y006128D02*
X017127Y006128D01*
X017127Y006226D02*
X016567Y006226D01*
X016567Y006325D02*
X017127Y006325D01*
X017127Y006423D02*
X016567Y006423D01*
X016671Y006522D02*
X017023Y006522D01*
X016959Y006620D02*
X016735Y006620D01*
X016776Y006719D02*
X016918Y006719D01*
X016917Y006817D02*
X016777Y006817D01*
X016767Y006916D02*
X016927Y006916D01*
X016968Y007015D02*
X016726Y007015D01*
X016779Y007113D02*
X016648Y007113D01*
X016681Y007212D02*
X016567Y007212D01*
X016567Y007310D02*
X016582Y007310D01*
X016897Y007306D02*
X016197Y008006D01*
X015047Y008006D01*
X015047Y008724D01*
X013072Y008690D02*
X013022Y008690D01*
X013022Y008788D02*
X013072Y008788D01*
X013072Y008887D02*
X013022Y008887D01*
X013022Y008985D02*
X013072Y008985D01*
X013072Y009084D02*
X013022Y009084D01*
X013022Y008591D02*
X013072Y008591D01*
X013072Y008493D02*
X013022Y008493D01*
X013022Y008394D02*
X013072Y008394D01*
X012327Y009182D02*
X012117Y009182D01*
X012117Y009281D02*
X012327Y009281D01*
X012327Y009380D02*
X012117Y009380D01*
X012117Y009478D02*
X012327Y009478D01*
X012327Y009577D02*
X012117Y009577D01*
X012117Y009675D02*
X012327Y009675D01*
X012327Y009774D02*
X012117Y009774D01*
X012117Y009872D02*
X012327Y009872D01*
X012327Y009971D02*
X012117Y009971D01*
X012117Y010069D02*
X012399Y010069D01*
X012498Y010168D02*
X012117Y010168D01*
X012117Y010266D02*
X012596Y010266D01*
X012695Y010365D02*
X012117Y010365D01*
X012051Y010464D02*
X012793Y010464D01*
X012892Y010562D02*
X010462Y010562D01*
X010303Y010661D02*
X012990Y010661D01*
X013089Y010759D02*
X009627Y010759D01*
X009627Y010661D02*
X010091Y010661D01*
X009932Y010562D02*
X009627Y010562D01*
X009627Y010464D02*
X009864Y010464D01*
X009829Y010365D02*
X009627Y010365D01*
X009627Y010266D02*
X009829Y010266D01*
X009856Y010168D02*
X009627Y010168D01*
X009627Y010069D02*
X009913Y010069D01*
X010045Y009971D02*
X009627Y009971D01*
X009627Y009872D02*
X011677Y009872D01*
X011677Y009774D02*
X010443Y009774D01*
X010549Y009675D02*
X011677Y009675D01*
X011677Y009577D02*
X010596Y009577D01*
X010615Y009478D02*
X010848Y009478D01*
X010770Y009380D02*
X010635Y009380D01*
X010597Y009106D02*
X010597Y008806D01*
X010547Y008724D01*
X010547Y008524D01*
X010447Y008524D01*
X010447Y004106D01*
X009497Y003156D01*
X008997Y003156D01*
X008647Y002806D01*
X008647Y002556D01*
X008397Y003456D02*
X009297Y003456D01*
X010217Y004386D01*
X010217Y006636D01*
X009547Y007306D01*
X009547Y008056D01*
X009947Y008456D01*
X009947Y008624D01*
X010047Y008624D01*
X010047Y008724D01*
X010000Y009182D02*
X009627Y009182D01*
X009627Y009281D02*
X009921Y009281D01*
X009880Y009380D02*
X009627Y009380D01*
X009627Y009478D02*
X009879Y009478D01*
X009898Y009577D02*
X009627Y009577D01*
X009627Y009675D02*
X009945Y009675D01*
X010051Y009774D02*
X009627Y009774D01*
X009167Y009618D02*
X009167Y009395D01*
X009122Y009440D01*
X008272Y009440D01*
X008183Y009351D01*
X008113Y009420D01*
X007747Y009420D01*
X007747Y009005D01*
X007647Y009005D01*
X007647Y008905D01*
X007747Y008905D01*
X007747Y008490D01*
X008113Y008490D01*
X008183Y008560D01*
X008272Y008470D01*
X008537Y008470D01*
X008537Y008160D01*
X008451Y008196D01*
X008280Y008196D01*
X008123Y008130D01*
X008003Y008010D01*
X007972Y007935D01*
X007940Y008010D01*
X007820Y008130D01*
X007663Y008196D01*
X007493Y008196D01*
X007336Y008130D01*
X007216Y008010D01*
X007184Y007935D01*
X007153Y008010D01*
X007033Y008130D01*
X006876Y008196D01*
X006706Y008196D01*
X006549Y008130D01*
X006428Y008010D01*
X006397Y007935D01*
X006366Y008010D01*
X006245Y008130D01*
X006149Y008171D01*
X006206Y008194D01*
X006309Y008298D01*
X006365Y008433D01*
X006365Y008580D01*
X006309Y008715D01*
X006217Y008807D01*
X006217Y009027D01*
X006977Y009938D01*
X007070Y009938D01*
X007173Y009981D01*
X007173Y009672D01*
X007272Y009573D01*
X008122Y009573D01*
X008197Y009648D01*
X008272Y009573D01*
X009122Y009573D01*
X009167Y009618D01*
X009167Y009577D02*
X009126Y009577D01*
X009167Y009478D02*
X006593Y009478D01*
X006511Y009380D02*
X007240Y009380D01*
X007281Y009420D02*
X007193Y009332D01*
X007193Y009005D01*
X007647Y009005D01*
X007647Y009420D01*
X007281Y009420D01*
X007268Y009577D02*
X006675Y009577D01*
X006757Y009675D02*
X007173Y009675D01*
X007173Y009774D02*
X006840Y009774D01*
X006922Y009872D02*
X007173Y009872D01*
X007173Y009971D02*
X007149Y009971D01*
X006997Y010306D02*
X005997Y009106D01*
X005997Y008506D01*
X006365Y008493D02*
X007278Y008493D01*
X007281Y008490D02*
X007647Y008490D01*
X007647Y008905D01*
X007193Y008905D01*
X007193Y008578D01*
X007281Y008490D01*
X007193Y008591D02*
X006360Y008591D01*
X006319Y008690D02*
X007193Y008690D01*
X007193Y008788D02*
X006236Y008788D01*
X006217Y008887D02*
X007193Y008887D01*
X007193Y009084D02*
X006265Y009084D01*
X006217Y008985D02*
X007647Y008985D01*
X007647Y008887D02*
X007747Y008887D01*
X007747Y008788D02*
X007647Y008788D01*
X007647Y008690D02*
X007747Y008690D01*
X007747Y008591D02*
X007647Y008591D01*
X007647Y008493D02*
X007747Y008493D01*
X008116Y008493D02*
X008250Y008493D01*
X008537Y008394D02*
X006349Y008394D01*
X006307Y008296D02*
X008537Y008296D01*
X008537Y008197D02*
X006208Y008197D01*
X006277Y008099D02*
X006517Y008099D01*
X006424Y008000D02*
X006370Y008000D01*
X007065Y008099D02*
X007304Y008099D01*
X007211Y008000D02*
X007157Y008000D01*
X007852Y008099D02*
X008091Y008099D01*
X007999Y008000D02*
X007945Y008000D01*
X008757Y007306D02*
X008757Y008706D01*
X008846Y008806D01*
X008212Y009380D02*
X008154Y009380D01*
X008126Y009577D02*
X008268Y009577D01*
X007747Y009380D02*
X007647Y009380D01*
X007647Y009281D02*
X007747Y009281D01*
X007747Y009182D02*
X007647Y009182D01*
X007647Y009084D02*
X007747Y009084D01*
X007193Y009182D02*
X006347Y009182D01*
X006429Y009281D02*
X007193Y009281D01*
X005847Y010006D02*
X005847Y011056D01*
X005197Y010759D02*
X004789Y010759D01*
X004789Y010661D02*
X005197Y010661D01*
X005197Y010562D02*
X004744Y010562D01*
X004610Y010464D02*
X005184Y010464D01*
X005847Y010006D02*
X004697Y008856D01*
X004697Y008056D01*
X004447Y007806D01*
X004429Y007768D01*
X004443Y006906D02*
X003518Y006906D01*
X003468Y006856D01*
X003966Y006856D01*
X004132Y006788D01*
X004258Y006661D01*
X004327Y006496D01*
X004327Y006317D01*
X004258Y006151D01*
X004132Y006025D01*
X003966Y005956D01*
X003227Y005956D01*
X003062Y006025D01*
X002936Y006151D01*
X002897Y006245D01*
X002897Y005568D01*
X002936Y005661D01*
X003062Y005788D01*
X003227Y005856D01*
X003966Y005856D01*
X004132Y005788D01*
X004258Y005661D01*
X004327Y005496D01*
X004327Y005317D01*
X004258Y005151D01*
X004132Y005025D01*
X003966Y004956D01*
X003227Y004956D01*
X003062Y005025D01*
X002936Y005151D01*
X002897Y005245D01*
X002897Y004568D01*
X002936Y004661D01*
X003062Y004788D01*
X003227Y004856D01*
X003966Y004856D01*
X004132Y004788D01*
X004258Y004661D01*
X004327Y004496D01*
X004327Y004317D01*
X004258Y004151D01*
X004132Y004025D01*
X003966Y003956D01*
X003897Y003956D01*
X003897Y003037D01*
X003953Y003014D01*
X004105Y002862D01*
X004187Y002664D01*
X004187Y002449D01*
X004150Y002359D01*
X004888Y003097D01*
X004888Y003523D01*
X004987Y003623D01*
X005707Y003623D01*
X005806Y003523D01*
X005806Y002882D01*
X005707Y002783D01*
X005281Y002783D01*
X004179Y001682D01*
X004187Y001664D01*
X004187Y001449D01*
X004105Y001250D01*
X003953Y001099D01*
X003754Y001016D01*
X003540Y001016D01*
X003341Y001099D01*
X003189Y001250D01*
X003136Y001379D01*
X003088Y001262D01*
X002942Y001115D01*
X002750Y001036D01*
X002697Y001036D01*
X002697Y001506D01*
X002597Y001506D01*
X002597Y001036D01*
X002544Y001036D01*
X002352Y001115D01*
X002206Y001262D01*
X002158Y001379D01*
X002105Y001250D01*
X001953Y001099D01*
X001754Y001016D01*
X001540Y001016D01*
X001341Y001099D01*
X001189Y001250D01*
X001107Y001449D01*
X001107Y001664D01*
X001189Y001862D01*
X001341Y002014D01*
X001443Y002056D01*
X001341Y002099D01*
X001189Y002250D01*
X001107Y002449D01*
X001107Y002664D01*
X001189Y002862D01*
X001341Y003014D01*
X001540Y003096D01*
X001754Y003096D01*
X001953Y003014D01*
X002105Y002862D01*
X002158Y002734D01*
X002206Y002851D01*
X002352Y002997D01*
X002544Y003076D01*
X002597Y003076D01*
X002597Y002606D01*
X002697Y002606D01*
X002697Y003076D01*
X002750Y003076D01*
X002942Y002997D01*
X003088Y002851D01*
X003136Y002734D01*
X003189Y002862D01*
X003341Y003014D01*
X003397Y003037D01*
X003397Y003956D01*
X003227Y003956D01*
X003062Y004025D01*
X002936Y004151D01*
X002897Y004245D01*
X002897Y003806D01*
X002897Y003773D01*
X002915Y003730D01*
X002915Y003583D01*
X002859Y003448D01*
X002756Y003344D01*
X002620Y003288D01*
X002474Y003288D01*
X002338Y003344D01*
X002246Y003436D01*
X002016Y003206D01*
X001797Y003206D01*
X001797Y003806D01*
X001697Y003806D01*
X001697Y003206D01*
X001478Y003206D01*
X001097Y003587D01*
X001097Y003806D01*
X001697Y003806D01*
X001697Y003906D01*
X001097Y003906D01*
X001097Y004126D01*
X001389Y004417D01*
X001077Y004729D01*
X001077Y005284D01*
X001427Y005634D01*
X001391Y005649D01*
X001239Y005800D01*
X001157Y005999D01*
X001157Y006214D01*
X001239Y006411D01*
X001067Y006583D01*
X001067Y000976D01*
X020212Y000976D01*
X020212Y002760D01*
X020166Y002714D01*
X020187Y002664D01*
X020187Y002449D01*
X020105Y002250D01*
X019953Y002099D01*
X019867Y002063D01*
X019867Y002050D01*
X019953Y002014D01*
X020105Y001862D01*
X020187Y001664D01*
X020187Y001449D01*
X020105Y001250D01*
X019953Y001099D01*
X019754Y001016D01*
X019540Y001016D01*
X019341Y001099D01*
X019189Y001250D01*
X019147Y001352D01*
X019105Y001250D01*
X018953Y001099D01*
X018754Y001016D01*
X018540Y001016D01*
X018341Y001099D01*
X018189Y001250D01*
X018147Y001352D01*
X018105Y001250D01*
X017953Y001099D01*
X017754Y001016D01*
X017540Y001016D01*
X017341Y001099D01*
X017189Y001250D01*
X017147Y001352D01*
X017105Y001250D01*
X016953Y001099D01*
X016754Y001016D01*
X016540Y001016D01*
X016341Y001099D01*
X016189Y001250D01*
X016147Y001352D01*
X016105Y001250D01*
X015953Y001099D01*
X015754Y001016D01*
X015540Y001016D01*
X015341Y001099D01*
X015189Y001250D01*
X015147Y001352D01*
X015105Y001250D01*
X014953Y001099D01*
X014754Y001016D01*
X014540Y001016D01*
X014341Y001099D01*
X014189Y001250D01*
X014136Y001379D01*
X014088Y001262D01*
X013942Y001115D01*
X013750Y001036D01*
X013697Y001036D01*
X013697Y001506D01*
X013597Y001506D01*
X013597Y001036D01*
X013544Y001036D01*
X013352Y001115D01*
X013206Y001262D01*
X013158Y001379D01*
X013105Y001250D01*
X012953Y001099D01*
X012754Y001016D01*
X012540Y001016D01*
X012341Y001099D01*
X012189Y001250D01*
X012147Y001352D01*
X012105Y001250D01*
X011953Y001099D01*
X011754Y001016D01*
X011540Y001016D01*
X011341Y001099D01*
X011189Y001250D01*
X011147Y001352D01*
X011105Y001250D01*
X010953Y001099D01*
X010754Y001016D01*
X010540Y001016D01*
X010341Y001099D01*
X010189Y001250D01*
X010147Y001352D01*
X010105Y001250D01*
X009953Y001099D01*
X009754Y001016D01*
X009540Y001016D01*
X009341Y001099D01*
X009189Y001250D01*
X009147Y001352D01*
X009105Y001250D01*
X008953Y001099D01*
X008754Y001016D01*
X008540Y001016D01*
X008341Y001099D01*
X008189Y001250D01*
X008147Y001352D01*
X008105Y001250D01*
X007953Y001099D01*
X007754Y001016D01*
X007540Y001016D01*
X007341Y001099D01*
X007189Y001250D01*
X007147Y001352D01*
X007105Y001250D01*
X006953Y001099D01*
X006754Y001016D01*
X006540Y001016D01*
X006341Y001099D01*
X006189Y001250D01*
X006107Y001449D01*
X006107Y001664D01*
X006189Y001862D01*
X006341Y002014D01*
X006443Y002056D01*
X006341Y002099D01*
X006189Y002250D01*
X006107Y002449D01*
X006107Y002664D01*
X006189Y002862D01*
X006341Y003014D01*
X006427Y003050D01*
X006427Y003115D01*
X006427Y003182D01*
X006297Y003235D01*
X006194Y003339D01*
X006138Y003474D01*
X006138Y003621D01*
X006194Y003756D01*
X006297Y003859D01*
X006433Y003916D01*
X006579Y003916D01*
X006714Y003859D01*
X006776Y003797D01*
X007485Y003797D01*
X007890Y004203D01*
X007890Y005119D01*
X007928Y005156D01*
X007818Y005156D01*
X007756Y005094D01*
X007620Y005038D01*
X007474Y005038D01*
X007384Y005076D01*
X007384Y004606D01*
X007048Y004606D01*
X007048Y004506D01*
X007384Y004506D01*
X007384Y004002D01*
X007296Y003914D01*
X007047Y003914D01*
X007047Y004506D01*
X006947Y004506D01*
X006611Y004506D01*
X006611Y004002D01*
X006699Y003914D01*
X006947Y003914D01*
X006947Y004506D01*
X006947Y004606D01*
X006611Y004606D01*
X006611Y005111D01*
X006699Y005198D01*
X006947Y005198D01*
X006947Y004606D01*
X007047Y004606D01*
X007047Y005198D01*
X007235Y005198D01*
X007179Y005333D01*
X007179Y005480D01*
X007235Y005615D01*
X007338Y005718D01*
X007474Y005774D01*
X007481Y005774D01*
X007481Y006356D01*
X007093Y006356D01*
X007093Y006106D01*
X006757Y006106D01*
X006757Y006006D01*
X007093Y006006D01*
X007093Y005719D01*
X007005Y005631D01*
X006756Y005631D01*
X006756Y006006D01*
X006656Y006006D01*
X006656Y005631D01*
X006447Y005631D01*
X006447Y004756D01*
X006447Y004657D01*
X006409Y004565D01*
X006109Y004265D01*
X006039Y004194D01*
X005963Y004163D01*
X005958Y004151D01*
X005832Y004025D01*
X005666Y003956D01*
X004927Y003956D01*
X004762Y004025D01*
X004636Y004151D01*
X004567Y004317D01*
X004567Y004496D01*
X004636Y004661D01*
X004762Y004788D01*
X004927Y004856D01*
X005666Y004856D01*
X005832Y004788D01*
X005878Y004741D01*
X005947Y004810D01*
X005947Y005140D01*
X005832Y005025D01*
X005666Y004956D01*
X004927Y004956D01*
X004762Y005025D01*
X004636Y005151D01*
X004567Y005317D01*
X004567Y005496D01*
X004636Y005661D01*
X004762Y005788D01*
X004927Y005856D01*
X005666Y005856D01*
X005832Y005788D01*
X005947Y005673D01*
X005947Y006140D01*
X005832Y006025D01*
X005666Y005956D01*
X004927Y005956D01*
X004762Y006025D01*
X004636Y006151D01*
X004567Y006317D01*
X004567Y006496D01*
X004636Y006661D01*
X004662Y006688D01*
X004443Y006906D01*
X004532Y006817D02*
X004060Y006817D01*
X004201Y006719D02*
X004631Y006719D01*
X004619Y006620D02*
X004275Y006620D01*
X004316Y006522D02*
X004578Y006522D01*
X004567Y006423D02*
X004327Y006423D01*
X004327Y006325D02*
X004567Y006325D01*
X004605Y006226D02*
X004289Y006226D01*
X004235Y006128D02*
X004659Y006128D01*
X004758Y006029D02*
X004136Y006029D01*
X004025Y005832D02*
X004869Y005832D01*
X004708Y005733D02*
X004186Y005733D01*
X004269Y005635D02*
X004625Y005635D01*
X004584Y005536D02*
X004310Y005536D01*
X004327Y005438D02*
X004567Y005438D01*
X004567Y005339D02*
X004327Y005339D01*
X004295Y005241D02*
X004598Y005241D01*
X004645Y005142D02*
X004249Y005142D01*
X004151Y005044D02*
X004743Y005044D01*
X004904Y004847D02*
X003990Y004847D01*
X004172Y004748D02*
X004722Y004748D01*
X004631Y004649D02*
X004263Y004649D01*
X004304Y004551D02*
X004590Y004551D01*
X004567Y004452D02*
X004327Y004452D01*
X004327Y004354D02*
X004567Y004354D01*
X004592Y004255D02*
X004301Y004255D01*
X004261Y004157D02*
X004633Y004157D01*
X004729Y004058D02*
X004165Y004058D01*
X003975Y003960D02*
X004919Y003960D01*
X004930Y003566D02*
X003897Y003566D01*
X003897Y003664D02*
X006156Y003664D01*
X006138Y003566D02*
X005764Y003566D01*
X005806Y003467D02*
X006141Y003467D01*
X006182Y003368D02*
X005806Y003368D01*
X005806Y003270D02*
X006263Y003270D01*
X006427Y003171D02*
X005806Y003171D01*
X005806Y003073D02*
X006427Y003073D01*
X006301Y002974D02*
X005806Y002974D01*
X005800Y002876D02*
X006203Y002876D01*
X006154Y002777D02*
X005275Y002777D01*
X005176Y002679D02*
X006113Y002679D01*
X006107Y002580D02*
X005078Y002580D01*
X004979Y002482D02*
X006107Y002482D01*
X006134Y002383D02*
X004881Y002383D01*
X004782Y002284D02*
X006175Y002284D01*
X006254Y002186D02*
X004684Y002186D01*
X004585Y002087D02*
X006368Y002087D01*
X006316Y001989D02*
X004487Y001989D01*
X004388Y001890D02*
X004976Y001890D01*
X004995Y001910D02*
X004908Y001822D01*
X004908Y001560D01*
X005297Y001560D01*
X005297Y001910D01*
X004995Y001910D01*
X004908Y001792D02*
X004289Y001792D01*
X004191Y001693D02*
X004908Y001693D01*
X004908Y001595D02*
X004187Y001595D01*
X004187Y001496D02*
X005297Y001496D01*
X005297Y001460D02*
X005297Y001560D01*
X005397Y001560D01*
X005397Y001910D01*
X005699Y001910D01*
X005786Y001822D01*
X005786Y001560D01*
X005397Y001560D01*
X005397Y001460D01*
X005786Y001460D01*
X005786Y001198D01*
X005699Y001110D01*
X005397Y001110D01*
X005397Y001460D01*
X005297Y001460D01*
X004908Y001460D01*
X004908Y001198D01*
X004995Y001110D01*
X005297Y001110D01*
X005297Y001460D01*
X005297Y001398D02*
X005397Y001398D01*
X005397Y001496D02*
X006107Y001496D01*
X006107Y001595D02*
X005786Y001595D01*
X005786Y001693D02*
X006119Y001693D01*
X006160Y001792D02*
X005786Y001792D01*
X005718Y001890D02*
X006217Y001890D01*
X006128Y001398D02*
X005786Y001398D01*
X005786Y001299D02*
X006169Y001299D01*
X006239Y001200D02*
X005786Y001200D01*
X005397Y001200D02*
X005297Y001200D01*
X005297Y001299D02*
X005397Y001299D01*
X005397Y001595D02*
X005297Y001595D01*
X005297Y001693D02*
X005397Y001693D01*
X005397Y001792D02*
X005297Y001792D01*
X005297Y001890D02*
X005397Y001890D01*
X004908Y001398D02*
X004166Y001398D01*
X004125Y001299D02*
X004908Y001299D01*
X004908Y001200D02*
X004055Y001200D01*
X003956Y001102D02*
X006338Y001102D01*
X006956Y001102D02*
X007338Y001102D01*
X007239Y001200D02*
X007055Y001200D01*
X007125Y001299D02*
X007169Y001299D01*
X007956Y001102D02*
X008338Y001102D01*
X008239Y001200D02*
X008055Y001200D01*
X008125Y001299D02*
X008169Y001299D01*
X008956Y001102D02*
X009338Y001102D01*
X009239Y001200D02*
X009055Y001200D01*
X009125Y001299D02*
X009169Y001299D01*
X009956Y001102D02*
X010338Y001102D01*
X010239Y001200D02*
X010055Y001200D01*
X010125Y001299D02*
X010169Y001299D01*
X010956Y001102D02*
X011338Y001102D01*
X011239Y001200D02*
X011055Y001200D01*
X011125Y001299D02*
X011169Y001299D01*
X011956Y001102D02*
X012338Y001102D01*
X012239Y001200D02*
X012055Y001200D01*
X012125Y001299D02*
X012169Y001299D01*
X012956Y001102D02*
X013385Y001102D01*
X013267Y001200D02*
X013055Y001200D01*
X013125Y001299D02*
X013191Y001299D01*
X013597Y001299D02*
X013697Y001299D01*
X013697Y001398D02*
X013597Y001398D01*
X013597Y001496D02*
X013697Y001496D01*
X013697Y001606D02*
X013597Y001606D01*
X013597Y002076D01*
X013597Y002506D01*
X013697Y002506D01*
X013697Y002076D01*
X013697Y001606D01*
X013697Y001693D02*
X013597Y001693D01*
X013597Y001792D02*
X013697Y001792D01*
X013697Y001890D02*
X013597Y001890D01*
X013597Y001989D02*
X013697Y001989D01*
X013697Y002087D02*
X013597Y002087D01*
X013597Y002186D02*
X013697Y002186D01*
X013697Y002284D02*
X013597Y002284D01*
X013597Y002383D02*
X013697Y002383D01*
X013697Y002482D02*
X013597Y002482D01*
X013597Y002679D02*
X013697Y002679D01*
X013697Y002777D02*
X013597Y002777D01*
X013597Y002876D02*
X013697Y002876D01*
X013697Y002974D02*
X013597Y002974D01*
X013597Y003073D02*
X013697Y003073D01*
X013759Y003073D02*
X014483Y003073D01*
X014301Y002974D02*
X013964Y002974D01*
X014063Y002876D02*
X014203Y002876D01*
X014154Y002777D02*
X014118Y002777D01*
X013535Y003073D02*
X012811Y003073D01*
X012993Y002974D02*
X013330Y002974D01*
X013231Y002876D02*
X013091Y002876D01*
X013140Y002777D02*
X013176Y002777D01*
X012527Y003171D02*
X018651Y003171D01*
X018750Y003270D02*
X012459Y003270D01*
X012360Y003368D02*
X018848Y003368D01*
X018947Y003467D02*
X012262Y003467D01*
X012163Y003566D02*
X019045Y003566D01*
X019144Y003664D02*
X012064Y003664D01*
X011769Y003960D02*
X015451Y003960D01*
X015393Y004058D02*
X011670Y004058D01*
X011654Y004157D02*
X015393Y004157D01*
X015393Y004255D02*
X011613Y004255D01*
X010697Y003806D02*
X009647Y002756D01*
X009647Y002556D01*
X010647Y002556D02*
X010647Y003006D01*
X010947Y003306D01*
X010947Y007856D01*
X011547Y008456D01*
X011547Y008724D01*
X011597Y008806D01*
X011597Y008906D01*
X011897Y009206D01*
X011897Y010306D01*
X010197Y010306D01*
X010349Y009971D02*
X011677Y009971D01*
X011677Y010069D02*
X010481Y010069D01*
X010247Y009456D02*
X010597Y009106D01*
X011097Y009206D02*
X011097Y008806D01*
X011047Y008724D01*
X011047Y008456D01*
X010697Y008106D01*
X010697Y003806D01*
X009997Y004506D02*
X009147Y003656D01*
X008297Y003656D01*
X007847Y003206D01*
X006647Y003206D01*
X006647Y002556D01*
X007647Y002556D02*
X007647Y002706D01*
X008397Y003456D01*
X007745Y004058D02*
X007384Y004058D01*
X007384Y004157D02*
X007844Y004157D01*
X007890Y004255D02*
X007384Y004255D01*
X007384Y004354D02*
X007890Y004354D01*
X007890Y004452D02*
X007384Y004452D01*
X007384Y004649D02*
X007890Y004649D01*
X007890Y004551D02*
X007048Y004551D01*
X007047Y004649D02*
X006947Y004649D01*
X006947Y004551D02*
X006395Y004551D01*
X006444Y004649D02*
X006611Y004649D01*
X006611Y004748D02*
X006447Y004748D01*
X006447Y004847D02*
X006611Y004847D01*
X006611Y004945D02*
X006447Y004945D01*
X006447Y005044D02*
X006611Y005044D01*
X006643Y005142D02*
X006447Y005142D01*
X006447Y005241D02*
X007217Y005241D01*
X007179Y005339D02*
X006447Y005339D01*
X006447Y005438D02*
X007179Y005438D01*
X007202Y005536D02*
X006447Y005536D01*
X006656Y005635D02*
X006756Y005635D01*
X006756Y005733D02*
X006656Y005733D01*
X006656Y005832D02*
X006756Y005832D01*
X006756Y005931D02*
X006656Y005931D01*
X006757Y006029D02*
X007481Y006029D01*
X007481Y005931D02*
X007093Y005931D01*
X007093Y005832D02*
X007481Y005832D01*
X007375Y005733D02*
X007093Y005733D01*
X007009Y005635D02*
X007255Y005635D01*
X007047Y005142D02*
X006947Y005142D01*
X006947Y005044D02*
X007047Y005044D01*
X007047Y004945D02*
X006947Y004945D01*
X006947Y004847D02*
X007047Y004847D01*
X007047Y004748D02*
X006947Y004748D01*
X006947Y004452D02*
X007047Y004452D01*
X007047Y004354D02*
X006947Y004354D01*
X006947Y004255D02*
X007047Y004255D01*
X007047Y004157D02*
X006947Y004157D01*
X006947Y004058D02*
X007047Y004058D01*
X007047Y003960D02*
X006947Y003960D01*
X006710Y003861D02*
X007548Y003861D01*
X007647Y003960D02*
X007341Y003960D01*
X006654Y003960D02*
X005675Y003960D01*
X005865Y004058D02*
X006611Y004058D01*
X006611Y004157D02*
X005961Y004157D01*
X006100Y004255D02*
X006611Y004255D01*
X006611Y004354D02*
X006198Y004354D01*
X006297Y004452D02*
X006611Y004452D01*
X006301Y003861D02*
X003897Y003861D01*
X003897Y003763D02*
X006200Y003763D01*
X005885Y004748D02*
X005872Y004748D01*
X005947Y004847D02*
X005690Y004847D01*
X005851Y005044D02*
X005947Y005044D01*
X005947Y004945D02*
X002897Y004945D01*
X002897Y004847D02*
X003204Y004847D01*
X003022Y004748D02*
X002897Y004748D01*
X002897Y004649D02*
X002931Y004649D01*
X002897Y005044D02*
X003043Y005044D01*
X002945Y005142D02*
X002897Y005142D01*
X002897Y005241D02*
X002899Y005241D01*
X002897Y005635D02*
X002925Y005635D01*
X002897Y005733D02*
X003008Y005733D01*
X002897Y005832D02*
X003169Y005832D01*
X003058Y006029D02*
X002897Y006029D01*
X002897Y005931D02*
X005947Y005931D01*
X005947Y006029D02*
X005836Y006029D01*
X005935Y006128D02*
X005947Y006128D01*
X005947Y005832D02*
X005725Y005832D01*
X005886Y005733D02*
X005947Y005733D01*
X007093Y006128D02*
X007481Y006128D01*
X007481Y006226D02*
X007093Y006226D01*
X007093Y006325D02*
X007481Y006325D01*
X007804Y005142D02*
X007914Y005142D01*
X007890Y005044D02*
X007633Y005044D01*
X007461Y005044D02*
X007384Y005044D01*
X007384Y004945D02*
X007890Y004945D01*
X007890Y004847D02*
X007384Y004847D01*
X007384Y004748D02*
X007890Y004748D01*
X009997Y004506D02*
X009997Y006556D01*
X009347Y007206D01*
X008847Y007206D01*
X008757Y007306D01*
X009767Y007397D02*
X009767Y007399D01*
X009859Y007361D01*
X009911Y007361D01*
X009911Y007739D01*
X009969Y007739D01*
X009969Y007361D01*
X010021Y007361D01*
X010171Y007423D01*
X010227Y007479D01*
X010227Y006937D01*
X009767Y007397D01*
X009854Y007310D02*
X010227Y007310D01*
X010227Y007212D02*
X009953Y007212D01*
X010051Y007113D02*
X010227Y007113D01*
X010227Y007015D02*
X010150Y007015D01*
X010137Y007409D02*
X010227Y007409D01*
X009969Y007409D02*
X009911Y007409D01*
X009911Y007507D02*
X009969Y007507D01*
X009969Y007606D02*
X009911Y007606D01*
X009911Y007704D02*
X009969Y007704D01*
X011465Y009182D02*
X011562Y009182D01*
X011464Y009281D02*
X011661Y009281D01*
X011677Y009380D02*
X011424Y009380D01*
X011346Y009478D02*
X011677Y009478D01*
X013187Y010858D02*
X009571Y010858D01*
X009472Y010956D02*
X013286Y010956D01*
X012592Y011576D02*
X012615Y011633D01*
X012615Y011636D01*
X012888Y011636D01*
X013017Y011765D01*
X013317Y012065D01*
X013317Y012078D01*
X013327Y012068D01*
X013767Y012068D01*
X013811Y012112D01*
X013835Y012088D01*
X014022Y012088D01*
X014022Y012463D01*
X014072Y012463D01*
X014072Y012088D01*
X014186Y012088D01*
X014138Y012068D01*
X014035Y011965D01*
X013979Y011830D01*
X013979Y011683D01*
X014023Y011576D01*
X012592Y011576D01*
X012898Y011646D02*
X013994Y011646D01*
X013979Y011745D02*
X012996Y011745D01*
X013095Y011843D02*
X013985Y011843D01*
X014025Y011942D02*
X013194Y011942D01*
X013292Y012040D02*
X014110Y012040D01*
X014072Y012139D02*
X014022Y012139D01*
X014022Y012237D02*
X014072Y012237D01*
X014072Y012336D02*
X014022Y012336D01*
X014022Y012434D02*
X014072Y012434D01*
X014072Y012513D02*
X014022Y012513D01*
X014022Y012888D01*
X013835Y012888D01*
X013811Y012864D01*
X013797Y012879D01*
X013797Y013070D01*
X013874Y013038D01*
X014020Y013038D01*
X014137Y013087D01*
X014256Y012968D01*
X014321Y012903D01*
X014283Y012864D01*
X014259Y012888D01*
X014072Y012888D01*
X014072Y012513D01*
X014072Y012533D02*
X014022Y012533D01*
X014022Y012631D02*
X014072Y012631D01*
X014072Y012730D02*
X014022Y012730D01*
X014022Y012829D02*
X014072Y012829D01*
X014198Y013026D02*
X013797Y013026D01*
X013797Y012927D02*
X014297Y012927D01*
X014547Y012988D02*
X014347Y013188D01*
X014547Y012988D02*
X014547Y012488D01*
X014597Y012406D01*
X014597Y012006D01*
X014347Y011756D01*
X014997Y011706D02*
X015047Y011756D01*
X015047Y012488D01*
X015047Y012956D01*
X015022Y012981D01*
X015047Y013006D01*
X015047Y013056D01*
X015022Y012981D02*
X014747Y013256D01*
X014747Y015906D01*
X016397Y017556D01*
X017497Y017556D01*
X017647Y017706D01*
X017647Y018556D01*
X017174Y019825D02*
X017120Y019825D01*
X017043Y019924D02*
X017251Y019924D01*
X017361Y020022D02*
X016933Y020022D01*
X016361Y020022D02*
X015881Y020022D01*
X016015Y019924D02*
X016251Y019924D01*
X016174Y019825D02*
X016098Y019825D01*
X015697Y019924D02*
X015597Y019924D01*
X015597Y020022D02*
X015697Y020022D01*
X015171Y018347D02*
X015145Y018347D01*
X015103Y018248D02*
X015219Y018248D01*
X015318Y018150D02*
X015004Y018150D01*
X014751Y016672D02*
X014613Y016672D01*
X014613Y016573D02*
X014653Y016573D01*
X016324Y016672D02*
X016921Y016672D01*
X016921Y016770D02*
X016422Y016770D01*
X016521Y016869D02*
X016921Y016869D01*
X017004Y016967D02*
X016619Y016967D01*
X017513Y016376D02*
X017613Y016376D01*
X017613Y016278D02*
X017513Y016278D01*
X017513Y016179D02*
X017613Y016179D01*
X017613Y016081D02*
X017513Y016081D01*
X017513Y015982D02*
X017613Y015982D01*
X017997Y015785D02*
X016892Y015785D01*
X016915Y015686D02*
X017996Y015686D01*
X017997Y015588D02*
X016915Y015588D01*
X016876Y015489D02*
X016963Y015489D01*
X016921Y015391D02*
X016802Y015391D01*
X016921Y015292D02*
X016630Y015292D01*
X016840Y015883D02*
X018083Y015883D01*
X018217Y015706D02*
X018347Y015826D01*
X018217Y015706D02*
X018217Y015406D01*
X018297Y015296D01*
X018297Y014956D01*
X018497Y014756D01*
X018411Y014110D02*
X018275Y014110D01*
X017797Y013756D02*
X017797Y013706D01*
X017797Y013607D01*
X017835Y013515D01*
X017921Y013428D01*
X017613Y013428D01*
X017613Y012935D01*
X017513Y012935D01*
X017513Y013428D01*
X017222Y013428D01*
X017265Y013533D01*
X017265Y013680D01*
X017233Y013758D01*
X017412Y013758D01*
X017441Y013751D01*
X017478Y013758D01*
X017543Y013758D01*
X017547Y013756D01*
X017580Y013756D01*
X017612Y013752D01*
X017629Y013756D01*
X017797Y013756D01*
X017797Y013715D02*
X017250Y013715D01*
X017265Y013617D02*
X017797Y013617D01*
X017834Y013518D02*
X017259Y013518D01*
X017513Y013420D02*
X017613Y013420D01*
X017613Y013321D02*
X017513Y013321D01*
X017513Y013223D02*
X017613Y013223D01*
X017613Y013124D02*
X017513Y013124D01*
X017513Y013026D02*
X017613Y013026D01*
X017613Y012935D02*
X018205Y012935D01*
X018205Y013145D01*
X018447Y012903D01*
X018447Y011377D01*
X018385Y011315D01*
X018367Y011271D01*
X018367Y011615D01*
X018367Y011797D01*
X018263Y011902D01*
X018309Y011948D01*
X018365Y012083D01*
X018365Y012230D01*
X018309Y012365D01*
X018206Y012468D01*
X018205Y012469D01*
X018205Y012835D01*
X017613Y012835D01*
X017613Y012935D01*
X017613Y012927D02*
X018423Y012927D01*
X018447Y012829D02*
X018205Y012829D01*
X018205Y012730D02*
X018447Y012730D01*
X018447Y012631D02*
X018205Y012631D01*
X018205Y012533D02*
X018447Y012533D01*
X018447Y012434D02*
X018239Y012434D01*
X018321Y012336D02*
X018447Y012336D01*
X018447Y012237D02*
X018362Y012237D01*
X018365Y012139D02*
X018447Y012139D01*
X018447Y012040D02*
X018347Y012040D01*
X018303Y011942D02*
X018447Y011942D01*
X018447Y011843D02*
X018321Y011843D01*
X018367Y011745D02*
X018447Y011745D01*
X018447Y011646D02*
X018367Y011646D01*
X018367Y011548D02*
X018447Y011548D01*
X018447Y011449D02*
X018367Y011449D01*
X018367Y011350D02*
X018421Y011350D01*
X018147Y011156D02*
X018147Y011706D01*
X017997Y011856D01*
X017997Y012156D01*
X017647Y012040D02*
X016317Y012040D01*
X016317Y012007D02*
X016317Y012118D01*
X016367Y012168D01*
X016367Y012809D01*
X016277Y012899D01*
X016277Y012986D01*
X016279Y012986D01*
X016670Y012986D01*
X016769Y013086D01*
X016769Y013261D01*
X016824Y013238D01*
X016921Y013238D01*
X016921Y012935D01*
X017513Y012935D01*
X017513Y012835D01*
X016921Y012835D01*
X016921Y012429D01*
X017008Y012341D01*
X017513Y012341D01*
X017513Y012834D01*
X017613Y012834D01*
X017613Y012341D01*
X017675Y012341D01*
X017629Y012230D01*
X017629Y012083D01*
X017685Y011948D01*
X017777Y011856D01*
X017777Y011765D01*
X017791Y011751D01*
X017177Y011751D01*
X017102Y011676D01*
X016756Y011676D01*
X016656Y011576D01*
X016442Y011576D01*
X016465Y011633D01*
X016465Y011780D01*
X016409Y011915D01*
X016317Y012007D01*
X016382Y011942D02*
X017691Y011942D01*
X017777Y011843D02*
X016439Y011843D01*
X016465Y011745D02*
X017170Y011745D01*
X016847Y011456D02*
X017497Y011456D01*
X017497Y011106D02*
X018097Y011106D01*
X018147Y011156D01*
X018258Y010956D02*
X018361Y010956D01*
X018425Y010858D02*
X017917Y010858D01*
X016797Y011356D02*
X016797Y011406D01*
X016847Y011456D01*
X016726Y011646D02*
X016465Y011646D01*
X016097Y011706D02*
X016097Y012406D01*
X016047Y012488D01*
X016047Y012696D01*
X016277Y012927D02*
X017513Y012927D01*
X017513Y012829D02*
X017613Y012829D01*
X017613Y012730D02*
X017513Y012730D01*
X017513Y012631D02*
X017613Y012631D01*
X017613Y012533D02*
X017513Y012533D01*
X017513Y012434D02*
X017613Y012434D01*
X017673Y012336D02*
X016367Y012336D01*
X016367Y012434D02*
X016921Y012434D01*
X016921Y012533D02*
X016367Y012533D01*
X016367Y012631D02*
X016921Y012631D01*
X016921Y012730D02*
X016367Y012730D01*
X016347Y012829D02*
X016921Y012829D01*
X016921Y013026D02*
X016709Y013026D01*
X016769Y013124D02*
X016921Y013124D01*
X016921Y013223D02*
X016769Y013223D01*
X016497Y013406D02*
X016474Y013406D01*
X016497Y013406D02*
X016497Y013606D01*
X016897Y013606D01*
X017563Y014341D02*
X017548Y014356D01*
X017563Y014656D02*
X017797Y014656D01*
X017563Y015292D02*
X017563Y015292D01*
X017563Y015391D02*
X017563Y015391D01*
X017563Y015489D02*
X017563Y015489D01*
X018205Y013124D02*
X018226Y013124D01*
X018205Y013026D02*
X018324Y013026D01*
X017632Y012237D02*
X016367Y012237D01*
X016338Y012139D02*
X017629Y012139D01*
X015597Y012406D02*
X015597Y011706D01*
X015497Y012356D02*
X015547Y012488D01*
X015597Y012406D01*
X018841Y009774D02*
X018855Y009774D01*
X019447Y010069D02*
X019547Y010069D01*
X019547Y010168D02*
X019447Y010168D01*
X019447Y010266D02*
X019547Y010266D01*
X020078Y010266D02*
X020212Y010266D01*
X020212Y010168D02*
X020139Y010168D01*
X020139Y010069D02*
X020212Y010069D01*
X020212Y009971D02*
X020139Y009971D01*
X020185Y009380D02*
X020212Y009380D01*
X019747Y009206D02*
X019747Y008906D01*
X019748Y008906D01*
X019747Y008906D02*
X019747Y008406D01*
X020197Y007956D01*
X020197Y003056D01*
X019647Y002506D01*
X019647Y001556D01*
X020055Y001200D02*
X020212Y001200D01*
X020212Y001102D02*
X019956Y001102D01*
X020125Y001299D02*
X020212Y001299D01*
X020212Y001398D02*
X020166Y001398D01*
X020187Y001496D02*
X020212Y001496D01*
X020212Y001595D02*
X020187Y001595D01*
X020175Y001693D02*
X020212Y001693D01*
X020212Y001792D02*
X020134Y001792D01*
X020077Y001890D02*
X020212Y001890D01*
X020212Y001989D02*
X019978Y001989D01*
X019926Y002087D02*
X020212Y002087D01*
X020212Y002186D02*
X020040Y002186D01*
X020119Y002284D02*
X020212Y002284D01*
X020212Y002383D02*
X020160Y002383D01*
X020187Y002482D02*
X020212Y002482D01*
X020212Y002580D02*
X020187Y002580D01*
X020181Y002679D02*
X020212Y002679D01*
X019169Y001299D02*
X019125Y001299D01*
X019055Y001200D02*
X019239Y001200D01*
X019338Y001102D02*
X018956Y001102D01*
X018338Y001102D02*
X017956Y001102D01*
X018055Y001200D02*
X018239Y001200D01*
X018169Y001299D02*
X018125Y001299D01*
X017338Y001102D02*
X016956Y001102D01*
X017055Y001200D02*
X017239Y001200D01*
X017169Y001299D02*
X017125Y001299D01*
X016338Y001102D02*
X015956Y001102D01*
X016055Y001200D02*
X016239Y001200D01*
X016169Y001299D02*
X016125Y001299D01*
X015338Y001102D02*
X014956Y001102D01*
X015055Y001200D02*
X015239Y001200D01*
X015169Y001299D02*
X015125Y001299D01*
X014338Y001102D02*
X013909Y001102D01*
X014027Y001200D02*
X014239Y001200D01*
X014169Y001299D02*
X014103Y001299D01*
X013697Y001200D02*
X013597Y001200D01*
X013597Y001102D02*
X013697Y001102D01*
X015140Y002777D02*
X015154Y002777D01*
X015203Y002876D02*
X015091Y002876D01*
X014993Y002974D02*
X015301Y002974D01*
X015483Y003073D02*
X014811Y003073D01*
X015811Y003073D02*
X016483Y003073D01*
X016301Y002974D02*
X015993Y002974D01*
X016091Y002876D02*
X016203Y002876D01*
X016154Y002777D02*
X016140Y002777D01*
X016811Y003073D02*
X017483Y003073D01*
X017301Y002974D02*
X016993Y002974D01*
X017091Y002876D02*
X017203Y002876D01*
X017154Y002777D02*
X017140Y002777D01*
X017811Y003073D02*
X018483Y003073D01*
X018301Y002974D02*
X017993Y002974D01*
X018091Y002876D02*
X018203Y002876D01*
X018154Y002777D02*
X018140Y002777D01*
X018647Y002856D02*
X018647Y002556D01*
X018647Y002856D02*
X019897Y004106D01*
X019677Y005044D02*
X018273Y005044D01*
X018341Y005142D02*
X018699Y005142D01*
X018651Y005241D02*
X018341Y005241D01*
X018341Y005339D02*
X018651Y005339D01*
X018651Y005438D02*
X018341Y005438D01*
X018341Y005536D02*
X018651Y005536D01*
X018651Y005635D02*
X018341Y005635D01*
X018341Y005733D02*
X018651Y005733D01*
X018680Y005832D02*
X018341Y005832D01*
X018294Y005931D02*
X019077Y005931D01*
X019077Y006029D02*
X017567Y006029D01*
X017567Y006128D02*
X018865Y006128D01*
X018773Y006226D02*
X018739Y006226D01*
X018751Y006325D02*
X018773Y006325D01*
X018773Y006423D02*
X018751Y006423D01*
X018751Y006522D02*
X018773Y006522D01*
X018773Y006620D02*
X018297Y006620D01*
X018297Y006522D02*
X018197Y006522D01*
X018197Y006565D02*
X018197Y006150D01*
X017831Y006150D01*
X017743Y006238D01*
X017743Y006565D01*
X018197Y006565D01*
X018197Y006620D02*
X017735Y006620D01*
X017743Y006522D02*
X017671Y006522D01*
X017743Y006423D02*
X017567Y006423D01*
X017567Y006325D02*
X017743Y006325D01*
X017754Y006226D02*
X017567Y006226D01*
X018197Y006226D02*
X018297Y006226D01*
X018297Y006325D02*
X018197Y006325D01*
X018197Y006423D02*
X018297Y006423D01*
X018751Y006719D02*
X018773Y006719D01*
X018773Y006817D02*
X018751Y006817D01*
X018751Y006916D02*
X018773Y006916D01*
X018766Y007015D02*
X018797Y007015D01*
X018865Y007113D02*
X019580Y007113D01*
X019482Y007212D02*
X018963Y007212D01*
X018938Y007186D02*
X018938Y007186D01*
X019297Y006605D02*
X019297Y005506D01*
X019097Y005506D01*
X019097Y005497D01*
X019543Y005536D02*
X019677Y005536D01*
X019677Y005438D02*
X019543Y005438D01*
X019543Y005339D02*
X019677Y005339D01*
X019677Y005241D02*
X019543Y005241D01*
X019495Y005142D02*
X019677Y005142D01*
X019677Y005635D02*
X019543Y005635D01*
X019543Y005733D02*
X019677Y005733D01*
X019677Y005832D02*
X019517Y005832D01*
X019517Y005931D02*
X019677Y005931D01*
X019677Y006029D02*
X019517Y006029D01*
X017867Y004847D02*
X017767Y004847D01*
X017767Y004748D02*
X017867Y004748D01*
X017867Y004649D02*
X017767Y004649D01*
X017767Y004551D02*
X017867Y004551D01*
X017867Y004452D02*
X017767Y004452D01*
X015947Y004157D02*
X015847Y004157D01*
X015847Y004058D02*
X015947Y004058D01*
X015947Y003960D02*
X015847Y003960D01*
X013896Y005241D02*
X013796Y005241D01*
X013796Y005339D02*
X013896Y005339D01*
X013896Y005438D02*
X013796Y005438D01*
X013796Y005706D02*
X013381Y005706D01*
X013381Y006073D01*
X013469Y006161D01*
X013796Y006161D01*
X013796Y005706D01*
X013796Y005733D02*
X013896Y005733D01*
X013896Y005832D02*
X013796Y005832D01*
X013796Y005931D02*
X013896Y005931D01*
X013896Y006029D02*
X013796Y006029D01*
X013796Y006128D02*
X013896Y006128D01*
X013436Y006128D02*
X013308Y006128D01*
X013363Y006029D02*
X013381Y006029D01*
X013381Y005931D02*
X013363Y005931D01*
X013363Y005832D02*
X013381Y005832D01*
X013381Y005733D02*
X013363Y005733D01*
X013363Y005536D02*
X013381Y005536D01*
X013381Y005438D02*
X013363Y005438D01*
X013363Y005339D02*
X013381Y005339D01*
X013381Y005241D02*
X013363Y005241D01*
X012948Y005241D02*
X012848Y005241D01*
X012848Y005339D02*
X012948Y005339D01*
X012948Y005438D02*
X012848Y005438D01*
X012848Y005733D02*
X012948Y005733D01*
X012948Y005832D02*
X012848Y005832D01*
X012848Y005931D02*
X012948Y005931D01*
X012948Y006029D02*
X012848Y006029D01*
X012848Y006128D02*
X012948Y006128D01*
X016897Y007306D02*
X017297Y007306D01*
X017347Y007256D01*
X020038Y013518D02*
X020212Y013518D01*
X020212Y013617D02*
X020065Y013617D01*
X020065Y013715D02*
X020212Y013715D01*
X020212Y013814D02*
X020030Y013814D01*
X019961Y013913D02*
X020212Y013913D01*
X020212Y014011D02*
X019802Y014011D01*
X019174Y019825D02*
X019120Y019825D01*
X019043Y019924D02*
X019251Y019924D01*
X019361Y020022D02*
X018933Y020022D01*
X018361Y020022D02*
X017933Y020022D01*
X018043Y019924D02*
X018251Y019924D01*
X018174Y019825D02*
X018120Y019825D01*
X010797Y017006D02*
X010797Y014106D01*
X010497Y013806D01*
X010497Y013006D01*
X010097Y013406D01*
X009797Y013406D01*
X009397Y013306D02*
X010097Y012606D01*
X010097Y012506D01*
X010047Y012488D01*
X010547Y012488D02*
X010597Y012506D01*
X010597Y012906D01*
X010497Y013006D01*
X008947Y014106D02*
X008797Y014106D01*
X008397Y013706D01*
X008397Y013206D01*
X008497Y013206D01*
X008397Y013206D02*
X008297Y013206D01*
X008097Y013406D01*
X007797Y013406D01*
X008947Y014106D02*
X009547Y014706D01*
X009547Y016931D01*
X009547Y016806D01*
X008997Y017356D01*
X009897Y017906D02*
X010797Y017006D01*
X005383Y019530D02*
X005267Y019530D01*
X004333Y013223D02*
X004253Y013223D01*
X004280Y012237D02*
X004306Y012237D01*
X004197Y011252D02*
X004097Y011252D01*
X004097Y011153D02*
X004197Y011153D01*
X004197Y011055D02*
X004097Y011055D01*
X004247Y010306D02*
X003647Y010306D01*
X003347Y010606D01*
X003297Y010345D02*
X003427Y010215D01*
X003556Y010086D01*
X003969Y010086D01*
X003985Y010048D01*
X004020Y010013D01*
X003584Y010013D01*
X003485Y009913D01*
X003485Y009830D01*
X003455Y009818D01*
X003385Y009748D01*
X003335Y009698D01*
X003297Y009606D01*
X003297Y009507D01*
X003297Y008810D01*
X002635Y008148D01*
X002631Y008139D01*
X002612Y008130D01*
X002491Y008010D01*
X002426Y007853D01*
X002426Y007683D01*
X002491Y007526D01*
X002597Y007420D01*
X002597Y006760D01*
X002505Y006668D01*
X002435Y006598D01*
X002397Y006506D01*
X002397Y005304D01*
X002028Y005673D01*
X002155Y005800D01*
X002237Y005999D01*
X002237Y006214D01*
X002155Y006412D01*
X002003Y006564D01*
X001901Y006606D01*
X002003Y006649D01*
X002155Y006800D01*
X002237Y006999D01*
X002237Y007214D01*
X002155Y007412D01*
X002003Y007564D01*
X001804Y007646D01*
X001590Y007646D01*
X001391Y007564D01*
X001347Y007520D01*
X001347Y007971D01*
X001352Y007965D01*
X001544Y007886D01*
X001597Y007886D01*
X001597Y008356D01*
X001697Y008356D01*
X001697Y007886D01*
X001750Y007886D01*
X001942Y007965D01*
X002088Y008112D01*
X002167Y008303D01*
X002167Y008356D01*
X001697Y008356D01*
X001697Y008456D01*
X002167Y008456D01*
X002167Y008510D01*
X002092Y008691D01*
X002188Y008594D01*
X002324Y008538D01*
X002470Y008538D01*
X002606Y008594D01*
X002709Y008698D01*
X002765Y008833D01*
X002765Y008980D01*
X002709Y009115D01*
X002659Y009165D01*
X003259Y009765D01*
X003297Y009857D01*
X003297Y009956D01*
X003297Y010345D01*
X003297Y010266D02*
X003376Y010266D01*
X003297Y010168D02*
X003474Y010168D01*
X003297Y010069D02*
X003976Y010069D01*
X004247Y010306D02*
X004297Y010256D01*
X003542Y009971D02*
X003297Y009971D01*
X003297Y009872D02*
X003485Y009872D01*
X003411Y009774D02*
X003263Y009774D01*
X003326Y009675D02*
X003169Y009675D01*
X003071Y009577D02*
X003297Y009577D01*
X003297Y009478D02*
X002972Y009478D01*
X002874Y009380D02*
X003297Y009380D01*
X003297Y009281D02*
X002775Y009281D01*
X002677Y009182D02*
X003297Y009182D01*
X003297Y009084D02*
X002722Y009084D01*
X002763Y008985D02*
X003297Y008985D01*
X003297Y008887D02*
X002765Y008887D01*
X002747Y008788D02*
X003276Y008788D01*
X003177Y008690D02*
X002701Y008690D01*
X002598Y008591D02*
X003078Y008591D01*
X002980Y008493D02*
X002167Y008493D01*
X002196Y008591D02*
X002133Y008591D01*
X002093Y008690D02*
X002092Y008690D01*
X002164Y008296D02*
X002783Y008296D01*
X002881Y008394D02*
X001697Y008394D01*
X001697Y008296D02*
X001597Y008296D01*
X001597Y008197D02*
X001697Y008197D01*
X001697Y008099D02*
X001597Y008099D01*
X001597Y008000D02*
X001697Y008000D01*
X001697Y007901D02*
X001597Y007901D01*
X001507Y007901D02*
X001347Y007901D01*
X001347Y007803D02*
X002426Y007803D01*
X002426Y007704D02*
X001347Y007704D01*
X001347Y007606D02*
X001492Y007606D01*
X001902Y007606D02*
X002458Y007606D01*
X002510Y007507D02*
X002060Y007507D01*
X002156Y007409D02*
X002597Y007409D01*
X002597Y007310D02*
X002197Y007310D01*
X002237Y007212D02*
X002597Y007212D01*
X002597Y007113D02*
X002237Y007113D01*
X002237Y007015D02*
X002597Y007015D01*
X002597Y006916D02*
X002203Y006916D01*
X002162Y006817D02*
X002597Y006817D01*
X002556Y006719D02*
X002073Y006719D01*
X001935Y006620D02*
X002458Y006620D01*
X002404Y006522D02*
X002045Y006522D01*
X002144Y006423D02*
X002397Y006423D01*
X002397Y006325D02*
X002191Y006325D01*
X002232Y006226D02*
X002397Y006226D01*
X002397Y006128D02*
X002237Y006128D01*
X002237Y006029D02*
X002397Y006029D01*
X002397Y005931D02*
X002209Y005931D01*
X002168Y005832D02*
X002397Y005832D01*
X002397Y005733D02*
X002088Y005733D01*
X002066Y005635D02*
X002397Y005635D01*
X002397Y005536D02*
X002164Y005536D01*
X002263Y005438D02*
X002397Y005438D01*
X002397Y005339D02*
X002361Y005339D01*
X002897Y006128D02*
X002959Y006128D01*
X002905Y006226D02*
X002897Y006226D01*
X001424Y005635D02*
X001067Y005635D01*
X001067Y005733D02*
X001306Y005733D01*
X001226Y005832D02*
X001067Y005832D01*
X001067Y005931D02*
X001185Y005931D01*
X001157Y006029D02*
X001067Y006029D01*
X001067Y006128D02*
X001157Y006128D01*
X001162Y006226D02*
X001067Y006226D01*
X001067Y006325D02*
X001203Y006325D01*
X001227Y006423D02*
X001067Y006423D01*
X001067Y006522D02*
X001128Y006522D01*
X001067Y005536D02*
X001330Y005536D01*
X001231Y005438D02*
X001067Y005438D01*
X001067Y005339D02*
X001133Y005339D01*
X001077Y005241D02*
X001067Y005241D01*
X001067Y005142D02*
X001077Y005142D01*
X001067Y005044D02*
X001077Y005044D01*
X001067Y004945D02*
X001077Y004945D01*
X001067Y004847D02*
X001077Y004847D01*
X001067Y004748D02*
X001077Y004748D01*
X001067Y004649D02*
X001156Y004649D01*
X001067Y004551D02*
X001255Y004551D01*
X001353Y004452D02*
X001067Y004452D01*
X001067Y004354D02*
X001325Y004354D01*
X001227Y004255D02*
X001067Y004255D01*
X001067Y004157D02*
X001128Y004157D01*
X001097Y004058D02*
X001067Y004058D01*
X001067Y003960D02*
X001097Y003960D01*
X001067Y003861D02*
X001697Y003861D01*
X001697Y003763D02*
X001797Y003763D01*
X001797Y003664D02*
X001697Y003664D01*
X001697Y003566D02*
X001797Y003566D01*
X001797Y003467D02*
X001697Y003467D01*
X001697Y003368D02*
X001797Y003368D01*
X001797Y003270D02*
X001697Y003270D01*
X001811Y003073D02*
X002535Y003073D01*
X002597Y003073D02*
X002697Y003073D01*
X002759Y003073D02*
X003397Y003073D01*
X003397Y003171D02*
X001067Y003171D01*
X001067Y003073D02*
X001483Y003073D01*
X001301Y002974D02*
X001067Y002974D01*
X001067Y002876D02*
X001203Y002876D01*
X001154Y002777D02*
X001067Y002777D01*
X001067Y002679D02*
X001113Y002679D01*
X001107Y002580D02*
X001067Y002580D01*
X001067Y002482D02*
X001107Y002482D01*
X001134Y002383D02*
X001067Y002383D01*
X001067Y002284D02*
X001175Y002284D01*
X001254Y002186D02*
X001067Y002186D01*
X001067Y002087D02*
X001368Y002087D01*
X001316Y001989D02*
X001067Y001989D01*
X001067Y001890D02*
X001217Y001890D01*
X001160Y001792D02*
X001067Y001792D01*
X001067Y001693D02*
X001119Y001693D01*
X001107Y001595D02*
X001067Y001595D01*
X001067Y001496D02*
X001107Y001496D01*
X001128Y001398D02*
X001067Y001398D01*
X001067Y001299D02*
X001169Y001299D01*
X001239Y001200D02*
X001067Y001200D01*
X001067Y001102D02*
X001338Y001102D01*
X001067Y001003D02*
X020212Y001003D01*
X004888Y003171D02*
X003897Y003171D01*
X003897Y003073D02*
X004864Y003073D01*
X004765Y002974D02*
X003993Y002974D01*
X004091Y002876D02*
X004666Y002876D01*
X004568Y002777D02*
X004140Y002777D01*
X004181Y002679D02*
X004469Y002679D01*
X004371Y002580D02*
X004187Y002580D01*
X004187Y002482D02*
X004272Y002482D01*
X004174Y002383D02*
X004160Y002383D01*
X003897Y003270D02*
X004888Y003270D01*
X004888Y003368D02*
X003897Y003368D01*
X003897Y003467D02*
X004888Y003467D01*
X003397Y003467D02*
X002867Y003467D01*
X002908Y003566D02*
X003397Y003566D01*
X003397Y003664D02*
X002915Y003664D01*
X002901Y003763D02*
X003397Y003763D01*
X003397Y003861D02*
X002897Y003861D01*
X002897Y003960D02*
X003219Y003960D01*
X003029Y004058D02*
X002897Y004058D01*
X002897Y004157D02*
X002933Y004157D01*
X002780Y003368D02*
X003397Y003368D01*
X003397Y003270D02*
X002080Y003270D01*
X002178Y003368D02*
X002314Y003368D01*
X002330Y002974D02*
X001993Y002974D01*
X002091Y002876D02*
X002231Y002876D01*
X002176Y002777D02*
X002140Y002777D01*
X002597Y002777D02*
X002697Y002777D01*
X002697Y002679D02*
X002597Y002679D01*
X002597Y002506D02*
X002697Y002506D01*
X002697Y002036D01*
X002697Y001606D01*
X002597Y001606D01*
X002597Y002036D01*
X002597Y002506D01*
X002597Y002482D02*
X002697Y002482D01*
X002697Y002383D02*
X002597Y002383D01*
X002597Y002284D02*
X002697Y002284D01*
X002697Y002186D02*
X002597Y002186D01*
X002597Y002087D02*
X002697Y002087D01*
X002697Y001989D02*
X002597Y001989D01*
X002597Y001890D02*
X002697Y001890D01*
X002697Y001792D02*
X002597Y001792D01*
X002597Y001693D02*
X002697Y001693D01*
X002697Y001496D02*
X002597Y001496D01*
X002597Y001398D02*
X002697Y001398D01*
X002697Y001299D02*
X002597Y001299D01*
X002597Y001200D02*
X002697Y001200D01*
X002697Y001102D02*
X002597Y001102D01*
X002385Y001102D02*
X001956Y001102D01*
X002055Y001200D02*
X002267Y001200D01*
X002191Y001299D02*
X002125Y001299D01*
X002909Y001102D02*
X003338Y001102D01*
X003239Y001200D02*
X003027Y001200D01*
X003103Y001299D02*
X003169Y001299D01*
X003118Y002777D02*
X003154Y002777D01*
X003203Y002876D02*
X003063Y002876D01*
X002964Y002974D02*
X003301Y002974D01*
X002697Y002974D02*
X002597Y002974D01*
X002597Y002876D02*
X002697Y002876D01*
X001414Y003270D02*
X001067Y003270D01*
X001067Y003368D02*
X001316Y003368D01*
X001217Y003467D02*
X001067Y003467D01*
X001067Y003566D02*
X001119Y003566D01*
X001097Y003664D02*
X001067Y003664D01*
X001067Y003763D02*
X001097Y003763D01*
X001787Y007901D02*
X002446Y007901D01*
X002487Y008000D02*
X001976Y008000D01*
X002075Y008099D02*
X002580Y008099D01*
X002684Y008197D02*
X002123Y008197D01*
X002647Y011406D02*
X002647Y013156D01*
D33*
X003847Y012706D02*
X003857Y012716D01*
X004747Y012706D02*
X004747Y012106D01*
X005397Y011456D01*
X005447Y011406D01*
X005447Y010156D01*
X005397Y010156D01*
X005447Y010156D02*
X005447Y010006D01*
X005047Y009606D01*
X004147Y009606D01*
X004147Y009607D01*
X004097Y009606D01*
X003597Y009606D01*
X003547Y009556D01*
X003547Y008706D01*
X002847Y008006D01*
X002847Y007806D01*
X002854Y007768D01*
X002847Y007706D01*
X002847Y006656D01*
X002647Y006456D01*
X002647Y003756D01*
X002547Y003656D01*
X002597Y002906D02*
X001747Y003756D01*
X001747Y003856D01*
X002597Y002906D02*
X002597Y002606D01*
X002647Y002556D01*
X002647Y001556D02*
X002647Y001456D01*
X003097Y001006D01*
X004843Y001006D01*
X005347Y001510D01*
X003767Y001622D02*
X005347Y003203D01*
X005297Y004406D02*
X005897Y004406D01*
X006197Y004706D01*
X006197Y006606D01*
X008597Y006606D01*
X008597Y006056D01*
X008647Y006006D01*
X008597Y005906D01*
X008647Y006006D02*
X009297Y006006D01*
X009297Y006007D01*
X008297Y005256D02*
X008297Y004606D01*
X008297Y004556D01*
X008297Y004556D01*
X008297Y004256D01*
X007588Y003547D01*
X006506Y003547D01*
X007547Y005406D02*
X008147Y005406D01*
X008297Y005256D01*
X009039Y004905D02*
X007888Y006056D01*
X009039Y004905D02*
X009297Y004905D01*
X009547Y008724D02*
X008928Y008724D01*
X008846Y008806D01*
X008697Y008955D01*
X007097Y011456D02*
X005397Y011456D01*
X005657Y012716D02*
X005697Y013106D01*
X006547Y013956D01*
X006547Y014606D01*
X003047Y014606D01*
X003047Y009906D01*
X002397Y009256D01*
X002397Y008906D01*
X001097Y009906D02*
X001097Y006906D01*
X001697Y006306D01*
X001697Y006106D01*
X003247Y007156D02*
X004547Y007156D01*
X005297Y006406D01*
X003597Y004406D02*
X003647Y004356D01*
X003647Y002556D01*
X003647Y001622D02*
X003767Y001622D01*
X003647Y001622D02*
X003647Y001556D01*
X001097Y009906D02*
X001597Y010406D01*
X001647Y010406D01*
X003847Y010906D02*
X004147Y010906D01*
X004147Y010906D01*
X004747Y012706D02*
X004757Y012716D01*
X004747Y012806D01*
X004747Y013406D01*
X004997Y013406D01*
X005447Y013856D01*
X005647Y013056D02*
X005647Y012756D01*
X005657Y012716D01*
X004757Y012716D02*
X004747Y012756D01*
X006547Y014606D02*
X006547Y015256D01*
X006550Y015256D01*
X007097Y013856D02*
X007097Y012306D01*
X008097Y012306D01*
X007097Y012306D02*
X007097Y011456D01*
X007097Y013856D02*
X008144Y014904D01*
X008144Y015256D01*
X013046Y016756D02*
X013047Y016856D01*
X013047Y017556D01*
X013047Y017506D01*
X013147Y016856D02*
X013046Y016756D01*
X014097Y017506D02*
X014647Y018056D01*
X014647Y018556D01*
X016547Y015656D02*
X016397Y015456D01*
X015747Y015456D01*
X017447Y014006D02*
X017563Y014026D01*
X017597Y014006D01*
X018047Y014006D01*
X018047Y013656D01*
X018697Y013006D01*
X018697Y011106D01*
X018697Y011206D01*
X019497Y011206D01*
X019497Y011206D01*
X017497Y009456D02*
X017447Y009406D01*
X016647Y009406D01*
X017497Y009456D02*
X018047Y008906D01*
X018646Y008906D01*
X013947Y013406D02*
X013547Y013806D01*
X013547Y014006D01*
X013697Y014006D01*
X013697Y014005D01*
X013547Y013806D02*
X013547Y012488D01*
D34*
X013697Y011906D03*
X014347Y011756D03*
X014997Y011706D03*
X015597Y011706D03*
X016097Y011706D03*
X016647Y012556D03*
X016897Y013606D03*
X017997Y012156D03*
X018697Y011106D03*
X019697Y012006D03*
X018897Y013456D03*
X019697Y013656D03*
X018497Y014756D03*
X018397Y016856D03*
X016547Y015656D03*
X015747Y015456D03*
X014097Y017506D03*
X013047Y017556D03*
X012097Y016406D03*
X011597Y016006D03*
X010447Y016006D03*
X009547Y016931D03*
X009797Y013406D03*
X008797Y013406D03*
X007797Y013406D03*
X005797Y015306D03*
X005447Y013856D03*
X004497Y013856D03*
X003597Y014106D03*
X002647Y013156D03*
X002647Y011406D03*
X004297Y010256D03*
X005397Y010156D03*
X005847Y011056D03*
X006997Y010306D03*
X006597Y009156D03*
X005997Y008506D03*
X003247Y007156D03*
X002397Y008906D03*
X007547Y005406D03*
X008597Y005906D03*
X006506Y003547D03*
X002547Y003656D03*
X010197Y010306D03*
X010247Y009456D03*
X011097Y009206D03*
X011297Y007006D03*
X011297Y004056D03*
X016647Y009406D03*
X015047Y013056D03*
X013947Y013406D03*
X012997Y013806D03*
X012097Y013406D03*
X011597Y013406D03*
X010897Y013406D03*
X011597Y011706D03*
X012247Y011706D03*
X009847Y011406D03*
X003797Y017706D03*
X004347Y019006D03*
X003097Y019806D03*
X002247Y019056D03*
X002247Y016056D03*
X005797Y018956D03*
D35*
X004606Y017606D02*
X003897Y017606D01*
X003797Y017706D01*
X002897Y017955D02*
X002896Y017006D01*
X005097Y017006D01*
X008447Y017006D01*
X008757Y016706D01*
X008757Y014506D02*
X008047Y013806D01*
X007647Y013806D01*
X007397Y013556D01*
X007397Y013156D01*
X007747Y012806D01*
X008397Y012806D01*
X008847Y012356D01*
X008847Y011256D01*
X009397Y010706D01*
X009397Y008906D01*
X009497Y008806D01*
X009547Y008724D01*
X008697Y010057D02*
X008697Y010106D01*
X008197Y010106D01*
X008197Y011106D01*
X007947Y011005D01*
X007697Y010106D02*
X007697Y010057D01*
X007697Y010106D02*
X008197Y010106D01*
X007947Y012107D02*
X008097Y012306D01*
X012047Y008724D02*
X012047Y008356D01*
X011297Y007606D01*
X011297Y007006D01*
X011697Y006856D02*
X011697Y007406D01*
X012547Y008256D01*
X012547Y008724D01*
X011697Y006856D02*
X011197Y006356D01*
X011197Y004156D01*
X011297Y004056D01*
X011347Y004056D01*
X012297Y003106D01*
X012297Y002856D01*
X012647Y002506D01*
X012647Y001556D01*
X015547Y012488D02*
X015547Y013906D01*
X015524Y014156D02*
X015798Y014156D01*
X016298Y014656D01*
X017563Y014656D01*
X017548Y014356D02*
X016497Y014356D01*
X016120Y013979D01*
X016120Y013406D01*
X016047Y013333D01*
X016047Y012696D01*
X003797Y019806D02*
X003097Y019806D01*
X002697Y019406D02*
X001997Y020106D01*
X001397Y020106D01*
X001097Y019806D01*
X001097Y014256D01*
X001647Y013706D01*
X001647Y013406D01*
X002697Y019006D02*
X002697Y019406D01*
X002697Y019006D02*
X002997Y019006D01*
X002897Y019057D01*
M02*
