G75*
G70*
%OFA0B0*%
%FSLAX24Y24*%
%IPPOS*%
%LPD*%
%AMOC8*
5,1,8,0,0,1.08239X$1,22.5*
%
%ADD10C,0.0000*%
%ADD11C,0.0780*%
%ADD12C,0.0560*%
%ADD13C,0.0555*%
%ADD14C,0.0394*%
%ADD15R,0.0591X0.0749*%
%ADD16R,0.0788X0.0591*%
%ADD17R,0.0631X0.0355*%
%ADD18C,0.0600*%
%ADD19R,0.0788X0.1379*%
%ADD20OC8,0.1040*%
D10*
X001129Y000806D02*
X001129Y020301D01*
X020614Y020291D01*
X020614Y000806D01*
X001129Y000806D01*
X018602Y013790D02*
X018604Y013816D01*
X018610Y013842D01*
X018620Y013867D01*
X018633Y013890D01*
X018649Y013910D01*
X018669Y013928D01*
X018691Y013943D01*
X018714Y013955D01*
X018740Y013963D01*
X018766Y013967D01*
X018792Y013967D01*
X018818Y013963D01*
X018844Y013955D01*
X018868Y013943D01*
X018889Y013928D01*
X018909Y013910D01*
X018925Y013890D01*
X018938Y013867D01*
X018948Y013842D01*
X018954Y013816D01*
X018956Y013790D01*
X018954Y013764D01*
X018948Y013738D01*
X018938Y013713D01*
X018925Y013690D01*
X018909Y013670D01*
X018889Y013652D01*
X018867Y013637D01*
X018844Y013625D01*
X018818Y013617D01*
X018792Y013613D01*
X018766Y013613D01*
X018740Y013617D01*
X018714Y013625D01*
X018690Y013637D01*
X018669Y013652D01*
X018649Y013670D01*
X018633Y013690D01*
X018620Y013713D01*
X018610Y013738D01*
X018604Y013764D01*
X018602Y013790D01*
X018602Y015522D02*
X018604Y015548D01*
X018610Y015574D01*
X018620Y015599D01*
X018633Y015622D01*
X018649Y015642D01*
X018669Y015660D01*
X018691Y015675D01*
X018714Y015687D01*
X018740Y015695D01*
X018766Y015699D01*
X018792Y015699D01*
X018818Y015695D01*
X018844Y015687D01*
X018868Y015675D01*
X018889Y015660D01*
X018909Y015642D01*
X018925Y015622D01*
X018938Y015599D01*
X018948Y015574D01*
X018954Y015548D01*
X018956Y015522D01*
X018954Y015496D01*
X018948Y015470D01*
X018938Y015445D01*
X018925Y015422D01*
X018909Y015402D01*
X018889Y015384D01*
X018867Y015369D01*
X018844Y015357D01*
X018818Y015349D01*
X018792Y015345D01*
X018766Y015345D01*
X018740Y015349D01*
X018714Y015357D01*
X018690Y015369D01*
X018669Y015384D01*
X018649Y015402D01*
X018633Y015422D01*
X018620Y015445D01*
X018610Y015470D01*
X018604Y015496D01*
X018602Y015522D01*
D11*
X018879Y018556D03*
X019879Y018556D03*
X019879Y019556D03*
X018879Y019556D03*
X017879Y019556D03*
X017879Y018556D03*
X016879Y018556D03*
X015879Y018556D03*
X014879Y018556D03*
X013879Y018556D03*
X012879Y018556D03*
X011879Y018556D03*
X010879Y018556D03*
X009879Y018556D03*
X008879Y018556D03*
X007879Y018556D03*
X006879Y018556D03*
X006879Y019556D03*
X007879Y019556D03*
X008879Y019556D03*
X009879Y019556D03*
X010879Y019556D03*
X011879Y019556D03*
X012879Y019556D03*
X013879Y019556D03*
X014879Y019556D03*
X015879Y019556D03*
X016879Y019556D03*
X019879Y009556D03*
X019879Y008556D03*
X019879Y007556D03*
X019879Y006556D03*
X019879Y005556D03*
X019879Y004556D03*
X019879Y002556D03*
X018879Y002556D03*
X018879Y001556D03*
X019879Y001556D03*
X017879Y001556D03*
X016879Y001556D03*
X015879Y001556D03*
X014879Y001556D03*
X013879Y001556D03*
X012879Y001556D03*
X011879Y001556D03*
X010879Y001556D03*
X009879Y001556D03*
X008879Y001556D03*
X007879Y001556D03*
X006879Y001556D03*
X006879Y002556D03*
X007879Y002556D03*
X008879Y002556D03*
X009879Y002556D03*
X010879Y002556D03*
X011879Y002556D03*
X012879Y002556D03*
X013879Y002556D03*
X014879Y002556D03*
X015879Y002556D03*
X016879Y002556D03*
X017879Y002556D03*
X003879Y002556D03*
X003879Y001556D03*
X002879Y001556D03*
X001879Y001556D03*
X001879Y002556D03*
X002879Y002556D03*
X001929Y006106D03*
X001929Y007106D03*
X001879Y009606D03*
X001879Y010606D03*
X001879Y011606D03*
X001879Y012606D03*
X001879Y013606D03*
X001879Y014606D03*
D12*
X011979Y006106D03*
X013879Y006106D03*
X016579Y007506D03*
X017579Y007506D03*
D13*
X009765Y007768D03*
X008977Y007768D03*
X008190Y007768D03*
X007402Y007768D03*
X006615Y007768D03*
X005828Y007768D03*
X005040Y007768D03*
X004253Y007768D03*
X003465Y007768D03*
X002678Y007768D03*
X002678Y016430D03*
X003465Y016430D03*
X004253Y016430D03*
X005040Y016430D03*
X005828Y016430D03*
X006615Y016430D03*
X007402Y016430D03*
X008190Y016430D03*
X008977Y016430D03*
X009765Y016430D03*
D14*
X018779Y015522D03*
X018779Y013790D03*
D15*
X013036Y014005D03*
X013036Y016249D03*
D16*
X018213Y016879D03*
X018607Y011702D03*
D17*
X017091Y013537D03*
X016934Y013970D03*
X017091Y014403D03*
X017170Y014836D03*
X017091Y015269D03*
X017170Y015702D03*
X017091Y016135D03*
X017091Y016568D03*
D18*
X005159Y006456D02*
X004599Y006456D01*
X003709Y006456D02*
X003149Y006456D01*
X003149Y005456D02*
X003709Y005456D01*
X004599Y005456D02*
X005159Y005456D01*
X005159Y004456D02*
X004599Y004456D01*
X003709Y004456D02*
X003149Y004456D01*
D19*
X006211Y004556D03*
X007747Y004556D03*
D20*
X001979Y005006D03*
X001979Y003856D03*
M02*
