G75*
G70*
%OFA0B0*%
%FSLAX24Y24*%
%IPPOS*%
%LPD*%
%AMOC8*
5,1,8,0,0,1.08239X$1,22.5*
%
%ADD10C,0.0000*%
%ADD11R,0.0709X0.0630*%
%ADD12C,0.0740*%
%ADD13C,0.0520*%
%ADD14R,0.0630X0.0709*%
%ADD15R,0.0472X0.0551*%
%ADD16R,0.0300X0.0500*%
%ADD17R,0.0709X0.0551*%
%ADD18R,0.0600X0.0300*%
%ADD19C,0.0515*%
%ADD20R,0.0984X0.0197*%
%ADD21R,0.0984X0.0787*%
%ADD22R,0.0472X0.0984*%
%ADD23C,0.0560*%
%ADD24OC8,0.1000*%
%ADD25R,0.0579X0.0500*%
%ADD26R,0.0500X0.0250*%
%ADD27R,0.0250X0.0500*%
%ADD28R,0.0590X0.0790*%
%ADD29R,0.1500X0.0790*%
%ADD30C,0.0100*%
%ADD31C,0.0317*%
%ADD32C,0.0356*%
%ADD33C,0.0120*%
%ADD34C,0.0160*%
D10*
X001129Y000806D02*
X001129Y020301D01*
X020614Y020291D01*
X020614Y000806D01*
X001129Y000806D01*
X018602Y013790D02*
X018604Y013816D01*
X018610Y013842D01*
X018620Y013867D01*
X018633Y013890D01*
X018649Y013910D01*
X018669Y013928D01*
X018691Y013943D01*
X018714Y013955D01*
X018740Y013963D01*
X018766Y013967D01*
X018792Y013967D01*
X018818Y013963D01*
X018844Y013955D01*
X018868Y013943D01*
X018889Y013928D01*
X018909Y013910D01*
X018925Y013890D01*
X018938Y013867D01*
X018948Y013842D01*
X018954Y013816D01*
X018956Y013790D01*
X018954Y013764D01*
X018948Y013738D01*
X018938Y013713D01*
X018925Y013690D01*
X018909Y013670D01*
X018889Y013652D01*
X018867Y013637D01*
X018844Y013625D01*
X018818Y013617D01*
X018792Y013613D01*
X018766Y013613D01*
X018740Y013617D01*
X018714Y013625D01*
X018690Y013637D01*
X018669Y013652D01*
X018649Y013670D01*
X018633Y013690D01*
X018620Y013713D01*
X018610Y013738D01*
X018604Y013764D01*
X018602Y013790D01*
X018602Y015522D02*
X018604Y015548D01*
X018610Y015574D01*
X018620Y015599D01*
X018633Y015622D01*
X018649Y015642D01*
X018669Y015660D01*
X018691Y015675D01*
X018714Y015687D01*
X018740Y015695D01*
X018766Y015699D01*
X018792Y015699D01*
X018818Y015695D01*
X018844Y015687D01*
X018868Y015675D01*
X018889Y015660D01*
X018909Y015642D01*
X018925Y015622D01*
X018938Y015599D01*
X018948Y015574D01*
X018954Y015548D01*
X018956Y015522D01*
X018954Y015496D01*
X018948Y015470D01*
X018938Y015445D01*
X018925Y015422D01*
X018909Y015402D01*
X018889Y015384D01*
X018867Y015369D01*
X018844Y015357D01*
X018818Y015349D01*
X018792Y015345D01*
X018766Y015345D01*
X018740Y015349D01*
X018714Y015357D01*
X018690Y015369D01*
X018669Y015384D01*
X018649Y015402D01*
X018633Y015422D01*
X018620Y015445D01*
X018610Y015470D01*
X018604Y015496D01*
X018602Y015522D01*
D11*
X013929Y015107D03*
X013929Y014005D03*
X008829Y011707D03*
X007929Y011707D03*
X007929Y010605D03*
X008829Y010605D03*
X006579Y010355D03*
X006579Y011457D03*
X002479Y017655D03*
X002479Y018757D03*
X015829Y006897D03*
X015829Y005795D03*
X018349Y005795D03*
X018349Y006897D03*
D12*
X019879Y006556D03*
X019879Y007556D03*
X019879Y008556D03*
X019879Y009556D03*
X019879Y005556D03*
X019879Y004556D03*
X019879Y002556D03*
X018879Y002556D03*
X018879Y001556D03*
X019879Y001556D03*
X017879Y001556D03*
X016879Y001556D03*
X015879Y001556D03*
X014879Y001556D03*
X013879Y001556D03*
X012879Y001556D03*
X011879Y001556D03*
X010879Y001556D03*
X009879Y001556D03*
X008879Y001556D03*
X007879Y001556D03*
X006879Y001556D03*
X006879Y002556D03*
X007879Y002556D03*
X008879Y002556D03*
X009879Y002556D03*
X010879Y002556D03*
X011879Y002556D03*
X012879Y002556D03*
X013879Y002556D03*
X014879Y002556D03*
X015879Y002556D03*
X016879Y002556D03*
X017879Y002556D03*
X003879Y002556D03*
X003879Y001556D03*
X002879Y001556D03*
X001879Y001556D03*
X001879Y002556D03*
X002879Y002556D03*
X001929Y006106D03*
X001929Y007106D03*
X001879Y009606D03*
X001879Y010606D03*
X001879Y011606D03*
X001879Y012606D03*
X001879Y013606D03*
X001879Y014606D03*
X006879Y018556D03*
X007879Y018556D03*
X008879Y018556D03*
X009879Y018556D03*
X010879Y018556D03*
X011879Y018556D03*
X012879Y018556D03*
X013879Y018556D03*
X014879Y018556D03*
X015879Y018556D03*
X016879Y018556D03*
X017879Y018556D03*
X018879Y018556D03*
X019879Y018556D03*
X019879Y019556D03*
X018879Y019556D03*
X017879Y019556D03*
X016879Y019556D03*
X015879Y019556D03*
X014879Y019556D03*
X013879Y019556D03*
X012879Y019556D03*
X011879Y019556D03*
X010879Y019556D03*
X009879Y019556D03*
X008879Y019556D03*
X007879Y019556D03*
X006879Y019556D03*
D13*
X016579Y007506D03*
X017579Y007506D03*
X013879Y006106D03*
X011979Y006106D03*
D14*
X011528Y007656D03*
X012630Y007656D03*
X013528Y007656D03*
X014630Y007656D03*
X017278Y009806D03*
X018380Y009806D03*
X018470Y008506D03*
X017368Y008506D03*
X009530Y006806D03*
X009530Y005906D03*
X008428Y005906D03*
X008428Y006806D03*
D15*
X007419Y006256D03*
X006238Y006256D03*
X018838Y010806D03*
X020019Y010806D03*
D16*
X016279Y012488D03*
X015779Y012488D03*
X015279Y012488D03*
X014779Y012488D03*
X014279Y012488D03*
X013779Y012488D03*
X013279Y012488D03*
X012779Y012488D03*
X012279Y012488D03*
X011779Y012488D03*
X011279Y012488D03*
X010779Y012488D03*
X010279Y012488D03*
X009779Y012488D03*
X009779Y008724D03*
X010279Y008724D03*
X010779Y008724D03*
X011279Y008724D03*
X011779Y008724D03*
X012279Y008724D03*
X012779Y008724D03*
X013279Y008724D03*
X013779Y008724D03*
X014279Y008724D03*
X014779Y008724D03*
X015279Y008724D03*
X015779Y008724D03*
X016279Y008724D03*
D17*
X007879Y013187D03*
X007879Y014526D03*
D18*
X005779Y017956D03*
X005779Y019456D03*
X003779Y019456D03*
X003779Y017956D03*
D19*
X003465Y016430D03*
X004253Y016430D03*
X005040Y016430D03*
X005828Y016430D03*
X006615Y016430D03*
X007402Y016430D03*
X008190Y016430D03*
X008977Y016430D03*
X009765Y016430D03*
X002678Y016430D03*
X002678Y007768D03*
X003465Y007768D03*
X004253Y007768D03*
X005040Y007768D03*
X005828Y007768D03*
X006615Y007768D03*
X007402Y007768D03*
X008190Y007768D03*
X008977Y007768D03*
X009765Y007768D03*
D20*
X017795Y014026D03*
X017795Y014341D03*
X017795Y014656D03*
X017795Y014971D03*
X017795Y015286D03*
D21*
X017795Y016428D03*
X019960Y016428D03*
X019960Y012885D03*
X017795Y012885D03*
D22*
X007578Y004556D03*
X006279Y004556D03*
X005478Y010506D03*
X004179Y010506D03*
D23*
X004599Y006456D02*
X005159Y006456D01*
X005159Y005456D02*
X004599Y005456D01*
X003709Y005456D02*
X003149Y005456D01*
X003149Y004456D02*
X003709Y004456D01*
X004599Y004456D02*
X005159Y004456D01*
X003709Y006456D02*
X003149Y006456D01*
D24*
X001979Y005006D03*
X001979Y003856D03*
D25*
X005379Y003003D03*
X005379Y001310D03*
D26*
X017729Y010756D03*
X017729Y011106D03*
X017729Y011456D03*
D27*
G36*
X016466Y013116D02*
X016289Y013293D01*
X016642Y013646D01*
X016819Y013469D01*
X016466Y013116D01*
G37*
G36*
X016216Y013367D02*
X016039Y013544D01*
X016392Y013897D01*
X016569Y013720D01*
X016216Y013367D01*
G37*
G36*
X015992Y014296D02*
X016169Y014119D01*
X015816Y013766D01*
X015639Y013943D01*
X015992Y014296D01*
G37*
G36*
X015742Y014547D02*
X015919Y014370D01*
X015566Y014017D01*
X015389Y014194D01*
X015742Y014547D01*
G37*
D28*
X005889Y012716D03*
X004989Y012716D03*
X004089Y012716D03*
D29*
X004979Y015196D03*
D30*
X003979Y014256D02*
X006979Y014256D01*
X007229Y014506D01*
X007879Y014506D01*
X008879Y014506D01*
X009329Y014056D01*
X009329Y012206D01*
X009429Y012106D01*
X009429Y011656D01*
X009779Y011856D02*
X010179Y011456D01*
X010529Y011756D02*
X010279Y012006D01*
X010279Y012488D01*
X010279Y014606D01*
X008579Y016306D01*
X008579Y016606D01*
X007879Y017306D01*
X007879Y018556D01*
X006879Y018556D02*
X006879Y017506D01*
X007779Y016606D01*
X007779Y016306D01*
X009779Y014306D01*
X009779Y012488D01*
X009779Y011856D01*
X010529Y011756D02*
X010729Y011756D01*
X011279Y011506D02*
X011279Y012488D01*
X011279Y016456D01*
X009879Y017856D01*
X009879Y018556D01*
X010879Y018556D02*
X010879Y017556D01*
X011729Y016706D01*
X011729Y014606D01*
X011729Y012556D01*
X011779Y012488D01*
X012079Y012806D02*
X012329Y012556D01*
X012079Y012806D02*
X012079Y015656D01*
X012079Y018356D01*
X011879Y018556D01*
X012529Y017806D02*
X012879Y018156D01*
X012879Y018556D01*
X012529Y017806D02*
X012529Y013756D01*
X012729Y013556D01*
X012729Y013006D01*
X012729Y012556D01*
X013279Y012488D02*
X013329Y012556D01*
X013329Y013406D01*
X013304Y013431D01*
X013279Y013406D01*
X013304Y013431D02*
X012829Y013906D01*
X012829Y016556D01*
X013879Y017606D01*
X013879Y018556D01*
X014935Y017559D02*
X015620Y017559D01*
X015719Y017657D02*
X015033Y017657D01*
X015091Y017715D02*
X013479Y016103D01*
X013479Y015539D01*
X013512Y015572D01*
X013879Y015572D01*
X013879Y015158D01*
X013979Y015158D01*
X013979Y015572D01*
X014345Y015572D01*
X014433Y015485D01*
X014433Y015157D01*
X013979Y015157D01*
X013979Y015058D01*
X014433Y015058D01*
X014433Y014730D01*
X014345Y014643D01*
X013979Y014643D01*
X013979Y015057D01*
X013879Y015057D01*
X013879Y014643D01*
X013512Y014643D01*
X013479Y014676D01*
X013479Y014465D01*
X013504Y014490D01*
X014354Y014490D01*
X014453Y014390D01*
X014453Y013620D01*
X014354Y013520D01*
X014029Y013520D01*
X014029Y012879D01*
X014043Y012864D01*
X014067Y012888D01*
X014254Y012888D01*
X014254Y012513D01*
X014304Y012513D01*
X014304Y012888D01*
X014491Y012888D01*
X014515Y012864D01*
X014558Y012908D01*
X014559Y012908D01*
X014559Y016315D01*
X014559Y016497D01*
X016009Y017947D01*
X016138Y018076D01*
X016627Y018076D01*
X016573Y018099D01*
X016421Y018250D01*
X016368Y018379D01*
X016320Y018262D01*
X016173Y018115D01*
X015982Y018036D01*
X015929Y018036D01*
X015929Y018506D01*
X015829Y018506D01*
X015829Y018036D01*
X015775Y018036D01*
X015584Y018115D01*
X015438Y018262D01*
X015390Y018379D01*
X015337Y018250D01*
X015185Y018099D01*
X015129Y018075D01*
X015129Y017906D01*
X015129Y017807D01*
X015091Y017715D01*
X015108Y017756D02*
X015817Y017756D01*
X015916Y017854D02*
X015129Y017854D01*
X015129Y017953D02*
X016014Y017953D01*
X016019Y018051D02*
X016113Y018051D01*
X016208Y018150D02*
X016521Y018150D01*
X016423Y018248D02*
X016306Y018248D01*
X016355Y018347D02*
X016381Y018347D01*
X015929Y018347D02*
X015829Y018347D01*
X015829Y018248D02*
X015929Y018248D01*
X015929Y018150D02*
X015829Y018150D01*
X015829Y018051D02*
X015929Y018051D01*
X015739Y018051D02*
X015129Y018051D01*
X015236Y018150D02*
X015550Y018150D01*
X015451Y018248D02*
X015335Y018248D01*
X015377Y018347D02*
X015403Y018347D01*
X015829Y018446D02*
X015929Y018446D01*
X015929Y018606D02*
X015829Y018606D01*
X015829Y019076D01*
X015829Y019506D01*
X015929Y019506D01*
X015929Y019076D01*
X015929Y018606D01*
X015929Y018643D02*
X015829Y018643D01*
X015829Y018741D02*
X015929Y018741D01*
X015929Y018840D02*
X015829Y018840D01*
X015829Y018938D02*
X015929Y018938D01*
X015929Y019037D02*
X015829Y019037D01*
X015829Y019135D02*
X015929Y019135D01*
X015929Y019234D02*
X015829Y019234D01*
X015829Y019332D02*
X015929Y019332D01*
X015929Y019431D02*
X015829Y019431D01*
X015829Y019606D02*
X015829Y020076D01*
X015775Y020076D01*
X015584Y019997D01*
X015438Y019851D01*
X015390Y019734D01*
X015337Y019862D01*
X015185Y020014D01*
X014986Y020096D01*
X014771Y020096D01*
X014573Y020014D01*
X014421Y019862D01*
X014379Y019760D01*
X014337Y019862D01*
X014185Y020014D01*
X013986Y020096D01*
X013771Y020096D01*
X013573Y020014D01*
X013421Y019862D01*
X013379Y019760D01*
X013337Y019862D01*
X013185Y020014D01*
X012986Y020096D01*
X012771Y020096D01*
X012573Y020014D01*
X012421Y019862D01*
X012379Y019760D01*
X012337Y019862D01*
X012185Y020014D01*
X011986Y020096D01*
X011771Y020096D01*
X011573Y020014D01*
X011421Y019862D01*
X011379Y019760D01*
X011337Y019862D01*
X011185Y020014D01*
X010986Y020096D01*
X010771Y020096D01*
X010573Y020014D01*
X010421Y019862D01*
X010379Y019760D01*
X010337Y019862D01*
X010185Y020014D01*
X009986Y020096D01*
X009771Y020096D01*
X009573Y020014D01*
X009421Y019862D01*
X009379Y019760D01*
X009337Y019862D01*
X009185Y020014D01*
X008986Y020096D01*
X008771Y020096D01*
X008573Y020014D01*
X008421Y019862D01*
X008379Y019760D01*
X008337Y019862D01*
X008185Y020014D01*
X007986Y020096D01*
X007771Y020096D01*
X007573Y020014D01*
X007421Y019862D01*
X007379Y019760D01*
X007337Y019862D01*
X007185Y020014D01*
X006986Y020096D01*
X006771Y020096D01*
X006573Y020014D01*
X006421Y019862D01*
X006339Y019664D01*
X006339Y019449D01*
X006421Y019250D01*
X006573Y019099D01*
X006675Y019056D01*
X006573Y019014D01*
X006421Y018862D01*
X006339Y018664D01*
X006339Y018449D01*
X006421Y018250D01*
X006573Y018099D01*
X006659Y018063D01*
X006659Y017597D01*
X006659Y017415D01*
X007246Y016828D01*
X007160Y016792D01*
X007040Y016672D01*
X006977Y016672D01*
X006857Y016792D01*
X006700Y016857D01*
X006530Y016857D01*
X006373Y016792D01*
X006253Y016672D01*
X006190Y016672D01*
X006070Y016792D01*
X005913Y016857D01*
X005743Y016857D01*
X005585Y016792D01*
X005465Y016672D01*
X005402Y016672D01*
X005403Y016672D02*
X005282Y016792D01*
X005125Y016857D01*
X004955Y016857D01*
X004798Y016792D01*
X004678Y016672D01*
X004615Y016672D01*
X004495Y016792D01*
X004338Y016857D01*
X004168Y016857D01*
X004011Y016792D01*
X003890Y016672D01*
X003859Y016596D01*
X003828Y016672D01*
X003891Y016672D01*
X003828Y016672D02*
X003708Y016792D01*
X003550Y016857D01*
X003380Y016857D01*
X003299Y016823D01*
X003299Y018736D01*
X003370Y018736D01*
X003770Y019136D01*
X004149Y019136D01*
X004249Y019236D01*
X004249Y019236D01*
X005309Y019236D01*
X005408Y019136D01*
X006149Y019136D01*
X006249Y019236D01*
X006249Y019677D01*
X006149Y019776D01*
X005408Y019776D01*
X005309Y019677D01*
X005309Y019676D01*
X004249Y019676D01*
X004249Y019677D01*
X004149Y019776D01*
X003408Y019776D01*
X003309Y019677D01*
X003309Y019297D01*
X003188Y019176D01*
X003170Y019176D01*
X002988Y019176D01*
X002970Y019176D01*
X002904Y019242D01*
X002054Y019242D01*
X001954Y019143D01*
X001954Y018372D01*
X002054Y018273D01*
X002859Y018273D01*
X002859Y018140D01*
X002054Y018140D01*
X001954Y018040D01*
X001954Y017876D01*
X001838Y017876D01*
X001709Y017747D01*
X001659Y017697D01*
X001659Y017515D01*
X001659Y015100D01*
X001573Y015064D01*
X001421Y014912D01*
X001339Y014714D01*
X001339Y014499D01*
X001421Y014300D01*
X001573Y014149D01*
X001675Y014106D01*
X001573Y014064D01*
X001421Y013912D01*
X001339Y013714D01*
X001339Y013499D01*
X001421Y013300D01*
X001573Y013149D01*
X001675Y013106D01*
X001573Y013064D01*
X001421Y012912D01*
X001339Y012714D01*
X001339Y012499D01*
X001421Y012300D01*
X001573Y012149D01*
X001675Y012106D01*
X001573Y012064D01*
X001421Y011912D01*
X001339Y011714D01*
X001339Y011499D01*
X001421Y011300D01*
X001573Y011149D01*
X001675Y011106D01*
X001573Y011064D01*
X001421Y010912D01*
X001339Y010714D01*
X001339Y010499D01*
X001421Y010300D01*
X001573Y010149D01*
X001701Y010095D01*
X001584Y010047D01*
X001438Y009901D01*
X001359Y009710D01*
X001359Y009656D01*
X001829Y009656D01*
X001829Y009556D01*
X001929Y009556D01*
X001929Y009086D01*
X001982Y009086D01*
X002173Y009165D01*
X002320Y009312D01*
X002399Y009503D01*
X002399Y009556D01*
X001929Y009556D01*
X001929Y009656D01*
X002399Y009656D01*
X002399Y009710D01*
X002320Y009901D01*
X002173Y010047D01*
X002057Y010095D01*
X002185Y010149D01*
X002337Y010300D01*
X002419Y010499D01*
X002419Y010714D01*
X002337Y010912D01*
X002185Y011064D01*
X002083Y011106D01*
X002185Y011149D01*
X002337Y011300D01*
X002419Y011499D01*
X002419Y011714D01*
X002337Y011912D01*
X002185Y012064D01*
X002083Y012106D01*
X002185Y012149D01*
X002337Y012300D01*
X002419Y012499D01*
X002419Y012714D01*
X002337Y012912D01*
X002185Y013064D01*
X002083Y013106D01*
X002185Y013149D01*
X002337Y013300D01*
X002419Y013499D01*
X002419Y013714D01*
X002337Y013912D01*
X002185Y014064D01*
X002083Y014106D01*
X002185Y014149D01*
X002337Y014300D01*
X002419Y014499D01*
X002419Y014714D01*
X002337Y014912D01*
X002185Y015064D01*
X002099Y015100D01*
X002099Y017170D01*
X002859Y017170D01*
X002859Y016817D01*
X002763Y016857D01*
X002593Y016857D01*
X002436Y016792D01*
X002316Y016672D01*
X002099Y016672D01*
X002099Y016770D02*
X002414Y016770D01*
X002316Y016672D02*
X002251Y016515D01*
X002251Y016344D01*
X002316Y016187D01*
X002436Y016067D01*
X002593Y016002D01*
X002763Y016002D01*
X002859Y016042D01*
X002859Y015065D01*
X002988Y014936D01*
X003759Y014165D01*
X003888Y014036D01*
X007070Y014036D01*
X007199Y014165D01*
X007320Y014286D01*
X007354Y014286D01*
X007354Y014180D01*
X007454Y014080D01*
X008304Y014080D01*
X008403Y014180D01*
X008403Y014286D01*
X008788Y014286D01*
X009109Y013965D01*
X009109Y013308D01*
X008998Y013354D01*
X008860Y013354D01*
X008732Y013301D01*
X008634Y013203D01*
X008581Y013076D01*
X008581Y012937D01*
X008634Y012809D01*
X008709Y012734D01*
X008709Y012192D01*
X008404Y012192D01*
X008379Y012167D01*
X008354Y012192D01*
X007504Y012192D01*
X007404Y012093D01*
X007404Y011925D01*
X007387Y011918D01*
X007387Y011918D01*
X007387Y011918D01*
X007344Y011875D01*
X007323Y011854D01*
X007260Y011854D01*
X007132Y011801D01*
X007103Y011773D01*
X007103Y011843D01*
X007004Y011942D01*
X007404Y011942D01*
X007404Y012040D02*
X007043Y012040D01*
X007004Y011942D02*
X006945Y011942D01*
X007744Y012741D01*
X008304Y012741D01*
X008403Y012841D01*
X008403Y013533D01*
X008304Y013633D01*
X007454Y013633D01*
X007354Y013533D01*
X007354Y012974D01*
X006359Y011978D01*
X006359Y011942D01*
X006154Y011942D01*
X006054Y011843D01*
X006054Y011072D01*
X006154Y010973D01*
X007004Y010973D01*
X007009Y010978D01*
X007009Y010835D01*
X007004Y010840D01*
X006154Y010840D01*
X006054Y010740D01*
X006054Y009970D01*
X006120Y009904D01*
X006010Y009904D01*
X005882Y009851D01*
X005806Y009776D01*
X005138Y009776D01*
X005009Y009647D01*
X003938Y008576D01*
X003801Y008576D01*
X003726Y008651D01*
X003598Y008704D01*
X003530Y008704D01*
X004270Y009444D01*
X004341Y009515D01*
X004379Y009607D01*
X004379Y009844D01*
X004486Y009844D01*
X004585Y009944D01*
X004585Y011069D01*
X004486Y011168D01*
X004429Y011168D01*
X004429Y011203D01*
X004979Y011753D01*
X005231Y011501D01*
X005231Y011437D01*
X005284Y011309D01*
X005382Y011211D01*
X005510Y011158D01*
X005648Y011158D01*
X005776Y011211D01*
X005874Y011309D01*
X005927Y011437D01*
X005927Y011576D01*
X005874Y011703D01*
X005819Y011758D01*
X005826Y011761D01*
X005924Y011859D01*
X005977Y011987D01*
X005977Y012051D01*
X006020Y012094D01*
X006077Y012151D01*
X006254Y012151D01*
X006354Y012251D01*
X006354Y013182D01*
X006254Y013281D01*
X005523Y013281D01*
X005439Y013197D01*
X005354Y013281D01*
X004623Y013281D01*
X004525Y013183D01*
X004446Y013261D01*
X004139Y013261D01*
X004139Y012766D01*
X004039Y012766D01*
X004039Y012666D01*
X004139Y012666D01*
X004139Y012171D01*
X004446Y012171D01*
X004525Y012250D01*
X004623Y012151D01*
X004670Y012151D01*
X004377Y011858D01*
X004377Y011876D01*
X004324Y012003D01*
X004226Y012101D01*
X004098Y012154D01*
X003960Y012154D01*
X003832Y012101D01*
X003734Y012003D01*
X003681Y011876D01*
X003681Y011812D01*
X003467Y011598D01*
X003429Y011506D01*
X003429Y011407D01*
X003429Y010710D01*
X002567Y009848D01*
X002529Y009756D01*
X002529Y009657D01*
X002529Y009210D01*
X001967Y008648D01*
X001929Y008556D01*
X001929Y008457D01*
X001929Y007656D01*
X001929Y007646D01*
X001821Y007646D01*
X001623Y007564D01*
X001471Y007412D01*
X001389Y007214D01*
X001389Y006999D01*
X001471Y006800D01*
X001623Y006649D01*
X001725Y006606D01*
X001623Y006564D01*
X001471Y006412D01*
X001389Y006214D01*
X001389Y005999D01*
X001471Y005800D01*
X001623Y005649D01*
X001659Y005634D01*
X001309Y005284D01*
X001309Y004729D01*
X001620Y004417D01*
X001329Y004126D01*
X001329Y003906D01*
X001929Y003906D01*
X001929Y003806D01*
X002029Y003806D01*
X002029Y003206D01*
X002248Y003206D01*
X002629Y003587D01*
X002629Y003806D01*
X002029Y003806D01*
X002029Y003906D01*
X002629Y003906D01*
X002629Y004126D01*
X002337Y004417D01*
X002649Y004729D01*
X002649Y005284D01*
X002259Y005673D01*
X002387Y005800D01*
X002469Y005999D01*
X002469Y006214D01*
X002387Y006412D01*
X002235Y006564D01*
X002133Y006606D01*
X002235Y006649D01*
X002387Y006800D01*
X002461Y006980D01*
X002597Y006845D01*
X002667Y006774D01*
X002759Y006736D01*
X002792Y006736D01*
X002767Y006711D01*
X002699Y006546D01*
X002699Y006367D01*
X002767Y006201D01*
X002894Y006075D01*
X003059Y006006D01*
X003798Y006006D01*
X003964Y006075D01*
X004090Y006201D01*
X004154Y006355D01*
X004217Y006201D01*
X004344Y006075D01*
X004509Y006006D01*
X005248Y006006D01*
X005379Y006060D01*
X005379Y005852D01*
X005248Y005906D01*
X004509Y005906D01*
X004344Y005838D01*
X004217Y005711D01*
X004154Y005558D01*
X004090Y005711D01*
X003964Y005838D01*
X003798Y005906D01*
X003059Y005906D01*
X002894Y005838D01*
X002767Y005711D01*
X002699Y005546D01*
X002699Y005367D01*
X002767Y005201D01*
X002894Y005075D01*
X003059Y005006D01*
X003798Y005006D01*
X003964Y005075D01*
X004090Y005201D01*
X004154Y005355D01*
X004217Y005201D01*
X004344Y005075D01*
X004509Y005006D01*
X005248Y005006D01*
X005379Y005060D01*
X005379Y004856D01*
X005369Y004856D01*
X005248Y004906D01*
X004509Y004906D01*
X004344Y004838D01*
X004217Y004711D01*
X004154Y004558D01*
X004090Y004711D01*
X003964Y004838D01*
X003798Y004906D01*
X003059Y004906D01*
X002894Y004838D01*
X002767Y004711D01*
X002699Y004546D01*
X002699Y004367D01*
X002767Y004201D01*
X002894Y004075D01*
X003059Y004006D01*
X003179Y004006D01*
X003179Y003807D01*
X003217Y003715D01*
X003287Y003644D01*
X003629Y003303D01*
X003629Y003037D01*
X003573Y003014D01*
X003421Y002862D01*
X003368Y002734D01*
X003320Y002851D01*
X003173Y002997D01*
X002982Y003076D01*
X002929Y003076D01*
X002929Y002606D01*
X002829Y002606D01*
X002829Y003076D01*
X002775Y003076D01*
X002584Y002997D01*
X002438Y002851D01*
X002390Y002734D01*
X002337Y002862D01*
X002185Y003014D01*
X001986Y003096D01*
X001771Y003096D01*
X001573Y003014D01*
X001421Y002862D01*
X001339Y002664D01*
X001339Y002449D01*
X001421Y002250D01*
X001573Y002099D01*
X001675Y002056D01*
X001573Y002014D01*
X001421Y001862D01*
X001339Y001664D01*
X001339Y001449D01*
X001421Y001250D01*
X001573Y001099D01*
X001771Y001016D01*
X001986Y001016D01*
X002185Y001099D01*
X002337Y001250D01*
X002390Y001379D01*
X002438Y001262D01*
X002584Y001115D01*
X002775Y001036D01*
X002829Y001036D01*
X002829Y001506D01*
X002929Y001506D01*
X002929Y001036D01*
X002982Y001036D01*
X003173Y001115D01*
X003320Y001262D01*
X003368Y001379D01*
X003421Y001250D01*
X003573Y001099D01*
X003771Y001016D01*
X003986Y001016D01*
X004185Y001099D01*
X004337Y001250D01*
X004419Y001449D01*
X004419Y001664D01*
X004399Y001712D01*
X005270Y002583D01*
X005739Y002583D01*
X005838Y002682D01*
X005838Y003323D01*
X005739Y003423D01*
X005019Y003423D01*
X004919Y003323D01*
X004919Y002854D01*
X004352Y002287D01*
X004419Y002449D01*
X004419Y002664D01*
X004337Y002862D01*
X004185Y003014D01*
X004129Y003037D01*
X004129Y003357D01*
X004129Y003456D01*
X004091Y003548D01*
X003679Y003960D01*
X003679Y004006D01*
X003798Y004006D01*
X003964Y004075D01*
X004090Y004201D01*
X004154Y004355D01*
X004217Y004201D01*
X004344Y004075D01*
X004509Y004006D01*
X005248Y004006D01*
X005414Y004075D01*
X005540Y004201D01*
X005604Y004356D01*
X005629Y004356D01*
X005720Y004394D01*
X005791Y004465D01*
X005841Y004515D01*
X005879Y004607D01*
X005879Y004706D01*
X005879Y005864D01*
X005932Y005811D01*
X006373Y005811D01*
X006997Y005186D01*
X007179Y005186D01*
X007240Y005186D01*
X007172Y005119D01*
X007172Y004335D01*
X006732Y003896D01*
X006668Y003896D01*
X006540Y003843D01*
X006443Y003745D01*
X006390Y003617D01*
X006390Y003478D01*
X006443Y003350D01*
X006540Y003252D01*
X006668Y003199D01*
X006807Y003199D01*
X006814Y003202D01*
X006663Y003051D01*
X006573Y003014D01*
X006421Y002862D01*
X006339Y002664D01*
X006339Y002449D01*
X006421Y002250D01*
X006573Y002099D01*
X006675Y002056D01*
X006573Y002014D01*
X006421Y001862D01*
X006339Y001664D01*
X006339Y001449D01*
X006421Y001250D01*
X006573Y001099D01*
X006771Y001016D01*
X006986Y001016D01*
X007185Y001099D01*
X007337Y001250D01*
X007379Y001352D01*
X007421Y001250D01*
X007573Y001099D01*
X007771Y001016D01*
X007986Y001016D01*
X008185Y001099D01*
X008337Y001250D01*
X008379Y001352D01*
X008421Y001250D01*
X008573Y001099D01*
X008771Y001016D01*
X008986Y001016D01*
X009185Y001099D01*
X009337Y001250D01*
X009379Y001352D01*
X009421Y001250D01*
X009573Y001099D01*
X009771Y001016D01*
X009986Y001016D01*
X010185Y001099D01*
X010337Y001250D01*
X010379Y001352D01*
X010421Y001250D01*
X010573Y001099D01*
X010771Y001016D01*
X010986Y001016D01*
X011185Y001099D01*
X011337Y001250D01*
X011379Y001352D01*
X011421Y001250D01*
X011573Y001099D01*
X011771Y001016D01*
X011986Y001016D01*
X012185Y001099D01*
X012337Y001250D01*
X012379Y001352D01*
X012421Y001250D01*
X012573Y001099D01*
X012771Y001016D01*
X012986Y001016D01*
X013185Y001099D01*
X013337Y001250D01*
X013390Y001379D01*
X013438Y001262D01*
X013584Y001115D01*
X013775Y001036D01*
X013829Y001036D01*
X013829Y001506D01*
X013929Y001506D01*
X013929Y001036D01*
X013982Y001036D01*
X014173Y001115D01*
X014320Y001262D01*
X014368Y001379D01*
X014421Y001250D01*
X014573Y001099D01*
X014771Y001016D01*
X014986Y001016D01*
X015185Y001099D01*
X015337Y001250D01*
X015379Y001352D01*
X015421Y001250D01*
X015573Y001099D01*
X015771Y001016D01*
X015986Y001016D01*
X016185Y001099D01*
X016337Y001250D01*
X016379Y001352D01*
X016421Y001250D01*
X016573Y001099D01*
X016771Y001016D01*
X016986Y001016D01*
X017185Y001099D01*
X017337Y001250D01*
X017379Y001352D01*
X017421Y001250D01*
X017573Y001099D01*
X017771Y001016D01*
X017986Y001016D01*
X018185Y001099D01*
X018337Y001250D01*
X018379Y001352D01*
X018421Y001250D01*
X018573Y001099D01*
X018771Y001016D01*
X018986Y001016D01*
X019185Y001099D01*
X019337Y001250D01*
X019379Y001352D01*
X019421Y001250D01*
X019573Y001099D01*
X019771Y001016D01*
X019986Y001016D01*
X020185Y001099D01*
X020337Y001250D01*
X020419Y001449D01*
X020419Y001664D01*
X020337Y001862D01*
X020185Y002014D01*
X020083Y002056D01*
X020185Y002099D01*
X020337Y002250D01*
X020419Y002449D01*
X020419Y002664D01*
X020337Y002862D01*
X020185Y003014D01*
X020099Y003050D01*
X020099Y003565D01*
X020099Y003747D01*
X019830Y004016D01*
X019986Y004016D01*
X020185Y004099D01*
X020337Y004250D01*
X020419Y004449D01*
X020419Y004664D01*
X020337Y004862D01*
X020185Y005014D01*
X020083Y005056D01*
X020185Y005099D01*
X020337Y005250D01*
X020419Y005449D01*
X020419Y005664D01*
X020337Y005862D01*
X020185Y006014D01*
X020057Y006067D01*
X020173Y006115D01*
X020320Y006262D01*
X020399Y006453D01*
X020399Y006506D01*
X019929Y006506D01*
X019929Y006606D01*
X020399Y006606D01*
X020399Y006660D01*
X020320Y006851D01*
X020173Y006997D01*
X020057Y007045D01*
X020185Y007099D01*
X020337Y007250D01*
X020419Y007449D01*
X020419Y007664D01*
X020337Y007862D01*
X020185Y008014D01*
X020083Y008056D01*
X020185Y008099D01*
X020444Y008099D01*
X020444Y008197D02*
X020283Y008197D01*
X020337Y008250D02*
X020185Y008099D01*
X020199Y008000D02*
X020444Y008000D01*
X020444Y007901D02*
X020297Y007901D01*
X020361Y007803D02*
X020444Y007803D01*
X020379Y007756D02*
X020079Y008056D01*
X019679Y008056D01*
X019579Y008156D01*
X018679Y008156D01*
X018679Y008506D01*
X018470Y008506D01*
X018520Y008493D02*
X019339Y008493D01*
X019339Y008449D02*
X019339Y008635D01*
X019138Y008836D01*
X018935Y008836D01*
X018935Y008556D01*
X018520Y008556D01*
X018520Y008456D01*
X018935Y008456D01*
X018935Y008090D01*
X018871Y008026D01*
X019602Y008026D01*
X019675Y008056D01*
X019573Y008099D01*
X018935Y008099D01*
X018935Y008197D02*
X019474Y008197D01*
X019421Y008250D02*
X019573Y008099D01*
X019421Y008250D02*
X019339Y008449D01*
X019361Y008394D02*
X018935Y008394D01*
X018935Y008296D02*
X019402Y008296D01*
X019339Y008591D02*
X018935Y008591D01*
X018935Y008690D02*
X019284Y008690D01*
X019186Y008788D02*
X018935Y008788D01*
X019229Y009056D02*
X019629Y008656D01*
X019829Y008656D01*
X019879Y008606D01*
X019879Y008556D01*
X020083Y009056D02*
X020185Y009099D01*
X020337Y009250D01*
X020419Y009449D01*
X020419Y009664D01*
X020337Y009862D01*
X020185Y010014D01*
X019986Y010096D01*
X019771Y010096D01*
X019573Y010014D01*
X019421Y009862D01*
X019339Y009664D01*
X019339Y009449D01*
X019421Y009250D01*
X019573Y009099D01*
X019675Y009056D01*
X019579Y009017D01*
X019320Y009276D01*
X019138Y009276D01*
X018370Y009276D01*
X018364Y009282D01*
X018765Y009282D01*
X018865Y009382D01*
X018865Y010231D01*
X018765Y010331D01*
X018674Y010331D01*
X018704Y010361D01*
X019145Y010361D01*
X019244Y010460D01*
X019244Y011152D01*
X019145Y011252D01*
X018532Y011252D01*
X018432Y011152D01*
X018432Y010711D01*
X018160Y010439D01*
X018160Y010331D01*
X018049Y010331D01*
X018049Y010461D01*
X018149Y010561D01*
X018149Y010911D01*
X018149Y010915D01*
X019192Y011958D01*
X019298Y011958D01*
X019426Y012011D01*
X019524Y012109D01*
X019577Y012237D01*
X019577Y012321D01*
X020444Y012321D01*
X020444Y000976D01*
X005797Y000976D01*
X005818Y000998D01*
X005818Y001260D01*
X005429Y001260D01*
X005429Y001360D01*
X005818Y001360D01*
X005818Y001622D01*
X005730Y001710D01*
X005429Y001710D01*
X005429Y001360D01*
X005329Y001360D01*
X005329Y001710D01*
X005027Y001710D01*
X004939Y001622D01*
X004939Y001360D01*
X005329Y001360D01*
X005329Y001260D01*
X004939Y001260D01*
X004939Y000998D01*
X004961Y000976D01*
X001299Y000976D01*
X001299Y020131D01*
X020444Y020121D01*
X001299Y020121D01*
X001299Y020022D02*
X006593Y020022D01*
X006483Y019924D02*
X001299Y019924D01*
X001299Y019825D02*
X006406Y019825D01*
X006365Y019727D02*
X006199Y019727D01*
X006249Y019628D02*
X006339Y019628D01*
X006339Y019530D02*
X006249Y019530D01*
X006249Y019431D02*
X006346Y019431D01*
X006387Y019332D02*
X006249Y019332D01*
X006247Y019234D02*
X006438Y019234D01*
X006536Y019135D02*
X003769Y019135D01*
X003670Y019037D02*
X006628Y019037D01*
X006497Y018938D02*
X003572Y018938D01*
X003473Y018840D02*
X006412Y018840D01*
X006371Y018741D02*
X003375Y018741D01*
X003299Y018643D02*
X006339Y018643D01*
X006339Y018544D02*
X003299Y018544D01*
X003299Y018446D02*
X006340Y018446D01*
X006381Y018347D02*
X003299Y018347D01*
X003299Y018248D02*
X003409Y018248D01*
X003417Y018256D02*
X003329Y018168D01*
X003329Y017981D01*
X003754Y017981D01*
X003754Y017931D01*
X003804Y017931D01*
X003804Y017656D01*
X004141Y017656D01*
X004229Y017744D01*
X004229Y017931D01*
X003804Y017931D01*
X003804Y017981D01*
X004229Y017981D01*
X004229Y018168D01*
X004141Y018256D01*
X003804Y018256D01*
X003804Y017982D01*
X003754Y017982D01*
X003754Y018256D01*
X003417Y018256D01*
X003329Y018150D02*
X003299Y018150D01*
X003299Y018051D02*
X003329Y018051D01*
X003299Y017953D02*
X003754Y017953D01*
X003754Y017931D02*
X003329Y017931D01*
X003329Y017744D01*
X003417Y017656D01*
X003754Y017656D01*
X003754Y017931D01*
X003804Y017953D02*
X005754Y017953D01*
X005754Y017931D02*
X005754Y017981D01*
X005329Y017981D01*
X005329Y018168D01*
X005417Y018256D01*
X005754Y018256D01*
X005754Y017982D01*
X005804Y017982D01*
X005804Y018256D01*
X006141Y018256D01*
X006229Y018168D01*
X006229Y017981D01*
X005804Y017981D01*
X005804Y017931D01*
X005804Y017656D01*
X006141Y017656D01*
X006229Y017744D01*
X006229Y017931D01*
X005804Y017931D01*
X005754Y017931D01*
X005754Y017656D01*
X005417Y017656D01*
X005329Y017744D01*
X005329Y017931D01*
X005754Y017931D01*
X005804Y017953D02*
X006659Y017953D01*
X006659Y018051D02*
X006229Y018051D01*
X006229Y018150D02*
X006521Y018150D01*
X006423Y018248D02*
X006149Y018248D01*
X005804Y018248D02*
X005754Y018248D01*
X005754Y018150D02*
X005804Y018150D01*
X005804Y018051D02*
X005754Y018051D01*
X005754Y017854D02*
X005804Y017854D01*
X005804Y017756D02*
X005754Y017756D01*
X005754Y017657D02*
X005804Y017657D01*
X006142Y017657D02*
X006659Y017657D01*
X006659Y017559D02*
X003299Y017559D01*
X003299Y017657D02*
X003416Y017657D01*
X003329Y017756D02*
X003299Y017756D01*
X003299Y017854D02*
X003329Y017854D01*
X003299Y017460D02*
X006659Y017460D01*
X006712Y017362D02*
X003299Y017362D01*
X003299Y017263D02*
X006811Y017263D01*
X006909Y017164D02*
X003299Y017164D01*
X003299Y017066D02*
X007008Y017066D01*
X007107Y016967D02*
X003299Y016967D01*
X003299Y016869D02*
X007205Y016869D01*
X007139Y016770D02*
X006879Y016770D01*
X006977Y016672D02*
X007009Y016596D01*
X007040Y016672D01*
X006351Y016770D02*
X006091Y016770D01*
X006190Y016672D02*
X006221Y016596D01*
X006253Y016672D01*
X005564Y016770D02*
X005304Y016770D01*
X005403Y016672D02*
X005434Y016596D01*
X005465Y016672D01*
X004776Y016770D02*
X004517Y016770D01*
X004615Y016672D02*
X004647Y016596D01*
X004678Y016672D01*
X003989Y016770D02*
X003729Y016770D01*
X002859Y016869D02*
X002099Y016869D01*
X002099Y016967D02*
X002859Y016967D01*
X002859Y017066D02*
X002099Y017066D01*
X002099Y017164D02*
X002859Y017164D01*
X002479Y017655D02*
X002478Y017656D01*
X001929Y017656D01*
X001879Y017606D01*
X001879Y014606D01*
X002244Y014208D02*
X003716Y014208D01*
X003814Y014110D02*
X002091Y014110D01*
X002238Y014011D02*
X009063Y014011D01*
X009109Y013913D02*
X002336Y013913D01*
X002377Y013814D02*
X009109Y013814D01*
X009109Y013715D02*
X002418Y013715D01*
X002419Y013617D02*
X007438Y013617D01*
X007354Y013518D02*
X002419Y013518D01*
X002386Y013420D02*
X007354Y013420D01*
X007354Y013321D02*
X002345Y013321D01*
X002259Y013223D02*
X003693Y013223D01*
X003732Y013261D02*
X003644Y013173D01*
X003644Y012766D01*
X004039Y012766D01*
X004039Y013261D01*
X003732Y013261D01*
X003644Y013124D02*
X002126Y013124D01*
X002223Y013026D02*
X003644Y013026D01*
X003644Y012927D02*
X002322Y012927D01*
X002371Y012829D02*
X003644Y012829D01*
X003644Y012666D02*
X003644Y012259D01*
X003732Y012171D01*
X004039Y012171D01*
X004039Y012666D01*
X003644Y012666D01*
X003644Y012631D02*
X002419Y012631D01*
X002419Y012533D02*
X003644Y012533D01*
X003644Y012434D02*
X002392Y012434D01*
X002351Y012336D02*
X003644Y012336D01*
X003666Y012237D02*
X002274Y012237D01*
X002161Y012139D02*
X003922Y012139D01*
X004039Y012237D02*
X004139Y012237D01*
X004136Y012139D02*
X004658Y012139D01*
X004559Y012040D02*
X004287Y012040D01*
X004350Y011942D02*
X004461Y011942D01*
X004512Y012237D02*
X004537Y012237D01*
X004139Y012336D02*
X004039Y012336D01*
X004039Y012434D02*
X004139Y012434D01*
X004139Y012533D02*
X004039Y012533D01*
X004039Y012631D02*
X004139Y012631D01*
X004039Y012730D02*
X002412Y012730D01*
X002209Y012040D02*
X003770Y012040D01*
X003708Y011942D02*
X002307Y011942D01*
X002365Y011843D02*
X003681Y011843D01*
X003614Y011745D02*
X002406Y011745D01*
X002419Y011646D02*
X003515Y011646D01*
X003446Y011548D02*
X002419Y011548D01*
X002398Y011449D02*
X003429Y011449D01*
X003429Y011350D02*
X002357Y011350D01*
X002288Y011252D02*
X003429Y011252D01*
X003429Y011153D02*
X002190Y011153D01*
X002194Y011055D02*
X003429Y011055D01*
X003429Y010956D02*
X002292Y010956D01*
X002359Y010858D02*
X003429Y010858D01*
X003429Y010759D02*
X002400Y010759D01*
X002419Y010661D02*
X003380Y010661D01*
X003281Y010562D02*
X002419Y010562D01*
X002404Y010464D02*
X003183Y010464D01*
X003084Y010365D02*
X002363Y010365D01*
X002303Y010266D02*
X002985Y010266D01*
X002887Y010168D02*
X002204Y010168D01*
X002120Y010069D02*
X002788Y010069D01*
X002690Y009971D02*
X002250Y009971D01*
X002331Y009872D02*
X002591Y009872D01*
X002536Y009774D02*
X002372Y009774D01*
X002399Y009675D02*
X002529Y009675D01*
X002529Y009577D02*
X001929Y009577D01*
X001929Y009478D02*
X001829Y009478D01*
X001829Y009556D02*
X001829Y009086D01*
X001775Y009086D01*
X001584Y009165D01*
X001438Y009312D01*
X001359Y009503D01*
X001359Y009556D01*
X001829Y009556D01*
X001829Y009577D02*
X001299Y009577D01*
X001299Y009675D02*
X001359Y009675D01*
X001385Y009774D02*
X001299Y009774D01*
X001299Y009872D02*
X001426Y009872D01*
X001508Y009971D02*
X001299Y009971D01*
X001299Y010069D02*
X001638Y010069D01*
X001554Y010168D02*
X001299Y010168D01*
X001299Y010266D02*
X001455Y010266D01*
X001394Y010365D02*
X001299Y010365D01*
X001299Y010464D02*
X001353Y010464D01*
X001339Y010562D02*
X001299Y010562D01*
X001299Y010661D02*
X001339Y010661D01*
X001358Y010759D02*
X001299Y010759D01*
X001299Y010858D02*
X001399Y010858D01*
X001465Y010956D02*
X001299Y010956D01*
X001299Y011055D02*
X001564Y011055D01*
X001568Y011153D02*
X001299Y011153D01*
X001299Y011252D02*
X001470Y011252D01*
X001400Y011350D02*
X001299Y011350D01*
X001299Y011449D02*
X001359Y011449D01*
X001339Y011548D02*
X001299Y011548D01*
X001299Y011646D02*
X001339Y011646D01*
X001352Y011745D02*
X001299Y011745D01*
X001299Y011843D02*
X001392Y011843D01*
X001451Y011942D02*
X001299Y011942D01*
X001299Y012040D02*
X001549Y012040D01*
X001596Y012139D02*
X001299Y012139D01*
X001299Y012237D02*
X001484Y012237D01*
X001406Y012336D02*
X001299Y012336D01*
X001299Y012434D02*
X001366Y012434D01*
X001339Y012533D02*
X001299Y012533D01*
X001299Y012631D02*
X001339Y012631D01*
X001346Y012730D02*
X001299Y012730D01*
X001299Y012829D02*
X001386Y012829D01*
X001436Y012927D02*
X001299Y012927D01*
X001299Y013026D02*
X001535Y013026D01*
X001632Y013124D02*
X001299Y013124D01*
X001299Y013223D02*
X001499Y013223D01*
X001412Y013321D02*
X001299Y013321D01*
X001299Y013420D02*
X001372Y013420D01*
X001339Y013518D02*
X001299Y013518D01*
X001299Y013617D02*
X001339Y013617D01*
X001340Y013715D02*
X001299Y013715D01*
X001299Y013814D02*
X001380Y013814D01*
X001421Y013913D02*
X001299Y013913D01*
X001299Y014011D02*
X001520Y014011D01*
X001667Y014110D02*
X001299Y014110D01*
X001299Y014208D02*
X001513Y014208D01*
X001418Y014307D02*
X001299Y014307D01*
X001299Y014405D02*
X001378Y014405D01*
X001339Y014504D02*
X001299Y014504D01*
X001299Y014602D02*
X001339Y014602D01*
X001339Y014701D02*
X001299Y014701D01*
X001299Y014799D02*
X001374Y014799D01*
X001415Y014898D02*
X001299Y014898D01*
X001299Y014997D02*
X001505Y014997D01*
X001648Y015095D02*
X001299Y015095D01*
X001299Y015194D02*
X001659Y015194D01*
X001659Y015292D02*
X001299Y015292D01*
X001299Y015391D02*
X001659Y015391D01*
X001659Y015489D02*
X001299Y015489D01*
X001299Y015588D02*
X001659Y015588D01*
X001659Y015686D02*
X001299Y015686D01*
X001299Y015785D02*
X001659Y015785D01*
X001659Y015883D02*
X001299Y015883D01*
X001299Y015982D02*
X001659Y015982D01*
X001659Y016081D02*
X001299Y016081D01*
X001299Y016179D02*
X001659Y016179D01*
X001659Y016278D02*
X001299Y016278D01*
X001299Y016376D02*
X001659Y016376D01*
X001659Y016475D02*
X001299Y016475D01*
X001299Y016573D02*
X001659Y016573D01*
X001659Y016672D02*
X001299Y016672D01*
X001299Y016770D02*
X001659Y016770D01*
X001659Y016869D02*
X001299Y016869D01*
X001299Y016967D02*
X001659Y016967D01*
X001659Y017066D02*
X001299Y017066D01*
X001299Y017164D02*
X001659Y017164D01*
X001659Y017263D02*
X001299Y017263D01*
X001299Y017362D02*
X001659Y017362D01*
X001659Y017460D02*
X001299Y017460D01*
X001299Y017559D02*
X001659Y017559D01*
X001659Y017657D02*
X001299Y017657D01*
X001299Y017756D02*
X001717Y017756D01*
X001816Y017854D02*
X001299Y017854D01*
X001299Y017953D02*
X001954Y017953D01*
X001965Y018051D02*
X001299Y018051D01*
X001299Y018150D02*
X002859Y018150D01*
X002859Y018248D02*
X001299Y018248D01*
X001299Y018347D02*
X001980Y018347D01*
X001954Y018446D02*
X001299Y018446D01*
X001299Y018544D02*
X001954Y018544D01*
X001954Y018643D02*
X001299Y018643D01*
X001299Y018741D02*
X001954Y018741D01*
X001954Y018840D02*
X001299Y018840D01*
X001299Y018938D02*
X001954Y018938D01*
X001954Y019037D02*
X001299Y019037D01*
X001299Y019135D02*
X001954Y019135D01*
X002046Y019234D02*
X001299Y019234D01*
X001299Y019332D02*
X003309Y019332D01*
X003309Y019431D02*
X001299Y019431D01*
X001299Y019530D02*
X003309Y019530D01*
X003309Y019628D02*
X001299Y019628D01*
X001299Y019727D02*
X003359Y019727D01*
X003779Y019456D02*
X003279Y018956D01*
X003079Y018956D01*
X003079Y015156D01*
X003979Y014256D01*
X003617Y014307D02*
X002339Y014307D01*
X002380Y014405D02*
X003519Y014405D01*
X003420Y014504D02*
X002419Y014504D01*
X002419Y014602D02*
X003322Y014602D01*
X003223Y014701D02*
X002419Y014701D01*
X002383Y014799D02*
X003125Y014799D01*
X003026Y014898D02*
X002342Y014898D01*
X002252Y014997D02*
X002927Y014997D01*
X002859Y015095D02*
X002110Y015095D01*
X002099Y015194D02*
X002859Y015194D01*
X002859Y015292D02*
X002099Y015292D01*
X002099Y015391D02*
X002859Y015391D01*
X002859Y015489D02*
X002099Y015489D01*
X002099Y015588D02*
X002859Y015588D01*
X002859Y015686D02*
X002099Y015686D01*
X002099Y015785D02*
X002859Y015785D01*
X002859Y015883D02*
X002099Y015883D01*
X002099Y015982D02*
X002859Y015982D01*
X002422Y016081D02*
X002099Y016081D01*
X002099Y016179D02*
X002324Y016179D01*
X002278Y016278D02*
X002099Y016278D01*
X002099Y016376D02*
X002251Y016376D01*
X002251Y016475D02*
X002099Y016475D01*
X002099Y016573D02*
X002275Y016573D01*
X003754Y017657D02*
X003804Y017657D01*
X003804Y017756D02*
X003754Y017756D01*
X003754Y017854D02*
X003804Y017854D01*
X003804Y018051D02*
X003754Y018051D01*
X003754Y018150D02*
X003804Y018150D01*
X003804Y018248D02*
X003754Y018248D01*
X004149Y018248D02*
X005409Y018248D01*
X005329Y018150D02*
X004229Y018150D01*
X004229Y018051D02*
X005329Y018051D01*
X005329Y017854D02*
X004229Y017854D01*
X004229Y017756D02*
X005329Y017756D01*
X005416Y017657D02*
X004142Y017657D01*
X003079Y018956D02*
X002478Y018956D01*
X002479Y018757D01*
X002912Y019234D02*
X003245Y019234D01*
X003779Y019456D02*
X005779Y019456D01*
X005359Y019727D02*
X004199Y019727D01*
X004247Y019234D02*
X005311Y019234D01*
X005309Y019236D02*
X005309Y019236D01*
X006229Y017854D02*
X006659Y017854D01*
X006659Y017756D02*
X006229Y017756D01*
X007352Y019825D02*
X007406Y019825D01*
X007483Y019924D02*
X007275Y019924D01*
X007165Y020022D02*
X007593Y020022D01*
X008165Y020022D02*
X008593Y020022D01*
X008483Y019924D02*
X008275Y019924D01*
X008352Y019825D02*
X008406Y019825D01*
X009165Y020022D02*
X009593Y020022D01*
X009483Y019924D02*
X009275Y019924D01*
X009352Y019825D02*
X009406Y019825D01*
X010165Y020022D02*
X010593Y020022D01*
X010483Y019924D02*
X010275Y019924D01*
X010352Y019825D02*
X010406Y019825D01*
X011165Y020022D02*
X011593Y020022D01*
X011483Y019924D02*
X011275Y019924D01*
X011352Y019825D02*
X011406Y019825D01*
X012165Y020022D02*
X012593Y020022D01*
X012483Y019924D02*
X012275Y019924D01*
X012352Y019825D02*
X012406Y019825D01*
X013165Y020022D02*
X013593Y020022D01*
X013483Y019924D02*
X013275Y019924D01*
X013352Y019825D02*
X013406Y019825D01*
X014165Y020022D02*
X014593Y020022D01*
X014483Y019924D02*
X014275Y019924D01*
X014352Y019825D02*
X014406Y019825D01*
X015165Y020022D02*
X015645Y020022D01*
X015511Y019924D02*
X015275Y019924D01*
X015352Y019825D02*
X015427Y019825D01*
X015829Y019825D02*
X015929Y019825D01*
X015929Y019727D02*
X015829Y019727D01*
X015829Y019628D02*
X015929Y019628D01*
X015929Y019606D02*
X015829Y019606D01*
X015929Y019606D02*
X015929Y020076D01*
X015982Y020076D01*
X016173Y019997D01*
X016320Y019851D01*
X016368Y019734D01*
X016421Y019862D01*
X016573Y020014D01*
X016771Y020096D01*
X016986Y020096D01*
X017185Y020014D01*
X017337Y019862D01*
X017379Y019760D01*
X017421Y019862D01*
X017573Y020014D01*
X017771Y020096D01*
X017986Y020096D01*
X018185Y020014D01*
X018337Y019862D01*
X018379Y019760D01*
X018421Y019862D01*
X018573Y020014D01*
X018771Y020096D01*
X018986Y020096D01*
X019185Y020014D01*
X019337Y019862D01*
X019379Y019760D01*
X019421Y019862D01*
X019573Y020014D01*
X019771Y020096D01*
X019986Y020096D01*
X020185Y020014D01*
X020337Y019862D01*
X020419Y019664D01*
X020419Y019449D01*
X020337Y019250D01*
X020185Y019099D01*
X020083Y019056D01*
X020185Y019014D01*
X020337Y018862D01*
X020419Y018664D01*
X020419Y018449D01*
X020337Y018250D01*
X020185Y018099D01*
X020099Y018063D01*
X020099Y017965D01*
X019970Y017836D01*
X019449Y017315D01*
X019449Y016992D01*
X020444Y016992D01*
X020444Y020121D01*
X020444Y020022D02*
X020165Y020022D01*
X020275Y019924D02*
X020444Y019924D01*
X020444Y019825D02*
X020352Y019825D01*
X020393Y019727D02*
X020444Y019727D01*
X020444Y019628D02*
X020419Y019628D01*
X020419Y019530D02*
X020444Y019530D01*
X020444Y019431D02*
X020411Y019431D01*
X020444Y019332D02*
X020371Y019332D01*
X020320Y019234D02*
X020444Y019234D01*
X020444Y019135D02*
X020222Y019135D01*
X020130Y019037D02*
X020444Y019037D01*
X020444Y018938D02*
X020260Y018938D01*
X020346Y018840D02*
X020444Y018840D01*
X020444Y018741D02*
X020387Y018741D01*
X020419Y018643D02*
X020444Y018643D01*
X020444Y018544D02*
X020419Y018544D01*
X020417Y018446D02*
X020444Y018446D01*
X020444Y018347D02*
X020377Y018347D01*
X020335Y018248D02*
X020444Y018248D01*
X020444Y018150D02*
X020236Y018150D01*
X020099Y018051D02*
X020444Y018051D01*
X020444Y017953D02*
X020086Y017953D01*
X019988Y017854D02*
X020444Y017854D01*
X020444Y017756D02*
X019889Y017756D01*
X019791Y017657D02*
X020444Y017657D01*
X020444Y017559D02*
X019692Y017559D01*
X019594Y017460D02*
X020444Y017460D01*
X020444Y017362D02*
X019495Y017362D01*
X019449Y017263D02*
X020444Y017263D01*
X020444Y017164D02*
X019449Y017164D01*
X019449Y017066D02*
X020444Y017066D01*
X019879Y018056D02*
X019879Y018556D01*
X019879Y018056D02*
X019229Y017406D01*
X019229Y012856D01*
X018429Y012056D01*
X017379Y012056D01*
X016929Y012506D01*
X016929Y013006D01*
X016704Y013231D01*
X016554Y013381D01*
X016304Y013632D02*
X016379Y013706D01*
X016304Y013632D02*
X016304Y013632D01*
X016169Y013497D01*
X015779Y013906D02*
X015904Y014031D01*
X015654Y014282D02*
X015654Y016031D01*
X016729Y017106D01*
X017829Y017106D01*
X018879Y018156D01*
X018879Y018556D01*
X019377Y018347D02*
X019381Y018347D01*
X019379Y018352D02*
X019421Y018250D01*
X019573Y018099D01*
X019599Y018088D01*
X019009Y017497D01*
X019009Y017315D01*
X019009Y015783D01*
X018975Y015817D01*
X018848Y015870D01*
X018710Y015870D01*
X018582Y015817D01*
X018484Y015719D01*
X018432Y015591D01*
X018432Y015453D01*
X018433Y015451D01*
X018349Y015535D01*
X017795Y015535D01*
X017795Y015287D01*
X017794Y015287D01*
X017794Y015535D01*
X017240Y015535D01*
X017152Y015447D01*
X017152Y015286D01*
X017152Y015160D01*
X017132Y015140D01*
X017132Y014886D01*
X016625Y014886D01*
X016434Y014886D01*
X016038Y014491D01*
X015874Y014655D01*
X015874Y015940D01*
X016820Y016886D01*
X017132Y016886D01*
X017132Y015964D01*
X017232Y015864D01*
X018357Y015864D01*
X018457Y015964D01*
X018457Y016892D01*
X018357Y016992D01*
X018025Y016992D01*
X018970Y017936D01*
X019095Y018061D01*
X019185Y018099D01*
X019337Y018250D01*
X019379Y018352D01*
X019335Y018248D02*
X019423Y018248D01*
X019521Y018150D02*
X019236Y018150D01*
X019085Y018051D02*
X019563Y018051D01*
X019464Y017953D02*
X018986Y017953D01*
X018888Y017854D02*
X019366Y017854D01*
X019267Y017756D02*
X018789Y017756D01*
X018691Y017657D02*
X019169Y017657D01*
X019070Y017559D02*
X018592Y017559D01*
X018494Y017460D02*
X019009Y017460D01*
X019009Y017362D02*
X018395Y017362D01*
X018297Y017263D02*
X019009Y017263D01*
X019009Y017164D02*
X018198Y017164D01*
X018100Y017066D02*
X019009Y017066D01*
X019009Y016967D02*
X018381Y016967D01*
X018457Y016869D02*
X019009Y016869D01*
X019009Y016770D02*
X018457Y016770D01*
X018457Y016672D02*
X019009Y016672D01*
X019009Y016573D02*
X018457Y016573D01*
X018457Y016475D02*
X019009Y016475D01*
X019009Y016376D02*
X018457Y016376D01*
X018457Y016278D02*
X019009Y016278D01*
X019009Y016179D02*
X018457Y016179D01*
X018457Y016081D02*
X019009Y016081D01*
X019009Y015982D02*
X018457Y015982D01*
X018376Y015883D02*
X019009Y015883D01*
X019007Y015785D02*
X019009Y015785D01*
X018550Y015785D02*
X015874Y015785D01*
X015874Y015883D02*
X017213Y015883D01*
X017132Y015982D02*
X015916Y015982D01*
X016014Y016081D02*
X017132Y016081D01*
X017132Y016179D02*
X016113Y016179D01*
X016211Y016278D02*
X017132Y016278D01*
X017132Y016376D02*
X016310Y016376D01*
X016408Y016475D02*
X017132Y016475D01*
X017132Y016573D02*
X016507Y016573D01*
X016605Y016672D02*
X017132Y016672D01*
X017132Y016770D02*
X016704Y016770D01*
X016802Y016869D02*
X017132Y016869D01*
X016629Y017556D02*
X015179Y016106D01*
X015179Y012556D01*
X015279Y012488D01*
X015329Y012456D01*
X015279Y012456D01*
X015279Y012056D01*
X014429Y011206D01*
X012479Y011206D01*
X010729Y009456D01*
X008229Y009456D01*
X007629Y008856D01*
X007129Y008606D02*
X007479Y008256D01*
X009129Y008256D01*
X009129Y008156D01*
X009379Y007906D01*
X009379Y007606D01*
X009529Y007456D01*
X009529Y006806D01*
X009530Y006806D01*
X009529Y006806D02*
X009529Y005906D01*
X009530Y005906D01*
X010015Y005931D02*
X010059Y005931D01*
X010059Y006029D02*
X010015Y006029D01*
X010015Y006128D02*
X010059Y006128D01*
X010059Y006226D02*
X010015Y006226D01*
X010015Y006325D02*
X010059Y006325D01*
X010015Y006331D02*
X009990Y006356D01*
X010015Y006382D01*
X010015Y007231D01*
X009915Y007331D01*
X009749Y007331D01*
X009749Y007547D01*
X009736Y007560D01*
X009736Y007739D01*
X009793Y007739D01*
X009793Y007361D01*
X009846Y007361D01*
X009995Y007423D01*
X010059Y007486D01*
X010059Y004697D01*
X009338Y003976D01*
X008288Y003976D01*
X008159Y003847D01*
X007888Y003576D01*
X007188Y003576D01*
X007083Y003472D01*
X007086Y003478D01*
X007086Y003542D01*
X007438Y003894D01*
X007885Y003894D01*
X007985Y003994D01*
X007985Y005119D01*
X007917Y005186D01*
X008120Y005186D01*
X008249Y005315D01*
X008316Y005382D01*
X008813Y005382D01*
X008913Y005482D01*
X008913Y006331D01*
X008873Y006370D01*
X008893Y006390D01*
X008893Y006756D01*
X008478Y006756D01*
X008478Y006856D01*
X008893Y006856D01*
X008893Y007223D01*
X008805Y007311D01*
X008478Y007311D01*
X008478Y006856D01*
X008378Y006856D01*
X008377Y006856D02*
X008377Y006756D01*
X007963Y006756D01*
X007963Y006390D01*
X007982Y006370D01*
X007943Y006331D01*
X007943Y005631D01*
X007938Y005626D01*
X007179Y005626D01*
X006644Y006161D01*
X006644Y006602D01*
X006545Y006702D01*
X005932Y006702D01*
X005879Y006649D01*
X005879Y006807D01*
X005879Y006906D01*
X005841Y006998D01*
X005441Y007398D01*
X005370Y007468D01*
X005352Y007476D01*
X005403Y007526D01*
X005434Y007602D01*
X005465Y007526D01*
X005585Y007406D01*
X005743Y007341D01*
X005913Y007341D01*
X006070Y007406D01*
X006190Y007526D01*
X006221Y007602D01*
X006253Y007526D01*
X006373Y007406D01*
X006530Y007341D01*
X006700Y007341D01*
X006857Y007406D01*
X006977Y007526D01*
X007009Y007602D01*
X007040Y007526D01*
X007160Y007406D01*
X007317Y007341D01*
X007487Y007341D01*
X007645Y007406D01*
X007765Y007526D01*
X007796Y007602D01*
X007827Y007526D01*
X007948Y007406D01*
X008105Y007341D01*
X008275Y007341D01*
X008432Y007406D01*
X008552Y007526D01*
X008584Y007602D01*
X008615Y007526D01*
X008735Y007406D01*
X008892Y007341D01*
X009062Y007341D01*
X009219Y007406D01*
X009244Y007430D01*
X009309Y007365D01*
X009309Y007331D01*
X009145Y007331D01*
X009045Y007231D01*
X009045Y006382D01*
X009070Y006356D01*
X009045Y006331D01*
X009045Y005482D01*
X009145Y005382D01*
X009915Y005382D01*
X010015Y005482D01*
X010015Y006331D01*
X010015Y006423D02*
X010059Y006423D01*
X010059Y006522D02*
X010015Y006522D01*
X010015Y006620D02*
X010059Y006620D01*
X010059Y006719D02*
X010015Y006719D01*
X010015Y006817D02*
X010059Y006817D01*
X010059Y006916D02*
X010015Y006916D01*
X010015Y007015D02*
X010059Y007015D01*
X010059Y007113D02*
X010015Y007113D01*
X010015Y007212D02*
X010059Y007212D01*
X010059Y007310D02*
X009936Y007310D01*
X009962Y007409D02*
X010059Y007409D01*
X009793Y007409D02*
X009749Y007409D01*
X009749Y007507D02*
X009793Y007507D01*
X009793Y007606D02*
X009736Y007606D01*
X009736Y007704D02*
X009793Y007704D01*
X009793Y007797D02*
X009736Y007797D01*
X009736Y008176D01*
X009684Y008176D01*
X009534Y008114D01*
X009508Y008088D01*
X009470Y008126D01*
X009349Y008247D01*
X009349Y008347D01*
X009237Y008459D01*
X009360Y008408D01*
X009459Y008408D01*
X009459Y008404D01*
X009558Y008304D01*
X009670Y008304D01*
X009688Y008286D01*
X009798Y008176D01*
X009793Y008176D01*
X009793Y007797D01*
X009793Y007803D02*
X009736Y007803D01*
X009736Y007901D02*
X009793Y007901D01*
X009793Y008000D02*
X009736Y008000D01*
X009736Y008099D02*
X009793Y008099D01*
X009777Y008197D02*
X009399Y008197D01*
X009349Y008296D02*
X009678Y008296D01*
X009469Y008394D02*
X009302Y008394D01*
X009498Y008099D02*
X009519Y008099D01*
X009779Y008506D02*
X009779Y008724D01*
X009829Y008756D01*
X009429Y008756D01*
X009779Y008506D02*
X010279Y008006D01*
X010279Y004606D01*
X009429Y003756D01*
X008379Y003756D01*
X007979Y003356D01*
X007279Y003356D01*
X006879Y002956D01*
X006879Y002556D01*
X006486Y002186D02*
X004873Y002186D01*
X004972Y002284D02*
X006407Y002284D01*
X006366Y002383D02*
X005070Y002383D01*
X005169Y002482D02*
X006339Y002482D01*
X006339Y002580D02*
X005267Y002580D01*
X005379Y003003D02*
X003999Y001622D01*
X003879Y001622D01*
X004407Y001693D02*
X005011Y001693D01*
X004939Y001595D02*
X004419Y001595D01*
X004419Y001496D02*
X004939Y001496D01*
X004939Y001398D02*
X004398Y001398D01*
X004357Y001299D02*
X005329Y001299D01*
X005329Y001398D02*
X005429Y001398D01*
X005429Y001496D02*
X005329Y001496D01*
X005329Y001595D02*
X005429Y001595D01*
X005429Y001693D02*
X005329Y001693D01*
X005429Y001299D02*
X006401Y001299D01*
X006360Y001398D02*
X005818Y001398D01*
X005818Y001496D02*
X006339Y001496D01*
X006339Y001595D02*
X005818Y001595D01*
X005747Y001693D02*
X006351Y001693D01*
X006392Y001792D02*
X004479Y001792D01*
X004577Y001890D02*
X006449Y001890D01*
X006548Y001989D02*
X004676Y001989D01*
X004774Y002087D02*
X006600Y002087D01*
X006345Y002679D02*
X005834Y002679D01*
X005838Y002777D02*
X006386Y002777D01*
X006435Y002876D02*
X005838Y002876D01*
X005838Y002974D02*
X006533Y002974D01*
X006684Y003073D02*
X005838Y003073D01*
X005838Y003171D02*
X006783Y003171D01*
X006523Y003270D02*
X005838Y003270D01*
X005793Y003368D02*
X006435Y003368D01*
X006394Y003467D02*
X004124Y003467D01*
X004129Y003368D02*
X004965Y003368D01*
X004919Y003270D02*
X004129Y003270D01*
X004129Y003171D02*
X004919Y003171D01*
X004919Y003073D02*
X004129Y003073D01*
X004224Y002974D02*
X004919Y002974D01*
X004919Y002876D02*
X004323Y002876D01*
X004372Y002777D02*
X004842Y002777D01*
X004744Y002679D02*
X004413Y002679D01*
X004419Y002580D02*
X004645Y002580D01*
X004547Y002482D02*
X004419Y002482D01*
X004391Y002383D02*
X004448Y002383D01*
X003629Y003073D02*
X002991Y003073D01*
X002929Y003073D02*
X002829Y003073D01*
X002767Y003073D02*
X002043Y003073D01*
X001929Y003206D02*
X001929Y003806D01*
X001329Y003806D01*
X001329Y003587D01*
X001710Y003206D01*
X001929Y003206D01*
X001929Y003270D02*
X002029Y003270D01*
X002029Y003368D02*
X001929Y003368D01*
X001929Y003467D02*
X002029Y003467D01*
X002029Y003566D02*
X001929Y003566D01*
X001929Y003664D02*
X002029Y003664D01*
X002029Y003763D02*
X001929Y003763D01*
X001929Y003861D02*
X001299Y003861D01*
X001299Y003763D02*
X001329Y003763D01*
X001329Y003664D02*
X001299Y003664D01*
X001299Y003566D02*
X001350Y003566D01*
X001299Y003467D02*
X001449Y003467D01*
X001547Y003368D02*
X001299Y003368D01*
X001299Y003270D02*
X001646Y003270D01*
X001715Y003073D02*
X001299Y003073D01*
X001299Y003171D02*
X003629Y003171D01*
X003629Y003270D02*
X002312Y003270D01*
X002410Y003368D02*
X003563Y003368D01*
X003465Y003467D02*
X002509Y003467D01*
X002607Y003566D02*
X003366Y003566D01*
X003268Y003664D02*
X002629Y003664D01*
X002629Y003763D02*
X003197Y003763D01*
X003179Y003861D02*
X002029Y003861D01*
X002499Y004255D02*
X002745Y004255D01*
X002704Y004354D02*
X002400Y004354D01*
X002372Y004452D02*
X002699Y004452D01*
X002701Y004551D02*
X002471Y004551D01*
X002569Y004649D02*
X002742Y004649D01*
X002804Y004748D02*
X002649Y004748D01*
X002649Y004847D02*
X002915Y004847D01*
X002969Y005044D02*
X002649Y005044D01*
X002649Y005142D02*
X002826Y005142D01*
X002751Y005241D02*
X002649Y005241D01*
X002593Y005339D02*
X002710Y005339D01*
X002699Y005438D02*
X002495Y005438D01*
X002396Y005536D02*
X002699Y005536D01*
X002736Y005635D02*
X002298Y005635D01*
X002320Y005733D02*
X002790Y005733D01*
X002888Y005832D02*
X002400Y005832D01*
X002440Y005931D02*
X005379Y005931D01*
X005379Y006029D02*
X005303Y006029D01*
X005879Y005832D02*
X005910Y005832D01*
X005879Y005733D02*
X006450Y005733D01*
X006549Y005635D02*
X005879Y005635D01*
X005879Y005536D02*
X006647Y005536D01*
X006746Y005438D02*
X005879Y005438D01*
X005879Y005339D02*
X006844Y005339D01*
X006943Y005241D02*
X005879Y005241D01*
X005879Y005142D02*
X005925Y005142D01*
X005893Y005111D02*
X005893Y004606D01*
X006229Y004606D01*
X006229Y004506D01*
X006329Y004506D01*
X006329Y003914D01*
X006578Y003914D01*
X006665Y004002D01*
X006665Y004506D01*
X006329Y004506D01*
X006329Y004606D01*
X006665Y004606D01*
X006665Y005111D01*
X006578Y005198D01*
X006329Y005198D01*
X006329Y004606D01*
X006229Y004606D01*
X006229Y005198D01*
X005981Y005198D01*
X005893Y005111D01*
X005893Y005044D02*
X005879Y005044D01*
X005879Y004945D02*
X005893Y004945D01*
X005879Y004847D02*
X005893Y004847D01*
X005879Y004748D02*
X005893Y004748D01*
X005879Y004649D02*
X005893Y004649D01*
X005856Y004551D02*
X006229Y004551D01*
X006229Y004506D02*
X005893Y004506D01*
X005893Y004002D01*
X005981Y003914D01*
X006229Y003914D01*
X006229Y004506D01*
X006229Y004452D02*
X006329Y004452D01*
X006329Y004354D02*
X006229Y004354D01*
X006229Y004255D02*
X006329Y004255D01*
X006329Y004157D02*
X006229Y004157D01*
X006229Y004058D02*
X006329Y004058D01*
X006329Y003960D02*
X006229Y003960D01*
X006461Y003763D02*
X003876Y003763D01*
X003777Y003861D02*
X006585Y003861D01*
X006623Y003960D02*
X006796Y003960D01*
X006895Y004058D02*
X006665Y004058D01*
X006665Y004157D02*
X006994Y004157D01*
X007092Y004255D02*
X006665Y004255D01*
X006665Y004354D02*
X007172Y004354D01*
X007172Y004452D02*
X006665Y004452D01*
X006665Y004649D02*
X007172Y004649D01*
X007172Y004551D02*
X006329Y004551D01*
X006329Y004649D02*
X006229Y004649D01*
X006229Y004748D02*
X006329Y004748D01*
X006329Y004847D02*
X006229Y004847D01*
X006229Y004945D02*
X006329Y004945D01*
X006329Y005044D02*
X006229Y005044D01*
X006229Y005142D02*
X006329Y005142D01*
X006634Y005142D02*
X007196Y005142D01*
X007172Y005044D02*
X006665Y005044D01*
X006665Y004945D02*
X007172Y004945D01*
X007172Y004847D02*
X006665Y004847D01*
X006665Y004748D02*
X007172Y004748D01*
X007088Y005406D02*
X006238Y006256D01*
X006644Y006226D02*
X007369Y006226D01*
X007369Y006206D02*
X007033Y006206D01*
X007033Y005919D01*
X007121Y005831D01*
X007369Y005831D01*
X007369Y006206D01*
X007469Y006206D01*
X007469Y005831D01*
X007718Y005831D01*
X007806Y005919D01*
X007806Y006206D01*
X007469Y006206D01*
X007469Y006306D01*
X007369Y006306D01*
X007369Y006206D01*
X007369Y006128D02*
X007469Y006128D01*
X007469Y006226D02*
X007943Y006226D01*
X007943Y006128D02*
X007806Y006128D01*
X007806Y006029D02*
X007943Y006029D01*
X007943Y005931D02*
X007806Y005931D01*
X007719Y005832D02*
X007943Y005832D01*
X007943Y005733D02*
X007072Y005733D01*
X007120Y005832D02*
X006974Y005832D01*
X007033Y005931D02*
X006875Y005931D01*
X006777Y006029D02*
X007033Y006029D01*
X007033Y006128D02*
X006678Y006128D01*
X006644Y006325D02*
X007033Y006325D01*
X007033Y006306D02*
X007369Y006306D01*
X007369Y006682D01*
X007121Y006682D01*
X007033Y006594D01*
X007033Y006306D01*
X007033Y006423D02*
X006644Y006423D01*
X006644Y006522D02*
X007033Y006522D01*
X007059Y006620D02*
X006626Y006620D01*
X005879Y006719D02*
X007963Y006719D01*
X007963Y006620D02*
X007779Y006620D01*
X007806Y006594D02*
X007718Y006682D01*
X007469Y006682D01*
X007469Y006306D01*
X007806Y006306D01*
X007806Y006594D01*
X007806Y006522D02*
X007963Y006522D01*
X007963Y006423D02*
X007806Y006423D01*
X007806Y006325D02*
X007943Y006325D01*
X008428Y005906D02*
X008428Y005805D01*
X008029Y005406D01*
X007088Y005406D01*
X007171Y005635D02*
X007943Y005635D01*
X008273Y005339D02*
X010059Y005339D01*
X010059Y005241D02*
X008174Y005241D01*
X007961Y005142D02*
X010059Y005142D01*
X010059Y005044D02*
X007985Y005044D01*
X007985Y004945D02*
X010059Y004945D01*
X010059Y004847D02*
X007985Y004847D01*
X007985Y004748D02*
X010059Y004748D01*
X010011Y004649D02*
X007985Y004649D01*
X007985Y004551D02*
X009912Y004551D01*
X009814Y004452D02*
X007985Y004452D01*
X007985Y004354D02*
X009715Y004354D01*
X009617Y004255D02*
X007985Y004255D01*
X007985Y004157D02*
X009518Y004157D01*
X009420Y004058D02*
X007985Y004058D01*
X007951Y003960D02*
X008271Y003960D01*
X008173Y003861D02*
X007405Y003861D01*
X007306Y003763D02*
X008074Y003763D01*
X007975Y003664D02*
X007208Y003664D01*
X007177Y003566D02*
X007109Y003566D01*
X006409Y003664D02*
X003975Y003664D01*
X004073Y003566D02*
X006390Y003566D01*
X005935Y003960D02*
X003679Y003960D01*
X003924Y004058D02*
X004384Y004058D01*
X004262Y004157D02*
X004046Y004157D01*
X004113Y004255D02*
X004195Y004255D01*
X004153Y004354D02*
X004154Y004354D01*
X004116Y004649D02*
X004192Y004649D01*
X004254Y004748D02*
X004053Y004748D01*
X003942Y004847D02*
X004365Y004847D01*
X004419Y005044D02*
X003889Y005044D01*
X004031Y005142D02*
X004276Y005142D01*
X004201Y005241D02*
X004107Y005241D01*
X004147Y005339D02*
X004160Y005339D01*
X004186Y005635D02*
X004122Y005635D01*
X004068Y005733D02*
X004240Y005733D01*
X004338Y005832D02*
X003969Y005832D01*
X003853Y006029D02*
X004454Y006029D01*
X004291Y006128D02*
X004017Y006128D01*
X004101Y006226D02*
X004207Y006226D01*
X004166Y006325D02*
X004141Y006325D01*
X003004Y006029D02*
X002469Y006029D01*
X002469Y006128D02*
X002841Y006128D01*
X002757Y006226D02*
X002464Y006226D01*
X002423Y006325D02*
X002716Y006325D01*
X002699Y006423D02*
X002375Y006423D01*
X002277Y006522D02*
X002699Y006522D01*
X002730Y006620D02*
X002167Y006620D01*
X002305Y006719D02*
X002775Y006719D01*
X002624Y006817D02*
X002394Y006817D01*
X002434Y006916D02*
X002526Y006916D01*
X001691Y006620D02*
X001299Y006620D01*
X001299Y006522D02*
X001581Y006522D01*
X001482Y006423D02*
X001299Y006423D01*
X001299Y006325D02*
X001435Y006325D01*
X001394Y006226D02*
X001299Y006226D01*
X001299Y006128D02*
X001389Y006128D01*
X001389Y006029D02*
X001299Y006029D01*
X001299Y005931D02*
X001417Y005931D01*
X001458Y005832D02*
X001299Y005832D01*
X001299Y005733D02*
X001538Y005733D01*
X001656Y005635D02*
X001299Y005635D01*
X001299Y005536D02*
X001561Y005536D01*
X001463Y005438D02*
X001299Y005438D01*
X001299Y005339D02*
X001364Y005339D01*
X001309Y005241D02*
X001299Y005241D01*
X001299Y005142D02*
X001309Y005142D01*
X001299Y005044D02*
X001309Y005044D01*
X001299Y004945D02*
X001309Y004945D01*
X001299Y004847D02*
X001309Y004847D01*
X001299Y004748D02*
X001309Y004748D01*
X001299Y004649D02*
X001388Y004649D01*
X001299Y004551D02*
X001487Y004551D01*
X001585Y004452D02*
X001299Y004452D01*
X001299Y004354D02*
X001557Y004354D01*
X001459Y004255D02*
X001299Y004255D01*
X001299Y004157D02*
X001360Y004157D01*
X001329Y004058D02*
X001299Y004058D01*
X001299Y003960D02*
X001329Y003960D01*
X001299Y002974D02*
X001533Y002974D01*
X001435Y002876D02*
X001299Y002876D01*
X001299Y002777D02*
X001386Y002777D01*
X001345Y002679D02*
X001299Y002679D01*
X001299Y002580D02*
X001339Y002580D01*
X001339Y002482D02*
X001299Y002482D01*
X001299Y002383D02*
X001366Y002383D01*
X001407Y002284D02*
X001299Y002284D01*
X001299Y002186D02*
X001486Y002186D01*
X001600Y002087D02*
X001299Y002087D01*
X001299Y001989D02*
X001548Y001989D01*
X001449Y001890D02*
X001299Y001890D01*
X001299Y001792D02*
X001392Y001792D01*
X001351Y001693D02*
X001299Y001693D01*
X001299Y001595D02*
X001339Y001595D01*
X001339Y001496D02*
X001299Y001496D01*
X001299Y001398D02*
X001360Y001398D01*
X001401Y001299D02*
X001299Y001299D01*
X001299Y001200D02*
X001471Y001200D01*
X001569Y001102D02*
X001299Y001102D01*
X001299Y001003D02*
X004939Y001003D01*
X004939Y001102D02*
X004188Y001102D01*
X004287Y001200D02*
X004939Y001200D01*
X005818Y001200D02*
X006471Y001200D01*
X006569Y001102D02*
X005818Y001102D01*
X005818Y001003D02*
X020444Y001003D01*
X020444Y001102D02*
X020188Y001102D01*
X020287Y001200D02*
X020444Y001200D01*
X020444Y001299D02*
X020357Y001299D01*
X020398Y001398D02*
X020444Y001398D01*
X020444Y001496D02*
X020419Y001496D01*
X020419Y001595D02*
X020444Y001595D01*
X020444Y001693D02*
X020407Y001693D01*
X020444Y001792D02*
X020366Y001792D01*
X020308Y001890D02*
X020444Y001890D01*
X020444Y001989D02*
X020210Y001989D01*
X020158Y002087D02*
X020444Y002087D01*
X020444Y002186D02*
X020272Y002186D01*
X020351Y002284D02*
X020444Y002284D01*
X020444Y002383D02*
X020391Y002383D01*
X020419Y002482D02*
X020444Y002482D01*
X020444Y002580D02*
X020419Y002580D01*
X020413Y002679D02*
X020444Y002679D01*
X020444Y002777D02*
X020372Y002777D01*
X020323Y002876D02*
X020444Y002876D01*
X020444Y002974D02*
X020224Y002974D01*
X020099Y003073D02*
X020444Y003073D01*
X020444Y003171D02*
X020099Y003171D01*
X020099Y003270D02*
X020444Y003270D01*
X020444Y003368D02*
X020099Y003368D01*
X020099Y003467D02*
X020444Y003467D01*
X020444Y003566D02*
X020099Y003566D01*
X020099Y003664D02*
X020444Y003664D01*
X020444Y003763D02*
X020084Y003763D01*
X019985Y003861D02*
X020444Y003861D01*
X020444Y003960D02*
X019886Y003960D01*
X020087Y004058D02*
X020444Y004058D01*
X020444Y004157D02*
X020243Y004157D01*
X020339Y004255D02*
X020444Y004255D01*
X020444Y004354D02*
X020379Y004354D01*
X020419Y004452D02*
X020444Y004452D01*
X020444Y004551D02*
X020419Y004551D01*
X020419Y004649D02*
X020444Y004649D01*
X020444Y004748D02*
X020384Y004748D01*
X020343Y004847D02*
X020444Y004847D01*
X020444Y004945D02*
X020254Y004945D01*
X020113Y005044D02*
X020444Y005044D01*
X020444Y005142D02*
X020228Y005142D01*
X020327Y005241D02*
X020444Y005241D01*
X020444Y005339D02*
X020373Y005339D01*
X020414Y005438D02*
X020444Y005438D01*
X020444Y005536D02*
X020419Y005536D01*
X020419Y005635D02*
X020444Y005635D01*
X020444Y005733D02*
X020390Y005733D01*
X020349Y005832D02*
X020444Y005832D01*
X020444Y005931D02*
X020268Y005931D01*
X020148Y006029D02*
X020444Y006029D01*
X020444Y006128D02*
X020186Y006128D01*
X020284Y006226D02*
X020444Y006226D01*
X020444Y006325D02*
X020346Y006325D01*
X020386Y006423D02*
X020444Y006423D01*
X020444Y006522D02*
X019929Y006522D01*
X019879Y006556D02*
X019879Y006856D01*
X020379Y007356D01*
X020379Y007756D01*
X020402Y007704D02*
X020444Y007704D01*
X020444Y007606D02*
X020419Y007606D01*
X020419Y007507D02*
X020444Y007507D01*
X020444Y007409D02*
X020402Y007409D01*
X020361Y007310D02*
X020444Y007310D01*
X020444Y007212D02*
X020298Y007212D01*
X020199Y007113D02*
X020444Y007113D01*
X020444Y007015D02*
X020131Y007015D01*
X020254Y006916D02*
X020444Y006916D01*
X020444Y006817D02*
X020333Y006817D01*
X020374Y006719D02*
X020444Y006719D01*
X020444Y006620D02*
X020399Y006620D01*
X019929Y006620D02*
X019829Y006620D01*
X019829Y006606D02*
X019829Y007016D01*
X019929Y007016D01*
X019929Y006606D01*
X019829Y006606D01*
X019829Y006506D01*
X019359Y006506D01*
X019359Y006453D01*
X019438Y006262D01*
X019584Y006115D01*
X019701Y006067D01*
X019573Y006014D01*
X019421Y005862D01*
X019339Y005664D01*
X019339Y005449D01*
X019421Y005250D01*
X019573Y005099D01*
X019675Y005056D01*
X019573Y005014D01*
X019421Y004862D01*
X019339Y004664D01*
X019339Y004507D01*
X019199Y004647D01*
X019199Y007315D01*
X019199Y007497D01*
X019149Y007547D01*
X019110Y007586D01*
X019339Y007586D01*
X019339Y007449D01*
X019421Y007250D01*
X019573Y007099D01*
X019701Y007045D01*
X019584Y006997D01*
X019438Y006851D01*
X019359Y006660D01*
X019359Y006606D01*
X019829Y006606D01*
X019829Y006522D02*
X019199Y006522D01*
X019199Y006620D02*
X019359Y006620D01*
X019383Y006719D02*
X019199Y006719D01*
X019199Y006817D02*
X019424Y006817D01*
X019503Y006916D02*
X019199Y006916D01*
X019199Y007015D02*
X019626Y007015D01*
X019558Y007113D02*
X019199Y007113D01*
X019199Y007212D02*
X019460Y007212D01*
X019396Y007310D02*
X019199Y007310D01*
X019199Y007409D02*
X019355Y007409D01*
X019339Y007507D02*
X019189Y007507D01*
X018979Y007406D02*
X018929Y007456D01*
X018279Y007456D01*
X017579Y008156D01*
X017579Y008495D01*
X017568Y008506D01*
X017368Y008506D01*
X017350Y008524D01*
X017350Y008724D01*
X016279Y008724D01*
X015779Y008724D02*
X015779Y009256D01*
X015779Y010206D01*
X015979Y010406D01*
X016879Y010406D01*
X017129Y010156D01*
X017128Y009956D01*
X017278Y009806D01*
X017279Y009806D01*
X017329Y010406D02*
X017829Y010406D01*
X017829Y009506D01*
X018279Y009056D01*
X019229Y009056D01*
X019414Y009182D02*
X019489Y009182D01*
X019512Y009084D02*
X019608Y009084D01*
X019408Y009281D02*
X018365Y009281D01*
X017979Y009006D02*
X017829Y009156D01*
X016829Y009156D01*
X016679Y009306D01*
X016679Y009606D01*
X016179Y010106D01*
X015759Y010497D02*
X015559Y010297D01*
X015559Y010115D01*
X015559Y009529D01*
X015484Y009453D01*
X015431Y009326D01*
X015431Y009187D01*
X015448Y009144D01*
X015058Y009144D01*
X015029Y009115D01*
X014999Y009144D01*
X014558Y009144D01*
X014529Y009115D01*
X014499Y009144D01*
X014058Y009144D01*
X014029Y009115D01*
X013999Y009144D01*
X013558Y009144D01*
X013515Y009101D01*
X013491Y009124D01*
X013304Y009124D01*
X013304Y008750D01*
X013254Y008750D01*
X013254Y009124D01*
X013201Y009124D01*
X013227Y009187D01*
X013227Y009326D01*
X013174Y009453D01*
X013076Y009551D01*
X013049Y009563D01*
X013049Y010265D01*
X013470Y010686D01*
X014488Y010686D01*
X014670Y010686D01*
X015270Y011286D01*
X015685Y011286D01*
X015681Y011276D01*
X015681Y011254D01*
X015660Y011254D01*
X015532Y011201D01*
X015434Y011103D01*
X015381Y010976D01*
X015381Y010837D01*
X015434Y010709D01*
X015532Y010611D01*
X015660Y010558D01*
X015766Y010558D01*
X015793Y010531D01*
X015759Y010497D01*
X015725Y010464D02*
X013247Y010464D01*
X013346Y010562D02*
X015650Y010562D01*
X015482Y010661D02*
X013444Y010661D01*
X013379Y010906D02*
X014579Y010906D01*
X015179Y011506D01*
X017629Y011506D01*
X017729Y011456D01*
X017729Y011106D02*
X018029Y011106D01*
X019229Y012306D01*
X019455Y012040D02*
X020444Y012040D01*
X020444Y011942D02*
X019175Y011942D01*
X019077Y011843D02*
X020444Y011843D01*
X020444Y011745D02*
X018978Y011745D01*
X018880Y011646D02*
X020444Y011646D01*
X020444Y011548D02*
X018781Y011548D01*
X018683Y011449D02*
X020444Y011449D01*
X020444Y011350D02*
X018584Y011350D01*
X018486Y011252D02*
X020444Y011252D01*
X020444Y011153D02*
X020396Y011153D01*
X020406Y011144D02*
X020318Y011232D01*
X020069Y011232D01*
X020069Y010856D01*
X019969Y010856D01*
X019969Y010756D01*
X020069Y010756D01*
X020069Y010381D01*
X020318Y010381D01*
X020406Y010469D01*
X020406Y010756D01*
X020069Y010756D01*
X020069Y010856D01*
X020406Y010856D01*
X020406Y011144D01*
X020406Y011055D02*
X020444Y011055D01*
X020444Y010956D02*
X020406Y010956D01*
X020406Y010858D02*
X020444Y010858D01*
X020444Y010759D02*
X020069Y010759D01*
X020069Y010661D02*
X019969Y010661D01*
X019969Y010756D02*
X019969Y010381D01*
X019721Y010381D01*
X019633Y010469D01*
X019633Y010756D01*
X019969Y010756D01*
X019969Y010759D02*
X019244Y010759D01*
X019244Y010661D02*
X019633Y010661D01*
X019633Y010562D02*
X019244Y010562D01*
X019244Y010464D02*
X019638Y010464D01*
X019969Y010464D02*
X020069Y010464D01*
X020069Y010562D02*
X019969Y010562D01*
X019969Y010856D02*
X019633Y010856D01*
X019633Y011144D01*
X019721Y011232D01*
X019969Y011232D01*
X019969Y010856D01*
X019969Y010858D02*
X020069Y010858D01*
X020069Y010956D02*
X019969Y010956D01*
X019969Y011055D02*
X020069Y011055D01*
X020069Y011153D02*
X019969Y011153D01*
X019642Y011153D02*
X019243Y011153D01*
X019244Y011055D02*
X019633Y011055D01*
X019633Y010956D02*
X019244Y010956D01*
X019244Y010858D02*
X019633Y010858D01*
X019149Y010365D02*
X020444Y010365D01*
X020444Y010464D02*
X020401Y010464D01*
X020406Y010562D02*
X020444Y010562D01*
X020444Y010661D02*
X020406Y010661D01*
X020444Y010266D02*
X018829Y010266D01*
X018865Y010168D02*
X020444Y010168D01*
X020444Y010069D02*
X020051Y010069D01*
X020228Y009971D02*
X020444Y009971D01*
X020444Y009872D02*
X020326Y009872D01*
X020373Y009774D02*
X020444Y009774D01*
X020444Y009675D02*
X020414Y009675D01*
X020419Y009577D02*
X020444Y009577D01*
X020444Y009478D02*
X020419Y009478D01*
X020444Y009380D02*
X020390Y009380D01*
X020349Y009281D02*
X020444Y009281D01*
X020444Y009182D02*
X020269Y009182D01*
X020149Y009084D02*
X020444Y009084D01*
X020444Y008985D02*
X020213Y008985D01*
X020185Y009014D02*
X020083Y009056D01*
X020185Y009014D02*
X020337Y008862D01*
X020419Y008664D01*
X020419Y008449D01*
X020337Y008250D01*
X020355Y008296D02*
X020444Y008296D01*
X020444Y008394D02*
X020396Y008394D01*
X020419Y008493D02*
X020444Y008493D01*
X020444Y008591D02*
X020419Y008591D01*
X020408Y008690D02*
X020444Y008690D01*
X020444Y008788D02*
X020367Y008788D01*
X020312Y008887D02*
X020444Y008887D01*
X019367Y009380D02*
X018863Y009380D01*
X018865Y009478D02*
X019339Y009478D01*
X019339Y009577D02*
X018865Y009577D01*
X018865Y009675D02*
X019344Y009675D01*
X019384Y009774D02*
X018865Y009774D01*
X018865Y009872D02*
X019431Y009872D01*
X019530Y009971D02*
X018865Y009971D01*
X018865Y010069D02*
X019706Y010069D01*
X018838Y010806D02*
X018380Y010348D01*
X018380Y009806D01*
X018160Y010365D02*
X018049Y010365D01*
X018049Y010461D02*
X018049Y010461D01*
X018051Y010464D02*
X018184Y010464D01*
X018149Y010562D02*
X018283Y010562D01*
X018381Y010661D02*
X018149Y010661D01*
X018149Y010759D02*
X018432Y010759D01*
X018432Y010858D02*
X018149Y010858D01*
X018190Y010956D02*
X018432Y010956D01*
X018432Y011055D02*
X018288Y011055D01*
X018387Y011153D02*
X018433Y011153D01*
X017729Y010756D02*
X017379Y010756D01*
X016929Y011206D01*
X016029Y011206D01*
X015654Y011252D02*
X015236Y011252D01*
X015137Y011153D02*
X015484Y011153D01*
X015414Y011055D02*
X015038Y011055D01*
X014940Y010956D02*
X015381Y010956D01*
X015381Y010858D02*
X014841Y010858D01*
X014743Y010759D02*
X015413Y010759D01*
X015626Y010365D02*
X013149Y010365D01*
X013050Y010266D02*
X015559Y010266D01*
X015559Y010168D02*
X013049Y010168D01*
X013049Y010069D02*
X015559Y010069D01*
X015559Y009971D02*
X013049Y009971D01*
X013049Y009872D02*
X015559Y009872D01*
X015559Y009774D02*
X013049Y009774D01*
X013049Y009675D02*
X015559Y009675D01*
X015559Y009577D02*
X013049Y009577D01*
X013149Y009478D02*
X015508Y009478D01*
X015453Y009380D02*
X013205Y009380D01*
X013227Y009281D02*
X015431Y009281D01*
X015433Y009182D02*
X013225Y009182D01*
X013254Y009084D02*
X013304Y009084D01*
X013304Y008985D02*
X013254Y008985D01*
X013254Y008887D02*
X013304Y008887D01*
X013304Y008788D02*
X013254Y008788D01*
X012829Y008756D02*
X012829Y009256D01*
X012879Y009256D01*
X012829Y009256D02*
X012829Y010356D01*
X013379Y010906D01*
X013995Y011776D02*
X014029Y011857D01*
X014029Y012098D01*
X014043Y012112D01*
X014067Y012088D01*
X014254Y012088D01*
X014254Y012463D01*
X014304Y012463D01*
X014304Y012088D01*
X014491Y012088D01*
X014515Y012112D01*
X014519Y012108D01*
X014188Y011776D01*
X013995Y011776D01*
X014023Y011843D02*
X014255Y011843D01*
X014353Y011942D02*
X014029Y011942D01*
X014029Y012040D02*
X014452Y012040D01*
X014304Y012139D02*
X014254Y012139D01*
X014254Y012237D02*
X014304Y012237D01*
X014304Y012336D02*
X014254Y012336D01*
X014254Y012434D02*
X014304Y012434D01*
X014304Y012533D02*
X014254Y012533D01*
X014254Y012631D02*
X014304Y012631D01*
X014304Y012730D02*
X014254Y012730D01*
X014254Y012829D02*
X014304Y012829D01*
X014559Y012927D02*
X014029Y012927D01*
X014029Y013026D02*
X014559Y013026D01*
X014559Y013124D02*
X014029Y013124D01*
X014029Y013223D02*
X014559Y013223D01*
X014559Y013321D02*
X014029Y013321D01*
X014029Y013420D02*
X014559Y013420D01*
X014559Y013518D02*
X014029Y013518D01*
X014450Y013617D02*
X014559Y013617D01*
X014559Y013715D02*
X014453Y013715D01*
X014453Y013814D02*
X014559Y013814D01*
X014559Y013913D02*
X014453Y013913D01*
X014453Y014011D02*
X014559Y014011D01*
X014559Y014110D02*
X014453Y014110D01*
X014453Y014208D02*
X014559Y014208D01*
X014559Y014307D02*
X014453Y014307D01*
X014438Y014405D02*
X014559Y014405D01*
X014559Y014504D02*
X013479Y014504D01*
X013479Y014602D02*
X014559Y014602D01*
X014559Y014701D02*
X014404Y014701D01*
X014433Y014799D02*
X014559Y014799D01*
X014559Y014898D02*
X014433Y014898D01*
X014433Y014997D02*
X014559Y014997D01*
X014559Y015095D02*
X013979Y015095D01*
X013979Y014997D02*
X013879Y014997D01*
X013879Y014898D02*
X013979Y014898D01*
X013979Y014799D02*
X013879Y014799D01*
X013879Y014701D02*
X013979Y014701D01*
X013979Y015194D02*
X013879Y015194D01*
X013879Y015292D02*
X013979Y015292D01*
X013979Y015391D02*
X013879Y015391D01*
X013879Y015489D02*
X013979Y015489D01*
X014428Y015489D02*
X014559Y015489D01*
X014559Y015391D02*
X014433Y015391D01*
X014433Y015292D02*
X014559Y015292D01*
X014559Y015194D02*
X014433Y015194D01*
X014559Y015588D02*
X013479Y015588D01*
X013479Y015686D02*
X014559Y015686D01*
X014559Y015785D02*
X013479Y015785D01*
X013479Y015883D02*
X014559Y015883D01*
X014559Y015982D02*
X013479Y015982D01*
X013479Y016081D02*
X014559Y016081D01*
X014559Y016179D02*
X013555Y016179D01*
X013654Y016278D02*
X014559Y016278D01*
X014559Y016376D02*
X013752Y016376D01*
X013851Y016475D02*
X014559Y016475D01*
X014635Y016573D02*
X013949Y016573D01*
X014048Y016672D02*
X014733Y016672D01*
X014832Y016770D02*
X014146Y016770D01*
X014245Y016869D02*
X014930Y016869D01*
X015029Y016967D02*
X014343Y016967D01*
X014442Y017066D02*
X015127Y017066D01*
X015226Y017164D02*
X014540Y017164D01*
X014639Y017263D02*
X015324Y017263D01*
X015423Y017362D02*
X014738Y017362D01*
X014836Y017460D02*
X015522Y017460D01*
X016229Y017856D02*
X016879Y017856D01*
X016879Y018556D01*
X016229Y017856D02*
X014779Y016406D01*
X014779Y012488D01*
X014779Y012056D01*
X014279Y011556D01*
X012329Y011556D01*
X010529Y009756D01*
X007529Y009756D01*
X007179Y010356D02*
X007129Y010356D01*
X007129Y008606D01*
X007059Y007507D02*
X006959Y007507D01*
X006860Y007409D02*
X007157Y007409D01*
X007648Y007409D02*
X007945Y007409D01*
X007846Y007507D02*
X007746Y007507D01*
X007963Y007223D02*
X007963Y006856D01*
X008377Y006856D01*
X008378Y006856D02*
X008378Y007311D01*
X008051Y007311D01*
X007963Y007223D01*
X007963Y007212D02*
X005627Y007212D01*
X005528Y007310D02*
X008050Y007310D01*
X007963Y007113D02*
X005726Y007113D01*
X005824Y007015D02*
X007963Y007015D01*
X007963Y006916D02*
X005875Y006916D01*
X005879Y006817D02*
X008377Y006817D01*
X008378Y006916D02*
X008478Y006916D01*
X008478Y006817D02*
X009045Y006817D01*
X009045Y006719D02*
X008893Y006719D01*
X008893Y006620D02*
X009045Y006620D01*
X009045Y006522D02*
X008893Y006522D01*
X008893Y006423D02*
X009045Y006423D01*
X009045Y006325D02*
X008913Y006325D01*
X008913Y006226D02*
X009045Y006226D01*
X009045Y006128D02*
X008913Y006128D01*
X008913Y006029D02*
X009045Y006029D01*
X009045Y005931D02*
X008913Y005931D01*
X008913Y005832D02*
X009045Y005832D01*
X009045Y005733D02*
X008913Y005733D01*
X008913Y005635D02*
X009045Y005635D01*
X009045Y005536D02*
X008913Y005536D01*
X008869Y005438D02*
X009089Y005438D01*
X009971Y005438D02*
X010059Y005438D01*
X010059Y005536D02*
X010015Y005536D01*
X010015Y005635D02*
X010059Y005635D01*
X010059Y005733D02*
X010015Y005733D01*
X010015Y005832D02*
X010059Y005832D01*
X009045Y006916D02*
X008893Y006916D01*
X008893Y007015D02*
X009045Y007015D01*
X009045Y007113D02*
X008893Y007113D01*
X008893Y007212D02*
X009045Y007212D01*
X009124Y007310D02*
X008805Y007310D01*
X008732Y007409D02*
X008435Y007409D01*
X008478Y007310D02*
X008378Y007310D01*
X008378Y007212D02*
X008478Y007212D01*
X008478Y007113D02*
X008378Y007113D01*
X008378Y007015D02*
X008478Y007015D01*
X008534Y007507D02*
X008634Y007507D01*
X009222Y007409D02*
X009265Y007409D01*
X010279Y008456D02*
X010279Y008724D01*
X010279Y008456D02*
X010529Y008206D01*
X010529Y004456D01*
X009429Y003356D01*
X008529Y003356D01*
X007879Y002706D01*
X007879Y002556D01*
X008879Y002556D02*
X008879Y002806D01*
X009179Y003106D01*
X009829Y003106D01*
X010779Y004056D01*
X010779Y008724D01*
X011279Y008724D02*
X011279Y008456D01*
X011029Y008206D01*
X011029Y003906D01*
X009879Y002756D01*
X009879Y002556D01*
X010879Y002556D02*
X010879Y003006D01*
X011329Y003456D01*
X011329Y006156D01*
X012079Y006906D01*
X012079Y008156D01*
X011779Y008456D01*
X011779Y008724D01*
X011620Y008304D02*
X011558Y008304D01*
X011529Y008334D01*
X011499Y008304D01*
X011438Y008304D01*
X011370Y008236D01*
X011294Y008161D01*
X011478Y008161D01*
X011478Y007706D01*
X011578Y007706D01*
X011578Y008161D01*
X011763Y008161D01*
X011688Y008236D01*
X011620Y008304D01*
X011628Y008296D02*
X011429Y008296D01*
X011331Y008197D02*
X011727Y008197D01*
X011578Y008099D02*
X011478Y008099D01*
X011478Y008000D02*
X011578Y008000D01*
X011578Y007901D02*
X011478Y007901D01*
X011478Y007803D02*
X011578Y007803D01*
X011578Y007606D02*
X011578Y007152D01*
X011859Y007152D01*
X011859Y006997D01*
X011249Y006387D01*
X011249Y007152D01*
X011478Y007152D01*
X011478Y007606D01*
X011578Y007606D01*
X011478Y007606D01*
X011478Y007507D02*
X011578Y007507D01*
X011578Y007409D02*
X011478Y007409D01*
X011478Y007310D02*
X011578Y007310D01*
X011578Y007212D02*
X011478Y007212D01*
X011249Y007113D02*
X011859Y007113D01*
X011859Y007015D02*
X011249Y007015D01*
X011249Y006916D02*
X011777Y006916D01*
X011679Y006817D02*
X011249Y006817D01*
X011249Y006719D02*
X011580Y006719D01*
X011482Y006620D02*
X011249Y006620D01*
X011249Y006522D02*
X011383Y006522D01*
X011285Y006423D02*
X011249Y006423D01*
X011979Y006106D02*
X012629Y006756D01*
X012629Y007656D01*
X012630Y007656D01*
X012630Y007707D01*
X012629Y007706D01*
X012629Y008056D01*
X012829Y008256D01*
X013429Y008256D01*
X013829Y008656D01*
X013779Y008724D01*
X014279Y008724D02*
X014279Y008407D01*
X013528Y007656D01*
X013528Y006457D01*
X013879Y006106D01*
X013879Y005456D01*
X015879Y003456D01*
X015879Y002556D01*
X016379Y002760D02*
X016337Y002862D01*
X016185Y003014D01*
X016099Y003050D01*
X016099Y003365D01*
X016099Y003547D01*
X014099Y005547D01*
X014099Y005732D01*
X014122Y005742D01*
X014243Y005863D01*
X014309Y006021D01*
X014309Y006192D01*
X014243Y006350D01*
X014122Y006471D01*
X013964Y006536D01*
X013793Y006536D01*
X013770Y006526D01*
X013748Y006549D01*
X013748Y007132D01*
X013913Y007132D01*
X014013Y007232D01*
X014013Y007830D01*
X014165Y007983D01*
X014165Y007706D01*
X014580Y007706D01*
X014580Y007606D01*
X014680Y007606D01*
X014580Y007606D01*
X014580Y007152D01*
X014253Y007152D01*
X014165Y007240D01*
X014165Y007606D01*
X014013Y007606D01*
X014013Y007704D02*
X014580Y007704D01*
X014580Y007706D02*
X014580Y008161D01*
X014343Y008161D01*
X014487Y008304D01*
X014499Y008304D01*
X014529Y008334D01*
X014558Y008304D01*
X014559Y008304D01*
X014559Y008265D01*
X014680Y008144D01*
X014680Y007706D01*
X015095Y007706D01*
X015095Y007786D01*
X015220Y007786D01*
X016251Y007786D01*
X016214Y007750D01*
X016149Y007592D01*
X016149Y007421D01*
X016165Y007382D01*
X015404Y007382D01*
X015304Y007283D01*
X015304Y006512D01*
X015404Y006413D01*
X016254Y006413D01*
X016353Y006512D01*
X016353Y006636D01*
X016488Y006636D01*
X016659Y006465D01*
X016659Y003050D01*
X016573Y003014D01*
X016421Y002862D01*
X016379Y002760D01*
X016372Y002777D02*
X016386Y002777D01*
X016435Y002876D02*
X016323Y002876D01*
X016224Y002974D02*
X016533Y002974D01*
X016659Y003073D02*
X016099Y003073D01*
X016099Y003171D02*
X016659Y003171D01*
X016659Y003270D02*
X016099Y003270D01*
X016099Y003368D02*
X016659Y003368D01*
X016659Y003467D02*
X016099Y003467D01*
X016081Y003566D02*
X016659Y003566D01*
X016659Y003664D02*
X015982Y003664D01*
X015884Y003763D02*
X016659Y003763D01*
X016659Y003861D02*
X015785Y003861D01*
X015686Y003960D02*
X016659Y003960D01*
X016659Y004058D02*
X015588Y004058D01*
X015489Y004157D02*
X016659Y004157D01*
X016659Y004255D02*
X015391Y004255D01*
X015292Y004354D02*
X016659Y004354D01*
X016659Y004452D02*
X015194Y004452D01*
X015095Y004551D02*
X016659Y004551D01*
X016659Y004649D02*
X014997Y004649D01*
X014898Y004748D02*
X016659Y004748D01*
X016659Y004847D02*
X014800Y004847D01*
X014701Y004945D02*
X016659Y004945D01*
X016659Y005044D02*
X014603Y005044D01*
X014504Y005142D02*
X016659Y005142D01*
X016659Y005241D02*
X014405Y005241D01*
X014307Y005339D02*
X015403Y005339D01*
X015412Y005330D02*
X015779Y005330D01*
X015779Y005745D01*
X015879Y005745D01*
X015879Y005845D01*
X016333Y005845D01*
X016333Y006172D01*
X016245Y006260D01*
X015879Y006260D01*
X015879Y005845D01*
X015779Y005845D01*
X015779Y006260D01*
X015412Y006260D01*
X015324Y006172D01*
X015324Y005845D01*
X015779Y005845D01*
X015779Y005745D01*
X015324Y005745D01*
X015324Y005418D01*
X015412Y005330D01*
X015324Y005438D02*
X014208Y005438D01*
X014110Y005536D02*
X015324Y005536D01*
X015324Y005635D02*
X014099Y005635D01*
X014102Y005733D02*
X015324Y005733D01*
X015324Y005931D02*
X014271Y005931D01*
X014309Y006029D02*
X015324Y006029D01*
X015324Y006128D02*
X014309Y006128D01*
X014295Y006226D02*
X015378Y006226D01*
X015393Y006423D02*
X014170Y006423D01*
X014254Y006325D02*
X016659Y006325D01*
X016659Y006423D02*
X016264Y006423D01*
X016353Y006522D02*
X016602Y006522D01*
X016504Y006620D02*
X016353Y006620D01*
X016579Y006856D02*
X016879Y006556D01*
X016879Y002556D01*
X017379Y002760D02*
X017337Y002862D01*
X017185Y003014D01*
X017099Y003050D01*
X017099Y006465D01*
X017099Y006647D01*
X016799Y006947D01*
X016799Y007132D01*
X016822Y007142D01*
X016943Y007263D01*
X017009Y007421D01*
X017009Y007592D01*
X016992Y007632D01*
X017149Y007475D01*
X017149Y007421D01*
X017214Y007263D01*
X017335Y007142D01*
X017359Y007132D01*
X017359Y006815D01*
X017488Y006686D01*
X017559Y006686D01*
X017559Y005215D01*
X017659Y005115D01*
X017659Y003050D01*
X017573Y003014D01*
X017421Y002862D01*
X017379Y002760D01*
X017372Y002777D02*
X017386Y002777D01*
X017435Y002876D02*
X017323Y002876D01*
X017224Y002974D02*
X017533Y002974D01*
X017659Y003073D02*
X017099Y003073D01*
X017099Y003171D02*
X017659Y003171D01*
X017659Y003270D02*
X017099Y003270D01*
X017099Y003368D02*
X017659Y003368D01*
X017659Y003467D02*
X017099Y003467D01*
X017099Y003566D02*
X017659Y003566D01*
X017659Y003664D02*
X017099Y003664D01*
X017099Y003763D02*
X017659Y003763D01*
X017659Y003861D02*
X017099Y003861D01*
X017099Y003960D02*
X017659Y003960D01*
X017659Y004058D02*
X017099Y004058D01*
X017099Y004157D02*
X017659Y004157D01*
X017659Y004255D02*
X017099Y004255D01*
X017099Y004354D02*
X017659Y004354D01*
X017659Y004452D02*
X017099Y004452D01*
X017099Y004551D02*
X017659Y004551D01*
X017659Y004649D02*
X017099Y004649D01*
X017099Y004748D02*
X017659Y004748D01*
X017659Y004847D02*
X017099Y004847D01*
X017099Y004945D02*
X017659Y004945D01*
X017659Y005044D02*
X017099Y005044D01*
X017099Y005142D02*
X017632Y005142D01*
X017559Y005241D02*
X017099Y005241D01*
X017099Y005339D02*
X017559Y005339D01*
X017559Y005438D02*
X017099Y005438D01*
X017099Y005536D02*
X017559Y005536D01*
X017559Y005635D02*
X017099Y005635D01*
X017099Y005733D02*
X017559Y005733D01*
X017559Y005832D02*
X017099Y005832D01*
X017099Y005931D02*
X017559Y005931D01*
X017559Y006029D02*
X017099Y006029D01*
X017099Y006128D02*
X017559Y006128D01*
X017559Y006226D02*
X017099Y006226D01*
X017099Y006325D02*
X017559Y006325D01*
X017559Y006423D02*
X017099Y006423D01*
X017099Y006522D02*
X017559Y006522D01*
X017559Y006620D02*
X017099Y006620D01*
X017027Y006719D02*
X017455Y006719D01*
X017359Y006817D02*
X016929Y006817D01*
X016830Y006916D02*
X017359Y006916D01*
X017359Y007015D02*
X016799Y007015D01*
X016799Y007113D02*
X017359Y007113D01*
X017265Y007212D02*
X016892Y007212D01*
X016963Y007310D02*
X017195Y007310D01*
X017154Y007409D02*
X017004Y007409D01*
X017009Y007507D02*
X017117Y007507D01*
X017018Y007606D02*
X017003Y007606D01*
X016579Y007506D02*
X016579Y006856D01*
X015870Y006856D01*
X015829Y006897D01*
X015304Y006916D02*
X013748Y006916D01*
X013748Y006817D02*
X015304Y006817D01*
X015304Y006719D02*
X013748Y006719D01*
X013748Y006620D02*
X015304Y006620D01*
X015304Y006522D02*
X013999Y006522D01*
X013748Y007015D02*
X015304Y007015D01*
X015304Y007113D02*
X013748Y007113D01*
X013993Y007212D02*
X014193Y007212D01*
X014165Y007310D02*
X014013Y007310D01*
X014013Y007409D02*
X014165Y007409D01*
X014165Y007507D02*
X014013Y007507D01*
X014165Y007606D02*
X014580Y007606D01*
X014580Y007507D02*
X014680Y007507D01*
X014680Y007409D02*
X014580Y007409D01*
X014580Y007310D02*
X014680Y007310D01*
X014680Y007212D02*
X014580Y007212D01*
X014680Y007152D02*
X015007Y007152D01*
X015095Y007240D01*
X015095Y007606D01*
X016155Y007606D01*
X016149Y007507D02*
X015095Y007507D01*
X015095Y007409D02*
X016154Y007409D01*
X016195Y007704D02*
X014680Y007704D01*
X014680Y007706D02*
X014680Y007606D01*
X014680Y007152D01*
X015067Y007212D02*
X015304Y007212D01*
X015332Y007310D02*
X015095Y007310D01*
X015095Y007606D02*
X014680Y007606D01*
X014680Y007706D02*
X014580Y007706D01*
X014580Y007803D02*
X014680Y007803D01*
X014680Y007901D02*
X014580Y007901D01*
X014580Y008000D02*
X014680Y008000D01*
X014680Y008099D02*
X014580Y008099D01*
X014627Y008197D02*
X014379Y008197D01*
X014478Y008296D02*
X014559Y008296D01*
X014779Y008356D02*
X014779Y008724D01*
X014779Y008356D02*
X015129Y008006D01*
X016529Y008006D01*
X016579Y007956D01*
X016579Y007506D01*
X016729Y008206D02*
X017429Y007506D01*
X017579Y007506D01*
X017579Y006906D01*
X017779Y006906D01*
X017779Y005306D01*
X017879Y005206D01*
X017879Y002556D01*
X018379Y002760D02*
X018337Y002862D01*
X018185Y003014D01*
X018099Y003050D01*
X018099Y005115D01*
X018099Y005297D01*
X018066Y005330D01*
X018299Y005330D01*
X018299Y005745D01*
X018399Y005745D01*
X018399Y005330D01*
X018759Y005330D01*
X018759Y004465D01*
X018870Y004354D01*
X018860Y004354D01*
X018732Y004301D01*
X018634Y004203D01*
X018581Y004076D01*
X018581Y003937D01*
X018634Y003809D01*
X018709Y003734D01*
X018709Y003070D01*
X018573Y003014D01*
X018421Y002862D01*
X018379Y002760D01*
X018372Y002777D02*
X018386Y002777D01*
X018435Y002876D02*
X018323Y002876D01*
X018224Y002974D02*
X018533Y002974D01*
X018709Y003073D02*
X018099Y003073D01*
X018099Y003171D02*
X018709Y003171D01*
X018709Y003270D02*
X018099Y003270D01*
X018099Y003368D02*
X018709Y003368D01*
X018709Y003467D02*
X018099Y003467D01*
X018099Y003566D02*
X018709Y003566D01*
X018709Y003664D02*
X018099Y003664D01*
X018099Y003763D02*
X018680Y003763D01*
X018612Y003861D02*
X018099Y003861D01*
X018099Y003960D02*
X018581Y003960D01*
X018581Y004058D02*
X018099Y004058D01*
X018099Y004157D02*
X018614Y004157D01*
X018686Y004255D02*
X018099Y004255D01*
X018099Y004354D02*
X018858Y004354D01*
X018772Y004452D02*
X018099Y004452D01*
X018099Y004551D02*
X018759Y004551D01*
X018759Y004649D02*
X018099Y004649D01*
X018099Y004748D02*
X018759Y004748D01*
X018759Y004847D02*
X018099Y004847D01*
X018099Y004945D02*
X018759Y004945D01*
X018759Y005044D02*
X018099Y005044D01*
X018099Y005142D02*
X018759Y005142D01*
X018759Y005241D02*
X018099Y005241D01*
X018299Y005339D02*
X018399Y005339D01*
X018399Y005438D02*
X018299Y005438D01*
X018299Y005536D02*
X018399Y005536D01*
X018399Y005635D02*
X018299Y005635D01*
X018299Y005733D02*
X018399Y005733D01*
X018399Y005845D02*
X018299Y005845D01*
X018299Y006260D01*
X017999Y006260D01*
X017999Y006413D01*
X018759Y006413D01*
X018759Y006260D01*
X018399Y006260D01*
X018399Y005845D01*
X018399Y005931D02*
X018299Y005931D01*
X018299Y006029D02*
X018399Y006029D01*
X018399Y006128D02*
X018299Y006128D01*
X018299Y006226D02*
X018399Y006226D01*
X018759Y006325D02*
X017999Y006325D01*
X017779Y006906D02*
X018329Y006906D01*
X018349Y006897D01*
X018979Y007406D02*
X018979Y004556D01*
X019879Y003656D01*
X019879Y002556D01*
X018929Y002606D02*
X018879Y002556D01*
X018929Y002606D02*
X018929Y004006D01*
X019295Y004551D02*
X019339Y004551D01*
X019339Y004649D02*
X019199Y004649D01*
X019199Y004748D02*
X019374Y004748D01*
X019415Y004847D02*
X019199Y004847D01*
X019199Y004945D02*
X019504Y004945D01*
X019644Y005044D02*
X019199Y005044D01*
X019199Y005142D02*
X019529Y005142D01*
X019431Y005241D02*
X019199Y005241D01*
X019199Y005339D02*
X019384Y005339D01*
X019343Y005438D02*
X019199Y005438D01*
X019199Y005536D02*
X019339Y005536D01*
X019339Y005635D02*
X019199Y005635D01*
X019199Y005733D02*
X019368Y005733D01*
X019409Y005832D02*
X019199Y005832D01*
X019199Y005931D02*
X019489Y005931D01*
X019609Y006029D02*
X019199Y006029D01*
X019199Y006128D02*
X019572Y006128D01*
X019474Y006226D02*
X019199Y006226D01*
X019199Y006325D02*
X019412Y006325D01*
X019371Y006423D02*
X019199Y006423D01*
X019829Y006719D02*
X019929Y006719D01*
X019929Y006817D02*
X019829Y006817D01*
X019829Y006916D02*
X019929Y006916D01*
X019929Y007015D02*
X019829Y007015D01*
X019879Y007556D02*
X019629Y007806D01*
X018329Y007806D01*
X017979Y008156D01*
X017979Y009006D01*
X017579Y008506D02*
X017368Y008506D01*
X016729Y008206D02*
X015279Y008206D01*
X015279Y008724D01*
X014165Y007901D02*
X014084Y007901D01*
X014013Y007803D02*
X014165Y007803D01*
X012829Y008756D02*
X012779Y008724D01*
X012279Y008724D02*
X012279Y009106D01*
X012429Y009256D01*
X012629Y007706D02*
X012629Y007657D01*
X011979Y006106D02*
X014879Y003206D01*
X014879Y002556D01*
X014659Y003050D02*
X014573Y003014D01*
X014421Y002862D01*
X014368Y002734D01*
X014320Y002851D01*
X014173Y002997D01*
X013982Y003076D01*
X013929Y003076D01*
X013929Y002606D01*
X013829Y002606D01*
X013829Y003076D01*
X013775Y003076D01*
X013584Y002997D01*
X013438Y002851D01*
X013390Y002734D01*
X013337Y002862D01*
X013185Y003014D01*
X013099Y003050D01*
X013099Y004484D01*
X013174Y004559D01*
X013186Y004588D01*
X014659Y003115D01*
X014659Y003050D01*
X014659Y003073D02*
X013991Y003073D01*
X013929Y003073D02*
X013829Y003073D01*
X013767Y003073D02*
X013099Y003073D01*
X013099Y003171D02*
X014603Y003171D01*
X014504Y003270D02*
X013099Y003270D01*
X013099Y003368D02*
X014406Y003368D01*
X014307Y003467D02*
X013099Y003467D01*
X013099Y003566D02*
X014208Y003566D01*
X014110Y003664D02*
X013099Y003664D01*
X013099Y003763D02*
X014011Y003763D01*
X013913Y003861D02*
X013099Y003861D01*
X013099Y003960D02*
X013814Y003960D01*
X013716Y004058D02*
X013099Y004058D01*
X013099Y004157D02*
X013617Y004157D01*
X013519Y004255D02*
X013099Y004255D01*
X013099Y004354D02*
X013420Y004354D01*
X013322Y004452D02*
X013099Y004452D01*
X013166Y004551D02*
X013223Y004551D01*
X012879Y004756D02*
X012879Y002556D01*
X013372Y002777D02*
X013408Y002777D01*
X013463Y002876D02*
X013323Y002876D01*
X013224Y002974D02*
X013561Y002974D01*
X013829Y002974D02*
X013929Y002974D01*
X013929Y002876D02*
X013829Y002876D01*
X013829Y002777D02*
X013929Y002777D01*
X013929Y002679D02*
X013829Y002679D01*
X013829Y002506D02*
X013929Y002506D01*
X013929Y002036D01*
X013929Y001606D01*
X013829Y001606D01*
X013829Y002076D01*
X013829Y002506D01*
X013829Y002482D02*
X013929Y002482D01*
X013929Y002383D02*
X013829Y002383D01*
X013829Y002284D02*
X013929Y002284D01*
X013929Y002186D02*
X013829Y002186D01*
X013829Y002087D02*
X013929Y002087D01*
X013929Y001989D02*
X013829Y001989D01*
X013829Y001890D02*
X013929Y001890D01*
X013929Y001792D02*
X013829Y001792D01*
X013829Y001693D02*
X013929Y001693D01*
X013929Y001496D02*
X013829Y001496D01*
X013829Y001398D02*
X013929Y001398D01*
X013929Y001299D02*
X013829Y001299D01*
X013829Y001200D02*
X013929Y001200D01*
X013929Y001102D02*
X013829Y001102D01*
X013617Y001102D02*
X013188Y001102D01*
X013287Y001200D02*
X013499Y001200D01*
X013423Y001299D02*
X013357Y001299D01*
X014141Y001102D02*
X014569Y001102D01*
X014471Y001200D02*
X014258Y001200D01*
X014335Y001299D02*
X014401Y001299D01*
X015188Y001102D02*
X015569Y001102D01*
X015471Y001200D02*
X015287Y001200D01*
X015357Y001299D02*
X015401Y001299D01*
X016188Y001102D02*
X016569Y001102D01*
X016471Y001200D02*
X016287Y001200D01*
X016357Y001299D02*
X016401Y001299D01*
X017188Y001102D02*
X017569Y001102D01*
X017471Y001200D02*
X017287Y001200D01*
X017357Y001299D02*
X017401Y001299D01*
X018188Y001102D02*
X018569Y001102D01*
X018471Y001200D02*
X018287Y001200D01*
X018357Y001299D02*
X018401Y001299D01*
X019188Y001102D02*
X019569Y001102D01*
X019471Y001200D02*
X019287Y001200D01*
X019357Y001299D02*
X019401Y001299D01*
X016659Y005339D02*
X016254Y005339D01*
X016245Y005330D02*
X016333Y005418D01*
X016333Y005745D01*
X015879Y005745D01*
X015879Y005330D01*
X016245Y005330D01*
X016333Y005438D02*
X016659Y005438D01*
X016659Y005536D02*
X016333Y005536D01*
X016333Y005635D02*
X016659Y005635D01*
X016659Y005733D02*
X016333Y005733D01*
X016333Y005931D02*
X016659Y005931D01*
X016659Y006029D02*
X016333Y006029D01*
X016333Y006128D02*
X016659Y006128D01*
X016659Y006226D02*
X016279Y006226D01*
X015879Y006226D02*
X015779Y006226D01*
X015779Y006128D02*
X015879Y006128D01*
X015879Y006029D02*
X015779Y006029D01*
X015779Y005931D02*
X015879Y005931D01*
X015879Y005832D02*
X016659Y005832D01*
X015879Y005733D02*
X015779Y005733D01*
X015779Y005635D02*
X015879Y005635D01*
X015879Y005536D02*
X015779Y005536D01*
X015779Y005438D02*
X015879Y005438D01*
X015879Y005339D02*
X015779Y005339D01*
X015779Y005832D02*
X014213Y005832D01*
X011879Y004906D02*
X011879Y002556D01*
X012357Y001299D02*
X012401Y001299D01*
X012471Y001200D02*
X012287Y001200D01*
X012188Y001102D02*
X012569Y001102D01*
X011569Y001102D02*
X011188Y001102D01*
X011287Y001200D02*
X011471Y001200D01*
X011401Y001299D02*
X011357Y001299D01*
X010569Y001102D02*
X010188Y001102D01*
X010287Y001200D02*
X010471Y001200D01*
X010401Y001299D02*
X010357Y001299D01*
X009569Y001102D02*
X009188Y001102D01*
X009287Y001200D02*
X009471Y001200D01*
X009401Y001299D02*
X009357Y001299D01*
X008569Y001102D02*
X008188Y001102D01*
X008287Y001200D02*
X008471Y001200D01*
X008401Y001299D02*
X008357Y001299D01*
X007569Y001102D02*
X007188Y001102D01*
X007287Y001200D02*
X007471Y001200D01*
X007401Y001299D02*
X007357Y001299D01*
X005893Y004058D02*
X005374Y004058D01*
X005496Y004157D02*
X005893Y004157D01*
X005893Y004255D02*
X005563Y004255D01*
X005603Y004354D02*
X005893Y004354D01*
X005893Y004452D02*
X005778Y004452D01*
X005791Y004465D02*
X005791Y004465D01*
X005379Y004945D02*
X002649Y004945D01*
X002598Y004157D02*
X002812Y004157D01*
X002934Y004058D02*
X002629Y004058D01*
X002629Y003960D02*
X003179Y003960D01*
X003196Y002974D02*
X003533Y002974D01*
X003435Y002876D02*
X003295Y002876D01*
X003350Y002777D02*
X003386Y002777D01*
X002929Y002777D02*
X002829Y002777D01*
X002829Y002679D02*
X002929Y002679D01*
X002929Y002506D02*
X002929Y002036D01*
X002929Y001606D01*
X002829Y001606D01*
X002829Y002036D01*
X002829Y002506D01*
X002929Y002506D01*
X002929Y002482D02*
X002829Y002482D01*
X002829Y002383D02*
X002929Y002383D01*
X002929Y002284D02*
X002829Y002284D01*
X002829Y002186D02*
X002929Y002186D01*
X002929Y002087D02*
X002829Y002087D01*
X002829Y001989D02*
X002929Y001989D01*
X002929Y001890D02*
X002829Y001890D01*
X002829Y001792D02*
X002929Y001792D01*
X002929Y001693D02*
X002829Y001693D01*
X002829Y001496D02*
X002929Y001496D01*
X002929Y001398D02*
X002829Y001398D01*
X002829Y001299D02*
X002929Y001299D01*
X002929Y001200D02*
X002829Y001200D01*
X002829Y001102D02*
X002929Y001102D01*
X003141Y001102D02*
X003569Y001102D01*
X003471Y001200D02*
X003258Y001200D01*
X003335Y001299D02*
X003401Y001299D01*
X002617Y001102D02*
X002188Y001102D01*
X002287Y001200D02*
X002499Y001200D01*
X002423Y001299D02*
X002357Y001299D01*
X002372Y002777D02*
X002408Y002777D01*
X002463Y002876D02*
X002323Y002876D01*
X002224Y002974D02*
X002561Y002974D01*
X002829Y002974D02*
X002929Y002974D01*
X002929Y002876D02*
X002829Y002876D01*
X005338Y005044D02*
X005379Y005044D01*
X007369Y005832D02*
X007469Y005832D01*
X007469Y005931D02*
X007369Y005931D01*
X007369Y006029D02*
X007469Y006029D01*
X007469Y006325D02*
X007369Y006325D01*
X007369Y006423D02*
X007469Y006423D01*
X007469Y006522D02*
X007369Y006522D01*
X007369Y006620D02*
X007469Y006620D01*
X006370Y007409D02*
X006073Y007409D01*
X006171Y007507D02*
X006271Y007507D01*
X005582Y007409D02*
X005430Y007409D01*
X005384Y007507D02*
X005484Y007507D01*
X004150Y008788D02*
X003614Y008788D01*
X003633Y008690D02*
X004051Y008690D01*
X003953Y008591D02*
X003786Y008591D01*
X004029Y008356D02*
X003529Y008356D01*
X003529Y007831D01*
X003465Y007768D01*
X004029Y008356D02*
X005229Y009556D01*
X006079Y009556D01*
X005932Y009872D02*
X005785Y009872D01*
X005777Y009864D02*
X005865Y009952D01*
X005865Y010456D01*
X005529Y010456D01*
X005529Y010556D01*
X005865Y010556D01*
X005865Y011061D01*
X005777Y011148D01*
X005528Y011148D01*
X005528Y010556D01*
X005428Y010556D01*
X005428Y010456D01*
X005092Y010456D01*
X005092Y009952D01*
X005180Y009864D01*
X005428Y009864D01*
X005428Y010456D01*
X005528Y010456D01*
X005528Y009864D01*
X005777Y009864D01*
X005865Y009971D02*
X006054Y009971D01*
X006054Y010069D02*
X005865Y010069D01*
X005865Y010168D02*
X006054Y010168D01*
X006054Y010266D02*
X005865Y010266D01*
X005865Y010365D02*
X006054Y010365D01*
X006054Y010464D02*
X005529Y010464D01*
X005528Y010562D02*
X005428Y010562D01*
X005428Y010556D02*
X005428Y011148D01*
X005180Y011148D01*
X005092Y011061D01*
X005092Y010556D01*
X005428Y010556D01*
X005428Y010464D02*
X004585Y010464D01*
X004585Y010562D02*
X005092Y010562D01*
X005092Y010661D02*
X004585Y010661D01*
X004585Y010759D02*
X005092Y010759D01*
X005092Y010858D02*
X004585Y010858D01*
X004585Y010956D02*
X005092Y010956D01*
X005092Y011055D02*
X004585Y011055D01*
X004501Y011153D02*
X006054Y011153D01*
X006054Y011252D02*
X005817Y011252D01*
X005891Y011350D02*
X006054Y011350D01*
X006054Y011449D02*
X005927Y011449D01*
X005927Y011548D02*
X006054Y011548D01*
X006054Y011646D02*
X005898Y011646D01*
X005833Y011745D02*
X006054Y011745D01*
X006055Y011843D02*
X005908Y011843D01*
X005958Y011942D02*
X006153Y011942D01*
X005977Y012040D02*
X006421Y012040D01*
X006520Y012139D02*
X006065Y012139D01*
X006340Y012237D02*
X006618Y012237D01*
X006717Y012336D02*
X006354Y012336D01*
X006354Y012434D02*
X006815Y012434D01*
X006914Y012533D02*
X006354Y012533D01*
X006354Y012631D02*
X007012Y012631D01*
X007111Y012730D02*
X006354Y012730D01*
X006354Y012829D02*
X007209Y012829D01*
X007308Y012927D02*
X006354Y012927D01*
X006354Y013026D02*
X007354Y013026D01*
X007354Y013124D02*
X006354Y013124D01*
X006313Y013223D02*
X007354Y013223D01*
X007879Y013187D02*
X006579Y011887D01*
X006579Y011457D01*
X006072Y011055D02*
X005865Y011055D01*
X005865Y010956D02*
X007009Y010956D01*
X007009Y010858D02*
X005865Y010858D01*
X005865Y010759D02*
X006073Y010759D01*
X006054Y010661D02*
X005865Y010661D01*
X005865Y010562D02*
X006054Y010562D01*
X006579Y010356D02*
X006579Y010355D01*
X006579Y010356D02*
X007129Y010356D01*
X007179Y010356D02*
X007229Y010406D01*
X007229Y011406D01*
X007329Y011506D01*
X007232Y011843D02*
X007103Y011843D01*
X007142Y012139D02*
X007450Y012139D01*
X007339Y012336D02*
X008709Y012336D01*
X008709Y012434D02*
X007437Y012434D01*
X007536Y012533D02*
X008709Y012533D01*
X008709Y012631D02*
X007634Y012631D01*
X007733Y012730D02*
X008709Y012730D01*
X008626Y012829D02*
X008391Y012829D01*
X008403Y012927D02*
X008585Y012927D01*
X008581Y013026D02*
X008403Y013026D01*
X008403Y013124D02*
X008601Y013124D01*
X008653Y013223D02*
X008403Y013223D01*
X008403Y013321D02*
X008780Y013321D01*
X009109Y013420D02*
X008403Y013420D01*
X008403Y013518D02*
X009109Y013518D01*
X009109Y013617D02*
X008319Y013617D01*
X008333Y014110D02*
X008964Y014110D01*
X008866Y014208D02*
X008403Y014208D01*
X007879Y014506D02*
X007879Y014526D01*
X007354Y014208D02*
X007242Y014208D01*
X007143Y014110D02*
X007424Y014110D01*
X008929Y013006D02*
X008929Y011706D01*
X008829Y011706D01*
X008829Y011707D01*
X008709Y012237D02*
X007240Y012237D01*
X007929Y010606D02*
X007929Y010605D01*
X007929Y010606D02*
X008229Y010606D01*
X008229Y009956D01*
X009579Y009956D01*
X009829Y010206D01*
X010429Y010906D02*
X010679Y010906D01*
X011279Y011506D01*
X010779Y012488D02*
X010779Y013006D01*
X010779Y016156D01*
X008879Y018056D01*
X008879Y018556D01*
X009078Y013321D02*
X009109Y013321D01*
X005465Y013223D02*
X005413Y013223D01*
X004565Y013223D02*
X004484Y013223D01*
X004139Y013223D02*
X004039Y013223D01*
X004039Y013124D02*
X004139Y013124D01*
X004139Y013026D02*
X004039Y013026D01*
X004039Y012927D02*
X004139Y012927D01*
X004139Y012829D02*
X004039Y012829D01*
X004971Y011745D02*
X004987Y011745D01*
X005086Y011646D02*
X004872Y011646D01*
X004774Y011548D02*
X005184Y011548D01*
X005231Y011449D02*
X004675Y011449D01*
X004576Y011350D02*
X005267Y011350D01*
X005341Y011252D02*
X004478Y011252D01*
X004585Y010365D02*
X005092Y010365D01*
X005092Y010266D02*
X004585Y010266D01*
X004585Y010168D02*
X005092Y010168D01*
X005092Y010069D02*
X004585Y010069D01*
X004585Y009971D02*
X005092Y009971D01*
X005172Y009872D02*
X004514Y009872D01*
X004379Y009774D02*
X005135Y009774D01*
X005037Y009675D02*
X004379Y009675D01*
X004366Y009577D02*
X004938Y009577D01*
X004840Y009478D02*
X004304Y009478D01*
X004206Y009380D02*
X004741Y009380D01*
X004642Y009281D02*
X004107Y009281D01*
X004008Y009182D02*
X004544Y009182D01*
X004445Y009084D02*
X003910Y009084D01*
X003811Y008985D02*
X004347Y008985D01*
X004248Y008887D02*
X003713Y008887D01*
X002501Y009182D02*
X002190Y009182D01*
X002289Y009281D02*
X002529Y009281D01*
X002529Y009380D02*
X002348Y009380D01*
X002389Y009478D02*
X002529Y009478D01*
X002403Y009084D02*
X001299Y009084D01*
X001299Y009182D02*
X001567Y009182D01*
X001469Y009281D02*
X001299Y009281D01*
X001299Y009380D02*
X001410Y009380D01*
X001369Y009478D02*
X001299Y009478D01*
X001299Y008985D02*
X002304Y008985D01*
X002206Y008887D02*
X001299Y008887D01*
X001299Y008788D02*
X002107Y008788D01*
X002009Y008690D02*
X001299Y008690D01*
X001299Y008591D02*
X001943Y008591D01*
X001929Y008493D02*
X001299Y008493D01*
X001299Y008394D02*
X001929Y008394D01*
X001929Y008296D02*
X001299Y008296D01*
X001299Y008197D02*
X001929Y008197D01*
X001929Y008099D02*
X001299Y008099D01*
X001299Y008000D02*
X001929Y008000D01*
X001929Y007901D02*
X001299Y007901D01*
X001299Y007803D02*
X001929Y007803D01*
X001929Y007704D02*
X001299Y007704D01*
X001299Y007606D02*
X001724Y007606D01*
X001566Y007507D02*
X001299Y007507D01*
X001299Y007409D02*
X001470Y007409D01*
X001429Y007310D02*
X001299Y007310D01*
X001299Y007212D02*
X001389Y007212D01*
X001389Y007113D02*
X001299Y007113D01*
X001299Y007015D02*
X001389Y007015D01*
X001423Y006916D02*
X001299Y006916D01*
X001299Y006817D02*
X001464Y006817D01*
X001553Y006719D02*
X001299Y006719D01*
X001829Y009182D02*
X001929Y009182D01*
X001929Y009281D02*
X001829Y009281D01*
X001829Y009380D02*
X001929Y009380D01*
X005428Y009872D02*
X005528Y009872D01*
X005528Y009971D02*
X005428Y009971D01*
X005428Y010069D02*
X005528Y010069D01*
X005528Y010168D02*
X005428Y010168D01*
X005428Y010266D02*
X005528Y010266D01*
X005528Y010365D02*
X005428Y010365D01*
X005428Y010661D02*
X005528Y010661D01*
X005528Y010759D02*
X005428Y010759D01*
X005428Y010858D02*
X005528Y010858D01*
X005528Y010956D02*
X005428Y010956D01*
X005428Y011055D02*
X005528Y011055D01*
X014196Y002974D02*
X014533Y002974D01*
X014435Y002876D02*
X014295Y002876D01*
X014350Y002777D02*
X014386Y002777D01*
X017329Y010406D02*
X017029Y010706D01*
X015929Y010706D01*
X015729Y010906D01*
X015729Y012356D02*
X015779Y012488D01*
X016279Y012488D02*
X016279Y012696D01*
X017780Y014356D02*
X017795Y014341D01*
X017795Y014656D02*
X018029Y014656D01*
X018457Y014701D02*
X019009Y014701D01*
X019009Y014799D02*
X018457Y014799D01*
X018457Y014802D02*
X018457Y015140D01*
X018437Y015160D01*
X018437Y015286D01*
X017795Y015286D01*
X017795Y015286D01*
X018437Y015286D01*
X018437Y015441D01*
X018484Y015326D01*
X018582Y015228D01*
X018710Y015175D01*
X018848Y015175D01*
X018975Y015228D01*
X019009Y015262D01*
X019009Y014051D01*
X018975Y014084D01*
X018848Y014137D01*
X018710Y014137D01*
X018582Y014084D01*
X018484Y013987D01*
X018457Y013919D01*
X018457Y014172D01*
X018457Y014510D01*
X018457Y014802D01*
X018457Y014898D02*
X019009Y014898D01*
X019009Y014997D02*
X018457Y014997D01*
X018457Y015095D02*
X019009Y015095D01*
X019009Y015194D02*
X018892Y015194D01*
X018665Y015194D02*
X018437Y015194D01*
X018437Y015292D02*
X018518Y015292D01*
X018458Y015391D02*
X018437Y015391D01*
X018432Y015489D02*
X018394Y015489D01*
X018432Y015588D02*
X015874Y015588D01*
X015874Y015686D02*
X018471Y015686D01*
X017795Y015489D02*
X017794Y015489D01*
X017794Y015391D02*
X017795Y015391D01*
X017794Y015292D02*
X017795Y015292D01*
X017794Y015286D02*
X017794Y015286D01*
X017152Y015286D01*
X017794Y015286D01*
X017195Y015489D02*
X015874Y015489D01*
X015874Y015391D02*
X017152Y015391D01*
X017152Y015292D02*
X015874Y015292D01*
X015874Y015194D02*
X017152Y015194D01*
X017132Y015095D02*
X015874Y015095D01*
X015874Y014997D02*
X017132Y014997D01*
X017132Y014898D02*
X015874Y014898D01*
X015874Y014799D02*
X016347Y014799D01*
X016249Y014701D02*
X015874Y014701D01*
X015927Y014602D02*
X016150Y014602D01*
X016052Y014504D02*
X016025Y014504D01*
X018457Y014504D02*
X019009Y014504D01*
X019009Y014602D02*
X018457Y014602D01*
X018457Y014405D02*
X019009Y014405D01*
X019009Y014307D02*
X018457Y014307D01*
X018457Y014208D02*
X019009Y014208D01*
X019009Y014110D02*
X018915Y014110D01*
X018643Y014110D02*
X018457Y014110D01*
X018457Y014011D02*
X018509Y014011D01*
X019577Y012237D02*
X020444Y012237D01*
X020444Y012139D02*
X019536Y012139D01*
X017729Y017556D02*
X016629Y017556D01*
X017729Y017556D02*
X017879Y017706D01*
X017879Y018556D01*
X018352Y019825D02*
X018406Y019825D01*
X018483Y019924D02*
X018275Y019924D01*
X018165Y020022D02*
X018593Y020022D01*
X019165Y020022D02*
X019593Y020022D01*
X019483Y019924D02*
X019275Y019924D01*
X019352Y019825D02*
X019406Y019825D01*
X017593Y020022D02*
X017165Y020022D01*
X017275Y019924D02*
X017483Y019924D01*
X017406Y019825D02*
X017352Y019825D01*
X016593Y020022D02*
X016113Y020022D01*
X016247Y019924D02*
X016483Y019924D01*
X016406Y019825D02*
X016330Y019825D01*
X015929Y019924D02*
X015829Y019924D01*
X015829Y020022D02*
X015929Y020022D01*
D31*
X017279Y003656D03*
D32*
X018329Y003856D03*
X018929Y004006D03*
X019329Y005056D03*
X015779Y009256D03*
X016179Y010106D03*
X015729Y010906D03*
X016029Y011206D03*
X013729Y009556D03*
X012879Y009256D03*
X012429Y009256D03*
X010429Y010906D03*
X010179Y011456D03*
X010729Y011756D03*
X010779Y013006D03*
X009429Y011656D03*
X008929Y013006D03*
X007329Y011506D03*
X005579Y011506D03*
X005629Y012056D03*
X004029Y011806D03*
X006079Y009556D03*
X007529Y009756D03*
X007629Y008856D03*
X009429Y008756D03*
X009829Y010206D03*
X012729Y013006D03*
X013279Y013406D03*
X013179Y014906D03*
X012079Y015656D03*
X011729Y014606D03*
X017779Y013606D03*
X019229Y012306D03*
X020029Y012006D03*
X018729Y016156D03*
X014079Y006806D03*
X012879Y004756D03*
X011879Y004906D03*
X011479Y006856D03*
X006738Y003547D03*
X003529Y008356D03*
D33*
X015779Y012488D02*
X015779Y013906D01*
X015904Y014031D02*
X016529Y014656D01*
X017795Y014656D01*
X017780Y014356D02*
X016729Y014356D01*
X016379Y014006D01*
X016379Y013706D01*
X016169Y013497D02*
X016169Y012806D01*
X016279Y012696D01*
D34*
X017779Y013606D02*
X017779Y013956D01*
X017795Y014026D01*
X017679Y014006D01*
X013929Y014005D02*
X013729Y014006D01*
X013329Y014006D01*
X013229Y014106D01*
X013229Y014906D01*
X013179Y014906D01*
X013229Y014906D02*
X013229Y016206D01*
X014879Y017856D01*
X014879Y018556D01*
X013929Y014006D02*
X013929Y014005D01*
X013929Y014006D02*
X013779Y014006D01*
X013779Y012488D01*
X013779Y011906D01*
X012129Y011906D01*
X010779Y010556D01*
X008829Y010556D01*
X008829Y010605D01*
X008829Y010606D01*
X008529Y010606D01*
X008529Y011106D01*
X008229Y011406D01*
X008229Y011706D01*
X007929Y011706D01*
X007929Y011707D01*
X007529Y011706D01*
X007329Y011506D01*
X005879Y012306D02*
X005879Y012706D01*
X005889Y012716D01*
X005879Y012306D02*
X005629Y012056D01*
X005579Y011506D02*
X004979Y012106D01*
X004979Y012706D01*
X004989Y012716D01*
X004979Y012106D02*
X004179Y011306D01*
X004179Y010506D01*
X004129Y010456D01*
X004129Y009656D01*
X002679Y008206D01*
X002679Y007806D01*
X002678Y007768D01*
X002679Y007706D01*
X003129Y007256D01*
X005229Y007256D01*
X005629Y006856D01*
X005629Y004656D01*
X005579Y004606D01*
X005029Y004606D01*
X004879Y004456D01*
X003879Y003406D02*
X003429Y003856D01*
X003429Y004456D01*
X003879Y003406D02*
X003879Y002556D01*
X003879Y001622D02*
X003879Y001556D01*
X006738Y003547D02*
X007578Y004388D01*
X007578Y004556D01*
X004879Y006456D02*
X004349Y006986D01*
X002809Y006986D01*
X002189Y007606D01*
X002179Y007606D01*
X002179Y008506D01*
X002779Y009106D01*
X002779Y009706D01*
X003679Y010606D01*
X003679Y011456D01*
X004029Y011806D01*
X004179Y010506D02*
X004179Y010506D01*
X002678Y007768D02*
X002679Y007767D01*
X012279Y012488D02*
X012279Y012556D01*
X012329Y012556D01*
X012729Y012556D02*
X012729Y012488D01*
X012779Y012488D01*
M02*
