%
M48
M72
T01C0.0236
T02C0.0315
T03C0.0320
T04C0.0354
T05C0.0360
T06C0.0400
%
T01
X16597Y12466
X19697Y13026
X13657Y11926
X14857Y17086
X4377Y19006
X5777Y19046
X4997Y10906
X6477Y9146
X6697Y12706
X13317Y6876
X16567Y16236
X19037Y4856
X7967Y7326
X7797Y13406
X9547Y16931
X8797Y13406
X10447Y16006
X11597Y13406
X12247Y11706
X12897Y13806
X18497Y14756
X18657Y16816
X2647Y11406
X2647Y13156
X14347Y11756
X15047Y13056
X14997Y11706
X9797Y13406
X11297Y4056
X18147Y3606
X16097Y11706
X15597Y11706
X6997Y10306
X5997Y8506
X10197Y10306
X11097Y9206
X10247Y9456
X10897Y13406
X12097Y13466
X12097Y16406
X18907Y16346
X20047Y14166
X11597Y11706
X17197Y8356
X16567Y9136
X12077Y9276
X3017Y19726
X2397Y8906
X3247Y7156
X18697Y11106
X6506Y3547
X7547Y5406
X17997Y12156
X18897Y13456
X16897Y13606
X19697Y13656
X11297Y7006
X16667Y9686
X2547Y3656
X5397Y10156
X16547Y15656
X15747Y15456
X13427Y13466
X14097Y17506
X13047Y17556
X8597Y5906
X5447Y13856
X17427Y8816
X5847Y11056
X3797Y17706
X2207Y19056
X2247Y16056
X5797Y15306
X3597Y14106
X4297Y10256
T02
X2854Y7768
X3641Y7768
X4429Y7768
X5216Y7768
X6003Y7768
X6791Y7768
X7578Y7768
X8366Y7768
X9153Y7768
X9940Y7768
X9940Y16430
X9153Y16430
X8366Y16430
X7578Y16430
X6791Y16430
X6003Y16430
X5216Y16430
X4429Y16430
X3641Y16430
X2854Y16430
T03
X14147Y7206
X12247Y7206
X17347Y6806
X16347Y6806
T04
X18547Y13790
X18547Y15522
T05
X3597Y4406
X3597Y5406
X3597Y6406
X5297Y6406
X5297Y5406
X5297Y4406
T06
X1647Y19556
X1647Y18556
X1647Y17556
X1647Y16556
X1647Y15556
X1647Y14556
X1647Y8406
X1647Y9406
X1647Y10406
X1647Y11406
X1647Y12406
X1647Y13406
X1697Y7106
X1697Y6106
X6647Y2556
X7647Y2556
X8647Y2556
X9647Y2556
X10647Y2556
X11647Y2556
X12647Y2556
X13647Y2556
X14647Y2556
X15647Y2556
X16647Y2556
X17647Y2556
X18647Y2556
X19647Y2556
X19647Y19556
X18647Y19556
X17647Y19556
X16647Y19556
X15647Y19556
X14647Y19556
X13647Y19556
X12647Y19556
X11647Y19556
X10647Y19556
X9647Y19556
X8647Y19556
X7647Y19556
X6647Y19556
X19647Y18556
X18647Y18556
X17647Y18556
X16647Y18556
X15647Y18556
X14647Y18556
X13647Y18556
X12647Y18556
X11647Y18556
X10647Y18556
X9647Y18556
X8647Y18556
X7647Y18556
X6647Y18556
X6647Y1556
X7647Y1556
X8647Y1556
X9647Y1556
X10647Y1556
X11647Y1556
X12647Y1556
X13647Y1556
X14647Y1556
X15647Y1556
X16647Y1556
X17647Y1556
X18647Y1556
X19647Y1556
X1647Y1556
X2647Y1556
X3647Y1556
X1647Y2556
X2647Y2556
X3647Y2556
X1747Y5006
X1747Y3856
M30
