G75*
G70*
%OFA0B0*%
%FSLAX24Y24*%
%IPPOS*%
%LPD*%
%AMOC8*
5,1,8,0,0,1.08239X$1,22.5*
%
%ADD10C,0.0000*%
%ADD11R,0.0749X0.0670*%
%ADD12C,0.0780*%
%ADD13C,0.0560*%
%ADD14R,0.0670X0.0749*%
%ADD15R,0.0591X0.0512*%
%ADD16R,0.0340X0.0540*%
%ADD17R,0.0640X0.0340*%
%ADD18C,0.0555*%
%ADD19R,0.1024X0.0512*%
%ADD20R,0.0512X0.0591*%
%ADD21C,0.0600*%
%ADD22R,0.0512X0.1024*%
%ADD23OC8,0.1040*%
%ADD24R,0.0619X0.0540*%
%ADD25R,0.0540X0.0290*%
%ADD26R,0.0290X0.0540*%
%ADD27R,0.0630X0.0830*%
%ADD28R,0.1540X0.0830*%
%ADD29R,0.0749X0.0985*%
%ADD30R,0.0591X0.0178*%
%ADD31R,0.0788X0.0749*%
%ADD32C,0.0390*%
D10*
X000897Y000151D02*
X000897Y019646D01*
X020382Y019636D01*
X020382Y000151D01*
X000897Y000151D01*
X017463Y012525D02*
X017465Y012551D01*
X017471Y012577D01*
X017480Y012601D01*
X017493Y012624D01*
X017510Y012644D01*
X017529Y012662D01*
X017551Y012677D01*
X017574Y012688D01*
X017599Y012696D01*
X017625Y012700D01*
X017651Y012700D01*
X017677Y012696D01*
X017702Y012688D01*
X017726Y012677D01*
X017747Y012662D01*
X017766Y012644D01*
X017783Y012624D01*
X017796Y012601D01*
X017805Y012577D01*
X017811Y012551D01*
X017813Y012525D01*
X017811Y012499D01*
X017805Y012473D01*
X017796Y012449D01*
X017783Y012426D01*
X017766Y012406D01*
X017747Y012388D01*
X017725Y012373D01*
X017702Y012362D01*
X017677Y012354D01*
X017651Y012350D01*
X017625Y012350D01*
X017599Y012354D01*
X017574Y012362D01*
X017550Y012373D01*
X017529Y012388D01*
X017510Y012406D01*
X017493Y012426D01*
X017480Y012449D01*
X017471Y012473D01*
X017465Y012499D01*
X017463Y012525D01*
X017463Y015675D02*
X017465Y015701D01*
X017471Y015727D01*
X017480Y015751D01*
X017493Y015774D01*
X017510Y015794D01*
X017529Y015812D01*
X017551Y015827D01*
X017574Y015838D01*
X017599Y015846D01*
X017625Y015850D01*
X017651Y015850D01*
X017677Y015846D01*
X017702Y015838D01*
X017726Y015827D01*
X017747Y015812D01*
X017766Y015794D01*
X017783Y015774D01*
X017796Y015751D01*
X017805Y015727D01*
X017811Y015701D01*
X017813Y015675D01*
X017811Y015649D01*
X017805Y015623D01*
X017796Y015599D01*
X017783Y015576D01*
X017766Y015556D01*
X017747Y015538D01*
X017725Y015523D01*
X017702Y015512D01*
X017677Y015504D01*
X017651Y015500D01*
X017625Y015500D01*
X017599Y015504D01*
X017574Y015512D01*
X017550Y015523D01*
X017529Y015538D01*
X017510Y015556D01*
X017493Y015576D01*
X017480Y015599D01*
X017471Y015623D01*
X017465Y015649D01*
X017463Y015675D01*
D11*
X013737Y014672D03*
X013737Y013570D03*
X008697Y009402D03*
X007697Y009752D03*
X007797Y010700D03*
X007797Y011802D03*
X007697Y008650D03*
X008697Y008300D03*
X009297Y005352D03*
X009297Y004250D03*
X015897Y003740D03*
X015897Y004842D03*
X017817Y004842D03*
X017817Y003740D03*
X019297Y005950D03*
X018247Y005960D03*
X018247Y007062D03*
X019297Y007052D03*
X019597Y010450D03*
X019597Y011552D03*
X002897Y017300D03*
X002897Y018402D03*
D12*
X001647Y018901D03*
X001647Y017901D03*
X001647Y016901D03*
X001647Y015901D03*
X001647Y014901D03*
X001647Y013901D03*
X001647Y012751D03*
X001647Y011751D03*
X001647Y010751D03*
X001647Y009751D03*
X001647Y008751D03*
X001647Y007751D03*
X001697Y006451D03*
X001697Y005451D03*
X001647Y001901D03*
X001647Y000901D03*
X002647Y000901D03*
X003647Y000901D03*
X003647Y001901D03*
X002647Y001901D03*
X006647Y001901D03*
X006647Y000901D03*
X007647Y000901D03*
X008647Y000901D03*
X009647Y000901D03*
X010647Y000901D03*
X011647Y000901D03*
X012647Y000901D03*
X013647Y000901D03*
X014647Y000901D03*
X015647Y000901D03*
X016647Y000901D03*
X017647Y000901D03*
X018647Y000901D03*
X019647Y000901D03*
X019647Y001901D03*
X018647Y001901D03*
X017647Y001901D03*
X016647Y001901D03*
X015647Y001901D03*
X014647Y001901D03*
X013647Y001901D03*
X012647Y001901D03*
X011647Y001901D03*
X010647Y001901D03*
X009647Y001901D03*
X008647Y001901D03*
X007647Y001901D03*
X007647Y017901D03*
X008647Y017901D03*
X009647Y017901D03*
X010647Y017901D03*
X011647Y017901D03*
X012647Y017901D03*
X013647Y017901D03*
X014647Y017901D03*
X015647Y017901D03*
X016647Y017901D03*
X017647Y017901D03*
X018647Y017901D03*
X019647Y017901D03*
X019647Y018901D03*
X018647Y018901D03*
X017647Y018901D03*
X016647Y018901D03*
X015647Y018901D03*
X014647Y018901D03*
X013647Y018901D03*
X012647Y018901D03*
X011647Y018901D03*
X010647Y018901D03*
X009647Y018901D03*
X008647Y018901D03*
X007647Y018901D03*
X006647Y018901D03*
X006647Y017901D03*
D13*
X012247Y006551D03*
X014147Y006551D03*
X016347Y006151D03*
X017347Y006151D03*
D14*
X018646Y008251D03*
X019748Y008251D03*
X014948Y005001D03*
X013846Y005001D03*
X012898Y005001D03*
X011796Y005001D03*
X013096Y016101D03*
X014198Y016101D03*
D15*
X019097Y004842D03*
X019097Y003661D03*
D16*
X016047Y008069D03*
X015547Y008069D03*
X015047Y008069D03*
X014547Y008069D03*
X014047Y008069D03*
X013547Y008069D03*
X013047Y008069D03*
X012547Y008069D03*
X012047Y008069D03*
X011547Y008069D03*
X011047Y008069D03*
X010547Y008069D03*
X010047Y008069D03*
X009547Y008069D03*
X009547Y011833D03*
X010047Y011833D03*
X010547Y011833D03*
X011047Y011833D03*
X011547Y011833D03*
X012047Y011833D03*
X012547Y011833D03*
X013047Y011833D03*
X013547Y011833D03*
X014047Y011833D03*
X014547Y011833D03*
X015047Y011833D03*
X015547Y011833D03*
X016047Y011833D03*
D17*
X005797Y017651D03*
X005797Y019151D03*
X003797Y019151D03*
X003797Y017651D03*
D18*
X003641Y015774D03*
X004429Y015774D03*
X005216Y015774D03*
X006003Y015774D03*
X006791Y015774D03*
X007578Y015774D03*
X008366Y015774D03*
X009153Y015774D03*
X009940Y015774D03*
X002854Y015774D03*
X002854Y007113D03*
X003641Y007113D03*
X004429Y007113D03*
X005216Y007113D03*
X006003Y007113D03*
X006791Y007113D03*
X007578Y007113D03*
X008366Y007113D03*
X009153Y007113D03*
X009940Y007113D03*
D19*
X004147Y008952D03*
X004147Y010251D03*
D20*
X006706Y005401D03*
X007888Y005401D03*
X005788Y016951D03*
X004606Y016951D03*
D21*
X005017Y005751D02*
X005577Y005751D01*
X005577Y004751D02*
X005017Y004751D01*
X005017Y003751D02*
X005577Y003751D01*
X003877Y003751D02*
X003317Y003751D01*
X003317Y004751D02*
X003877Y004751D01*
X003877Y005751D02*
X003317Y005751D01*
D22*
X006997Y003901D03*
X008297Y003901D03*
D23*
X001747Y004351D03*
X001747Y003201D03*
D24*
X005147Y002548D03*
X005147Y000855D03*
D25*
X017497Y008801D03*
X017497Y009151D03*
X017497Y009501D03*
X017497Y010101D03*
X017497Y010451D03*
X017497Y010801D03*
D26*
X017224Y013501D03*
X016870Y013501D03*
X016274Y013651D03*
X015920Y013651D03*
D27*
X005657Y012061D03*
X004757Y012061D03*
X003857Y012061D03*
D28*
X004747Y014541D03*
D29*
X006550Y014601D03*
X008144Y014601D03*
D30*
X018554Y014507D03*
X018554Y014763D03*
X018554Y014251D03*
X018554Y013995D03*
X018554Y013739D03*
D31*
X019597Y012676D03*
X019597Y015826D03*
D32*
X017638Y015675D03*
X017638Y012525D03*
M02*
