G75*
G70*
%OFA0B0*%
%FSLAX24Y24*%
%IPPOS*%
%LPD*%
%AMOC8*
5,1,8,0,0,1.08239X$1,22.5*
%
%ADD10C,0.0000*%
%ADD11R,0.0210X0.0030*%
%ADD12R,0.0090X0.0030*%
%ADD13R,0.0060X0.0030*%
%ADD14R,0.0030X0.0030*%
%ADD15R,0.0120X0.0030*%
%ADD16R,0.0420X0.0030*%
%ADD17R,0.0300X0.0030*%
%ADD18R,0.0240X0.0030*%
%ADD19R,0.0150X0.0030*%
%ADD20R,0.0180X0.0030*%
%ADD21R,0.0360X0.0030*%
%ADD22R,0.1020X0.0030*%
%ADD23R,0.0390X0.0030*%
%ADD24R,0.0270X0.0030*%
%ADD25R,0.0330X0.0030*%
%ADD26R,0.0480X0.0030*%
%ADD27C,0.0030*%
%ADD28C,0.0080*%
%ADD29C,0.0040*%
%ADD30C,0.0020*%
%ADD31R,0.0700X0.0150*%
%ADD32C,0.0160*%
%ADD33R,0.0020X0.0060*%
%ADD34R,0.0020X0.0080*%
%ADD35R,0.0020X0.0100*%
%ADD36R,0.0020X0.0220*%
%ADD37R,0.0020X0.0180*%
%ADD38R,0.0020X0.0140*%
%ADD39R,0.0020X0.0160*%
%ADD40R,0.0020X0.0280*%
%ADD41R,0.0020X0.0240*%
%ADD42R,0.0020X0.0040*%
%ADD43R,0.0020X0.0120*%
%ADD44R,0.0020X0.0340*%
%ADD45R,0.0020X0.0380*%
%ADD46R,0.0020X0.0440*%
%ADD47R,0.0020X0.0540*%
%ADD48R,0.0020X0.0480*%
%ADD49R,0.0020X0.0520*%
%ADD50R,0.0020X0.0200*%
%ADD51R,0.0020X0.0600*%
%ADD52R,0.0020X0.0260*%
%ADD53R,0.0020X0.0620*%
%ADD54R,0.0020X0.0300*%
%ADD55R,0.0020X0.0360*%
%ADD56R,0.0020X0.0640*%
%ADD57R,0.0020X0.0760*%
%ADD58R,0.0020X0.0400*%
%ADD59R,0.0020X0.0780*%
%ADD60R,0.0020X0.0320*%
%ADD61R,0.0020X0.0720*%
%ADD62R,0.0020X0.0740*%
%ADD63R,0.0020X0.0420*%
%ADD64R,0.0020X0.0820*%
%ADD65R,0.0020X0.0840*%
%ADD66R,0.0020X0.0460*%
%ADD67R,0.0020X0.0560*%
%ADD68R,0.0020X0.0660*%
%ADD69R,0.0020X0.0020*%
%ADD70R,0.0020X0.0880*%
%ADD71R,0.0020X0.0900*%
%ADD72R,0.0020X0.0940*%
%ADD73R,0.0020X0.0920*%
%ADD74R,0.0020X0.0500*%
%ADD75R,0.0020X0.0580*%
%ADD76R,0.0020X0.0700*%
%ADD77R,0.0020X0.0800*%
%ADD78R,0.0020X0.0980*%
%ADD79R,0.0020X0.1060*%
%ADD80R,0.0020X0.1040*%
%ADD81R,0.0020X0.1480*%
%ADD82R,0.0020X0.1460*%
%ADD83R,0.0020X0.1120*%
%ADD84R,0.0020X0.1080*%
%ADD85R,0.0020X0.1020*%
%ADD86R,0.0020X0.0680*%
%ADD87R,0.0020X0.1360*%
%ADD88R,0.0020X0.1100*%
%ADD89R,0.0020X0.1140*%
%ADD90R,0.0020X0.1160*%
%ADD91R,0.0020X0.1000*%
%ADD92C,0.0060*%
%ADD93C,0.0070*%
%ADD94C,0.0050*%
%ADD95R,0.0160X0.0230*%
%ADD96R,0.0266X0.0965*%
D10*
X000897Y000806D02*
X000897Y020301D01*
X020382Y020291D01*
X020382Y000806D01*
X000897Y000806D01*
X018370Y013790D02*
X018372Y013816D01*
X018378Y013842D01*
X018388Y013867D01*
X018401Y013890D01*
X018417Y013910D01*
X018437Y013928D01*
X018459Y013943D01*
X018482Y013955D01*
X018508Y013963D01*
X018534Y013967D01*
X018560Y013967D01*
X018586Y013963D01*
X018612Y013955D01*
X018636Y013943D01*
X018657Y013928D01*
X018677Y013910D01*
X018693Y013890D01*
X018706Y013867D01*
X018716Y013842D01*
X018722Y013816D01*
X018724Y013790D01*
X018722Y013764D01*
X018716Y013738D01*
X018706Y013713D01*
X018693Y013690D01*
X018677Y013670D01*
X018657Y013652D01*
X018635Y013637D01*
X018612Y013625D01*
X018586Y013617D01*
X018560Y013613D01*
X018534Y013613D01*
X018508Y013617D01*
X018482Y013625D01*
X018458Y013637D01*
X018437Y013652D01*
X018417Y013670D01*
X018401Y013690D01*
X018388Y013713D01*
X018378Y013738D01*
X018372Y013764D01*
X018370Y013790D01*
X018370Y015522D02*
X018372Y015548D01*
X018378Y015574D01*
X018388Y015599D01*
X018401Y015622D01*
X018417Y015642D01*
X018437Y015660D01*
X018459Y015675D01*
X018482Y015687D01*
X018508Y015695D01*
X018534Y015699D01*
X018560Y015699D01*
X018586Y015695D01*
X018612Y015687D01*
X018636Y015675D01*
X018657Y015660D01*
X018677Y015642D01*
X018693Y015622D01*
X018706Y015599D01*
X018716Y015574D01*
X018722Y015548D01*
X018724Y015522D01*
X018722Y015496D01*
X018716Y015470D01*
X018706Y015445D01*
X018693Y015422D01*
X018677Y015402D01*
X018657Y015384D01*
X018635Y015369D01*
X018612Y015357D01*
X018586Y015349D01*
X018560Y015345D01*
X018534Y015345D01*
X018508Y015349D01*
X018482Y015357D01*
X018458Y015369D01*
X018437Y015384D01*
X018417Y015402D01*
X018401Y015422D01*
X018388Y015445D01*
X018378Y015470D01*
X018372Y015496D01*
X018370Y015522D01*
D11*
X015505Y014771D03*
X014815Y014381D03*
X013765Y014531D03*
X013827Y015506D03*
X013407Y015506D03*
X012987Y016016D03*
X014397Y015566D03*
X014757Y015536D03*
X014757Y015506D03*
X015087Y015536D03*
X015327Y015536D03*
D12*
X015627Y015626D03*
X015627Y015656D03*
X015627Y015686D03*
X015627Y015716D03*
X015627Y015746D03*
X015657Y015806D03*
X015657Y015596D03*
X015927Y015626D03*
X015927Y015776D03*
X016135Y014891D03*
X016135Y014831D03*
X016165Y014591D03*
X015745Y014831D03*
X015715Y014801D03*
X015625Y014831D03*
X015625Y014891D03*
X015475Y014981D03*
X015235Y014861D03*
X015205Y014831D03*
X015205Y014801D03*
X015055Y014771D03*
X014965Y014681D03*
X014635Y014411D03*
X014575Y014441D03*
X014215Y014801D03*
X014275Y014951D03*
X014305Y014981D03*
X014425Y015071D03*
X014157Y015656D03*
X014157Y015686D03*
X014157Y015716D03*
X014397Y015896D03*
X014727Y016046D03*
X014757Y015716D03*
X013797Y016076D03*
X013497Y015806D03*
X013317Y015656D03*
X013287Y015626D03*
X013257Y015806D03*
X012987Y015806D03*
X012987Y015776D03*
X012987Y015746D03*
X012987Y015716D03*
X012957Y016046D03*
X012657Y015656D03*
X015655Y014591D03*
D13*
X015700Y014771D03*
X015640Y014861D03*
X016000Y014981D03*
X016150Y014861D03*
X015190Y014771D03*
X015010Y014651D03*
X015040Y014591D03*
X015040Y014561D03*
X015040Y014531D03*
X015010Y014471D03*
X014980Y014441D03*
X014950Y014411D03*
X014650Y014561D03*
X014650Y014591D03*
X014650Y014621D03*
X014650Y014651D03*
X014650Y014681D03*
X014620Y014801D03*
X014620Y014831D03*
X014590Y014921D03*
X014590Y014951D03*
X014590Y014981D03*
X014830Y015071D03*
X014860Y015041D03*
X014290Y015011D03*
X014290Y014711D03*
X014080Y014681D03*
X014050Y014621D03*
X013810Y014501D03*
X013780Y014471D03*
X013720Y014441D03*
X012672Y015686D03*
D14*
X013257Y015776D03*
X014215Y015071D03*
X014275Y015041D03*
X014245Y014921D03*
X014215Y014891D03*
X014215Y014861D03*
X014125Y014801D03*
X014095Y014771D03*
X014095Y014741D03*
X014095Y014711D03*
X014065Y014651D03*
X013945Y014561D03*
X013675Y014561D03*
X013675Y014591D03*
X013675Y014471D03*
X014365Y014921D03*
X014575Y015011D03*
X014605Y014891D03*
X014605Y014861D03*
X014815Y014801D03*
X014845Y014831D03*
X014875Y014891D03*
X014875Y014921D03*
X014875Y014951D03*
X014875Y014981D03*
X014875Y015011D03*
X015025Y014621D03*
X015025Y014501D03*
X014545Y014501D03*
D15*
X014560Y014471D03*
X014260Y014741D03*
X014230Y014771D03*
X014170Y014831D03*
X013750Y014621D03*
X014172Y015566D03*
X014172Y015596D03*
X014172Y015626D03*
X014142Y015746D03*
X014142Y015776D03*
X014142Y015806D03*
X014142Y015836D03*
X014142Y015896D03*
X014382Y015866D03*
X014412Y015806D03*
X014412Y015776D03*
X014412Y015746D03*
X014412Y015716D03*
X014412Y015686D03*
X014412Y015656D03*
X014412Y015626D03*
X014742Y015656D03*
X014742Y015686D03*
X014742Y015746D03*
X014742Y015776D03*
X014742Y015806D03*
X014712Y015866D03*
X014742Y016016D03*
X015072Y015716D03*
X015072Y015686D03*
X015072Y015656D03*
X015072Y015626D03*
X015342Y015626D03*
X015342Y015656D03*
X015342Y015686D03*
X015342Y015716D03*
X015342Y015746D03*
X015342Y015776D03*
X015342Y015806D03*
X015642Y015776D03*
X015912Y015806D03*
X015942Y015746D03*
X015942Y015716D03*
X015942Y015686D03*
X015942Y015656D03*
X015912Y015596D03*
X015790Y014891D03*
X015760Y014861D03*
X015730Y014681D03*
X015760Y014651D03*
X015790Y014621D03*
X015640Y014501D03*
X015580Y014801D03*
X015280Y014891D03*
X015190Y014681D03*
X015220Y014651D03*
X015280Y014621D03*
X014770Y015101D03*
X013812Y015656D03*
X013812Y015686D03*
X013812Y015716D03*
X013812Y015746D03*
X013812Y015776D03*
X013812Y015806D03*
X013812Y015836D03*
X013812Y015866D03*
X013812Y015896D03*
X013812Y015926D03*
X013812Y015956D03*
X013812Y015986D03*
X013482Y015836D03*
X013512Y015776D03*
X013512Y015746D03*
X013512Y015656D03*
X013512Y015626D03*
X013272Y015596D03*
X012972Y015626D03*
X012972Y015656D03*
X012972Y015686D03*
X012942Y015596D03*
X012702Y015566D03*
X012672Y015596D03*
X012672Y015626D03*
X013002Y015836D03*
X013002Y015866D03*
X016090Y014801D03*
X016150Y014501D03*
D16*
X016030Y014561D03*
X015520Y014561D03*
X013480Y014501D03*
D17*
X012822Y015536D03*
X014740Y014741D03*
X015580Y014531D03*
X016090Y014531D03*
D18*
X014710Y014771D03*
X014650Y015131D03*
X013900Y014591D03*
X015192Y015896D03*
D19*
X015087Y015776D03*
X015087Y015746D03*
X015087Y015596D03*
X015087Y015566D03*
X015357Y015596D03*
X015687Y015566D03*
X015867Y015566D03*
X015777Y015896D03*
X014727Y015836D03*
X014757Y015626D03*
X014757Y015596D03*
X014757Y015566D03*
X014397Y015836D03*
X014127Y015866D03*
X013797Y016016D03*
X013797Y016046D03*
X013827Y015626D03*
X013827Y015596D03*
X013827Y015566D03*
X013527Y015596D03*
X013287Y015566D03*
X013287Y015836D03*
X013377Y015896D03*
X012987Y015896D03*
X012987Y015926D03*
X012987Y015956D03*
X012927Y015566D03*
X014665Y014711D03*
X014905Y014711D03*
X015325Y014591D03*
X016015Y014771D03*
D20*
X015850Y014591D03*
X015792Y015506D03*
X015342Y015566D03*
X015102Y015806D03*
X014412Y015596D03*
X014500Y015101D03*
X013812Y015536D03*
X013512Y015566D03*
X013482Y015716D03*
X013002Y015986D03*
X012822Y015506D03*
D21*
X013422Y015536D03*
X015220Y014711D03*
X015460Y014921D03*
X015730Y014711D03*
D22*
X015520Y014741D03*
D23*
X015985Y014921D03*
X015177Y015836D03*
X015177Y015866D03*
X014337Y015536D03*
D24*
X013437Y015686D03*
X013377Y015866D03*
X015475Y014951D03*
X015985Y014951D03*
X015777Y015536D03*
X015777Y015866D03*
D25*
X015777Y015836D03*
X014367Y015506D03*
D26*
X015222Y015506D03*
D27*
X015129Y016673D02*
X015253Y016920D01*
X015374Y016982D02*
X015436Y017044D01*
X015559Y017044D01*
X015621Y016982D01*
X015621Y016920D01*
X015374Y016673D01*
X015621Y016673D01*
X015743Y016673D02*
X015804Y016673D01*
X015804Y016735D01*
X015743Y016735D01*
X015743Y016673D01*
X015927Y016735D02*
X016174Y016982D01*
X016174Y016735D01*
X016112Y016673D01*
X015988Y016673D01*
X015927Y016735D01*
X015927Y016982D01*
X015988Y017044D01*
X016112Y017044D01*
X016174Y016982D01*
X015802Y017136D02*
X015754Y017087D01*
X015560Y017087D01*
X015512Y017136D01*
X015512Y017232D01*
X015560Y017281D01*
X015657Y017281D02*
X015657Y017184D01*
X015657Y017281D02*
X015754Y017281D01*
X015802Y017232D01*
X015802Y017136D01*
X015802Y017382D02*
X015512Y017382D01*
X015802Y017575D01*
X015512Y017575D01*
X015512Y017677D02*
X015512Y017822D01*
X015560Y017870D01*
X015754Y017870D01*
X015802Y017822D01*
X015802Y017677D01*
X015512Y017677D01*
X014802Y017677D02*
X014802Y017822D01*
X014754Y017870D01*
X014560Y017870D01*
X014512Y017822D01*
X014512Y017677D01*
X014802Y017677D01*
X014754Y017575D02*
X014560Y017575D01*
X014512Y017527D01*
X014512Y017382D01*
X014802Y017382D01*
X014802Y017527D01*
X014754Y017575D01*
X014705Y017281D02*
X014512Y017281D01*
X014705Y017281D02*
X014802Y017184D01*
X014705Y017087D01*
X014512Y017087D01*
X015006Y016920D02*
X015129Y016673D01*
X013777Y016581D02*
X013777Y016458D01*
X013715Y016396D01*
X013468Y016396D01*
X013407Y016458D01*
X013407Y016581D01*
X013468Y016643D01*
X013592Y016765D02*
X013592Y016950D01*
X013654Y017011D01*
X013715Y017011D01*
X013777Y016950D01*
X013777Y016826D01*
X013715Y016765D01*
X013592Y016765D01*
X013468Y016888D01*
X013407Y017011D01*
X013715Y016643D02*
X013777Y016581D01*
X013795Y014962D02*
X013919Y014962D01*
X013981Y014900D01*
X013981Y014838D01*
X013919Y014776D01*
X013981Y014715D01*
X013981Y014653D01*
X013919Y014591D01*
X013795Y014591D01*
X013734Y014653D01*
X013612Y014653D02*
X013551Y014591D01*
X013427Y014591D01*
X013365Y014653D01*
X013365Y014900D01*
X013427Y014962D01*
X013551Y014962D01*
X013612Y014900D01*
X013734Y014900D02*
X013795Y014962D01*
X013857Y014776D02*
X013919Y014776D01*
X015076Y013647D02*
X015027Y013599D01*
X015027Y013551D01*
X015076Y013502D01*
X015173Y013502D01*
X015221Y013454D01*
X015221Y013405D01*
X015173Y013357D01*
X015076Y013357D01*
X015027Y013405D01*
X015076Y013647D02*
X015173Y013647D01*
X015221Y013599D01*
X015419Y013647D02*
X015516Y013647D01*
X015467Y013647D02*
X015467Y013405D01*
X015419Y013357D01*
X015370Y013357D01*
X015322Y013405D01*
X015617Y013357D02*
X015810Y013551D01*
X015810Y013599D01*
X015762Y013647D01*
X015665Y013647D01*
X015617Y013599D01*
X015617Y013357D02*
X015810Y013357D01*
X016003Y013948D02*
X015955Y013997D01*
X016003Y013948D02*
X016100Y013948D01*
X016148Y013997D01*
X016148Y014045D01*
X016100Y014094D01*
X016003Y014094D01*
X015955Y014142D01*
X015955Y014190D01*
X016003Y014239D01*
X016100Y014239D01*
X016148Y014190D01*
X016346Y014239D02*
X016443Y014239D01*
X016394Y014239D02*
X016394Y013997D01*
X016346Y013948D01*
X016298Y013948D01*
X016249Y013997D01*
X016544Y013997D02*
X016592Y013948D01*
X016689Y013948D01*
X016737Y013997D01*
X016737Y014045D01*
X016689Y014094D01*
X016641Y014094D01*
X016689Y014094D02*
X016737Y014142D01*
X016737Y014190D01*
X016689Y014239D01*
X016592Y014239D01*
X016544Y014190D01*
X017210Y012112D02*
X017162Y012063D01*
X017162Y012015D01*
X017210Y011966D01*
X017307Y011966D01*
X017355Y011918D01*
X017355Y011870D01*
X017307Y011821D01*
X017210Y011821D01*
X017162Y011870D01*
X017210Y012112D02*
X017307Y012112D01*
X017355Y012063D01*
X017553Y012112D02*
X017650Y012112D01*
X017602Y012112D02*
X017602Y011870D01*
X017553Y011821D01*
X017505Y011821D01*
X017457Y011870D01*
X017751Y011821D02*
X017945Y011821D01*
X017848Y011821D02*
X017848Y012112D01*
X017751Y012015D01*
X019074Y010635D02*
X019012Y010574D01*
X019012Y010327D01*
X019074Y010265D01*
X019197Y010265D01*
X019259Y010327D01*
X019380Y010265D02*
X019627Y010265D01*
X019749Y010265D02*
X019995Y010512D01*
X019995Y010574D01*
X019934Y010635D01*
X019810Y010635D01*
X019749Y010574D01*
X019504Y010635D02*
X019380Y010512D01*
X019259Y010574D02*
X019197Y010635D01*
X019074Y010635D01*
X019504Y010635D02*
X019504Y010265D01*
X019749Y010265D02*
X019995Y010265D01*
X019073Y009150D02*
X019320Y008903D01*
X019382Y008903D01*
X019382Y008782D02*
X019259Y008658D01*
X019259Y008720D02*
X019259Y008535D01*
X019382Y008535D02*
X019012Y008535D01*
X019012Y008720D01*
X019073Y008782D01*
X019197Y008782D01*
X019259Y008720D01*
X019012Y008903D02*
X019012Y009150D01*
X019073Y009150D01*
X017945Y009112D02*
X017945Y009063D01*
X017751Y008870D01*
X017751Y008821D01*
X017602Y008870D02*
X017602Y009112D01*
X017650Y009112D02*
X017553Y009112D01*
X017751Y009112D02*
X017945Y009112D01*
X017602Y008870D02*
X017553Y008821D01*
X017505Y008821D01*
X017457Y008870D01*
X017355Y008870D02*
X017307Y008821D01*
X017210Y008821D01*
X017162Y008870D01*
X017210Y008966D02*
X017307Y008966D01*
X017355Y008918D01*
X017355Y008870D01*
X017210Y008966D02*
X017162Y009015D01*
X017162Y009063D01*
X017210Y009112D01*
X017307Y009112D01*
X017355Y009063D01*
X017964Y007342D02*
X017902Y007280D01*
X017902Y007033D01*
X017964Y006971D01*
X018087Y006971D01*
X018149Y007033D01*
X018270Y007033D02*
X018332Y006971D01*
X018455Y006971D01*
X018517Y007033D01*
X018517Y007156D01*
X018455Y007218D01*
X018394Y007218D01*
X018270Y007156D01*
X018270Y007342D01*
X018517Y007342D01*
X018149Y007280D02*
X018087Y007342D01*
X017964Y007342D01*
X018925Y007342D02*
X018925Y006971D01*
X018925Y007095D02*
X019111Y007095D01*
X019172Y007156D01*
X019172Y007280D01*
X019111Y007342D01*
X018925Y007342D01*
X019049Y007095D02*
X019172Y006971D01*
X019294Y006971D02*
X019541Y007218D01*
X019541Y007280D01*
X019479Y007342D01*
X019355Y007342D01*
X019294Y007280D01*
X019294Y006971D02*
X019541Y006971D01*
X019710Y005420D02*
X019662Y005372D01*
X019662Y005275D01*
X019710Y005227D01*
X019710Y005125D02*
X019662Y005077D01*
X019662Y004932D01*
X019952Y004932D01*
X019952Y005077D01*
X019904Y005125D01*
X019710Y005125D01*
X019952Y005227D02*
X019759Y005420D01*
X019710Y005420D01*
X019952Y005420D02*
X019952Y005227D01*
X019952Y004831D02*
X019952Y004637D01*
X019662Y004637D01*
X019662Y004831D01*
X019807Y004734D02*
X019807Y004637D01*
X019952Y004536D02*
X019952Y004343D01*
X019662Y004343D01*
X018185Y004850D02*
X018136Y004801D01*
X018040Y004801D01*
X017991Y004850D01*
X018185Y005043D01*
X018185Y004850D01*
X018185Y005043D02*
X018136Y005092D01*
X018040Y005092D01*
X017991Y005043D01*
X017991Y004850D01*
X017890Y004801D02*
X017697Y004801D01*
X017793Y004801D02*
X017793Y005092D01*
X017697Y004995D01*
X017595Y005043D02*
X017547Y005092D01*
X017450Y005092D01*
X017402Y005043D01*
X017402Y004850D01*
X017450Y004801D01*
X017547Y004801D01*
X017595Y004850D01*
X016021Y004850D02*
X016021Y005043D01*
X015972Y005092D01*
X015876Y005092D01*
X015827Y005043D01*
X015827Y004995D01*
X015876Y004946D01*
X016021Y004946D01*
X016021Y004850D02*
X015972Y004801D01*
X015876Y004801D01*
X015827Y004850D01*
X015726Y004850D02*
X015678Y004801D01*
X015581Y004801D01*
X015533Y004850D01*
X015533Y005043D01*
X015581Y005092D01*
X015678Y005092D01*
X015726Y005043D01*
X015327Y004817D02*
X015327Y004509D01*
X015266Y004447D01*
X015204Y004447D01*
X015142Y004570D02*
X015327Y004570D01*
X015142Y004570D02*
X015081Y004632D01*
X015081Y004755D01*
X015142Y004817D01*
X015327Y004817D01*
X014959Y004817D02*
X014897Y004817D01*
X014774Y004694D01*
X014774Y004817D02*
X014774Y004570D01*
X014652Y004632D02*
X014652Y004755D01*
X014590Y004817D01*
X014467Y004817D01*
X014405Y004755D01*
X014405Y004632D01*
X014467Y004570D01*
X014590Y004570D01*
X014652Y004632D01*
X014283Y004632D02*
X014283Y004570D01*
X014221Y004570D01*
X014221Y004632D01*
X014283Y004632D01*
X014100Y004632D02*
X014100Y004755D01*
X014038Y004817D01*
X013915Y004817D01*
X013853Y004755D01*
X013853Y004632D01*
X013915Y004570D01*
X014038Y004570D01*
X014100Y004632D01*
X013731Y004570D02*
X013731Y004755D01*
X013670Y004817D01*
X013485Y004817D01*
X013485Y004570D01*
X013362Y004570D02*
X013239Y004570D01*
X013301Y004570D02*
X013301Y004817D01*
X013239Y004817D01*
X013118Y004817D02*
X013118Y004570D01*
X012932Y004570D01*
X012871Y004632D01*
X012871Y004817D01*
X012687Y004941D02*
X012687Y004570D01*
X012625Y004570D02*
X012749Y004570D01*
X012504Y004570D02*
X012319Y004570D01*
X012257Y004632D01*
X012319Y004694D01*
X012504Y004694D01*
X012504Y004755D02*
X012504Y004570D01*
X012504Y004755D02*
X012442Y004817D01*
X012319Y004817D01*
X012135Y004817D02*
X012135Y004509D01*
X012073Y004447D01*
X012011Y004447D01*
X011643Y004570D02*
X011890Y004941D01*
X012135Y004941D02*
X012135Y005002D01*
X012240Y005371D02*
X012434Y005371D01*
X012482Y005420D01*
X012482Y005516D01*
X012434Y005565D01*
X012482Y005666D02*
X012482Y005859D01*
X012482Y005763D02*
X012192Y005763D01*
X012289Y005666D01*
X012240Y005565D02*
X012192Y005516D01*
X012192Y005420D01*
X012240Y005371D01*
X012625Y004941D02*
X012687Y004941D01*
X013301Y004941D02*
X013301Y005002D01*
X014242Y005420D02*
X014290Y005371D01*
X014484Y005371D01*
X014532Y005420D01*
X014532Y005516D01*
X014484Y005565D01*
X014532Y005666D02*
X014339Y005859D01*
X014290Y005859D01*
X014242Y005811D01*
X014242Y005714D01*
X014290Y005666D01*
X014290Y005565D02*
X014242Y005516D01*
X014242Y005420D01*
X014532Y005666D02*
X014532Y005859D01*
X014012Y003542D02*
X013867Y003542D01*
X013867Y003251D01*
X014012Y003251D01*
X014061Y003300D01*
X014061Y003493D01*
X014012Y003542D01*
X013766Y003542D02*
X013766Y003251D01*
X013573Y003542D01*
X013573Y003251D01*
X013472Y003300D02*
X013472Y003396D01*
X013375Y003396D01*
X013472Y003300D02*
X013423Y003251D01*
X013326Y003251D01*
X013278Y003300D01*
X013278Y003493D01*
X013326Y003542D01*
X013423Y003542D01*
X013472Y003493D01*
X011522Y004941D02*
X011275Y004570D01*
X011152Y004570D02*
X011091Y004570D01*
X011091Y004632D01*
X011152Y004632D01*
X011152Y004570D01*
X011152Y004755D02*
X011091Y004755D01*
X011091Y004817D01*
X011152Y004817D01*
X011152Y004755D01*
X010969Y004755D02*
X010969Y004632D01*
X010908Y004570D01*
X010722Y004570D01*
X010600Y004570D02*
X010539Y004632D01*
X010539Y004879D01*
X010600Y004817D02*
X010477Y004817D01*
X010355Y004817D02*
X010231Y004817D01*
X010293Y004879D02*
X010293Y004632D01*
X010355Y004570D01*
X010110Y004570D02*
X010110Y004755D01*
X010048Y004817D01*
X009925Y004817D01*
X009863Y004755D01*
X009863Y004570D02*
X009863Y004941D01*
X009502Y005321D02*
X009405Y005321D01*
X009357Y005370D01*
X009357Y005466D02*
X009453Y005515D01*
X009502Y005515D01*
X009550Y005466D01*
X009550Y005370D01*
X009502Y005321D01*
X009357Y005466D02*
X009357Y005612D01*
X009550Y005612D01*
X009255Y005563D02*
X009255Y005466D01*
X009207Y005418D01*
X009062Y005418D01*
X009062Y005321D02*
X009062Y005612D01*
X009207Y005612D01*
X009255Y005563D01*
X009159Y005418D02*
X009255Y005321D01*
X010722Y004817D02*
X010722Y004447D01*
X010722Y004817D02*
X010908Y004817D01*
X010969Y004755D01*
X007939Y006721D02*
X007746Y006721D01*
X007843Y006721D02*
X007843Y007012D01*
X007746Y006915D01*
X007645Y006963D02*
X007596Y007012D01*
X007451Y007012D01*
X007451Y006721D01*
X007596Y006721D01*
X007645Y006770D01*
X007645Y006963D01*
X007350Y007012D02*
X007157Y007012D01*
X007157Y006721D01*
X007350Y006721D01*
X007253Y006866D02*
X007157Y006866D01*
X007055Y006721D02*
X006862Y006721D01*
X006862Y007012D01*
X006212Y006656D02*
X006164Y006704D01*
X006067Y006704D01*
X006067Y006607D01*
X005970Y006511D02*
X006164Y006511D01*
X006212Y006559D01*
X006212Y006656D01*
X006212Y006409D02*
X006212Y006216D01*
X005922Y006216D01*
X005922Y006409D01*
X005970Y006511D02*
X005922Y006559D01*
X005922Y006656D01*
X005970Y006704D01*
X006067Y006313D02*
X006067Y006216D01*
X006067Y006115D02*
X006115Y006066D01*
X006115Y005921D01*
X006212Y005921D02*
X005922Y005921D01*
X005922Y006066D01*
X005970Y006115D01*
X006067Y006115D01*
X006115Y006018D02*
X006212Y006115D01*
X006164Y005338D02*
X006067Y005338D01*
X006067Y005241D01*
X005970Y005145D02*
X006164Y005145D01*
X006212Y005193D01*
X006212Y005290D01*
X006164Y005338D01*
X005970Y005338D02*
X005922Y005290D01*
X005922Y005193D01*
X005970Y005145D01*
X005922Y005043D02*
X005922Y004850D01*
X006212Y004850D01*
X006212Y005043D01*
X006067Y004947D02*
X006067Y004850D01*
X006067Y004749D02*
X006115Y004700D01*
X006115Y004555D01*
X006115Y004652D02*
X006212Y004749D01*
X006067Y004749D02*
X005970Y004749D01*
X005922Y004700D01*
X005922Y004555D01*
X006212Y004555D01*
X006067Y004454D02*
X006067Y004261D01*
X006164Y004159D02*
X005970Y004159D01*
X005922Y004111D01*
X005922Y004014D01*
X005970Y003966D01*
X006164Y003966D01*
X006212Y004014D01*
X006212Y004111D01*
X006164Y004159D01*
X006212Y003865D02*
X005922Y003865D01*
X005922Y003671D02*
X006212Y003865D01*
X006212Y003671D02*
X005922Y003671D01*
X006012Y003542D02*
X006197Y003542D01*
X006259Y003480D01*
X006259Y003356D01*
X006197Y003295D01*
X006012Y003295D01*
X006135Y003295D02*
X006259Y003171D01*
X006380Y003233D02*
X006442Y003171D01*
X006565Y003171D01*
X006627Y003233D01*
X006627Y003295D01*
X006565Y003356D01*
X006442Y003356D01*
X006380Y003418D01*
X006380Y003480D01*
X006442Y003542D01*
X006565Y003542D01*
X006627Y003480D01*
X006749Y003542D02*
X006995Y003542D01*
X006872Y003542D02*
X006872Y003171D01*
X006012Y003171D02*
X006012Y003542D01*
X005479Y002492D02*
X005355Y002492D01*
X005294Y002430D01*
X005172Y002430D02*
X005172Y002183D01*
X005111Y002121D01*
X004925Y002121D01*
X004925Y002492D01*
X005111Y002492D01*
X005172Y002430D01*
X005479Y002492D02*
X005541Y002430D01*
X005541Y002368D01*
X005294Y002121D01*
X005541Y002121D01*
X004011Y003131D02*
X004011Y003422D01*
X003817Y003422D02*
X004011Y003131D01*
X003817Y003131D02*
X003817Y003422D01*
X003718Y003422D02*
X003621Y003422D01*
X003669Y003422D02*
X003669Y003131D01*
X003621Y003131D02*
X003718Y003131D01*
X003520Y003228D02*
X003520Y003422D01*
X003326Y003422D02*
X003326Y003228D01*
X003423Y003131D01*
X003520Y003228D01*
X003011Y003180D02*
X002962Y003131D01*
X002817Y003131D01*
X002817Y003422D01*
X002962Y003422D01*
X003011Y003373D01*
X003011Y003180D01*
X002716Y003131D02*
X002716Y003422D01*
X002523Y003422D02*
X002716Y003131D01*
X002523Y003131D02*
X002523Y003422D01*
X002422Y003373D02*
X002373Y003422D01*
X002276Y003422D01*
X002228Y003373D01*
X002228Y003180D01*
X002276Y003131D01*
X002373Y003131D01*
X002422Y003180D01*
X002422Y003276D01*
X002325Y003276D01*
X002412Y003921D02*
X002412Y004066D01*
X002460Y004115D01*
X002509Y004115D01*
X002557Y004066D01*
X002557Y003921D01*
X002702Y003921D02*
X002702Y004066D01*
X002654Y004115D01*
X002605Y004115D01*
X002557Y004066D01*
X002557Y004216D02*
X002557Y004409D01*
X002509Y004409D02*
X002702Y004409D01*
X002702Y004216D02*
X002509Y004216D01*
X002412Y004313D01*
X002509Y004409D01*
X002412Y004511D02*
X002412Y004704D01*
X002412Y004607D02*
X002702Y004607D01*
X002702Y004902D02*
X002412Y004902D01*
X002412Y004805D02*
X002412Y004999D01*
X002440Y005571D02*
X002392Y005620D01*
X002392Y005716D01*
X002440Y005765D01*
X002537Y005716D02*
X002585Y005765D01*
X002634Y005765D01*
X002682Y005716D01*
X002682Y005620D01*
X002634Y005571D01*
X002537Y005620D02*
X002537Y005716D01*
X002537Y005620D02*
X002489Y005571D01*
X002440Y005571D01*
X002392Y005866D02*
X002682Y005866D01*
X002682Y006059D01*
X002682Y006161D02*
X002392Y006161D01*
X002392Y006306D01*
X002440Y006354D01*
X002537Y006354D01*
X002585Y006306D01*
X002585Y006161D01*
X002585Y006257D02*
X002682Y006354D01*
X002682Y006455D02*
X002682Y006552D01*
X002682Y006504D02*
X002392Y006504D01*
X002392Y006552D02*
X002392Y006455D01*
X002489Y006652D02*
X002392Y006748D01*
X002489Y006845D01*
X002682Y006845D01*
X002682Y006946D02*
X002682Y007140D01*
X002682Y006946D02*
X002392Y006946D01*
X002537Y006845D02*
X002537Y006652D01*
X002489Y006652D02*
X002682Y006652D01*
X002392Y006059D02*
X002392Y005866D01*
X002537Y005866D02*
X002537Y005963D01*
X004222Y005964D02*
X004270Y005916D01*
X004319Y005916D01*
X004367Y005964D01*
X004367Y006061D01*
X004415Y006109D01*
X004464Y006109D01*
X004512Y006061D01*
X004512Y005964D01*
X004464Y005916D01*
X004464Y005815D02*
X004222Y005815D01*
X004222Y005964D02*
X004222Y006061D01*
X004270Y006109D01*
X004222Y006211D02*
X004222Y006356D01*
X004270Y006404D01*
X004319Y006404D01*
X004367Y006356D01*
X004367Y006211D01*
X004367Y006356D02*
X004415Y006404D01*
X004464Y006404D01*
X004512Y006356D01*
X004512Y006211D01*
X004222Y006211D01*
X004464Y005815D02*
X004512Y005766D01*
X004512Y005670D01*
X004464Y005621D01*
X004222Y005621D01*
X004222Y005199D02*
X004222Y005005D01*
X004222Y005102D02*
X004512Y005102D01*
X004222Y004904D02*
X004222Y004711D01*
X004222Y004807D02*
X004512Y004807D01*
X004512Y004609D02*
X004319Y004609D01*
X004222Y004513D01*
X004319Y004416D01*
X004512Y004416D01*
X004464Y004315D02*
X004512Y004266D01*
X004512Y004121D01*
X004222Y004121D01*
X004222Y004266D01*
X004270Y004315D01*
X004319Y004315D01*
X004367Y004266D01*
X004367Y004121D01*
X004367Y004266D02*
X004415Y004315D01*
X004464Y004315D01*
X004367Y004416D02*
X004367Y004609D01*
X002702Y003921D02*
X002412Y003921D01*
X004104Y008141D02*
X004042Y008203D01*
X004104Y008141D02*
X004227Y008141D01*
X004289Y008203D01*
X004289Y008265D01*
X004227Y008326D01*
X004104Y008326D01*
X004042Y008388D01*
X004042Y008450D01*
X004104Y008512D01*
X004227Y008512D01*
X004289Y008450D01*
X004410Y008326D02*
X004472Y008388D01*
X004595Y008388D01*
X004657Y008326D01*
X004657Y008265D01*
X004410Y008265D01*
X004410Y008326D02*
X004410Y008203D01*
X004472Y008141D01*
X004595Y008141D01*
X004779Y008141D02*
X004964Y008141D01*
X005025Y008203D01*
X005025Y008326D01*
X004964Y008388D01*
X004779Y008388D01*
X004779Y008512D02*
X004779Y008141D01*
X005147Y008203D02*
X005209Y008265D01*
X005394Y008265D01*
X005394Y008326D02*
X005394Y008141D01*
X005209Y008141D01*
X005147Y008203D01*
X005209Y008388D02*
X005332Y008388D01*
X005394Y008326D01*
X005515Y008326D02*
X005577Y008388D01*
X005762Y008388D01*
X005884Y008388D02*
X006007Y008388D01*
X005945Y008450D02*
X005945Y008203D01*
X006007Y008141D01*
X006129Y008141D02*
X006252Y008141D01*
X006191Y008141D02*
X006191Y008388D01*
X006129Y008388D01*
X006191Y008512D02*
X006191Y008573D01*
X006309Y008676D02*
X006247Y008738D01*
X006309Y008676D02*
X006432Y008676D01*
X006494Y008738D01*
X006494Y008861D01*
X006432Y008923D01*
X006370Y008923D01*
X006247Y008861D01*
X006247Y009047D01*
X006494Y009047D01*
X006615Y008861D02*
X006862Y008861D01*
X006983Y008738D02*
X007230Y008985D01*
X007230Y008738D01*
X007169Y008676D01*
X007045Y008676D01*
X006983Y008738D01*
X006983Y008985D01*
X007045Y009047D01*
X007169Y009047D01*
X007230Y008985D01*
X007352Y008985D02*
X007413Y009047D01*
X007537Y009047D01*
X007599Y008985D01*
X007599Y008923D01*
X007537Y008861D01*
X007599Y008800D01*
X007599Y008738D01*
X007537Y008676D01*
X007413Y008676D01*
X007352Y008738D01*
X007475Y008861D02*
X007537Y008861D01*
X007479Y008512D02*
X007479Y008141D01*
X007726Y008141D01*
X007848Y008203D02*
X007848Y008326D01*
X007909Y008388D01*
X008033Y008388D01*
X008095Y008326D01*
X008095Y008265D01*
X007848Y008265D01*
X007848Y008203D02*
X007909Y008141D01*
X008033Y008141D01*
X008216Y008141D02*
X008340Y008141D01*
X008278Y008141D02*
X008278Y008512D01*
X008216Y008512D01*
X008462Y008326D02*
X008462Y008203D01*
X008523Y008141D01*
X008647Y008141D01*
X008708Y008203D01*
X008708Y008326D01*
X008647Y008388D01*
X008523Y008388D01*
X008462Y008326D01*
X008830Y008388D02*
X008830Y008141D01*
X009077Y008141D02*
X009077Y008326D01*
X009015Y008388D01*
X008830Y008388D01*
X009198Y008326D02*
X009198Y008203D01*
X009260Y008141D01*
X009445Y008141D01*
X009445Y008080D02*
X009445Y008388D01*
X009260Y008388D01*
X009198Y008326D01*
X009322Y008018D02*
X009383Y008018D01*
X009445Y008080D01*
X008915Y009321D02*
X008977Y009383D01*
X008977Y009445D01*
X008915Y009506D01*
X008730Y009506D01*
X008730Y009383D01*
X008792Y009321D01*
X008915Y009321D01*
X008730Y009506D02*
X008854Y009630D01*
X008977Y009692D01*
X008609Y009630D02*
X008609Y009506D01*
X008547Y009445D01*
X008362Y009445D01*
X008485Y009445D02*
X008609Y009321D01*
X008362Y009321D02*
X008362Y009692D01*
X008547Y009692D01*
X008609Y009630D01*
X008095Y009613D02*
X008095Y009565D01*
X008046Y009516D01*
X008095Y009468D01*
X008095Y009420D01*
X008046Y009371D01*
X007950Y009371D01*
X007901Y009420D01*
X007800Y009371D02*
X007607Y009371D01*
X007703Y009371D02*
X007703Y009662D01*
X007607Y009565D01*
X007505Y009613D02*
X007457Y009662D01*
X007360Y009662D01*
X007312Y009613D01*
X007312Y009420D01*
X007360Y009371D01*
X007457Y009371D01*
X007505Y009420D01*
X007901Y009613D02*
X007950Y009662D01*
X008046Y009662D01*
X008095Y009613D01*
X008046Y009516D02*
X007998Y009516D01*
X006928Y008388D02*
X006743Y008388D01*
X006743Y008141D01*
X006621Y008265D02*
X006375Y008265D01*
X006375Y008326D02*
X006436Y008388D01*
X006560Y008388D01*
X006621Y008326D01*
X006621Y008265D01*
X006560Y008141D02*
X006436Y008141D01*
X006375Y008203D01*
X006375Y008326D01*
X006064Y008676D02*
X005940Y008676D01*
X005879Y008738D01*
X006125Y008985D01*
X006125Y008738D01*
X006064Y008676D01*
X005879Y008738D02*
X005879Y008985D01*
X005940Y009047D01*
X006064Y009047D01*
X006125Y008985D01*
X005757Y008861D02*
X005510Y008861D01*
X005389Y008676D02*
X005142Y008676D01*
X005020Y008676D02*
X004774Y008676D01*
X004897Y008676D02*
X004897Y009047D01*
X004774Y008923D01*
X004652Y008985D02*
X004405Y008738D01*
X004467Y008676D01*
X004590Y008676D01*
X004652Y008738D01*
X004652Y008985D01*
X004590Y009047D01*
X004467Y009047D01*
X004405Y008985D01*
X004405Y008738D01*
X004284Y008676D02*
X004037Y008676D01*
X004284Y008923D01*
X004284Y008985D01*
X004222Y009047D01*
X004099Y009047D01*
X004037Y008985D01*
X003245Y008580D02*
X003245Y008333D01*
X003184Y008271D01*
X002999Y008271D01*
X002999Y008642D01*
X003184Y008642D01*
X003245Y008580D01*
X002877Y008642D02*
X002877Y008271D01*
X002630Y008642D01*
X002630Y008271D01*
X002509Y008333D02*
X002509Y008456D01*
X002385Y008456D01*
X002262Y008333D02*
X002262Y008580D01*
X002324Y008642D01*
X002447Y008642D01*
X002509Y008580D01*
X002509Y008333D02*
X002447Y008271D01*
X002324Y008271D01*
X002262Y008333D01*
X002385Y010171D02*
X002509Y010295D01*
X002509Y010542D01*
X002630Y010542D02*
X002815Y010542D01*
X002877Y010480D01*
X002877Y010233D01*
X002815Y010171D01*
X002630Y010171D01*
X002630Y010542D01*
X002262Y010542D02*
X002262Y010295D01*
X002385Y010171D01*
X002999Y010171D02*
X003184Y010171D01*
X003245Y010233D01*
X003245Y010480D01*
X003184Y010542D01*
X002999Y010542D01*
X002999Y010171D01*
X003725Y010239D02*
X003787Y010178D01*
X003911Y010178D01*
X003972Y010239D01*
X004094Y010239D02*
X004094Y010178D01*
X004094Y010239D02*
X004341Y010486D01*
X004341Y010548D01*
X004094Y010548D01*
X003972Y010486D02*
X003911Y010548D01*
X003787Y010548D01*
X003725Y010486D01*
X003725Y010239D01*
X002877Y011171D02*
X002630Y011542D01*
X002509Y011480D02*
X002509Y011356D01*
X002447Y011295D01*
X002262Y011295D01*
X002385Y011295D02*
X002509Y011171D01*
X002630Y011171D02*
X002877Y011542D01*
X002509Y011480D02*
X002447Y011542D01*
X002262Y011542D01*
X002262Y011171D01*
X002385Y012171D02*
X002385Y012542D01*
X002262Y012542D02*
X002509Y012542D01*
X002630Y012542D02*
X002877Y012171D01*
X002630Y012171D02*
X002877Y012542D01*
X002754Y013171D02*
X002754Y013542D01*
X002877Y013542D02*
X002630Y013542D01*
X002509Y013480D02*
X002447Y013542D01*
X002262Y013542D01*
X002262Y013171D01*
X002262Y013295D02*
X002447Y013295D01*
X002509Y013356D01*
X002509Y013480D01*
X002385Y013295D02*
X002509Y013171D01*
X002999Y013233D02*
X003060Y013171D01*
X003184Y013171D01*
X003245Y013233D01*
X003245Y013295D01*
X003184Y013356D01*
X003060Y013356D01*
X002999Y013418D01*
X002999Y013480D01*
X003060Y013542D01*
X003184Y013542D01*
X003245Y013480D01*
X002532Y015021D02*
X002242Y015021D01*
X002242Y015166D01*
X002290Y015215D01*
X002387Y015215D01*
X002435Y015166D01*
X002435Y015021D01*
X002484Y015316D02*
X002290Y015316D01*
X002242Y015364D01*
X002242Y015461D01*
X002290Y015509D01*
X002387Y015509D02*
X002387Y015413D01*
X002387Y015509D02*
X002484Y015509D01*
X002532Y015461D01*
X002532Y015364D01*
X002484Y015316D01*
X002484Y015611D02*
X002290Y015611D01*
X002242Y015659D01*
X002242Y015756D01*
X002290Y015804D01*
X002484Y015804D02*
X002532Y015756D01*
X002532Y015659D01*
X002484Y015611D01*
X002532Y016071D02*
X002242Y016071D01*
X002242Y016216D01*
X002290Y016265D01*
X002387Y016265D01*
X002435Y016216D01*
X002435Y016071D01*
X002484Y016366D02*
X002290Y016366D01*
X002242Y016414D01*
X002242Y016511D01*
X002290Y016559D01*
X002387Y016559D02*
X002387Y016463D01*
X002387Y016559D02*
X002484Y016559D01*
X002532Y016511D01*
X002532Y016414D01*
X002484Y016366D01*
X002532Y016661D02*
X002242Y016661D01*
X002242Y016806D01*
X002290Y016854D01*
X002484Y016854D01*
X002532Y016806D01*
X002532Y016661D01*
X002484Y017071D02*
X002290Y017071D01*
X002242Y017120D01*
X002242Y017216D01*
X002290Y017265D01*
X002387Y017265D02*
X002387Y017168D01*
X002387Y017265D02*
X002484Y017265D01*
X002532Y017216D01*
X002532Y017120D01*
X002484Y017071D01*
X002532Y017366D02*
X002242Y017366D01*
X002532Y017559D01*
X002242Y017559D01*
X002242Y017661D02*
X002242Y017806D01*
X002290Y017854D01*
X002484Y017854D01*
X002532Y017806D01*
X002532Y017661D01*
X002242Y017661D01*
X002242Y018171D02*
X002435Y018171D01*
X002532Y018268D01*
X002435Y018365D01*
X002242Y018365D01*
X002242Y018466D02*
X002242Y018611D01*
X002290Y018659D01*
X002484Y018659D01*
X002532Y018611D01*
X002532Y018466D01*
X002242Y018466D01*
X002242Y018761D02*
X002242Y018906D01*
X002290Y018954D01*
X002484Y018954D01*
X002532Y018906D01*
X002532Y018761D01*
X002242Y018761D01*
X002525Y018630D02*
X002525Y018383D01*
X002587Y018321D01*
X002711Y018321D01*
X002772Y018383D01*
X002894Y018506D02*
X003141Y018506D01*
X003079Y018321D02*
X003079Y018692D01*
X002894Y018506D01*
X002772Y018630D02*
X002711Y018692D01*
X002587Y018692D01*
X002525Y018630D01*
X002425Y019211D02*
X002232Y019211D01*
X002425Y019211D02*
X002522Y019308D01*
X002425Y019405D01*
X002232Y019405D01*
X002232Y019506D02*
X002232Y019651D01*
X002280Y019699D01*
X002377Y019699D01*
X002425Y019651D01*
X002425Y019506D01*
X002522Y019506D02*
X002232Y019506D01*
X002232Y019801D02*
X002232Y019946D01*
X002280Y019994D01*
X002377Y019994D01*
X002425Y019946D01*
X002425Y019801D01*
X002522Y019801D02*
X002232Y019801D01*
X004262Y019871D02*
X004262Y020242D01*
X004447Y020242D01*
X004509Y020180D01*
X004509Y020056D01*
X004447Y019995D01*
X004262Y019995D01*
X004385Y019995D02*
X004509Y019871D01*
X004630Y019933D02*
X004692Y019871D01*
X004815Y019871D01*
X004877Y019933D01*
X004877Y019995D01*
X004815Y020056D01*
X004692Y020056D01*
X004630Y020118D01*
X004630Y020180D01*
X004692Y020242D01*
X004815Y020242D01*
X004877Y020180D01*
X004999Y020242D02*
X005245Y020242D01*
X005122Y020242D02*
X005122Y019871D01*
X005044Y019402D02*
X005044Y019031D01*
X005167Y019031D02*
X004920Y019031D01*
X004799Y019093D02*
X004737Y019031D01*
X004614Y019031D01*
X004552Y019093D01*
X004614Y019216D02*
X004552Y019278D01*
X004552Y019340D01*
X004614Y019402D01*
X004737Y019402D01*
X004799Y019340D01*
X004920Y019278D02*
X005044Y019402D01*
X004799Y019155D02*
X004799Y019093D01*
X004799Y019155D02*
X004737Y019216D01*
X004614Y019216D01*
X004131Y017442D02*
X003986Y017296D01*
X004179Y017296D01*
X004131Y017151D02*
X004131Y017442D01*
X003885Y017393D02*
X003885Y017200D01*
X003836Y017151D01*
X003691Y017151D01*
X003691Y017442D01*
X003836Y017442D01*
X003885Y017393D01*
X003590Y017442D02*
X003397Y017442D01*
X003397Y017151D01*
X003590Y017151D01*
X003493Y017296D02*
X003397Y017296D01*
X003295Y017151D02*
X003102Y017151D01*
X003102Y017442D01*
X004523Y017202D02*
X004717Y016911D01*
X004818Y016911D02*
X004963Y016911D01*
X005012Y016960D01*
X005012Y017008D01*
X004963Y017056D01*
X004818Y017056D01*
X004818Y016911D02*
X004818Y017202D01*
X004963Y017202D01*
X005012Y017153D01*
X005012Y017105D01*
X004963Y017056D01*
X005113Y017056D02*
X005209Y017056D01*
X005113Y016911D02*
X005306Y016911D01*
X005407Y016911D02*
X005601Y016911D01*
X005504Y017056D02*
X005407Y017056D01*
X005407Y016911D02*
X005407Y017202D01*
X005601Y017202D01*
X005306Y017202D02*
X005113Y017202D01*
X005113Y016911D01*
X004717Y017202D02*
X004523Y016911D01*
X007312Y015425D02*
X007312Y015301D01*
X007373Y015240D01*
X007373Y015118D02*
X007312Y015056D01*
X007312Y014871D01*
X007682Y014871D01*
X007682Y015056D01*
X007620Y015118D01*
X007373Y015118D01*
X007497Y015363D02*
X007497Y015425D01*
X007559Y015486D01*
X007620Y015486D01*
X007682Y015425D01*
X007682Y015301D01*
X007620Y015240D01*
X007497Y015425D02*
X007435Y015486D01*
X007373Y015486D01*
X007312Y015425D01*
X007575Y011742D02*
X007761Y011742D01*
X007822Y011680D01*
X007822Y011556D01*
X007761Y011495D01*
X007575Y011495D01*
X007575Y011371D02*
X007575Y011742D01*
X007699Y011495D02*
X007822Y011371D01*
X007944Y011371D02*
X008191Y011371D01*
X008067Y011371D02*
X008067Y011742D01*
X007944Y011618D01*
X005265Y009047D02*
X005265Y008676D01*
X005142Y008923D02*
X005265Y009047D01*
X005515Y008326D02*
X005577Y008265D01*
X005700Y008265D01*
X005762Y008203D01*
X005700Y008141D01*
X005515Y008141D01*
X006928Y008388D02*
X006990Y008326D01*
X006990Y008141D01*
X007480Y004836D02*
X007418Y004775D01*
X007418Y004651D01*
X007480Y004590D01*
X007541Y004590D01*
X007603Y004651D01*
X007603Y004775D01*
X007665Y004836D01*
X007727Y004836D01*
X007788Y004775D01*
X007788Y004651D01*
X007727Y004590D01*
X007665Y004590D01*
X007603Y004651D01*
X007603Y004775D02*
X007541Y004836D01*
X007480Y004836D01*
X007480Y004468D02*
X007418Y004406D01*
X007418Y004283D01*
X007480Y004221D01*
X007727Y004221D01*
X007788Y004283D01*
X007788Y004406D01*
X007727Y004468D01*
D28*
X007887Y004050D02*
X007887Y005072D01*
X008041Y005167D02*
X008513Y005167D01*
X008041Y005167D01*
X008513Y005167D02*
X008671Y005048D01*
X008671Y004084D01*
X008513Y003946D01*
X008041Y003946D01*
X007293Y003926D02*
X006623Y003926D01*
X006623Y005167D01*
X007293Y005167D01*
X006903Y005663D02*
X006352Y005663D01*
X006352Y006450D01*
X006903Y006450D01*
X007179Y006332D02*
X007179Y006056D01*
X007415Y006293D01*
X007415Y005820D01*
X007179Y006056D01*
X007179Y005781D01*
X007691Y005663D02*
X008242Y005663D01*
X008242Y006450D01*
X007691Y006450D01*
X004639Y009233D02*
X004757Y009390D01*
X004757Y009863D01*
X004757Y009390D01*
X004639Y009233D02*
X003675Y009233D01*
X003537Y009390D01*
X003537Y009863D01*
X003641Y010017D02*
X004663Y010017D01*
X004757Y010611D02*
X004757Y011280D01*
X003517Y011280D01*
X003517Y010611D01*
X002147Y010656D02*
X002147Y010156D01*
X001897Y009906D01*
X002147Y009656D01*
X002147Y009156D01*
X001897Y008906D01*
X002147Y008656D01*
X002147Y008156D01*
X001897Y007906D01*
X001397Y007906D01*
X001147Y008156D01*
X001147Y008656D01*
X001397Y008906D01*
X001147Y009156D01*
X001147Y009656D01*
X001397Y009906D01*
X001147Y010156D01*
X001147Y010656D01*
X001397Y010906D01*
X001147Y011156D01*
X001147Y011656D01*
X001397Y011906D01*
X001147Y012156D01*
X001147Y012656D01*
X001397Y012906D01*
X001147Y013156D01*
X001147Y013656D01*
X001397Y013906D01*
X001897Y013906D01*
X002147Y013656D01*
X002147Y013156D01*
X001897Y012906D01*
X002147Y012656D01*
X002147Y012156D01*
X001897Y011906D01*
X002147Y011656D01*
X002147Y011156D01*
X001897Y010906D01*
X002147Y010656D01*
X000324Y009825D02*
X000324Y014372D01*
X002814Y016863D01*
X011112Y016863D01*
X010897Y018056D02*
X010397Y018056D01*
X010147Y018306D01*
X009897Y018056D01*
X009397Y018056D01*
X009147Y018306D01*
X008897Y018056D01*
X008397Y018056D01*
X008147Y018306D01*
X007897Y018056D01*
X007397Y018056D01*
X007147Y018306D01*
X006897Y018056D01*
X006397Y018056D01*
X006147Y018306D01*
X006147Y018806D01*
X006397Y019056D01*
X006897Y019056D01*
X007147Y018806D01*
X007397Y019056D01*
X007897Y019056D01*
X008147Y018806D01*
X008397Y019056D01*
X008897Y019056D01*
X009147Y018806D01*
X009397Y019056D01*
X009897Y019056D01*
X010147Y018806D01*
X010397Y019056D01*
X010897Y019056D01*
X011147Y018806D01*
X011397Y019056D01*
X011897Y019056D01*
X012147Y018806D01*
X012397Y019056D01*
X012897Y019056D01*
X013147Y018806D01*
X013397Y019056D01*
X013897Y019056D01*
X014147Y018806D01*
X014397Y019056D01*
X014897Y019056D01*
X015147Y018806D01*
X015397Y019056D01*
X015897Y019056D01*
X016147Y018806D01*
X016397Y019056D01*
X016897Y019056D01*
X017147Y018806D01*
X017397Y019056D01*
X017897Y019056D01*
X018147Y018806D01*
X018397Y019056D01*
X018897Y019056D01*
X019147Y018806D01*
X019397Y019056D01*
X019897Y019056D01*
X020147Y018806D01*
X020147Y018306D01*
X019897Y018056D01*
X019397Y018056D01*
X019147Y018306D01*
X018897Y018056D01*
X018397Y018056D01*
X018147Y018306D01*
X017897Y018056D01*
X017397Y018056D01*
X017147Y018306D01*
X016897Y018056D01*
X016397Y018056D01*
X016147Y018306D01*
X015897Y018056D01*
X015397Y018056D01*
X015147Y018306D01*
X014897Y018056D01*
X014397Y018056D01*
X014147Y018306D01*
X013897Y018056D01*
X013397Y018056D01*
X013147Y018306D01*
X012897Y018056D01*
X012397Y018056D01*
X012147Y018306D01*
X011897Y018056D01*
X011397Y018056D01*
X011147Y018306D01*
X010897Y018056D01*
X010897Y019056D02*
X010397Y019056D01*
X010147Y019306D01*
X009897Y019056D01*
X009397Y019056D01*
X009147Y019306D01*
X008897Y019056D01*
X008397Y019056D01*
X008147Y019306D01*
X007897Y019056D01*
X007397Y019056D01*
X007147Y019306D01*
X006897Y019056D01*
X006397Y019056D01*
X006147Y019306D01*
X006147Y019806D01*
X006397Y020056D01*
X006897Y020056D01*
X007147Y019806D01*
X007397Y020056D01*
X007897Y020056D01*
X008147Y019806D01*
X008397Y020056D01*
X008897Y020056D01*
X009147Y019806D01*
X009397Y020056D01*
X009897Y020056D01*
X010147Y019806D01*
X010397Y020056D01*
X010897Y020056D01*
X011147Y019806D01*
X011397Y020056D01*
X011897Y020056D01*
X012147Y019806D01*
X012397Y020056D01*
X012897Y020056D01*
X013147Y019806D01*
X013397Y020056D01*
X013897Y020056D01*
X014147Y019806D01*
X014397Y020056D01*
X014897Y020056D01*
X015147Y019806D01*
X015397Y020056D01*
X015897Y020056D01*
X016147Y019806D01*
X016397Y020056D01*
X016897Y020056D01*
X017147Y019806D01*
X017397Y020056D01*
X017897Y020056D01*
X018147Y019806D01*
X018397Y020056D01*
X018897Y020056D01*
X019147Y019806D01*
X019397Y020056D01*
X019897Y020056D01*
X020147Y019806D01*
X020147Y019306D01*
X019897Y019056D01*
X019397Y019056D01*
X019147Y019306D01*
X018897Y019056D01*
X018397Y019056D01*
X018147Y019306D01*
X017897Y019056D01*
X017397Y019056D01*
X017147Y019306D01*
X016897Y019056D01*
X016397Y019056D01*
X016147Y019306D01*
X015897Y019056D01*
X015397Y019056D01*
X015147Y019306D01*
X014897Y019056D01*
X014397Y019056D01*
X014147Y019306D01*
X013897Y019056D01*
X013397Y019056D01*
X013147Y019306D01*
X012897Y019056D01*
X012397Y019056D01*
X012147Y019306D01*
X011897Y019056D01*
X011397Y019056D01*
X011147Y019306D01*
X010897Y019056D01*
X007751Y015768D02*
X006940Y015768D01*
X006940Y014744D02*
X007751Y014744D01*
X006142Y017213D02*
X005591Y017213D01*
X005315Y017331D02*
X005315Y017606D01*
X005079Y017370D01*
X005079Y017843D01*
X005315Y017606D01*
X005315Y017882D01*
X005403Y018056D02*
X004191Y018056D01*
X004252Y018000D02*
X004252Y017213D01*
X004803Y017213D01*
X004803Y018000D02*
X004252Y018000D01*
X003797Y018568D02*
X003797Y019556D01*
X004191Y020056D02*
X005403Y020056D01*
X005797Y019544D02*
X005797Y018568D01*
X005591Y018000D02*
X006142Y018000D01*
X006142Y017213D01*
X004297Y019056D02*
X004299Y019100D01*
X004305Y019144D01*
X004315Y019187D01*
X004328Y019229D01*
X004345Y019270D01*
X004366Y019309D01*
X004390Y019346D01*
X004417Y019381D01*
X004447Y019413D01*
X004480Y019443D01*
X004516Y019469D01*
X004553Y019493D01*
X004593Y019512D01*
X004634Y019529D01*
X004677Y019541D01*
X004720Y019550D01*
X004764Y019555D01*
X004808Y019556D01*
X004852Y019553D01*
X004896Y019546D01*
X004939Y019535D01*
X004981Y019521D01*
X005021Y019503D01*
X005060Y019481D01*
X005096Y019457D01*
X005130Y019429D01*
X005162Y019398D01*
X005191Y019364D01*
X005217Y019328D01*
X005239Y019290D01*
X005258Y019250D01*
X005273Y019208D01*
X005285Y019166D01*
X005293Y019122D01*
X005297Y019078D01*
X005297Y019034D01*
X005293Y018990D01*
X005285Y018946D01*
X005273Y018904D01*
X005258Y018862D01*
X005239Y018822D01*
X005217Y018784D01*
X005191Y018748D01*
X005162Y018714D01*
X005130Y018683D01*
X005096Y018655D01*
X005060Y018631D01*
X005021Y018609D01*
X004981Y018591D01*
X004939Y018577D01*
X004896Y018566D01*
X004852Y018559D01*
X004808Y018556D01*
X004764Y018557D01*
X004720Y018562D01*
X004677Y018571D01*
X004634Y018583D01*
X004593Y018600D01*
X004553Y018619D01*
X004516Y018643D01*
X004480Y018669D01*
X004447Y018699D01*
X004417Y018731D01*
X004390Y018766D01*
X004366Y018803D01*
X004345Y018842D01*
X004328Y018883D01*
X004315Y018925D01*
X004305Y018968D01*
X004299Y019012D01*
X004297Y019056D01*
X002147Y018806D02*
X002147Y018306D01*
X001897Y018056D01*
X002147Y017806D01*
X002147Y017306D01*
X001897Y017056D01*
X002147Y016806D01*
X002147Y016306D01*
X001897Y016056D01*
X002147Y015806D01*
X002147Y015306D01*
X001897Y015056D01*
X002147Y014806D01*
X002147Y014306D01*
X001897Y014056D01*
X001397Y014056D01*
X001147Y014306D01*
X001147Y014806D01*
X001397Y015056D01*
X001147Y015306D01*
X001147Y015806D01*
X001397Y016056D01*
X001147Y016306D01*
X001147Y016806D01*
X001397Y017056D01*
X001147Y017306D01*
X001147Y017806D01*
X001397Y018056D01*
X001147Y018306D01*
X001147Y018806D01*
X001397Y019056D01*
X001147Y019306D01*
X001147Y019806D01*
X001397Y020056D01*
X001897Y020056D01*
X002147Y019806D01*
X002147Y019306D01*
X001897Y019056D01*
X002147Y018806D01*
X000324Y009825D02*
X002814Y007335D01*
X011112Y007335D01*
X010897Y003056D02*
X010397Y003056D01*
X010147Y002806D01*
X009897Y003056D01*
X009397Y003056D01*
X009147Y002806D01*
X008897Y003056D01*
X008397Y003056D01*
X008147Y002806D01*
X007897Y003056D01*
X007397Y003056D01*
X007147Y002806D01*
X006897Y003056D01*
X006397Y003056D01*
X006147Y002806D01*
X006147Y002306D01*
X006397Y002056D01*
X006147Y001806D01*
X006147Y001306D01*
X006397Y001056D01*
X006897Y001056D01*
X007147Y001306D01*
X007397Y001056D01*
X007897Y001056D01*
X008147Y001306D01*
X008397Y001056D01*
X008897Y001056D01*
X009147Y001306D01*
X009397Y001056D01*
X009897Y001056D01*
X010147Y001306D01*
X010397Y001056D01*
X010897Y001056D01*
X011147Y001306D01*
X011397Y001056D01*
X011897Y001056D01*
X012147Y001306D01*
X012397Y001056D01*
X012897Y001056D01*
X013147Y001306D01*
X013397Y001056D01*
X013897Y001056D01*
X014147Y001306D01*
X014397Y001056D01*
X014897Y001056D01*
X015147Y001306D01*
X015397Y001056D01*
X015897Y001056D01*
X016147Y001306D01*
X016397Y001056D01*
X016897Y001056D01*
X017147Y001306D01*
X017397Y001056D01*
X017897Y001056D01*
X018147Y001306D01*
X018397Y001056D01*
X018897Y001056D01*
X019147Y001306D01*
X019397Y001056D01*
X019897Y001056D01*
X020147Y001306D01*
X020147Y001806D01*
X019897Y002056D01*
X019397Y002056D01*
X019147Y001806D01*
X018897Y002056D01*
X018397Y002056D01*
X018147Y001806D01*
X017897Y002056D01*
X017397Y002056D01*
X017147Y001806D01*
X016897Y002056D01*
X016397Y002056D01*
X016147Y001806D01*
X015897Y002056D01*
X015397Y002056D01*
X015147Y001806D01*
X014897Y002056D01*
X014397Y002056D01*
X014147Y001806D01*
X013897Y002056D01*
X013397Y002056D01*
X013147Y001806D01*
X012897Y002056D01*
X012397Y002056D01*
X012147Y001806D01*
X011897Y002056D01*
X011397Y002056D01*
X011147Y001806D01*
X010897Y002056D01*
X010397Y002056D01*
X010147Y001806D01*
X009897Y002056D01*
X009397Y002056D01*
X009147Y001806D01*
X008897Y002056D01*
X008397Y002056D01*
X008147Y001806D01*
X007897Y002056D01*
X007397Y002056D01*
X007147Y001806D01*
X006897Y002056D01*
X006397Y002056D01*
X006897Y002056D01*
X007147Y002306D01*
X007397Y002056D01*
X007897Y002056D01*
X008147Y002306D01*
X008397Y002056D01*
X008897Y002056D01*
X009147Y002306D01*
X009397Y002056D01*
X009897Y002056D01*
X010147Y002306D01*
X010397Y002056D01*
X010897Y002056D01*
X011147Y002306D01*
X011397Y002056D01*
X011897Y002056D01*
X012147Y002306D01*
X012397Y002056D01*
X012897Y002056D01*
X013147Y002306D01*
X013397Y002056D01*
X013897Y002056D01*
X014147Y002306D01*
X014397Y002056D01*
X014897Y002056D01*
X015147Y002306D01*
X015397Y002056D01*
X015897Y002056D01*
X016147Y002306D01*
X016397Y002056D01*
X016897Y002056D01*
X017147Y002306D01*
X017397Y002056D01*
X017897Y002056D01*
X018147Y002306D01*
X018397Y002056D01*
X018897Y002056D01*
X019147Y002306D01*
X019397Y002056D01*
X019897Y002056D01*
X020147Y002306D01*
X020147Y002806D01*
X019897Y003056D01*
X019397Y003056D01*
X019147Y002806D01*
X018897Y003056D01*
X018397Y003056D01*
X018147Y002806D01*
X017897Y003056D01*
X017397Y003056D01*
X017147Y002806D01*
X016897Y003056D01*
X016397Y003056D01*
X016147Y002806D01*
X015897Y003056D01*
X015397Y003056D01*
X015147Y002806D01*
X014897Y003056D01*
X014397Y003056D01*
X014147Y002806D01*
X013897Y003056D01*
X013397Y003056D01*
X013147Y002806D01*
X012897Y003056D01*
X012397Y003056D01*
X012147Y002806D01*
X011897Y003056D01*
X011397Y003056D01*
X011147Y002806D01*
X010897Y003056D01*
X005918Y003262D02*
X005918Y001451D01*
X005741Y001451D01*
X004953Y001451D02*
X004776Y001451D01*
X004776Y003262D01*
X004953Y003262D01*
X004953Y002750D02*
X005741Y002750D01*
X005741Y003262D02*
X005918Y003262D01*
X004147Y002806D02*
X004147Y002306D01*
X003897Y002056D01*
X003397Y002056D01*
X003147Y002306D01*
X002897Y002056D01*
X002397Y002056D01*
X002147Y002306D01*
X001897Y002056D01*
X001397Y002056D01*
X001147Y002306D01*
X001147Y002806D01*
X001397Y003056D01*
X001897Y003056D01*
X002147Y002806D01*
X002397Y003056D01*
X002897Y003056D01*
X003147Y002806D01*
X003397Y003056D01*
X003897Y003056D01*
X004147Y002806D01*
X003897Y002056D02*
X003397Y002056D01*
X003147Y001806D01*
X002897Y002056D01*
X002397Y002056D01*
X002147Y001806D01*
X001897Y002056D01*
X001397Y002056D01*
X001147Y001806D01*
X001147Y001306D01*
X001397Y001056D01*
X001897Y001056D01*
X002147Y001306D01*
X002397Y001056D01*
X002897Y001056D01*
X003147Y001306D01*
X003397Y001056D01*
X003897Y001056D01*
X004147Y001306D01*
X004147Y001806D01*
X003897Y002056D01*
X000947Y003646D02*
X000947Y004260D01*
X001447Y005606D02*
X001947Y005606D01*
X002197Y005856D01*
X002197Y006356D01*
X001947Y006606D01*
X002197Y006856D01*
X002197Y007356D01*
X001947Y007606D01*
X001447Y007606D01*
X001197Y007356D01*
X001197Y006856D01*
X001447Y006606D01*
X001197Y006356D01*
X001197Y005856D01*
X001447Y005606D01*
X015032Y013763D02*
X015662Y013763D01*
X015678Y013768D01*
X015694Y013776D01*
X015708Y013786D01*
X015720Y013798D01*
X015730Y013813D01*
X015737Y013829D01*
X015741Y013846D01*
X015742Y013863D01*
X015740Y013881D01*
X015982Y013800D02*
X016612Y013800D01*
X016628Y013795D01*
X016644Y013787D01*
X016658Y013777D01*
X016670Y013765D01*
X016680Y013750D01*
X016687Y013734D01*
X016691Y013717D01*
X016692Y013700D01*
X016690Y013682D01*
X017248Y013790D02*
X017248Y013436D01*
X016690Y013131D02*
X016692Y013113D01*
X016691Y013096D01*
X016687Y013079D01*
X016680Y013063D01*
X016670Y013048D01*
X016658Y013036D01*
X016644Y013026D01*
X016628Y013018D01*
X016612Y013013D01*
X015982Y013013D01*
X015966Y013018D01*
X015950Y013026D01*
X015936Y013036D01*
X015924Y013048D01*
X015914Y013063D01*
X015907Y013079D01*
X015903Y013096D01*
X015902Y013113D01*
X015904Y013131D01*
X015904Y013682D02*
X015902Y013700D01*
X015903Y013717D01*
X015907Y013734D01*
X015914Y013750D01*
X015924Y013765D01*
X015936Y013777D01*
X015950Y013787D01*
X015966Y013795D01*
X015982Y013800D01*
X015740Y014432D02*
X015742Y014450D01*
X015741Y014467D01*
X015737Y014484D01*
X015730Y014500D01*
X015720Y014515D01*
X015708Y014527D01*
X015694Y014537D01*
X015678Y014545D01*
X015662Y014550D01*
X015032Y014550D01*
X015016Y014545D01*
X015000Y014537D01*
X014986Y014527D01*
X014974Y014515D01*
X014964Y014500D01*
X014957Y014484D01*
X014953Y014467D01*
X014952Y014450D01*
X014954Y014432D01*
X014954Y013881D02*
X014952Y013863D01*
X014953Y013846D01*
X014957Y013829D01*
X014964Y013813D01*
X014974Y013798D01*
X014986Y013786D01*
X015000Y013776D01*
X015016Y013768D01*
X015032Y013763D01*
X017248Y015522D02*
X017248Y015877D01*
X018232Y016152D02*
X019059Y016152D01*
X019059Y013160D02*
X018232Y013160D01*
X019005Y011580D02*
X018887Y011422D01*
X018887Y010950D01*
X018887Y011422D01*
X019005Y011580D02*
X019969Y011580D01*
X020107Y011422D01*
X020107Y010950D01*
X020003Y010796D02*
X018981Y010796D01*
X018887Y010202D02*
X018887Y009533D01*
X020127Y009533D01*
X020127Y010202D01*
X019491Y005851D02*
X018703Y005851D01*
X018703Y005300D01*
X018861Y005024D02*
X019097Y004788D01*
X019333Y005024D01*
X018861Y005024D01*
X018821Y004788D02*
X019097Y004788D01*
X019373Y004788D01*
X019491Y004513D02*
X019491Y003961D01*
X018703Y003961D01*
X018703Y004513D01*
X019491Y005300D02*
X019491Y005851D01*
D29*
X019447Y003637D02*
X019294Y003637D01*
X019217Y003560D01*
X019217Y003253D01*
X019294Y003176D01*
X019447Y003176D01*
X019524Y003253D01*
X019677Y003253D02*
X019754Y003176D01*
X019908Y003176D01*
X019984Y003253D01*
X019984Y003330D01*
X019908Y003406D01*
X019831Y003406D01*
X019908Y003406D02*
X019984Y003483D01*
X019984Y003560D01*
X019908Y003637D01*
X019754Y003637D01*
X019677Y003560D01*
X019524Y003560D02*
X019447Y003637D01*
X018984Y003560D02*
X018908Y003637D01*
X018754Y003637D01*
X018677Y003560D01*
X018524Y003560D02*
X018447Y003637D01*
X018294Y003637D01*
X018217Y003560D01*
X018217Y003253D01*
X018294Y003176D01*
X018447Y003176D01*
X018524Y003253D01*
X018677Y003176D02*
X018984Y003483D01*
X018984Y003560D01*
X018984Y003176D02*
X018677Y003176D01*
X017984Y003176D02*
X017677Y003176D01*
X017831Y003176D02*
X017831Y003637D01*
X017677Y003483D01*
X017524Y003560D02*
X017447Y003637D01*
X017294Y003637D01*
X017217Y003560D01*
X017217Y003253D01*
X017294Y003176D01*
X017447Y003176D01*
X017524Y003253D01*
X016984Y003253D02*
X016908Y003176D01*
X016754Y003176D01*
X016677Y003253D01*
X016984Y003560D01*
X016984Y003253D01*
X016984Y003560D02*
X016908Y003637D01*
X016754Y003637D01*
X016677Y003560D01*
X016677Y003253D01*
X016524Y003253D02*
X016447Y003176D01*
X016294Y003176D01*
X016217Y003253D01*
X016217Y003560D01*
X016294Y003637D01*
X016447Y003637D01*
X016524Y003560D01*
X015984Y003637D02*
X015831Y003560D01*
X015677Y003406D01*
X015908Y003406D01*
X015984Y003330D01*
X015984Y003253D01*
X015908Y003176D01*
X015754Y003176D01*
X015677Y003253D01*
X015677Y003406D01*
X015524Y003406D02*
X015217Y003406D01*
X015217Y003483D02*
X015370Y003637D01*
X015524Y003483D01*
X015524Y003176D01*
X015217Y003176D02*
X015217Y003483D01*
X014984Y003560D02*
X014984Y003637D01*
X014677Y003637D01*
X014524Y003483D02*
X014524Y003176D01*
X014677Y003176D02*
X014677Y003253D01*
X014984Y003560D01*
X014524Y003483D02*
X014370Y003637D01*
X014217Y003483D01*
X014217Y003176D01*
X014217Y003406D02*
X014524Y003406D01*
X012984Y003406D02*
X012984Y003253D01*
X012908Y003176D01*
X012754Y003176D01*
X012677Y003253D01*
X012677Y003406D02*
X012831Y003483D01*
X012908Y003483D01*
X012984Y003406D01*
X012984Y003637D02*
X012677Y003637D01*
X012677Y003406D01*
X012524Y003406D02*
X012217Y003406D01*
X012217Y003483D02*
X012370Y003637D01*
X012524Y003483D01*
X012524Y003176D01*
X012217Y003176D02*
X012217Y003483D01*
X011984Y003406D02*
X011677Y003406D01*
X011908Y003637D01*
X011908Y003176D01*
X011524Y003176D02*
X011524Y003483D01*
X011370Y003637D01*
X011217Y003483D01*
X011217Y003176D01*
X011217Y003406D02*
X011524Y003406D01*
X010984Y003330D02*
X010984Y003253D01*
X010908Y003176D01*
X010754Y003176D01*
X010677Y003253D01*
X010524Y003176D02*
X010524Y003483D01*
X010370Y003637D01*
X010217Y003483D01*
X010217Y003176D01*
X010217Y003406D02*
X010524Y003406D01*
X010677Y003560D02*
X010754Y003637D01*
X010908Y003637D01*
X010984Y003560D01*
X010984Y003483D01*
X010908Y003406D01*
X010984Y003330D01*
X010908Y003406D02*
X010831Y003406D01*
X009984Y003483D02*
X009984Y003560D01*
X009908Y003637D01*
X009754Y003637D01*
X009677Y003560D01*
X009524Y003483D02*
X009524Y003176D01*
X009677Y003176D02*
X009984Y003483D01*
X009984Y003176D02*
X009677Y003176D01*
X009524Y003406D02*
X009217Y003406D01*
X009217Y003483D02*
X009370Y003637D01*
X009524Y003483D01*
X009217Y003483D02*
X009217Y003176D01*
X008984Y003176D02*
X008677Y003176D01*
X008524Y003176D02*
X008524Y003483D01*
X008370Y003637D01*
X008217Y003483D01*
X008217Y003176D01*
X008217Y003406D02*
X008524Y003406D01*
X008677Y003483D02*
X008831Y003637D01*
X008831Y003176D01*
X007984Y003253D02*
X007908Y003176D01*
X007754Y003176D01*
X007677Y003253D01*
X007984Y003560D01*
X007984Y003253D01*
X007984Y003560D02*
X007908Y003637D01*
X007754Y003637D01*
X007677Y003560D01*
X007677Y003253D01*
X007524Y003176D02*
X007524Y003483D01*
X007370Y003637D01*
X007217Y003483D01*
X007217Y003176D01*
X007217Y003406D02*
X007524Y003406D01*
X011517Y006936D02*
X011517Y007056D01*
X011577Y007116D01*
X011817Y007116D01*
X011877Y007056D01*
X011877Y006936D01*
X011817Y006876D01*
X011577Y006876D01*
X011517Y006936D01*
X011757Y006996D02*
X011877Y007116D01*
X011877Y007245D02*
X011877Y007485D01*
X011877Y007365D02*
X011517Y007365D01*
X011637Y007245D01*
X007365Y010774D02*
X007058Y010774D01*
X007211Y010774D02*
X007211Y011234D01*
X007058Y011081D01*
X006904Y011081D02*
X006828Y011004D01*
X006597Y011004D01*
X006597Y010774D02*
X006597Y011234D01*
X006828Y011234D01*
X006904Y011157D01*
X006904Y011081D01*
X006828Y011004D02*
X006904Y010927D01*
X006904Y010850D01*
X006828Y010774D01*
X006597Y010774D01*
X006444Y010774D02*
X006137Y011234D01*
X006444Y011234D02*
X006137Y010774D01*
X006196Y017476D02*
X006426Y017476D01*
X006503Y017553D01*
X006503Y017630D01*
X006426Y017706D01*
X006196Y017706D01*
X006196Y017476D02*
X006196Y017937D01*
X006426Y017937D01*
X006503Y017860D01*
X006503Y017783D01*
X006426Y017706D01*
X006657Y017553D02*
X006657Y017476D01*
X006657Y017553D02*
X006964Y017860D01*
X006964Y017937D01*
X006657Y017937D01*
X007196Y017937D02*
X007196Y017476D01*
X007426Y017476D01*
X007503Y017553D01*
X007503Y017630D01*
X007426Y017706D01*
X007196Y017706D01*
X007426Y017706D02*
X007503Y017783D01*
X007503Y017860D01*
X007426Y017937D01*
X007196Y017937D01*
X007657Y017706D02*
X007887Y017706D01*
X007964Y017630D01*
X007964Y017553D01*
X007887Y017476D01*
X007733Y017476D01*
X007657Y017553D01*
X007657Y017706D01*
X007810Y017860D01*
X007964Y017937D01*
X008196Y017937D02*
X008426Y017937D01*
X008503Y017860D01*
X008503Y017783D01*
X008426Y017706D01*
X008196Y017706D01*
X008196Y017476D02*
X008426Y017476D01*
X008503Y017553D01*
X008503Y017630D01*
X008426Y017706D01*
X008657Y017706D02*
X008657Y017937D01*
X008964Y017937D01*
X008887Y017783D02*
X008964Y017706D01*
X008964Y017553D01*
X008887Y017476D01*
X008733Y017476D01*
X008657Y017553D01*
X008657Y017706D02*
X008810Y017783D01*
X008887Y017783D01*
X009196Y017706D02*
X009426Y017706D01*
X009503Y017630D01*
X009503Y017553D01*
X009426Y017476D01*
X009196Y017476D01*
X009196Y017937D01*
X009426Y017937D01*
X009503Y017860D01*
X009503Y017783D01*
X009426Y017706D01*
X009657Y017706D02*
X009964Y017706D01*
X010196Y017706D02*
X010426Y017706D01*
X010503Y017630D01*
X010503Y017553D01*
X010426Y017476D01*
X010196Y017476D01*
X010196Y017937D01*
X010426Y017937D01*
X010503Y017860D01*
X010503Y017783D01*
X010426Y017706D01*
X010657Y017553D02*
X010733Y017476D01*
X010887Y017476D01*
X010964Y017553D01*
X010964Y017630D01*
X010887Y017706D01*
X010810Y017706D01*
X010887Y017706D02*
X010964Y017783D01*
X010964Y017860D01*
X010887Y017937D01*
X010733Y017937D01*
X010657Y017860D01*
X011196Y017937D02*
X011196Y017476D01*
X011426Y017476D01*
X011503Y017553D01*
X011503Y017630D01*
X011426Y017706D01*
X011196Y017706D01*
X011426Y017706D02*
X011503Y017783D01*
X011503Y017860D01*
X011426Y017937D01*
X011196Y017937D01*
X011657Y017860D02*
X011733Y017937D01*
X011887Y017937D01*
X011964Y017860D01*
X011964Y017783D01*
X011657Y017476D01*
X011964Y017476D01*
X012196Y017476D02*
X012426Y017476D01*
X012503Y017553D01*
X012503Y017630D01*
X012426Y017706D01*
X012196Y017706D01*
X012196Y017476D02*
X012196Y017937D01*
X012426Y017937D01*
X012503Y017860D01*
X012503Y017783D01*
X012426Y017706D01*
X012657Y017783D02*
X012810Y017937D01*
X012810Y017476D01*
X012657Y017476D02*
X012964Y017476D01*
X013196Y017476D02*
X013426Y017476D01*
X013503Y017553D01*
X013503Y017630D01*
X013426Y017706D01*
X013196Y017706D01*
X013196Y017476D02*
X013196Y017937D01*
X013426Y017937D01*
X013503Y017860D01*
X013503Y017783D01*
X013426Y017706D01*
X013657Y017553D02*
X013733Y017476D01*
X013887Y017476D01*
X013964Y017553D01*
X013964Y017860D01*
X013657Y017553D01*
X013657Y017860D01*
X013733Y017937D01*
X013887Y017937D01*
X013964Y017860D01*
X016196Y017860D02*
X016196Y017553D01*
X016273Y017476D01*
X016426Y017476D01*
X016503Y017553D01*
X016657Y017553D02*
X016657Y017476D01*
X016657Y017553D02*
X016964Y017860D01*
X016964Y017937D01*
X016657Y017937D01*
X016503Y017860D02*
X016426Y017937D01*
X016273Y017937D01*
X016196Y017860D01*
X017196Y017860D02*
X017196Y017553D01*
X017273Y017476D01*
X017426Y017476D01*
X017503Y017553D01*
X017657Y017553D02*
X017733Y017476D01*
X017887Y017476D01*
X017964Y017553D01*
X017964Y017630D01*
X017887Y017706D01*
X017657Y017706D01*
X017657Y017553D01*
X017657Y017706D02*
X017810Y017860D01*
X017964Y017937D01*
X018196Y017860D02*
X018196Y017553D01*
X018273Y017476D01*
X018426Y017476D01*
X018503Y017553D01*
X018657Y017553D02*
X018733Y017476D01*
X018887Y017476D01*
X018964Y017553D01*
X018964Y017706D01*
X018887Y017783D01*
X018810Y017783D01*
X018657Y017706D01*
X018657Y017937D01*
X018964Y017937D01*
X019196Y017860D02*
X019196Y017553D01*
X019273Y017476D01*
X019426Y017476D01*
X019503Y017553D01*
X019657Y017706D02*
X019964Y017706D01*
X019887Y017476D02*
X019887Y017937D01*
X019657Y017706D01*
X019503Y017860D02*
X019426Y017937D01*
X019273Y017937D01*
X019196Y017860D01*
X018503Y017860D02*
X018426Y017937D01*
X018273Y017937D01*
X018196Y017860D01*
X017503Y017860D02*
X017426Y017937D01*
X017273Y017937D01*
X017196Y017860D01*
X019927Y015023D02*
X019927Y014716D01*
X019927Y014869D02*
X019467Y014869D01*
X019620Y014716D01*
X019467Y014562D02*
X019927Y014256D01*
X019927Y014562D02*
X019467Y014256D01*
X017079Y005797D02*
X016959Y005797D01*
X016899Y005737D01*
X016771Y005737D02*
X016771Y005496D01*
X016711Y005436D01*
X016590Y005436D01*
X016530Y005496D01*
X016530Y005737D01*
X016590Y005797D01*
X016711Y005797D01*
X016771Y005737D01*
X016650Y005556D02*
X016771Y005436D01*
X016899Y005436D02*
X017139Y005676D01*
X017139Y005737D01*
X017079Y005797D01*
X017139Y005436D02*
X016899Y005436D01*
X009887Y017476D02*
X009887Y017937D01*
X009657Y017706D01*
X008196Y017476D02*
X008196Y017937D01*
D30*
X012623Y017143D02*
X012623Y016369D01*
X014571Y016369D01*
X014571Y017143D01*
X012623Y017143D01*
X013350Y015750D02*
X014124Y015750D01*
X014124Y013803D01*
X013350Y013803D01*
X013350Y015750D01*
X016615Y011396D02*
X016725Y011396D01*
X016762Y011360D01*
X016762Y011323D01*
X016725Y011286D01*
X016615Y011286D01*
X016615Y011176D02*
X016615Y011396D01*
X016725Y011286D02*
X016762Y011250D01*
X016762Y011213D01*
X016725Y011176D01*
X016615Y011176D01*
X016688Y010996D02*
X016615Y010923D01*
X016615Y010776D01*
X016615Y010886D02*
X016762Y010886D01*
X016762Y010923D02*
X016762Y010776D01*
X016836Y010813D02*
X016873Y010776D01*
X016946Y010776D01*
X016983Y010813D01*
X016983Y010886D01*
X016946Y010923D01*
X016909Y010923D01*
X016836Y010886D01*
X016836Y010996D01*
X016983Y010996D01*
X016983Y011176D02*
X016836Y011176D01*
X016909Y011176D02*
X016909Y011396D01*
X016836Y011323D01*
X016688Y010996D02*
X016762Y010923D01*
X016725Y010146D02*
X016652Y010146D01*
X016615Y010110D01*
X016615Y009963D01*
X016652Y009926D01*
X016725Y009926D01*
X016762Y009963D01*
X016836Y009963D02*
X016873Y009926D01*
X016946Y009926D01*
X016983Y009963D01*
X016983Y010000D01*
X016946Y010036D01*
X016909Y010036D01*
X016946Y010036D02*
X016983Y010073D01*
X016983Y010110D01*
X016946Y010146D01*
X016873Y010146D01*
X016836Y010110D01*
X016762Y010110D02*
X016725Y010146D01*
X016762Y009746D02*
X016762Y009526D01*
X016652Y009526D01*
X016615Y009563D01*
X016615Y009636D01*
X016652Y009673D01*
X016762Y009673D01*
X016836Y009636D02*
X016873Y009673D01*
X016983Y009673D01*
X016983Y009746D02*
X016983Y009526D01*
X016873Y009526D01*
X016836Y009563D01*
X016836Y009636D01*
X016541Y009600D02*
X016541Y009746D01*
X016541Y009600D02*
X016467Y009526D01*
X016394Y009600D01*
X016394Y009746D01*
X018007Y009945D02*
X018227Y009945D01*
X018227Y010055D01*
X018190Y010092D01*
X018117Y010092D01*
X018080Y010055D01*
X018080Y009945D01*
X018080Y009871D02*
X018080Y009761D01*
X018117Y009724D01*
X018154Y009761D01*
X018154Y009834D01*
X018190Y009871D01*
X018227Y009834D01*
X018227Y009724D01*
X018227Y009650D02*
X018080Y009650D01*
X018080Y009503D02*
X018190Y009503D01*
X018227Y009540D01*
X018227Y009650D01*
X018154Y009429D02*
X018007Y009429D01*
X018154Y009429D02*
X018227Y009356D01*
X018154Y009282D01*
X018007Y009282D01*
X018223Y009293D02*
X018223Y008519D01*
X020171Y008519D01*
X020171Y009293D01*
X018223Y009293D01*
X017860Y008140D02*
X018634Y008140D01*
X018634Y006193D01*
X017860Y006193D01*
X017860Y008140D01*
X018910Y008130D02*
X019684Y008130D01*
X019684Y006183D01*
X018910Y006183D01*
X018910Y008130D01*
X018204Y005920D02*
X017430Y005920D01*
X017430Y003973D01*
X018204Y003973D01*
X018204Y005920D01*
X016284Y005920D02*
X015510Y005920D01*
X015510Y003973D01*
X016284Y003973D01*
X016284Y005920D01*
X015371Y006043D02*
X015371Y005269D01*
X013423Y005269D01*
X013423Y006043D01*
X015371Y006043D01*
X013321Y006043D02*
X013321Y005269D01*
X011373Y005269D01*
X011373Y006043D01*
X013321Y006043D01*
X009684Y006430D02*
X009684Y004483D01*
X008910Y004483D01*
X008910Y006430D01*
X009684Y006430D01*
X009084Y008533D02*
X008310Y008533D01*
X008310Y010480D01*
X009084Y010480D01*
X009084Y008533D01*
X008084Y008533D02*
X007310Y008533D01*
X007310Y010480D01*
X008084Y010480D01*
X008084Y008533D01*
X008334Y010583D02*
X007560Y010583D01*
X007560Y012530D01*
X008334Y012530D01*
X008334Y010583D01*
X003284Y017533D02*
X002510Y017533D01*
X002510Y019480D01*
X003284Y019480D01*
X003284Y017533D01*
X001809Y003336D02*
X001699Y003336D01*
X001699Y003116D01*
X001809Y003116D01*
X001846Y003153D01*
X001846Y003300D01*
X001809Y003336D01*
X001625Y003300D02*
X001625Y003153D01*
X001588Y003116D01*
X001478Y003116D01*
X001478Y003336D01*
X001588Y003336D01*
X001625Y003300D01*
X001404Y003336D02*
X001404Y003190D01*
X001330Y003116D01*
X001257Y003190D01*
X001257Y003336D01*
X018007Y010840D02*
X018044Y010803D01*
X018080Y010803D01*
X018117Y010840D01*
X018117Y010913D01*
X018154Y010950D01*
X018190Y010950D01*
X018227Y010913D01*
X018227Y010840D01*
X018190Y010803D01*
X018007Y010840D02*
X018007Y010913D01*
X018044Y010950D01*
X018044Y011024D02*
X018190Y011024D01*
X018227Y011061D01*
X018227Y011134D01*
X018190Y011171D01*
X018154Y011245D02*
X018007Y011392D01*
X018007Y011245D02*
X018227Y011245D01*
X018117Y011282D02*
X018227Y011392D01*
X018044Y011171D02*
X018007Y011134D01*
X018007Y011061D01*
X018044Y011024D01*
D31*
X017697Y017281D03*
X016647Y017281D03*
X009647Y017331D03*
X008697Y017331D03*
X007647Y017331D03*
X006647Y017331D03*
X006647Y003731D03*
D32*
X011997Y006356D02*
X014397Y006356D01*
X014454Y006358D01*
X014510Y006364D01*
X014566Y006373D01*
X014622Y006386D01*
X014676Y006403D01*
X014729Y006423D01*
X014780Y006447D01*
X014830Y006475D01*
X014878Y006505D01*
X014924Y006539D01*
X014967Y006576D01*
X015008Y006615D01*
X015046Y006657D01*
X015081Y006702D01*
X015113Y006749D01*
X015142Y006798D01*
X015168Y006848D01*
X015190Y006901D01*
X015209Y006954D01*
X015224Y007009D01*
X015235Y007065D01*
X015243Y007121D01*
X015247Y007178D01*
X015247Y007234D01*
X015243Y007291D01*
X015235Y007347D01*
X015224Y007403D01*
X015209Y007458D01*
X015190Y007511D01*
X015168Y007564D01*
X015142Y007614D01*
X015113Y007663D01*
X015081Y007710D01*
X015046Y007755D01*
X015008Y007797D01*
X014967Y007836D01*
X014924Y007873D01*
X014878Y007907D01*
X014830Y007937D01*
X014780Y007965D01*
X014729Y007989D01*
X014676Y008009D01*
X014622Y008026D01*
X014566Y008039D01*
X014510Y008048D01*
X014454Y008054D01*
X014397Y008056D01*
X011997Y008056D01*
X011940Y008054D01*
X011884Y008048D01*
X011828Y008039D01*
X011772Y008026D01*
X011718Y008009D01*
X011665Y007989D01*
X011614Y007965D01*
X011564Y007937D01*
X011516Y007907D01*
X011470Y007873D01*
X011427Y007836D01*
X011386Y007797D01*
X011348Y007755D01*
X011313Y007710D01*
X011281Y007663D01*
X011252Y007614D01*
X011226Y007564D01*
X011204Y007511D01*
X011185Y007458D01*
X011170Y007403D01*
X011159Y007347D01*
X011151Y007291D01*
X011147Y007234D01*
X011147Y007178D01*
X011151Y007121D01*
X011159Y007065D01*
X011170Y007009D01*
X011185Y006954D01*
X011204Y006901D01*
X011226Y006848D01*
X011252Y006798D01*
X011281Y006749D01*
X011313Y006702D01*
X011348Y006657D01*
X011386Y006615D01*
X011427Y006576D01*
X011470Y006539D01*
X011516Y006505D01*
X011564Y006475D01*
X011614Y006447D01*
X011665Y006423D01*
X011718Y006403D01*
X011772Y006386D01*
X011828Y006373D01*
X011884Y006364D01*
X011940Y006358D01*
X011997Y006356D01*
X016647Y006356D02*
X016647Y006506D01*
X017047Y006506D02*
X017047Y006306D01*
X000997Y008106D02*
X000997Y013706D01*
X000997Y014306D02*
X000997Y019806D01*
D33*
X008197Y013286D03*
X008417Y013446D03*
X008457Y013466D03*
X008497Y013486D03*
X009117Y012986D03*
X009137Y012986D03*
X009197Y012986D03*
X009217Y012986D03*
X009337Y012986D03*
X009577Y013126D03*
X009597Y013126D03*
X009617Y012746D03*
X009597Y012726D03*
X009537Y012626D03*
X009517Y012606D03*
X009497Y012566D03*
X009477Y012526D03*
X009457Y012506D03*
X009437Y012466D03*
X009317Y012566D03*
X009337Y012586D03*
X009377Y012646D03*
X009417Y012706D03*
X009197Y012466D03*
X009177Y012466D03*
X009257Y012186D03*
X009237Y012146D03*
X009157Y012046D03*
X009357Y011826D03*
X009337Y011806D03*
X009317Y011786D03*
X009297Y011766D03*
X009177Y011666D03*
X009157Y011646D03*
X009097Y011606D03*
X009057Y011586D03*
X008997Y011546D03*
X008977Y011546D03*
X008957Y011526D03*
X008917Y011506D03*
X008817Y011486D03*
X009417Y011866D03*
X009437Y011886D03*
X009457Y011906D03*
X010157Y012586D03*
X010177Y012586D03*
X010197Y012586D03*
X010257Y012606D03*
X010297Y012626D03*
X010297Y013086D03*
X010277Y013106D03*
X010257Y013126D03*
X010237Y013146D03*
X010157Y013266D03*
X010057Y013126D03*
X010077Y013106D03*
X010037Y013546D03*
X010177Y013586D03*
X010317Y013766D03*
X010297Y013786D03*
X010277Y013806D03*
X010257Y013826D03*
X010237Y013846D03*
X010197Y013866D03*
X010177Y013886D03*
X009817Y014026D03*
X009577Y013826D03*
X009557Y013766D03*
X009557Y013646D03*
X009377Y014266D03*
X009277Y014406D03*
X008737Y014726D03*
X008717Y014726D03*
X009317Y015106D03*
X009357Y015146D03*
X009377Y015146D03*
X009417Y015206D03*
X009317Y015306D03*
X010017Y015526D03*
X010077Y015626D03*
X010117Y015686D03*
X010137Y015726D03*
X010157Y015766D03*
X009957Y015846D03*
X009937Y016126D03*
X009997Y016166D03*
X010017Y016166D03*
X010237Y016166D03*
X010317Y016106D03*
X010337Y016126D03*
X010297Y016066D03*
X010377Y016186D03*
X010277Y016266D03*
X010197Y016366D03*
X010217Y016506D03*
X010077Y016786D03*
X010097Y016806D03*
X010117Y016826D03*
X010157Y016846D03*
X010177Y016846D03*
X010217Y016866D03*
X010237Y016866D03*
X010257Y016866D03*
X010277Y016846D03*
X010297Y016846D03*
X009737Y016346D03*
X009757Y016186D03*
X009417Y016366D03*
X009397Y016386D03*
X009357Y016406D03*
X009337Y016426D03*
X009317Y016426D03*
X009097Y016786D03*
X009077Y016806D03*
X009057Y016826D03*
X009377Y017026D03*
X009357Y017066D03*
X009417Y016966D03*
X009457Y016906D03*
X009617Y016726D03*
X009597Y017426D03*
X009537Y017466D03*
X009517Y017486D03*
X009497Y017506D03*
X009477Y017526D03*
X009457Y017546D03*
X009437Y017546D03*
X009417Y017566D03*
X009397Y017586D03*
X009377Y017606D03*
X009317Y017646D03*
X009297Y017666D03*
X009257Y017686D03*
X009237Y017706D03*
X009137Y017766D03*
X009117Y017786D03*
X009097Y017786D03*
X009077Y017806D03*
X009057Y017826D03*
X009037Y017826D03*
X009017Y017846D03*
X008997Y017846D03*
X008977Y017866D03*
X008957Y017866D03*
X008937Y017866D03*
X008917Y017866D03*
X008897Y017866D03*
X008877Y017866D03*
X008857Y017846D03*
X008477Y016006D03*
X009917Y014746D03*
X010177Y014846D03*
X010277Y014966D03*
X010517Y015306D03*
X010737Y015146D03*
X010757Y014946D03*
X010797Y014806D03*
X010797Y014726D03*
X010797Y014626D03*
X011197Y014466D03*
X011457Y014126D03*
X011057Y014006D03*
X011037Y013986D03*
X011017Y013986D03*
X010997Y013986D03*
X010737Y014146D03*
X010857Y013066D03*
X011077Y013026D03*
X012257Y013646D03*
X011817Y014806D03*
X011437Y015346D03*
X011077Y015406D03*
X011057Y015406D03*
X010837Y016286D03*
X010877Y016306D03*
X010897Y016306D03*
X011037Y016326D03*
X011137Y016326D03*
X012157Y015906D03*
X012357Y015946D03*
X012377Y015946D03*
X012397Y015946D03*
X012417Y015946D03*
X012377Y015766D03*
X012357Y015766D03*
D34*
X012337Y015776D03*
X012337Y015936D03*
X012317Y015936D03*
X012197Y015896D03*
X012177Y015896D03*
X012137Y015916D03*
X012117Y015916D03*
X012097Y015916D03*
X011797Y015216D03*
X011817Y015196D03*
X011137Y014396D03*
X011137Y013996D03*
X010517Y014096D03*
X010497Y014096D03*
X010337Y013736D03*
X010157Y013896D03*
X010137Y013916D03*
X010117Y013936D03*
X010017Y013596D03*
X010057Y013516D03*
X009957Y013296D03*
X009997Y013236D03*
X010197Y013216D03*
X010077Y012656D03*
X010097Y012636D03*
X010117Y012616D03*
X010137Y012596D03*
X010317Y012636D03*
X010337Y012656D03*
X010837Y013076D03*
X010817Y013096D03*
X010797Y013116D03*
X010877Y013056D03*
X011017Y013036D03*
X011037Y013036D03*
X011057Y013036D03*
X011017Y012876D03*
X011937Y013456D03*
X011957Y013456D03*
X011977Y013456D03*
X011997Y013456D03*
X012017Y013456D03*
X012037Y013456D03*
X012057Y013476D03*
X012317Y013496D03*
X011837Y014316D03*
X010777Y014956D03*
X010497Y014856D03*
X010177Y015156D03*
X010477Y015276D03*
X010497Y015296D03*
X010497Y015456D03*
X010337Y015736D03*
X010357Y015756D03*
X010377Y015776D03*
X010137Y015536D03*
X010117Y015516D03*
X010097Y015496D03*
X010077Y015476D03*
X010057Y015456D03*
X010037Y015436D03*
X010017Y015416D03*
X009517Y015236D03*
X009437Y015416D03*
X009257Y015076D03*
X009277Y015056D03*
X010017Y014496D03*
X010037Y014496D03*
X009757Y014236D03*
X009557Y014016D03*
X009617Y013096D03*
X009297Y012996D03*
X009437Y012736D03*
X009397Y012676D03*
X009357Y012616D03*
X009637Y012756D03*
X009657Y012776D03*
X008997Y012416D03*
X009397Y011856D03*
X009377Y011836D03*
X009277Y011756D03*
X009257Y011736D03*
X009237Y011716D03*
X009217Y011696D03*
X009197Y011676D03*
X009137Y011636D03*
X009117Y011616D03*
X009077Y011596D03*
X009037Y011576D03*
X009017Y011556D03*
X008797Y011496D03*
X008777Y011496D03*
X009477Y011916D03*
X009497Y011936D03*
X009517Y011956D03*
X009537Y011976D03*
X009557Y011996D03*
X009577Y012016D03*
X008257Y013296D03*
X008277Y013316D03*
X008217Y013276D03*
X008437Y013456D03*
X008477Y013476D03*
X008517Y013496D03*
X008497Y015996D03*
X008457Y016016D03*
X008437Y016036D03*
X008197Y016256D03*
X009037Y016856D03*
X009317Y016856D03*
X009397Y016996D03*
X009337Y017116D03*
X009617Y017396D03*
X009637Y017376D03*
X009657Y017356D03*
X009577Y017436D03*
X009557Y017456D03*
X009357Y017616D03*
X009337Y017636D03*
X009277Y017676D03*
X009217Y017716D03*
X009197Y017736D03*
X008837Y017836D03*
X008817Y017816D03*
X009637Y016696D03*
X010057Y016756D03*
X010317Y016836D03*
X010337Y016816D03*
X010357Y016796D03*
X010797Y016276D03*
X010817Y016276D03*
X010777Y016256D03*
X010757Y016256D03*
X010857Y016296D03*
X011057Y016316D03*
X011077Y016316D03*
X011097Y016316D03*
X011117Y016316D03*
X011037Y016456D03*
X010357Y016176D03*
X010217Y016136D03*
X009957Y016116D03*
D35*
X009977Y016126D03*
X010197Y016126D03*
X010277Y016046D03*
X010257Y016226D03*
X010057Y015846D03*
X010037Y015786D03*
X010017Y015726D03*
X009977Y015606D03*
X010057Y015606D03*
X010157Y015566D03*
X010177Y015586D03*
X010197Y015606D03*
X010217Y015626D03*
X010237Y015646D03*
X010257Y015666D03*
X010277Y015686D03*
X010297Y015706D03*
X010317Y015726D03*
X010397Y015806D03*
X010417Y015826D03*
X010177Y015806D03*
X010017Y015306D03*
X010057Y015266D03*
X010077Y015246D03*
X010157Y015186D03*
X010457Y015246D03*
X009717Y015226D03*
X009697Y015226D03*
X009277Y015286D03*
X008957Y015246D03*
X008577Y015966D03*
X008557Y015966D03*
X008537Y015966D03*
X008517Y015966D03*
X008257Y016206D03*
X008237Y016226D03*
X009017Y016906D03*
X009297Y016866D03*
X009337Y016826D03*
X009357Y016786D03*
X009737Y016586D03*
X009757Y016566D03*
X010017Y016706D03*
X010037Y016726D03*
X009677Y017326D03*
X009177Y017746D03*
X009157Y017746D03*
X008797Y017806D03*
X010917Y016346D03*
X012057Y015926D03*
X012077Y015926D03*
X012317Y015786D03*
X011137Y014126D03*
X010737Y013166D03*
X010757Y013146D03*
X010777Y013126D03*
X010357Y012686D03*
X010057Y012686D03*
X009577Y012706D03*
X009317Y013006D03*
X009277Y012986D03*
X009937Y013326D03*
X009977Y013266D03*
X010017Y013206D03*
X010177Y013246D03*
X010217Y013166D03*
X009997Y013626D03*
X009937Y013766D03*
X009917Y013826D03*
X009897Y013866D03*
X009877Y013926D03*
X009857Y013966D03*
X009837Y014006D03*
X010057Y013986D03*
X010077Y013966D03*
X010097Y013946D03*
X010057Y014166D03*
X009777Y014226D03*
X009617Y014206D03*
X009237Y014246D03*
X008537Y013506D03*
X008397Y013406D03*
X008377Y013386D03*
X008237Y013286D03*
X009657Y012126D03*
X009617Y012066D03*
X009597Y012046D03*
X009077Y011806D03*
X008757Y011506D03*
X012077Y013486D03*
X012097Y013506D03*
X012237Y013486D03*
X012257Y013486D03*
X012277Y013486D03*
X012297Y013486D03*
D36*
X012157Y013566D03*
X011877Y013486D03*
X011857Y013486D03*
X011517Y014186D03*
X011777Y014326D03*
X011517Y014646D03*
X011057Y014206D03*
X011157Y014066D03*
X010237Y014806D03*
X010217Y014806D03*
X010197Y014806D03*
X009897Y014146D03*
X009537Y013626D03*
X009137Y013766D03*
X009077Y013686D03*
X009057Y013666D03*
X009017Y013646D03*
X008937Y013606D03*
X008877Y013586D03*
X008857Y013586D03*
X008617Y013846D03*
X009197Y013326D03*
X009177Y013286D03*
X009017Y012966D03*
X008997Y012926D03*
X008977Y012886D03*
X008957Y012846D03*
X008937Y012806D03*
X008897Y012706D03*
X009137Y012646D03*
X009077Y012346D03*
X009657Y013166D03*
X009957Y012946D03*
X010957Y012966D03*
X010977Y012966D03*
X009197Y015126D03*
X008937Y015186D03*
X009097Y015726D03*
X009037Y015806D03*
X009277Y015986D03*
X009237Y016086D03*
X009457Y016426D03*
X008917Y016826D03*
X008897Y016886D03*
X008877Y016946D03*
X008857Y017006D03*
X008837Y017066D03*
X008797Y017206D03*
X008897Y017506D03*
X008877Y017566D03*
X008717Y017566D03*
X009737Y017166D03*
X010117Y016066D03*
X010677Y016166D03*
X011257Y015846D03*
X011937Y015946D03*
X011957Y015946D03*
X011977Y015946D03*
X011997Y015946D03*
X012277Y015866D03*
X012297Y015866D03*
X008677Y015926D03*
X008317Y016226D03*
X008317Y013286D03*
D37*
X008657Y013526D03*
X008677Y013526D03*
X008697Y013526D03*
X009417Y013026D03*
X009977Y012866D03*
X009597Y013946D03*
X009857Y014206D03*
X009877Y014186D03*
X009917Y014126D03*
X009937Y014106D03*
X009957Y014086D03*
X010157Y014226D03*
X010477Y014146D03*
X010817Y014666D03*
X010257Y015106D03*
X009997Y015346D03*
X009877Y015306D03*
X009857Y015286D03*
X010137Y016086D03*
X010717Y016186D03*
X010997Y016386D03*
X012257Y015866D03*
X012157Y014726D03*
X011977Y014446D03*
X011957Y014426D03*
X011897Y014386D03*
X009797Y016986D03*
X009717Y017226D03*
X008937Y017246D03*
X008937Y016766D03*
X008957Y016706D03*
X008977Y016666D03*
X009137Y016326D03*
X009157Y016286D03*
X009177Y016246D03*
X008637Y015946D03*
X008617Y015946D03*
X008917Y015186D03*
X009197Y014306D03*
X009217Y014286D03*
D38*
X009277Y014206D03*
X009557Y014186D03*
X009837Y014226D03*
X010177Y014266D03*
X010237Y014326D03*
X009977Y013646D03*
X009257Y012966D03*
X009997Y012806D03*
X009097Y011846D03*
X011477Y014146D03*
X011797Y014306D03*
X011837Y014466D03*
X012037Y014526D03*
X011457Y014666D03*
X011457Y014846D03*
X011177Y014446D03*
X010197Y015126D03*
X009977Y015346D03*
X009957Y015366D03*
X009957Y015526D03*
X009657Y015246D03*
X009417Y015426D03*
X009237Y015226D03*
X008757Y014946D03*
X008737Y014966D03*
X008717Y015006D03*
X008697Y015026D03*
X008657Y015106D03*
X008637Y015526D03*
X008597Y015966D03*
X009057Y016486D03*
X009477Y016386D03*
X009997Y016666D03*
X010377Y016766D03*
X010397Y016726D03*
X010417Y016666D03*
X010957Y016386D03*
X010977Y016386D03*
X010457Y015906D03*
X010097Y015986D03*
X009697Y017286D03*
X012037Y015966D03*
X012217Y015866D03*
X012237Y013646D03*
X011897Y013466D03*
X008737Y014486D03*
X008657Y014386D03*
D39*
X008677Y014416D03*
X008697Y014436D03*
X008717Y014456D03*
X008757Y014536D03*
X008757Y014756D03*
X008637Y015136D03*
X009217Y015196D03*
X009737Y015256D03*
X009897Y015336D03*
X010237Y014596D03*
X010217Y014576D03*
X010257Y014336D03*
X010117Y014216D03*
X009257Y014216D03*
X008997Y014216D03*
X008637Y014336D03*
X008637Y013536D03*
X008617Y013536D03*
X008597Y013536D03*
X008577Y013536D03*
X009237Y012936D03*
X009157Y012716D03*
X009477Y012816D03*
X009677Y012816D03*
X009757Y012956D03*
X009697Y012216D03*
X010917Y012996D03*
X012137Y013536D03*
X011997Y014476D03*
X012017Y014496D03*
X011477Y014456D03*
X011077Y015276D03*
X010737Y016216D03*
X010437Y016596D03*
X009977Y016616D03*
X009957Y016556D03*
X009677Y016696D03*
X009737Y016836D03*
X009417Y016596D03*
X009497Y016316D03*
X009117Y016376D03*
X009077Y016456D03*
X009037Y016536D03*
X009017Y016576D03*
X008997Y016616D03*
X008997Y016956D03*
X008977Y017036D03*
X008957Y017136D03*
X012017Y015956D03*
X012237Y015856D03*
D40*
X011857Y015936D03*
X011837Y015936D03*
X011197Y015836D03*
X010837Y015716D03*
X010657Y016176D03*
X010637Y016176D03*
X010557Y016156D03*
X009397Y015736D03*
X009297Y015536D03*
X009177Y015636D03*
X009157Y015656D03*
X009117Y015676D03*
X008917Y015816D03*
X008857Y015856D03*
X008817Y015876D03*
X008777Y015876D03*
X008357Y016196D03*
X008337Y016216D03*
X008777Y014496D03*
X009157Y013796D03*
X009317Y013556D03*
X009297Y013516D03*
X009277Y013476D03*
X009537Y014116D03*
X010477Y013296D03*
X010617Y013236D03*
X010637Y013236D03*
X010657Y013236D03*
X011197Y013636D03*
X011237Y013616D03*
X011257Y013596D03*
X011297Y013536D03*
X011717Y014296D03*
X012137Y014716D03*
X012197Y013576D03*
X012217Y013576D03*
X009757Y012436D03*
X008817Y012456D03*
X008717Y012056D03*
D41*
X008737Y012156D03*
X008857Y012596D03*
X008877Y012656D03*
X008337Y013296D03*
X008717Y013536D03*
X008757Y013556D03*
X008777Y013576D03*
X008797Y013576D03*
X008817Y013576D03*
X008837Y013576D03*
X008897Y013596D03*
X008917Y013596D03*
X008957Y013616D03*
X008977Y013616D03*
X008997Y013636D03*
X009037Y013656D03*
X009097Y013696D03*
X009217Y013376D03*
X009517Y013536D03*
X010097Y013356D03*
X010677Y013236D03*
X010997Y012956D03*
X011217Y013636D03*
X011837Y013496D03*
X012177Y013576D03*
X011537Y014196D03*
X011037Y014196D03*
X010537Y013996D03*
X010297Y014336D03*
X009177Y014316D03*
X008897Y015156D03*
X009377Y015436D03*
X009017Y015816D03*
X008997Y015816D03*
X008977Y015816D03*
X008717Y015896D03*
X008697Y015896D03*
X009217Y016556D03*
X009777Y016456D03*
X010157Y016216D03*
X010757Y015716D03*
X010777Y015716D03*
X010797Y015716D03*
X010817Y015716D03*
X011297Y015876D03*
X011317Y015896D03*
X011917Y015936D03*
X009937Y015416D03*
X008817Y017136D03*
D42*
X008997Y017076D03*
X009017Y016996D03*
X009157Y016976D03*
X009217Y016956D03*
X009237Y016956D03*
X009257Y016936D03*
X009277Y016916D03*
X009157Y016816D03*
X009137Y016816D03*
X009117Y016796D03*
X009177Y016636D03*
X009277Y016696D03*
X009477Y016696D03*
X009497Y016696D03*
X009517Y016696D03*
X009537Y016696D03*
X009557Y016696D03*
X009597Y016736D03*
X009577Y016756D03*
X009557Y016776D03*
X009537Y016796D03*
X009517Y016816D03*
X009497Y016856D03*
X009477Y016876D03*
X009437Y016936D03*
X009317Y017136D03*
X009237Y017116D03*
X009217Y017096D03*
X008857Y017476D03*
X009117Y016496D03*
X009137Y016496D03*
X009157Y016476D03*
X009177Y016476D03*
X009237Y016456D03*
X009257Y016436D03*
X009277Y016436D03*
X009297Y016436D03*
X009377Y016396D03*
X009437Y016356D03*
X009357Y016296D03*
X009337Y016296D03*
X009437Y016136D03*
X009337Y016076D03*
X009457Y015876D03*
X009497Y015756D03*
X009537Y015676D03*
X009697Y015616D03*
X009737Y015496D03*
X009717Y015416D03*
X009997Y015496D03*
X010037Y015556D03*
X010097Y015656D03*
X010197Y015776D03*
X010197Y015836D03*
X010217Y015896D03*
X010237Y015936D03*
X010257Y015976D03*
X010157Y016056D03*
X010177Y016076D03*
X010097Y016156D03*
X010077Y016176D03*
X010057Y016176D03*
X010037Y016176D03*
X010077Y016376D03*
X010217Y016396D03*
X010237Y016416D03*
X010257Y016436D03*
X010277Y016456D03*
X010137Y016836D03*
X010197Y016856D03*
X009757Y016356D03*
X009717Y016376D03*
X009677Y016356D03*
X009597Y016336D03*
X009577Y016336D03*
X009557Y016316D03*
X009557Y016496D03*
X009737Y016196D03*
X009697Y015936D03*
X009717Y015916D03*
X009997Y015956D03*
X010017Y015896D03*
X010037Y015896D03*
X009937Y015716D03*
X009997Y015216D03*
X010037Y015136D03*
X010077Y015156D03*
X010117Y015076D03*
X010097Y015056D03*
X010117Y014976D03*
X010137Y014896D03*
X010017Y014876D03*
X010017Y014776D03*
X009937Y014736D03*
X009897Y014736D03*
X009897Y014816D03*
X009897Y014616D03*
X009917Y014616D03*
X009937Y014616D03*
X009897Y014536D03*
X009997Y014476D03*
X009977Y014416D03*
X009957Y014416D03*
X009937Y014376D03*
X009957Y014356D03*
X009917Y014316D03*
X009897Y014336D03*
X009777Y014396D03*
X009697Y014336D03*
X009657Y014356D03*
X009537Y014416D03*
X009517Y014416D03*
X009437Y014236D03*
X009417Y014216D03*
X009337Y014316D03*
X009577Y014016D03*
X009877Y014056D03*
X009997Y014176D03*
X009997Y014236D03*
X010057Y014296D03*
X010077Y014296D03*
X010097Y014336D03*
X010117Y014336D03*
X010137Y014396D03*
X010157Y014396D03*
X010157Y014476D03*
X010177Y014476D03*
X010177Y014556D03*
X010157Y014556D03*
X010137Y014556D03*
X010197Y014556D03*
X010197Y014636D03*
X010157Y014656D03*
X010177Y014776D03*
X010297Y014496D03*
X010517Y014536D03*
X010517Y014376D03*
X010477Y014296D03*
X010737Y014216D03*
X010917Y014416D03*
X010817Y014516D03*
X010777Y014816D03*
X010757Y015056D03*
X010717Y015136D03*
X010537Y015316D03*
X011037Y015396D03*
X011377Y015376D03*
X011417Y015356D03*
X011477Y014656D03*
X011497Y014556D03*
X011677Y014536D03*
X012177Y014696D03*
X012057Y016016D03*
X010517Y013956D03*
X010217Y013856D03*
X010077Y013356D03*
X010077Y013236D03*
X010057Y013236D03*
X010097Y013076D03*
X010317Y013056D03*
X010277Y012896D03*
X010197Y012836D03*
X010277Y012616D03*
X010237Y012596D03*
X010217Y012596D03*
X009537Y012736D03*
X009497Y012756D03*
X009297Y012536D03*
X009277Y012516D03*
X009257Y012496D03*
X009237Y012476D03*
X009217Y012476D03*
X009157Y012436D03*
X009217Y012376D03*
X009377Y012356D03*
X009397Y012396D03*
X009417Y012436D03*
X009077Y012616D03*
X009017Y012456D03*
X008937Y012476D03*
X008937Y012096D03*
X008957Y012096D03*
X008977Y012096D03*
X008997Y012096D03*
X009017Y012096D03*
X008937Y011516D03*
X008897Y011496D03*
X008877Y011496D03*
X008857Y011496D03*
X008837Y011496D03*
X009397Y013076D03*
X009497Y013096D03*
X009517Y013096D03*
X009557Y013116D03*
X009577Y013236D03*
X009697Y013156D03*
X009697Y013096D03*
X009377Y013396D03*
X009217Y014616D03*
X009217Y014736D03*
X009237Y014736D03*
X009457Y015236D03*
X008677Y015576D03*
X010717Y013296D03*
X011097Y013036D03*
D43*
X010897Y013016D03*
X010717Y013176D03*
X010377Y012716D03*
X010037Y012716D03*
X010017Y012756D03*
X010037Y013196D03*
X010137Y013316D03*
X010077Y013476D03*
X009957Y013716D03*
X009797Y013396D03*
X009637Y013116D03*
X009557Y012696D03*
X009197Y012816D03*
X009177Y012776D03*
X009217Y012876D03*
X008977Y012336D03*
X008937Y012196D03*
X008737Y011536D03*
X009637Y012096D03*
X009677Y012176D03*
X008357Y013356D03*
X008557Y013516D03*
X008637Y013796D03*
X009577Y014196D03*
X009597Y014196D03*
X009797Y014236D03*
X009817Y014236D03*
X010077Y014156D03*
X010097Y014156D03*
X010197Y014276D03*
X010217Y014296D03*
X010517Y014636D03*
X010797Y014376D03*
X011157Y014416D03*
X011437Y014396D03*
X011457Y015316D03*
X010397Y015156D03*
X010237Y015116D03*
X010217Y015136D03*
X010137Y015216D03*
X010117Y015236D03*
X010097Y015236D03*
X010037Y015276D03*
X009837Y015216D03*
X009677Y015236D03*
X009697Y015476D03*
X009997Y015676D03*
X010077Y015916D03*
X010177Y016176D03*
X010177Y016316D03*
X010437Y015876D03*
X010937Y016356D03*
X009717Y016616D03*
X009657Y016696D03*
X009717Y016776D03*
X009397Y016676D03*
X009377Y016736D03*
X008417Y016056D03*
X008397Y016076D03*
X008377Y016096D03*
X008297Y016196D03*
X008277Y016196D03*
X008217Y016236D03*
X008657Y015536D03*
X008997Y015236D03*
X008877Y015196D03*
X008677Y015056D03*
X009257Y015256D03*
X009297Y015296D03*
X009437Y015216D03*
X010357Y013696D03*
X011917Y013476D03*
X012117Y013516D03*
X008777Y017776D03*
D44*
X009777Y017006D03*
X010537Y016186D03*
X010957Y015746D03*
X010977Y015746D03*
X010597Y015446D03*
X010277Y014726D03*
X009637Y015366D03*
X009557Y015366D03*
X009477Y015526D03*
X009337Y015446D03*
X008777Y014826D03*
X009157Y014346D03*
X009477Y013246D03*
X010557Y013246D03*
X010817Y013686D03*
X010797Y013706D03*
X010957Y013646D03*
X011057Y013646D03*
X011137Y013646D03*
X011157Y013646D03*
X011337Y013526D03*
X011357Y013526D03*
X011377Y013526D03*
X011417Y013546D03*
X011777Y013486D03*
X011597Y014246D03*
X011357Y014166D03*
X012117Y014726D03*
X011817Y015946D03*
X011797Y015946D03*
D45*
X011777Y015946D03*
X011737Y015946D03*
X011697Y015926D03*
X011657Y015906D03*
X011437Y015906D03*
X011017Y015766D03*
X012097Y014726D03*
X011317Y014166D03*
X011217Y014146D03*
X011197Y014146D03*
X011077Y014146D03*
X010957Y014146D03*
X010917Y014146D03*
X010797Y014086D03*
X010717Y013886D03*
X010997Y013626D03*
X011017Y013626D03*
X011437Y013546D03*
X011657Y013486D03*
X011677Y013486D03*
X011717Y013466D03*
X011737Y013466D03*
X011757Y013466D03*
X009497Y014046D03*
X009277Y013906D03*
X009257Y013866D03*
X008617Y014186D03*
X009537Y015386D03*
X009797Y016366D03*
X008717Y011686D03*
D46*
X008657Y011796D03*
X009877Y013416D03*
X009777Y013856D03*
X009657Y014056D03*
X009717Y014116D03*
X010737Y013856D03*
X011477Y013536D03*
X011497Y013516D03*
X011517Y013516D03*
X011577Y013516D03*
X011597Y013516D03*
X011617Y013516D03*
X012077Y014736D03*
X012037Y014836D03*
X012017Y014856D03*
X011517Y015156D03*
X011137Y015816D03*
X011117Y015816D03*
X011497Y015916D03*
X009757Y017016D03*
D47*
X009637Y016106D03*
X010697Y015486D03*
X011777Y014826D03*
X011917Y014906D03*
X011937Y014886D03*
X011957Y014866D03*
X012057Y014746D03*
X009677Y013326D03*
D48*
X009457Y013956D03*
X008577Y014076D03*
X009117Y012036D03*
X010817Y014216D03*
X011997Y014856D03*
X011537Y015916D03*
X010517Y016196D03*
X009917Y016256D03*
D49*
X010777Y015296D03*
X011177Y015196D03*
X011977Y014856D03*
X009697Y013556D03*
X009417Y013856D03*
X009437Y013896D03*
X009097Y012336D03*
D50*
X008957Y012256D03*
X008917Y012756D03*
X009037Y013016D03*
X009057Y013056D03*
X009077Y013096D03*
X009097Y013136D03*
X009117Y013176D03*
X009137Y013216D03*
X009157Y013256D03*
X009117Y013716D03*
X009617Y013996D03*
X009797Y013956D03*
X009977Y014056D03*
X009997Y014036D03*
X010137Y014236D03*
X010277Y014336D03*
X010277Y015116D03*
X010377Y015176D03*
X010517Y015456D03*
X010537Y015456D03*
X010477Y015976D03*
X010697Y016176D03*
X011017Y016396D03*
X011217Y015836D03*
X011237Y015836D03*
X011277Y015856D03*
X011477Y015276D03*
X011117Y014656D03*
X011457Y014436D03*
X011497Y014176D03*
X011917Y014396D03*
X011937Y014416D03*
X010697Y013236D03*
X010937Y012976D03*
X010117Y013336D03*
X009777Y013016D03*
X008297Y013276D03*
X008577Y015356D03*
X009057Y015796D03*
X009297Y015936D03*
X009317Y015896D03*
X009337Y015856D03*
X009257Y016036D03*
X009217Y016136D03*
X009197Y016196D03*
X009097Y016436D03*
X008657Y015936D03*
X009397Y015416D03*
X009917Y015376D03*
X010457Y016536D03*
X009697Y016696D03*
X008917Y017376D03*
D51*
X010497Y016216D03*
X009597Y015476D03*
X010397Y014456D03*
X009857Y013476D03*
X011757Y014856D03*
X011857Y014916D03*
X011897Y014896D03*
D52*
X011797Y014826D03*
X011857Y014406D03*
X011877Y014406D03*
X011757Y014326D03*
X011737Y014306D03*
X011417Y014186D03*
X011177Y014086D03*
X011017Y014186D03*
X010997Y014166D03*
X010557Y013966D03*
X010017Y014046D03*
X009717Y013586D03*
X009497Y013386D03*
X009257Y013446D03*
X009237Y013406D03*
X009437Y012986D03*
X008837Y012526D03*
X009137Y012026D03*
X009937Y013046D03*
X010457Y013306D03*
X010597Y013266D03*
X011277Y013546D03*
X011817Y013486D03*
X010377Y014926D03*
X011497Y015246D03*
X011337Y015906D03*
X011877Y015926D03*
X011897Y015926D03*
X010477Y016446D03*
X009517Y016246D03*
X009437Y016526D03*
X008877Y015846D03*
X008937Y015806D03*
X008957Y015806D03*
X009077Y015746D03*
X009137Y015666D03*
X009317Y015506D03*
X009377Y015786D03*
X009357Y015826D03*
X008757Y015886D03*
X008737Y015886D03*
X009177Y015086D03*
X008897Y014286D03*
X008557Y014046D03*
X008737Y013546D03*
D53*
X009377Y013826D03*
X010737Y015506D03*
X011877Y014906D03*
D54*
X011837Y015086D03*
X011177Y014726D03*
X011397Y014186D03*
X011657Y014266D03*
X011697Y014286D03*
X011177Y013626D03*
X011317Y013526D03*
X011797Y013486D03*
X010657Y013926D03*
X010577Y013966D03*
X010317Y014366D03*
X010037Y014066D03*
X009797Y013646D03*
X009797Y013126D03*
X010497Y013286D03*
X010577Y013246D03*
X009217Y013826D03*
X009197Y013826D03*
X009177Y013806D03*
X009117Y012506D03*
X008777Y012326D03*
X010397Y014926D03*
X010557Y015446D03*
X010577Y015466D03*
X010857Y015726D03*
X010897Y015726D03*
X010917Y015726D03*
X011177Y015826D03*
X011357Y015906D03*
X010617Y016166D03*
X010597Y016166D03*
X010577Y016166D03*
X009497Y015506D03*
X009357Y015426D03*
X009417Y015686D03*
X008897Y015826D03*
X008837Y015866D03*
X008797Y015886D03*
X009177Y016886D03*
D55*
X008777Y017336D03*
X009577Y015716D03*
X009757Y015336D03*
X009157Y015036D03*
X009637Y014096D03*
X009337Y013976D03*
X009237Y013856D03*
X010257Y014716D03*
X010357Y014316D03*
X010697Y013916D03*
X010897Y013656D03*
X010917Y013656D03*
X010937Y013656D03*
X010977Y013636D03*
X011037Y013636D03*
X011077Y013636D03*
X011097Y013636D03*
X011117Y013636D03*
X011397Y013536D03*
X011637Y013496D03*
X011097Y014136D03*
X011237Y014156D03*
X011257Y014156D03*
X011277Y014156D03*
X011297Y014156D03*
X011337Y014176D03*
X011557Y014256D03*
X011577Y014256D03*
X011097Y014716D03*
X011097Y015256D03*
X010637Y015436D03*
X010617Y015436D03*
X010997Y015756D03*
X011157Y015796D03*
X011397Y015916D03*
X011417Y015916D03*
X011717Y015936D03*
X011757Y015956D03*
X010377Y013556D03*
X009697Y012716D03*
D56*
X008697Y011836D03*
X010757Y013916D03*
X010377Y014456D03*
X010477Y014656D03*
X011737Y014876D03*
X009897Y016096D03*
X009197Y016776D03*
D57*
X010357Y014896D03*
X011037Y014876D03*
X011637Y014956D03*
X011717Y014896D03*
X010777Y013956D03*
X009837Y013496D03*
D58*
X009917Y013196D03*
X009757Y013916D03*
X009317Y013976D03*
X009457Y015556D03*
X009537Y016136D03*
X011037Y015776D03*
X011057Y015776D03*
X011457Y015916D03*
X011577Y015936D03*
X011677Y015916D03*
X010937Y014156D03*
X010897Y014156D03*
X011457Y013536D03*
X011697Y013476D03*
D59*
X011697Y014906D03*
X011377Y014926D03*
X011017Y014906D03*
D60*
X011377Y014176D03*
X011617Y014256D03*
X011637Y014256D03*
X011677Y014276D03*
X011117Y014116D03*
X010977Y014116D03*
X010677Y013916D03*
X010637Y013936D03*
X010617Y013936D03*
X010597Y013956D03*
X010337Y014356D03*
X009697Y014096D03*
X009517Y014096D03*
X009337Y013596D03*
X009897Y013256D03*
X010517Y013276D03*
X010537Y013256D03*
X010837Y013676D03*
X010857Y013676D03*
X010877Y013676D03*
X009577Y015336D03*
X009517Y015456D03*
X009437Y015656D03*
X009277Y015576D03*
X009257Y015596D03*
X009237Y015596D03*
X009217Y015616D03*
X009197Y015616D03*
X009617Y016196D03*
X009937Y016416D03*
X010877Y015736D03*
X010937Y015736D03*
X011377Y015916D03*
X008797Y012376D03*
X008757Y012216D03*
D61*
X010437Y013096D03*
X010337Y014896D03*
X011197Y015076D03*
X011677Y014956D03*
D62*
X011657Y014966D03*
X011397Y014906D03*
X010817Y015146D03*
X009737Y012626D03*
X009717Y012566D03*
D63*
X009477Y014006D03*
X009617Y015386D03*
X009557Y015966D03*
X008597Y015346D03*
X010657Y015446D03*
X010757Y015326D03*
X011077Y015786D03*
X011097Y015806D03*
X011477Y015906D03*
X011597Y015926D03*
X011617Y015926D03*
X011637Y015926D03*
X010877Y014166D03*
X011537Y013526D03*
X011557Y013526D03*
D64*
X011577Y014946D03*
X011597Y014946D03*
X011617Y014946D03*
X008997Y014726D03*
D65*
X008797Y014696D03*
X009857Y015836D03*
X009877Y015936D03*
X011537Y014956D03*
X011557Y014956D03*
D66*
X010677Y015466D03*
X011517Y015926D03*
X011557Y015926D03*
X010497Y014566D03*
X009297Y013986D03*
X009677Y015646D03*
X008737Y017546D03*
D67*
X009777Y015436D03*
X009397Y013836D03*
X011437Y014836D03*
D68*
X011417Y014886D03*
X010297Y014906D03*
X009677Y013946D03*
D69*
X009617Y013746D03*
X009597Y013746D03*
X009497Y013706D03*
X009457Y013586D03*
X009617Y013486D03*
X009657Y013566D03*
X009617Y013346D03*
X009717Y013286D03*
X009757Y013326D03*
X009997Y013346D03*
X010017Y013346D03*
X009997Y013466D03*
X009977Y013466D03*
X010197Y013486D03*
X010277Y013486D03*
X010317Y013466D03*
X010317Y013346D03*
X010217Y013286D03*
X010197Y013286D03*
X010137Y013186D03*
X010037Y013106D03*
X010017Y013106D03*
X010117Y013046D03*
X010117Y012986D03*
X010137Y012986D03*
X010077Y012886D03*
X010077Y012846D03*
X010097Y012826D03*
X010097Y012746D03*
X010157Y012766D03*
X010177Y012726D03*
X010217Y012826D03*
X010277Y012846D03*
X010257Y012906D03*
X010257Y013006D03*
X010337Y013046D03*
X010317Y013146D03*
X010317Y012786D03*
X010337Y012786D03*
X011037Y012866D03*
X011277Y013706D03*
X010717Y014106D03*
X010517Y013906D03*
X010177Y013806D03*
X010157Y013826D03*
X010117Y013786D03*
X010057Y013746D03*
X010017Y013866D03*
X010057Y013906D03*
X010217Y013686D03*
X010277Y013606D03*
X010017Y014226D03*
X009977Y014246D03*
X009937Y014306D03*
X009977Y014346D03*
X009997Y014406D03*
X010037Y014306D03*
X010097Y014286D03*
X010117Y014406D03*
X010177Y014406D03*
X010137Y014466D03*
X010177Y014666D03*
X009997Y014766D03*
X009997Y014866D03*
X009977Y014966D03*
X009957Y014966D03*
X009937Y015066D03*
X009917Y015066D03*
X009937Y015126D03*
X010057Y015146D03*
X010017Y015226D03*
X010077Y015046D03*
X010097Y014966D03*
X010137Y014986D03*
X010157Y014906D03*
X010117Y014886D03*
X010237Y014966D03*
X009877Y014826D03*
X009877Y014746D03*
X009877Y014626D03*
X009877Y014546D03*
X009837Y014466D03*
X009677Y014346D03*
X009457Y014446D03*
X009297Y014546D03*
X009277Y014546D03*
X009257Y014546D03*
X009197Y014606D03*
X009257Y014746D03*
X009277Y014866D03*
X009217Y015066D03*
X009337Y015086D03*
X009557Y015586D03*
X009517Y015666D03*
X009517Y015766D03*
X009477Y015766D03*
X009517Y015806D03*
X009437Y015886D03*
X009377Y015946D03*
X009397Y016006D03*
X009377Y016026D03*
X009317Y016106D03*
X009317Y016206D03*
X009297Y016206D03*
X009277Y016266D03*
X009297Y016586D03*
X009317Y016586D03*
X009297Y016666D03*
X009157Y016646D03*
X009097Y016606D03*
X009057Y016726D03*
X009117Y016906D03*
X009097Y016946D03*
X009157Y017086D03*
X009257Y017046D03*
X009357Y016986D03*
X009397Y016886D03*
X009437Y016706D03*
X009457Y016706D03*
X009557Y016586D03*
X009677Y016526D03*
X009697Y016526D03*
X009717Y016526D03*
X009697Y016366D03*
X009597Y016146D03*
X009577Y016146D03*
X009717Y015826D03*
X009737Y015726D03*
X009757Y015726D03*
X009737Y015686D03*
X009717Y015686D03*
X009717Y015506D03*
X009917Y015606D03*
X009917Y015726D03*
X009937Y015866D03*
X010017Y015966D03*
X009997Y016046D03*
X009977Y016046D03*
X010017Y016066D03*
X010077Y016086D03*
X010097Y016086D03*
X010017Y016246D03*
X010017Y016326D03*
X010057Y016446D03*
X010077Y016486D03*
X010097Y016486D03*
X010237Y016306D03*
X010257Y016306D03*
X010337Y016206D03*
X010397Y016186D03*
X010397Y016106D03*
X010337Y015866D03*
X010277Y015806D03*
X010477Y015466D03*
X010837Y015486D03*
X011017Y015386D03*
X011397Y015366D03*
X011177Y015626D03*
X011057Y016466D03*
X010357Y016406D03*
X010317Y016606D03*
X010277Y016686D03*
X010217Y016726D03*
X010157Y016746D03*
X010177Y016786D03*
X009657Y017026D03*
X009557Y017106D03*
X009477Y017086D03*
X009557Y017266D03*
X009557Y017326D03*
X009657Y017226D03*
X009397Y017406D03*
X009337Y017486D03*
X009257Y017426D03*
X009157Y017386D03*
X009057Y017406D03*
X009037Y017406D03*
X008977Y017366D03*
X008997Y017246D03*
X009077Y017206D03*
X008997Y017146D03*
X009277Y017186D03*
X009237Y017606D03*
X008997Y017526D03*
X008897Y017686D03*
X008937Y017726D03*
X008877Y017766D03*
X008817Y017646D03*
X009977Y015466D03*
X010777Y014886D03*
X010537Y014606D03*
X010517Y014446D03*
X009357Y014246D03*
X009397Y013346D03*
X009357Y013266D03*
X009337Y013186D03*
X009337Y013106D03*
X009337Y013046D03*
X009217Y013106D03*
X009177Y012986D03*
X009157Y012986D03*
X009337Y012866D03*
X009317Y012766D03*
X009277Y012766D03*
X009217Y012686D03*
X009117Y012726D03*
X009037Y012746D03*
X008977Y012646D03*
X008957Y012486D03*
X009137Y012246D03*
X009177Y012246D03*
X009277Y012186D03*
X009317Y012086D03*
X009477Y012086D03*
X009497Y012166D03*
X009517Y012206D03*
X009617Y012266D03*
X009497Y012326D03*
X009557Y012446D03*
X009637Y012486D03*
X009657Y012406D03*
X009577Y012586D03*
X009637Y012666D03*
X009517Y012746D03*
X009517Y012886D03*
X009557Y012946D03*
X009617Y012846D03*
X009557Y013066D03*
X009537Y013106D03*
X009297Y013326D03*
X009377Y012486D03*
X009357Y012326D03*
X009037Y012106D03*
X008917Y012086D03*
X008857Y012026D03*
X008857Y012146D03*
X008817Y012226D03*
X008857Y011846D03*
X008817Y011826D03*
X008757Y011786D03*
X008757Y011646D03*
X008857Y011686D03*
X008957Y011666D03*
X008957Y011706D03*
X008857Y011566D03*
X009177Y011826D03*
X009217Y011826D03*
X009237Y011946D03*
D70*
X010417Y013136D03*
X011337Y014976D03*
X011357Y014976D03*
D71*
X011317Y014986D03*
X011237Y014986D03*
X011217Y014986D03*
X011137Y015006D03*
X009817Y013486D03*
X008937Y014606D03*
X008917Y014606D03*
D72*
X008877Y014646D03*
X008817Y014706D03*
X009657Y015906D03*
X010957Y014986D03*
X010977Y014986D03*
X011277Y014966D03*
X011297Y014966D03*
D73*
X011257Y014976D03*
X011157Y014996D03*
D74*
X011117Y015186D03*
X009737Y014046D03*
X009457Y012966D03*
X008617Y015326D03*
D75*
X008897Y014726D03*
X008597Y014066D03*
X010717Y015506D03*
X011077Y014806D03*
X008757Y017526D03*
X008677Y011826D03*
D76*
X011057Y014846D03*
X010797Y015206D03*
D77*
X010997Y014936D03*
X009797Y015556D03*
D78*
X010917Y014966D03*
X010937Y014966D03*
D79*
X010897Y014926D03*
X008857Y014706D03*
D80*
X008957Y014656D03*
X010457Y014616D03*
X010877Y014916D03*
D81*
X010857Y014696D03*
D82*
X010837Y014706D03*
D83*
X010437Y014716D03*
X009837Y015856D03*
X009077Y014716D03*
D84*
X009137Y014696D03*
X010417Y014696D03*
D85*
X010397Y013186D03*
D86*
X009357Y013816D03*
X010317Y014896D03*
D87*
X009817Y015836D03*
D88*
X009117Y014706D03*
X009097Y014706D03*
D89*
X009057Y014706D03*
X009037Y014706D03*
D90*
X009017Y014716D03*
X008977Y014716D03*
D91*
X008837Y014716D03*
D92*
X009327Y012068D02*
X009327Y009144D01*
X016277Y009144D01*
X016277Y012068D01*
X009327Y012068D01*
X009487Y009366D02*
X009489Y009395D01*
X009495Y009423D01*
X009504Y009450D01*
X009518Y009475D01*
X009534Y009499D01*
X009554Y009519D01*
X009576Y009538D01*
X009600Y009552D01*
X009627Y009564D01*
X009654Y009572D01*
X009683Y009576D01*
X009711Y009576D01*
X009740Y009572D01*
X009767Y009564D01*
X009794Y009552D01*
X009818Y009538D01*
X009840Y009519D01*
X009860Y009499D01*
X009876Y009475D01*
X009890Y009450D01*
X009899Y009423D01*
X009905Y009395D01*
X009907Y009366D01*
X009905Y009337D01*
X009899Y009309D01*
X009890Y009282D01*
X009876Y009257D01*
X009860Y009233D01*
X009840Y009213D01*
X009818Y009194D01*
X009794Y009180D01*
X009767Y009168D01*
X009740Y009160D01*
X009711Y009156D01*
X009683Y009156D01*
X009654Y009160D01*
X009627Y009168D01*
X009600Y009180D01*
X009576Y009194D01*
X009554Y009213D01*
X009534Y009233D01*
X009518Y009257D01*
X009504Y009282D01*
X009495Y009309D01*
X009489Y009337D01*
X009487Y009366D01*
X011997Y007856D02*
X014397Y007856D01*
X014447Y007854D01*
X014496Y007848D01*
X014545Y007839D01*
X014593Y007826D01*
X014640Y007809D01*
X014685Y007789D01*
X014729Y007765D01*
X014771Y007738D01*
X014811Y007707D01*
X014848Y007674D01*
X014882Y007638D01*
X014914Y007600D01*
X014943Y007559D01*
X014968Y007517D01*
X014990Y007472D01*
X015009Y007426D01*
X015024Y007378D01*
X015035Y007330D01*
X015043Y007281D01*
X015047Y007231D01*
X015047Y007181D01*
X015043Y007131D01*
X015035Y007082D01*
X015024Y007034D01*
X015009Y006986D01*
X014990Y006940D01*
X014968Y006895D01*
X014943Y006853D01*
X014914Y006812D01*
X014882Y006774D01*
X014848Y006738D01*
X014811Y006705D01*
X014771Y006674D01*
X014729Y006647D01*
X014685Y006623D01*
X014640Y006603D01*
X014593Y006586D01*
X014545Y006573D01*
X014496Y006564D01*
X014447Y006558D01*
X014397Y006556D01*
X011997Y006556D01*
X011947Y006558D01*
X011898Y006564D01*
X011849Y006573D01*
X011801Y006586D01*
X011754Y006603D01*
X011709Y006623D01*
X011665Y006647D01*
X011623Y006674D01*
X011583Y006705D01*
X011546Y006738D01*
X011512Y006774D01*
X011480Y006812D01*
X011451Y006853D01*
X011426Y006895D01*
X011404Y006940D01*
X011385Y006986D01*
X011370Y007034D01*
X011359Y007082D01*
X011351Y007131D01*
X011347Y007181D01*
X011347Y007231D01*
X011351Y007281D01*
X011359Y007330D01*
X011370Y007378D01*
X011385Y007426D01*
X011404Y007472D01*
X011426Y007517D01*
X011451Y007559D01*
X011480Y007600D01*
X011512Y007638D01*
X011546Y007674D01*
X011583Y007707D01*
X011623Y007738D01*
X011665Y007765D01*
X011709Y007789D01*
X011754Y007809D01*
X011801Y007826D01*
X011849Y007839D01*
X011898Y007848D01*
X011947Y007854D01*
X011997Y007856D01*
X012697Y007206D02*
X012947Y007206D01*
X012947Y007506D01*
X013097Y007506D02*
X013297Y007506D01*
X013297Y006906D01*
X013097Y006906D01*
X013097Y007506D01*
X012947Y007206D02*
X012947Y006906D01*
X013447Y006906D02*
X013447Y007206D01*
X013697Y007206D01*
X013447Y007206D02*
X013447Y007506D01*
X016447Y006006D02*
X016497Y006006D01*
X017197Y006006D01*
X017247Y006006D01*
X017247Y003856D01*
X017245Y003839D01*
X017241Y003822D01*
X017234Y003806D01*
X017224Y003792D01*
X017211Y003779D01*
X017197Y003769D01*
X017181Y003762D01*
X017164Y003758D01*
X017147Y003756D01*
X016547Y003756D01*
X016530Y003758D01*
X016513Y003762D01*
X016497Y003769D01*
X016483Y003779D01*
X016470Y003792D01*
X016460Y003806D01*
X016453Y003822D01*
X016449Y003839D01*
X016447Y003856D01*
X016447Y006006D01*
X016497Y006006D02*
X016497Y006156D01*
X017197Y006156D01*
X017197Y006006D01*
X016847Y005356D02*
X016847Y005156D01*
X016647Y005156D01*
X016647Y005006D02*
X016647Y004856D01*
X017047Y004856D01*
X017047Y005006D01*
X016647Y005006D01*
X016847Y005156D02*
X017047Y005156D01*
X017047Y004706D02*
X016847Y004706D01*
X016647Y004706D01*
X016847Y004706D02*
X016847Y004506D01*
X017197Y009206D02*
X017797Y009206D01*
X017814Y009208D01*
X017831Y009212D01*
X017847Y009219D01*
X017861Y009229D01*
X017874Y009242D01*
X017884Y009256D01*
X017891Y009272D01*
X017895Y009289D01*
X017897Y009306D01*
X017897Y010306D01*
X017895Y010323D01*
X017891Y010340D01*
X017884Y010356D01*
X017874Y010370D01*
X017861Y010383D01*
X017847Y010393D01*
X017831Y010400D01*
X017814Y010404D01*
X017797Y010406D01*
X017197Y010406D01*
X017180Y010404D01*
X017163Y010400D01*
X017147Y010393D01*
X017133Y010383D01*
X017120Y010370D01*
X017110Y010356D01*
X017103Y010340D01*
X017099Y010323D01*
X017097Y010306D01*
X017097Y009306D01*
X017099Y009289D01*
X017103Y009272D01*
X017110Y009256D01*
X017120Y009242D01*
X017133Y009229D01*
X017147Y009219D01*
X017163Y009212D01*
X017180Y009208D01*
X017197Y009206D01*
X017197Y010506D02*
X017797Y010506D01*
X017814Y010508D01*
X017831Y010512D01*
X017847Y010519D01*
X017861Y010529D01*
X017874Y010542D01*
X017884Y010556D01*
X017891Y010572D01*
X017895Y010589D01*
X017897Y010606D01*
X017897Y011606D01*
X017895Y011623D01*
X017891Y011640D01*
X017884Y011656D01*
X017874Y011670D01*
X017861Y011683D01*
X017847Y011693D01*
X017831Y011700D01*
X017814Y011704D01*
X017797Y011706D01*
X017197Y011706D01*
X017180Y011704D01*
X017163Y011700D01*
X017147Y011693D01*
X017133Y011683D01*
X017120Y011670D01*
X017110Y011656D01*
X017103Y011640D01*
X017099Y011623D01*
X017097Y011606D01*
X017097Y010606D01*
X017099Y010589D01*
X017103Y010572D01*
X017110Y010556D01*
X017120Y010542D01*
X017133Y010529D01*
X017147Y010519D01*
X017163Y010512D01*
X017180Y010508D01*
X017197Y010506D01*
X005977Y013276D02*
X003517Y013276D01*
X003517Y014638D01*
X005977Y014638D01*
X005977Y013276D01*
X005697Y006906D02*
X004897Y006906D01*
X004797Y006806D01*
X004797Y006006D01*
X004897Y005906D01*
X004797Y005806D01*
X004797Y005006D01*
X004897Y004906D01*
X004797Y004806D01*
X004797Y004006D01*
X004897Y003906D01*
X005697Y003906D01*
X005797Y004006D01*
X005797Y004806D01*
X005697Y004906D01*
X005797Y005006D01*
X005797Y005806D01*
X005697Y005906D01*
X005797Y006006D01*
X005797Y006806D01*
X005697Y006906D01*
X004097Y006806D02*
X004097Y006006D01*
X003997Y005906D01*
X004097Y005806D01*
X004097Y005006D01*
X003997Y004906D01*
X004097Y004806D01*
X004097Y004006D01*
X003997Y003906D01*
X003197Y003906D01*
X003097Y004006D01*
X003097Y004806D01*
X003197Y004906D01*
X003097Y005006D01*
X003097Y005806D01*
X003197Y005906D01*
X003097Y006006D01*
X003097Y006806D01*
X003197Y006906D01*
X003997Y006906D01*
X004097Y006806D01*
X002247Y005506D02*
X002247Y005306D01*
X002247Y005506D02*
X002047Y005506D01*
X001447Y005506D02*
X001247Y005506D01*
X001247Y005306D01*
X001247Y004706D02*
X001247Y004506D01*
X001447Y004506D01*
X001447Y004356D02*
X001247Y004356D01*
X001247Y004156D01*
X001247Y003556D02*
X001247Y003356D01*
X001447Y003356D01*
X002047Y003356D02*
X002247Y003356D01*
X002247Y003556D01*
X002247Y004156D02*
X002247Y004356D01*
X002047Y004356D01*
X002047Y004506D02*
X002247Y004506D01*
X002247Y004706D01*
D93*
X011713Y010241D02*
X011923Y010241D01*
X011818Y010241D02*
X011818Y010872D01*
X011713Y010872D02*
X011923Y010872D01*
X012143Y010767D02*
X012143Y010346D01*
X012248Y010241D01*
X012458Y010241D01*
X012563Y010346D01*
X012787Y010241D02*
X013208Y010241D01*
X012998Y010241D02*
X012998Y010872D01*
X012787Y010662D01*
X012563Y010767D02*
X012458Y010872D01*
X012248Y010872D01*
X012143Y010767D01*
D94*
X005239Y013781D02*
X004939Y013781D01*
X005239Y014082D01*
X005239Y014157D01*
X005164Y014232D01*
X005014Y014232D01*
X004939Y014157D01*
X004779Y014157D02*
X004704Y014232D01*
X004554Y014232D01*
X004479Y014157D01*
X004479Y013856D01*
X004554Y013781D01*
X004704Y013781D01*
X004779Y013856D01*
X004322Y013781D02*
X004172Y013781D01*
X004247Y013781D02*
X004247Y014232D01*
X004172Y014232D02*
X004322Y014232D01*
X000997Y005132D02*
X000997Y004831D01*
X000847Y004981D02*
X001147Y004981D01*
X001272Y004706D02*
X001572Y004706D01*
D95*
X016647Y006291D03*
X017047Y006291D03*
D96*
X007061Y015256D03*
M02*
